<svg id="Capa_1" data-name="Capa 1" xmlns="http://www.w3.org/2000/svg" width="298.3" height="195.13" viewBox="0 0 298.3 195.13"><defs><style>.cls-1,.cls-10,.cls-16,.cls-17,.cls-18,.cls-2,.cls-3,.cls-4,.cls-5,.cls-6,.cls-8,.cls-9{fill:none;}.cls-1,.cls-10,.cls-6{stroke:#fff;}.cls-1,.cls-10,.cls-16,.cls-18,.cls-2,.cls-3,.cls-4,.cls-9{stroke-linecap:round;}.cls-1,.cls-10,.cls-16,.cls-17,.cls-18,.cls-2,.cls-3,.cls-4,.cls-5,.cls-9{stroke-linejoin:round;}.cls-1{stroke-width:8px;}.cls-2,.cls-3{stroke:#00071b;}.cls-2,.cls-4,.cls-5{stroke-width:2.8px;}.cls-3{stroke-width:5.4px;}.cls-4{stroke:#8c92a1;}.cls-5{stroke:#fff100;}.cls-6{stroke-width:1.3px;}.cls-7{fill:#ea1a4d;}.cls-16,.cls-17,.cls-18,.cls-8,.cls-9{stroke:#231f20;}.cls-9{stroke-width:1.5px;}.cls-10,.cls-15,.cls-16{stroke-width:0.5px;}.cls-11,.cls-15,.cls-20,.cls-22,.cls-24,.cls-25{fill:#fff;}.cls-12{fill:#ffca05;}.cls-13,.cls-19,.cls-23{fill:#231f20;}.cls-14{fill:#007dc4;}.cls-15{stroke:#007dc4;}.cls-17{stroke-width:0.25px;}.cls-18{stroke-width:0.65px;}.cls-19,.cls-20,.cls-21,.cls-22,.cls-23,.cls-24,.cls-25{isolation:isolate;}.cls-19,.cls-20,.cls-22,.cls-23{font-size:8.5px;}.cls-19,.cls-20,.cls-22,.cls-24,.cls-25{font-family:Helvetica-Bold, Helvetica;font-weight:700;}.cls-22{letter-spacing:-0.05em;}.cls-23{font-family:Helvetica;}.cls-24,.cls-25{font-size:7.5px;}.cls-24{letter-spacing:-0.08em;}.cls-25{letter-spacing:-0.13em;}</style></defs><g id="baku_city_circuit" data-name="baku city circuit"><path class="cls-1" d="M136.25,101.87l-32.68,17.29c-2.13,1.11-4.41,3-5.26,5.16l-4.76,9.8c-1.22,1.94-1,3.15-3.48,4.75L69.3,152.21a18.72,18.72,0,0,0-4,3.42L54.13,171c-1.64,2.4-3.24,2.63-5.47,1.07L17.9,148.76c-2.75.2-1.58-3.25-1.58-3.25,2.75-9.7,3.41-23.93,3.41-23.93A9.21,9.21,0,0,1,21,117.12l9.07-18.47a12.53,12.53,0,0,1,3.64-4.06C45,89.43,63.77,83.24,77,81.69a3,3,0,0,1,3.27,2.47l.54,3.5c.53,2.27.75,3.09,2.52,3.09s4.76,0,6,1.6a2.85,2.85,0,0,0,2.26,1.25c.74,0,1.26,0,1.58,1.4l3,19.26s.07,3.74,1.75,2.81,1.94-1.47,3.25-2.16l36.33-19c2-1.19,3.21-2.26,2.37-4.56s-.07-2.61,2.17-3.75l16.77-7.22,18.09-4.14c1.63-.59,2.85-1.18,2.27-3.23A188.61,188.61,0,0,1,174,49.75c-.22-1.46-.13-2.79,1.56-3.18l59.75-15.32,41.77-8.33c1.3-.19,1.88.51,2.36,1.65l8.9,36.51c.29,1.71.71,3.07-1.52,3.79L215.74,81.3,145.32,98.78A43.92,43.92,0,0,0,136.25,101.87Z" transform="translate(-3.7 -1.87)"/><path class="cls-2" d="M188.34,87.78l40-14A11.13,11.13,0,0,1,232,71.34c1.79-.58,2.88.59,6-.24s43.34-10.44,43.34-10.44,1.59-.39-1.71-13.41l-.74-19.51" transform="translate(-3.7 -1.87)"/><path class="cls-3" d="M136.25,101.87l-32.68,17.29c-2.13,1.11-4.41,3-5.26,5.16l-4.76,9.8c-1.22,1.94-1,3.15-3.48,4.75L69.3,152.21a18.72,18.72,0,0,0-4,3.42L54.13,171c-1.64,2.4-3.24,2.63-5.47,1.07L17.9,148.76c-2.75.2-1.58-3.25-1.58-3.25,2.75-9.7,3.41-23.93,3.41-23.93A9.21,9.21,0,0,1,21,117.12l9.07-18.47a12.53,12.53,0,0,1,3.64-4.06C45,89.43,63.77,83.24,77,81.69a3,3,0,0,1,3.27,2.47l.54,3.5c.53,2.27.75,3.09,2.52,3.09s4.76,0,6,1.6a2.85,2.85,0,0,0,2.26,1.25c.74,0,1.26,0,1.58,1.4l3,19.26s.07,3.74,1.75,2.81,1.94-1.47,3.25-2.16l36.33-19c2-1.19,3.21-2.26,2.37-4.56s-.07-2.61,2.17-3.75l16.77-7.22,18.09-4.14c1.63-.59,2.85-1.18,2.27-3.23A188.61,188.61,0,0,1,174,49.75c-.22-1.46-.13-2.79,1.56-3.18l59.75-15.32,41.77-8.33c1.3-.19,1.88.51,2.36,1.65l8.9,36.51c.29,1.71.71,3.07-1.52,3.79L215.74,81.3,145.32,98.78A43.92,43.92,0,0,0,136.25,101.87Z" transform="translate(-3.7 -1.87)"/><path class="cls-4" d="M136.25,101.87l-32.68,17.29c-2.13,1.11-4.41,3-5.26,5.16l-4.76,9.8c-1.22,1.94-1,3.15-3.48,4.75L69.3,152.21a18.72,18.72,0,0,0-4,3.42L54.13,171c-1.64,2.4-3.24,2.63-5.47,1.07L17.9,148.76c-2.75.2-1.58-3.25-1.58-3.25,2.75-9.7,3.41-23.93,3.41-23.93A9.21,9.21,0,0,1,21,117.12l9.07-18.47a12.53,12.53,0,0,1,3.64-4.06C45,89.43,63.77,83.24,77,81.69a3,3,0,0,1,3.27,2.47l.54,3.5c.53,2.27.75,3.09,2.52,3.09s4.76,0,6,1.6a2.85,2.85,0,0,0,2.26,1.25c.74,0,1.26,0,1.58,1.4l3,19.26s.07,3.74,1.75,2.81,1.94-1.47,3.25-2.16l36.33-19c2-1.19,3.21-2.26,2.37-4.56s-.07-2.61,2.17-3.75l16.77-7.22,18.09-4.14c1.63-.59,2.85-1.18,2.27-3.23A188.61,188.61,0,0,1,174,49.75c-.22-1.46-.13-2.79,1.56-3.18l59.75-15.32,41.77-8.33c1.3-.19,1.88.51,2.36,1.65l8.9,36.51c.29,1.71.71,3.07-1.52,3.79L215.74,81.3,145.32,98.78A43.92,43.92,0,0,0,136.25,101.87Z" transform="translate(-3.7 -1.87)"/><polyline class="cls-5" points="283.16 63 212.04 79.43 141.62 96.91"/><polyline class="cls-5" points="171.9 44.7 231.65 29.38 273.42 21.06"/><rect class="cls-6" x="287.14" y="64.24" width="9.61" height="9.61" rx="2.29"/><rect class="cls-7" x="287.14" y="64.24" width="9.61" height="9.61" rx="2.29"/><rect class="cls-6" x="263.22" y="27.66" width="9.61" height="9.61" rx="2.29"/><rect class="cls-7" x="263.22" y="27.66" width="9.61" height="9.61" rx="2.29"/><rect class="cls-6" x="157.39" y="36.49" width="9.61" height="9.61" rx="2.29"/><rect class="cls-7" x="157.39" y="36.49" width="9.61" height="9.61" rx="2.29"/><rect class="cls-6" x="159.39" y="61.74" width="9.61" height="9.61" rx="2.29"/><rect class="cls-7" x="159.39" y="61.74" width="9.61" height="9.61" rx="2.29"/><rect class="cls-6" x="125.64" y="74.24" width="9.61" height="9.61" rx="2.29"/><rect class="cls-7" x="125.64" y="74.24" width="9.61" height="9.61" rx="2.29"/><rect class="cls-6" x="120.14" y="83.99" width="9.61" height="9.61" rx="2.29"/><rect class="cls-7" x="120.14" y="83.99" width="9.61" height="9.61" rx="2.29"/><rect class="cls-6" x="91.64" y="98.49" width="9.61" height="9.61" rx="2.29"/><rect class="cls-7" x="91.64" y="98.49" width="9.61" height="9.61" rx="2.29"/><rect class="cls-6" x="91.39" y="75.49" width="9.61" height="9.61" rx="2.29"/><rect class="cls-7" x="91.39" y="75.49" width="9.61" height="9.61" rx="2.29"/><rect class="cls-6" x="75.64" y="95.24" width="9.61" height="9.61" rx="2.29"/><rect class="cls-7" x="75.64" y="95.24" width="9.61" height="9.61" rx="2.29"/><rect class="cls-6" x="78.89" y="75.49" width="9.61" height="9.61" rx="2.29"/><rect class="cls-7" x="78.89" y="75.49" width="9.61" height="9.61" rx="2.29"/><rect class="cls-6" x="64.89" y="90.99" width="9.61" height="9.61" rx="2.29"/><rect class="cls-7" x="64.89" y="90.99" width="9.61" height="9.61" rx="2.29"/><rect class="cls-6" x="76.64" y="64.49" width="9.61" height="9.61" rx="2.29"/><rect class="cls-7" x="76.64" y="64.49" width="9.61" height="9.61" rx="2.29"/><rect class="cls-6" x="13.89" y="81.99" width="9.61" height="9.61" rx="2.29"/><rect class="cls-7" x="13.89" y="81.99" width="9.61" height="9.61" rx="2.29"/><rect class="cls-6" x="1.64" y="109.24" width="9.61" height="9.61" rx="2.29"/><rect class="cls-7" x="1.64" y="109.24" width="9.61" height="9.61" rx="2.29"/><rect class="cls-6" x="0.65" y="148.85" width="9.61" height="9.61" rx="2.29"/><rect class="cls-7" x="0.65" y="148.85" width="9.61" height="9.61" rx="2.29"/><rect class="cls-6" x="41.14" y="152.99" width="9.61" height="9.61" rx="2.29"/><rect class="cls-7" x="41.14" y="152.99" width="9.61" height="9.61" rx="2.29"/><rect class="cls-6" x="50.64" y="140.74" width="9.61" height="9.61" rx="2.29"/><rect class="cls-7" x="50.64" y="140.74" width="9.61" height="9.61" rx="2.29"/><rect class="cls-6" x="89.14" y="139.24" width="9.61" height="9.61" rx="2.29"/><rect class="cls-7" x="89.14" y="139.24" width="9.61" height="9.61" rx="2.29"/><rect class="cls-6" x="98.64" y="122.49" width="9.61" height="9.61" rx="2.29"/><rect class="cls-7" x="98.64" y="122.49" width="9.61" height="9.61" rx="2.29"/><rect class="cls-6" x="125.64" y="107.49" width="9.61" height="9.61" rx="2.29"/><rect class="cls-7" x="125.64" y="107.49" width="9.61" height="9.61" rx="2.29"/><path class="cls-8" d="M142,89a1.42,1.42,0,1,0-1.42-1.42h0A1.43,1.43,0,0,0,142,89Z" transform="translate(-3.7 -1.87)"/><polyline class="cls-9" points="138.34 85.73 138.34 46.63 129.63 46.63"/><polyline class="cls-10" points="138.34 85.73 138.34 46.63 129.63 46.63"/><path class="cls-11" d="M142,89a1.42,1.42,0,1,0-1.42-1.42h0A1.43,1.43,0,0,0,142,89Z" transform="translate(-3.7 -1.87)"/><path class="cls-8" d="M158.82,81.65a1.42,1.42,0,1,0-1.42-1.42h0a1.41,1.41,0,0,0,1.41,1.41Z" transform="translate(-3.7 -1.87)"/><line class="cls-9" x1="155.12" y1="78.37" x2="155.12" y2="28.38"/><line class="cls-10" x1="155.12" y1="78.37" x2="155.12" y2="28.38"/><path class="cls-11" d="M158.82,81.65a1.42,1.42,0,1,0-1.42-1.42h0a1.41,1.41,0,0,0,1.41,1.41Z" transform="translate(-3.7 -1.87)"/><path class="cls-8" d="M176.6,47.73a1.42,1.42,0,1,0-1.42-1.42h0a1.41,1.41,0,0,0,1.41,1.41Z" transform="translate(-3.7 -1.87)"/><polyline class="cls-9" points="172.9 44.45 172.9 8.63 162.38 8.63"/><polyline class="cls-10" points="172.9 44.45 172.9 8.63 162.38 8.63"/><path class="cls-11" d="M176.6,47.73a1.42,1.42,0,1,0-1.42-1.42h0a1.41,1.41,0,0,0,1.41,1.41Z" transform="translate(-3.7 -1.87)"/><path class="cls-8" d="M51.69,171.62A1.42,1.42,0,1,1,50.27,173v0A1.42,1.42,0,0,1,51.69,171.62Z" transform="translate(-3.7 -1.87)"/><polyline class="cls-9" points="47.99 171.16 47.99 186.63 55.25 186.63"/><polyline class="cls-10" points="47.99 171.16 47.99 186.63 55.25 186.63"/><path class="cls-11" d="M51.69,171.62A1.42,1.42,0,1,1,50.27,173v0A1.42,1.42,0,0,1,51.69,171.62Z" transform="translate(-3.7 -1.87)"/><path class="cls-8" d="M140.63,98.82a1.42,1.42,0,1,1-1.42,1.42h0a1.41,1.41,0,0,1,1.41-1.41Z" transform="translate(-3.7 -1.87)"/><polyline class="cls-9" points="136.93 98.36 136.93 147.38 178.15 147.38"/><polyline class="cls-10" points="136.93 98.36 136.93 147.38 178.15 147.38"/><path class="cls-11" d="M140.63,98.82a1.42,1.42,0,1,1-1.42,1.42h0a1.41,1.41,0,0,1,1.41-1.41Z" transform="translate(-3.7 -1.87)"/><path class="cls-8" d="M148.27,96.77a1.42,1.42,0,1,1-1.42,1.42h0a1.41,1.41,0,0,1,1.4-1.42Z" transform="translate(-3.7 -1.87)"/><polyline class="cls-9" points="144.57 96.32 144.57 128.32 178.15 128.32"/><polyline class="cls-10" points="144.57 96.32 144.57 128.32 178.15 128.32"/><path class="cls-11" d="M148.27,96.77a1.42,1.42,0,1,1-1.42,1.42h0a1.41,1.41,0,0,1,1.4-1.42Z" transform="translate(-3.7 -1.87)"/><path class="cls-8" d="M189,86.53A1.42,1.42,0,1,1,187.58,88h0A1.41,1.41,0,0,1,189,86.53Z" transform="translate(-3.7 -1.87)"/><polyline class="cls-9" points="185.34 86.07 185.34 109.13 203.38 109.13"/><polyline class="cls-10" points="185.34 86.07 185.34 109.13 203.38 109.13"/><path class="cls-11" d="M189,86.53A1.42,1.42,0,1,1,187.58,88h0A1.41,1.41,0,0,1,189,86.53Z" transform="translate(-3.7 -1.87)"/><path class="cls-8" d="M248.44,72.47A1.42,1.42,0,1,1,247,73.89a1.43,1.43,0,0,1,1.44-1.42Z" transform="translate(-3.7 -1.87)"/><line class="cls-9" x1="244.74" y1="72.02" x2="244.74" y2="128.32"/><line class="cls-10" x1="244.74" y1="72.02" x2="244.74" y2="128.32"/><path class="cls-11" d="M248.44,72.47A1.42,1.42,0,1,1,247,73.89a1.43,1.43,0,0,1,1.44-1.42Z" transform="translate(-3.7 -1.87)"/><path class="cls-8" d="M267.84,67.85a1.42,1.42,0,1,1-1.42,1.42h0a1.41,1.41,0,0,1,1.41-1.41Z" transform="translate(-3.7 -1.87)"/><polyline class="cls-9" points="264.14 67.39 264.14 78.13 250.88 78.13 250.88 109.13 265.38 109.13"/><polyline class="cls-10" points="264.14 67.39 264.14 78.13 250.88 78.13 250.88 109.13 265.38 109.13"/><path class="cls-11" d="M267.84,67.85a1.42,1.42,0,1,1-1.42,1.42h0a1.41,1.41,0,0,1,1.41-1.41Z" transform="translate(-3.7 -1.87)"/><path class="cls-8" d="M285.27,63.82a1.42,1.42,0,1,1-1.41,1.43v0A1.42,1.42,0,0,1,285.27,63.82Z" transform="translate(-3.7 -1.87)"/><line class="cls-9" x1="281.57" y1="63.36" x2="281.57" y2="89.63"/><line class="cls-10" x1="281.57" y1="63.36" x2="281.57" y2="89.63"/><path class="cls-11" d="M285.27,63.82a1.42,1.42,0,1,1-1.41,1.43v0A1.42,1.42,0,0,1,285.27,63.82Z" transform="translate(-3.7 -1.87)"/><path class="cls-8" d="M189.21,44.5a1.42,1.42,0,1,0-1.42-1.42h0A1.43,1.43,0,0,0,189.21,44.5Z" transform="translate(-3.7 -1.87)"/><line class="cls-9" x1="185.51" y1="41.21" x2="185.51" y2="8.63"/><line class="cls-10" x1="185.51" y1="41.21" x2="185.51" y2="8.63"/><path class="cls-11" d="M189.21,44.5a1.42,1.42,0,1,0-1.42-1.42h0A1.43,1.43,0,0,0,189.21,44.5Z" transform="translate(-3.7 -1.87)"/><path class="cls-8" d="M78.41,83.11A1.42,1.42,0,1,0,77,81.68v0a1.41,1.41,0,0,0,1.41,1.41Z" transform="translate(-3.7 -1.87)"/><line class="cls-9" x1="74.71" y1="79.83" x2="74.71" y2="27.38"/><line class="cls-10" x1="74.71" y1="79.83" x2="74.71" y2="27.38"/><path class="cls-11" d="M78.41,83.11A1.42,1.42,0,1,0,77,81.68v0a1.41,1.41,0,0,0,1.41,1.41Z" transform="translate(-3.7 -1.87)"/><path class="cls-8" d="M30.06,100.06a1.42,1.42,0,1,0-1.42-1.42h0a1.41,1.41,0,0,0,1.41,1.41Z" transform="translate(-3.7 -1.87)"/><line class="cls-9" x1="26.36" y1="96.78" x2="26.36" y2="27.38"/><line class="cls-10" x1="26.36" y1="96.78" x2="26.36" y2="27.38"/><path class="cls-11" d="M30.06,100.06a1.42,1.42,0,1,0-1.42-1.42h0a1.41,1.41,0,0,0,1.41,1.41Z" transform="translate(-3.7 -1.87)"/><path class="cls-8" d="M106.18,113.57a1.42,1.42,0,1,0-1.42-1.42h0A1.44,1.44,0,0,0,106.18,113.57Z" transform="translate(-3.7 -1.87)"/><line class="cls-9" x1="102.48" y1="110.28" x2="102.48" y2="90.64"/><line class="cls-10" x1="102.48" y1="110.28" x2="102.48" y2="90.64"/><path class="cls-11" d="M106.18,113.57a1.42,1.42,0,1,0-1.42-1.42h0A1.44,1.44,0,0,0,106.18,113.57Z" transform="translate(-3.7 -1.87)"/><path class="cls-8" d="M93.36,97.47a1.42,1.42,0,1,0-1.42-1.42h0A1.42,1.42,0,0,0,93.36,97.47Z" transform="translate(-3.7 -1.87)"/><polyline class="cls-9" points="89.66 94.19 89.66 66.08 101.56 66.08"/><polyline class="cls-10" points="89.66 94.19 89.66 66.08 101.56 66.08"/><path class="cls-11" d="M93.36,97.47a1.42,1.42,0,1,0-1.42-1.42h0A1.42,1.42,0,0,0,93.36,97.47Z" transform="translate(-3.7 -1.87)"/><path class="cls-8" d="M83.22,90.26a1.42,1.42,0,1,0-1.42,1.42h0A1.43,1.43,0,0,0,83.22,90.26Z" transform="translate(-3.7 -1.87)"/><polyline class="cls-9" points="78.1 88.39 66.44 88.39 66.44 46.63"/><polyline class="cls-10" points="78.1 88.39 66.44 88.39 66.44 46.63"/><path class="cls-11" d="M83.22,90.26a1.42,1.42,0,1,0-1.42,1.42h0A1.43,1.43,0,0,0,83.22,90.26Z" transform="translate(-3.7 -1.87)"/><path class="cls-8" d="M97.58,114.26a1.42,1.42,0,1,0-1.43,1.41h0A1.42,1.42,0,0,0,97.58,114.26Z" transform="translate(-3.7 -1.87)"/><line class="cls-9" x1="92.47" y1="112.39" x2="64.87" y2="112.39"/><line class="cls-10" x1="92.47" y1="112.39" x2="64.87" y2="112.39"/><path class="cls-11" d="M97.58,114.26a1.42,1.42,0,1,0-1.43,1.41h0A1.42,1.42,0,0,0,97.58,114.26Z" transform="translate(-3.7 -1.87)"/><path class="cls-8" d="M42,166.12a1.42,1.42,0,1,0-1.43,1.41h0A1.43,1.43,0,0,0,42,166.12Z" transform="translate(-3.7 -1.87)"/><line class="cls-9" x1="36.88" y1="164.25" x2="17.08" y2="164.25"/><line class="cls-10" x1="36.88" y1="164.25" x2="17.08" y2="164.25"/><line class="cls-9" x1="36.88" y1="164.25" x2="36.88" y2="186.63"/><line class="cls-10" x1="36.88" y1="164.25" x2="36.88" y2="186.63"/><path class="cls-11" d="M42,166.12a1.42,1.42,0,1,0-1.43,1.41h0A1.43,1.43,0,0,0,42,166.12Z" transform="translate(-3.7 -1.87)"/><path class="cls-8" d="M281.51,27.12a1.42,1.42,0,1,0-1.42,1.42h0A1.42,1.42,0,0,0,281.51,27.12Z" transform="translate(-3.7 -1.87)"/><polyline class="cls-9" points="276.4 25.25 276.4 11.87 257.13 11.02"/><polyline class="cls-10" points="276.4 25.25 276.4 11.87 257.13 11.02"/><path class="cls-11" d="M281.51,27.12a1.42,1.42,0,1,0-1.42,1.42h0A1.42,1.42,0,0,0,281.51,27.12Z" transform="translate(-3.7 -1.87)"/><path class="cls-8" d="M178,74.08a1.42,1.42,0,1,1,1.42,1.42h0A1.44,1.44,0,0,1,178,74.08Z" transform="translate(-3.7 -1.87)"/><polyline class="cls-9" points="175.76 72.21 189.56 72.21 189.56 61.38"/><polyline class="cls-10" points="175.76 72.21 189.56 72.21 189.56 61.38"/><path class="cls-11" d="M178,74.08a1.42,1.42,0,1,1,1.42,1.42h0A1.44,1.44,0,0,1,178,74.08Z" transform="translate(-3.7 -1.87)"/><path class="cls-8" d="M280.39,33.53A1.42,1.42,0,1,1,281.8,35a1.43,1.43,0,0,1-1.41-1.47Z" transform="translate(-3.7 -1.87)"/><polyline class="cls-9" points="278.1 31.66 292.04 31.66 292.04 8.63"/><polyline class="cls-10" points="278.1 31.66 292.04 31.66 292.04 8.63"/><path class="cls-11" d="M280.39,33.53A1.42,1.42,0,1,1,281.8,35a1.43,1.43,0,0,1-1.41-1.47Z" transform="translate(-3.7 -1.87)"/><path class="cls-8" d="M99.3,121.24a1.42,1.42,0,1,1,1.42,1.42h0a1.41,1.41,0,0,1-1.42-1.4Z" transform="translate(-3.7 -1.87)"/><polyline class="cls-9" points="97.02 119.37 128.67 119.37 128.67 166.63 178.15 166.63"/><polyline class="cls-10" points="97.02 119.37 128.67 119.37 128.67 166.63 178.15 166.63"/><path class="cls-11" d="M99.3,121.24a1.42,1.42,0,1,1,1.42,1.42h0a1.41,1.41,0,0,1-1.42-1.4Z" transform="translate(-3.7 -1.87)"/><path class="cls-8" d="M90.4,137.51a1.42,1.42,0,1,1,1.43,1.41h0a1.41,1.41,0,0,1-1.41-1.41Z" transform="translate(-3.7 -1.87)"/><polyline class="cls-9" points="88.11 135.63 120.41 135.63 120.41 173.48 157.41 173.48 157.41 187.21 178.15 187.21"/><polyline class="cls-10" points="88.11 135.63 120.41 135.63 120.41 173.48 157.41 173.48 157.41 187.21 178.15 187.21"/><path class="cls-11" d="M90.4,137.51a1.42,1.42,0,1,1,1.43,1.41h0a1.41,1.41,0,0,1-1.41-1.41Z" transform="translate(-3.7 -1.87)"/><path class="cls-8" d="M64.66,154.79a1.42,1.42,0,1,1,1.42,1.42h0A1.43,1.43,0,0,1,64.66,154.79Z" transform="translate(-3.7 -1.87)"/><polyline class="cls-9" points="62.38 152.92 112.16 152.92 112.16 186.63"/><polyline class="cls-10" points="62.38 152.92 112.16 152.92 112.16 186.63"/><path class="cls-11" d="M64.66,154.79a1.42,1.42,0,1,1,1.42,1.42h0A1.43,1.43,0,0,1,64.66,154.79Z" transform="translate(-3.7 -1.87)"/><path class="cls-8" d="M15.56,143A1.42,1.42,0,1,1,17,144.37h0A1.43,1.43,0,0,1,15.56,143Z" transform="translate(-3.7 -1.87)"/><polyline class="cls-9" points="13.28 141.09 22.43 141.09 22.43 132.79 38.71 132.79"/><polyline class="cls-10" points="13.28 141.09 22.43 141.09 22.43 132.79 38.71 132.79"/><path class="cls-11" d="M15.56,143A1.42,1.42,0,1,1,17,144.37h0A1.43,1.43,0,0,1,15.56,143Z" transform="translate(-3.7 -1.87)"/><path class="cls-12" d="M246.61,124.16H235.44a5.94,5.94,0,0,0,0,11.87h11.17a2.83,2.83,0,0,0,2.83-2.83h0V127a2.83,2.83,0,0,0-2.82-2.84Z" transform="translate(-3.7 -1.87)"/><path class="cls-13" d="M239.79,130.1a4.35,4.35,0,0,1-8.69,0,4.25,4.25,0,0,1,.31-1.62.45.45,0,0,1,.84.34,3.43,3.43,0,1,0,4.78-1.77.46.46,0,0,1-.12-.64.47.47,0,0,1,.54-.17A4.35,4.35,0,0,1,239.79,130.1Zm-4.35-3a.67.67,0,1,0-.67-.67h0a.67.67,0,0,0,.67.66Zm0,3.67a.67.67,0,0,0,.67-.66.65.65,0,0,0-.3-.56l-3.58-2.66,2.65,3.58a.7.7,0,0,0,.56.29Z" transform="translate(-3.7 -1.87)"/><rect class="cls-13" x="185.51" y="2.63" width="32.57" height="11.87" rx="2.83"/><polygon class="cls-11" points="200.36 6.26 198.91 6.26 199.06 5.58 200.51 5.58 200.36 6.26"/><polygon class="cls-11" points="199.99 8.04 197.59 8.04 197.73 7.35 200.14 7.35 199.99 8.04"/><polygon class="cls-11" points="199.61 9.82 196.27 9.82 196.41 9.13 199.76 9.13 199.61 9.82"/><polygon class="cls-11" points="199.24 11.59 194.94 11.59 195.09 10.91 199.38 10.91 199.24 11.59"/><path class="cls-14" d="M187.48,4.41a6.34,6.34,0,0,0-.83.3.41.41,0,0,1-.22,0l-1.39-1a.66.66,0,0,0-.74,0l-.9.76a.65.65,0,0,0-.16.73L184,6.7a.22.22,0,0,1,0,.22,7.44,7.44,0,0,0-.44.78.23.23,0,0,1-.18.12l-1.73.1a.64.64,0,0,0-.55.5l-.21,1.16a.62.62,0,0,0,.35.65l1.58.68a.28.28,0,0,1,.14.18,6.47,6.47,0,0,0,.15.88.23.23,0,0,1-.05.21l-1.26,1.2a.62.62,0,0,0-.11.73l.59,1a.6.6,0,0,0,.69.27l1.65-.49a.24.24,0,0,1,.23.06,6,6,0,0,0,.67.56.25.25,0,0,1,.09.2l-.2,1.73a.63.63,0,0,0,.39.63l1.11.4a.63.63,0,0,0,.71-.23l.94-1.44a.25.25,0,0,1,.21-.1h.88a.26.26,0,0,1,.2.1l1,1.45a.63.63,0,0,0,.7.23l1.11-.4a.63.63,0,0,0,.39-.63l-.2-1.71a.26.26,0,0,1,.1-.22c.23-.18.46-.37.67-.57a.27.27,0,0,1,.21,0l1.66.49a.63.63,0,0,0,.69-.27l.6-1a.65.65,0,0,0-.11-.74l-1.25-1.18a.26.26,0,0,1-.07-.22,6.49,6.49,0,0,0,.16-.88.26.26,0,0,1,.12-.17l1.59-.69a.62.62,0,0,0,.35-.65l-.2-1.16a.65.65,0,0,0-.56-.5l-1.71-.1a.28.28,0,0,1-.2-.13,5.35,5.35,0,0,0-.45-.77.26.26,0,0,1,0-.21l.78-1.55a.65.65,0,0,0-.15-.73l-.91-.76a.66.66,0,0,0-.74,0l-1.38,1a.31.31,0,0,1-.23,0c-.27-.11-.55-.21-.83-.3a.23.23,0,0,1-.15-.15l-.41-1.69a.63.63,0,0,0-.58-.46h-1.18a.63.63,0,0,0-.58.46l-.4,1.67A.27.27,0,0,1,187.48,4.41Z" transform="translate(-3.7 -1.87)"/><path class="cls-15" d="M189.21,5.36a5.07,5.07,0,1,0,5.07,5.07,5.07,5.07,0,0,0-5.07-5.07Z" transform="translate(-3.7 -1.87)"/><rect class="cls-13" x="229.26" y="5.02" width="32.57" height="11.88" rx="2.83"/><polygon class="cls-11" points="244.11 8.66 242.66 8.66 242.81 7.97 244.26 7.97 244.11 8.66"/><polygon class="cls-11" points="243.74 10.43 241.34 10.43 241.48 9.75 243.89 9.75 243.74 10.43"/><polygon class="cls-11" points="243.36 12.21 240.02 12.21 240.16 11.52 243.51 11.52 243.36 12.21"/><polygon class="cls-11" points="242.99 13.99 238.69 13.99 238.84 13.3 243.13 13.3 242.99 13.99"/><path class="cls-14" d="M231.23,6.8a6.34,6.34,0,0,0-.83.3.28.28,0,0,1-.22,0l-1.39-1a.63.63,0,0,0-.74,0l-.9.76a.63.63,0,0,0-.16.72l.77,1.54a.24.24,0,0,1,0,.23,7.3,7.3,0,0,0-.44.77.24.24,0,0,1-.18.13l-1.73.1a.62.62,0,0,0-.55.49L224.64,12a.66.66,0,0,0,.35.66l1.58.68a.28.28,0,0,1,.14.18,6.47,6.47,0,0,0,.15.88.23.23,0,0,1-.05.21l-1.26,1.19a.62.62,0,0,0-.11.73l.59,1a.63.63,0,0,0,.69.27l1.65-.49a.28.28,0,0,1,.23.05,5.18,5.18,0,0,0,.67.57.25.25,0,0,1,.09.2l-.2,1.72a.63.63,0,0,0,.39.63l1.11.41a.65.65,0,0,0,.71-.24l.94-1.43a.26.26,0,0,1,.21-.11h.88a.25.25,0,0,1,.2.09l1,1.45a.64.64,0,0,0,.7.24l1.11-.41a.63.63,0,0,0,.39-.63l-.2-1.71a.27.27,0,0,1,.1-.22,7.1,7.1,0,0,0,.67-.56.26.26,0,0,1,.21-.06l1.66.5a.63.63,0,0,0,.69-.27l.6-1a.64.64,0,0,0-.11-.73l-1.25-1.18a.28.28,0,0,1-.07-.23,6.49,6.49,0,0,0,.16-.88.26.26,0,0,1,.12-.17l1.59-.69a.61.61,0,0,0,.35-.65l-.2-1.16a.63.63,0,0,0-.56-.49l-1.71-.1a.25.25,0,0,1-.2-.14,6,6,0,0,0-.45-.77.34.34,0,0,1,0-.2L239,7.58a.63.63,0,0,0-.15-.72l-.91-.76a.63.63,0,0,0-.74,0l-1.38,1a.24.24,0,0,1-.23,0,6.34,6.34,0,0,0-.83-.3.26.26,0,0,1-.15-.16L234.13,5a.63.63,0,0,0-.58-.46h-1.18a.63.63,0,0,0-.58.46l-.4,1.67A.26.26,0,0,1,231.23,6.8Z" transform="translate(-3.7 -1.87)"/><path class="cls-15" d="M233,7.76a5.07,5.07,0,1,0,5,5.14v-.07A5.08,5.08,0,0,0,233,7.76Z" transform="translate(-3.7 -1.87)"/><path class="cls-13" d="M271.92,105h26.9a2.84,2.84,0,0,1,2.84,2.84V114a2.83,2.83,0,0,1-2.83,2.83h-26.9A2.83,2.83,0,0,1,269.1,114v-6.21A2.84,2.84,0,0,1,271.92,105Z" transform="translate(-3.7 -1.87)"/><polygon class="cls-11" points="280.23 106.75 278.78 106.75 278.93 106.06 280.38 106.06 280.23 106.75"/><polygon class="cls-11" points="279.86 108.53 277.46 108.53 277.61 107.84 280 107.84 279.86 108.53"/><polygon class="cls-11" points="279.48 110.3 276.14 110.3 276.28 109.62 279.63 109.62 279.48 110.3"/><polygon class="cls-11" points="279.11 112.08 274.81 112.08 274.96 111.39 279.25 111.39 279.11 112.08"/><path class="cls-14" d="M267.35,104.89a8.29,8.29,0,0,0-.83.31.41.41,0,0,1-.22,0l-1.39-1a.66.66,0,0,0-.74,0l-.9.76a.64.64,0,0,0-.15.73l.76,1.54a.22.22,0,0,1,0,.22,8.46,8.46,0,0,0-.44.77.23.23,0,0,1-.18.13l-1.73.1a.64.64,0,0,0-.55.49l-.21,1.17a.63.63,0,0,0,.35.65l1.58.68a.28.28,0,0,1,.14.18,6.47,6.47,0,0,0,.15.88.23.23,0,0,1-.05.21l-1.26,1.19a.64.64,0,0,0-.11.74l.59,1a.63.63,0,0,0,.69.27l1.65-.49a.24.24,0,0,1,.23.06,6,6,0,0,0,.67.56.25.25,0,0,1,.09.2l-.2,1.73a.64.64,0,0,0,.39.63l1.11.4a.65.65,0,0,0,.71-.23l.94-1.44a.26.26,0,0,1,.21-.11,3.23,3.23,0,0,0,.44,0h.44a.26.26,0,0,1,.2.1l1,1.45a.63.63,0,0,0,.7.23l1.11-.4a.63.63,0,0,0,.39-.63l-.2-1.71a.26.26,0,0,1,.1-.22c.23-.18.46-.37.67-.57a.26.26,0,0,1,.21,0l1.67.49a.61.61,0,0,0,.68-.27l.6-1a.65.65,0,0,0-.11-.74l-1.25-1.18a.28.28,0,0,1-.07-.23,6.49,6.49,0,0,0,.16-.88.22.22,0,0,1,.12-.16l1.59-.69a.62.62,0,0,0,.35-.65l-.2-1.17a.64.64,0,0,0-.56-.49l-1.71-.1a.28.28,0,0,1-.2-.13,6.06,6.06,0,0,0-.45-.78.23.23,0,0,1,0-.2l.78-1.55A.65.65,0,0,0,275,105l-.91-.76a.63.63,0,0,0-.74,0l-1.38,1a.31.31,0,0,1-.23,0,6.34,6.34,0,0,0-.83-.3.23.23,0,0,1-.15-.15l-.41-1.69a.63.63,0,0,0-.58-.46h-1.18a.63.63,0,0,0-.58.46l-.4,1.67A.22.22,0,0,1,267.35,104.89Z" transform="translate(-3.7 -1.87)"/><path class="cls-15" d="M269.08,105.85a5.07,5.07,0,1,0,5.07,5.07,5.07,5.07,0,0,0-5.07-5.07Z" transform="translate(-3.7 -1.87)"/><rect class="cls-13" x="203.63" y="103.11" width="32.57" height="11.87" rx="2.83"/><polygon class="cls-11" points="218.49 106.75 217.03 106.75 217.18 106.06 218.63 106.06 218.49 106.75"/><polygon class="cls-11" points="218.11 108.53 215.71 108.53 215.86 107.84 218.26 107.84 218.11 108.53"/><polygon class="cls-11" points="217.74 110.3 214.39 110.3 214.54 109.62 217.88 109.62 217.74 110.3"/><polygon class="cls-11" points="217.36 112.08 213.07 112.08 213.21 111.39 217.51 111.39 217.36 112.08"/><path class="cls-14" d="M205.6,104.89a8.29,8.29,0,0,0-.83.31.26.26,0,0,1-.21,0l-1.4-1a.66.66,0,0,0-.74,0l-.9.76a.64.64,0,0,0-.15.73l.77,1.54a.28.28,0,0,1,0,.22c-.16.25-.31.51-.45.77a.23.23,0,0,1-.18.13l-1.73.1a.64.64,0,0,0-.55.49l-.21,1.17a.64.64,0,0,0,.36.65l1.58.68a.29.29,0,0,1,.13.18,6.49,6.49,0,0,0,.16.88.26.26,0,0,1-.06.21l-1.26,1.19a.64.64,0,0,0-.11.74l.59,1a.63.63,0,0,0,.69.27l1.65-.49a.24.24,0,0,1,.23.06,7.1,7.1,0,0,0,.67.56.26.26,0,0,1,.1.2l-.2,1.73a.63.63,0,0,0,.39.63l1.1.4a.65.65,0,0,0,.71-.23l.94-1.44a.27.27,0,0,1,.22-.11,3.09,3.09,0,0,0,.43,0h.45a.26.26,0,0,1,.2.1l1,1.45a.65.65,0,0,0,.71.23l1.1-.4a.63.63,0,0,0,.39-.63l-.19-1.71a.24.24,0,0,1,0-.26,5.18,5.18,0,0,0,.67-.57.26.26,0,0,1,.21,0l1.67.49a.63.63,0,0,0,.69-.27l.59-1a.64.64,0,0,0-.11-.74l-1.25-1.18a.28.28,0,0,1-.07-.23,5.24,5.24,0,0,0,.16-.88.25.25,0,0,1,.12-.16l1.59-.69a.64.64,0,0,0,.36-.65l-.21-1.17a.64.64,0,0,0-.55-.49l-1.72-.1a.28.28,0,0,1-.2-.13,7.44,7.44,0,0,0-.44-.78.23.23,0,0,1,0-.2l.78-1.55a.64.64,0,0,0-.15-.73l-.9-.76a.63.63,0,0,0-.74,0l-1.38,1a.33.33,0,0,1-.24,0,6.34,6.34,0,0,0-.83-.3.23.23,0,0,1-.15-.15l-.41-1.69a.63.63,0,0,0-.58-.46h-1.18a.63.63,0,0,0-.58.46l-.4,1.67A.23.23,0,0,1,205.6,104.89Z" transform="translate(-3.7 -1.87)"/><path class="cls-15" d="M207.33,105.85a5.07,5.07,0,1,0,5.07,5.07,5.07,5.07,0,0,0-5.07-5.07Z" transform="translate(-3.7 -1.87)"/><rect class="cls-13" x="178.15" y="122.29" width="32.57" height="11.87" rx="2.83"/><polygon class="cls-11" points="193 125.92 191.55 125.92 191.7 125.23 193.15 125.23 193 125.92"/><polygon class="cls-11" points="192.63 127.7 190.23 127.7 190.37 127.01 192.77 127.01 192.63 127.7"/><polygon class="cls-11" points="192.25 129.48 188.91 129.48 189.05 128.79 192.4 128.79 192.25 129.48"/><polygon class="cls-11" points="191.88 131.25 187.58 131.25 187.73 130.57 192.02 130.57 191.88 131.25"/><path class="cls-14" d="M180.12,124.06a8.29,8.29,0,0,0-.83.31.26.26,0,0,1-.21,0l-1.4-1a.66.66,0,0,0-.74,0l-.9.76a.64.64,0,0,0-.15.73l.77,1.54a.28.28,0,0,1,0,.22,7.44,7.44,0,0,0-.44.78.23.23,0,0,1-.18.12l-1.73.1a.64.64,0,0,0-.55.5l-.21,1.16a.65.65,0,0,0,.35.65l1.58.68a.28.28,0,0,1,.14.18,6.47,6.47,0,0,0,.15.88.23.23,0,0,1-.05.21l-1.26,1.2a.62.62,0,0,0-.11.73l.59,1a.6.6,0,0,0,.69.27l1.65-.49a.24.24,0,0,1,.23.06,6,6,0,0,0,.67.56.25.25,0,0,1,.09.2l-.19,1.73a.63.63,0,0,0,.38.63l1.11.4a.63.63,0,0,0,.71-.23l.94-1.44a.25.25,0,0,1,.21-.1h.88a.26.26,0,0,1,.2.1l1,1.45a.63.63,0,0,0,.7.23l1.11-.4a.63.63,0,0,0,.39-.63l-.2-1.71a.26.26,0,0,1,.1-.22c.23-.18.46-.37.67-.57a.23.23,0,0,1,.21-.05l1.67.49a.61.61,0,0,0,.68-.27l.6-1a.65.65,0,0,0-.11-.74L188,131.85a.26.26,0,0,1-.07-.22,6.49,6.49,0,0,0,.16-.88.26.26,0,0,1,.12-.17l1.59-.69a.62.62,0,0,0,.35-.65l-.2-1.16a.64.64,0,0,0-.56-.5l-1.71-.1a.28.28,0,0,1-.2-.13,7.3,7.3,0,0,0-.44-.77.26.26,0,0,1,0-.21l.78-1.55a.65.65,0,0,0-.15-.73l-.91-.76a.66.66,0,0,0-.74,0l-1.38,1a.31.31,0,0,1-.23,0c-.27-.11-.55-.21-.83-.3a.23.23,0,0,1-.15-.15l-.41-1.69a.63.63,0,0,0-.58-.46h-1.18a.63.63,0,0,0-.58.46l-.4,1.67A.24.24,0,0,1,180.12,124.06Z" transform="translate(-3.7 -1.87)"/><path class="cls-15" d="M181.85,125a5.07,5.07,0,1,0,5.07,5.07,5.07,5.07,0,0,0-5.07-5.07Z" transform="translate(-3.7 -1.87)"/><rect class="cls-13" x="178.15" y="160.63" width="32.57" height="11.87" rx="2.83"/><polygon class="cls-11" points="193 164.26 191.55 164.26 191.7 163.58 193.15 163.58 193 164.26"/><polygon class="cls-11" points="192.63 166.04 190.23 166.04 190.37 165.35 192.77 165.35 192.63 166.04"/><polygon class="cls-11" points="192.25 167.82 188.91 167.82 189.05 167.13 192.4 167.13 192.25 167.82"/><polygon class="cls-11" points="191.88 169.6 187.58 169.6 187.73 168.91 192.02 168.91 191.88 169.6"/><path class="cls-14" d="M180.12,162.41a6.34,6.34,0,0,0-.83.3.2.2,0,0,1-.21,0l-1.4-1a.63.63,0,0,0-.74,0l-.9.75a.64.64,0,0,0-.15.73l.77,1.54a.28.28,0,0,1,0,.22,7.44,7.44,0,0,0-.44.78.22.22,0,0,1-.18.12l-1.73.11a.61.61,0,0,0-.55.49l-.21,1.16a.65.65,0,0,0,.35.65l1.58.69a.28.28,0,0,1,.14.18,6.6,6.6,0,0,0,.15.87.25.25,0,0,1-.05.22l-1.26,1.19a.62.62,0,0,0-.11.73l.59,1a.63.63,0,0,0,.69.28l1.65-.49a.28.28,0,0,1,.23,0c.21.2.44.39.67.57a.25.25,0,0,1,.09.2l-.19,1.72a.63.63,0,0,0,.38.63l1.11.4a.63.63,0,0,0,.71-.23l.94-1.44a.28.28,0,0,1,.21-.1h.88a.22.22,0,0,1,.2.09l1,1.45a.62.62,0,0,0,.7.23l1.11-.4a.63.63,0,0,0,.39-.63l-.2-1.71a.26.26,0,0,1,.1-.22,7.1,7.1,0,0,0,.67-.56.26.26,0,0,1,.21-.06l1.67.5a.62.62,0,0,0,.68-.28l.6-1a.64.64,0,0,0-.11-.73L188,170.2a.34.34,0,0,1,0-.2,6.49,6.49,0,0,0,.16-.88.26.26,0,0,1,.12-.17l1.59-.69a.61.61,0,0,0,.35-.65l-.2-1.16a.63.63,0,0,0-.56-.49l-1.71-.11a.28.28,0,0,1-.2-.13,7.3,7.3,0,0,0-.44-.77.26.26,0,0,1,0-.21l.78-1.55a.65.65,0,0,0-.15-.73l-.91-.75a.63.63,0,0,0-.74,0l-1.38,1a.24.24,0,0,1-.23,0,6.34,6.34,0,0,0-.83-.3.26.26,0,0,1-.15-.16l-.41-1.69a.63.63,0,0,0-.58-.46h-1.18a.63.63,0,0,0-.58.46l-.4,1.68A.25.25,0,0,1,180.12,162.41Z" transform="translate(-3.7 -1.87)"/><path class="cls-15" d="M181.85,163.37a5.07,5.07,0,1,0,5.07,5.07,5.07,5.07,0,0,0-5.07-5.07Z" transform="translate(-3.7 -1.87)"/><rect class="cls-13" x="178.15" y="180.8" width="32.57" height="11.88" rx="2.83"/><polygon class="cls-11" points="193 184.44 191.55 184.44 191.7 183.75 193.15 183.75 193 184.44"/><polygon class="cls-11" points="192.63 186.22 190.23 186.22 190.37 185.53 192.77 185.53 192.63 186.22"/><polygon class="cls-11" points="192.25 188 188.91 188 189.05 187.31 192.4 187.31 192.25 188"/><polygon class="cls-11" points="191.88 189.77 187.58 189.77 187.73 189.09 192.02 189.09 191.88 189.77"/><path class="cls-14" d="M180.12,182.58a8.29,8.29,0,0,0-.83.31.26.26,0,0,1-.21,0l-1.4-1a.66.66,0,0,0-.74,0l-.9.76a.64.64,0,0,0-.15.73l.77,1.54a.28.28,0,0,1,0,.22,8.46,8.46,0,0,0-.44.77.23.23,0,0,1-.18.13l-1.73.1a.64.64,0,0,0-.55.49l-.21,1.17a.65.65,0,0,0,.35.65l1.58.68a.28.28,0,0,1,.14.18,6.47,6.47,0,0,0,.15.88.23.23,0,0,1-.05.21l-1.26,1.19a.64.64,0,0,0-.11.74l.59,1a.63.63,0,0,0,.69.27l1.65-.49a.24.24,0,0,1,.23.06,6,6,0,0,0,.67.56.25.25,0,0,1,.09.2l-.19,1.73a.63.63,0,0,0,.38.63l1.11.4a.65.65,0,0,0,.71-.23l.94-1.44a.23.23,0,0,1,.21-.1h.88a.26.26,0,0,1,.2.1l1,1.45a.63.63,0,0,0,.7.23l1.11-.4a.63.63,0,0,0,.39-.63l-.2-1.71a.26.26,0,0,1,.1-.22c.23-.18.46-.37.67-.57a.26.26,0,0,1,.21,0l1.67.49a.61.61,0,0,0,.68-.27l.6-1a.65.65,0,0,0-.11-.74L188,190.37a.26.26,0,0,1-.07-.22,6.63,6.63,0,0,0,.16-.89.22.22,0,0,1,.12-.16l1.59-.69a.62.62,0,0,0,.35-.65l-.2-1.17a.64.64,0,0,0-.56-.49l-1.71-.1a.28.28,0,0,1-.2-.13,7.44,7.44,0,0,0-.44-.78.23.23,0,0,1,0-.2l.78-1.55a.65.65,0,0,0-.15-.73l-.91-.76a.63.63,0,0,0-.74,0l-1.38,1a.31.31,0,0,1-.23,0,6.34,6.34,0,0,0-.83-.3.23.23,0,0,1-.15-.15l-.41-1.69a.63.63,0,0,0-.58-.46h-1.18a.63.63,0,0,0-.58.46l-.4,1.67A.24.24,0,0,1,180.12,182.58Z" transform="translate(-3.7 -1.87)"/><path class="cls-15" d="M181.85,183.54a5.07,5.07,0,1,0,5.07,5.07,5.07,5.07,0,0,0-5.07-5.07Z" transform="translate(-3.7 -1.87)"/><rect class="cls-13" x="62.65" y="180.8" width="32.57" height="11.88" rx="2.83"/><polygon class="cls-11" points="77.5 184.44 76.05 184.44 76.2 183.75 77.65 183.75 77.5 184.44"/><polygon class="cls-11" points="77.13 186.22 74.73 186.22 74.88 185.53 77.27 185.53 77.13 186.22"/><polygon class="cls-11" points="76.75 188 73.41 188 73.55 187.31 76.9 187.31 76.75 188"/><polygon class="cls-11" points="76.38 189.77 72.08 189.77 72.23 189.09 76.52 189.09 76.38 189.77"/><path class="cls-14" d="M64.62,182.58a8.29,8.29,0,0,0-.83.31.26.26,0,0,1-.21,0l-1.4-1a.66.66,0,0,0-.74,0l-.9.76a.64.64,0,0,0-.15.73l.77,1.54a.28.28,0,0,1,0,.22,8.46,8.46,0,0,0-.44.77.23.23,0,0,1-.18.13l-1.73.1a.64.64,0,0,0-.55.49L58,187.76a.65.65,0,0,0,.35.65l1.58.68a.28.28,0,0,1,.14.18,6.47,6.47,0,0,0,.15.88.26.26,0,0,1,0,.21L59,191.55a.64.64,0,0,0-.11.74l.59,1a.63.63,0,0,0,.69.27l1.65-.49a.24.24,0,0,1,.23.06,6,6,0,0,0,.67.56.25.25,0,0,1,.09.2l-.19,1.73a.63.63,0,0,0,.38.63l1.11.4a.65.65,0,0,0,.71-.23L65.7,195a.23.23,0,0,1,.21-.1h.88a.26.26,0,0,1,.2.1l1,1.45a.63.63,0,0,0,.7.23l1.11-.4a.63.63,0,0,0,.39-.63l-.2-1.71a.26.26,0,0,1,.1-.22c.23-.18.46-.37.67-.57a.26.26,0,0,1,.21,0l1.67.49a.61.61,0,0,0,.68-.27l.6-1a.65.65,0,0,0-.11-.74l-1.25-1.18a.26.26,0,0,1-.07-.22,6.63,6.63,0,0,0,.16-.89.22.22,0,0,1,.12-.16l1.59-.69a.62.62,0,0,0,.35-.65l-.2-1.17a.64.64,0,0,0-.56-.49L72.2,186a.28.28,0,0,1-.2-.13,7.44,7.44,0,0,0-.44-.78.23.23,0,0,1,0-.2l.78-1.55a.65.65,0,0,0-.15-.73l-.91-.76a.63.63,0,0,0-.74,0l-1.38,1a.31.31,0,0,1-.23,0,6.34,6.34,0,0,0-.83-.3.23.23,0,0,1-.15-.15l-.41-1.69a.63.63,0,0,0-.58-.46h-1.2a.63.63,0,0,0-.58.46l-.4,1.67A.24.24,0,0,1,64.62,182.58Z" transform="translate(-3.7 -1.87)"/><path class="cls-15" d="M66.35,183.54a5.07,5.07,0,1,0,5.07,5.07,5.07,5.07,0,0,0-5.07-5.07Z" transform="translate(-3.7 -1.87)"/><rect class="cls-13" x="112.16" y="180.8" width="32.57" height="11.88" rx="2.83"/><polygon class="cls-11" points="127.01 184.44 125.55 184.44 125.7 183.75 127.15 183.75 127.01 184.44"/><polygon class="cls-11" points="126.63 186.22 124.23 186.22 124.38 185.53 126.78 185.53 126.63 186.22"/><polygon class="cls-11" points="126.26 188 122.91 188 123.06 187.31 126.4 187.31 126.26 188"/><polygon class="cls-11" points="125.88 189.77 121.59 189.77 121.73 189.09 126.03 189.09 125.88 189.77"/><path class="cls-14" d="M114.12,182.58a8.29,8.29,0,0,0-.83.31.26.26,0,0,1-.21,0l-1.4-1a.66.66,0,0,0-.74,0l-.9.76a.64.64,0,0,0-.15.73l.77,1.54a.28.28,0,0,1,0,.22,7.3,7.3,0,0,0-.44.77.24.24,0,0,1-.18.13l-1.74.1a.64.64,0,0,0-.55.49l-.21,1.17a.64.64,0,0,0,.36.65l1.58.68a.29.29,0,0,1,.13.18,6.49,6.49,0,0,0,.16.88.26.26,0,0,1-.06.21l-1.26,1.19a.64.64,0,0,0-.11.74l.59,1a.63.63,0,0,0,.69.27l1.65-.49a.24.24,0,0,1,.23.06,7.1,7.1,0,0,0,.67.56.26.26,0,0,1,.1.2l-.2,1.73a.63.63,0,0,0,.39.63l1.11.4a.63.63,0,0,0,.7-.23l1-1.44a.23.23,0,0,1,.21-.1h.88a.26.26,0,0,1,.2.1l1,1.45a.65.65,0,0,0,.71.23l1.11-.4a.64.64,0,0,0,.39-.63l-.2-1.71a.24.24,0,0,1,.09-.22,7.59,7.59,0,0,0,.68-.57.2.2,0,0,1,.21,0l1.66.49a.63.63,0,0,0,.69-.27l.59-1a.64.64,0,0,0-.11-.74L122,190.37a.26.26,0,0,1-.07-.22,5.36,5.36,0,0,0,.16-.89.28.28,0,0,1,.12-.16l1.6-.69a.65.65,0,0,0,.35-.65l-.21-1.17a.64.64,0,0,0-.55-.49l-1.72-.1a.3.3,0,0,1-.2-.13,6,6,0,0,0-.44-.78.23.23,0,0,1,0-.2l.77-1.55a.64.64,0,0,0-.15-.73l-.9-.76a.63.63,0,0,0-.74,0l-1.38,1a.33.33,0,0,1-.24,0,6.34,6.34,0,0,0-.83-.3.23.23,0,0,1-.15-.15l-.4-1.69a.63.63,0,0,0-.58-.46h-1.18a.64.64,0,0,0-.59.46l-.39,1.67A.25.25,0,0,1,114.12,182.58Z" transform="translate(-3.7 -1.87)"/><path class="cls-15" d="M115.86,183.54a5.07,5.07,0,1,0,5.06,5.08h0A5.09,5.09,0,0,0,115.86,183.54Z" transform="translate(-3.7 -1.87)"/><path class="cls-13" d="M271.92,85.81h26.9a2.84,2.84,0,0,1,2.84,2.84v6.21a2.83,2.83,0,0,1-2.83,2.83h-26.9a2.83,2.83,0,0,1-2.83-2.83V88.65A2.84,2.84,0,0,1,271.92,85.81Z" transform="translate(-3.7 -1.87)"/><polygon class="cls-11" points="280.23 87.58 278.78 87.58 278.93 86.89 280.38 86.89 280.23 87.58"/><polygon class="cls-11" points="279.86 89.36 277.46 89.36 277.61 88.67 280 88.67 279.86 89.36"/><polygon class="cls-11" points="279.48 91.13 276.14 91.13 276.28 90.44 279.63 90.44 279.48 91.13"/><polygon class="cls-11" points="279.11 92.91 274.81 92.91 274.96 92.22 279.25 92.22 279.11 92.91"/><path class="cls-14" d="M267.35,85.72a5.21,5.21,0,0,0-.83.31.28.28,0,0,1-.22,0l-1.39-1a.63.63,0,0,0-.74,0l-.9.76a.64.64,0,0,0-.15.73l.76,1.53a.24.24,0,0,1,0,.23,7.3,7.3,0,0,0-.44.77.23.23,0,0,1-.18.13l-1.73.1a.64.64,0,0,0-.55.49l-.21,1.17a.63.63,0,0,0,.35.65l1.58.68a.28.28,0,0,1,.14.18,6.47,6.47,0,0,0,.15.88.23.23,0,0,1-.05.21l-1.26,1.19a.64.64,0,0,0-.11.74l.59,1a.63.63,0,0,0,.69.27l1.65-.49a.24.24,0,0,1,.23.06,6,6,0,0,0,.67.56.25.25,0,0,1,.09.2l-.2,1.72a.66.66,0,0,0,.39.64l1.11.4a.65.65,0,0,0,.71-.23l.94-1.44a.26.26,0,0,1,.21-.11h.88a.26.26,0,0,1,.2.1l1,1.44a.62.62,0,0,0,.7.24l1.11-.41a.62.62,0,0,0,.39-.63l-.2-1.71a.25.25,0,0,1,.1-.21c.23-.18.46-.37.67-.57a.26.26,0,0,1,.21-.06l1.67.5a.61.61,0,0,0,.68-.27l.6-1a.65.65,0,0,0-.11-.74l-1.25-1.18a.28.28,0,0,1-.07-.23,6.49,6.49,0,0,0,.16-.88.22.22,0,0,1,.12-.16l1.59-.69a.62.62,0,0,0,.35-.65l-.2-1.17a.64.64,0,0,0-.56-.49l-1.71-.1a.28.28,0,0,1-.2-.13,6.06,6.06,0,0,0-.45-.78.23.23,0,0,1,0-.2l.78-1.55a.65.65,0,0,0-.15-.73L274,85a.63.63,0,0,0-.74,0l-1.38,1a.31.31,0,0,1-.23,0,6.34,6.34,0,0,0-.83-.3.23.23,0,0,1-.15-.15l-.41-1.69a.63.63,0,0,0-.58-.46H268.5a.63.63,0,0,0-.58.46l-.4,1.67A.22.22,0,0,1,267.35,85.72Z" transform="translate(-3.7 -1.87)"/><path class="cls-15" d="M269.08,86.68a5.07,5.07,0,1,0,5.07,5.07,5.07,5.07,0,0,0-5.07-5.07Z" transform="translate(-3.7 -1.87)"/><rect class="cls-13" x="189.56" y="55.1" width="32.57" height="11.87" rx="2.83"/><polygon class="cls-11" points="204.41 58.73 202.96 58.73 203.1 58.05 204.55 58.05 204.41 58.73"/><polygon class="cls-11" points="204.03 60.51 201.63 60.51 201.78 59.83 204.18 59.83 204.03 60.51"/><polygon class="cls-11" points="203.66 62.29 200.31 62.29 200.46 61.6 203.8 61.6 203.66 62.29"/><polygon class="cls-11" points="203.28 64.07 198.99 64.07 199.13 63.38 203.43 63.38 203.28 64.07"/><path class="cls-14" d="M191.52,56.88a6.34,6.34,0,0,0-.83.3.2.2,0,0,1-.21,0l-1.4-1a.63.63,0,0,0-.74,0l-.9.76a.6.6,0,0,0-.15.72l.77,1.54a.28.28,0,0,1,0,.22,6,6,0,0,0-.44.78.23.23,0,0,1-.18.12l-1.74.11a.62.62,0,0,0-.55.49l-.2,1.16a.61.61,0,0,0,.35.65l1.58.69a.24.24,0,0,1,.13.18,6.64,6.64,0,0,0,.16.87.29.29,0,0,1-.06.22l-1.26,1.19a.62.62,0,0,0-.11.73l.59,1a.65.65,0,0,0,.69.28l1.65-.49a.31.31,0,0,1,.23,0c.22.2.44.39.68.57a.25.25,0,0,1,.09.2l-.2,1.72a.63.63,0,0,0,.39.63L191,71a.62.62,0,0,0,.7-.23l1-1.44a.28.28,0,0,1,.21-.1h.88a.25.25,0,0,1,.2.09l.95,1.45a.63.63,0,0,0,.71.23l1.11-.4a.63.63,0,0,0,.39-.63l-.2-1.71A.27.27,0,0,1,197,68a7.22,7.22,0,0,0,.68-.56.26.26,0,0,1,.21-.06l1.66.5a.63.63,0,0,0,.69-.28l.59-1a.62.62,0,0,0-.11-.73l-1.25-1.18a.27.27,0,0,1-.06-.23,6.47,6.47,0,0,0,.15-.88.3.3,0,0,1,.12-.17l1.6-.69a.65.65,0,0,0,.35-.65l-.21-1.16a.61.61,0,0,0-.55-.49l-1.72-.11a.26.26,0,0,1-.19-.13,6,6,0,0,0-.45-.77.26.26,0,0,1,0-.21l.77-1.55a.6.6,0,0,0-.15-.72l-.9-.76a.63.63,0,0,0-.74,0l-1.38,1a.26.26,0,0,1-.24,0,6.34,6.34,0,0,0-.83-.3.29.29,0,0,1-.15-.16l-.4-1.69a.63.63,0,0,0-.58-.46h-1.18a.64.64,0,0,0-.59.46l-.39,1.68A.28.28,0,0,1,191.52,56.88Z" transform="translate(-3.7 -1.87)"/><path class="cls-15" d="M193.26,57.84a5.07,5.07,0,1,0,5.07,5.07A5.07,5.07,0,0,0,193.26,57.84Z" transform="translate(-3.7 -1.87)"/><rect class="cls-13" x="134.51" y="2.63" width="32.57" height="11.87" rx="2.83"/><polygon class="cls-11" points="149.36 6.26 147.91 6.26 148.06 5.58 149.51 5.58 149.36 6.26"/><polygon class="cls-11" points="148.99 8.04 146.59 8.04 146.73 7.35 149.14 7.35 148.99 8.04"/><polygon class="cls-11" points="148.61 9.82 145.27 9.82 145.41 9.13 148.76 9.13 148.61 9.82"/><polygon class="cls-11" points="148.24 11.59 143.94 11.59 144.09 10.91 148.38 10.91 148.24 11.59"/><path class="cls-14" d="M136.48,4.41a6.34,6.34,0,0,0-.83.3.41.41,0,0,1-.22,0l-1.39-1a.66.66,0,0,0-.74,0l-.9.76a.65.65,0,0,0-.16.73L133,6.7a.22.22,0,0,1,0,.22,7.44,7.44,0,0,0-.44.78.23.23,0,0,1-.18.12l-1.73.1a.64.64,0,0,0-.55.5l-.21,1.16a.62.62,0,0,0,.35.65l1.58.68a.28.28,0,0,1,.14.18,6.47,6.47,0,0,0,.15.88.23.23,0,0,1-.05.21l-1.26,1.2a.62.62,0,0,0-.11.73l.59,1a.6.6,0,0,0,.69.27l1.65-.49a.24.24,0,0,1,.23.06,6,6,0,0,0,.67.56.25.25,0,0,1,.09.2l-.2,1.73a.63.63,0,0,0,.39.63l1.11.4a.63.63,0,0,0,.71-.23l.94-1.44a.25.25,0,0,1,.21-.1h.88a.26.26,0,0,1,.2.1l1,1.45a.63.63,0,0,0,.7.23l1.11-.4a.63.63,0,0,0,.39-.63l-.2-1.71a.26.26,0,0,1,.1-.22c.23-.18.46-.37.67-.57a.27.27,0,0,1,.21,0l1.66.49a.63.63,0,0,0,.69-.27l.6-1a.65.65,0,0,0-.11-.74l-1.25-1.18a.26.26,0,0,1-.07-.22,6.49,6.49,0,0,0,.16-.88.26.26,0,0,1,.12-.17l1.59-.69a.62.62,0,0,0,.35-.65l-.2-1.16a.65.65,0,0,0-.56-.5l-1.71-.1a.28.28,0,0,1-.2-.13,5.35,5.35,0,0,0-.45-.77.26.26,0,0,1,0-.21l.78-1.55a.65.65,0,0,0-.15-.73l-.91-.76a.66.66,0,0,0-.74,0l-1.38,1a.31.31,0,0,1-.23,0c-.27-.11-.55-.21-.83-.3a.23.23,0,0,1-.15-.15l-.41-1.69a.63.63,0,0,0-.58-.46h-1.18a.63.63,0,0,0-.58.46l-.4,1.67A.27.27,0,0,1,136.48,4.41Z" transform="translate(-3.7 -1.87)"/><path class="cls-15" d="M138.21,5.36a5.07,5.07,0,1,0,5.07,5.07,5.07,5.07,0,0,0-5.07-5.07Z" transform="translate(-3.7 -1.87)"/><rect class="cls-13" x="134.51" y="21.8" width="32.57" height="11.87" rx="2.83"/><polygon class="cls-11" points="149.36 25.43 147.91 25.43 148.06 24.75 149.51 24.75 149.36 25.43"/><polygon class="cls-11" points="148.99 27.21 146.59 27.21 146.73 26.52 149.14 26.52 148.99 27.21"/><polygon class="cls-11" points="148.61 28.99 145.27 28.99 145.41 28.3 148.76 28.3 148.61 28.99"/><polygon class="cls-11" points="148.24 30.76 143.94 30.76 144.09 30.08 148.38 30.08 148.24 30.76"/><path class="cls-14" d="M136.48,23.58a6.34,6.34,0,0,0-.83.3.28.28,0,0,1-.22,0l-1.39-1a.63.63,0,0,0-.74,0l-.9.75a.65.65,0,0,0-.16.73L133,25.9a.22.22,0,0,1,0,.22,7.44,7.44,0,0,0-.44.78.23.23,0,0,1-.18.12l-1.73.11a.61.61,0,0,0-.55.49l-.21,1.16a.62.62,0,0,0,.35.65l1.58.69a.26.26,0,0,1,.14.17,6.47,6.47,0,0,0,.15.88.23.23,0,0,1-.05.21l-1.26,1.2a.62.62,0,0,0-.11.73l.59,1a.63.63,0,0,0,.69.28l1.65-.5a.32.32,0,0,1,.23.06,6,6,0,0,0,.67.56.25.25,0,0,1,.09.2l-.2,1.73a.63.63,0,0,0,.39.63l1.11.4a.63.63,0,0,0,.71-.23l.94-1.44a.28.28,0,0,1,.21-.1h.88a.26.26,0,0,1,.2.1l1,1.45a.63.63,0,0,0,.7.23l1.11-.4a.63.63,0,0,0,.39-.63l-.2-1.71a.27.27,0,0,1,.1-.22,7.1,7.1,0,0,0,.67-.56.26.26,0,0,1,.21-.06l1.66.5a.63.63,0,0,0,.69-.28l.6-1a.64.64,0,0,0-.11-.73l-1.25-1.19a.26.26,0,0,1-.07-.22,6.49,6.49,0,0,0,.16-.88.26.26,0,0,1,.12-.17l1.59-.69a.61.61,0,0,0,.35-.65l-.2-1.16a.65.65,0,0,0-.56-.5l-1.71-.1a.28.28,0,0,1-.2-.13,5.35,5.35,0,0,0-.45-.77.26.26,0,0,1,0-.21l.78-1.55a.65.65,0,0,0-.15-.73l-.91-.75a.63.63,0,0,0-.74,0l-1.38,1a.31.31,0,0,1-.23,0,8.29,8.29,0,0,0-.83-.31.23.23,0,0,1-.15-.15l-.41-1.69a.63.63,0,0,0-.58-.46h-1.18a.63.63,0,0,0-.58.46l-.4,1.68A.27.27,0,0,1,136.48,23.58Z" transform="translate(-3.7 -1.87)"/><path class="cls-15" d="M138.21,24.53a5.08,5.08,0,1,0,5.07,5.09v0a5.07,5.07,0,0,0-5.07-5.07Z" transform="translate(-3.7 -1.87)"/><rect class="cls-13" x="9.65" y="21.8" width="32.57" height="11.87" rx="2.83"/><polygon class="cls-11" points="24.5 25.43 23.05 25.43 23.2 24.75 24.65 24.75 24.5 25.43"/><polygon class="cls-11" points="24.13 27.21 21.73 27.21 21.88 26.52 24.28 26.52 24.13 27.21"/><polygon class="cls-11" points="23.75 28.99 20.41 28.99 20.55 28.3 23.9 28.3 23.75 28.99"/><polygon class="cls-11" points="23.38 30.76 19.09 30.76 19.23 30.08 23.52 30.08 23.38 30.76"/><path class="cls-14" d="M11.62,23.58a6.34,6.34,0,0,0-.83.3.2.2,0,0,1-.21,0l-1.4-1a.63.63,0,0,0-.74,0l-.9.75a.64.64,0,0,0-.15.73l.77,1.54a.28.28,0,0,1,0,.22,6.06,6.06,0,0,0-.45.78.23.23,0,0,1-.18.12l-1.73.11a.61.61,0,0,0-.55.49L5,28.75a.65.65,0,0,0,.35.65L7,30.09a.26.26,0,0,1,.14.17,6.49,6.49,0,0,0,.16.88.26.26,0,0,1-.06.21L6,32.55a.62.62,0,0,0-.11.73l.59,1a.63.63,0,0,0,.69.28l1.65-.5a.32.32,0,0,1,.23.06,7.1,7.1,0,0,0,.67.56.25.25,0,0,1,.09.2L9.6,36.61a.63.63,0,0,0,.39.63l1.1.4a.63.63,0,0,0,.71-.23L12.7,36a.32.32,0,0,1,.22-.1h.87a.26.26,0,0,1,.2.1l1,1.45a.63.63,0,0,0,.7.23l1.11-.4a.63.63,0,0,0,.39-.63L17,34.92a.27.27,0,0,1,.1-.22,7.1,7.1,0,0,0,.67-.56.26.26,0,0,1,.21-.06l1.67.5a.62.62,0,0,0,.68-.28l.6-1a.62.62,0,0,0-.11-.73l-1.25-1.19a.26.26,0,0,1-.07-.22,6.49,6.49,0,0,0,.16-.88.26.26,0,0,1,.12-.17l1.59-.69a.64.64,0,0,0,.36-.65l-.21-1.16a.64.64,0,0,0-.55-.5L19.2,27a.28.28,0,0,1-.2-.13,7.3,7.3,0,0,0-.44-.77.26.26,0,0,1,0-.21l.78-1.55a.64.64,0,0,0-.15-.73l-.9-.75a.63.63,0,0,0-.74,0l-1.39,1a.31.31,0,0,1-.23,0,8.29,8.29,0,0,0-.83-.31A.23.23,0,0,1,15,23.4l-.41-1.69a.63.63,0,0,0-.58-.46h-1.2a.63.63,0,0,0-.58.46l-.4,1.68A.26.26,0,0,1,11.62,23.58Z" transform="translate(-3.7 -1.87)"/><path class="cls-15" d="M13.35,24.53a5.08,5.08,0,1,0,5.07,5.09v0A5.07,5.07,0,0,0,13.35,24.53Z" transform="translate(-3.7 -1.87)"/><rect class="cls-13" x="74.71" y="21.8" width="32.57" height="11.87" rx="2.83"/><polygon class="cls-11" points="89.56 25.43 88.1 25.43 88.25 24.75 89.7 24.75 89.56 25.43"/><polygon class="cls-11" points="89.18 27.21 86.78 27.21 86.93 26.52 89.33 26.52 89.18 27.21"/><polygon class="cls-11" points="88.81 28.99 85.46 28.99 85.61 28.3 88.95 28.3 88.81 28.99"/><polygon class="cls-11" points="88.43 30.76 84.14 30.76 84.28 30.08 88.58 30.08 88.43 30.76"/><path class="cls-14" d="M76.67,23.58a6.34,6.34,0,0,0-.83.3.2.2,0,0,1-.21,0l-1.4-1a.63.63,0,0,0-.74,0l-.9.75a.64.64,0,0,0-.15.73l.77,1.54a.28.28,0,0,1,0,.22,6.06,6.06,0,0,0-.45.78.23.23,0,0,1-.18.12l-1.73.11a.61.61,0,0,0-.55.49l-.21,1.16a.64.64,0,0,0,.36.65l1.58.69a.25.25,0,0,1,.13.17,6.49,6.49,0,0,0,.16.88.26.26,0,0,1-.06.21L71,32.55a.62.62,0,0,0-.11.73l.59,1a.63.63,0,0,0,.69.28l1.65-.5a.32.32,0,0,1,.23.06,7.1,7.1,0,0,0,.67.56.26.26,0,0,1,.1.2l-.2,1.73a.63.63,0,0,0,.39.63l1.1.4a.63.63,0,0,0,.71-.23L77.75,36a.32.32,0,0,1,.22-.1h.88a.26.26,0,0,1,.2.1l1,1.45a.65.65,0,0,0,.71.23l1.11-.4a.63.63,0,0,0,.38-.63L82,34.92a.26.26,0,0,1,.09-.22,6,6,0,0,0,.67-.56.25.25,0,0,1,.22-.06l1.66.5a.63.63,0,0,0,.69-.28l.59-1a.62.62,0,0,0-.11-.73l-1.25-1.19a.26.26,0,0,1-.07-.22,5.24,5.24,0,0,0,.16-.88.3.3,0,0,1,.12-.17l1.59-.69a.64.64,0,0,0,.36-.65l-.21-1.16a.64.64,0,0,0-.55-.5L84.25,27a.28.28,0,0,1-.2-.13,4.51,4.51,0,0,0-.44-.77.37.37,0,0,1,0-.21l.78-1.55a.64.64,0,0,0-.15-.73l-.9-.75a.63.63,0,0,0-.74,0l-1.38,1a.33.33,0,0,1-.24,0,8.29,8.29,0,0,0-.83-.31A.23.23,0,0,1,80,23.4l-.4-1.69a.64.64,0,0,0-.59-.46h-1.2a.63.63,0,0,0-.58.46l-.4,1.68A.26.26,0,0,1,76.67,23.58Z" transform="translate(-3.7 -1.87)"/><path class="cls-15" d="M78.41,24.53a5.08,5.08,0,1,0,5.06,5.1v0A5.07,5.07,0,0,0,78.41,24.53Z" transform="translate(-3.7 -1.87)"/><rect class="cls-13" x="38.52" y="40.97" width="32.57" height="11.87" rx="2.83"/><polygon class="cls-11" points="53.37 44.61 51.91 44.61 52.06 43.92 53.51 43.92 53.37 44.61"/><polygon class="cls-11" points="52.99 46.38 50.59 46.38 50.74 45.69 53.14 45.69 52.99 46.38"/><polygon class="cls-11" points="52.62 48.16 49.27 48.16 49.42 47.47 52.76 47.47 52.62 48.16"/><polygon class="cls-11" points="52.24 49.94 47.95 49.94 48.09 49.25 52.39 49.25 52.24 49.94"/><path class="cls-14" d="M40.48,42.75a6.34,6.34,0,0,0-.83.3.2.2,0,0,1-.21,0L38,42a.63.63,0,0,0-.74,0l-.9.76a.6.6,0,0,0-.15.72L37,45a.28.28,0,0,1,0,.22,6,6,0,0,0-.44.78.25.25,0,0,1-.19.12l-1.73.11a.61.61,0,0,0-.55.49l-.21,1.16a.64.64,0,0,0,.36.65l1.58.69a.24.24,0,0,1,.13.18,6.64,6.64,0,0,0,.16.87.29.29,0,0,1-.06.22L34.8,51.72a.62.62,0,0,0-.11.73l.59,1a.63.63,0,0,0,.69.28l1.65-.49a.27.27,0,0,1,.23,0c.21.2.44.39.67.57a.2.2,0,0,1,.1.2l-.2,1.72a.63.63,0,0,0,.39.63l1.1.4a.63.63,0,0,0,.71-.23l1-1.44a.28.28,0,0,1,.21-.1h.88a.25.25,0,0,1,.2.09l1,1.45a.63.63,0,0,0,.71.23l1.11-.4A.64.64,0,0,0,46,55.8l-.19-1.71a.26.26,0,0,1,.09-.22,6,6,0,0,0,.67-.56.29.29,0,0,1,.22-.06l1.66.5a.63.63,0,0,0,.69-.28l.59-1a.62.62,0,0,0-.11-.73l-1.25-1.18a.28.28,0,0,1-.07-.23,5.24,5.24,0,0,0,.16-.88.3.3,0,0,1,.12-.17l1.6-.69a.65.65,0,0,0,.35-.65l-.21-1.16a.61.61,0,0,0-.55-.49l-1.72-.11a.3.3,0,0,1-.2-.13,4.51,4.51,0,0,0-.44-.77.26.26,0,0,1,0-.21l.77-1.55A.6.6,0,0,0,48,42.8l-.9-.76a.63.63,0,0,0-.74,0L45,43a.26.26,0,0,1-.24,0,6.34,6.34,0,0,0-.83-.3.26.26,0,0,1-.15-.16l-.4-1.69a.63.63,0,0,0-.58-.46H41.62a.64.64,0,0,0-.58.46l-.39,1.68A.3.3,0,0,1,40.48,42.75Z" transform="translate(-3.7 -1.87)"/><path class="cls-15" d="M42.22,43.71a5.07,5.07,0,1,0,5.06,5.08h0A5.07,5.07,0,0,0,42.22,43.71Z" transform="translate(-3.7 -1.87)"/><rect class="cls-13" x="38.52" y="106.45" width="32.57" height="11.87" rx="2.83"/><polygon class="cls-11" points="53.37 110.09 51.91 110.09 52.06 109.4 53.51 109.4 53.37 110.09"/><polygon class="cls-11" points="52.99 111.86 50.59 111.86 50.74 111.18 53.14 111.18 52.99 111.86"/><polygon class="cls-11" points="52.62 113.64 49.27 113.64 49.42 112.95 52.76 112.95 52.62 113.64"/><polygon class="cls-11" points="52.24 115.42 47.95 115.42 48.09 114.73 52.39 114.73 52.24 115.42"/><path class="cls-14" d="M40.48,108.23a6.34,6.34,0,0,0-.83.3.2.2,0,0,1-.21,0l-1.4-1a.63.63,0,0,0-.74,0l-.9.76a.6.6,0,0,0-.15.72l.77,1.54a.31.31,0,0,1,0,.23,4.51,4.51,0,0,0-.44.77.29.29,0,0,1-.19.13l-1.73.1a.62.62,0,0,0-.55.49l-.21,1.16a.65.65,0,0,0,.36.66l1.58.68A.24.24,0,0,1,36,115a6.49,6.49,0,0,0,.16.88.26.26,0,0,1-.06.21L34.8,117.2a.62.62,0,0,0-.11.73l.59,1a.63.63,0,0,0,.69.27l1.65-.49a.27.27,0,0,1,.23.05c.21.2.44.39.67.57a.22.22,0,0,1,.1.2l-.2,1.72a.63.63,0,0,0,.39.63l1.1.41a.65.65,0,0,0,.71-.24l1-1.43a.26.26,0,0,1,.21-.11h.88a.25.25,0,0,1,.2.09l1,1.45a.65.65,0,0,0,.71.24l1.11-.41a.63.63,0,0,0,.38-.63l-.19-1.71a.26.26,0,0,1,.09-.22,6,6,0,0,0,.67-.56.29.29,0,0,1,.22-.06l1.66.5a.63.63,0,0,0,.69-.27l.59-1a.62.62,0,0,0-.11-.73L48.38,116a.28.28,0,0,1-.07-.23,5.24,5.24,0,0,0,.16-.88.3.3,0,0,1,.12-.17l1.6-.69a.65.65,0,0,0,.35-.65l-.21-1.16a.61.61,0,0,0-.55-.49l-1.72-.1a.29.29,0,0,1-.2-.14,7.3,7.3,0,0,0-.44-.77.23.23,0,0,1,0-.2l.77-1.56a.6.6,0,0,0-.15-.72l-.9-.76a.63.63,0,0,0-.74,0l-1.38,1a.26.26,0,0,1-.24,0,6.34,6.34,0,0,0-.83-.3.26.26,0,0,1-.15-.16l-.4-1.68a.63.63,0,0,0-.58-.46h-1.2a.63.63,0,0,0-.58.46L40.65,108A.3.3,0,0,1,40.48,108.23Z" transform="translate(-3.7 -1.87)"/><path class="cls-15" d="M42.22,109.19a5.07,5.07,0,1,0,5.06,5.08h0A5.07,5.07,0,0,0,42.22,109.19Z" transform="translate(-3.7 -1.87)"/><rect class="cls-13" x="38.52" y="126.87" width="32.57" height="11.87" rx="2.83"/><polygon class="cls-11" points="53.37 130.51 51.91 130.51 52.06 129.82 53.51 129.82 53.37 130.51"/><polygon class="cls-11" points="52.99 132.28 50.59 132.28 50.74 131.6 53.14 131.6 52.99 132.28"/><polygon class="cls-11" points="52.62 134.06 49.27 134.06 49.42 133.37 52.76 133.37 52.62 134.06"/><polygon class="cls-11" points="52.24 135.84 47.95 135.84 48.09 135.15 52.39 135.15 52.24 135.84"/><path class="cls-14" d="M40.48,128.65a6.34,6.34,0,0,0-.83.3.2.2,0,0,1-.21,0L38,128a.63.63,0,0,0-.74,0l-.9.76a.6.6,0,0,0-.15.72L37,131a.31.31,0,0,1,0,.23,4.51,4.51,0,0,0-.44.77.29.29,0,0,1-.19.13l-1.73.1a.61.61,0,0,0-.55.49l-.21,1.16a.64.64,0,0,0,.36.65l1.58.69a.24.24,0,0,1,.13.18,6.64,6.64,0,0,0,.16.87.29.29,0,0,1-.06.22l-1.26,1.19a.62.62,0,0,0-.11.73l.59,1a.63.63,0,0,0,.69.27l1.65-.49a.27.27,0,0,1,.23.05c.21.2.44.39.67.57a.2.2,0,0,1,.1.2l-.2,1.72a.63.63,0,0,0,.39.63l1.1.4a.63.63,0,0,0,.71-.23l1-1.44a.28.28,0,0,1,.21-.1h.88a.25.25,0,0,1,.2.09l1,1.45a.63.63,0,0,0,.71.23l1.11-.4a.63.63,0,0,0,.38-.63l-.3-1.7a.26.26,0,0,1,.09-.22,6,6,0,0,0,.67-.56.29.29,0,0,1,.22-.06l1.66.5a.63.63,0,0,0,.69-.27l.59-1a.62.62,0,0,0-.11-.73l-1.25-1.18a.28.28,0,0,1-.07-.23,5.24,5.24,0,0,0,.16-.88.3.3,0,0,1,.12-.17l1.6-.69a.65.65,0,0,0,.35-.65l-.21-1.16a.61.61,0,0,0-.55-.49l-1.72-.1a.35.35,0,0,1-.2-.14,7.3,7.3,0,0,0-.44-.77.26.26,0,0,1,0-.21l.77-1.55a.6.6,0,0,0-.15-.72l-.9-.76a.63.63,0,0,0-.74,0L45,129a.26.26,0,0,1-.24,0,6.34,6.34,0,0,0-.83-.3.26.26,0,0,1-.15-.16l-.4-1.69a.62.62,0,0,0-.58-.45h-1.2a.63.63,0,0,0-.58.45l-.39,1.68A.3.3,0,0,1,40.48,128.65Z" transform="translate(-3.7 -1.87)"/><path class="cls-15" d="M42.22,129.61a5.07,5.07,0,1,0,5.06,5.08h0A5.07,5.07,0,0,0,42.22,129.61Z" transform="translate(-3.7 -1.87)"/><rect class="cls-13" x="101.41" y="40.97" width="32.57" height="11.87" rx="2.83"/><polygon class="cls-11" points="116.26 44.61 114.81 44.61 114.96 43.92 116.41 43.92 116.26 44.61"/><polygon class="cls-11" points="115.89 46.38 113.49 46.38 113.63 45.69 116.03 45.69 115.89 46.38"/><polygon class="cls-11" points="115.51 48.16 112.16 48.16 112.31 47.47 115.66 47.47 115.51 48.16"/><polygon class="cls-11" points="115.14 49.94 110.84 49.94 110.99 49.25 115.28 49.25 115.14 49.94"/><path class="cls-14" d="M103.38,42.75a6.34,6.34,0,0,0-.83.3.28.28,0,0,1-.22,0l-1.39-1a.63.63,0,0,0-.74,0l-.91.76a.63.63,0,0,0-.15.72L99.91,45a.22.22,0,0,1,0,.22,7.44,7.44,0,0,0-.44.78.23.23,0,0,1-.18.12l-1.73.11a.63.63,0,0,0-.56.49l-.2,1.16a.61.61,0,0,0,.35.65l1.58.69a.28.28,0,0,1,.14.18,6.6,6.6,0,0,0,.15.87.25.25,0,0,1,0,.22L97.7,51.72a.62.62,0,0,0-.11.73l.59,1a.63.63,0,0,0,.69.28l1.65-.49a.25.25,0,0,1,.22,0c.22.2.44.39.68.57a.25.25,0,0,1,.09.2l-.2,1.72a.63.63,0,0,0,.39.63l1.11.4a.63.63,0,0,0,.71-.23l.94-1.44a.28.28,0,0,1,.21-.1h.88a.22.22,0,0,1,.2.09l1,1.45a.62.62,0,0,0,.7.23l1.11-.4a.63.63,0,0,0,.39-.63l-.2-1.71a.31.31,0,0,1,.09-.22,6.13,6.13,0,0,0,.68-.56.26.26,0,0,1,.21-.06l1.66.5a.63.63,0,0,0,.69-.28l.59-1a.62.62,0,0,0-.1-.73l-1.25-1.18a.25.25,0,0,1-.07-.23,8.52,8.52,0,0,0,.16-.88.24.24,0,0,1,.12-.17l1.59-.69a.61.61,0,0,0,.35-.65l-.2-1.16a.63.63,0,0,0-.56-.49L111,46.16a.28.28,0,0,1-.2-.13,5.35,5.35,0,0,0-.45-.77.26.26,0,0,1,0-.21l.78-1.55a.63.63,0,0,0-.15-.72L110,42a.63.63,0,0,0-.74,0l-1.38,1a.24.24,0,0,1-.23,0,6,6,0,0,0-.84-.3.29.29,0,0,1-.15-.16l-.4-1.69a.63.63,0,0,0-.58-.46H104.5a.63.63,0,0,0-.58.46l-.4,1.68A.28.28,0,0,1,103.38,42.75Z" transform="translate(-3.7 -1.87)"/><path class="cls-15" d="M105.11,43.71a5.07,5.07,0,1,0,5.07,5.07h0A5.07,5.07,0,0,0,105.11,43.71Z" transform="translate(-3.7 -1.87)"/><path class="cls-12" d="M117.35,86.75H106.18a5.94,5.94,0,0,0-.49,11.87h11.66a2.83,2.83,0,0,0,2.83-2.83h0V89.58a2.83,2.83,0,0,0-2.83-2.83Z" transform="translate(-3.7 -1.87)"/><path class="cls-13" d="M110.52,92.69a4.34,4.34,0,0,1-8.68,0,4.25,4.25,0,0,1,.31-1.62.45.45,0,0,1,.84.34,3.43,3.43,0,1,0,6.38,2.52,3.3,3.3,0,0,0,.24-1.24,3.42,3.42,0,0,0-1.84-3,.45.45,0,0,1-.19-.61h0a.44.44,0,0,1,.59-.2h0A4.32,4.32,0,0,1,110.52,92.69Zm-4.34-3a.67.67,0,1,0-.67-.67h0a.67.67,0,0,0,.67.66Zm0,3.68a.67.67,0,0,0,.37-1.23L103,89.47l2.65,3.58a.67.67,0,0,0,.53.31Z" transform="translate(-3.7 -1.87)"/><rect class="cls-12" x="172.24" y="141.46" width="11.87" height="11.87" rx="2.83"/><polygon class="cls-13" points="174.51 149.09 173.88 151.49 182.48 151.49 181.84 149.09 174.51 149.09"/><polygon class="cls-13" points="175.18 143.27 173.88 148.19 182.48 148.19 181.18 143.27 175.18 143.27"/><rect class="cls-12" x="286.08" y="2.63" width="11.87" height="11.87" rx="2.83"/><polygon class="cls-13" points="288.35 10.26 287.72 12.66 296.31 12.66 295.68 10.26 288.35 10.26"/><polygon class="cls-13" points="289.01 4.44 287.72 9.36 296.31 9.36 295.02 4.44 289.01 4.44"/><rect class="cls-13" x="101.41" y="60.14" width="32.57" height="11.87" rx="2.83"/><polygon class="cls-11" points="116.26 63.78 114.81 63.78 114.96 63.09 116.41 63.09 116.26 63.78"/><polygon class="cls-11" points="115.89 65.55 113.49 65.55 113.63 64.87 116.03 64.87 115.89 65.55"/><polygon class="cls-11" points="115.51 67.33 112.16 67.33 112.31 66.64 115.66 66.64 115.51 67.33"/><polygon class="cls-11" points="115.14 69.11 110.84 69.11 110.99 68.42 115.28 68.42 115.14 69.11"/><path class="cls-14" d="M103.38,61.92a6.34,6.34,0,0,0-.83.3.28.28,0,0,1-.22,0l-1.39-1a.63.63,0,0,0-.74,0l-.91.76a.63.63,0,0,0-.15.72l.77,1.54a.24.24,0,0,1,0,.23,7.3,7.3,0,0,0-.44.77.27.27,0,0,1-.18.13l-1.73.1A.64.64,0,0,0,97,66l-.2,1.16a.63.63,0,0,0,.35.66l1.58.68a.28.28,0,0,1,.14.18,6.6,6.6,0,0,0,.15.87.25.25,0,0,1,0,.22L97.7,70.89a.62.62,0,0,0-.11.73l.59,1a.63.63,0,0,0,.69.27l1.65-.49a.28.28,0,0,1,.22,0,7.59,7.59,0,0,0,.68.57.25.25,0,0,1,.09.2l-.2,1.72a.63.63,0,0,0,.39.63l1.11.41a.65.65,0,0,0,.71-.24l.94-1.43a.26.26,0,0,1,.21-.11h.88a.22.22,0,0,1,.2.09l1,1.45a.64.64,0,0,0,.7.24l1.11-.41a.63.63,0,0,0,.39-.63l-.2-1.71a.31.31,0,0,1,.09-.22,6.13,6.13,0,0,0,.68-.56.26.26,0,0,1,.21-.06l1.66.5a.63.63,0,0,0,.69-.27l.59-1a.62.62,0,0,0-.1-.73l-1.25-1.18a.25.25,0,0,1-.07-.23,8.52,8.52,0,0,0,.16-.88.24.24,0,0,1,.12-.17l1.59-.69a.61.61,0,0,0,.35-.65l-.2-1.16a.63.63,0,0,0-.56-.49l-1.71-.1a.25.25,0,0,1-.2-.14,6,6,0,0,0-.45-.77.26.26,0,0,1,0-.21l.78-1.55a.63.63,0,0,0-.15-.72l-.91-.76a.63.63,0,0,0-.74,0l-1.38,1a.24.24,0,0,1-.23,0,6,6,0,0,0-.84-.3.29.29,0,0,1-.15-.16l-.4-1.68a.63.63,0,0,0-.58-.46h-1.18A.63.63,0,0,0,104,60l-.4,1.67A.28.28,0,0,1,103.38,61.92Z" transform="translate(-3.7 -1.87)"/><path class="cls-15" d="M105.11,62.88A5.07,5.07,0,1,0,110.18,68a5.07,5.07,0,0,0-5.07-5.12Z" transform="translate(-3.7 -1.87)"/><path class="cls-12" d="M22.12,160.41H11a5.94,5.94,0,0,0-.49,11.87H22.12a2.84,2.84,0,0,0,2.88-2.8v-6.24a2.84,2.84,0,0,0-2.85-2.83Z" transform="translate(-3.7 -1.87)"/><path class="cls-13" d="M15.3,166.35a4.34,4.34,0,0,1-8.68,0,4.25,4.25,0,0,1,.31-1.62.45.45,0,0,1,.84.34h0a3.43,3.43,0,1,0,4.78-1.77.44.44,0,0,1-.2-.59v0a.45.45,0,0,1,.6-.2h0A4.32,4.32,0,0,1,15.3,166.35Zm-4.34-3a.67.67,0,1,0-.67-.67h0a.66.66,0,0,0,.68.66h0ZM11,167a.67.67,0,0,0,.67-.67.66.66,0,0,0-.31-.56l-3.57-2.66,2.65,3.58A.66.66,0,0,0,11,167Z" transform="translate(-3.7 -1.87)"/><rect class="cls-13" x="9.65" y="180.8" width="32.57" height="11.88" rx="2.83"/><polygon class="cls-11" points="24.5 184.44 23.05 184.44 23.2 183.75 24.65 183.75 24.5 184.44"/><polygon class="cls-11" points="24.13 186.22 21.73 186.22 21.87 185.53 24.28 185.53 24.13 186.22"/><polygon class="cls-11" points="23.75 188 20.41 188 20.55 187.31 23.9 187.31 23.75 188"/><polygon class="cls-11" points="23.38 189.77 19.08 189.77 19.23 189.09 23.52 189.09 23.38 189.77"/><path class="cls-14" d="M11.62,182.58a8.29,8.29,0,0,0-.83.31.26.26,0,0,1-.21,0l-1.4-1a.66.66,0,0,0-.74,0l-.9.76a.64.64,0,0,0-.15.73l.77,1.54a.28.28,0,0,1,0,.22,8.46,8.46,0,0,0-.44.77.23.23,0,0,1-.18.13l-1.73.1a.64.64,0,0,0-.55.49L5,187.76a.65.65,0,0,0,.35.65l1.58.68a.28.28,0,0,1,.14.18,6.47,6.47,0,0,0,.15.88.26.26,0,0,1,0,.21L6,191.55a.64.64,0,0,0-.11.74l.59,1a.63.63,0,0,0,.69.27l1.65-.49a.24.24,0,0,1,.23.06,6,6,0,0,0,.67.56.25.25,0,0,1,.09.2l-.19,1.73a.63.63,0,0,0,.38.63l1.11.4a.65.65,0,0,0,.71-.23L12.7,195a.23.23,0,0,1,.21-.1h.88a.26.26,0,0,1,.2.1l1,1.45a.63.63,0,0,0,.7.23l1.11-.4a.63.63,0,0,0,.39-.63l-.2-1.71a.26.26,0,0,1,.1-.22c.23-.18.46-.37.67-.57a.26.26,0,0,1,.21,0l1.67.49a.61.61,0,0,0,.68-.27l.6-1a.65.65,0,0,0-.11-.74l-1.25-1.18a.26.26,0,0,1-.07-.22,6.63,6.63,0,0,0,.16-.89.22.22,0,0,1,.12-.16l1.59-.69a.62.62,0,0,0,.35-.65l-.2-1.17a.64.64,0,0,0-.56-.49L19.2,186a.28.28,0,0,1-.2-.13,7.44,7.44,0,0,0-.44-.78.23.23,0,0,1,0-.2l.78-1.55a.65.65,0,0,0-.15-.73l-.91-.76a.63.63,0,0,0-.74,0l-1.38,1a.31.31,0,0,1-.23,0,6.34,6.34,0,0,0-.83-.3.23.23,0,0,1-.15-.15l-.41-1.69a.63.63,0,0,0-.58-.46h-1.2a.63.63,0,0,0-.58.46l-.4,1.67A.24.24,0,0,1,11.62,182.58Z" transform="translate(-3.7 -1.87)"/><path class="cls-15" d="M13.35,183.54a5.07,5.07,0,1,0,5.07,5.07,5.07,5.07,0,0,0-5.07-5.07Z" transform="translate(-3.7 -1.87)"/><path class="cls-16" d="M246.61,124.16H235.44a5.94,5.94,0,0,0,0,11.87h11.17a2.83,2.83,0,0,0,2.83-2.83h0V127a2.83,2.83,0,0,0-2.82-2.84Z" transform="translate(-3.7 -1.87)"/><path class="cls-17" d="M257,124.62a6.5,6.5,0,0,0,1.08-.24,7.93,7.93,0,0,0,3-1.7l3.67,9.27a20.44,20.44,0,0,1-3,2.49,6.42,6.42,0,0,1-3.4,1.23,2.52,2.52,0,0,1-2.21-1.09c.57-.52,2-1.51,2.48-1.18s-.44,1.48-.44,1.48c1.29-1,1.33-1.58,1.23-1.86l-.33-.46m.21.27-4.3-9.69a8.34,8.34,0,0,0-1,0,11.29,11.29,0,0,0-3.16.46,10.26,10.26,0,0,0-3.81,2l4.65,11.79a26.43,26.43,0,0,1,3.59-3.18,6.62,6.62,0,0,1,3.36-1.46,2,2,0,0,1,.64.08Z" transform="translate(-3.7 -1.87)"/><path class="cls-13" d="M261.09,122.68a7.93,7.93,0,0,1-3,1.7,6.5,6.5,0,0,1-1.08.24l2.4,8.4h0c.1.28.06.88-1.23,1.86,0,0,.9-1.15.44-1.48s-1.91.66-2.48,1.18a2.52,2.52,0,0,0,2.21,1.09,6.42,6.42,0,0,0,3.4-1.23,20.44,20.44,0,0,0,3-2.49Z" transform="translate(-3.7 -1.87)"/><path class="cls-11" d="M261.6,134.12a18.66,18.66,0,0,0,2.77-2.25l-1.09-2.77a14.72,14.72,0,0,1-2.76,2Z" transform="translate(-3.7 -1.87)"/><path class="cls-11" d="M262.05,126l-1.1-2.78a8.31,8.31,0,0,1-2.77,1.47l1.12,3.1A10.58,10.58,0,0,0,262.05,126Z" transform="translate(-3.7 -1.87)"/><path class="cls-11" d="M260.52,131.14l-1.22-3.35a7.47,7.47,0,0,1-1.29.42l1,3.56A8.31,8.31,0,0,0,260.52,131.14Z" transform="translate(-3.7 -1.87)"/><path class="cls-13" d="M254,123.09a11.29,11.29,0,0,0-3.16.46,10.26,10.26,0,0,0-3.81,2l4.65,11.79a26.43,26.43,0,0,1,3.59-3.18,6.62,6.62,0,0,1,3.36-1.46,1.93,1.93,0,0,1,.63.1l-4.3-9.69a8.34,8.34,0,0,0-1,0Z" transform="translate(-3.7 -1.87)"/><path class="cls-11" d="M254,123.42a10.88,10.88,0,0,0-3,.43l1.45,3.47a12.59,12.59,0,0,1,3.61-1l-1.28-2.88A6.77,6.77,0,0,0,254,123.42Z" transform="translate(-3.7 -1.87)"/><path class="cls-11" d="M253.88,130.86l1.26,3a6.62,6.62,0,0,1,3.49-1.48h.08l-1.27-2.87A8,8,0,0,0,253.88,130.86Z" transform="translate(-3.7 -1.87)"/><path class="cls-11" d="M252.41,127.32a15.57,15.57,0,0,0-3.56,2l1.55,3.92a32.73,32.73,0,0,1,3.48-2.36Z" transform="translate(-3.7 -1.87)"/><path class="cls-16" d="M181.24,10.23l1.58.68a.28.28,0,0,1,.14.18,6.47,6.47,0,0,0,.15.88.23.23,0,0,1-.05.21l-1.26,1.2a.62.62,0,0,0-.11.73l.59,1a.6.6,0,0,0,.69.27l1.65-.49a.24.24,0,0,1,.23.06,6,6,0,0,0,.67.56.25.25,0,0,1,.09.2l-.2,1.73a.63.63,0,0,0,.39.63l1.11.4a.63.63,0,0,0,.71-.23l.94-1.44a.25.25,0,0,1,.21-.1h.88a.26.26,0,0,1,.2.1l1,1.45a.63.63,0,0,0,.7.23l1.11-.4a.63.63,0,0,0,.39-.63l-.12-1.09H219a2.83,2.83,0,0,0,2.83-2.83h0V7.33A2.83,2.83,0,0,0,219,4.5H195.08L195,4.43l-.91-.76a.66.66,0,0,0-.74,0l-1.13.85H192a3.39,3.39,0,0,0-.64.07l-.47-.17a.23.23,0,0,1-.15-.15l-.41-1.69a.63.63,0,0,0-.58-.46h-1.18a.63.63,0,0,0-.58.46l-.4,1.67a.26.26,0,0,1-.16.18,6.34,6.34,0,0,0-.83.3.41.41,0,0,1-.22,0l-1.39-1a.66.66,0,0,0-.74,0l-.9.76a.65.65,0,0,0-.16.73L184,6.7a.22.22,0,0,1,0,.22,7.44,7.44,0,0,0-.44.78.23.23,0,0,1-.18.12l-1.73.1a.64.64,0,0,0-.55.5l-.21,1.16A.62.62,0,0,0,181.24,10.23Z" transform="translate(-3.7 -1.87)"/><path class="cls-16" d="M225,12.63l1.58.68a.28.28,0,0,1,.14.18,6.47,6.47,0,0,0,.15.88.23.23,0,0,1-.05.21l-1.26,1.19a.62.62,0,0,0-.11.73l.59,1a.63.63,0,0,0,.69.27l1.65-.49a.28.28,0,0,1,.23,0,5.18,5.18,0,0,0,.67.57.25.25,0,0,1,.09.2l-.2,1.72a.63.63,0,0,0,.39.63l1.11.41a.65.65,0,0,0,.71-.24l.94-1.43a.26.26,0,0,1,.21-.11h.88a.25.25,0,0,1,.2.09l1,1.45a.64.64,0,0,0,.7.24l1.11-.41a.63.63,0,0,0,.39-.63l-.12-1.08h26a2.85,2.85,0,0,0,2.83-2.84V9.72a2.85,2.85,0,0,0-2.83-2.83H238.83l-.05-.06-.91-.76a.63.63,0,0,0-.74,0L236,6.89h-.2a2.74,2.74,0,0,0-.64.08l-.47-.17a.26.26,0,0,1-.15-.16L234.13,5a.63.63,0,0,0-.58-.46h-1.18a.63.63,0,0,0-.58.46l-.4,1.67a.25.25,0,0,1-.16.17,6.34,6.34,0,0,0-.83.3.28.28,0,0,1-.22,0l-1.39-1a.63.63,0,0,0-.74,0l-.9.76a.63.63,0,0,0-.16.72l.77,1.54a.24.24,0,0,1,0,.23,7.3,7.3,0,0,0-.44.77.24.24,0,0,1-.18.13l-1.73.1a.62.62,0,0,0-.55.49L224.64,12A.65.65,0,0,0,225,12.63Z" transform="translate(-3.7 -1.87)"/><path class="cls-16" d="M298.82,105H275l-.05-.06-.91-.76a.63.63,0,0,0-.74,0l-1.13.84H272a2.74,2.74,0,0,0-.64.08l-.47-.17a.23.23,0,0,1-.15-.15l-.41-1.69a.63.63,0,0,0-.58-.46h-1.18a.63.63,0,0,0-.58.46l-.4,1.67a.23.23,0,0,1-.16.17,8.29,8.29,0,0,0-.83.31.41.41,0,0,1-.22,0l-1.39-1a.66.66,0,0,0-.74,0l-.9.76a.64.64,0,0,0-.15.73l.76,1.54a.22.22,0,0,1,0,.22,8.46,8.46,0,0,0-.44.77.23.23,0,0,1-.18.13l-1.73.1a.64.64,0,0,0-.55.49l-.21,1.17a.63.63,0,0,0,.35.65l1.58.68a.28.28,0,0,1,.14.18,6.47,6.47,0,0,0,.15.88.23.23,0,0,1-.05.21l-1.26,1.19a.64.64,0,0,0-.11.74l.59,1a.63.63,0,0,0,.69.27l1.65-.49a.24.24,0,0,1,.23.06,6,6,0,0,0,.67.56.25.25,0,0,1,.09.2l-.2,1.73a.64.64,0,0,0,.39.63l1.11.4a.65.65,0,0,0,.71-.23l.94-1.44a.26.26,0,0,1,.21-.11h.88a.26.26,0,0,1,.2.1l1,1.45a.63.63,0,0,0,.7.23l1.11-.4A.63.63,0,0,0,273,118l-.12-1.09h26.06a2.85,2.85,0,0,0,2.83-2.84v-6.2A2.84,2.84,0,0,0,299,105Z" transform="translate(-3.7 -1.87)"/><path class="cls-16" d="M239.91,114v-6.2a2.85,2.85,0,0,0-2.84-2.84H213.2v-.06l-.9-.76a.63.63,0,0,0-.74,0l-1.14.84h-.2a2.74,2.74,0,0,0-.64.08l-.47-.17a.23.23,0,0,1-.15-.15l-.41-1.69a.63.63,0,0,0-.58-.46h-1.18a.63.63,0,0,0-.58.46l-.4,1.67a.23.23,0,0,1-.16.17,8.29,8.29,0,0,0-.83.31.26.26,0,0,1-.21,0l-1.4-1a.66.66,0,0,0-.74,0l-.9.76a.64.64,0,0,0-.15.73l.77,1.54a.28.28,0,0,1,0,.22c-.16.25-.31.51-.45.77a.23.23,0,0,1-.18.13l-1.73.1a.64.64,0,0,0-.55.49l-.21,1.17a.64.64,0,0,0,.36.65l1.58.68a.29.29,0,0,1,.13.18,6.49,6.49,0,0,0,.16.88.26.26,0,0,1-.06.21L200,113.9a.64.64,0,0,0-.11.74l.59,1a.63.63,0,0,0,.69.27l1.65-.49a.24.24,0,0,1,.23.06,7.1,7.1,0,0,0,.67.56.26.26,0,0,1,.1.2l-.2,1.73a.63.63,0,0,0,.39.63l1.1.4a.65.65,0,0,0,.71-.23l.94-1.44a.27.27,0,0,1,.22-.11,3.09,3.09,0,0,0,.43,0h.45a.26.26,0,0,1,.2.1l1,1.45a.65.65,0,0,0,.71.23l1.1-.4a.63.63,0,0,0,.39-.63l-.12-1.09h26.06A2.84,2.84,0,0,0,239.91,114Z" transform="translate(-3.7 -1.87)"/><path class="cls-16" d="M211.59,124.16H187.72l-.05-.07-.91-.76a.66.66,0,0,0-.74,0l-1.13.85h-.2a3.39,3.39,0,0,0-.64.07l-.47-.17a.23.23,0,0,1-.15-.15l-.41-1.69a.63.63,0,0,0-.58-.46h-1.18a.63.63,0,0,0-.58.46l-.4,1.67a.23.23,0,0,1-.16.17,8.29,8.29,0,0,0-.83.31.26.26,0,0,1-.21,0l-1.4-1a.66.66,0,0,0-.74,0l-.9.76a.64.64,0,0,0-.15.73l.77,1.54a.28.28,0,0,1,0,.22,7.44,7.44,0,0,0-.44.78.23.23,0,0,1-.18.12l-1.73.1a.64.64,0,0,0-.55.5l-.21,1.16a.65.65,0,0,0,.35.65l1.58.68a.28.28,0,0,1,.14.18,6.47,6.47,0,0,0,.15.88.23.23,0,0,1-.05.21l-1.26,1.2a.62.62,0,0,0-.11.73l.59,1a.6.6,0,0,0,.69.27l1.65-.49a.24.24,0,0,1,.23.06,6,6,0,0,0,.67.56.25.25,0,0,1,.09.2l-.19,1.73a.63.63,0,0,0,.38.63l1.11.4a.63.63,0,0,0,.71-.23l.94-1.44a.25.25,0,0,1,.21-.1h.88a.26.26,0,0,1,.2.1l1,1.45a.63.63,0,0,0,.7.23l1.11-.4a.63.63,0,0,0,.39-.63l-.12-1.09h26.06a2.83,2.83,0,0,0,2.83-2.83h0V127a2.83,2.83,0,0,0-2.82-2.84Z" transform="translate(-3.7 -1.87)"/><path class="cls-16" d="M211.59,162.5H187.72l-.05-.07-.91-.75a.63.63,0,0,0-.74,0l-1.13.85h-.2a2.74,2.74,0,0,0-.64.08,3.75,3.75,0,0,0-.47-.17.26.26,0,0,1-.15-.16l-.41-1.69a.63.63,0,0,0-.58-.46h-1.18a.63.63,0,0,0-.58.46l-.4,1.68a.25.25,0,0,1-.16.17,6.34,6.34,0,0,0-.83.3.2.2,0,0,1-.21,0l-1.4-1a.63.63,0,0,0-.74,0l-.9.75a.64.64,0,0,0-.15.73l.77,1.54a.28.28,0,0,1,0,.22,7.44,7.44,0,0,0-.44.78.22.22,0,0,1-.18.12l-1.73.11a.61.61,0,0,0-.55.49l-.21,1.16a.65.65,0,0,0,.35.65l1.58.69a.28.28,0,0,1,.14.18,6.6,6.6,0,0,0,.15.87.25.25,0,0,1-.05.22l-1.26,1.19a.62.62,0,0,0-.11.73l.59,1a.63.63,0,0,0,.69.28l1.65-.49a.28.28,0,0,1,.23,0c.21.2.44.39.67.57a.25.25,0,0,1,.09.2l-.19,1.72a.63.63,0,0,0,.38.63l1.11.4a.63.63,0,0,0,.71-.23l.94-1.44a.28.28,0,0,1,.21-.1h.88a.22.22,0,0,1,.2.09l1,1.45a.62.62,0,0,0,.7.23l1.11-.4a.63.63,0,0,0,.39-.63l-.12-1.09h26.06a2.83,2.83,0,0,0,2.83-2.83h0v-6.21a2.83,2.83,0,0,0-2.79-2.87Z" transform="translate(-3.7 -1.87)"/><path class="cls-16" d="M211.59,182.67H187.72l-.05-.06-.91-.76a.63.63,0,0,0-.74,0l-1.13.84h-.2a3.4,3.4,0,0,0-.64.08l-.47-.17a.23.23,0,0,1-.15-.15l-.41-1.69a.63.63,0,0,0-.58-.46h-1.18a.63.63,0,0,0-.58.46l-.4,1.67a.23.23,0,0,1-.16.17,8.29,8.29,0,0,0-.83.31.26.26,0,0,1-.21,0l-1.4-1a.66.66,0,0,0-.74,0l-.9.76a.64.64,0,0,0-.15.73l.77,1.54a.28.28,0,0,1,0,.22,8.46,8.46,0,0,0-.44.77.23.23,0,0,1-.18.13l-1.73.1a.64.64,0,0,0-.55.49l-.21,1.17a.65.65,0,0,0,.35.65l1.58.68a.28.28,0,0,1,.14.18,6.47,6.47,0,0,0,.15.88.23.23,0,0,1-.05.21l-1.26,1.19a.64.64,0,0,0-.11.74l.59,1a.63.63,0,0,0,.69.27l1.65-.49a.24.24,0,0,1,.23.06,6,6,0,0,0,.67.56.25.25,0,0,1,.09.2l-.19,1.73a.63.63,0,0,0,.38.63l1.11.4a.65.65,0,0,0,.71-.23l.94-1.44a.23.23,0,0,1,.21-.1h.88a.26.26,0,0,1,.2.1l1,1.45a.63.63,0,0,0,.7.23l1.11-.4a.63.63,0,0,0,.39-.63l-.12-1.09h26.06a2.83,2.83,0,0,0,2.83-2.83h0v-6.21a2.84,2.84,0,0,0-2.79-2.89Z" transform="translate(-3.7 -1.87)"/><path class="cls-16" d="M96.09,182.67H72.22v-.06l-.91-.76a.63.63,0,0,0-.74,0l-1.13.84h-.2a3.4,3.4,0,0,0-.64.08l-.47-.17a.23.23,0,0,1-.15-.15l-.41-1.69a.63.63,0,0,0-.58-.46H65.76a.63.63,0,0,0-.58.46l-.4,1.67a.23.23,0,0,1-.16.17,8.29,8.29,0,0,0-.83.31.26.26,0,0,1-.21,0l-1.4-1a.66.66,0,0,0-.74,0l-.9.76a.64.64,0,0,0-.15.73l.77,1.54a.28.28,0,0,1,0,.22,8.46,8.46,0,0,0-.44.77.23.23,0,0,1-.18.13l-1.73.1a.64.64,0,0,0-.55.49L58,187.76a.65.65,0,0,0,.35.65l1.58.68a.28.28,0,0,1,.14.18,6.47,6.47,0,0,0,.15.88.26.26,0,0,1,0,.21L59,191.55a.64.64,0,0,0-.11.74l.59,1a.63.63,0,0,0,.69.27l1.65-.49a.24.24,0,0,1,.23.06,6,6,0,0,0,.67.56.25.25,0,0,1,.09.2l-.19,1.73a.63.63,0,0,0,.38.63l1.11.4a.65.65,0,0,0,.71-.23L65.7,195a.23.23,0,0,1,.21-.1h.88a.26.26,0,0,1,.2.1l1,1.45a.63.63,0,0,0,.7.23l1.11-.4a.63.63,0,0,0,.39-.63l-.19-1.1H96.09a2.83,2.83,0,0,0,2.83-2.83h0v-6.21A2.85,2.85,0,0,0,96.09,182.67Z" transform="translate(-3.7 -1.87)"/><path class="cls-16" d="M145.59,182.67H121.72v-.06l-.9-.76a.63.63,0,0,0-.74,0l-1.14.84h-.2a3.4,3.4,0,0,0-.64.08l-.47-.17a.23.23,0,0,1-.15-.15l-.4-1.69a.63.63,0,0,0-.58-.46h-1.18a.64.64,0,0,0-.59.46l-.39,1.67a.29.29,0,0,1-.17.17,8.29,8.29,0,0,0-.83.31.26.26,0,0,1-.21,0l-1.4-1a.66.66,0,0,0-.74,0l-.9.76a.64.64,0,0,0-.15.73l.77,1.54a.28.28,0,0,1,0,.22,7.3,7.3,0,0,0-.44.77.24.24,0,0,1-.18.13l-1.74.1a.64.64,0,0,0-.55.49l-.21,1.17a.64.64,0,0,0,.36.65l1.58.68a.29.29,0,0,1,.13.18,6.49,6.49,0,0,0,.16.88.26.26,0,0,1-.06.21l-1.26,1.19a.64.64,0,0,0-.11.74l.59,1a.63.63,0,0,0,.69.27l1.65-.49a.24.24,0,0,1,.23.06,7.1,7.1,0,0,0,.67.56.26.26,0,0,1,.1.2l-.2,1.73a.63.63,0,0,0,.39.63l1.11.4a.63.63,0,0,0,.7-.23l1-1.44a.23.23,0,0,1,.21-.1h.88a.26.26,0,0,1,.2.1l1,1.45a.65.65,0,0,0,.71.23l1.11-.4a.64.64,0,0,0,.39-.63l-.13-1.09H145.7a2.85,2.85,0,0,0,2.84-2.83v-6.21a2.85,2.85,0,0,0-2.81-2.89Z" transform="translate(-3.7 -1.87)"/><path class="cls-16" d="M298.82,85.81H275l-.05-.06L274,85a.63.63,0,0,0-.74,0l-1.13.84h-.2a2.74,2.74,0,0,0-.64.08l-.47-.17a.23.23,0,0,1-.15-.15l-.41-1.69a.63.63,0,0,0-.58-.46H268.5a.63.63,0,0,0-.58.46l-.4,1.67a.23.23,0,0,1-.16.17,5.21,5.21,0,0,0-.83.31.28.28,0,0,1-.22,0l-1.39-1a.63.63,0,0,0-.74,0l-.9.76a.64.64,0,0,0-.15.73l.76,1.53a.24.24,0,0,1,0,.23,7.3,7.3,0,0,0-.44.77.23.23,0,0,1-.18.13l-1.73.1a.64.64,0,0,0-.55.49L260.78,91a.63.63,0,0,0,.35.65l1.58.68a.28.28,0,0,1,.14.18,6.47,6.47,0,0,0,.15.88.23.23,0,0,1-.05.21l-1.26,1.19a.64.64,0,0,0-.11.74l.59,1a.63.63,0,0,0,.69.27l1.65-.49a.24.24,0,0,1,.23.06,6,6,0,0,0,.67.56.25.25,0,0,1,.09.2l-.2,1.72a.66.66,0,0,0,.39.64l1.11.4a.65.65,0,0,0,.71-.23l.94-1.44a.26.26,0,0,1,.21-.11h.88a.26.26,0,0,1,.2.1l1,1.44a.62.62,0,0,0,.7.24l1.11-.41a.62.62,0,0,0,.39-.63l-.12-1.08h26.06a2.85,2.85,0,0,0,2.83-2.84V88.7a2.84,2.84,0,0,0-2.79-2.89Z" transform="translate(-3.7 -1.87)"/><path class="cls-16" d="M199.07,56.91l-.9-.76a.63.63,0,0,0-.74,0l-1.14.85h-.2a2.74,2.74,0,0,0-.64.08,2.64,2.64,0,0,0-.47-.17.29.29,0,0,1-.15-.16l-.4-1.69a.63.63,0,0,0-.58-.46h-1.18a.64.64,0,0,0-.59.46l-.39,1.68a.29.29,0,0,1-.17.17,6.34,6.34,0,0,0-.83.3.2.2,0,0,1-.21,0l-1.4-1a.63.63,0,0,0-.74,0l-.9.76a.6.6,0,0,0-.15.72l.77,1.54a.28.28,0,0,1,0,.22,6,6,0,0,0-.44.78.23.23,0,0,1-.18.12l-1.74.11a.62.62,0,0,0-.55.49l-.2,1.16a.61.61,0,0,0,.35.65l1.58.69a.24.24,0,0,1,.13.18,6.64,6.64,0,0,0,.16.87.29.29,0,0,1-.06.22l-1.26,1.19a.62.62,0,0,0-.11.73l.59,1a.65.65,0,0,0,.69.28l1.65-.49a.31.31,0,0,1,.23,0c.22.2.44.39.68.57a.25.25,0,0,1,.09.2l-.2,1.72a.63.63,0,0,0,.39.63L191,71a.62.62,0,0,0,.7-.23l1-1.44a.28.28,0,0,1,.21-.1h.88a.25.25,0,0,1,.2.09l.95,1.45a.63.63,0,0,0,.71.23l1.11-.4a.63.63,0,0,0,.39-.63L197,68.88h26A2.84,2.84,0,0,0,225.83,66V59.8A2.84,2.84,0,0,0,223,57H199.12A.16.16,0,0,0,199.07,56.91Z" transform="translate(-3.7 -1.87)"/><path class="cls-16" d="M168,4.5H144.08L144,4.43l-.91-.76a.66.66,0,0,0-.74,0l-1.13.85H141a3.39,3.39,0,0,0-.64.07l-.47-.17a.23.23,0,0,1-.15-.15l-.41-1.69a.63.63,0,0,0-.58-.46h-1.18a.63.63,0,0,0-.58.46l-.4,1.67a.26.26,0,0,1-.16.18,6.34,6.34,0,0,0-.83.3.41.41,0,0,1-.22,0l-1.39-1a.66.66,0,0,0-.74,0l-.9.76a.65.65,0,0,0-.16.73L133,6.7a.22.22,0,0,1,0,.22,7.44,7.44,0,0,0-.44.78.23.23,0,0,1-.18.12l-1.73.1a.64.64,0,0,0-.55.5l-.21,1.16a.62.62,0,0,0,.35.65l1.58.68a.28.28,0,0,1,.14.18,6.47,6.47,0,0,0,.15.88.23.23,0,0,1-.05.21l-1.26,1.2a.62.62,0,0,0-.11.73l.59,1a.6.6,0,0,0,.69.27l1.65-.49a.24.24,0,0,1,.23.06,6,6,0,0,0,.67.56.25.25,0,0,1,.09.2l-.2,1.73a.63.63,0,0,0,.39.63l1.11.4a.63.63,0,0,0,.71-.23l.94-1.44a.25.25,0,0,1,.21-.1h.88a.26.26,0,0,1,.2.1l1,1.45a.63.63,0,0,0,.7.23l1.11-.4a.63.63,0,0,0,.39-.63l-.12-1.09H168a2.83,2.83,0,0,0,2.83-2.83h0V7.33A2.83,2.83,0,0,0,168,4.5Z" transform="translate(-3.7 -1.87)"/><path class="cls-16" d="M168,23.67H144.08L144,23.6l-.91-.75a.63.63,0,0,0-.74,0l-1.13.85H141a2.74,2.74,0,0,0-.64.08c-.16-.06-.31-.13-.47-.18a.23.23,0,0,1-.15-.15l-.41-1.69a.63.63,0,0,0-.58-.46h-1.18a.63.63,0,0,0-.58.46l-.4,1.68a.25.25,0,0,1-.16.17,6.34,6.34,0,0,0-.83.3.28.28,0,0,1-.22,0l-1.39-1a.63.63,0,0,0-.74,0l-.9.75a.65.65,0,0,0-.16.73l.77,1.54a.22.22,0,0,1,0,.22,7.44,7.44,0,0,0-.44.78.23.23,0,0,1-.18.12l-1.73.11a.61.61,0,0,0-.55.49l-.21,1.16a.62.62,0,0,0,.35.65l1.58.69a.26.26,0,0,1,.14.17,6.47,6.47,0,0,0,.15.88.23.23,0,0,1-.05.21l-1.26,1.2a.62.62,0,0,0-.11.73l.59,1a.63.63,0,0,0,.69.28l1.65-.5a.32.32,0,0,1,.23.06,6,6,0,0,0,.67.56.25.25,0,0,1,.09.2l-.2,1.73a.63.63,0,0,0,.39.63l1.11.4a.63.63,0,0,0,.71-.23l.94-1.44a.28.28,0,0,1,.21-.1h.88a.26.26,0,0,1,.2.1l1,1.45a.63.63,0,0,0,.7.23l1.11-.4a.63.63,0,0,0,.39-.63l-.12-1.09H168a2.83,2.83,0,0,0,2.83-2.83h0V26.5A2.83,2.83,0,0,0,168,23.67Z" transform="translate(-3.7 -1.87)"/><path class="cls-16" d="M5.38,29.4,7,30.09a.26.26,0,0,1,.14.17,6.49,6.49,0,0,0,.16.88.26.26,0,0,1-.06.21L6,32.55a.62.62,0,0,0-.11.73l.59,1a.63.63,0,0,0,.69.28l1.65-.5a.32.32,0,0,1,.23.06,7.1,7.1,0,0,0,.67.56.25.25,0,0,1,.09.2L9.6,36.61a.63.63,0,0,0,.39.63l1.1.4a.63.63,0,0,0,.71-.23L12.7,36a.32.32,0,0,1,.22-.1h.87a.26.26,0,0,1,.2.1l1,1.45a.63.63,0,0,0,.7.23l1.11-.4a.63.63,0,0,0,.39-.63L17,35.54H43.09a2.83,2.83,0,0,0,2.83-2.83V26.5a2.83,2.83,0,0,0-2.83-2.83H19.22V23.6l-.9-.75a.63.63,0,0,0-.74,0l-1.14.85h-.2a2.74,2.74,0,0,0-.64.08c-.16-.06-.31-.13-.47-.18a.23.23,0,0,1-.15-.15l-.41-1.69A.63.63,0,0,0,14,21.3H12.76a.63.63,0,0,0-.58.46l-.4,1.68a.25.25,0,0,1-.16.17,6.34,6.34,0,0,0-.83.3.2.2,0,0,1-.21,0l-1.4-1a.63.63,0,0,0-.74,0l-.9.75a.64.64,0,0,0-.15.73l.77,1.54a.28.28,0,0,1,0,.22,6.06,6.06,0,0,0-.45.78.23.23,0,0,1-.18.12l-1.73.11a.61.61,0,0,0-.55.49L5,28.75A.64.64,0,0,0,5.38,29.4Z" transform="translate(-3.7 -1.87)"/><path class="cls-16" d="M70.44,29.4l1.58.69a.25.25,0,0,1,.13.17,6.49,6.49,0,0,0,.16.88.26.26,0,0,1-.06.21L71,32.55a.62.62,0,0,0-.11.73l.59,1a.63.63,0,0,0,.69.28l1.65-.5a.32.32,0,0,1,.23.06,7.1,7.1,0,0,0,.67.56.26.26,0,0,1,.1.2l-.2,1.73a.63.63,0,0,0,.39.63l1.1.4a.63.63,0,0,0,.71-.23L77.75,36a.32.32,0,0,1,.22-.1h.88a.26.26,0,0,1,.2.1l1,1.45a.65.65,0,0,0,.71.23l1.11-.4a.63.63,0,0,0,.38-.63l-.12-1.09h26.06A2.84,2.84,0,0,0,111,32.71V26.5a2.85,2.85,0,0,0-2.84-2.83H84.27V23.6l-.9-.75a.63.63,0,0,0-.74,0l-1.14.85h-.2a2.74,2.74,0,0,0-.64.08c-.15-.06-.31-.13-.47-.18a.23.23,0,0,1-.15-.15l-.4-1.69A.64.64,0,0,0,79,21.3H77.81a.63.63,0,0,0-.58.46l-.4,1.68a.25.25,0,0,1-.16.17,6.34,6.34,0,0,0-.83.3.2.2,0,0,1-.21,0l-1.4-1a.63.63,0,0,0-.74,0l-.9.75a.64.64,0,0,0-.15.73l.77,1.54a.28.28,0,0,1,0,.22,6.06,6.06,0,0,0-.45.78.23.23,0,0,1-.18.12l-1.73.11a.61.61,0,0,0-.55.49l-.21,1.16A.63.63,0,0,0,70.44,29.4Z" transform="translate(-3.7 -1.87)"/><path class="cls-16" d="M45.05,42.84a2.74,2.74,0,0,0-.64.08,3.75,3.75,0,0,0-.47-.17.26.26,0,0,1-.15-.16l-.4-1.69a.63.63,0,0,0-.58-.46H41.62a.64.64,0,0,0-.58.46l-.39,1.68a.29.29,0,0,1-.17.17,6.34,6.34,0,0,0-.83.3.2.2,0,0,1-.21,0L38,42a.63.63,0,0,0-.74,0l-.9.76a.6.6,0,0,0-.15.72L37,45a.28.28,0,0,1,0,.22,6,6,0,0,0-.44.78.25.25,0,0,1-.19.12l-1.73.11a.61.61,0,0,0-.55.49l-.21,1.16a.64.64,0,0,0,.36.65l1.58.69a.24.24,0,0,1,.13.18,6.64,6.64,0,0,0,.16.87.29.29,0,0,1-.06.22L34.8,51.72a.62.62,0,0,0-.11.73l.59,1a.63.63,0,0,0,.69.28l1.65-.49a.27.27,0,0,1,.23,0c.21.2.44.39.67.57a.2.2,0,0,1,.1.2l-.2,1.72a.63.63,0,0,0,.39.63l1.1.4a.63.63,0,0,0,.71-.23l1-1.44a.28.28,0,0,1,.21-.1h.88a.25.25,0,0,1,.2.09l1,1.45a.63.63,0,0,0,.71.23l1.11-.4A.64.64,0,0,0,46,55.8l-.12-1.09H72a2.85,2.85,0,0,0,2.84-2.83V45.67A2.85,2.85,0,0,0,72,42.84H48.08v-.06l-.9-.76a.63.63,0,0,0-.74,0l-1.14.85Z" transform="translate(-3.7 -1.87)"/><path class="cls-16" d="M74.79,117.36v-6.2A2.85,2.85,0,0,0,72,108.32H48.08v-.06l-.9-.76a.63.63,0,0,0-.74,0l-1.14.84h-.2a2.74,2.74,0,0,0-.64.08l-.47-.17a.26.26,0,0,1-.15-.16l-.4-1.68a.63.63,0,0,0-.58-.46H41.62a.63.63,0,0,0-.58.46l-.39,1.67a.29.29,0,0,1-.17.17,6.34,6.34,0,0,0-.83.3.2.2,0,0,1-.21,0l-1.4-1a.63.63,0,0,0-.74,0l-.9.76a.6.6,0,0,0-.15.72l.77,1.54a.31.31,0,0,1,0,.23,4.51,4.51,0,0,0-.44.77.29.29,0,0,1-.19.13l-1.73.1a.62.62,0,0,0-.55.49l-.21,1.16a.65.65,0,0,0,.36.66l1.58.68A.24.24,0,0,1,36,115a6.49,6.49,0,0,0,.16.88.26.26,0,0,1-.06.21L34.8,117.2a.62.62,0,0,0-.11.73l.59,1a.63.63,0,0,0,.69.27l1.65-.49a.27.27,0,0,1,.23.05c.21.2.44.39.67.57a.22.22,0,0,1,.1.2l-.2,1.72a.63.63,0,0,0,.39.63l1.1.41a.65.65,0,0,0,.71-.24l1-1.43a.26.26,0,0,1,.21-.11h.88a.25.25,0,0,1,.2.09l1,1.45a.65.65,0,0,0,.71.24l1.11-.41a.63.63,0,0,0,.38-.63L46,120.17H72A2.84,2.84,0,0,0,74.79,117.36Z" transform="translate(-3.7 -1.87)"/><path class="cls-16" d="M72,140.61a2.85,2.85,0,0,0,2.84-2.83v-6.21A2.85,2.85,0,0,0,72,128.74H48.08v-.06l-.9-.76a.63.63,0,0,0-.74,0l-1.14.84h-.2a2.74,2.74,0,0,0-.64.08,3.75,3.75,0,0,0-.47-.17.26.26,0,0,1-.15-.16l-.4-1.69a.62.62,0,0,0-.58-.45H41.62a.63.63,0,0,0-.58.45l-.39,1.68a.29.29,0,0,1-.17.17,6.34,6.34,0,0,0-.83.3.2.2,0,0,1-.21,0L38,128a.63.63,0,0,0-.74,0l-.9.76a.6.6,0,0,0-.15.72L37,131a.31.31,0,0,1,0,.23,4.51,4.51,0,0,0-.44.77.29.29,0,0,1-.19.13l-1.73.1a.61.61,0,0,0-.55.49l-.21,1.16a.64.64,0,0,0,.36.65l1.58.69a.24.24,0,0,1,.13.18,6.64,6.64,0,0,0,.16.87.29.29,0,0,1-.06.22l-1.26,1.19a.62.62,0,0,0-.11.73l.59,1a.63.63,0,0,0,.69.27l1.65-.49a.27.27,0,0,1,.23,0c.21.2.44.39.67.57a.2.2,0,0,1,.1.2l-.2,1.72a.63.63,0,0,0,.39.63l1.1.4a.63.63,0,0,0,.71-.23l1-1.44a.28.28,0,0,1,.21-.1h.88a.25.25,0,0,1,.2.09l1,1.45a.63.63,0,0,0,.71.23l1.11-.4a.63.63,0,0,0,.38-.63L46,140.63Z" transform="translate(-3.7 -1.87)"/><path class="cls-16" d="M137.68,45.67a2.83,2.83,0,0,0-2.83-2.83H111v-.06L110,42a.63.63,0,0,0-.74,0l-1.13.85H108a2.74,2.74,0,0,0-.64.08,4.59,4.59,0,0,0-.48-.17.29.29,0,0,1-.15-.16l-.4-1.69a.63.63,0,0,0-.58-.46h-1.18a.63.63,0,0,0-.58.46l-.4,1.68a.25.25,0,0,1-.16.17,6.34,6.34,0,0,0-.83.3.28.28,0,0,1-.22,0l-1.39-1a.63.63,0,0,0-.74,0l-.91.76a.63.63,0,0,0-.15.72L99.91,45a.22.22,0,0,1,0,.22,7.44,7.44,0,0,0-.44.78.23.23,0,0,1-.18.12l-1.73.11a.63.63,0,0,0-.56.49l-.2,1.16a.61.61,0,0,0,.35.65l1.58.69a.28.28,0,0,1,.14.18,6.6,6.6,0,0,0,.15.87.25.25,0,0,1,0,.22L97.7,51.72a.62.62,0,0,0-.11.73l.59,1a.63.63,0,0,0,.69.28l1.65-.49a.25.25,0,0,1,.22,0c.22.2.44.39.68.57a.25.25,0,0,1,.09.2l-.2,1.72a.63.63,0,0,0,.39.63l1.11.4a.63.63,0,0,0,.71-.23l.94-1.44a.28.28,0,0,1,.21-.1h.88a.22.22,0,0,1,.2.09l1,1.45a.62.62,0,0,0,.7.23l1.11-.4a.63.63,0,0,0,.39-.63l-.13-1.09h26.07a2.83,2.83,0,0,0,2.83-2.83h0Z" transform="translate(-3.7 -1.87)"/><path class="cls-16" d="M120.18,95.79V89.58a2.83,2.83,0,0,0-2.83-2.83H106.18a5.94,5.94,0,0,0-.49,11.87h11.66a2.83,2.83,0,0,0,2.83-2.83Z" transform="translate(-3.7 -1.87)"/><rect class="cls-16" x="172.24" y="141.46" width="11.87" height="11.87" rx="2.83"/><rect class="cls-16" x="286.08" y="2.63" width="11.87" height="11.87" rx="2.83"/><path class="cls-16" d="M137.68,71.05V64.84A2.85,2.85,0,0,0,134.85,62H111v-.06l-.91-.76a.63.63,0,0,0-.74,0l-1.13.84H108a2.74,2.74,0,0,0-.64.08,4.59,4.59,0,0,0-.48-.17.29.29,0,0,1-.15-.16l-.4-1.68a.63.63,0,0,0-.58-.46h-1.18a.63.63,0,0,0-.58.46l-.4,1.67a.25.25,0,0,1-.16.17,6.34,6.34,0,0,0-.83.3.28.28,0,0,1-.22,0l-1.39-1a.63.63,0,0,0-.74,0l-.91.76a.63.63,0,0,0-.15.72l.77,1.54a.24.24,0,0,1,0,.23,7.3,7.3,0,0,0-.44.77.27.27,0,0,1-.18.13l-1.73.1a.64.64,0,0,0-.56.49l-.2,1.16a.63.63,0,0,0,.35.66l1.58.68a.28.28,0,0,1,.14.18,6.6,6.6,0,0,0,.15.87.25.25,0,0,1,0,.22L97.7,70.89a.62.62,0,0,0-.11.73l.59,1a.63.63,0,0,0,.69.27l1.65-.49a.28.28,0,0,1,.22,0,7.59,7.59,0,0,0,.68.57.25.25,0,0,1,.09.2l-.2,1.72a.63.63,0,0,0,.39.63l1.11.41a.65.65,0,0,0,.71-.24l.94-1.43a.26.26,0,0,1,.21-.11h.88a.22.22,0,0,1,.2.09l1,1.45a.64.64,0,0,0,.7.24l1.11-.41a.63.63,0,0,0,.39-.63l-.13-1.08h26.07A2.84,2.84,0,0,0,137.68,71.05Z" transform="translate(-3.7 -1.87)"/><path class="cls-16" d="M11,172.28H22.12a2.84,2.84,0,0,0,2.88-2.8v-6.24a2.85,2.85,0,0,0-2.84-2.83H11a5.94,5.94,0,0,0-.49,11.87Z" transform="translate(-3.7 -1.87)"/><path class="cls-16" d="M43.09,182.67H19.22v-.06l-.91-.76a.63.63,0,0,0-.74,0l-1.13.84h-.2a3.4,3.4,0,0,0-.64.08l-.47-.17a.23.23,0,0,1-.15-.15l-.41-1.69a.63.63,0,0,0-.58-.46H12.76a.63.63,0,0,0-.58.46l-.4,1.67a.23.23,0,0,1-.16.17,8.29,8.29,0,0,0-.83.31.26.26,0,0,1-.21,0l-1.4-1a.66.66,0,0,0-.74,0l-.9.76a.64.64,0,0,0-.15.73l.77,1.54a.28.28,0,0,1,0,.22,8.46,8.46,0,0,0-.44.77.23.23,0,0,1-.18.13l-1.73.1a.64.64,0,0,0-.55.49L5,187.76a.65.65,0,0,0,.35.65l1.58.68a.28.28,0,0,1,.14.18,6.47,6.47,0,0,0,.15.88.26.26,0,0,1,0,.21L6,191.55a.64.64,0,0,0-.11.74l.59,1a.63.63,0,0,0,.69.27l1.65-.49a.24.24,0,0,1,.23.06,6,6,0,0,0,.67.56.25.25,0,0,1,.09.2l-.19,1.73a.63.63,0,0,0,.38.63l1.11.4a.65.65,0,0,0,.71-.23L12.7,195a.23.23,0,0,1,.21-.1h.88a.26.26,0,0,1,.2.1l1,1.45a.63.63,0,0,0,.7.23l1.11-.4a.63.63,0,0,0,.39-.63l-.19-1.1H43.09a2.83,2.83,0,0,0,2.83-2.83v-6.21A2.85,2.85,0,0,0,43.09,182.67Z" transform="translate(-3.7 -1.87)"/><polyline class="cls-18" points="230.08 71.41 230.08 87.68 211.16 87.68"/><text class="cls-19" transform="translate(238.47 131.25)">3</text><text class="cls-19" transform="translate(183.11 11.59)">8</text><text class="cls-20" transform="translate(200.84 11.59)">330</text><text class="cls-19" transform="translate(226.86 13.99)">3</text><text class="cls-20" transform="translate(244.59 13.99)">105</text><text class="cls-19" transform="translate(262.98 112.08)">8</text><text class="cls-20" transform="translate(280.71 112.08)">345</text><text class="cls-19" transform="translate(201.23 112.08)">8</text><text class="cls-20" transform="translate(218.96 112.08)">330</text><text class="cls-19" transform="translate(175.75 131.25)">8</text><text class="cls-20" transform="translate(193.48 131.25)">325</text><text class="cls-19" transform="translate(175.75 169.6)">8</text><text class="cls-20" transform="translate(193.48 169.6)">307</text><text class="cls-19" transform="translate(175.75 189.77)">8</text><text class="cls-20" transform="translate(193.48 189.77)">300</text><text class="cls-19" transform="translate(60.25 189.77)">3</text><text class="cls-20" transform="translate(77.98 189.77)">120</text><text class="cls-19" transform="translate(109.76 189.77)">6</text><text class="cls-20" transform="translate(127.48 189.77)">260</text><text class="cls-19" transform="translate(262.98 92.91)">3</text><text class="cls-20" transform="translate(280.71 92.91)">130</text><text class="cls-19" transform="translate(187.16 64.07)">3</text><text class="cls-20" transform="translate(207.24 64.07)">95</text><text class="cls-19" transform="translate(132.11 11.59)">3</text><text class="cls-20" transform="translate(149.84 11.59)">100</text><text class="cls-19" transform="translate(132.11 30.77)">6</text><text class="cls-20" transform="translate(149.84 30.77)">250</text><text class="cls-19" transform="translate(7.25 30.77)">8</text><text class="cls-20" transform="translate(24.98 30.77)">290</text><text class="cls-19" transform="translate(72.3 30.77)">3</text><g class="cls-21"><text class="cls-22" transform="translate(90.26 30.77)">1</text><text class="cls-20" transform="translate(94.52 30.77)">15</text></g><text class="cls-19" transform="translate(36.12 49.93)">3</text><text class="cls-20" transform="translate(56.2 49.93)">95</text><text class="cls-19" transform="translate(36.12 115.42)">2</text><text class="cls-20" transform="translate(53.84 115.42)">130</text><text class="cls-19" transform="translate(36.12 135.84)">3</text><text class="cls-20" transform="translate(53.84 135.84)">100</text><text class="cls-19" transform="translate(99.01 49.94)">3</text><text class="cls-20" transform="translate(116.73 49.94)">105</text><text class="cls-19" transform="translate(109.21 93.85)">1</text><text class="cls-19" transform="translate(99.01 69.11)">3</text><text class="cls-20" transform="translate(116.73 69.11)">100</text><text class="cls-19" transform="translate(13.99 167.51)">2</text><text class="cls-19" transform="translate(7.25 189.77)">5</text><text class="cls-20" transform="translate(24.98 189.77)">265</text><text class="cls-23" transform="translate(195.48 96.68)">Z. de Boxes</text><text class="cls-24" transform="translate(290.18 71.63)">1</text><text class="cls-24" transform="translate(266.21 35.05)">2</text><text class="cls-24" transform="translate(160.32 43.88)">3</text><text class="cls-24" transform="translate(162.32 69.13)">4</text><text class="cls-24" transform="translate(128.62 81.63)">5</text><text class="cls-24" transform="translate(123.07 91.38)">6</text><text class="cls-24" transform="translate(94.62 105.88)">7</text><text class="cls-24" transform="translate(94.43 82.88)">8</text><text class="cls-24" transform="translate(78.57 102.63)">9</text><text class="cls-24" transform="translate(79.86 82.88)">10</text><g class="cls-21"><text class="cls-25" transform="translate(66.35 98.38)">1</text><text class="cls-24" transform="translate(69.51 98.38)">1</text></g><text class="cls-24" transform="translate(77.61 71.88)">12</text><text class="cls-24" transform="translate(14.86 89.38)">13</text><text class="cls-24" transform="translate(2.61 116.63)">14</text><text class="cls-24" transform="translate(1.62 156.24)">15</text><text class="cls-24" transform="translate(42.11 160.38)">16</text><text class="cls-24" transform="translate(51.61 148.13)">17</text><text class="cls-24" transform="translate(90.11 146.63)">18</text><text class="cls-24" transform="translate(99.61 129.88)">19</text><text class="cls-24" transform="translate(126.78 114.88)">20</text></g></svg>