<?xml version="1.0" encoding="UTF-8"?>
<svg width="464px" height="300px" viewBox="0 0 464 300" version="1.1" xmlns="http://www.w3.org/2000/svg" xmlns:xlink="http://www.w3.org/1999/xlink">
    <!-- Generator: Sketch 63.1 (92452) - https://sketch.com -->
    <title>portimao</title>
    <desc>Created with Sketch.</desc>
    <g id="portimao" stroke="none" stroke-width="1" fill="none" fill-rule="evenodd">
        <path d="M331.4081,208.68358 L69.628203,205.932457 C69.628203,205.932457 62.6897446,205.660895 60.5283353,204.662708 C58.3669249,203.664521 57.427508,202.664753 56.7190906,201.276712 C56.0106731,199.888672 42.8331117,162.15496 42.328603,160.221497 C41.8240943,158.288034 41.9622492,156.198326 42.328603,154.296004 C42.6949568,152.393681 44.4448514,149.005383 44.4448514,149.005383 L62.8562076,117.473286 C62.8562076,117.473286 65.4758931,114.313363 66.8770797,113.875665 C68.2782664,113.437966 69.240365,112.974669 70.4127226,113.251421 C71.5850763,113.528176 73.0309034,114.599039 73.8607006,115.568661 C74.6904977,116.538282 75.3420749,118.743035 75.3420749,118.743035 L82.1140664,144.56126 C82.1140664,144.56126 84.2797862,148.462535 85.7116915,150.063506 C87.1435967,151.664477 89.0840379,153.207077 90.5790616,154.084378 C92.0740852,154.961679 92.3512856,155.024099 94.3883082,155.565752 C96.4253309,156.107406 102.8533,156.835501 102.8533,156.835501 L128.036652,157.893625 L161.050123,159.374999 L188.561351,160.644744 L220.305074,160.644744 L246.969797,159.79825 L264.111408,160.009872 C264.111408,160.009872 267.075811,159.55629 268.132281,158.528497 C269.18875,157.500705 269.770718,155.757507 269.825277,154.296004 C269.879835,152.834501 269.347233,151.379511 268.555528,150.275131 C267.763823,149.170752 265.381157,147.947259 265.381157,147.947259 L206.972708,125.303405 C206.972708,125.303405 202.564728,124.363496 199.777466,124.281588 C196.990204,124.199681 194.401879,124.536895 190.254347,124.880154 C186.106816,125.223413 175.017365,127.419651 175.017365,127.419651 L139.464392,132.710272 C139.464392,132.710272 136.004323,132.660784 133.538898,131.863771 C131.073474,131.066757 128.975332,130.47621 125.073907,127.419651 C121.172482,124.363093 107.932295,100.331674 107.932295,100.331674 C107.932295,100.331674 106.750384,97.4724963 107.509044,93.5596824 C108.267705,89.6468684 109.134884,89.4006707 111.106665,87.4845418 C113.078447,85.5684129 118.725163,85.5179381 118.725163,85.5179381 C118.725163,85.5179381 142.088361,88.8218117 156.182753,91.6550571 C170.277145,94.4883026 203.163462,102.871172 203.163462,102.871172 C203.163462,102.871172 209.072001,103.894224 212.051704,103.929295 C215.031407,103.964378 218.144923,103.884398 220.939946,103.082797 C223.734969,102.281197 225.71708,101.136479 228.55844,99.2735505 C231.399799,97.4106216 237.658307,91.6550571 237.658307,91.6550571 C237.658307,91.6550571 268.699859,57.6944506 270.671778,56.3137137 C272.643698,54.9329768 273.365199,53.4707529 277.815671,51.9935597 C282.266143,50.5163665 284.192251,50.5278874 287.390139,50.1765939 C290.588027,49.8253004 295.145866,50.0518683 297.759752,50.388219 C300.373638,50.7245697 301.420868,50.6108652 303.050373,51.6579679 C304.679878,52.7050706 306.098994,54.6503892 306.85962,56.5253384 C307.620245,58.4002876 307.494496,62.4508335 307.494496,62.4508335 L307.282871,109.219916 C307.282871,109.219916 307.237988,113.22682 308.129369,115.991911 C309.020749,118.757003 309.622012,122.278536 312.996739,126.361528 C316.371465,130.444521 318.283506,131.147137 320.615232,132.710272 C322.946958,134.273408 361.14979,151.075742 363.151822,151.54488 C365.153854,152.014019 367.550122,152.174421 369.288941,151.54488 C371.027759,150.915339 372.637251,150.031897 373.696753,148.669789 C374.756254,147.307681 375.09708,145.402399 375.42606,143.503136 C375.75504,141.603873 375.526069,138.846144 374.791187,137.366017 C374.056306,135.88589 347.491584,97.5805507 347.491584,97.5805507 C347.491584,97.5805507 345.687801,92.1386513 346.221835,89.3271848 C346.75587,86.5157183 348.06231,83.5414583 350.067393,81.7086915 C352.072477,79.8759246 354.970537,78.4874775 357.737232,77.6364695 C360.693421,76.7271755 363.873284,76.452328 366.961068,76.6296959 C370.138813,76.8122303 373.509658,77.3080151 376.272558,78.7459428 C379.035457,80.1838705 381.305596,82.937101 383.044553,84.8830618 C384.78351,86.8290226 386.8538,90.1736828 386.8538,90.1736828 L415.21153,132.710272 C415.21153,132.710272 418.78449,140.194952 419.867259,143.926387 C420.950029,147.657822 421.591884,150.914825 421.771904,154.930876 C421.951924,158.946927 421.451476,163.874284 420.713777,167.83999 C419.976078,171.805697 419.203987,174.878189 417.539395,178.632858 C415.874803,182.387527 413.152352,186.596196 410.555762,190.060598 C407.959172,193.525 406.531486,196.03984 402.090786,199.372087 C397.650083,202.704334 391.588108,206.631557 383.467804,208.471955 C375.3475,210.312352 377.336013,209.319136 368.654064,209.530078 C359.972116,209.741021 331.4081,208.68358 331.4081,208.68358 Z" id="track" fill="#D7D8D6"></path>
        <path d="M331.4081,208.68358 L69.628203,205.932457 C69.628203,205.932457 62.6897446,205.660895 60.5283353,204.662708 C58.3669249,203.664521 57.427508,202.664753 56.7190906,201.276712 C56.0106731,199.888672 42.8331117,162.15496 42.328603,160.221497 C41.8240943,158.288034 41.9622492,156.198326 42.328603,154.296004 C42.6949568,152.393681 44.4448514,149.005383 44.4448514,149.005383 L62.8562076,117.473286 C62.8562076,117.473286 65.4758931,114.313363 66.8770797,113.875665 C68.2782664,113.437966 69.240365,112.974669 70.4127226,113.251421 C71.5850763,113.528176 73.0309034,114.599039 73.8607006,115.568661 C74.6904977,116.538282 75.3420749,118.743035 75.3420749,118.743035 L82.1140664,144.56126 C82.1140664,144.56126 84.2797862,148.462535 85.7116915,150.063506 C87.1435967,151.664477 89.0840379,153.207077 90.5790616,154.084378 C92.0740852,154.961679 92.3512856,155.024099 94.3883082,155.565752 C96.4253309,156.107406 102.8533,156.835501 102.8533,156.835501 L128.036652,157.893625 L161.050123,159.374999 L188.561351,160.644744 L220.305074,160.644744 L246.969797,159.79825 L264.111408,160.009872 C264.111408,160.009872 267.075811,159.55629 268.132281,158.528497 C269.18875,157.500705 269.770718,155.757507 269.825277,154.296004 C269.879835,152.834501 269.347233,151.379511 268.555528,150.275131 C267.763823,149.170752 265.381157,147.947259 265.381157,147.947259 L206.972708,125.303405 C206.972708,125.303405 202.564728,124.363496 199.777466,124.281588 C196.990204,124.199681 194.401879,124.536895 190.254347,124.880154 C186.106816,125.223413 175.017365,127.419651 175.017365,127.419651 L139.464392,132.710272 C139.464392,132.710272 136.004323,132.660784 133.538898,131.863771 C131.073474,131.066757 128.975332,130.47621 125.073907,127.419651 C121.172482,124.363093 107.932295,100.331674 107.932295,100.331674 C107.932295,100.331674 106.750384,97.4724963 107.509044,93.5596824 C108.267705,89.6468684 109.134884,89.4006707 111.106665,87.4845418 C113.078447,85.5684129 118.725163,85.5179381 118.725163,85.5179381 C118.725163,85.5179381 142.088361,88.8218117 156.182753,91.6550571 C170.277145,94.4883026 203.163462,102.871172 203.163462,102.871172 C203.163462,102.871172 209.072001,103.894224 212.051704,103.929295 C215.031407,103.964378 218.144923,103.884398 220.939946,103.082797 C223.734969,102.281197 225.71708,101.136479 228.55844,99.2735505 C231.399799,97.4106216 237.658307,91.6550571 237.658307,91.6550571 C237.658307,91.6550571 268.699859,57.6944506 270.671778,56.3137137 C272.643698,54.9329768 273.365199,53.4707529 277.815671,51.9935597 C282.266143,50.5163665 284.192251,50.5278874 287.390139,50.1765939 C290.588027,49.8253004 295.145866,50.0518683 297.759752,50.388219 C300.373638,50.7245697 301.420868,50.6108652 303.050373,51.6579679 C304.679878,52.7050706 306.098994,54.6503892 306.85962,56.5253384 C307.620245,58.4002876 307.494496,62.4508335 307.494496,62.4508335 L307.282871,109.219916 C307.282871,109.219916 307.237988,113.22682 308.129369,115.991911 C309.020749,118.757003 309.622012,122.278536 312.996739,126.361528 C316.371465,130.444521 318.283506,131.147137 320.615232,132.710272 C322.946958,134.273408 361.14979,151.075742 363.151822,151.54488 C365.153854,152.014019 367.550122,152.174421 369.288941,151.54488 C371.027759,150.915339 372.637251,150.031897 373.696753,148.669789 C374.756254,147.307681 375.09708,145.402399 375.42606,143.503136 C375.75504,141.603873 375.526069,138.846144 374.791187,137.366017 C374.056306,135.88589 347.491584,97.5805507 347.491584,97.5805507 C347.491584,97.5805507 345.687801,92.1386513 346.221835,89.3271848 C346.75587,86.5157183 348.06231,83.5414583 350.067393,81.7086915 C352.072477,79.8759246 354.970537,78.4874775 357.737232,77.6364695 C360.693421,76.7271755 363.873284,76.452328 366.961068,76.6296959 C370.138813,76.8122303 373.509658,77.3080151 376.272558,78.7459428 C379.035457,80.1838705 381.305596,82.937101 383.044553,84.8830618 C384.78351,86.8290226 386.8538,90.1736828 386.8538,90.1736828 L415.21153,132.710272 C415.21153,132.710272 418.78449,140.194952 419.867259,143.926387 C420.950029,147.657822 421.591884,150.914825 421.771904,154.930876 C421.951924,158.946927 421.451476,163.874284 420.713777,167.83999 C419.976078,171.805697 419.203987,174.878189 417.539395,178.632858 C415.874803,182.387527 413.152352,186.596196 410.555762,190.060598 C407.959172,193.525 406.531486,196.03984 402.090786,199.372087 C397.650083,202.704334 391.588108,206.631557 383.467804,208.471955 C375.3475,210.312352 377.336013,209.319136 368.654064,209.530078 C359.972116,209.741021 331.4081,208.68358 331.4081,208.68358 Z" id="track" stroke="#FFFFFF" stroke-width="14"></path>
        <polyline id="track" stroke="#0C0D15" stroke-width="4" points="344.740461 206.691561 313.41999 196.89828 126.766903 195.205284 85.9959315 205.261273"></polyline>
        <path d="M331.4081,208.68358 L69.628203,205.932457 C69.628203,205.932457 62.6897446,205.660895 60.5283353,204.662708 C58.3669249,203.664521 57.427508,202.664753 56.7190906,201.276712 C56.0106731,199.888672 42.8331117,162.15496 42.328603,160.221497 C41.8240943,158.288034 41.9622492,156.198326 42.328603,154.296004 C42.6949568,152.393681 44.4448514,149.005383 44.4448514,149.005383 L62.8562076,117.473286 C62.8562076,117.473286 65.4758931,114.313363 66.8770797,113.875665 C68.2782664,113.437966 69.240365,112.974669 70.4127226,113.251421 C71.5850763,113.528176 73.0309034,114.599039 73.8607006,115.568661 C74.6904977,116.538282 75.3420749,118.743035 75.3420749,118.743035 L82.1140664,144.56126 C82.1140664,144.56126 84.2797862,148.462535 85.7116915,150.063506 C87.1435967,151.664477 89.0840379,153.207077 90.5790616,154.084378 C92.0740852,154.961679 92.3512856,155.024099 94.3883082,155.565752 C96.4253309,156.107406 102.8533,156.835501 102.8533,156.835501 L128.036652,157.893625 L161.050123,159.374999 L188.561351,160.644744 L220.305074,160.644744 L246.969797,159.79825 L264.111408,160.009872 C264.111408,160.009872 267.075811,159.55629 268.132281,158.528497 C269.18875,157.500705 269.770718,155.757507 269.825277,154.296004 C269.879835,152.834501 269.347233,151.379511 268.555528,150.275131 C267.763823,149.170752 265.381157,147.947259 265.381157,147.947259 L206.972708,125.303405 C206.972708,125.303405 202.564728,124.363496 199.777466,124.281588 C196.990204,124.199681 194.401879,124.536895 190.254347,124.880154 C186.106816,125.223413 175.017365,127.419651 175.017365,127.419651 L139.464392,132.710272 C139.464392,132.710272 136.004323,132.660784 133.538898,131.863771 C131.073474,131.066757 128.975332,130.47621 125.073907,127.419651 C121.172482,124.363093 107.932295,100.331674 107.932295,100.331674 C107.932295,100.331674 106.750384,97.4724963 107.509044,93.5596824 C108.267705,89.6468684 109.134884,89.4006707 111.106665,87.4845418 C113.078447,85.5684129 118.725163,85.5179381 118.725163,85.5179381 C118.725163,85.5179381 142.088361,88.8218117 156.182753,91.6550571 C170.277145,94.4883026 203.163462,102.871172 203.163462,102.871172 C203.163462,102.871172 209.072001,103.894224 212.051704,103.929295 C215.031407,103.964378 218.144923,103.884398 220.939946,103.082797 C223.734969,102.281197 225.71708,101.136479 228.55844,99.2735505 C231.399799,97.4106216 237.658307,91.6550571 237.658307,91.6550571 C237.658307,91.6550571 268.699859,57.6944506 270.671778,56.3137137 C272.643698,54.9329768 273.365199,53.4707529 277.815671,51.9935597 C282.266143,50.5163665 284.192251,50.5278874 287.390139,50.1765939 C290.588027,49.8253004 295.145866,50.0518683 297.759752,50.388219 C300.373638,50.7245697 301.420868,50.6108652 303.050373,51.6579679 C304.679878,52.7050706 306.098994,54.6503892 306.85962,56.5253384 C307.620245,58.4002876 307.494496,62.4508335 307.494496,62.4508335 L307.282871,109.219916 C307.282871,109.219916 307.237988,113.22682 308.129369,115.991911 C309.020749,118.757003 309.622012,122.278536 312.996739,126.361528 C316.371465,130.444521 318.283506,131.147137 320.615232,132.710272 C322.946958,134.273408 361.14979,151.075742 363.151822,151.54488 C365.153854,152.014019 367.550122,152.174421 369.288941,151.54488 C371.027759,150.915339 372.637251,150.031897 373.696753,148.669789 C374.756254,147.307681 375.09708,145.402399 375.42606,143.503136 C375.75504,141.603873 375.526069,138.846144 374.791187,137.366017 C374.056306,135.88589 347.491584,97.5805507 347.491584,97.5805507 C347.491584,97.5805507 345.687801,92.1386513 346.221835,89.3271848 C346.75587,86.5157183 348.06231,83.5414583 350.067393,81.7086915 C352.072477,79.8759246 354.970537,78.4874775 357.737232,77.6364695 C360.693421,76.7271755 363.873284,76.452328 366.961068,76.6296959 C370.138813,76.8122303 373.509658,77.3080151 376.272558,78.7459428 C379.035457,80.1838705 381.305596,82.937101 383.044553,84.8830618 C384.78351,86.8290226 386.8538,90.1736828 386.8538,90.1736828 L415.21153,132.710272 C415.21153,132.710272 418.78449,140.194952 419.867259,143.926387 C420.950029,147.657822 421.591884,150.914825 421.771904,154.930876 C421.951924,158.946927 421.451476,163.874284 420.713777,167.83999 C419.976078,171.805697 419.203987,174.878189 417.539395,178.632858 C415.874803,182.387527 413.152352,186.596196 410.555762,190.060598 C407.959172,193.525 406.531486,196.03984 402.090786,199.372087 C397.650083,202.704334 391.588108,206.631557 383.467804,208.471955 C375.3475,210.312352 377.336013,209.319136 368.654064,209.530078 C359.972116,209.741021 331.4081,208.68358 331.4081,208.68358 Z" id="track" stroke="#0C0D15" stroke-width="10"></path>
        <path d="M331.4081,208.68358 L69.628203,205.932457 C69.628203,205.932457 62.6897446,205.660895 60.5283353,204.662708 C58.3669249,203.664521 57.427508,202.664753 56.7190906,201.276712 C56.0106731,199.888672 42.8331117,162.15496 42.328603,160.221497 C41.8240943,158.288034 41.9622492,156.198326 42.328603,154.296004 C42.6949568,152.393681 44.4448514,149.005383 44.4448514,149.005383 L62.8562076,117.473286 C62.8562076,117.473286 65.4758931,114.313363 66.8770797,113.875665 C68.2782664,113.437966 69.240365,112.974669 70.4127226,113.251421 C71.5850763,113.528176 73.0309034,114.599039 73.8607006,115.568661 C74.6904977,116.538282 75.3420749,118.743035 75.3420749,118.743035 L82.1140664,144.56126 C82.1140664,144.56126 84.2797862,148.462535 85.7116915,150.063506 C87.1435967,151.664477 89.0840379,153.207077 90.5790616,154.084378 C92.0740852,154.961679 92.3512856,155.024099 94.3883082,155.565752 C96.4253309,156.107406 102.8533,156.835501 102.8533,156.835501 L128.036652,157.893625 L161.050123,159.374999 L188.561351,160.644744 L220.305074,160.644744 L246.969797,159.79825 L264.111408,160.009872 C264.111408,160.009872 267.075811,159.55629 268.132281,158.528497 C269.18875,157.500705 269.770718,155.757507 269.825277,154.296004 C269.879835,152.834501 269.347233,151.379511 268.555528,150.275131 C267.763823,149.170752 265.381157,147.947259 265.381157,147.947259 L206.972708,125.303405 C206.972708,125.303405 202.564728,124.363496 199.777466,124.281588 C196.990204,124.199681 194.401879,124.536895 190.254347,124.880154 C186.106816,125.223413 175.017365,127.419651 175.017365,127.419651 L139.464392,132.710272 C139.464392,132.710272 136.004323,132.660784 133.538898,131.863771 C131.073474,131.066757 128.975332,130.47621 125.073907,127.419651 C121.172482,124.363093 107.932295,100.331674 107.932295,100.331674 C107.932295,100.331674 106.750384,97.4724963 107.509044,93.5596824 C108.267705,89.6468684 109.134884,89.4006707 111.106665,87.4845418 C113.078447,85.5684129 118.725163,85.5179381 118.725163,85.5179381 C118.725163,85.5179381 142.088361,88.8218117 156.182753,91.6550571 C170.277145,94.4883026 203.163462,102.871172 203.163462,102.871172 C203.163462,102.871172 209.072001,103.894224 212.051704,103.929295 C215.031407,103.964378 218.144923,103.884398 220.939946,103.082797 C223.734969,102.281197 225.71708,101.136479 228.55844,99.2735505 C231.399799,97.4106216 237.658307,91.6550571 237.658307,91.6550571 C237.658307,91.6550571 268.699859,57.6944506 270.671778,56.3137137 C272.643698,54.9329768 273.365199,53.4707529 277.815671,51.9935597 C282.266143,50.5163665 284.192251,50.5278874 287.390139,50.1765939 C290.588027,49.8253004 295.145866,50.0518683 297.759752,50.388219 C300.373638,50.7245697 301.420868,50.6108652 303.050373,51.6579679 C304.679878,52.7050706 306.098994,54.6503892 306.85962,56.5253384 C307.620245,58.4002876 307.494496,62.4508335 307.494496,62.4508335 L307.282871,109.219916 C307.282871,109.219916 307.237988,113.22682 308.129369,115.991911 C309.020749,118.757003 309.622012,122.278536 312.996739,126.361528 C316.371465,130.444521 318.283506,131.147137 320.615232,132.710272 C322.946958,134.273408 361.14979,151.075742 363.151822,151.54488 C365.153854,152.014019 367.550122,152.174421 369.288941,151.54488 C371.027759,150.915339 372.637251,150.031897 373.696753,148.669789 C374.756254,147.307681 375.09708,145.402399 375.42606,143.503136 C375.75504,141.603873 375.526069,138.846144 374.791187,137.366017 C374.056306,135.88589 347.491584,97.5805507 347.491584,97.5805507 C347.491584,97.5805507 345.687801,92.1386513 346.221835,89.3271848 C346.75587,86.5157183 348.06231,83.5414583 350.067393,81.7086915 C352.072477,79.8759246 354.970537,78.4874775 357.737232,77.6364695 C360.693421,76.7271755 363.873284,76.452328 366.961068,76.6296959 C370.138813,76.8122303 373.509658,77.3080151 376.272558,78.7459428 C379.035457,80.1838705 381.305596,82.937101 383.044553,84.8830618 C384.78351,86.8290226 386.8538,90.1736828 386.8538,90.1736828 L415.21153,132.710272 C415.21153,132.710272 418.78449,140.194952 419.867259,143.926387 C420.950029,147.657822 421.591884,150.914825 421.771904,154.930876 C421.951924,158.946927 421.451476,163.874284 420.713777,167.83999 C419.976078,171.805697 419.203987,174.878189 417.539395,178.632858 C415.874803,182.387527 413.152352,186.596196 410.555762,190.060598 C407.959172,193.525 406.531486,196.03984 402.090786,199.372087 C397.650083,202.704334 391.588108,206.631557 383.467804,208.471955 C375.3475,210.312352 377.336013,209.319136 368.654064,209.530078 C359.972116,209.741021 331.4081,208.68358 331.4081,208.68358 Z" id="track" stroke="#848993" stroke-width="6"></path>
        <g id="curva" transform="translate(34.000000, 209.000000)">
            <g id="Group-6" transform="translate(1.000000, 2.000000)">
                <rect id="Rectangle" stroke="#FFFFFF" stroke-width="2" fill="#EA1A4D" fill-rule="nonzero" x="0" y="-1" width="22" height="22" rx="4.58"></rect>
                <text id="1" fill="#FFFFFF" font-family="Helvetica-Bold, Helvetica" font-size="13" font-weight="bold">
                    <tspan x="7.306" y="14.78">1</tspan>
                </text>
            </g>
        </g>
        <g id="curva" transform="translate(11.000000, 145.000000)">
            <g id="Group-6" transform="translate(1.000000, 2.000000)">
                <rect id="Rectangle" stroke="#FFFFFF" stroke-width="2" fill="#EA1A4D" fill-rule="nonzero" x="0" y="-1" width="22" height="22" rx="4.58"></rect>
                <text id="1" fill="#FFFFFF" font-family="Helvetica-Bold, Helvetica" font-size="13" font-weight="bold">
                    <tspan x="7.306" y="14.78">2</tspan>
                </text>
            </g>
        </g>
        <g id="curva" transform="translate(59.000000, 83.000000)">
            <g id="Group-6" transform="translate(1.000000, 2.000000)">
                <rect id="Rectangle" stroke="#FFFFFF" stroke-width="2" fill="#EA1A4D" fill-rule="nonzero" x="0" y="-1" width="22" height="22" rx="4.58"></rect>
                <text id="1" fill="#FFFFFF" font-family="Helvetica-Bold, Helvetica" font-size="13" font-weight="bold">
                    <tspan x="7.306" y="14.78">3</tspan>
                </text>
            </g>
        </g>
        <g id="curva" transform="translate(69.000000, 161.000000)">
            <g id="Group-6" transform="translate(1.000000, 2.000000)">
                <rect id="Rectangle" stroke="#FFFFFF" stroke-width="2" fill="#EA1A4D" fill-rule="nonzero" x="0" y="-1" width="22" height="22" rx="4.58"></rect>
                <text id="1" fill="#FFFFFF" font-family="Helvetica-Bold, Helvetica" font-size="13" font-weight="bold">
                    <tspan x="7.306" y="14.78">4</tspan>
                </text>
            </g>
        </g>
        <g id="curva" transform="translate(279.000000, 156.000000)">
            <g id="Group-6" transform="translate(1.000000, 2.000000)">
                <rect id="Rectangle" stroke="#FFFFFF" stroke-width="2" fill="#EA1A4D" fill-rule="nonzero" x="0" y="-1" width="22" height="22" rx="4.58"></rect>
                <text id="1" fill="#FFFFFF" font-family="Helvetica-Bold, Helvetica" font-size="13" font-weight="bold">
                    <tspan x="7.306" y="14.78">5</tspan>
                </text>
            </g>
        </g>
        <g id="curva" transform="translate(185.000000, 128.000000)">
            <g id="Group-6" transform="translate(1.000000, 2.000000)">
                <rect id="Rectangle" stroke="#FFFFFF" stroke-width="2" fill="#EA1A4D" fill-rule="nonzero" x="0" y="-1" width="22" height="22" rx="4.58"></rect>
                <text id="1" fill="#FFFFFF" font-family="Helvetica-Bold, Helvetica" font-size="13" font-weight="bold">
                    <tspan x="7.306" y="14.78">6</tspan>
                </text>
            </g>
        </g>
        <g id="curva" transform="translate(100.000000, 125.000000)">
            <g id="Group-6" transform="translate(1.000000, 2.000000)">
                <rect id="Rectangle" stroke="#FFFFFF" stroke-width="2" fill="#EA1A4D" fill-rule="nonzero" x="0" y="-1" width="22" height="22" rx="4.58"></rect>
                <text id="1" fill="#FFFFFF" font-family="Helvetica-Bold, Helvetica" font-size="13" font-weight="bold">
                    <tspan x="7.306" y="14.78">7</tspan>
                </text>
            </g>
        </g>
        <g id="curva" transform="translate(96.000000, 56.000000)">
            <g id="Group-6" transform="translate(1.000000, 2.000000)">
                <rect id="Rectangle" stroke="#FFFFFF" stroke-width="2" fill="#EA1A4D" fill-rule="nonzero" x="0" y="-1" width="22" height="22" rx="4.58"></rect>
                <text id="1" fill="#FFFFFF" font-family="Helvetica-Bold, Helvetica" font-size="13" font-weight="bold">
                    <tspan x="7.306" y="14.78">8</tspan>
                </text>
            </g>
        </g>
        <g id="curva" transform="translate(203.000000, 73.000000)">
            <g id="Group-6" transform="translate(1.000000, 2.000000)">
                <rect id="Rectangle" stroke="#FFFFFF" stroke-width="2" fill="#EA1A4D" fill-rule="nonzero" x="0" y="-1" width="22" height="22" rx="4.58"></rect>
                <text id="1" fill="#FFFFFF" font-family="Helvetica-Bold, Helvetica" font-size="13" font-weight="bold">
                    <tspan x="7.306" y="14.78">9</tspan>
                </text>
            </g>
        </g>
        <g id="curva" transform="translate(260.000000, 20.000000)">
            <g id="Group-6" transform="translate(1.000000, 2.000000)">
                <rect id="Rectangle" stroke="#FFFFFF" stroke-width="2" fill="#EA1A4D" fill-rule="nonzero" x="0" y="-1" width="22" height="22" rx="4.58"></rect>
                <text id="1" fill="#FFFFFF" font-family="Helvetica-Bold, Helvetica" font-size="13" font-weight="bold">
                    <tspan x="3.692" y="14.78">10</tspan>
                </text>
            </g>
        </g>
        <g id="curva" transform="translate(312.000000, 34.000000)">
            <g id="Group-6" transform="translate(1.000000, 2.000000)">
                <rect id="Rectangle" stroke="#FFFFFF" stroke-width="2" fill="#EA1A4D" fill-rule="nonzero" x="0" y="-1" width="22" height="22" rx="4.58"></rect>
                <text id="1" fill="#FFFFFF" font-family="Helvetica-Bold, Helvetica" font-size="13" font-weight="bold">
                    <tspan x="3.692" y="14.78">11</tspan>
                </text>
            </g>
        </g>
        <g id="curva" transform="translate(279.000000, 118.000000)">
            <g id="Group-6" transform="translate(1.000000, 2.000000)">
                <rect id="Rectangle" stroke="#FFFFFF" stroke-width="2" fill="#EA1A4D" fill-rule="nonzero" x="0" y="-1" width="22" height="22" rx="4.58"></rect>
                <text id="1" fill="#FFFFFF" font-family="Helvetica-Bold, Helvetica" font-size="13" font-weight="bold">
                    <tspan x="3.692" y="14.78">12</tspan>
                </text>
            </g>
        </g>
        <g id="curva" transform="translate(371.000000, 157.000000)">
            <g id="Group-6" transform="translate(1.000000, 2.000000)">
                <rect id="Rectangle" stroke="#FFFFFF" stroke-width="2" fill="#EA1A4D" fill-rule="nonzero" x="0" y="-1" width="22" height="22" rx="4.58"></rect>
                <text id="1" fill="#FFFFFF" font-family="Helvetica-Bold, Helvetica" font-size="13" font-weight="bold">
                    <tspan x="3.692" y="14.78">13</tspan>
                </text>
            </g>
        </g>
        <g id="curva" transform="translate(349.000000, 46.000000)">
            <g id="Group-6" transform="translate(1.000000, 2.000000)">
                <rect id="Rectangle" stroke="#FFFFFF" stroke-width="2" fill="#EA1A4D" fill-rule="nonzero" x="0" y="-1" width="22" height="22" rx="4.58"></rect>
                <text id="1" fill="#FFFFFF" font-family="Helvetica-Bold, Helvetica" font-size="13" font-weight="bold">
                    <tspan x="3.692" y="14.78">14</tspan>
                </text>
            </g>
        </g>
        <g id="curva" transform="translate(419.000000, 185.000000)">
            <g id="Group-6" transform="translate(1.000000, 2.000000)">
                <rect id="Rectangle" stroke="#FFFFFF" stroke-width="2" fill="#EA1A4D" fill-rule="nonzero" x="0" y="-1" width="22" height="22" rx="4.58"></rect>
                <text id="1" fill="#FFFFFF" font-family="Helvetica-Bold, Helvetica" font-size="13" font-weight="bold">
                    <tspan x="3.692" y="14.78">15</tspan>
                </text>
            </g>
        </g>
        <g id="Group-3" transform="translate(288.000000, 203.000000)" fill-rule="nonzero">
            <g id="bandera_cuadros" transform="translate(0.000000, 39.125984)">
                <path d="M17.4976953,17.9956785 L0.501314134,17.9956785 C0.224841887,17.9956785 0,17.7725021 0,17.4960298 L0,0.499648638 C0,0.223176392 0.224841887,0 0.501314134,0 L17.4976953,0 C17.7741676,0 17.997344,0.223176392 17.997344,0.499648638 L17.997344,17.4960298 C17.9956785,17.7725021 17.7741676,17.9956785 17.4976953,17.9956785 Z M0.999297279,16.9963812 L16.9947157,16.9963812 L16.9947157,1.00096277 L0.999297279,1.00096277 L0.999297279,16.9963812 Z" id="Shape" fill="#222222"></path>
                <g id="Group-2" transform="translate(0.818061, 13.088977)">
                    <rect id="Rectangle" fill="#222222" x="4.09030544" y="0" width="4.09030544" height="4.09030544"></rect>
                    <rect id="Rectangle" fill="#FFFFFF" x="0" y="0" width="4.09030544" height="4.09030544"></rect>
                    <rect id="Rectangle" fill="#222222" x="12.2709163" y="0" width="4.09030544" height="4.09030544"></rect>
                    <rect id="Rectangle" fill="#FFFFFF" x="8.18061089" y="0" width="4.09030544" height="4.09030544"></rect>
                </g>
                <g id="Group" transform="translate(0.818061, 0.818061)">
                    <rect id="Rectangle" fill="#222222" x="0" y="0" width="4.09030544" height="4.09030544"></rect>
                    <rect id="Rectangle" fill="#FFFFFF" x="4.09030544" y="0" width="4.09030544" height="4.09030544"></rect>
                    <rect id="Rectangle" fill="#222222" x="8.18061089" y="0" width="4.09030544" height="4.09030544"></rect>
                    <rect id="Rectangle" fill="#FFFFFF" x="12.2709163" y="0" width="4.09030544" height="4.09030544"></rect>
                </g>
                <g id="Group-2" transform="translate(0.818061, 4.908367)">
                    <rect id="Rectangle" fill="#222222" x="4.09030544" y="0" width="4.09030544" height="4.09030544"></rect>
                    <rect id="Rectangle" fill="#FFFFFF" x="0" y="0" width="4.09030544" height="4.09030544"></rect>
                    <rect id="Rectangle" fill="#222222" x="12.2709163" y="0" width="4.09030544" height="4.09030544"></rect>
                    <rect id="Rectangle" fill="#FFFFFF" x="8.18061089" y="0" width="4.09030544" height="4.09030544"></rect>
                </g>
                <g id="Group" transform="translate(0.818061, 8.998672)">
                    <rect id="Rectangle" fill="#222222" x="0" y="0" width="4.09030544" height="4.09030544"></rect>
                    <rect id="Rectangle" fill="#FFFFFF" x="4.09030544" y="0" width="4.09030544" height="4.09030544"></rect>
                    <rect id="Rectangle" fill="#222222" x="8.18061089" y="0" width="4.09030544" height="4.09030544"></rect>
                    <rect id="Rectangle" fill="#FFFFFF" x="12.2709163" y="0" width="4.09030544" height="4.09030544"></rect>
                </g>
            </g>
            <path d="M9.00128,40 C8.445582,40 8,39.8151197 8,39.5845503 L8,0.415449715 C8,0.185942451 8.445582,0 9.00128,0 C9.554416,0 10,0.185942451 10,0.415449715 L10,39.5845503 C9.997438,39.8151197 9.551856,40 9.00128,40 Z" id="Shape" fill="#424242"></path>
        </g>
    </g>
</svg>