<svg id="Capa_1" data-name="Capa 1" xmlns="http://www.w3.org/2000/svg" width="298.18" height="195.15"><defs><style>.cls-11,.cls-12,.cls-13,.cls-18,.cls-5,.cls-8{fill:none}.cls-13,.cls-8{stroke:#fff}.cls-12,.cls-13,.cls-18{stroke-linecap:round}.cls-12,.cls-13,.cls-18,.cls-5{stroke-linejoin:round}.cls-5{stroke-width:2.8px;stroke:#fff100}.cls-17,.cls-23,.cls-24,.cls-7{fill:#fff}.cls-8{stroke-width:1.3px}.cls-9{fill:#ea1a4d}.cls-11,.cls-12,.cls-18{stroke:#231f20}.cls-12{stroke-width:1.5px}.cls-13,.cls-17,.cls-18{stroke-width:.5px}.cls-14{fill:#ffca05}.cls-15,.cls-20,.cls-22{fill:#231f20}.cls-16{fill:#007dc4}.cls-17{stroke:#007dc4}.cls-20,.cls-22,.cls-23,.cls-24{isolation:isolate}.cls-20,.cls-24{font-size:7.5px}.cls-20{font-family:Helvetica}.cls-22,.cls-23{font-size:8.5px}.cls-22,.cls-23,.cls-24{font-family:Helvetica-Bold,Helvetica;font-weight:700}.cls-24{letter-spacing:-.08em}</style></defs><g id="silverstone"><path d="M217.37 72.34a15.89 15.89 0 005.79 2.17c3.29.71 10.82.52 11.61.86 5 .92 5.75 3.31 3.64 8.11-1.17 2.68-8.8 9-10.82 11.54q-7.69 9.74-19.58 22.47-10.86 11.66-22.66 23.08a92.57 92.57 0 01-7.44 6.7c-2.91 2.22-5.38 3.39-7.39 3.5q-12.69.69-21.73-2.14c-2.86-.89-4.79-1.94-5.77-3.12s-1-2.62.37-4c1.13-1.18 3.41-2.1 6.83-2.78l9.09-1.39c3.29-.54 5.35-1.24 6.16-2.09 1.07-1.11.43-2.74-1.9-4.86-2.06-1.71-3.85-3.27-5.38-4.71a49.82 49.82 0 01-7-8q-8.17-12-2.89-24.38a38.46 38.46 0 002.45-11.65 13.9 13.9 0 00-2.63-9.62l-25.1-22.5C106.11 34.34 98.53 27.39 97.51 26.4a13.28 13.28 0 00-5.74-3 19.56 19.56 0 00-8.16-.57 16 16 0 00-7.86 3.55c-2.6 2.07-5.59 5.85-5.64 8a4.44 4.44 0 001.16 2.94c.39.48-.14.16 1.18 1.33a11.39 11.39 0 012.3 2.5 3.67 3.67 0 01.39 3.11c-.39 1.09-1.5 2.38-3.39 3.87l-4.7 3.38-6.97 5.14q-3.36 2.8-8 7l-8.59 7.66a61.11 61.11 0 01-10.41 6.47s-6.33 3.59-7.41 7.69c-1.19 4.77 3.47 7.9 3.47 7.9l84.38 54.22a42 42 0 014.54 3.18 14.16 14.16 0 013.94 4l1.58 4.43a31.34 31.34 0 002.69 6.07q4.51 7.53 12.74 6.07a9.6 9.6 0 003.54-1.55l3.48-2.41a14.53 14.53 0 0110.54-2 18.63 18.63 0 014.33 1.6l5.06 2.55q6.57 3.21 9.8 2.29a45 45 0 006.18-2.66 31.35 31.35 0 015.77-2.32l4.41-.14 19.46.86q17.44.64 21.57.44a80.74 80.74 0 0013.49-1.92q7.16-1.62 10.58-3.76a9 9 0 003.87-4.47l.51-2.41V93.68a21.56 21.56 0 00-1.16-7.07 24.46 24.46 0 00-3.12-6 34.77 34.77 0 00-4.33-4.75 86.54 86.54 0 00-7.81-6.63q-5.09-3.84-8.67-6.16l-3.24-2a27 27 0 00-4.29-2.41 8.65 8.65 0 00-11.5 2.95c-4.89 6.8-.8 10.27-.11 10.73z" stroke-width="8" stroke-linejoin="round" stroke-linecap="round" stroke="#fff" fill="none"/><path d="M217.37 72.34a15.89 15.89 0 005.79 2.17c3.29.71 10.82.52 11.61.86 5 .92 5.75 3.31 3.64 8.11-1.17 2.68-8.8 9-10.82 11.54q-7.69 9.74-19.58 22.47-10.86 11.66-22.66 23.08a92.57 92.57 0 01-7.44 6.7c-2.91 2.22-5.38 3.39-7.39 3.5q-12.69.69-21.73-2.14c-2.86-.89-4.79-1.94-5.77-3.12s-1-2.62.37-4c1.13-1.18 3.41-2.1 6.83-2.78l9.09-1.39c3.29-.54 5.35-1.24 6.16-2.09 1.07-1.11.43-2.74-1.9-4.86-2.06-1.71-3.85-3.27-5.38-4.71a49.82 49.82 0 01-7-8q-8.17-12-2.89-24.38a38.46 38.46 0 002.45-11.65 13.9 13.9 0 00-2.63-9.62l-25.1-22.5C106.11 34.34 98.53 27.39 97.51 26.4a13.28 13.28 0 00-5.74-3 19.56 19.56 0 00-8.16-.57 16 16 0 00-7.86 3.55c-2.6 2.07-5.59 5.85-5.64 8a4.44 4.44 0 001.16 2.94c.39.48-.14.16 1.18 1.33a11.39 11.39 0 012.3 2.5 3.67 3.67 0 01.39 3.11c-.39 1.09-1.5 2.38-3.39 3.87l-4.7 3.38-6.97 5.14q-3.36 2.8-8 7l-8.59 7.66a61.11 61.11 0 01-10.41 6.47s-6.33 3.59-7.41 7.69c-1.19 4.77 3.47 7.9 3.47 7.9l84.38 54.22a42 42 0 014.54 3.18 14.16 14.16 0 013.94 4l1.58 4.43a31.34 31.34 0 002.69 6.07q4.51 7.53 12.74 6.07a9.6 9.6 0 003.54-1.55l3.48-2.41a14.53 14.53 0 0110.54-2 18.63 18.63 0 014.33 1.6l5.06 2.55q6.57 3.21 9.8 2.29a45 45 0 006.18-2.66 31.35 31.35 0 015.77-2.32l4.41-.14 19.46.86q17.44.64 21.57.44a80.74 80.74 0 0013.49-1.92q7.16-1.62 10.58-3.76a9 9 0 003.87-4.47l.51-2.41V93.68a21.56 21.56 0 00-1.16-7.07 24.46 24.46 0 00-3.12-6 34.77 34.77 0 00-4.33-4.75 86.54 86.54 0 00-7.81-6.63q-5.09-3.84-8.67-6.16l-3.24-2a27 27 0 00-4.29-2.41 8.65 8.65 0 00-11.5 2.95c-4.89 6.8-.8 10.27-.11 10.73z" stroke-width="5.4" stroke="#00071b" stroke-linejoin="round" stroke-linecap="round" fill="none"/><path d="M34.28 78.76a108.65 108.65 0 0019.77-10.81q7.64-5 12.77-8.55a107.87 107.87 0 0015-12.3 115.11 115.11 0 0110.79-10q4.14-3.15 9.14 1l38.86 34.5s4.16 3.83 3.83 9.16c-.26 2.61-.34 4.59-.47 10.08a67 67 0 001.47 16.59" stroke-width="2.8" stroke="#00071b" stroke-linejoin="round" stroke-linecap="round" fill="none"/><path d="M217.37 72.34a15.89 15.89 0 005.79 2.17c3.29.71 10.82.52 11.61.86 5 .92 5.75 3.31 3.64 8.11-1.17 2.68-8.8 9-10.82 11.54q-7.69 9.74-19.58 22.47-10.86 11.66-22.66 23.08a92.57 92.57 0 01-7.44 6.7c-2.91 2.22-5.38 3.39-7.39 3.5q-12.69.69-21.73-2.14c-2.86-.89-4.79-1.94-5.77-3.12s-1-2.62.37-4c1.13-1.18 3.41-2.1 6.83-2.78l9.09-1.39c3.29-.54 5.35-1.24 6.16-2.09 1.07-1.11.43-2.74-1.9-4.86-2.06-1.71-3.85-3.27-5.38-4.71a49.82 49.82 0 01-7-8q-8.17-12-2.89-24.38a38.46 38.46 0 002.45-11.65 13.9 13.9 0 00-2.63-9.62l-25.1-22.5C106.11 34.34 98.53 27.39 97.51 26.4a13.28 13.28 0 00-5.74-3 19.56 19.56 0 00-8.16-.57 16 16 0 00-7.86 3.55c-2.6 2.07-5.59 5.85-5.64 8a4.44 4.44 0 001.16 2.94c.39.48-.14.16 1.18 1.33a11.39 11.39 0 012.3 2.5 3.67 3.67 0 01.39 3.11c-.39 1.09-1.5 2.38-3.39 3.87l-4.7 3.38-6.97 5.14q-3.36 2.8-8 7l-8.59 7.66a61.11 61.11 0 01-10.41 6.47s-6.33 3.59-7.41 7.69c-1.19 4.77 3.47 7.9 3.47 7.9l84.38 54.22a42 42 0 014.54 3.18 14.16 14.16 0 013.94 4l1.58 4.43a31.34 31.34 0 002.69 6.07q4.51 7.53 12.74 6.07a9.6 9.6 0 003.54-1.55l3.48-2.41a14.53 14.53 0 0110.54-2 18.63 18.63 0 014.33 1.6l5.06 2.55q6.57 3.21 9.8 2.29a45 45 0 006.18-2.66 31.35 31.35 0 015.77-2.32l4.41-.14 19.46.86q17.44.64 21.57.44a80.74 80.74 0 0013.49-1.92q7.16-1.62 10.58-3.76a9 9 0 003.87-4.47l.51-2.41V93.68a21.56 21.56 0 00-1.16-7.07 24.46 24.46 0 00-3.12-6 34.77 34.77 0 00-4.33-4.75 86.54 86.54 0 00-7.81-6.63q-5.09-3.84-8.67-6.16l-3.24-2a27 27 0 00-4.29-2.41 8.65 8.65 0 00-11.5 2.95c-4.89 6.8-.8 10.27-.11 10.73z" stroke="#8c92a1" stroke-width="2.8" stroke-linejoin="round" stroke-linecap="round" fill="none"/><path class="cls-5" d="M33.39 94.42l84.38 54.22a42 42 0 014.54 3.18M238.83 89.11c-2.62 2.62-5.79 5.45-7 7q-7.7 9.74-19.58 22.47-10.84 11.62-22.65 23a92.57 92.57 0 01-7.44 6.7l-.67.5" transform="translate(-4.25 -1.05)"/><path d="M298.85 123.66l-21.09-2.4 4 5.44-1.89 6.49 19-9.53z" transform="translate(-4.25 -1.05)" fill="#ec174c"/><path class="cls-7" d="M290.1 123.41l-12.39 6.22 1.24-4.24 11.15-1.98"/><rect class="cls-8" x="155.45" y="77.43" width="9.61" height="9.61" rx="2.29"/><rect class="cls-9" x="155.45" y="77.43" width="9.61" height="9.61" rx="2.29"/><rect class="cls-8" x="132.7" y="95.18" width="9.61" height="9.61" rx="2.29"/><rect class="cls-9" x="132.7" y="95.18" width="9.61" height="9.61" rx="2.29"/><rect class="cls-8" x="170.2" y="128.68" width="9.61" height="9.61" rx="2.29"/><rect class="cls-9" x="170.2" y="128.68" width="9.61" height="9.61" rx="2.29"/><rect class="cls-8" x="152.95" y="138.93" width="9.61" height="9.61" rx="2.29"/><rect class="cls-9" x="152.95" y="138.93" width="9.61" height="9.61" rx="2.29"/><rect class="cls-8" x="170.45" y="151.18" width="9.61" height="9.61" rx="2.29"/><rect class="cls-9" x="170.45" y="151.18" width="9.61" height="9.61" rx="2.29"/><rect class="cls-8" x="220.45" y="77.93" width="9.61" height="9.61" rx="2.29"/><rect class="cls-9" x="220.45" y="77.93" width="9.61" height="9.61" rx="2.29"/><rect class="cls-8" x="219.95" y="61.93" width="9.61" height="9.61" rx="2.29"/><rect class="cls-9" x="219.95" y="61.93" width="9.61" height="9.61" rx="2.29"/><rect class="cls-8" x="246.45" y="85.18" width="9.61" height="9.61" rx="2.29"/><rect class="cls-9" x="246.45" y="85.18" width="9.61" height="9.61" rx="2.29"/><rect class="cls-8" x="260.95" y="161.18" width="9.61" height="9.61" rx="2.29"/><rect class="cls-9" x="260.95" y="161.18" width="9.61" height="9.61" rx="2.29"/><rect class="cls-8" x="180.45" y="172.43" width="9.61" height="9.61" rx="2.29"/><rect class="cls-9" x="180.45" y="172.43" width="9.61" height="9.61" rx="2.29"/><rect class="cls-8" x="168.45" y="160.18" width="9.61" height="9.61" rx="2.29"/><rect class="cls-9" x="168.45" y="160.18" width="9.61" height="9.61" rx="2.29"/><rect class="cls-8" x="148.95" y="169.18" width="9.61" height="9.61" rx="2.29"/><rect class="cls-9" x="148.95" y="169.18" width="9.61" height="9.61" rx="2.29"/><rect class="cls-8" x="117.45" y="169.43" width="9.61" height="9.61" rx="2.29"/><rect class="cls-9" x="117.45" y="169.43" width="9.61" height="9.61" rx="2.29"/><rect class="cls-8" x="126.2" y="146.93" width="9.61" height="9.61" rx="2.29"/><rect class="cls-9" x="126.2" y="146.93" width="9.61" height="9.61" rx="2.29"/><rect class="cls-8" x="11.45" y="79.93" width="9.61" height="9.61" rx="2.29"/><rect class="cls-9" x="11.45" y="79.93" width="9.61" height="9.61" rx="2.29"/><rect class="cls-8" x="78.7" y="36.93" width="9.61" height="9.61" rx="2.29"/><rect class="cls-9" x="78.7" y="36.93" width="9.61" height="9.61" rx="2.29"/><rect class="cls-8" x="56.45" y="29.68" width="9.61" height="9.61" rx="2.29"/><rect class="cls-9" x="56.45" y="29.68" width="9.61" height="9.61" rx="2.29"/><rect class="cls-8" x="74.45" y="9.43" width="9.61" height="9.61" rx="2.29"/><rect class="cls-9" x="74.45" y="9.43" width="9.61" height="9.61" rx="2.29"/><path stroke-width=".65" stroke="#231f20" stroke-linejoin="round" stroke-linecap="round" fill="none" d="M119.7 56.6v6.2l-27.8.18"/><path class="cls-11" d="M98.44 26.78A1.42 1.42 0 1097 25.36a1.43 1.43 0 001.44 1.42z" transform="translate(-4.25 -1.05)"/><path class="cls-12" d="M94.19 24.31V8.5"/><path class="cls-13" d="M94.19 24.31V8.5"/><path class="cls-7" d="M98.44 26.78A1.42 1.42 0 1097 25.36a1.43 1.43 0 001.44 1.42z" transform="translate(-4.25 -1.05)"/><path class="cls-11" d="M75.12 34.44A1.42 1.42 0 1073.7 33a1.41 1.41 0 001.38 1.44z" transform="translate(-4.25 -1.05)"/><path class="cls-12" d="M70.86 31.98V8.5H35.94"/><path class="cls-13" d="M70.86 31.98V8.5H35.94"/><path class="cls-7" d="M75.12 34.44A1.42 1.42 0 1073.7 33a1.41 1.41 0 001.38 1.44z" transform="translate(-4.25 -1.05)"/><path class="cls-11" d="M32.83 83.47a1.42 1.42 0 10-1.42-1.42 1.41 1.41 0 001.41 1.41z" transform="translate(-4.25 -1.05)"/><path class="cls-12" d="M28.58 81.01V30.25"/><path class="cls-13" d="M28.58 81.01V30.25"/><path class="cls-7" d="M32.83 83.47a1.42 1.42 0 10-1.42-1.42 1.41 1.41 0 001.41 1.41z" transform="translate(-4.25 -1.05)"/><path class="cls-11" d="M68.28 55.85a1.42 1.42 0 10-1.42 1.42 1.41 1.41 0 001.41-1.41z" transform="translate(-4.25 -1.05)"/><path class="cls-12" d="M62.62 54.8H40.27"/><path class="cls-13" d="M62.62 54.8H40.27"/><path class="cls-7" d="M68.28 55.85a1.42 1.42 0 10-1.42 1.42 1.41 1.41 0 001.41-1.41z" transform="translate(-4.25 -1.05)"/><path class="cls-11" d="M267.41 133.55A1.42 1.42 0 10266 135a1.41 1.41 0 001.41-1.41z" transform="translate(-4.25 -1.05)"/><path class="cls-12" d="M261.75 132.5h-20.98"/><path class="cls-13" d="M261.75 132.5h-20.98"/><path class="cls-7" d="M267.41 133.55A1.42 1.42 0 10266 135a1.41 1.41 0 001.41-1.41z" transform="translate(-4.25 -1.05)"/><path class="cls-11" d="M148 145.36a1.42 1.42 0 10-1.42 1.42 1.44 1.44 0 001.42-1.42z" transform="translate(-4.25 -1.05)"/><path class="cls-12" d="M142.36 144.31h-14.55V126.5"/><path class="cls-13" d="M142.36 144.31h-14.55V126.5"/><path class="cls-7" d="M148 145.36a1.42 1.42 0 10-1.42 1.42 1.44 1.44 0 001.42-1.42z" transform="translate(-4.25 -1.05)"/><path class="cls-11" d="M33.57 93.36a1.42 1.42 0 10-1.42 1.42 1.44 1.44 0 001.42-1.42z" transform="translate(-4.25 -1.05)"/><path class="cls-12" d="M27.9 92.31H8.61v52.16"/><path class="cls-13" d="M27.9 92.31H8.61v52.16"/><path class="cls-7" d="M33.57 93.36a1.42 1.42 0 10-1.42 1.42 1.44 1.44 0 001.42-1.42z" transform="translate(-4.25 -1.05)"/><path class="cls-11" d="M152.14 107.42a1.42 1.42 0 10-1.42 1.42 1.43 1.43 0 001.42-1.42z" transform="translate(-4.25 -1.05)"/><path class="cls-12" d="M146.47 106.37h-19.12"/><path class="cls-13" d="M146.47 106.37h-19.12"/><path class="cls-7" d="M152.14 107.42a1.42 1.42 0 10-1.42 1.42 1.43 1.43 0 001.42-1.42z" transform="translate(-4.25 -1.05)"/><path class="cls-11" d="M264.58 104.22a1.42 1.42 0 111.42 1.42 1.43 1.43 0 01-1.42-1.42z" transform="translate(-4.25 -1.05)"/><path class="cls-12" d="M261.75 103.17h20.91V66.5"/><path class="cls-13" d="M261.75 103.17h20.91V66.5"/><path class="cls-7" d="M264.58 104.22a1.42 1.42 0 111.42 1.42 1.43 1.43 0 01-1.42-1.42z" transform="translate(-4.25 -1.05)"/><path class="cls-11" d="M264.58 154.55A1.42 1.42 0 11266 156a1.41 1.41 0 01-1.42-1.4z" transform="translate(-4.25 -1.05)"/><path class="cls-12" d="M261.75 153.5h11.24v33.36"/><path class="cls-13" d="M261.75 153.5h11.24v33.36"/><path class="cls-7" d="M264.58 154.55A1.42 1.42 0 11266 156a1.41 1.41 0 01-1.42-1.4z" transform="translate(-4.25 -1.05)"/><path class="cls-11" d="M152.37 75.33a1.42 1.42 0 111.43 1.41 1.42 1.42 0 01-1.43-1.41z" transform="translate(-4.25 -1.05)"/><path class="cls-12" d="M149.54 74.28h23.98"/><path class="cls-13" d="M149.54 74.28h23.98"/><path class="cls-7" d="M152.37 75.33a1.42 1.42 0 111.43 1.41 1.42 1.42 0 01-1.43-1.41z" transform="translate(-4.25 -1.05)"/><path class="cls-11" d="M143.5 66.46a1.42 1.42 0 111.42 1.42 1.41 1.41 0 01-1.41-1.41z" transform="translate(-4.25 -1.05)"/><path class="cls-12" d="M140.66 65.41h24.63V49.75"/><path class="cls-13" d="M140.66 65.41h24.63V49.75"/><path class="cls-7" d="M143.5 66.46a1.42 1.42 0 111.42 1.42 1.41 1.41 0 01-1.41-1.41z" transform="translate(-4.25 -1.05)"/><path class="cls-11" d="M119.29 44.86a1.42 1.42 0 111.42 1.42 1.42 1.42 0 01-1.42-1.42z" transform="translate(-4.25 -1.05)"/><path class="cls-12" d="M116.45 43.81h38.67V8.5"/><path class="cls-13" d="M116.45 43.81h38.67V8.5"/><path class="cls-7" d="M119.29 44.86a1.42 1.42 0 111.42 1.42 1.42 1.42 0 01-1.42-1.42z" transform="translate(-4.25 -1.05)"/><path class="cls-11" d="M107.73 34.72a1.42 1.42 0 111.42 1.42 1.44 1.44 0 01-1.42-1.42z" transform="translate(-4.25 -1.05)"/><path class="cls-12" d="M104.9 33.67h17.34"/><path class="cls-13" d="M104.9 33.67h17.34"/><path class="cls-7" d="M107.73 34.72a1.42 1.42 0 111.42 1.42 1.44 1.44 0 01-1.42-1.42z" transform="translate(-4.25 -1.05)"/><path class="cls-11" d="M74.7 49.2a1.42 1.42 0 111.42 1.42 1.41 1.41 0 01-1.42-1.4z" transform="translate(-4.25 -1.05)"/><path class="cls-12" d="M71.86 48.15h13.75v39.02h11.66"/><path class="cls-13" d="M71.86 48.15h13.75v39.02h11.66"/><path class="cls-7" d="M74.7 49.2a1.42 1.42 0 111.42 1.42 1.41 1.41 0 01-1.42-1.4z" transform="translate(-4.25 -1.05)"/><path class="cls-11" d="M60.57 59.85A1.42 1.42 0 1162 61.27a1.43 1.43 0 01-1.43-1.42z" transform="translate(-4.25 -1.05)"/><path class="cls-12" d="M57.74 58.8h18v29.04"/><path class="cls-13" d="M57.74 58.8h18v29.04"/><path class="cls-7" d="M60.57 59.85A1.42 1.42 0 1162 61.27a1.43 1.43 0 01-1.43-1.42z" transform="translate(-4.25 -1.05)"/><path class="cls-11" d="M221.16 64.79a1.42 1.42 0 10-1.42-1.42 1.43 1.43 0 001.42 1.42z" transform="translate(-4.25 -1.05)"/><path class="cls-12" d="M216.91 62.32V29.34"/><path class="cls-13" d="M216.91 62.32V29.34"/><path class="cls-7" d="M221.16 64.79a1.42 1.42 0 10-1.42-1.42 1.43 1.43 0 001.42 1.42z" transform="translate(-4.25 -1.05)"/><path class="cls-11" d="M233.24 61a1.42 1.42 0 10-1.42-1.42 1.43 1.43 0 001.42 1.42z" transform="translate(-4.25 -1.05)"/><path class="cls-12" d="M228.99 58.52V8.5"/><path class="cls-13" d="M228.99 58.52V8.5"/><path class="cls-7" d="M233.24 61a1.42 1.42 0 10-1.42-1.42 1.43 1.43 0 001.42 1.42z" transform="translate(-4.25 -1.05)"/><path class="cls-11" d="M213.82 118.28a1.42 1.42 0 10-1.42-1.42 1.42 1.42 0 001.42 1.42z" transform="translate(-4.25 -1.05)"/><path class="cls-12" d="M209.57 115.82v-12.81"/><path class="cls-13" d="M209.57 115.82v-12.81"/><path class="cls-7" d="M213.82 118.28a1.42 1.42 0 10-1.42-1.42 1.42 1.42 0 001.42 1.42z" transform="translate(-4.25 -1.05)"/><path class="cls-11" d="M163.07 128a1.42 1.42 0 10-1.42-1.42 1.44 1.44 0 001.42 1.42z" transform="translate(-4.25 -1.05)"/><path class="cls-12" d="M158.82 125.53V105"/><path class="cls-13" d="M158.82 125.53V105"/><path class="cls-7" d="M163.07 128a1.42 1.42 0 10-1.42-1.42 1.44 1.44 0 001.42 1.42z" transform="translate(-4.25 -1.05)"/><path class="cls-11" d="M186.2 171.61a1.42 1.42 0 10-1.42-1.42 1.43 1.43 0 001.42 1.42z" transform="translate(-4.25 -1.05)"/><path class="cls-12" d="M181.94 169.14v-16.01h11.72"/><path class="cls-13" d="M181.94 169.14v-16.01h11.72"/><path class="cls-7" d="M186.2 171.61a1.42 1.42 0 10-1.42-1.42 1.43 1.43 0 001.42 1.42z" transform="translate(-4.25 -1.05)"/><path class="cls-11" d="M223.18 170.26a1.42 1.42 0 10-1.42-1.42 1.44 1.44 0 001.42 1.42z" transform="translate(-4.25 -1.05)"/><path class="cls-12" d="M218.93 167.79v-14.55"/><path class="cls-13" d="M218.93 167.79v-14.55"/><path class="cls-7" d="M223.18 170.26a1.42 1.42 0 10-1.42-1.42 1.44 1.44 0 001.42 1.42z" transform="translate(-4.25 -1.05)"/><path class="cls-11" d="M76.18 120.65a1.42 1.42 0 11-1.42 1.42 1.41 1.41 0 011.41-1.41z" transform="translate(-4.25 -1.05)"/><path class="cls-12" d="M71.93 121.01v23.46"/><path class="cls-13" d="M71.93 121.01v23.46"/><path class="cls-7" d="M76.18 120.65a1.42 1.42 0 11-1.42 1.42 1.41 1.41 0 011.41-1.41z" transform="translate(-4.25 -1.05)"/><path class="cls-11" d="M103.85 138.13a1.42 1.42 0 11-1.42 1.42 1.44 1.44 0 011.42-1.42z" transform="translate(-4.25 -1.05)"/><path class="cls-12" d="M99.6 138.5V165H82.77"/><path class="cls-13" d="M99.6 138.5V165H82.77"/><path class="cls-7" d="M103.85 138.13a1.42 1.42 0 11-1.42 1.42 1.44 1.44 0 011.42-1.42z" transform="translate(-4.25 -1.05)"/><path class="cls-11" d="M119.18 148.26a1.42 1.42 0 11-1.41 1.43 1.43 1.43 0 011.41-1.43z" transform="translate(-4.25 -1.05)"/><path class="cls-12" d="M114.93 148.63v38.08"/><path class="cls-13" d="M114.93 148.63v38.08"/><path class="cls-7" d="M119.18 148.26a1.42 1.42 0 11-1.41 1.43 1.43 1.43 0 011.41-1.43z" transform="translate(-4.25 -1.05)"/><path class="cls-11" d="M138.82 171.07a1.42 1.42 0 11-1.42 1.42 1.42 1.42 0 011.42-1.42z" transform="translate(-4.25 -1.05)"/><path class="cls-12" d="M134.57 171.43v15.81h8.4"/><path class="cls-13" d="M134.57 171.43v15.81h8.4"/><path class="cls-7" d="M138.82 171.07a1.42 1.42 0 11-1.42 1.42 1.42 1.42 0 011.42-1.42z" transform="translate(-4.25 -1.05)"/><path class="cls-11" d="M196.37 166.32a1.42 1.42 0 11-1.42 1.42 1.41 1.41 0 011.41-1.41z" transform="translate(-4.25 -1.05)"/><path class="cls-12" d="M192.12 166.68v20.37h15.15"/><path class="cls-13" d="M192.12 166.68v20.37h15.15"/><path class="cls-7" d="M196.37 166.32a1.42 1.42 0 11-1.42 1.42 1.41 1.41 0 011.41-1.41z" transform="translate(-4.25 -1.05)"/><path class="cls-11" d="M235.4 91a1.42 1.42 0 11-1.4 1.44 1.42 1.42 0 011.4-1.44z" transform="translate(-4.25 -1.05)"/><path class="cls-12" d="M231.15 91.38v14.81"/><path class="cls-13" d="M231.15 91.38v14.81"/><path class="cls-7" d="M235.4 91a1.42 1.42 0 11-1.4 1.44 1.42 1.42 0 011.4-1.44z" transform="translate(-4.25 -1.05)"/><path class="cls-11" d="M45.05 100.5a1.42 1.42 0 11-1.42 1.42A1.41 1.41 0 0145 100.5z" transform="translate(-4.25 -1.05)"/><path class="cls-12" d="M40.8 100.87v23.38"/><path class="cls-13" d="M40.8 100.87v23.38"/><path class="cls-7" d="M45.05 100.5a1.42 1.42 0 11-1.42 1.42A1.41 1.41 0 0145 100.5z" transform="translate(-4.25 -1.05)"/><rect class="cls-14" x="187.9" y="147.3" width="11.88" height="11.87" rx="2.83"/><path class="cls-15" d="M190.17 154.94l-.63 2.39h8.59l-.63-2.39h-7.33zM190.83 149.12l-1.29 4.92h8.59l-1.3-4.92h-6z"/><rect class="cls-14" x="152.88" y="99.13" width="11.87" height="11.87" rx="2.83"/><path class="cls-15" d="M155.15 106.77l-.63 2.4h8.6l-.64-2.4h-7.33zM155.81 100.95l-1.29 4.92h8.6l-1.3-4.92h-6.01z"/><rect class="cls-14" x="33.88" y="48.76" width="11.87" height="11.87" rx="2.83"/><path class="cls-15" d="M36.15 56.4l-.63 2.39h8.59l-.63-2.39h-7.33zM36.81 50.57l-1.29 4.93h8.59l-1.29-4.93h-6.01z"/><rect class="cls-15" x="8.61" y="2.65" width="32.57" height="11.87" rx="2.83"/><path class="cls-7" d="M23.46 6.28h-1.45l.15-.68h1.45l-.15.68zM23.09 8.06h-2.4l.14-.69h2.4l-.14.69zM22.71 9.84h-3.35l.15-.69h3.35l-.15.69zM22.34 11.61h-4.3l.15-.68h4.29l-.14.68z"/><path class="cls-16" d="M11.13 3.61a6.34 6.34 0 00-.83.3.28.28 0 01-.22 0l-1.39-1a.63.63 0 00-.74 0L7 3.63a.65.65 0 00-.15.73l.81 1.54a.22.22 0 010 .22 7.44 7.44 0 00-.44.78A.23.23 0 017 7l-1.7.13a.63.63 0 00-.56.49l-.2 1.16a.61.61 0 00.35.65l1.58.69a.28.28 0 01.14.18 6.6 6.6 0 00.15.87.28.28 0 010 .22l-1.31 1.19a.62.62 0 00-.11.73l.59 1a.63.63 0 00.69.28l1.65-.49a.28.28 0 01.23.05c.21.2.44.39.67.57a.25.25 0 01.09.2l-.2 1.72a.63.63 0 00.39.63l1.11.4a.63.63 0 00.71-.23l.94-1.44a.28.28 0 01.21-.1h.88a.26.26 0 01.2.1l1 1.45a.62.62 0 00.7.23l1.11-.4a.63.63 0 00.39-.63L16.46 15a.31.31 0 01.09-.22 6.13 6.13 0 00.68-.56.26.26 0 01.21-.06l1.66.5a.63.63 0 00.69-.28l.59-1a.62.62 0 00-.1-.73L19 11.4a.25.25 0 01-.07-.23 8.52 8.52 0 00.16-.88.24.24 0 01.12-.17l1.59-.69a.61.61 0 00.35-.65L21 7.62a.65.65 0 00-.56-.5L18.71 7a.28.28 0 01-.2-.13 5.35 5.35 0 00-.45-.77.26.26 0 010-.21l.78-1.55a.65.65 0 00-.15-.73l-.91-.75a.63.63 0 00-.74 0l-1.38 1a.24.24 0 01-.23 0 6 6 0 00-.84-.3.29.29 0 01-.15-.16L14 1.76a.63.63 0 00-.58-.46h-1.15a.63.63 0 00-.58.46l-.4 1.68a.25.25 0 01-.16.17z" transform="translate(-4.25 -1.05)"/><path class="cls-17" d="M12.86 4.57a5.07 5.07 0 105.07 5.07 5.07 5.07 0 00-5.07-5.07z" transform="translate(-4.25 -1.05)"/><rect class="cls-15" x="94.19" y="2.65" width="32.57" height="11.87" rx="2.83"/><path class="cls-7" d="M109.05 6.28h-1.46l.15-.68h1.45l-.14.68zM108.67 8.06h-2.4l.15-.69h2.4l-.15.69zM108.3 9.84h-3.35l.14-.69h3.35l-.14.69zM107.92 11.61h-4.29l.14-.68h4.29l-.14.68z"/><path class="cls-16" d="M96.71 3.61a6.34 6.34 0 00-.83.3.2.2 0 01-.21 0l-1.4-1a.63.63 0 00-.74 0l-.9.75a.64.64 0 00-.15.73l.77 1.54a.28.28 0 010 .22 6.06 6.06 0 00-.45.78.22.22 0 01-.18.12l-1.73.11a.61.61 0 00-.55.49l-.21 1.16a.65.65 0 00.35.65l1.58.69a.28.28 0 01.14.18 6.64 6.64 0 00.16.87.29.29 0 01-.06.22L91 12.58a.62.62 0 00-.11.73l.59 1a.63.63 0 00.69.28l1.65-.49a.27.27 0 01.23.05c.21.2.44.39.67.57a.2.2 0 01.09.2l-.19 1.72a.63.63 0 00.39.63l1.1.4a.63.63 0 00.71-.23l1-1.44a.32.32 0 01.22-.1h.87a.26.26 0 01.2.1l1 1.45a.62.62 0 00.7.23l1.11-.4a.63.63 0 00.39-.63L102 15a.27.27 0 01.1-.22 7.1 7.1 0 00.67-.56.26.26 0 01.21-.06l1.67.5a.62.62 0 00.68-.28l.6-1a.62.62 0 00-.11-.73l-1.25-1.18a.28.28 0 01-.07-.23 6.49 6.49 0 00.16-.88.26.26 0 01.12-.17l1.59-.69a.64.64 0 00.36-.65l-.21-1.16a.64.64 0 00-.55-.5L104.29 7a.28.28 0 01-.2-.13 7.3 7.3 0 00-.44-.77.26.26 0 010-.21l.78-1.55a.64.64 0 00-.15-.73l-.9-.75a.63.63 0 00-.74 0l-1.39 1a.24.24 0 01-.23 0 6.34 6.34 0 00-.83-.3.26.26 0 01-.19-.16l-.41-1.69A.63.63 0 0099 1.3h-1.15a.63.63 0 00-.58.46l-.4 1.68a.25.25 0 01-.16.17z" transform="translate(-4.25 -1.05)"/><path class="cls-17" d="M98.44 4.57a5.07 5.07 0 105.07 5.07 5.07 5.07 0 00-5.07-5.07z" transform="translate(-4.25 -1.05)"/><rect class="cls-15" x="155.12" y="2.65" width="32.57" height="11.87" rx="2.83"/><path class="cls-7" d="M169.97 6.28h-1.45l.14-.68h1.46l-.15.68zM169.59 8.06h-2.4l.15-.69h2.4l-.15.69zM169.22 9.84h-3.35l.15-.69h3.35l-.15.69zM168.84 11.61h-4.29l.14-.68h4.3l-.15.68z"/><path class="cls-16" d="M157.64 3.61a6 6 0 00-.84.3.26.26 0 01-.21 0l-1.39-1a.63.63 0 00-.74 0l-.91.75a.64.64 0 00-.15.73l.77 1.54a.22.22 0 010 .22 6 6 0 00-.44.78.23.23 0 01-.18.12l-1.73.11a.63.63 0 00-.56.49l-.2 1.16a.61.61 0 00.35.65l1.58.69a.23.23 0 01.13.18 6.64 6.64 0 00.16.87.25.25 0 01-.06.22L152 12.58a.62.62 0 00-.1.73l.59 1a.62.62 0 00.68.28l1.65-.49a.27.27 0 01.23.05c.22.2.44.39.68.57a.25.25 0 01.09.2l-.2 1.72a.63.63 0 00.39.63l1.11.4a.62.62 0 00.7-.23l1-1.44a.28.28 0 01.21-.1h.88a.26.26 0 01.2.1l1 1.45a.62.62 0 00.7.23l1.11-.4a.63.63 0 00.39-.63L163 15a.26.26 0 01.09-.22 6.13 6.13 0 00.68-.56.26.26 0 01.21-.06l1.66.5a.63.63 0 00.69-.28l.59-1a.62.62 0 00-.11-.73l-1.25-1.18a.27.27 0 01-.06-.23 6.47 6.47 0 00.15-.88.31.31 0 01.13-.17l1.59-.69a.62.62 0 00.35-.65l-.2-1.16a.65.65 0 00-.56-.5L165.21 7a.26.26 0 01-.19-.13 5.35 5.35 0 00-.45-.77.26.26 0 010-.21l.77-1.55a.64.64 0 00-.15-.73l-.9-.75a.63.63 0 00-.74 0l-1.38 1a.25.25 0 01-.24 0 6.34 6.34 0 00-.83-.3.29.29 0 01-.1-.16l-.4-1.69a.64.64 0 00-.6-.41h-1.18a.63.63 0 00-.58.46l-.4 1.68a.31.31 0 01-.2.17z" transform="translate(-4.25 -1.05)"/><path class="cls-17" d="M159.37 4.57a5.07 5.07 0 105.07 5.07 5.07 5.07 0 00-5.07-5.07z" transform="translate(-4.25 -1.05)"/><rect class="cls-15" x="165.29" y="44.15" width="32.57" height="11.87" rx="2.83"/><path class="cls-7" d="M180.15 47.78h-1.46l.15-.68h1.45l-.14.68zM179.77 49.56h-2.4l.15-.69h2.4l-.15.69zM179.4 51.34h-3.35l.14-.69h3.35l-.14.69zM179.02 53.11h-4.29l.14-.68h4.29l-.14.68z"/><path class="cls-16" d="M167.81 45.11a6.34 6.34 0 00-.83.3.2.2 0 01-.21 0l-1.4-1a.63.63 0 00-.74 0l-.9.75a.64.64 0 00-.15.73l.77 1.54a.28.28 0 010 .22 6.06 6.06 0 00-.45.78.22.22 0 01-.18.12l-1.73.11a.61.61 0 00-.55.49l-.21 1.16a.64.64 0 00.36.65l1.58.69a.24.24 0 01.13.18 6.64 6.64 0 00.16.87.29.29 0 01-.06.22l-1.26 1.19a.62.62 0 00-.11.73l.59 1a.63.63 0 00.69.28l1.65-.49a.27.27 0 01.23 0c.21.2.44.39.67.57a.2.2 0 01.1.2l-.2 1.72a.63.63 0 00.39.63l1.1.4A.63.63 0 00168 59l.94-1.44a.32.32 0 01.22-.1h.84a.26.26 0 01.2.1l.95 1.45a.62.62 0 00.7.23l1.11-.4a.63.63 0 00.39-.63l-.19-1.71a.24.24 0 01.09-.22 6 6 0 00.67-.56.26.26 0 01.21-.06l1.67.5a.63.63 0 00.69-.28l.59-1a.62.62 0 00-.11-.73L175.76 53a.28.28 0 01-.07-.23 5.24 5.24 0 00.16-.88.3.3 0 01.12-.17l1.59-.69a.64.64 0 00.36-.65l-.21-1.16a.64.64 0 00-.55-.5l-1.72-.1a.28.28 0 01-.2-.13 4.51 4.51 0 00-.44-.77.26.26 0 010-.21l.78-1.55a.64.64 0 00-.15-.73l-.9-.75a.63.63 0 00-.74 0l-1.39 1a.24.24 0 01-.23 0 6.34 6.34 0 00-.83-.3.26.26 0 01-.15-.16l-.41-1.69a.63.63 0 00-.58-.46H169a.63.63 0 00-.58.46L168 45a.23.23 0 01-.19.11z" transform="translate(-4.25 -1.05)"/><path class="cls-17" d="M169.54 46.07a5.07 5.07 0 105.07 5.07 5.07 5.07 0 00-5.07-5.07z" transform="translate(-4.25 -1.05)"/><rect class="cls-15" x="173.04" y="68.15" width="32.57" height="11.87" rx="2.83"/><path class="cls-7" d="M187.9 71.78h-1.46l.15-.68h1.45l-.14.68zM187.52 73.56h-2.4l.15-.69h2.4l-.15.69zM187.15 75.34h-3.35l.14-.69h3.35l-.14.69zM186.77 77.12h-4.29l.14-.69h4.29l-.14.69z"/><path class="cls-16" d="M175.56 69.11a6.34 6.34 0 00-.83.3.2.2 0 01-.21 0l-1.4-1a.63.63 0 00-.74 0l-.9.75a.64.64 0 00-.15.73l.77 1.54a.28.28 0 010 .22 6.06 6.06 0 00-.45.78.22.22 0 01-.18.12l-1.73.11a.61.61 0 00-.55.49l-.19 1.13a.64.64 0 00.36.65l1.58.69a.24.24 0 01.13.18 6.64 6.64 0 00.16.87.29.29 0 01-.06.22l-1.26 1.19a.62.62 0 00-.11.73l.59 1a.63.63 0 00.69.28l1.65-.49a.31.31 0 01.23 0c.21.2.44.39.67.57a.2.2 0 01.1.2l-.2 1.72a.63.63 0 00.39.63l1.1.4a.63.63 0 00.71-.23l.94-1.44a.32.32 0 01.22-.1h.88a.26.26 0 01.2.1l.95 1.45a.62.62 0 00.7.23l1.11-.4a.62.62 0 00.39-.63l-.19-1.71a.24.24 0 01.09-.22 6 6 0 00.67-.56.26.26 0 01.21-.06l1.67.5a.63.63 0 00.69-.28l.59-1a.62.62 0 00-.11-.73l-1.25-1.18a.28.28 0 01-.07-.23 5.24 5.24 0 00.16-.88.3.3 0 01.12-.17l1.59-.69a.64.64 0 00.36-.65l-.21-1.16a.64.64 0 00-.55-.5l-1.72-.1a.28.28 0 01-.2-.13 4.51 4.51 0 00-.44-.77.26.26 0 010-.21l.78-1.55a.64.64 0 00-.15-.73l-.9-.75a.63.63 0 00-.74 0l-1.39 1a.24.24 0 01-.23 0 6.34 6.34 0 00-.83-.3.26.26 0 01-.15-.16l-.41-1.69a.63.63 0 00-.58-.46h-1.23a.63.63 0 00-.58.46l-.4 1.68a.25.25 0 01-.16.24z" transform="translate(-4.25 -1.05)"/><path class="cls-17" d="M177.29 70.07a5.07 5.07 0 105.07 5.07 5.07 5.07 0 00-5.07-5.07z" transform="translate(-4.25 -1.05)"/><rect class="cls-15" x="180.79" y="94.15" width="32.57" height="11.87" rx="2.83"/><path class="cls-7" d="M195.65 97.78h-1.46l.15-.68h1.45l-.14.68zM195.27 99.56h-2.4l.15-.69h2.4l-.15.69zM194.9 101.34h-3.35l.14-.69h3.35l-.14.69zM194.52 103.12h-4.29l.14-.69h4.29l-.14.69z"/><path class="cls-16" d="M183.31 95.11a6.34 6.34 0 00-.83.3.2.2 0 01-.21 0l-1.4-1a.63.63 0 00-.74 0l-.9.75a.64.64 0 00-.15.73l.77 1.54a.28.28 0 010 .22 6.06 6.06 0 00-.45.78.22.22 0 01-.18.12l-1.73.11a.61.61 0 00-.55.49l-.21 1.16a.64.64 0 00.36.65l1.58.69a.24.24 0 01.13.18 6.64 6.64 0 00.16.87.29.29 0 01-.06.22l-1.26 1.19a.62.62 0 00-.11.73l.59 1a.63.63 0 00.69.28l1.65-.49a.31.31 0 01.23 0c.21.2.44.39.67.57a.2.2 0 01.1.2l-.2 1.72a.63.63 0 00.39.63l1.1.4a.63.63 0 00.71-.23l.94-1.44a.32.32 0 01.22-.1h.88a.26.26 0 01.2.1l1 1.45a.62.62 0 00.7.23l1.11-.4a.62.62 0 00.39-.63l-.19-1.71a.24.24 0 01.09-.22 6 6 0 00.67-.56.26.26 0 01.21-.06l1.67.5a.63.63 0 00.69-.28l.59-1a.62.62 0 00-.11-.73l-1.25-1.18a.28.28 0 01-.07-.23 5.24 5.24 0 00.16-.88.3.3 0 01.12-.17l1.59-.69a.64.64 0 00.36-.65l-.21-1.16a.64.64 0 00-.55-.5l-1.72-.1a.28.28 0 01-.2-.13 4.51 4.51 0 00-.44-.77.26.26 0 010-.21l.78-1.55a.64.64 0 00-.15-.73l-.9-.75a.63.63 0 00-.74 0l-1.39 1a.24.24 0 01-.23 0 6.34 6.34 0 00-.83-.3.26.26 0 01-.15-.16l-.41-1.69a.63.63 0 00-.58-.46h-1.18a.63.63 0 00-.58.46l-.4 1.68a.24.24 0 01-.24.21z" transform="translate(-4.25 -1.05)"/><path class="cls-17" d="M185 96.07a5.07 5.07 0 105.07 5.07 5.07 5.07 0 00-5.07-5.07z" transform="translate(-4.25 -1.05)"/><rect class="cls-15" x="205.04" y="2.65" width="32.57" height="11.87" rx="2.83"/><path class="cls-7" d="M219.9 6.28h-1.46l.15-.68h1.45l-.14.68zM219.52 8.06h-2.4l.15-.69h2.4l-.15.69zM219.15 9.84h-3.35l.14-.69h3.35l-.14.69zM218.77 11.61h-4.29l.14-.68h4.29l-.14.68z"/><path class="cls-16" d="M207.56 3.61a6.34 6.34 0 00-.83.3.2.2 0 01-.21 0l-1.4-1a.63.63 0 00-.74 0l-.9.75a.64.64 0 00-.15.73l.77 1.54a.28.28 0 010 .22 6.06 6.06 0 00-.45.78.22.22 0 01-.18.12l-1.73.11a.61.61 0 00-.55.49L201 8.78a.64.64 0 00.36.65l1.58.69a.24.24 0 01.13.18 6.64 6.64 0 00.16.87.29.29 0 01-.06.22l-1.26 1.19a.62.62 0 00-.11.73l.59 1a.63.63 0 00.69.28l1.65-.49a.27.27 0 01.23.05c.21.2.44.39.67.57a.2.2 0 01.1.2l-.2 1.72a.63.63 0 00.39.63l1.1.4a.63.63 0 00.71-.23l.94-1.44a.32.32 0 01.22-.1h.88a.26.26 0 01.2.1l.95 1.45a.62.62 0 00.7.23l1.11-.4a.62.62 0 00.39-.63L212.9 15a.24.24 0 01.09-.22 6 6 0 00.67-.56.26.26 0 01.21-.06l1.67.5a.63.63 0 00.69-.28l.59-1a.62.62 0 00-.11-.73l-1.25-1.18a.28.28 0 01-.07-.23 5.24 5.24 0 00.16-.88.3.3 0 01.12-.17l1.59-.69a.64.64 0 00.36-.65l-.21-1.16a.64.64 0 00-.55-.5L215.14 7a.28.28 0 01-.2-.13 4.51 4.51 0 00-.44-.77.26.26 0 010-.21l.78-1.55a.64.64 0 00-.15-.73l-.9-.75a.63.63 0 00-.74 0l-1.39 1a.24.24 0 01-.23 0 6.34 6.34 0 00-.83-.3.26.26 0 01-.15-.16l-.41-1.69a.63.63 0 00-.58-.46h-1.2a.63.63 0 00-.58.46l-.4 1.68a.27.27 0 01-.16.22z" transform="translate(-4.25 -1.05)"/><path class="cls-17" d="M209.29 4.57a5.07 5.07 0 105.07 5.07 5.07 5.07 0 00-5.07-5.07z" transform="translate(-4.25 -1.05)"/><rect class="cls-15" x="8.61" y="23.4" width="32.57" height="11.87" rx="2.83"/><path class="cls-7" d="M23.46 27.03h-1.45l.15-.68h1.45l-.15.68zM23.09 28.81h-2.4l.14-.69h2.4l-.14.69zM22.71 30.59h-3.35l.15-.69h3.35l-.15.69zM22.34 32.36h-4.3l.15-.68h4.29l-.14.68z"/><path class="cls-16" d="M11.13 24.36a6.34 6.34 0 00-.83.3.28.28 0 01-.22 0l-1.39-1a.63.63 0 00-.74 0l-1 .72a.65.65 0 00-.15.73l.77 1.54a.22.22 0 010 .22 7.44 7.44 0 00-.44.78.23.23 0 01-.18.12l-1.73.11a.63.63 0 00-.56.49l-.2 1.16a.61.61 0 00.35.65l1.58.69a.28.28 0 01.14.18 6.6 6.6 0 00.15.87.28.28 0 010 .22l-1.23 1.19a.62.62 0 00-.11.73l.59 1a.63.63 0 00.69.28l1.65-.49a.28.28 0 01.23 0c.21.2.44.39.67.57a.25.25 0 01.09.2l-.2 1.72a.63.63 0 00.39.63l1.11.4a.63.63 0 00.71-.23l.94-1.44a.28.28 0 01.21-.1h.88a.26.26 0 01.2.1l1 1.45a.62.62 0 00.7.23l1.11-.4a.63.63 0 00.39-.63l-.2-1.71a.31.31 0 01.09-.22 6.13 6.13 0 00.68-.56.26.26 0 01.21-.06l1.66.5a.63.63 0 00.69-.28l.59-1a.62.62 0 00-.1-.73L19 32.15a.25.25 0 01-.07-.23 8.52 8.52 0 00.16-.88.24.24 0 01.12-.17l1.59-.69a.61.61 0 00.35-.65L21 28.37a.65.65 0 00-.56-.5l-1.71-.1a.28.28 0 01-.2-.13 5.35 5.35 0 00-.45-.77.26.26 0 010-.21l.78-1.55a.65.65 0 00-.15-.73l-.91-.75a.63.63 0 00-.74 0l-1.38 1a.24.24 0 01-.23 0 6 6 0 00-.84-.3.29.29 0 01-.15-.16L14 22.51a.63.63 0 00-.58-.46h-1.15a.63.63 0 00-.58.46l-.4 1.68a.25.25 0 01-.16.17z" transform="translate(-4.25 -1.05)"/><path class="cls-17" d="M12.86 25.32a5.07 5.07 0 105.07 5.07 5.07 5.07 0 00-5.07-5.07z" transform="translate(-4.25 -1.05)"/><rect class="cls-15" x="189.36" y="23.4" width="32.57" height="11.87" rx="2.83"/><path class="cls-7" d="M204.21 27.03h-1.45l.15-.68h1.45l-.15.68zM203.84 28.81h-2.4l.14-.69h2.4l-.14.69zM203.46 30.59h-3.35l.15-.69h3.35l-.15.69zM203.09 32.36h-4.3l.15-.68h4.29l-.14.68z"/><path class="cls-16" d="M191.88 24.36a6.34 6.34 0 00-.83.3.28.28 0 01-.22 0l-1.39-1a.63.63 0 00-.74 0l-.91.75a.65.65 0 00-.15.73l.77 1.54a.22.22 0 010 .22 7.44 7.44 0 00-.44.78.23.23 0 01-.18.12l-1.73.11a.61.61 0 00-.55.49l-.21 1.16a.62.62 0 00.35.65l1.58.69a.28.28 0 01.14.18 6.6 6.6 0 00.15.87.28.28 0 010 .22l-1.26 1.19a.62.62 0 00-.11.73l.59 1a.63.63 0 00.69.28l1.65-.49a.28.28 0 01.23 0c.21.2.44.39.67.57a.25.25 0 01.09.2l-.2 1.72a.63.63 0 00.39.63l1.11.4a.63.63 0 00.71-.23l.94-1.44a.28.28 0 01.21-.1h.88a.26.26 0 01.2.1l1 1.45a.62.62 0 00.7.23l1-.46a.63.63 0 00.39-.63l-.2-1.71a.31.31 0 01.09-.22 6.13 6.13 0 00.68-.56.26.26 0 01.21-.06l1.66.5a.63.63 0 00.69-.28l.59-1a.62.62 0 00-.1-.73l-1.25-1.18a.25.25 0 01-.07-.23 8.52 8.52 0 00.16-.88.24.24 0 01.12-.17l1.59-.69a.61.61 0 00.35-.65l-.2-1.16a.65.65 0 00-.56-.5l-1.71-.1a.28.28 0 01-.2-.13 5.35 5.35 0 00-.45-.77.26.26 0 010-.21l.78-1.55a.65.65 0 00-.15-.73l-.91-.75a.63.63 0 00-.74 0l-1.38 1a.24.24 0 01-.23 0 6 6 0 00-.84-.3.29.29 0 01-.15-.16l-.4-1.69a.63.63 0 00-.58-.46H193a.63.63 0 00-.58.46l-.4 1.68a.28.28 0 01-.14.27z" transform="translate(-4.25 -1.05)"/><path class="cls-17" d="M193.61 25.32a5.07 5.07 0 105.07 5.07 5.07 5.07 0 00-5.07-5.07z" transform="translate(-4.25 -1.05)"/><rect class="cls-15" x="8.61" y="138.53" width="32.57" height="11.87" rx="2.83"/><path class="cls-7" d="M23.46 142.17h-1.45l.15-.69h1.45l-.15.69zM23.09 143.95h-2.4l.14-.69h2.4l-.14.69zM22.71 145.73h-3.35l.15-.69h3.35l-.15.69zM22.34 147.5h-4.3l.15-.68h4.29l-.14.68z"/><path class="cls-16" d="M11.13 139.49a8.29 8.29 0 00-.83.31.41.41 0 01-.22 0l-1.39-1a.66.66 0 00-.74 0l-.91.76a.65.65 0 00-.15.73l.77 1.54a.22.22 0 010 .22 7.44 7.44 0 00-.44.78.28.28 0 01-.22.17H5.3a.66.66 0 00-.56.49l-.2 1.17a.62.62 0 00.35.65l1.58.68a.28.28 0 01.14.18 6.47 6.47 0 00.15.88.26.26 0 010 .21l-1.26 1.19a.64.64 0 00-.11.74l.59 1a.6.6 0 00.69.27l1.6-.46a.24.24 0 01.23.06 6 6 0 00.67.56.25.25 0 01.09.2l-.2 1.73a.64.64 0 00.39.63l1.11.4a.65.65 0 00.71-.23l.94-1.44a.23.23 0 01.21-.1h.88a.26.26 0 01.2.1l1 1.45a.63.63 0 00.7.23l1.11-.4a.64.64 0 00.39-.63l-.2-1.71a.31.31 0 01.09-.22 5.27 5.27 0 00.68-.57.23.23 0 01.21-.05l1.66.49a.63.63 0 00.69-.27l.59-1a.64.64 0 00-.1-.74L19 147.28a.23.23 0 01-.07-.22 8.72 8.72 0 00.16-.89.22.22 0 01.12-.16l1.59-.69a.62.62 0 00.35-.65L21 143.5a.66.66 0 00-.56-.49l-1.71-.1a.28.28 0 01-.2-.13 6.06 6.06 0 00-.45-.78.23.23 0 010-.2l.78-1.55a.65.65 0 00-.15-.73l-.91-.76a.63.63 0 00-.74 0l-1.38 1a.31.31 0 01-.23 0 6 6 0 00-.84-.3.28.28 0 01-.15-.15l-.4-1.69a.63.63 0 00-.58-.46h-1.21a.63.63 0 00-.58.46l-.4 1.67a.24.24 0 01-.16.2z" transform="translate(-4.25 -1.05)"/><path class="cls-17" d="M12.86 140.45a5.07 5.07 0 105.07 5.07 5.07 5.07 0 00-5.07-5.07z" transform="translate(-4.25 -1.05)"/><rect class="cls-15" x="54.36" y="138.53" width="32.57" height="11.87" rx="2.83"/><path class="cls-7" d="M69.21 142.17h-1.45l.15-.69h1.45l-.15.69zM68.84 143.95h-2.4l.14-.69h2.4l-.14.69zM68.46 145.73h-3.35l.15-.69h3.35l-.15.69zM68.09 147.5h-4.3l.15-.68h4.29l-.14.68z"/><path class="cls-16" d="M56.88 139.49a8.29 8.29 0 00-.83.31.41.41 0 01-.22 0l-1.39-1a.66.66 0 00-.74 0l-.91.76a.65.65 0 00-.15.73l.77 1.54a.22.22 0 010 .22 7.44 7.44 0 00-.44.78.28.28 0 01-.18.12l-1.73.1a.66.66 0 00-.56.49l-.2 1.17a.62.62 0 00.35.65l1.58.68a.28.28 0 01.14.18 6.47 6.47 0 00.15.88.26.26 0 010 .21l-1.26 1.19a.64.64 0 00-.11.74l.59 1a.6.6 0 00.69.27L54 150a.24.24 0 01.23.06 6 6 0 00.67.56.25.25 0 01.09.2l-.2 1.73a.64.64 0 00.39.63l1.11.4a.65.65 0 00.71-.23l.94-1.44a.23.23 0 01.21-.1H59a.26.26 0 01.2.1l1 1.45a.63.63 0 00.7.23l1.11-.4a.64.64 0 00.39-.63l-.2-1.71a.31.31 0 01.09-.22 5.27 5.27 0 00.68-.57.23.23 0 01.21-.05l1.66.49a.63.63 0 00.69-.27l.59-1a.64.64 0 00-.1-.74l-1.25-1.18a.23.23 0 01-.07-.22 8.72 8.72 0 00.16-.89.21.21 0 01.14-.2l1.59-.69a.62.62 0 00.35-.65l-.2-1.17a.66.66 0 00-.56-.49l-1.71-.1a.28.28 0 01-.2-.13 6.06 6.06 0 00-.45-.78.23.23 0 010-.2l.78-1.55a.65.65 0 00-.15-.73l-.91-.76a.63.63 0 00-.74 0l-1.38 1a.31.31 0 01-.23 0 6 6 0 00-.84-.3.28.28 0 01-.15-.15l-.4-1.69a.63.63 0 00-.58-.46H58a.63.63 0 00-.58.46l-.4 1.67a.26.26 0 01-.14.21z" transform="translate(-4.25 -1.05)"/><path class="cls-17" d="M58.61 140.45a5.07 5.07 0 105.07 5.07 5.07 5.07 0 00-5.07-5.07z" transform="translate(-4.25 -1.05)"/><rect class="cls-15" x="54.36" y="159.28" width="32.57" height="11.87" rx="2.83"/><path class="cls-7" d="M69.21 162.92h-1.45l.15-.69h1.45l-.15.69zM68.84 164.7h-2.4l.14-.69h2.4l-.14.69zM68.46 166.48h-3.35l.15-.69h3.35l-.15.69zM68.09 168.25h-4.3l.15-.68h4.29l-.14.68z"/><path class="cls-16" d="M56.88 160.24a8.29 8.29 0 00-.83.31.41.41 0 01-.22 0l-1.39-1a.66.66 0 00-.74 0l-.91.76a.65.65 0 00-.15.73l.77 1.54a.22.22 0 010 .22 7.44 7.44 0 00-.44.78.28.28 0 01-.18.12l-1.73.1a.66.66 0 00-.56.49l-.2 1.17a.62.62 0 00.35.65l1.58.68a.28.28 0 01.14.18 6.47 6.47 0 00.15.88.26.26 0 010 .21l-1.26 1.19a.64.64 0 00-.11.74l.59 1a.6.6 0 00.69.27l1.65-.49a.24.24 0 01.23.06 6 6 0 00.67.56.25.25 0 01.09.2l-.2 1.73a.64.64 0 00.39.63l1.11.4a.65.65 0 00.71-.23l.94-1.44a.23.23 0 01.21-.1h.88a.26.26 0 01.2.1l1 1.45a.63.63 0 00.7.23l1.11-.4a.64.64 0 00.39-.63l-.2-1.71a.31.31 0 01.09-.22 5.27 5.27 0 00.68-.57.23.23 0 01.21-.05l1.66.49a.63.63 0 00.69-.27l.59-1a.64.64 0 00-.1-.74L64.78 168a.23.23 0 01-.07-.22 8.72 8.72 0 00.16-.89.22.22 0 01.12-.16l1.59-.69a.62.62 0 00.35-.65l-.2-1.17a.66.66 0 00-.56-.49l-1.71-.1a.28.28 0 01-.2-.13 6.06 6.06 0 00-.45-.78.23.23 0 010-.2l.78-1.55a.65.65 0 00-.15-.73l-.91-.76a.63.63 0 00-.74 0l-1.38 1a.31.31 0 01-.23 0 6 6 0 00-.84-.3.28.28 0 01-.15-.15l-.4-1.69a.63.63 0 00-.58-.46H58a.63.63 0 00-.58.46L57 160a.24.24 0 01-.12.24z" transform="translate(-4.25 -1.05)"/><path class="cls-17" d="M58.61 161.2a5.07 5.07 0 105.07 5.07 5.07 5.07 0 00-5.07-5.07z" transform="translate(-4.25 -1.05)"/><rect class="cls-15" x="147.07" y="180.83" width="32.57" height="11.88" rx="2.83"/><path class="cls-7" d="M161.93 184.46h-1.46l.15-.68h1.45l-.14.68zM161.55 186.24h-2.4l.15-.69h2.4l-.15.69zM161.18 188.02h-3.35l.15-.69h3.34l-.14.69zM160.8 189.79h-4.29l.14-.68h4.3l-.15.68z"/><path class="cls-16" d="M149.59 181.79a6.34 6.34 0 00-.83.3.2.2 0 01-.21 0l-1.4-1a.66.66 0 00-.74 0l-.9.76a.64.64 0 00-.15.73l.77 1.54a.28.28 0 010 .22 6.06 6.06 0 00-.45.78.23.23 0 01-.18.12l-1.73.11a.61.61 0 00-.55.49L143 187a.65.65 0 00.35.65l1.58.69a.26.26 0 01.14.17 6.49 6.49 0 00.16.88.26.26 0 01-.06.21l-1.26 1.2a.62.62 0 00-.11.73l.59 1a.63.63 0 00.69.28l1.65-.5a.32.32 0 01.23.06 7.1 7.1 0 00.67.56.26.26 0 01.1.2l-.2 1.73a.63.63 0 00.39.63l1.1.4a.63.63 0 00.71-.23l.94-1.44a.32.32 0 01.22-.1h.88a.26.26 0 01.2.1l.95 1.45a.63.63 0 00.7.23l1.12-.4a.63.63 0 00.38-.63l-.19-1.71a.26.26 0 01.09-.22 6 6 0 00.67-.56.25.25 0 01.22-.06l1.66.5a.63.63 0 00.69-.28l.59-1a.64.64 0 00-.11-.74l-1.25-1.18a.26.26 0 01-.07-.22 5.24 5.24 0 00.16-.88.3.3 0 01.12-.17l1.59-.69a.64.64 0 00.36-.65l-.21-1.16a.64.64 0 00-.55-.5l-1.72-.1a.28.28 0 01-.2-.13 7.3 7.3 0 00-.44-.77.37.37 0 010-.21l.78-1.55a.64.64 0 00-.15-.73l-.9-.76a.66.66 0 00-.74 0l-1.38 1a.33.33 0 01-.24 0c-.27-.11-.54-.21-.83-.3a.23.23 0 01-.15-.15l-.41-1.69a.63.63 0 00-.58-.46h-1.18a.63.63 0 00-.58.46l-.4 1.68a.25.25 0 01-.18.15z" transform="translate(-4.25 -1.05)"/><path class="cls-17" d="M151.32 182.74a5.08 5.08 0 105.07 5.09 5.07 5.07 0 00-5.07-5.07z" transform="translate(-4.25 -1.05)"/><rect class="cls-15" x="207.25" y="180.83" width="32.57" height="11.88" rx="2.83"/><path class="cls-7" d="M222.1 184.46h-1.45l.15-.68h1.45l-.15.68zM221.73 186.24h-2.4l.15-.69h2.4l-.15.69zM221.35 188.02h-3.34l.14-.69h3.35l-.15.69zM220.98 189.79h-4.29l.14-.68h4.29l-.14.68z"/><path class="cls-16" d="M209.77 181.79a6.34 6.34 0 00-.83.3.2.2 0 01-.21 0l-1.4-1a.66.66 0 00-.74 0l-.9.76a.64.64 0 00-.15.73l.77 1.54a.28.28 0 010 .22 7.44 7.44 0 00-.44.78.23.23 0 01-.18.12l-1.73.11a.61.61 0 00-.55.49l-.21 1.16a.65.65 0 00.35.65l1.58.69a.26.26 0 01.14.17 5.24 5.24 0 00.16.88.26.26 0 01-.06.21l-1.26 1.2a.62.62 0 00-.11.73l.59 1a.63.63 0 00.69.28l1.65-.5a.32.32 0 01.23.06 7.1 7.1 0 00.67.56.25.25 0 01.09.2l-.19 1.73a.61.61 0 00.38.63l1.11.4a.63.63 0 00.71-.23l.94-1.44a.32.32 0 01.22-.1h.91a.26.26 0 01.2.1l1 1.45a.63.63 0 00.7.23l1.11-.4a.62.62 0 00.39-.63l-.2-1.71a.26.26 0 01.1-.22 7.1 7.1 0 00.67-.56.26.26 0 01.21-.06l1.67.5a.62.62 0 00.68-.28l.6-1a.64.64 0 00-.11-.74l-1.25-1.18a.26.26 0 01-.07-.22 6.49 6.49 0 00.16-.88.26.26 0 01.12-.17l1.59-.69a.64.64 0 00.36-.65l-.21-1.16a.64.64 0 00-.55-.5l-1.72-.1a.28.28 0 01-.2-.13 7.3 7.3 0 00-.44-.77.26.26 0 010-.21l.78-1.55a.65.65 0 00-.15-.73l-.9-.76a.65.65 0 00-.75 0l-1.38 1a.31.31 0 01-.23 0c-.27-.11-.55-.21-.83-.3a.23.23 0 01-.15-.15l-.41-1.69a.63.63 0 00-.58-.46H211a.63.63 0 00-.58.46l-.4 1.68a.27.27 0 01-.25.15z" transform="translate(-4.25 -1.05)"/><path class="cls-17" d="M211.5 182.74a5.08 5.08 0 105.07 5.09 5.07 5.07 0 00-5.07-5.07z" transform="translate(-4.25 -1.05)"/><rect class="cls-15" x="265.36" y="180.83" width="32.57" height="11.88" rx="2.83"/><path class="cls-7" d="M280.21 184.46h-1.46l.15-.68h1.45l-.14.68zM279.83 186.24h-2.4l.15-.69h2.4l-.15.69zM279.46 188.02h-3.35l.15-.69h3.34l-.14.69zM279.08 189.79h-4.29l.14-.68h4.3l-.15.68z"/><path class="cls-16" d="M267.87 181.79a6.34 6.34 0 00-.83.3.2.2 0 01-.21 0l-1.4-1a.66.66 0 00-.74 0l-.9.76a.64.64 0 00-.15.73l.77 1.54a.28.28 0 010 .22 6 6 0 00-.44.78.28.28 0 01-.19.12l-1.73.11a.61.61 0 00-.55.49l-.21 1.16a.65.65 0 00.35.65l1.58.69a.24.24 0 01.14.17 6.49 6.49 0 00.16.88.26.26 0 01-.06.21l-1.26 1.2a.62.62 0 00-.11.73l.59 1a.63.63 0 00.69.28l1.65-.5a.32.32 0 01.23.06 7.1 7.1 0 00.67.56.26.26 0 01.1.2l-.2 1.73a.63.63 0 00.39.63l1.1.4a.63.63 0 00.71-.23l1-1.44a.28.28 0 01.21-.1h.88a.26.26 0 01.2.1l.95 1.45a.65.65 0 00.71.23l1.11-.4a.63.63 0 00.38-.63l-.19-1.71a.26.26 0 01.09-.22 6 6 0 00.67-.56.25.25 0 01.22-.06l1.66.5a.63.63 0 00.69-.28l.59-1a.64.64 0 00-.11-.74l-1.25-1.18a.26.26 0 01-.07-.22 5.24 5.24 0 00.16-.88.3.3 0 01.12-.17l1.59-.69a.64.64 0 00.36-.65l-.21-1.16a.63.63 0 00-.55-.5l-1.72-.1a.28.28 0 01-.2-.13 7.3 7.3 0 00-.44-.77.37.37 0 010-.21l.78-1.55a.64.64 0 00-.15-.73l-.9-.76a.66.66 0 00-.74 0l-1.38 1a.33.33 0 01-.24 0c-.27-.11-.54-.21-.83-.3a.23.23 0 01-.15-.15l-.4-1.69a.63.63 0 00-.58-.46H269a.63.63 0 00-.58.46l-.39 1.68a.29.29 0 01-.16.15z" transform="translate(-4.25 -1.05)"/><path class="cls-17" d="M269.61 182.74a5.08 5.08 0 105.06 5.1 5.07 5.07 0 00-5.06-5.1z" transform="translate(-4.25 -1.05)"/><rect class="cls-15" x="264.52" y="60.88" width="32.57" height="11.87" rx="2.83"/><path class="cls-7" d="M279.37 64.51h-1.45l.14-.68h1.46l-.15.68zM279 66.29h-2.4l.14-.69h2.4l-.14.69zM278.62 68.07h-3.35l.15-.69h3.35l-.15.69zM278.25 69.84h-4.3l.15-.68h4.29l-.14.68z"/><path class="cls-16" d="M267 61.84a6.34 6.34 0 00-.83.3.41.41 0 01-.22 0l-1.39-1a.66.66 0 00-.74 0l-.91.76a.65.65 0 00-.15.73l.77 1.54a.22.22 0 010 .22 7.44 7.44 0 00-.44.78.28.28 0 01-.18.12l-1.73.1a.65.65 0 00-.56.5l-.2 1.16a.61.61 0 00.35.65l1.58.69a.26.26 0 01.14.17 6.47 6.47 0 00.15.88.23.23 0 01-.05.21l-1.26 1.2a.62.62 0 00-.11.73l.59 1a.6.6 0 00.69.27l1.65-.49a.27.27 0 01.23.06 6 6 0 00.67.56.25.25 0 01.09.2l-.2 1.73a.63.63 0 00.39.63l1.11.4a.62.62 0 00.7-.23l.95-1.44a.25.25 0 01.21-.1h.88a.26.26 0 01.2.1l1 1.45a.63.63 0 00.7.23l1.11-.4a.63.63 0 00.39-.63l-.2-1.71a.31.31 0 01.09-.22 5.27 5.27 0 00.68-.57.26.26 0 01.21 0l1.66.49a.63.63 0 00.69-.27l.59-1a.64.64 0 00-.1-.74l-1.2-1.18a.23.23 0 01-.07-.22 6.49 6.49 0 00.16-.88.24.24 0 01.12-.17l1.59-.69a.62.62 0 00.35-.65L276.9 66a.65.65 0 00-.56-.5l-1.71-.1a.28.28 0 01-.2-.13 5.35 5.35 0 00-.45-.77.26.26 0 010-.21l.78-1.55a.65.65 0 00-.15-.73l-.91-.76a.66.66 0 00-.74 0l-1.38 1a.31.31 0 01-.23 0c-.27-.11-.55-.21-.83-.3a.26.26 0 01-.16-.15l-.4-1.69a.63.63 0 00-.58-.46h-1.18a.63.63 0 00-.58.46l-.4 1.67a.27.27 0 01-.22.06z" transform="translate(-4.25 -1.05)"/><path class="cls-17" d="M268.77 62.79a5.07 5.07 0 105.07 5.07 5.07 5.07 0 00-5.07-5.07z" transform="translate(-4.25 -1.05)"/><rect class="cls-15" x="212.57" y="147.3" width="32.57" height="11.87" rx="2.83"/><path class="cls-7" d="M227.42 150.94h-1.45l.15-.69h1.45l-.15.69zM227.05 152.72h-2.4l.14-.69h2.4l-.14.69zM226.67 154.49h-3.35l.15-.68h3.35l-.15.68zM226.3 156.27H222l.15-.69h4.29l-.14.69z"/><path class="cls-16" d="M215.09 148.26a8.29 8.29 0 00-.83.31.41.41 0 01-.22 0l-1.39-1a.66.66 0 00-.74 0l-.91.76a.65.65 0 00-.15.73l.77 1.54a.22.22 0 010 .22 7.3 7.3 0 00-.44.77.23.23 0 01-.18.13l-1.73.1a.64.64 0 00-.55.49l-.21 1.17a.63.63 0 00.35.65l1.58.68a.28.28 0 01.14.18 6.47 6.47 0 00.15.88.23.23 0 010 .21l-1.26 1.19a.64.64 0 00-.11.74l.59 1a.63.63 0 00.69.27l1.65-.49a.24.24 0 01.23.06 6 6 0 00.67.56.25.25 0 01.09.2l-.2 1.72a.66.66 0 00.39.64l1.11.4a.65.65 0 00.71-.23l.94-1.44a.26.26 0 01.21-.11h.88a.26.26 0 01.2.1l1 1.45a.63.63 0 00.7.23l1.11-.4a.65.65 0 00.39-.64l-.2-1.7a.31.31 0 01.09-.22 5.27 5.27 0 00.68-.57.26.26 0 01.21 0l1.67.49a.61.61 0 00.68-.27l.59-1a.64.64 0 00-.1-.74l-1.34-1.27a.28.28 0 01-.07-.23 6.49 6.49 0 00.16-.88.22.22 0 01.12-.16l1.59-.69a.62.62 0 00.35-.65l-.2-1.17a.64.64 0 00-.56-.49l-1.71-.1a.28.28 0 01-.2-.13 6.06 6.06 0 00-.45-.78.23.23 0 010-.2l.78-1.55a.65.65 0 00-.15-.73l-.91-.76a.63.63 0 00-.74 0l-1.38 1a.31.31 0 01-.23 0 6.34 6.34 0 00-.83-.3.23.23 0 01-.15-.15l-.41-1.69a.63.63 0 00-.58-.46h-1.18a.63.63 0 00-.58.46l-.4 1.67a.22.22 0 01-.18.2z" transform="translate(-4.25 -1.05)"/><path class="cls-17" d="M216.82 149.22a5.07 5.07 0 105.07 5.07 5.07 5.07 0 00-5.07-5.07z" transform="translate(-4.25 -1.05)"/><rect class="cls-15" x="212.57" y="126.39" width="32.57" height="11.87" rx="2.83"/><path class="cls-7" d="M227.42 130.03h-1.45l.15-.69h1.45l-.15.69zM227.05 131.8h-2.4l.14-.68h2.4l-.14.68zM226.67 133.58h-3.35l.15-.69h3.35l-.15.69zM226.3 135.36H222l.15-.69h4.29l-.14.69z"/><path class="cls-16" d="M215.09 127.35a6.34 6.34 0 00-.83.3.28.28 0 01-.22 0l-1.39-1a.63.63 0 00-.74 0l-.91.76a.66.66 0 00-.15.72l.77 1.54a.24.24 0 010 .23 7.3 7.3 0 00-.44.77.24.24 0 01-.18.13l-1.73.1a.64.64 0 00-.55.49l-.21 1.16a.66.66 0 00.35.66l1.58.68a.28.28 0 01.14.18 6.47 6.47 0 00.15.88.23.23 0 010 .21l-1.26 1.19a.62.62 0 00-.11.73l.59 1a.63.63 0 00.69.27l1.65-.49a.31.31 0 01.23 0 5.18 5.18 0 00.67.57.25.25 0 01.09.2l-.2 1.72a.66.66 0 00.39.63l1.11.41a.65.65 0 00.71-.24l.94-1.43a.26.26 0 01.21-.11h.88a.25.25 0 01.2.09l1 1.45a.64.64 0 00.7.24l1.11-.41a.63.63 0 00.39-.63l-.2-1.71a.31.31 0 01.09-.22 6.13 6.13 0 00.68-.56.26.26 0 01.21-.06l1.67.5a.63.63 0 00.68-.27l.59-1a.62.62 0 00-.1-.73l-1.34-1.16a.28.28 0 01-.07-.23 6.49 6.49 0 00.16-.88.26.26 0 01.12-.17l1.59-.68a.63.63 0 00.35-.66l-.2-1.16a.63.63 0 00-.56-.49l-1.71-.1a.28.28 0 01-.2-.13 6.06 6.06 0 00-.45-.78.34.34 0 010-.2l.78-1.56a.63.63 0 00-.15-.72l-.91-.76a.63.63 0 00-.74 0l-1.38 1a.24.24 0 01-.23 0 6.34 6.34 0 00-.83-.3.26.26 0 01-.15-.16l-.41-1.68a.63.63 0 00-.58-.46h-1.18a.63.63 0 00-.58.46l-.4 1.67a.26.26 0 01-.18.2z" transform="translate(-4.25 -1.05)"/><path class="cls-17" d="M216.82 128.31a5.07 5.07 0 105.07 5.07 5.07 5.07 0 00-5.07-5.07z" transform="translate(-4.25 -1.05)"/><rect class="cls-15" x="110.36" y="120.28" width="32.57" height="11.88" rx="2.83"/><path class="cls-7" d="M125.21 123.92h-1.45l.15-.69h1.45l-.15.69zM124.84 125.7h-2.4l.14-.69h2.4l-.14.69zM124.46 127.48h-3.35l.15-.69h3.35l-.15.69zM124.09 129.25h-4.3l.15-.69h4.29l-.14.69z"/><path class="cls-16" d="M112.88 121.24a8.29 8.29 0 00-.83.31.41.41 0 01-.22 0l-1.39-1a.66.66 0 00-.74 0l-.91.76a.65.65 0 00-.15.73l.77 1.54a.22.22 0 010 .22 8.46 8.46 0 00-.44.77.24.24 0 01-.18.13l-1.73.1a.66.66 0 00-.56.49l-.2 1.17a.62.62 0 00.35.65l1.58.68a.28.28 0 01.14.18 6.47 6.47 0 00.15.88.23.23 0 010 .21l-1.26 1.19a.64.64 0 00-.11.74l.59 1a.63.63 0 00.69.27l1.65-.49a.24.24 0 01.23.06 6 6 0 00.67.56.25.25 0 01.09.2l-.2 1.73a.64.64 0 00.39.63l1.11.4a.65.65 0 00.71-.23l.94-1.44a.23.23 0 01.21-.1h.88a.26.26 0 01.2.1l1 1.45a.63.63 0 00.7.23l1.11-.4a.66.66 0 00.39-.63l-.2-1.71a.31.31 0 01.09-.22 5.27 5.27 0 00.68-.57.23.23 0 01.21-.05l1.66.49a.63.63 0 00.69-.27l.59-1a.64.64 0 00-.1-.74l-1.3-1.26a.23.23 0 01-.07-.22 8.72 8.72 0 00.16-.89.2.2 0 01.12-.16l1.59-.69a.62.62 0 00.35-.65l-.2-1.17a.66.66 0 00-.56-.49l-1.71-.1a.28.28 0 01-.2-.13 6.06 6.06 0 00-.45-.78.23.23 0 010-.2l.78-1.55a.65.65 0 00-.15-.73l-.91-.76a.63.63 0 00-.74 0l-1.38 1a.31.31 0 01-.23 0 6 6 0 00-.84-.3.28.28 0 01-.15-.15l-.4-1.69a.63.63 0 00-.58-.46H114a.63.63 0 00-.58.46L113 121a.24.24 0 01-.12.24z" transform="translate(-4.25 -1.05)"/><path class="cls-17" d="M114.61 122.2a5.07 5.07 0 105.07 5.07 5.07 5.07 0 00-5.07-5.07z" transform="translate(-4.25 -1.05)"/><rect class="cls-15" x="21.61" y="117.78" width="32.57" height="11.87" rx="2.83"/><path class="cls-7" d="M36.46 121.42h-1.45l.15-.69h1.45l-.15.69zM36.09 123.2h-2.4l.14-.69h2.4l-.14.69zM35.71 124.98h-3.35l.15-.69h3.35l-.15.69zM35.34 126.75h-4.3l.15-.69h4.29l-.14.69z"/><path class="cls-16" d="M24.13 118.74a8.29 8.29 0 00-.83.31.41.41 0 01-.22 0l-1.39-1a.66.66 0 00-.74 0l-.91.76a.65.65 0 00-.15.73l.77 1.54a.22.22 0 010 .22 8.46 8.46 0 00-.44.77.24.24 0 01-.18.13l-1.73.1a.66.66 0 00-.56.49l-.2 1.17a.62.62 0 00.35.65l1.58.68a.28.28 0 01.14.18 6.47 6.47 0 00.15.88.23.23 0 01-.05.21l-1.26 1.19a.64.64 0 00-.11.74l.59 1a.63.63 0 00.69.27l1.65-.49a.24.24 0 01.23.06 6 6 0 00.67.56.25.25 0 01.09.2l-.2 1.73a.64.64 0 00.39.63l1.11.4a.65.65 0 00.71-.23l.94-1.44a.23.23 0 01.21-.1h.88a.26.26 0 01.2.1l1 1.45a.63.63 0 00.7.23l1.11-.4a.64.64 0 00.39-.63l-.2-1.71a.31.31 0 01.09-.22 5.27 5.27 0 00.68-.57.23.23 0 01.21-.05l1.66.49a.63.63 0 00.69-.27l.59-1a.64.64 0 00-.1-.74L32 126.53a.23.23 0 01-.07-.22 8.72 8.72 0 00.16-.89.2.2 0 01.12-.16l1.59-.69a.62.62 0 00.35-.65l-.2-1.17a.66.66 0 00-.56-.49l-1.71-.1a.28.28 0 01-.2-.13 6.06 6.06 0 00-.45-.78.23.23 0 010-.2l.78-1.55a.65.65 0 00-.15-.73l-.91-.76a.63.63 0 00-.74 0l-1.38 1a.31.31 0 01-.23 0 6 6 0 00-.84-.3.28.28 0 01-.15-.15L27 116.9a.63.63 0 00-.58-.46h-1.15a.63.63 0 00-.58.46l-.4 1.67a.25.25 0 01-.16.17z" transform="translate(-4.25 -1.05)"/><path class="cls-17" d="M25.86 119.7a5.07 5.07 0 105.07 5.07 5.07 5.07 0 00-5.07-5.07z" transform="translate(-4.25 -1.05)"/><rect class="cls-15" x="47.98" y="81.12" width="32.57" height="11.87" rx="2.83"/><path class="cls-7" d="M62.83 84.76h-1.45l.15-.69h1.45l-.15.69zM62.46 86.54h-2.4l.14-.69h2.41l-.15.69zM62.08 88.31h-3.34l.14-.69h3.35l-.15.69zM61.71 90.09h-4.3l.15-.69h4.29l-.14.69z"/><path class="cls-16" d="M50.5 82.08a6.39 6.39 0 00-.83.31.26.26 0 01-.21 0l-1.4-1a.63.63 0 00-.74 0l-.9.76a.64.64 0 00-.15.73l.73 1.49a.24.24 0 010 .23 7.3 7.3 0 00-.44.77.23.23 0 01-.18.13l-1.73.1a.64.64 0 00-.55.49l-.21 1.17a.65.65 0 00.35.65l1.58.68a.28.28 0 01.14.18 6.47 6.47 0 00.15.88.23.23 0 010 .21l-1.31 1.19a.64.64 0 00-.11.74l.59 1a.63.63 0 00.69.27l1.65-.49a.24.24 0 01.23.06 6 6 0 00.67.56.25.25 0 01.09.2l-.19 1.72a.65.65 0 00.38.64l1.11.4a.65.65 0 00.71-.23l.94-1.44a.26.26 0 01.21-.11h.88a.26.26 0 01.2.1l1 1.44a.62.62 0 00.7.24l1.11-.41a.63.63 0 00.39-.63l-.2-1.71a.3.3 0 01.1-.22 7.1 7.1 0 00.67-.56.26.26 0 01.21-.06l1.67.5a.61.61 0 00.68-.27l.6-1a.65.65 0 00-.11-.74l-1.27-1.18a.28.28 0 01-.07-.23 6.49 6.49 0 00.16-.88.22.22 0 01.12-.16l1.59-.69a.62.62 0 00.35-.65l-.2-1.17a.64.64 0 00-.56-.49l-1.71-.1a.28.28 0 01-.2-.13 7.44 7.44 0 00-.44-.78.23.23 0 010-.2l.78-1.55a.65.65 0 00-.15-.73l-.91-.76a.63.63 0 00-.74 0l-1.38 1a.31.31 0 01-.23 0 6.34 6.34 0 00-.83-.3.23.23 0 01-.15-.15l-.41-1.69a.63.63 0 00-.58-.46h-1.2a.63.63 0 00-.58.46l-.4 1.67a.24.24 0 01-.16.2z" transform="translate(-4.25 -1.05)"/><path class="cls-17" d="M52.23 83a5.07 5.07 0 105.07 5.07A5.07 5.07 0 0052.23 83z" transform="translate(-4.25 -1.05)"/><rect class="cls-15" x="99.28" y="81.12" width="32.57" height="11.87" rx="2.83"/><path class="cls-7" d="M114.13 84.76h-1.45l.14-.69h1.46l-.15.69zM113.75 86.54h-2.4l.15-.69h2.4l-.15.69zM113.38 88.31h-3.35l.15-.69h3.35l-.15.69zM113 90.09h-4.29l.14-.69h4.3l-.15.69z"/><path class="cls-16" d="M101.79 82.08a6.39 6.39 0 00-.83.31.26.26 0 01-.21 0l-1.39-1a.6.6 0 00-.74 0l-.91.76a.64.64 0 00-.15.73l.77 1.53a.24.24 0 010 .23 4.51 4.51 0 00-.44.77.24.24 0 01-.18.13L96 85.6a.64.64 0 00-.55.49l-.2 1.17a.62.62 0 00.35.65l1.58.68a.27.27 0 01.13.18 6.49 6.49 0 00.16.88.26.26 0 01-.06.21l-1.26 1.19a.64.64 0 00-.11.74l.59 1a.63.63 0 00.69.27l1.68-.49a.24.24 0 01.23.06 6.13 6.13 0 00.68.56.25.25 0 01.09.2l-.2 1.72a.65.65 0 00.39.64l1.11.4a.63.63 0 00.7-.23l1-1.44a.26.26 0 01.21-.11h.79a.26.26 0 01.2.1l1 1.44a.65.65 0 00.71.24l1.11-.41a.63.63 0 00.39-.63l-.2-1.71a.27.27 0 01.09-.22 6.13 6.13 0 00.68-.56.26.26 0 01.21-.06l1.66.5a.63.63 0 00.69-.27l.59-1a.64.64 0 00-.11-.74l-1.25-1.18a.27.27 0 01-.06-.23 6.47 6.47 0 00.15-.88.25.25 0 01.12-.16l1.6-.69a.65.65 0 00.35-.65l-.21-1.17a.64.64 0 00-.55-.49l-1.72-.1a.26.26 0 01-.19-.13 6.06 6.06 0 00-.45-.78.23.23 0 010-.2l.77-1.55a.64.64 0 00-.15-.73l-.9-.76a.63.63 0 00-.74 0l-1.38 1a.33.33 0 01-.24 0 6.34 6.34 0 00-.83-.3.28.28 0 01-.15-.15l-.4-1.69a.63.63 0 00-.58-.46H103a.63.63 0 00-.58.46l-.4 1.67a.26.26 0 01-.23.2z" transform="translate(-4.25 -1.05)"/><path class="cls-17" d="M103.53 83a5.07 5.07 0 105.07 5.07 5.07 5.07 0 00-5.07-5.07z" transform="translate(-4.25 -1.05)"/><rect class="cls-15" x="99.28" y="100.12" width="32.57" height="11.87" rx="2.83"/><path class="cls-7" d="M114.13 103.76h-1.45l.14-.69h1.46l-.15.69zM113.75 105.54h-2.4l.15-.69h2.4l-.15.69zM113.38 107.31h-3.35l.15-.69h3.35l-.15.69zM113 109.09h-4.29l.14-.69h4.3l-.15.69z"/><path class="cls-16" d="M101.79 101.08a6.39 6.39 0 00-.83.31.26.26 0 01-.21 0l-1.39-1a.6.6 0 00-.74 0l-.91.76a.64.64 0 00-.15.73l.77 1.53a.24.24 0 010 .23 4.51 4.51 0 00-.44.77.24.24 0 01-.18.13l-1.74.1a.64.64 0 00-.55.49l-.2 1.17a.62.62 0 00.35.65l1.58.68a.27.27 0 01.13.18 6.49 6.49 0 00.16.88.26.26 0 01-.06.21l-1.26 1.19a.64.64 0 00-.11.74l.59 1a.63.63 0 00.69.27l1.65-.49a.24.24 0 01.23.06 6.13 6.13 0 00.68.56.25.25 0 01.09.2l-.2 1.72a.65.65 0 00.39.64l1.11.4a.63.63 0 00.7-.23l1-1.44a.26.26 0 01.21-.11h.85a.26.26 0 01.2.1l1 1.44a.65.65 0 00.71.24l1.11-.41a.63.63 0 00.39-.63l-.2-1.71a.27.27 0 01.09-.22 6.13 6.13 0 00.68-.56.26.26 0 01.21-.06l1.66.5a.63.63 0 00.69-.27l.59-1a.64.64 0 00-.11-.74l-1.25-1.18a.27.27 0 01-.06-.23 6.47 6.47 0 00.15-.88.25.25 0 01.12-.16l1.6-.69a.65.65 0 00.35-.65l-.21-1.17a.64.64 0 00-.55-.49l-1.72-.1a.26.26 0 01-.19-.13 6.06 6.06 0 00-.45-.78.23.23 0 010-.2l.77-1.55a.64.64 0 00-.15-.73l-.9-.76a.63.63 0 00-.74 0l-1.38 1a.33.33 0 01-.24 0 6.34 6.34 0 00-.83-.3.28.28 0 01-.15-.15l-.4-1.69a.63.63 0 00-.58-.46H103a.63.63 0 00-.58.46l-.4 1.67a.26.26 0 01-.23.16z" transform="translate(-4.25 -1.05)"/><path class="cls-17" d="M103.53 102a5.07 5.07 0 105.07 5.07 5.07 5.07 0 00-5.07-5.07z" transform="translate(-4.25 -1.05)"/><path class="cls-14" d="M137.69 28.78h-11.17a5.94 5.94 0 000 11.88h11.17a2.85 2.85 0 002.83-2.84v-6.2a2.85 2.85 0 00-2.83-2.84z" transform="translate(-4.25 -1.05)"/><path class="cls-15" d="M130.87 34.72a4.35 4.35 0 01-8.69.42 2.94 2.94 0 010-.42 4.28 4.28 0 01.31-1.62.46.46 0 01.59-.25.44.44 0 01.26.57 3.5 3.5 0 00-.24 1.28 3.43 3.43 0 105-3 .46.46 0 01-.19-.62.45.45 0 01.61-.19 4.34 4.34 0 012.35 3.83zm-4.35-3a.67.67 0 10-.67-.67.67.67 0 00.67.66zm0 3.68a.67.67 0 00.67-.67.68.68 0 00-.3-.56l-3.58-2.65 2.69 3.57a.66.66 0 00.52.3z" transform="translate(-4.25 -1.05)"/><path class="cls-14" d="M130.44 181.88h-11.17a5.94 5.94 0 00-.49 11.87h11.66a2.83 2.83 0 002.83-2.83v-6.21a2.83 2.83 0 00-2.83-2.83z" transform="translate(-4.25 -1.05)"/><path class="cls-15" d="M123.61 187.82a4.34 4.34 0 01-8.68 0 4.28 4.28 0 01.31-1.62.45.45 0 01.84.34 3.5 3.5 0 00-.24 1.28 3.43 3.43 0 105-3 .45.45 0 11.42-.8 4.33 4.33 0 012.35 3.8zm-4.34-3a.67.67 0 10-.67-.67.67.67 0 00.67.66zm0 3.68a.67.67 0 00.37-1.23l-3.58-2.66 2.65 3.58a.65.65 0 00.56.3z" transform="translate(-4.25 -1.05)"/><path class="cls-14" d="M246.56 106.53h-11.17a5.94 5.94 0 000 11.87h11.17a2.83 2.83 0 002.83-2.83v-6.21a2.83 2.83 0 00-2.83-2.83z" transform="translate(-4.25 -1.05)"/><path class="cls-15" d="M239.74 112.47a4.35 4.35 0 01-8.69 0 4.53 4.53 0 01.31-1.62.46.46 0 01.62-.2.48.48 0 01.23.54 3.32 3.32 0 00-.25 1.28 3.44 3.44 0 105-3 .45.45 0 11.42-.8 4.32 4.32 0 012.36 3.8zm-4.35-3a.67.67 0 10-.67-.67.67.67 0 00.67.66zm0 3.68a.67.67 0 00.37-1.23l-3.58-2.66 2.65 3.58a.68.68 0 00.56.3z" transform="translate(-4.25 -1.05)"/><rect class="cls-18" x="187.9" y="147.3" width="11.88" height="11.87" rx="2.83"/><rect class="cls-18" x="152.88" y="99.13" width="11.87" height="11.87" rx="2.83"/><rect class="cls-18" x="33.88" y="48.76" width="11.87" height="11.87" rx="2.83"/><path class="cls-18" d="M4.89 9.43l1.58.69a.28.28 0 01.14.18 6.6 6.6 0 00.15.87.28.28 0 010 .22l-1.31 1.19a.62.62 0 00-.11.73l.59 1a.63.63 0 00.69.28l1.65-.49a.28.28 0 01.23.05c.21.2.44.39.67.57a.25.25 0 01.09.2l-.2 1.72a.63.63 0 00.39.63l1.11.4a.63.63 0 00.71-.23l.94-1.44a.28.28 0 01.21-.1h.88a.26.26 0 01.2.1l1 1.45a.62.62 0 00.7.23l1.11-.4a.63.63 0 00.39-.63l-.13-1.09h26a2.83 2.83 0 002.83-2.83v-6.2a2.83 2.83 0 00-2.8-2.83H18.73l-.05-.07-.91-.75a.63.63 0 00-.74 0l-1.13.82h-.2a2.74 2.74 0 00-.64.08 4.59 4.59 0 00-.48-.17.29.29 0 01-.15-.16L14 1.76a.63.63 0 00-.58-.46h-1.15a.63.63 0 00-.58.46l-.4 1.68a.25.25 0 01-.16.17 6.34 6.34 0 00-.83.3.28.28 0 01-.22 0l-1.39-1a.63.63 0 00-.74 0L7 3.63a.65.65 0 00-.15.73l.81 1.54a.22.22 0 010 .22 7.44 7.44 0 00-.44.78A.23.23 0 017 7l-1.7.13a.63.63 0 00-.56.49l-.2 1.16a.61.61 0 00.35.65zM96.85 17.46l.94-1.46a.32.32 0 01.22-.1h.87a.26.26 0 01.2.1l1 1.45a.62.62 0 00.7.23l1.11-.4a.63.63 0 00.39-.63l-.12-1.09h26.06a2.83 2.83 0 002.78-2.82V6.53a2.83 2.83 0 00-2.83-2.83h-23.86v-.07l-.9-.75a.63.63 0 00-.74 0l-1.14.85h-.2a2.74 2.74 0 00-.64.08 3.75 3.75 0 00-.47-.17.26.26 0 01-.15-.16l-.41-1.69A.64.64 0 0099 1.3h-1.15a.63.63 0 00-.58.46l-.4 1.68a.25.25 0 01-.16.17 6.34 6.34 0 00-.83.3.2.2 0 01-.21 0l-1.4-1a.63.63 0 00-.74 0l-.9.75a.64.64 0 00-.15.73l.77 1.54a.28.28 0 010 .22 6.06 6.06 0 00-.45.78.22.22 0 01-.18.12l-1.73.11a.61.61 0 00-.55.49l-.21 1.16a.65.65 0 00.35.65l1.58.69a.28.28 0 01.14.18 6.64 6.64 0 00.16.87.29.29 0 01-.06.22L91 12.58a.62.62 0 00-.11.73l.59 1a.63.63 0 00.69.28l1.65-.49a.27.27 0 01.23.05c.21.2.44.39.67.57a.2.2 0 01.09.2l-.19 1.72a.63.63 0 00.39.63l1.1.4a.62.62 0 00.74-.21zM151.4 9.43l1.58.69a.23.23 0 01.13.18 6.64 6.64 0 00.16.87.25.25 0 01-.06.22L152 12.58a.62.62 0 00-.1.73l.59 1a.62.62 0 00.68.28l1.65-.49a.27.27 0 01.23.05c.22.2.44.39.68.57a.25.25 0 01.09.2l-.2 1.72a.63.63 0 00.39.63l1.11.4a.62.62 0 00.7-.23l1-1.44a.28.28 0 01.21-.1h.88a.26.26 0 01.2.1l1 1.45a.62.62 0 00.7.23l1.11-.4a.63.63 0 00.39-.63l-.31-1.08h26.1a2.85 2.85 0 002.84-2.83V6.53a2.85 2.85 0 00-2.84-2.83h-23.86a.08.08 0 00-.06-.07l-.9-.75a.63.63 0 00-.74 0l-1.13.85h-.21a2.72 2.72 0 00-.63.08 4.59 4.59 0 00-.48-.17.29.29 0 01-.15-.16l-.4-1.69a.63.63 0 00-.54-.49h-1.18a.63.63 0 00-.58.46l-.4 1.68a.3.3 0 01-.16.17 6 6 0 00-.84.3.26.26 0 01-.21 0l-1.39-1a.63.63 0 00-.74 0l-.91.75a.64.64 0 00-.15.73l.77 1.54a.22.22 0 010 .22 6 6 0 00-.44.78.23.23 0 01-.18.12l-1.73.11a.63.63 0 00-.56.49l-.2 1.16a.61.61 0 00.3.62zM163.89 48.4a.22.22 0 01-.18.12l-1.73.11a.61.61 0 00-.55.49l-.21 1.16a.64.64 0 00.36.65l1.58.69a.24.24 0 01.13.18 6.64 6.64 0 00.16.87.29.29 0 01-.06.22l-1.26 1.19a.62.62 0 00-.11.73l.59 1a.63.63 0 00.69.28l1.7-.49a.27.27 0 01.23 0c.21.2.44.39.67.57a.2.2 0 01.1.2l-.2 1.72a.63.63 0 00.39.63l1.1.4A.62.62 0 00168 59l.94-1.44a.32.32 0 01.22-.1h.84a.26.26 0 01.2.1l.95 1.45a.62.62 0 00.7.23l1.11-.4a.63.63 0 00.39-.63l-.12-1.09h26.06a2.83 2.83 0 002.83-2.83V48a2.83 2.83 0 00-2.83-2.83h-23.88v-.07l-.9-.75a.63.63 0 00-.74 0l-1.14.85h-.2a2.74 2.74 0 00-.64.08 3.75 3.75 0 00-.47-.17.26.26 0 01-.15-.16l-.41-1.69a.63.63 0 00-.58-.46H169a.63.63 0 00-.58.46l-.4 1.68a.25.25 0 01-.16.17 6.34 6.34 0 00-.83.3.2.2 0 01-.21 0l-1.4-1a.63.63 0 00-.74 0l-.9.75a.64.64 0 00-.15.73l.77 1.54a.28.28 0 010 .22 6.19 6.19 0 00-.51.75zM209.86 78.24V72a2.83 2.83 0 00-2.86-2.8h-23.84v-.07l-.9-.75a.63.63 0 00-.74 0l-1.14.85h-.2a2.74 2.74 0 00-.64.08 3.75 3.75 0 00-.47-.17.26.26 0 01-.15-.16l-.41-1.69a.63.63 0 00-.58-.46h-1.23a.63.63 0 00-.58.46l-.4 1.68a.25.25 0 01-.16.17 6.34 6.34 0 00-.83.3.2.2 0 01-.21 0l-1.4-1a.63.63 0 00-.74 0l-.9.75a.64.64 0 00-.15.73l.77 1.54a.28.28 0 010 .22 6.06 6.06 0 00-.45.78.22.22 0 01-.18.12l-1.73.11a.61.61 0 00-.55.49l-.19 1.1a.64.64 0 00.36.65l1.58.69a.24.24 0 01.13.18 6.64 6.64 0 00.16.87.29.29 0 01-.06.22l-1.26 1.19a.62.62 0 00-.11.73l.59 1a.63.63 0 00.69.28l1.65-.49a.31.31 0 01.23 0c.21.2.44.39.67.57a.2.2 0 01.1.2l-.2 1.72a.63.63 0 00.39.63l1.1.4a.63.63 0 00.71-.23l.94-1.44a.32.32 0 01.22-.1h.88a.26.26 0 01.2.1l.95 1.45a.62.62 0 00.7.23l1.11-.4a.62.62 0 00.39-.63l-.12-1h26a2.83 2.83 0 002.86-2.8zM214.78 107.07a2.83 2.83 0 002.83-2.83V98a2.83 2.83 0 00-2.83-2.83h-23.87v-.07l-.9-.75a.63.63 0 00-.74 0l-1.14.85h-.2a2.74 2.74 0 00-.64.08 3.75 3.75 0 00-.47-.17.26.26 0 01-.15-.16l-.41-1.69a.63.63 0 00-.58-.46h-1.18a.63.63 0 00-.58.46l-.4 1.68a.25.25 0 01-.16.17 6.34 6.34 0 00-.83.3.2.2 0 01-.21 0l-1.4-1a.63.63 0 00-.74 0l-.9.75a.64.64 0 00-.15.73l.77 1.54a.28.28 0 010 .22 6.06 6.06 0 00-.45.78.22.22 0 01-.18.12l-1.73.11a.61.61 0 00-.55.49l-.21 1.16a.64.64 0 00.36.65l1.58.69a.24.24 0 01.13.18 6.64 6.64 0 00.16.87.29.29 0 01-.06.22l-1.26 1.19a.62.62 0 00-.11.73l.59 1a.63.63 0 00.69.28l1.65-.49a.31.31 0 01.23 0c.21.2.44.39.67.57a.2.2 0 01.1.2l-.2 1.72a.63.63 0 00.39.63l1.1.4a.63.63 0 00.71-.23l.94-1.44a.32.32 0 01.22-.1h.88a.26.26 0 01.2.1l.95 1.45a.62.62 0 00.7.23l1.11-.4a.62.62 0 00.39-.63l-.12-1.09zM201.33 9.43l1.58.69a.24.24 0 01.13.18 6.64 6.64 0 00.16.87.29.29 0 01-.06.22l-1.26 1.19a.62.62 0 00-.11.73l.59 1a.63.63 0 00.69.28l1.65-.49a.27.27 0 01.23.05c.21.2.44.39.67.57a.2.2 0 01.1.2l-.2 1.72a.63.63 0 00.39.63l1.1.4a.63.63 0 00.71-.23l.94-1.44a.32.32 0 01.22-.1h.88a.26.26 0 01.2.1l.95 1.45a.62.62 0 00.7.23l1.11-.4a.62.62 0 00.39-.63l-.09-1.08h26a2.83 2.83 0 002.83-2.83V6.53A2.83 2.83 0 00239 3.7h-23.84v-.07l-.9-.75a.63.63 0 00-.74 0l-1.14.85h-.2a2.74 2.74 0 00-.64.08 3.75 3.75 0 00-.47-.17.26.26 0 01-.15-.16l-.41-1.69a.63.63 0 00-.58-.46h-1.23a.63.63 0 00-.58.46l-.4 1.68a.25.25 0 01-.16.17 6.34 6.34 0 00-.83.3.2.2 0 01-.21 0l-1.4-1a.63.63 0 00-.74 0l-.9.75a.64.64 0 00-.15.73L204.1 6a.28.28 0 010 .22 6.06 6.06 0 00-.45.78.22.22 0 01-.18.12l-1.73.11a.61.61 0 00-.55.49L201 8.78a.62.62 0 00.33.65zM4.89 30.18l1.58.69a.28.28 0 01.14.18 6.6 6.6 0 00.15.87.28.28 0 010 .22l-1.31 1.19a.62.62 0 00-.11.73l.59 1a.63.63 0 00.69.28l1.65-.49a.28.28 0 01.23 0c.21.2.44.39.67.57a.25.25 0 01.09.2l-.2 1.72a.63.63 0 00.39.63l1.11.4a.63.63 0 00.71-.23l.94-1.44a.28.28 0 01.21-.1h.88a.26.26 0 01.2.1l1 1.45a.62.62 0 00.7.23l1.11-.4a.63.63 0 00.39-.63l-.13-1.09h26a2.83 2.83 0 002.83-2.83v-6.2a2.83 2.83 0 00-2.83-2.83H18.73l-.05-.07-.91-.75a.63.63 0 00-.74 0l-1.13.85h-.2a2.74 2.74 0 00-.64.08 4.59 4.59 0 00-.48-.17.29.29 0 01-.15-.16L14 22.51a.63.63 0 00-.58-.46h-1.15a.63.63 0 00-.58.46l-.4 1.68a.25.25 0 01-.16.17 6.34 6.34 0 00-.83.3.28.28 0 01-.22 0l-1.39-1a.63.63 0 00-.74 0l-1 .72a.65.65 0 00-.15.73l.77 1.54a.22.22 0 010 .22 7.44 7.44 0 00-.44.78.23.23 0 01-.18.12l-1.73.11a.63.63 0 00-.56.49l-.2 1.16a.61.61 0 00.43.65zM187.64 25.11l.77 1.54a.22.22 0 010 .22 7.44 7.44 0 00-.44.78.23.23 0 01-.18.12l-1.73.11a.61.61 0 00-.55.49l-.21 1.16a.62.62 0 00.35.65l1.58.69a.28.28 0 01.14.18 6.6 6.6 0 00.15.87.28.28 0 010 .22l-1.26 1.19a.62.62 0 00-.11.73l.59 1a.63.63 0 00.69.28l1.65-.49a.28.28 0 01.23 0c.21.2.44.39.67.57a.25.25 0 01.09.2l-.2 1.72a.63.63 0 00.39.63l1.11.4a.63.63 0 00.71-.23l.94-1.44a.28.28 0 01.21-.1h.88a.26.26 0 01.2.1l1 1.45a.62.62 0 00.7.23l1-.43a.63.63 0 00.39-.63l-.13-1.09h26.07a2.83 2.83 0 002.83-2.83v-6.12a2.83 2.83 0 00-2.83-2.83h-23.86v-.07l-.91-.75a.63.63 0 00-.74 0l-1.13.85h-.2a2.74 2.74 0 00-.64.08 4.59 4.59 0 00-.48-.17.29.29 0 01-.15-.16l-.4-1.69a.63.63 0 00-.58-.46H193a.63.63 0 00-.58.46l-.4 1.68a.25.25 0 01-.16.17 6.34 6.34 0 00-.83.3.28.28 0 01-.22 0l-1.39-1a.63.63 0 00-.74 0l-.91.75a.64.64 0 00-.13.67zM42.6 139.58H18.73l-.05-.06-.91-.76a.63.63 0 00-.74 0l-1.13.84h-.2a3.4 3.4 0 00-.64.08c-.16 0-.31-.12-.48-.17a.28.28 0 01-.15-.15l-.4-1.69a.63.63 0 00-.58-.46h-1.18a.63.63 0 00-.58.46l-.4 1.67a.25.25 0 01-.16.17 8.29 8.29 0 00-.83.31.41.41 0 01-.22 0l-1.39-1a.66.66 0 00-.74 0l-.91.76a.65.65 0 00-.15.73l.77 1.54a.22.22 0 010 .22 7.44 7.44 0 00-.44.78.28.28 0 01-.22.15H5.3a.66.66 0 00-.56.49l-.2 1.17a.62.62 0 00.35.65l1.58.68a.28.28 0 01.14.18 6.47 6.47 0 00.15.88.26.26 0 010 .21l-1.26 1.19a.64.64 0 00-.11.74l.59 1a.6.6 0 00.69.27l1.6-.46a.24.24 0 01.23.06 6 6 0 00.67.56.25.25 0 01.09.2l-.2 1.73a.64.64 0 00.39.63l1.11.4a.65.65 0 00.71-.23l.94-1.44a.23.23 0 01.21-.1h.88a.26.26 0 01.2.1l1 1.45a.63.63 0 00.7.23l1.11-.4a.64.64 0 00.39-.63l-.13-1.09h26a2.85 2.85 0 002.83-2.84v-6.2a2.84 2.84 0 00-2.83-2.85zM88.35 139.58H64.48v-.06l-.91-.76a.63.63 0 00-.74 0l-1.13.84h-.2a3.4 3.4 0 00-.64.08c-.16 0-.31-.12-.48-.17a.28.28 0 01-.15-.15l-.4-1.69a.63.63 0 00-.58-.46H58a.63.63 0 00-.58.46l-.4 1.67a.25.25 0 01-.16.17 8.29 8.29 0 00-.83.31.41.41 0 01-.22 0l-1.39-1a.66.66 0 00-.74 0l-.91.76a.65.65 0 00-.15.73l.77 1.54a.22.22 0 010 .22 7.44 7.44 0 00-.44.78.28.28 0 01-.18.12l-1.73.1a.66.66 0 00-.56.49l-.2 1.17a.62.62 0 00.35.65l1.58.68a.28.28 0 01.14.18 6.47 6.47 0 00.15.88.26.26 0 010 .21l-1.26 1.19a.64.64 0 00-.11.74l.59 1a.6.6 0 00.69.27L54 150a.24.24 0 01.23.06 6 6 0 00.67.56.25.25 0 01.09.2l-.2 1.73a.64.64 0 00.39.63l1.11.4a.65.65 0 00.71-.23l.94-1.44a.23.23 0 01.21-.1H59a.26.26 0 01.2.1l1 1.45a.63.63 0 00.7.23l1.11-.4a.64.64 0 00.39-.63l-.13-1.09h26.08a2.85 2.85 0 002.83-2.84v-6.2a2.84 2.84 0 00-2.83-2.85zM88.35 160.33H64.48v-.06l-.91-.76a.63.63 0 00-.74 0l-1.13.84h-.2a3.4 3.4 0 00-.64.08c-.16 0-.31-.12-.48-.17a.28.28 0 01-.15-.15l-.4-1.69a.63.63 0 00-.58-.46H58a.63.63 0 00-.58.46l-.4 1.67a.25.25 0 01-.16.17 8.29 8.29 0 00-.83.31.41.41 0 01-.22 0l-1.39-1a.66.66 0 00-.74 0l-.91.76a.65.65 0 00-.15.73l.77 1.54a.22.22 0 010 .22 7.44 7.44 0 00-.44.78.28.28 0 01-.18.12l-1.73.1a.66.66 0 00-.56.49l-.2 1.17a.62.62 0 00.35.65l1.58.68a.28.28 0 01.14.18 6.47 6.47 0 00.15.88.26.26 0 010 .21l-1.26 1.19a.64.64 0 00-.11.74l.59 1a.6.6 0 00.69.27l1.65-.49a.24.24 0 01.23.06 6 6 0 00.67.56.25.25 0 01.09.2l-.2 1.73a.64.64 0 00.39.63l1.11.4a.65.65 0 00.71-.23l.94-1.44a.23.23 0 01.21-.1h.88a.26.26 0 01.2.1l1 1.45a.63.63 0 00.7.23l1.11-.4a.64.64 0 00.39-.63l-.13-1.09h26a2.85 2.85 0 002.83-2.84v-6.2a2.84 2.84 0 00-2.79-2.89zM181.06 181.88h-23.87l-.05-.07-.9-.76a.66.66 0 00-.74 0l-1.14.85h-.2a2.74 2.74 0 00-.64.08c-.15-.06-.31-.13-.47-.18a.23.23 0 01-.15-.15l-.41-1.69a.63.63 0 00-.58-.46h-1.18a.63.63 0 00-.58.46l-.4 1.68a.25.25 0 01-.16.17 6.34 6.34 0 00-.83.3.2.2 0 01-.21 0l-1.4-1a.66.66 0 00-.74 0l-.9.76a.64.64 0 00-.15.73l.77 1.54a.28.28 0 010 .22 6.06 6.06 0 00-.45.78.23.23 0 01-.18.12l-1.73.11a.61.61 0 00-.55.49L143 187a.65.65 0 00.35.65l1.58.69a.26.26 0 01.14.17 6.49 6.49 0 00.16.88.26.26 0 01-.06.21l-1.26 1.2a.62.62 0 00-.11.73l.59 1a.63.63 0 00.69.28l1.65-.5a.32.32 0 01.23.06 7.1 7.1 0 00.67.56.26.26 0 01.1.2l-.2 1.73a.63.63 0 00.39.63l1.1.4a.63.63 0 00.71-.23l.94-1.44a.32.32 0 01.22-.1h.88a.26.26 0 01.2.1l.95 1.45a.63.63 0 00.7.23l1.12-.4a.63.63 0 00.38-.63l-.12-1.09h26.06a2.85 2.85 0 002.84-2.78v-6.21a2.84 2.84 0 00-2.82-2.86zM241.24 181.88h-23.87l-.05-.07-.9-.76a.65.65 0 00-.75 0l-1.13.85h-.2a2.74 2.74 0 00-.64.08c-.16-.06-.31-.13-.47-.18a.23.23 0 01-.15-.15l-.41-1.69a.63.63 0 00-.58-.46h-1.18a.63.63 0 00-.58.46l-.4 1.68a.25.25 0 01-.16.17 6.34 6.34 0 00-.83.3.2.2 0 01-.21 0l-1.4-1a.66.66 0 00-.74 0l-.9.76a.64.64 0 00-.15.73l.77 1.54a.28.28 0 010 .22 7.44 7.44 0 00-.44.78.23.23 0 01-.18.12l-1.73.11a.61.61 0 00-.55.49l-.21 1.14a.65.65 0 00.35.65l1.58.69a.26.26 0 01.14.17 5.24 5.24 0 00.16.88.26.26 0 01-.06.21l-1.26 1.2a.62.62 0 00-.11.73l.59 1a.63.63 0 00.69.28l1.65-.5a.32.32 0 01.23.06 7.1 7.1 0 00.67.56.25.25 0 01.09.2l-.19 1.73a.61.61 0 00.38.63l1.11.4a.63.63 0 00.71-.23l.94-1.44a.32.32 0 01.22-.1h.91a.26.26 0 01.2.1l1 1.45a.63.63 0 00.7.23l1.11-.4a.62.62 0 00.39-.63l-.12-1.09h26.02a2.83 2.83 0 002.83-2.83v-6.21a2.83 2.83 0 00-2.78-2.88zM299.34 181.88h-23.87l-.05-.07-.9-.76a.66.66 0 00-.74 0l-1.14.85h-.2a2.74 2.74 0 00-.64.08c-.15-.06-.31-.13-.47-.18a.23.23 0 01-.15-.15l-.4-1.69a.63.63 0 00-.58-.46H269a.63.63 0 00-.58.46l-.39 1.68a.29.29 0 01-.17.17 6.34 6.34 0 00-.83.3.2.2 0 01-.21 0l-1.4-1a.66.66 0 00-.74 0l-.9.76a.64.64 0 00-.15.73l.77 1.54a.28.28 0 010 .22 6 6 0 00-.44.78.28.28 0 01-.19.12l-1.73.11a.61.61 0 00-.55.49l-.21 1.16a.65.65 0 00.35.65l1.58.69a.24.24 0 01.14.17 6.49 6.49 0 00.16.88.26.26 0 01-.06.21l-1.26 1.2a.62.62 0 00-.11.73l.59 1a.63.63 0 00.69.28l1.65-.5a.32.32 0 01.23.06 7.1 7.1 0 00.67.56.26.26 0 01.1.2l-.2 1.73a.63.63 0 00.39.63l1.1.4a.63.63 0 00.71-.23l.95-1.44a.28.28 0 01.21-.1h.88a.26.26 0 01.2.1l.95 1.45a.65.65 0 00.71.23l1.11-.4a.63.63 0 00.38-.63l-.12-1.09h26.06a2.85 2.85 0 002.84-2.83v-6.21a2.84 2.84 0 00-2.8-2.88zM262.53 72.83l1.65-.49a.24.24 0 01.23.06 6 6 0 00.67.56.25.25 0 01.09.2l-.2 1.73a.63.63 0 00.39.63l1.11.4a.62.62 0 00.7-.23l.95-1.44a.25.25 0 01.21-.1h.88a.26.26 0 01.2.1l1 1.45a.63.63 0 00.7.23l1.11-.4a.63.63 0 00.39-.63l-.13-1.09h26.07a2.83 2.83 0 002.79-2.81v-6.24a2.83 2.83 0 00-2.83-2.83h-23.87l-.05-.07-.91-.76a.66.66 0 00-.74 0l-1.13.85h-.2a3.14 3.14 0 00-.61 0l-.47-.17a.26.26 0 01-.16-.15L270 60a.63.63 0 00-.58-.46h-1.18a.63.63 0 00-.58.46l-.4 1.67a.25.25 0 01-.16.17 8.29 8.29 0 00-.83.31.41.41 0 01-.22 0l-1.39-1a.66.66 0 00-.74 0l-.91.76a.65.65 0 00-.15.73l.77 1.54a.22.22 0 010 .22 7.44 7.44 0 00-.44.78.28.28 0 01-.18.12l-1.73.1a.65.65 0 00-.56.5l-.2 1.16a.61.61 0 00.35.65l1.58.68a.28.28 0 01.14.18 6.47 6.47 0 00.15.88.23.23 0 010 .21l-1.26 1.2a.62.62 0 00-.11.73l.59 1a.61.61 0 00.57.24zM246.56 148.35h-23.87l-.05-.06-.91-.76a.63.63 0 00-.74 0l-1.13.84h-.2a2.74 2.74 0 00-.64.08l-.47-.17a.23.23 0 01-.15-.15l-.41-1.69a.63.63 0 00-.58-.46h-1.18a.63.63 0 00-.58.46l-.4 1.67a.23.23 0 01-.16.17 8.29 8.29 0 00-.83.31.28.28 0 01-.22 0l-1.39-1a.66.66 0 00-.74 0l-.91.76a.65.65 0 00-.15.73l.77 1.54a.22.22 0 010 .22 7.3 7.3 0 00-.44.77.23.23 0 01-.18.13l-1.73.1a.64.64 0 00-.55.49l-.21 1.17a.63.63 0 00.35.65l1.58.68a.28.28 0 01.14.18 6.47 6.47 0 00.15.88.23.23 0 010 .21l-1.26 1.19a.64.64 0 00-.11.74l.59 1a.63.63 0 00.69.27l1.65-.49a.24.24 0 01.23.06 6 6 0 00.67.56.25.25 0 01.09.2l-.2 1.72a.66.66 0 00.39.64l1.11.4a.65.65 0 00.71-.23l.94-1.44a.26.26 0 01.21-.11h.88a.26.26 0 01.2.1l1 1.45a.63.63 0 00.7.23l1.11-.4a.65.65 0 00.39-.64l-.12-1.08h26.06a2.85 2.85 0 002.83-2.84v-6.2a2.84 2.84 0 00-2.8-2.88zM246.56 127.44h-23.87l-.05-.06-.91-.76a.63.63 0 00-.74 0l-1.13.84h-.2a2.74 2.74 0 00-.64.08 3.75 3.75 0 00-.47-.17.26.26 0 01-.15-.16l-.41-1.68a.63.63 0 00-.58-.46h-1.18a.63.63 0 00-.58.46l-.4 1.67a.25.25 0 01-.16.17 6.34 6.34 0 00-.83.3.28.28 0 01-.22 0l-1.39-1a.63.63 0 00-.74 0l-.91.76a.66.66 0 00-.15.72l.77 1.54a.24.24 0 010 .23 7.3 7.3 0 00-.44.77.24.24 0 01-.18.13l-1.73.1a.62.62 0 00-.55.49l-.21 1.16a.66.66 0 00.35.66l1.58.68a.28.28 0 01.14.18 6.6 6.6 0 00.15.87.25.25 0 010 .22l-1.26 1.19a.62.62 0 00-.11.73l.59 1a.63.63 0 00.69.27l1.65-.49a.31.31 0 01.23 0 5.18 5.18 0 00.67.57.25.25 0 01.09.2l-.2 1.72a.66.66 0 00.39.63l1.11.41a.65.65 0 00.71-.24l.94-1.43a.26.26 0 01.21-.11h.88a.25.25 0 01.2.09l1 1.45a.64.64 0 00.7.24l1.11-.41a.63.63 0 00.39-.63l-.12-1.08h26.06a2.85 2.85 0 002.83-2.84v-6.2a2.84 2.84 0 00-2.87-2.81zM114.17 133.56h.88a.26.26 0 01.2.1l1 1.45a.63.63 0 00.7.23l1.11-.4a.66.66 0 00.39-.63l-.13-1.09h26.07a2.85 2.85 0 002.83-2.84v-6.2a2.85 2.85 0 00-2.83-2.84h-23.91v-.06l-.91-.76a.63.63 0 00-.74 0l-1.13.84h-.2a3.4 3.4 0 00-.64.08c-.16-.06-.31-.12-.48-.17a.28.28 0 01-.15-.15l-.4-1.69a.63.63 0 00-.58-.46H114a.63.63 0 00-.58.46l-.4 1.67a.25.25 0 01-.16.17 8.29 8.29 0 00-.83.31.41.41 0 01-.22 0l-1.39-1a.66.66 0 00-.74 0l-.91.76a.65.65 0 00-.15.73l.77 1.54a.22.22 0 010 .22 7.3 7.3 0 00-.44.77.24.24 0 01-.18.13l-1.73.1a.66.66 0 00-.56.49l-.2 1.17a.62.62 0 00.35.65l1.58.68a.28.28 0 01.14.18 6.47 6.47 0 00.15.88.23.23 0 010 .21l-1.26 1.19a.64.64 0 00-.11.74l.59 1a.63.63 0 00.69.27l1.65-.49a.24.24 0 01.23.06 6 6 0 00.67.56.25.25 0 01.09.2l-.2 1.73a.64.64 0 00.39.63l1.11.4a.65.65 0 00.71-.23l.94-1.44a.23.23 0 01.17-.15zM58.43 127.87v-6.2a2.85 2.85 0 00-2.83-2.84H31.73l-.05-.06-.91-.76a.63.63 0 00-.74 0l-1.13.84h-.2a3.4 3.4 0 00-.64.08c-.16-.06-.31-.12-.48-.17a.28.28 0 01-.15-.15L27 116.9a.63.63 0 00-.58-.46h-1.15a.63.63 0 00-.58.46l-.4 1.67a.25.25 0 01-.16.17 8.29 8.29 0 00-.83.31.41.41 0 01-.22 0l-1.39-1a.66.66 0 00-.74 0l-.91.76a.65.65 0 00-.15.73l.77 1.54a.22.22 0 010 .22 7.3 7.3 0 00-.44.77.24.24 0 01-.18.13l-1.73.1a.66.66 0 00-.56.49l-.2 1.17a.62.62 0 00.35.65l1.58.68a.28.28 0 01.14.18 6.47 6.47 0 00.15.88.23.23 0 01-.05.21l-1.26 1.19a.64.64 0 00-.11.74l.59 1a.63.63 0 00.69.27l1.65-.49a.24.24 0 01.23.06 6 6 0 00.67.56.25.25 0 01.09.2l-.2 1.72a.66.66 0 00.39.64l1.11.4a.65.65 0 00.71-.23l.94-1.44a.26.26 0 01.21-.11 3.23 3.23 0 00.44 0h.44a.26.26 0 01.2.1l1 1.45a.63.63 0 00.7.23l1.11-.4a.66.66 0 00.39-.64l-.13-1.08h26a2.84 2.84 0 002.83-2.85zM49.46 82.36l-1.4-1a.63.63 0 00-.74 0l-.9.76a.64.64 0 00-.15.73l.73 1.52a.24.24 0 010 .23 7.3 7.3 0 00-.44.77.23.23 0 01-.18.13l-1.73.1a.64.64 0 00-.55.49l-.21 1.17a.65.65 0 00.35.65l1.58.68a.28.28 0 01.14.18 6.47 6.47 0 00.15.88.23.23 0 010 .21l-1.31 1.19a.64.64 0 00-.11.74l.59 1a.63.63 0 00.69.27l1.65-.49a.24.24 0 01.23.06 6 6 0 00.67.56.25.25 0 01.09.2l-.19 1.72a.65.65 0 00.38.64l1.11.4a.65.65 0 00.71-.23l.94-1.44a.26.26 0 01.21-.11h.88a.26.26 0 01.2.1l1 1.44a.62.62 0 00.7.24l1.11-.41a.63.63 0 00.39-.63L55.93 94H82a2.85 2.85 0 002.83-2.84V85A2.85 2.85 0 0082 82.17H58.1l-.05-.06-.91-.76a.63.63 0 00-.74 0l-1.13.84h-.2a2.74 2.74 0 00-.64.08l-.43-.19a.23.23 0 01-.15-.15l-.41-1.69a.63.63 0 00-.58-.46h-1.22a.63.63 0 00-.58.46l-.4 1.67a.23.23 0 01-.16.17 6.39 6.39 0 00-.83.31.26.26 0 01-.21-.03zM136.1 91.21V85a2.85 2.85 0 00-2.84-2.84H109.4l-.06-.06-.9-.76a.63.63 0 00-.74 0l-1.14.84h-.2a2.72 2.72 0 00-.63.08c-.16-.06-.31-.12-.48-.17a.28.28 0 01-.15-.15l-.4-1.69a.63.63 0 00-.58-.46h-1.18a.63.63 0 00-.58.46l-.4 1.67a.29.29 0 01-.17.17 6.39 6.39 0 00-.83.31.26.26 0 01-.21 0l-1.39-1a.6.6 0 00-.74 0l-.91.76a.64.64 0 00-.15.73l.77 1.53a.24.24 0 010 .23 4.51 4.51 0 00-.44.77.24.24 0 01-.18.13L96 85.6a.64.64 0 00-.55.49l-.2 1.17a.62.62 0 00.35.65l1.58.68a.27.27 0 01.13.18 6.49 6.49 0 00.16.88.26.26 0 01-.06.21l-1.26 1.19a.64.64 0 00-.11.74l.59 1a.63.63 0 00.69.27l1.68-.49a.24.24 0 01.23.06 6.13 6.13 0 00.68.56.25.25 0 01.09.2l-.2 1.72a.65.65 0 00.39.64l1.11.4a.63.63 0 00.7-.23l1-1.44a.26.26 0 01.21-.11h.79a.26.26 0 01.2.1l1 1.44a.65.65 0 00.71.24l1.11-.41a.63.63 0 00.39-.63l-.12-1.11h26.06a2.86 2.86 0 002.75-2.79zM107.33 114.13l-.13-1.08h26.06a2.85 2.85 0 002.84-2.84V104a2.85 2.85 0 00-2.84-2.84H109.4l-.06-.06-.9-.76a.63.63 0 00-.74 0l-1.14.84h-.2a2.72 2.72 0 00-.63.08c-.16-.06-.31-.12-.48-.17a.28.28 0 01-.15-.15l-.4-1.69a.63.63 0 00-.58-.46h-1.18a.63.63 0 00-.58.46l-.4 1.67a.29.29 0 01-.17.17 6.39 6.39 0 00-.83.31.26.26 0 01-.21 0l-1.39-1a.6.6 0 00-.74 0l-.91.76a.64.64 0 00-.15.73l.77 1.53a.24.24 0 010 .23 4.51 4.51 0 00-.44.77.24.24 0 01-.18.13l-1.74.1a.64.64 0 00-.55.49l-.2 1.17a.62.62 0 00.35.65l1.58.68a.27.27 0 01.13.18 6.49 6.49 0 00.16.88.26.26 0 01-.06.21l-1.26 1.19a.64.64 0 00-.11.74l.59 1a.63.63 0 00.69.27l1.65-.49a.24.24 0 01.23.06 6.13 6.13 0 00.68.56.25.25 0 01.09.2l-.2 1.72a.65.65 0 00.39.64l1.11.4a.63.63 0 00.7-.23l1-1.44a.26.26 0 01.21-.11h.85a.26.26 0 01.2.1l1 1.44a.65.65 0 00.71.24l1.11-.41a.64.64 0 00.31-.66zM120.59 34.72a5.94 5.94 0 005.93 5.94h11.17a2.85 2.85 0 002.83-2.84v-6.2a2.85 2.85 0 00-2.83-2.84h-11.17a5.94 5.94 0 00-5.93 5.94z" transform="translate(-4.25 -1.05)"/><path d="M143.81 28.2a6.5 6.5 0 001.08-.24 7.82 7.82 0 003-1.71l3.67 9.28a20.38 20.38 0 01-3 2.48 6.43 6.43 0 01-3.4 1.24 2.52 2.52 0 01-2.21-1.09c.57-.52 2-1.51 2.48-1.18s-.44 1.48-.44 1.48c1.29-1 1.34-1.58 1.23-1.87l-.33-.46m.21.27l-4.35-9.68a8.37 8.37 0 00-1-.05 11.28 11.28 0 00-3.16.45 10.64 10.64 0 00-3.81 2l4.73 11.83a27.2 27.2 0 013.59-3.19 6.62 6.62 0 013.36-1.46 2.24 2.24 0 01.63.1z" stroke-width=".25" stroke="#231f20" stroke-linejoin="round" fill="none"/><path class="cls-15" d="M152.17 27.3a7.82 7.82 0 01-3 1.71 6.5 6.5 0 01-1.08.24l2.4 8.39c.11.29.06.89-1.23 1.87 0 0 .9-1.15.44-1.48s-1.91.66-2.48 1.18a2.52 2.52 0 002.21 1.09 6.43 6.43 0 003.4-1.24 20.38 20.38 0 003-2.48z" transform="translate(-4.25 -1.05)"/><path class="cls-7" d="M152.68 38.75a18.73 18.73 0 002.77-2.26l-1.09-2.76a14.29 14.29 0 01-2.76 2zM153.13 30.63L152 27.85a8.31 8.31 0 01-2.77 1.47l1.12 3.09a10.14 10.14 0 002.78-1.78zM151.6 35.76l-1.22-3.35a7.2 7.2 0 01-1.29.42l1 3.57a8.35 8.35 0 001.51-.64z" transform="translate(-4.25 -1.05)"/><path class="cls-15" d="M145.08 27.72a11.28 11.28 0 00-3.16.45 10.64 10.64 0 00-3.81 2L142.76 42a27.2 27.2 0 013.59-3.19 6.62 6.62 0 013.36-1.46 2.24 2.24 0 01.63.1L146 27.77a8.37 8.37 0 00-1-.05z" transform="translate(-4.25 -1.05)"/><path class="cls-7" d="M145.08 28a11.28 11.28 0 00-3 .44l1.41 3.56a11.9 11.9 0 013.61-1l-1.28-2.89a2.4 2.4 0 00-.74-.11zM145 35.49l1.26 3a6.58 6.58 0 013.45-1.49h.08l-1.27-2.87a8 8 0 00-3.52 1.36z" transform="translate(-4.25 -1.05)"/><path class="cls-7" d="M143.49 32a15.57 15.57 0 00-3.56 2l1.55 3.93a31.53 31.53 0 013.52-2.44z" transform="translate(-4.25 -1.05)"/><path class="cls-18" d="M130.44 181.88h-11.17a5.94 5.94 0 00-.49 11.87h11.66a2.83 2.83 0 002.83-2.83v-6.21a2.83 2.83 0 00-2.83-2.83zM246.56 106.53h-11.17a5.94 5.94 0 000 11.87h11.17a2.83 2.83 0 002.83-2.83v-6.21a2.83 2.83 0 00-2.83-2.83z" transform="translate(-4.25 -1.05)"/><text class="cls-20" transform="translate(1.93 75.97)">Stowe</text><text class="cls-20" transform="translate(136.38 160.31)">Becketts</text><text class="cls-20" transform="translate(267.2 149.97)">Copse</text><text transform="matrix(.91 0 0 1 89.74 72.22)" style="isolation:isolate" font-size="8.5" font-family="Helvetica" fill="#231f20">Z. de Boxes</text><text class="cls-22" transform="translate(6.21 11.62)">4</text><text class="cls-23" transform="translate(23.93 11.62)">125</text><text class="cls-22" transform="translate(91.79 11.62)">6</text><text class="cls-23" transform="translate(109.52 11.62)">240</text><text class="cls-22" transform="translate(152.72 11.62)">8</text><text class="cls-23" transform="translate(170.44 11.62)">295</text><text class="cls-22" transform="translate(162.89 53.12)">8</text><text class="cls-23" transform="translate(180.62 53.12)">315</text><text class="cls-22" transform="translate(170.64 77.12)">8</text><text class="cls-23" transform="translate(188.37 77.12)">305</text><text class="cls-22" transform="translate(178.39 103.12)">8</text><text class="cls-23" transform="translate(196.12 103.12)">305</text><text class="cls-22" transform="translate(202.64 11.62)">5</text><text class="cls-23" transform="translate(220.37 11.62)">210</text><text class="cls-22" transform="translate(6.21 32.37)">6</text><text class="cls-23" transform="translate(23.93 32.37)">255</text><text class="cls-22" transform="translate(186.96 32.37)">4</text><text class="cls-23" transform="translate(204.68 32.37)">155</text><text class="cls-22" transform="translate(6.21 147.5)">7</text><text class="cls-23" transform="translate(23.93 147.5)">240</text><text class="cls-22" transform="translate(51.96 147.5)">8</text><text class="cls-23" transform="translate(69.68 147.5)">320</text><text class="cls-22" transform="translate(51.96 168.25)">7</text><text class="cls-23" transform="translate(69.68 168.25)">295</text><text class="cls-22" transform="translate(144.67 189.79)">6</text><text class="cls-23" transform="translate(162.4 189.79)">220</text><text class="cls-22" transform="translate(204.85 189.79)">8</text><text class="cls-23" transform="translate(222.58 189.79)">315</text><text class="cls-22" transform="translate(262.95 189.79)">7</text><text class="cls-23" transform="translate(280.68 189.79)">300</text><text class="cls-22" transform="translate(262.12 69.84)">8</text><text class="cls-23" transform="translate(279.84 69.84)">300</text><text class="cls-22" transform="translate(210.17 156.27)">8</text><text class="cls-23" transform="translate(227.9 156.27)">310</text><text class="cls-22" transform="translate(210.17 135.36)">8</text><text class="cls-23" transform="translate(227.9 135.36)">316</text><text class="cls-22" transform="translate(107.96 129.25)">3</text><text class="cls-23" transform="translate(128.05 129.25)">95</text><text class="cls-22" transform="translate(19.21 126.75)">8</text><text class="cls-23" transform="translate(36.93 126.75)">325</text><text class="cls-22" transform="translate(45.58 90.09)">7</text><text class="cls-23" transform="translate(63.31 90.09)">285</text><text class="cls-22" transform="translate(96.88 90.09)">3</text><text class="cls-23" transform="translate(114.6 90.09)">120</text><text class="cls-22" transform="translate(96.88 109.09)">8</text><text class="cls-23" transform="translate(114.6 109.09)">310</text><text class="cls-22" transform="translate(129 36.7)">3</text><text class="cls-22" transform="translate(121.75 189.8)">2</text><text class="cls-22" transform="translate(237.87 114.45)">1</text><text class="cls-20" transform="translate(49.15 26.56)">Club</text><text class="cls-24" transform="translate(158.48 84.82)">1</text><text class="cls-24" transform="translate(135.68 102.57)">2</text><text class="cls-24" transform="translate(173.12 136.07)">3</text><text class="cls-24" transform="translate(155.87 146.32)">4</text><text class="cls-24" transform="translate(173.43 158.57)">5</text><text class="cls-24" transform="translate(223.37 85.32)">6</text><text class="cls-24" transform="translate(222.93 69.32)">7</text><text class="cls-24" transform="translate(249.48 92.57)">8</text><text class="cls-24" transform="translate(263.87 168.57)">9</text><text class="cls-24" transform="translate(181.41 179.82)">10</text><g style="isolation:isolate"><text transform="translate(169.9 167.57)" style="isolation:isolate" letter-spacing="-.13em" font-family="Helvetica-Bold,Helvetica" font-weight="700" font-size="7.5" fill="#fff">1</text><text class="cls-24" transform="translate(173.06 167.57)">1</text></g><text class="cls-24" transform="translate(149.91 176.57)">12</text><text class="cls-24" transform="translate(118.41 176.82)">13</text><text class="cls-24" transform="translate(127.16 154.32)">14</text><text class="cls-24" transform="translate(12.41 87.32)">15</text><text class="cls-24" transform="translate(79.66 44.32)">16</text><text class="cls-24" transform="translate(57.41 37.07)">17</text><text class="cls-24" transform="translate(75.41 16.82)">18</text></g></svg>