<svg viewBox="0 0 464 300" xmlns="http://www.w3.org/2000/svg"><g fill="none" fill-rule="evenodd"><path d="M89.274 181.639s110.899 37.718 117.464 38.738c6.565 1.02 8.06-7.761 8.794-14.163.748-6.389 4.363-21.422 20.905-23.624 16.528-2.202 40.75 1.903 55.728 9.596 14.979 7.68 21.353 18.88 31.779 10.793 9.623-7.462 4.472-17.426 10.67-20.497 5.246-2.597 8.848 2.908 16.31 7.312 7.462 4.39 9.841 7.231 13.647-.775 3.806-7.992 3.833-12.885-2.392-23.419-6.185-10.452-9.175-13.225-19.07-26.274-8.808-11.621-27.389-30.596-21.585-40.26 5.818-9.664 17.996-5.437 34.497 10.534 16.488 15.97 22.101 22.264 30.787 23.406 8.685 1.128 14.244.992 18.893-2.528 4.649-3.52 9.542-7.462 10.616-16.501 1.087-9.026-3.344-24.44-10.698-31.045-7.353-6.606-99.59-20.81-103.436-20.796-3.847.014-3.534 2.474-3.399 8.237.15 5.777-.448 8.291-7.34 13.918-6.89 5.614-51.188 49.748-62.592 58.474-3.302 2.528-7.244 4.893-14.258 5.179 0 0-119.611-2.161-123.077-2.189-4.078-.027-9.067 6.606-.422 12.845 8.645 6.225 10.507 4.309 5.804 8.93-4.69 4.635-16.8 10.031-7.625 14.109z" stroke="#000" stroke-width="4.757"/><g stroke-linecap="round" stroke-linejoin="round"><path d="M89.369 179.179s109.594 37.188 116.146 38.207c6.565 1.02 8.06-7.76 8.794-14.163.747-6.388 4.363-21.421 20.905-23.623 16.528-2.202 40.75 1.903 55.728 9.596 14.978 7.68 21.353 18.88 31.778 10.792 9.624-7.462 4.472-17.425 10.67-20.497 5.247-2.596 8.849 2.909 16.311 7.313 7.462 4.39 9.84 7.231 13.647-.775 3.805-7.992 3.833-12.885-2.393-23.42-6.184-10.452-9.174-13.225-19.07-26.273-8.807-11.621-27.388-30.596-21.584-40.26 5.817-9.664 17.996-5.437 34.497 10.534 16.487 15.97 22.101 22.264 30.786 23.406 8.686 1.128 14.245.992 18.894-2.529 4.648-3.52 9.541-7.462 10.615-16.5 1.088-9.026-3.343-24.44-10.697-31.045-7.353-6.606-99.59-20.81-103.437-20.796-3.846.013-3.534 2.473-3.398 8.237.15 5.776-.448 8.29-7.34 13.918-6.89 5.614-51.637 49.19-62.592 58.474-4.485 3.806-7.883 5.002-14.258 5.178 0 0-119.612-2.188-123.078-2.188-5.342.014-7.299 7.992 2.352 12.532 8.318 3.915 6.116 6.796 1.699 10.031-5.927 4.35-14.585 9.515-4.975 13.85z" stroke="#000" stroke-width="8.155"/><path d="M97.823 158.247s-2.718 7.557-2.718 10.112c0 2.556 1.604 2.678 6.021 4.2 4.418 1.523 98.924 33.07 104.688 34.85 2.976.925 3.765.164 5.572-3.058 1.903-3.384 3.127-6.007 5.913-11.444" stroke="#FFF" stroke-width="3.398"/></g><g stroke-linecap="round" stroke-linejoin="round"><path d="M89.369 179.179s109.594 37.188 116.146 38.207c6.565 1.02 8.06-7.76 8.794-14.163.747-6.388 4.363-21.421 20.905-23.623 16.528-2.202 40.75 1.903 55.728 9.596 14.978 7.68 21.353 18.88 31.778 10.792 9.624-7.462 4.472-17.425 10.67-20.497 5.247-2.596 8.849 2.909 16.311 7.313 7.462 4.39 9.84 7.231 13.647-.775 3.805-7.992 3.833-12.885-2.393-23.42-6.184-10.452-9.174-13.225-19.07-26.273-8.807-11.621-27.388-30.596-21.584-40.26 5.817-9.664 17.996-5.437 34.497 10.534 16.487 15.97 22.101 22.264 30.786 23.406 8.686 1.128 14.245.992 18.894-2.529 4.648-3.52 9.541-7.462 10.615-16.5 1.088-9.026-3.343-24.44-10.697-31.045-7.353-6.606-99.59-20.81-103.437-20.796-3.846.013-3.534 2.473-3.398 8.237.15 5.776-.448 8.29-7.34 13.918-6.89 5.614-51.637 49.19-62.592 58.474-4.485 3.806-7.883 5.002-14.258 5.178 0 0-119.612-2.188-123.078-2.188-5.342.014-7.299 7.992 2.352 12.532 8.318 3.915 6.116 6.796 1.699 10.031-5.927 4.35-14.585 9.515-4.975 13.85z" stroke="#FFF" stroke-width="6.796"/><path d="M89.369 179.179s109.594 37.188 116.146 38.207c6.565 1.02 8.06-7.76 8.794-14.163.747-6.388 4.363-21.421 20.905-23.623 16.528-2.202 40.75 1.903 55.728 9.596 14.978 7.68 21.353 18.88 31.778 10.792 9.624-7.462 4.472-17.425 10.67-20.497 5.247-2.596 8.849 2.909 16.311 7.313 7.462 4.39 9.84 7.231 13.647-.775 3.805-7.992 3.833-12.885-2.393-23.42-6.184-10.452-9.174-13.225-19.07-26.273-8.807-11.621-27.388-30.596-21.584-40.26 5.817-9.664 17.996-5.437 34.497 10.534 16.487 15.97 22.101 22.264 30.786 23.406 8.686 1.128 14.245.992 18.894-2.529 4.648-3.52 9.541-7.462 10.615-16.5 1.088-9.026-3.343-24.44-10.697-31.045-7.353-6.606-99.59-20.81-103.437-20.796-3.846.013-3.534 2.473-3.398 8.237.15 5.776-.448 8.29-7.34 13.918-6.89 5.614-51.637 49.19-62.592 58.474-4.485 3.806-7.883 5.002-14.258 5.178 0 0-119.612-2.188-123.078-2.188-5.342.014-7.299 7.992 2.352 12.532 8.318 3.915 6.116 6.796 1.699 10.031-5.927 4.35-14.585 9.515-4.975 13.85z" stroke="#848993" stroke-width="4.757"/></g><path d="M97.823 158.247s-2.718 7.557-2.718 10.112c0 2.556 1.604 2.678 6.021 4.2 4.418 1.523 98.924 33.07 104.688 34.85 2.976.925 3.765.164 5.572-3.058 1.903-3.384 3.127-6.007 5.913-11.444" stroke="#00628B" stroke-width="1.359" stroke-linecap="round" stroke-linejoin="round"/><path fill="#E50040" fill-rule="nonzero" d="M136.765 216.53l12.994 4.295-.883 2.678 14.068-2.039-10.072-10.031-.884 2.678-12.994-4.295z"/><path stroke="#FFF" stroke-width=".68" d="M136.765 216.53l12.994 4.295-.883 2.678 14.068-2.039-10.072-10.031-.884 2.678-12.994-4.295z"/><path fill="#E50040" fill-rule="nonzero" d="M373.528 52.649l-13.32-3.167.652-2.746-13.837 3.235 10.901 9.134.64-2.746 13.32 3.167z"/><path stroke="#FFF" stroke-width=".68" d="M373.528 52.649l-13.32-3.167.652-2.746-13.837 3.235 10.901 9.134.64-2.746 13.32 3.167z"/><g stroke-linecap="round"><path stroke="#FFF" stroke-width="4.078" d="M133.217 208.89l12.655-18.606"/><path stroke="#E50040" stroke-width="2.039" d="M133.217 208.89l12.655-18.606"/></g><g><path stroke="#FFF" stroke-width="2.039" stroke-linecap="round" stroke-linejoin="round" d="M146.049 169.406l9.868.666.013 3.493 4.078.285.027 11.663-7.394-.503-.014-3.493-6.551-.449z"/><path d="M146.049 169.107c0-.38-1.156-.408-1.156-.082l.041 21.49c0 .34 1.155.462 1.155.081l-.04-21.49z" stroke="#FFF" stroke-width="2.039" stroke-linecap="round" stroke-linejoin="round"/><path fill="#FFF" fill-rule="nonzero" d="M155.944 181.748l-.027-11.676-9.868-.666.027 11.662z"/><path fill="#000" fill-rule="nonzero" d="M148.522 172.491v-2.922l-2.473-.163.013 2.909zM148.536 178.322V175.4l-2.474-.163.014 2.922zM153.456 172.831l-.013-2.922-2.46-.163v2.908zM150.996 175.577l-.013-2.923-2.46-.163.013 2.909zM153.47 178.662v-2.922l-2.474-.163v2.908z"/><path fill="#000" fill-rule="nonzero" d="M151.01 181.408l-.014-2.923-2.46-.163v2.91zM155.93 175.903l-.013-2.909-2.46-.163.013 2.909zM155.944 181.748l-.014-2.923-2.46-.163v2.909z"/><path fill="#C1C3C9" fill-rule="nonzero" d="M155.944 181.748l-.027-11.676-3.303 3.276.027 11.662z"/><path fill="#000" fill-rule="nonzero" d="M155.917 172.994v-2.922l-1.645 1.63v2.923zM154.272 177.548v-2.923l-1.658 1.631.013 2.923zM155.93 178.825v-2.922l-1.658 1.645.013 2.908zM154.285 183.379v-2.923l-1.658 1.631.014 2.923z"/><path fill="#FFF" fill-rule="nonzero" d="M160.049 173.905l-7.435-.557.027 11.662 7.367.557z"/><path fill="#000" fill-rule="nonzero" d="M155.074 176.433v-2.922l-2.46-.163v2.908zM155.087 182.264v-2.922l-2.46-.163v2.908zM160.008 176.76v-2.91l-2.46-.163v2.91z"/><path fill="#000" fill-rule="nonzero" d="M157.548 179.518v-2.922l-2.474-.163.013 2.909zM160.021 182.604v-2.922l-2.473-.164.013 2.91z"/><path fill="#000" fill-rule="nonzero" d="M157.561 185.35v-2.923l-2.474-.163.014 2.909z"/><path stroke="#000" stroke-width=".5" stroke-linecap="round" stroke-linejoin="round" d="M146.049 169.406l9.868.666.013 3.493 4.078.285.027 11.663-7.394-.503-.014-3.493-6.551-.449z"/><path d="M146.049 169.107c0-.38-1.156-.408-1.156-.082l.041 21.49c0 .34 1.155.462 1.155.081l-.04-21.49z" fill="#FFF" fill-rule="nonzero"/><path d="M146.049 169.107c0-.38-1.156-.408-1.156-.082l.041 21.49c0 .34 1.155.462 1.155.081l-.04-21.49z" stroke="#000" stroke-width=".5" stroke-linecap="round" stroke-linejoin="round"/></g><path stroke="#FFF" stroke-width="3.398" stroke-linecap="round" stroke-linejoin="round" d="M298.363 135.29h40.885"/><path stroke="#000" stroke-width=".883" stroke-linecap="round" stroke-linejoin="round" d="M298.363 135.112h40.885"/><g><path stroke="#FFF" stroke-width="2.718" stroke-linecap="round" stroke-linejoin="round" d="M334.651 134.923l3.93-3.931 3.932 3.93-3.93 3.931z"/><path fill="#00628B" fill-rule="nonzero" d="M334.651 134.923l3.93-3.931 3.932 3.93-3.93 3.931z"/></g><g><path d="M350.045 135.076l-2.297-2.65-1.06.923a7.658 7.658 0 00-2.597-1.359v-2.42h-4.376v2.488a7.525 7.525 0 00-2.664 1.523l-1.196-1.034-2.298 2.637 1.468 1.278a7.497 7.497 0 00-.516 2.719 7.471 7.471 0 007.476 7.475c4.132 0 7.489-3.343 7.489-7.475 0-1.088-.245-2.12-.652-3.045l1.223-1.06z" stroke="#FFF" stroke-width="1.359"/><path d="M350.045 135.076l-2.297-2.65-1.06.923a7.658 7.658 0 00-2.597-1.359v-2.42h-4.376v2.488a7.525 7.525 0 00-2.664 1.523l-1.196-1.034-2.298 2.637 1.468 1.278a7.497 7.497 0 00-.516 2.719 7.471 7.471 0 007.476 7.475c4.132 0 7.489-3.343 7.489-7.475 0-1.088-.245-2.12-.652-3.045l1.223-1.06z" fill="#E50040" fill-rule="nonzero"/><path d="M347.775 139.167a5.769 5.769 0 01-5.777 5.763c-3.18 0-5.776-2.583-5.776-5.763a5.772 5.772 0 015.776-5.777 5.772 5.772 0 015.777 5.777" fill="#FFF" fill-rule="nonzero"/><path d="M261.647 127.997l-2.297-2.65-1.06.924a7.658 7.658 0 00-2.596-1.36v-2.419h-4.377v2.487a7.525 7.525 0 00-2.664 1.523l-1.196-1.033-2.297 2.637 1.468 1.277a7.497 7.497 0 00-.516 2.719 7.471 7.471 0 007.475 7.475c4.132 0 7.49-3.343 7.49-7.475 0-1.088-.245-2.12-.653-3.045l1.223-1.06z" stroke="#FFF" stroke-width="1.359"/><path d="M261.647 127.997l-2.297-2.65-1.06.924a7.658 7.658 0 00-2.596-1.36v-2.419h-4.377v2.487a7.525 7.525 0 00-2.664 1.523l-1.196-1.033-2.297 2.637 1.468 1.277a7.497 7.497 0 00-.516 2.719 7.471 7.471 0 007.475 7.475c4.132 0 7.49-3.343 7.49-7.475 0-1.088-.245-2.12-.653-3.045l1.223-1.06z" fill="#E50040" fill-rule="nonzero"/><path d="M259.378 132.088a5.769 5.769 0 01-5.777 5.763c-3.18 0-5.777-2.582-5.777-5.763a5.772 5.772 0 015.777-5.777 5.772 5.772 0 015.777 5.777" fill="#FFF" fill-rule="nonzero"/><path d="M128.126 214.65L125.83 212l-1.06.924a7.658 7.658 0 00-2.596-1.359v-2.42h-4.377v2.488a7.525 7.525 0 00-2.664 1.522l-1.196-1.033-2.297 2.637 1.468 1.278a7.497 7.497 0 00-.517 2.718 7.471 7.471 0 007.476 7.476c4.132 0 7.49-3.344 7.49-7.476 0-1.087-.245-2.12-.653-3.044l1.223-1.06z" stroke="#FFF" stroke-width="1.359"/><path d="M128.126 214.65L125.83 212l-1.06.924a7.658 7.658 0 00-2.596-1.359v-2.42h-4.377v2.488a7.525 7.525 0 00-2.664 1.522l-1.196-1.033-2.297 2.637 1.468 1.278a7.497 7.497 0 00-.517 2.718 7.471 7.471 0 007.476 7.476c4.132 0 7.49-3.344 7.49-7.476 0-1.087-.245-2.12-.653-3.044l1.223-1.06z" fill="#E50040" fill-rule="nonzero"/><path d="M125.856 218.742a5.769 5.769 0 01-5.776 5.763c-3.18 0-5.777-2.583-5.777-5.763a5.772 5.772 0 015.777-5.777 5.772 5.772 0 015.776 5.777" fill="#FFF" fill-rule="nonzero"/><g stroke-linecap="round" stroke-linejoin="round"><path stroke="#000" stroke-width=".883" d="M49.53 21.876v122.67h20.742"/><path stroke="#FFF" stroke-width="3.398" d="M49.53 21.876v122.67h20.742"/><path stroke="#000" stroke-width=".883" d="M49.53 21.876v122.67h20.742"/></g><g stroke-linecap="round" stroke-linejoin="round"><path stroke="#000" stroke-width=".883" d="M221.717 21.876v50.63h57.658"/><path stroke="#FFF" stroke-width="3.398" d="M221.717 21.876v50.63h57.658"/><path stroke="#000" stroke-width=".883" d="M221.717 21.876v50.63h57.658"/></g><g stroke-linecap="round" stroke-linejoin="round"><path stroke="#000" stroke-width=".883" d="M329.652 21.876v33.3"/><path stroke="#FFF" stroke-width="3.398" d="M329.652 21.876v33.3"/><path stroke="#000" stroke-width=".883" d="M329.652 21.876v33.3"/></g><g stroke-linecap="round" stroke-linejoin="round"><path stroke="#000" stroke-width=".883" d="M436 40v66h-11"/><path stroke="#FFF" stroke-width="3.398" d="M436 40v66h-11"/><path stroke="#000" stroke-width=".883" d="M436 40v66h-11"/></g><g stroke-linecap="round" stroke-linejoin="round"><path stroke="#000" stroke-width=".883" d="M111.429 21.876v112.475"/><path stroke="#FFF" stroke-width="3.398" d="M111.429 21.876v112.475"/><path stroke="#000" stroke-width=".883" d="M111.429 21.876v112.475"/></g><g stroke-linecap="round" stroke-linejoin="round"><path stroke="#000" stroke-width=".883" d="M49.53 261.602v-87.67h20.742"/><path stroke="#FFF" stroke-width="3.398" d="M49.53 261.602v-87.67h20.742"/><path stroke="#000" stroke-width=".883" d="M49.53 261.602v-87.67h20.742"/></g><g stroke-linecap="round" stroke-linejoin="round"><path stroke="#000" stroke-width=".883" d="M248.996 261.602V194.66H230.66"/><path stroke="#FFF" stroke-width="3.398" d="M248.996 261.602V194.66H230.66"/><path stroke="#000" stroke-width=".883" d="M248.996 261.602V194.66H230.66"/></g><g stroke-linecap="round" stroke-linejoin="round"><path stroke="#000" stroke-width=".883" d="M412.443 261.602v-62.524h-47.9"/><path stroke="#FFF" stroke-width="3.398" d="M412.443 261.602v-62.524h-47.9"/><path stroke="#000" stroke-width=".883" d="M412.443 261.602v-62.524h-47.9"/></g><g stroke-linecap="round" stroke-linejoin="round"><path stroke="#000" stroke-width=".883" d="M397.151 135.534v19.98h20.063"/><path stroke="#FFF" stroke-width="3.398" d="M397.151 135.534v19.98h20.063"/><path stroke="#000" stroke-width=".883" d="M397.151 135.534v19.98h20.063"/></g><g stroke-linecap="round" stroke-linejoin="round"><path stroke="#000" stroke-width=".883" d="M298.608 107.67V92.99h15.305"/><path stroke="#FFF" stroke-width="3.398" d="M298.608 107.67V92.99h15.305"/><path stroke="#000" stroke-width=".883" d="M298.608 107.67V92.99h15.305"/></g><g stroke-linecap="round" stroke-linejoin="round"><path stroke="#000" stroke-width=".883" d="M187.831 261.602v-45.194"/><path stroke="#FFF" stroke-width="3.398" d="M187.831 261.602v-45.194"/><path stroke="#000" stroke-width=".883" d="M187.831 261.602v-45.194"/></g><g stroke-linecap="round" stroke-linejoin="round"><path stroke="#000" stroke-width=".883" d="M215.016 261.602v-35.34"/><path stroke="#FFF" stroke-width="3.398" d="M215.016 261.602v-35.34"/><path stroke="#000" stroke-width=".883" d="M215.016 261.602v-35.34"/></g><g stroke-linecap="round" stroke-linejoin="round"><path stroke="#000" stroke-width=".883" d="M291.811 261.602V195"/><path stroke="#FFF" stroke-width="3.398" d="M291.811 261.602V195"/><path stroke="#000" stroke-width=".883" d="M291.811 261.602V195"/></g><path d="M29.528 263.851h24.738c3.466 0 6.266 2.814 6.266 6.28s-2.814 6.28-6.266 6.28H29.528v-12.56z" fill="#000" fill-rule="nonzero"/><path d="M34.72 270.13c0-.203-.04-.394-.054-.597l1.536-.925-.422-1.305-1.794.15a5.43 5.43 0 00-.693-.965l.693-1.658-1.114-.802-1.346 1.155a5.632 5.632 0 00-1.142-.38l-.407-1.713h-1.373l-.408 1.713a5.632 5.632 0 00-1.142.38l-1.345-1.155-1.101.802.693 1.644a5.244 5.244 0 00-.693.965l-1.78-.15-.422 1.306 1.536.938c-.028.19-.068.394-.068.584 0 .204.04.394.068.598l-1.536.938.421 1.305 1.78-.15c.205.34.422.666.694.965l-.693 1.645 1.114.802 1.346-1.155c.367.163.747.299 1.155.38l.408 1.726h1.373l.408-1.726a5.632 5.632 0 001.141-.38l1.346 1.155 1.087-.802-.693-1.645a4.98 4.98 0 00.693-.965l1.794.15.422-1.305-1.536-.938c.013-.19.054-.38.054-.584z" stroke="#FFF" stroke-width="2.718" stroke-linecap="round" stroke-linejoin="round"/><path d="M34.72 270.13c0-.203-.04-.394-.054-.597l1.536-.925-.422-1.305-1.794.15a5.43 5.43 0 00-.693-.965l.693-1.658-1.114-.802-1.346 1.155a5.632 5.632 0 00-1.142-.38l-.407-1.713h-1.373l-.408 1.713a5.632 5.632 0 00-1.142.38l-1.345-1.155-1.101.802.693 1.644a5.244 5.244 0 00-.693.965l-1.78-.15-.422 1.306 1.536.938c-.028.19-.068.394-.068.584 0 .204.04.394.068.598l-1.536.938.421 1.305 1.78-.15c.205.34.422.666.694.965l-.693 1.645 1.114.802 1.346-1.155c.367.163.747.299 1.155.38l.408 1.726h1.373l.408-1.726a5.632 5.632 0 001.141-.38l1.346 1.155 1.087-.802-.693-1.645a4.98 4.98 0 00.693-.965l1.794.15.422-1.305-1.536-.938c.013-.19.054-.38.054-.584z" stroke="#000" stroke-width=".951" stroke-linecap="round" stroke-linejoin="round"/><path d="M34.72 270.13c0-.203-.04-.394-.054-.597l1.536-.925-.422-1.305-1.794.15a5.43 5.43 0 00-.693-.965l.693-1.658-1.114-.802-1.346 1.155a5.632 5.632 0 00-1.142-.38l-.407-1.713h-1.373l-.408 1.713a5.632 5.632 0 00-1.142.38l-1.345-1.155-1.101.802.693 1.644a5.244 5.244 0 00-.693.965l-1.78-.15-.422 1.306 1.536.938c-.028.19-.068.394-.068.584 0 .204.04.394.068.598l-1.536.938.421 1.305 1.78-.15c.205.34.422.666.694.965l-.693 1.645 1.114.802 1.346-1.155c.367.163.747.299 1.155.38l.408 1.726h1.373l.408-1.726a5.632 5.632 0 001.141-.38l1.346 1.155 1.087-.802-.693-1.645a4.98 4.98 0 00.693-.965l1.794.15.422-1.305-1.536-.938c.013-.19.054-.38.054-.584" fill="#FFF" fill-rule="nonzero"/><path d="M117.31 160.209h24.739c3.466 0 6.266 2.814 6.266 6.28s-2.814 6.28-6.266 6.28H117.31v-12.56z" fill="#000" fill-rule="nonzero"/><path d="M122.503 166.489c0-.204-.04-.395-.054-.598l1.536-.925-.422-1.305-1.794.15a5.43 5.43 0 00-.693-.965l.693-1.658-1.115-.802-1.345 1.155a5.632 5.632 0 00-1.142-.38l-.408-1.713h-1.373l-.407 1.713a5.632 5.632 0 00-1.142.38l-1.346-1.155-1.1.802.693 1.644a5.244 5.244 0 00-.694.965l-1.78-.15-.422 1.306 1.536.938c-.027.19-.068.394-.068.584 0 .204.041.394.068.598l-1.536.938.422 1.305 1.78-.15c.204.34.422.666.694.965l-.694 1.645 1.115.802 1.346-1.155c.367.163.747.299 1.155.38l.408 1.726h1.372l.408-1.726a5.632 5.632 0 001.142-.38l1.346 1.155 1.087-.802-.693-1.645a4.98 4.98 0 00.693-.965l1.794.15.422-1.305-1.536-.938c.013-.19.054-.38.054-.584z" stroke="#FFF" stroke-width="2.718" stroke-linecap="round" stroke-linejoin="round"/><path d="M122.503 166.489c0-.204-.04-.395-.054-.598l1.536-.925-.422-1.305-1.794.15a5.43 5.43 0 00-.693-.965l.693-1.658-1.115-.802-1.345 1.155a5.632 5.632 0 00-1.142-.38l-.408-1.713h-1.373l-.407 1.713a5.632 5.632 0 00-1.142.38l-1.346-1.155-1.1.802.693 1.644a5.244 5.244 0 00-.694.965l-1.78-.15-.422 1.306 1.536.938c-.027.19-.068.394-.068.584 0 .204.041.394.068.598l-1.536.938.422 1.305 1.78-.15c.204.34.422.666.694.965l-.694 1.645 1.115.802 1.346-1.155c.367.163.747.299 1.155.38l.408 1.726h1.372l.408-1.726a5.632 5.632 0 001.142-.38l1.346 1.155 1.087-.802-.693-1.645a4.98 4.98 0 00.693-.965l1.794.15.422-1.305-1.536-.938c.013-.19.054-.38.054-.584z" stroke="#000" stroke-width=".951" stroke-linecap="round" stroke-linejoin="round"/><path d="M122.503 166.489c0-.204-.04-.395-.054-.598l1.536-.925-.422-1.305-1.794.15a5.43 5.43 0 00-.693-.965l.693-1.658-1.115-.802-1.345 1.155a5.632 5.632 0 00-1.142-.38l-.408-1.713h-1.373l-.407 1.713a5.632 5.632 0 00-1.142.38l-1.346-1.155-1.1.802.693 1.644a5.244 5.244 0 00-.694.965l-1.78-.15-.422 1.306 1.536.938c-.027.19-.068.394-.068.584 0 .204.041.394.068.598l-1.536.938.422 1.305 1.78-.15c.204.34.422.666.694.965l-.694 1.645 1.115.802 1.346-1.155c.367.163.747.299 1.155.38l.408 1.726h1.372l.408-1.726a5.632 5.632 0 001.142-.38l1.346 1.155 1.087-.802-.693-1.645a4.98 4.98 0 00.693-.965l1.794.15.422-1.305-1.536-.938c.013-.19.054-.38.054-.584" fill="#FFF" fill-rule="nonzero"/><path d="M29.528 22.419h24.738c3.466 0 6.266 2.814 6.266 6.28s-2.814 6.28-6.266 6.28H29.528v-12.56z" fill="#000" fill-rule="nonzero"/><path d="M34.72 28.699c0-.204-.04-.395-.054-.598l1.536-.925-.422-1.305-1.794.15a5.43 5.43 0 00-.693-.965l.693-1.658-1.114-.802-1.346 1.155a5.632 5.632 0 00-1.142-.38l-.407-1.713h-1.373l-.408 1.712a5.632 5.632 0 00-1.142.381l-1.345-1.155-1.101.802.693 1.644a5.244 5.244 0 00-.693.965l-1.78-.15-.422 1.306 1.536.938c-.028.19-.068.394-.068.584 0 .204.04.394.068.598l-1.536.938.421 1.305 1.78-.15c.205.34.422.666.694.965l-.693 1.645 1.114.802 1.346-1.155c.367.163.747.299 1.155.38l.408 1.726h1.373l.408-1.726a5.632 5.632 0 001.141-.38l1.346 1.155 1.087-.802-.693-1.645a4.98 4.98 0 00.693-.965l1.794.15.422-1.305-1.536-.938c.013-.19.054-.38.054-.584z" stroke="#FFF" stroke-width="2.718" stroke-linecap="round" stroke-linejoin="round"/><path d="M34.72 28.699c0-.204-.04-.395-.054-.598l1.536-.925-.422-1.305-1.794.15a5.43 5.43 0 00-.693-.965l.693-1.658-1.114-.802-1.346 1.155a5.632 5.632 0 00-1.142-.38l-.407-1.713h-1.373l-.408 1.712a5.632 5.632 0 00-1.142.381l-1.345-1.155-1.101.802.693 1.644a5.244 5.244 0 00-.693.965l-1.78-.15-.422 1.306 1.536.938c-.028.19-.068.394-.068.584 0 .204.04.394.068.598l-1.536.938.421 1.305 1.78-.15c.205.34.422.666.694.965l-.693 1.645 1.114.802 1.346-1.155c.367.163.747.299 1.155.38l.408 1.726h1.373l.408-1.726a5.632 5.632 0 001.141-.38l1.346 1.155 1.087-.802-.693-1.645a4.98 4.98 0 00.693-.965l1.794.15.422-1.305-1.536-.938c.013-.19.054-.38.054-.584z" stroke="#000" stroke-width=".951" stroke-linecap="round" stroke-linejoin="round"/><path d="M34.72 28.699c0-.204-.04-.395-.054-.598l1.536-.925-.422-1.305-1.794.15a5.43 5.43 0 00-.693-.965l.693-1.658-1.114-.802-1.346 1.155a5.632 5.632 0 00-1.142-.38l-.407-1.713h-1.373l-.408 1.712a5.632 5.632 0 00-1.142.381l-1.345-1.155-1.101.802.693 1.644a5.244 5.244 0 00-.693.965l-1.78-.15-.422 1.306 1.536.938c-.028.19-.068.394-.068.584 0 .204.04.394.068.598l-1.536.938.421 1.305 1.78-.15c.205.34.422.666.694.965l-.693 1.645 1.114.802 1.346-1.155c.367.163.747.299 1.155.38l.408 1.726h1.373l.408-1.726a5.632 5.632 0 001.141-.38l1.346 1.155 1.087-.802-.693-1.645a4.98 4.98 0 00.693-.965l1.794.15.422-1.305-1.536-.938c.013-.19.054-.38.054-.584" fill="#FFF" fill-rule="nonzero"/><path d="M142.853 263.851h24.738c3.466 0 6.266 2.814 6.266 6.28s-2.813 6.28-6.266 6.28h-24.738v-12.56z" fill="#000" fill-rule="nonzero"/><path d="M148.046 270.13c0-.203-.041-.394-.055-.597l1.536-.925-.421-1.305-1.794.15a5.43 5.43 0 00-.694-.965l.694-1.658-1.115-.802-1.346 1.155a5.632 5.632 0 00-1.141-.38l-.408-1.713h-1.373l-.408 1.713a5.632 5.632 0 00-1.142.38l-1.345-1.155-1.101.802.693 1.644a5.244 5.244 0 00-.693.965l-1.78-.15-.422 1.306 1.536.938c-.027.19-.068.394-.068.584 0 .204.04.394.068.598l-1.536.938.421 1.305 1.78-.15c.205.34.422.666.694.965l-.693 1.645 1.114.802 1.346-1.155c.367.163.748.299 1.155.38l.408 1.726h1.373l.408-1.726a5.632 5.632 0 001.142-.38l1.345 1.155 1.088-.802-.694-1.645a4.98 4.98 0 00.694-.965l1.794.15.421-1.305-1.536-.938c.014-.19.055-.38.055-.584z" stroke="#FFF" stroke-width="2.718" stroke-linecap="round" stroke-linejoin="round"/><path d="M148.046 270.13c0-.203-.041-.394-.055-.597l1.536-.925-.421-1.305-1.794.15a5.43 5.43 0 00-.694-.965l.694-1.658-1.115-.802-1.346 1.155a5.632 5.632 0 00-1.141-.38l-.408-1.713h-1.373l-.408 1.713a5.632 5.632 0 00-1.142.38l-1.345-1.155-1.101.802.693 1.644a5.244 5.244 0 00-.693.965l-1.78-.15-.422 1.306 1.536.938c-.027.19-.068.394-.068.584 0 .204.04.394.068.598l-1.536.938.421 1.305 1.78-.15c.205.34.422.666.694.965l-.693 1.645 1.114.802 1.346-1.155c.367.163.748.299 1.155.38l.408 1.726h1.373l.408-1.726a5.632 5.632 0 001.142-.38l1.345 1.155 1.088-.802-.694-1.645a4.98 4.98 0 00.694-.965l1.794.15.421-1.305-1.536-.938c.014-.19.055-.38.055-.584z" stroke="#000" stroke-width=".951" stroke-linecap="round" stroke-linejoin="round"/><path d="M148.046 270.13c0-.203-.041-.394-.055-.597l1.536-.925-.421-1.305-1.794.15a5.43 5.43 0 00-.694-.965l.694-1.658-1.115-.802-1.346 1.155a5.632 5.632 0 00-1.141-.38l-.408-1.713h-1.373l-.408 1.713a5.632 5.632 0 00-1.142.38l-1.345-1.155-1.101.802.693 1.644a5.244 5.244 0 00-.693.965l-1.78-.15-.422 1.306 1.536.938c-.027.19-.068.394-.068.584 0 .204.04.394.068.598l-1.536.938.421 1.305 1.78-.15c.205.34.422.666.694.965l-.693 1.645 1.114.802 1.346-1.155c.367.163.748.299 1.155.38l.408 1.726h1.373l.408-1.726a5.632 5.632 0 001.142-.38l1.345 1.155 1.088-.802-.694-1.645a4.98 4.98 0 00.694-.965l1.794.15.421-1.305-1.536-.938c.014-.19.055-.38.055-.584" fill="#FFF" fill-rule="nonzero"/><path d="M187.198 263.851h24.738c3.466 0 6.266 2.814 6.266 6.28s-2.814 6.28-6.266 6.28h-24.738v-12.56z" fill="#000" fill-rule="nonzero"/><path d="M192.39 270.13c0-.203-.04-.394-.054-.597l1.536-.925-.422-1.305-1.794.15a5.43 5.43 0 00-.693-.965l.693-1.658-1.114-.802-1.346 1.155a5.632 5.632 0 00-1.142-.38l-.408-1.713h-1.372l-.408 1.713a5.632 5.632 0 00-1.142.38l-1.345-1.155-1.101.802.693 1.644a5.244 5.244 0 00-.693.965l-1.781-.15-.421 1.306 1.536.938c-.028.19-.068.394-.068.584 0 .204.04.394.068.598l-1.536.938.421 1.305 1.78-.15c.204.34.422.666.694.965l-.693 1.645 1.114.802 1.346-1.155c.367.163.747.299 1.155.38l.408 1.726h1.373l.407-1.726a5.632 5.632 0 001.142-.38l1.346 1.155 1.087-.802-.693-1.645a4.98 4.98 0 00.693-.965l1.794.15.422-1.305-1.536-.938c.013-.19.054-.38.054-.584z" stroke="#FFF" stroke-width="2.718" stroke-linecap="round" stroke-linejoin="round"/><path d="M192.39 270.13c0-.203-.04-.394-.054-.597l1.536-.925-.422-1.305-1.794.15a5.43 5.43 0 00-.693-.965l.693-1.658-1.114-.802-1.346 1.155a5.632 5.632 0 00-1.142-.38l-.408-1.713h-1.372l-.408 1.713a5.632 5.632 0 00-1.142.38l-1.345-1.155-1.101.802.693 1.644a5.244 5.244 0 00-.693.965l-1.781-.15-.421 1.306 1.536.938c-.028.19-.068.394-.068.584 0 .204.04.394.068.598l-1.536.938.421 1.305 1.78-.15c.204.34.422.666.694.965l-.693 1.645 1.114.802 1.346-1.155c.367.163.747.299 1.155.38l.408 1.726h1.373l.407-1.726a5.632 5.632 0 001.142-.38l1.346 1.155 1.087-.802-.693-1.645a4.98 4.98 0 00.693-.965l1.794.15.422-1.305-1.536-.938c.013-.19.054-.38.054-.584z" stroke="#000" stroke-width=".951" stroke-linecap="round" stroke-linejoin="round"/><path d="M192.39 270.13c0-.203-.04-.394-.054-.597l1.536-.925-.422-1.305-1.794.15a5.43 5.43 0 00-.693-.965l.693-1.658-1.114-.802-1.346 1.155a5.632 5.632 0 00-1.142-.38l-.408-1.713h-1.372l-.408 1.713a5.632 5.632 0 00-1.142.38l-1.345-1.155-1.101.802.693 1.644a5.244 5.244 0 00-.693.965l-1.781-.15-.421 1.306 1.536.938c-.028.19-.068.394-.068.584 0 .204.04.394.068.598l-1.536.938.421 1.305 1.78-.15c.204.34.422.666.694.965l-.693 1.645 1.114.802 1.346-1.155c.367.163.747.299 1.155.38l.408 1.726h1.373l.407-1.726a5.632 5.632 0 001.142-.38l1.346 1.155 1.087-.802-.693-1.645a4.98 4.98 0 00.693-.965l1.794.15.422-1.305-1.536-.938c.013-.19.054-.38.054-.584" fill="#FFF" fill-rule="nonzero"/><path d="M229.08 263.851h24.738c3.466 0 6.266 2.814 6.266 6.28s-2.814 6.28-6.266 6.28H229.08v-12.56z" fill="#000" fill-rule="nonzero"/><path d="M234.272 270.13c0-.203-.04-.394-.054-.597l1.535-.925-.42-1.305-1.795.15a5.43 5.43 0 00-.693-.965l.693-1.658-1.115-.802-1.345 1.155a5.632 5.632 0 00-1.142-.38l-.408-1.713h-1.373l-.407 1.713a5.632 5.632 0 00-1.142.38l-1.346-1.155-1.1.802.693 1.644a5.244 5.244 0 00-.694.965l-1.78-.15-.422 1.306 1.536.938c-.027.19-.068.394-.068.584 0 .204.041.394.068.598l-1.536.938.422 1.305 1.78-.15c.204.34.422.666.694.965l-.694 1.645 1.115.802 1.345-1.155c.367.163.748.299 1.156.38l.408 1.726h1.372l.408-1.726a5.632 5.632 0 001.142-.38l1.346 1.155 1.087-.802-.693-1.645a4.98 4.98 0 00.693-.965l1.794.15.421-1.305-1.535-.938c.013-.19.054-.38.054-.584z" stroke="#FFF" stroke-width="2.718" stroke-linecap="round" stroke-linejoin="round"/><path d="M234.272 270.13c0-.203-.04-.394-.054-.597l1.535-.925-.42-1.305-1.795.15a5.43 5.43 0 00-.693-.965l.693-1.658-1.115-.802-1.345 1.155a5.632 5.632 0 00-1.142-.38l-.408-1.713h-1.373l-.407 1.713a5.632 5.632 0 00-1.142.38l-1.346-1.155-1.1.802.693 1.644a5.244 5.244 0 00-.694.965l-1.78-.15-.422 1.306 1.536.938c-.027.19-.068.394-.068.584 0 .204.041.394.068.598l-1.536.938.422 1.305 1.78-.15c.204.34.422.666.694.965l-.694 1.645 1.115.802 1.345-1.155c.367.163.748.299 1.156.38l.408 1.726h1.372l.408-1.726a5.632 5.632 0 001.142-.38l1.346 1.155 1.087-.802-.693-1.645a4.98 4.98 0 00.693-.965l1.794.15.421-1.305-1.535-.938c.013-.19.054-.38.054-.584z" stroke="#000" stroke-width=".951" stroke-linecap="round" stroke-linejoin="round"/><path d="M234.272 270.13c0-.203-.04-.394-.054-.597l1.535-.925-.42-1.305-1.795.15a5.43 5.43 0 00-.693-.965l.693-1.658-1.115-.802-1.345 1.155a5.632 5.632 0 00-1.142-.38l-.408-1.713h-1.373l-.407 1.713a5.632 5.632 0 00-1.142.38l-1.346-1.155-1.1.802.693 1.644a5.244 5.244 0 00-.694.965l-1.78-.15-.422 1.306 1.536.938c-.027.19-.068.394-.068.584 0 .204.041.394.068.598l-1.536.938.422 1.305 1.78-.15c.204.34.422.666.694.965l-.694 1.645 1.115.802 1.345-1.155c.367.163.748.299 1.156.38l.408 1.726h1.372l.408-1.726a5.632 5.632 0 001.142-.38l1.346 1.155 1.087-.802-.693-1.645a4.98 4.98 0 00.693-.965l1.794.15.421-1.305-1.535-.938c.013-.19.054-.38.054-.584" fill="#FFF" fill-rule="nonzero"/><path d="M271.3 263.851h24.738c3.466 0 6.266 2.814 6.266 6.28s-2.813 6.28-6.266 6.28h-24.737v-12.56z" fill="#000" fill-rule="nonzero"/><path d="M276.493 270.13c0-.203-.041-.394-.055-.597l1.536-.925-.421-1.305-1.794.15a5.43 5.43 0 00-.693-.965l.693-1.658-1.115-.802-1.345 1.155a5.632 5.632 0 00-1.142-.38l-.408-1.713h-1.373l-.407 1.713a5.632 5.632 0 00-1.142.38l-1.346-1.155-1.1.802.692 1.644a5.244 5.244 0 00-.693.965l-1.78-.15-.422 1.306 1.536.938c-.027.19-.068.394-.068.584 0 .204.041.394.068.598l-1.536.938.422 1.305 1.78-.15c.204.34.422.666.693.965l-.693 1.645 1.115.802 1.345-1.155c.367.163.748.299 1.156.38l.407 1.726h1.373l.408-1.726a5.632 5.632 0 001.142-.38l1.345 1.155 1.088-.802-.693-1.645a4.98 4.98 0 00.693-.965l1.794.15.421-1.305-1.536-.938c.014-.19.055-.38.055-.584z" stroke="#FFF" stroke-width="2.718" stroke-linecap="round" stroke-linejoin="round"/><path d="M276.493 270.13c0-.203-.041-.394-.055-.597l1.536-.925-.421-1.305-1.794.15a5.43 5.43 0 00-.693-.965l.693-1.658-1.115-.802-1.345 1.155a5.632 5.632 0 00-1.142-.38l-.408-1.713h-1.373l-.407 1.713a5.632 5.632 0 00-1.142.38l-1.346-1.155-1.1.802.692 1.644a5.244 5.244 0 00-.693.965l-1.78-.15-.422 1.306 1.536.938c-.027.19-.068.394-.068.584 0 .204.041.394.068.598l-1.536.938.422 1.305 1.78-.15c.204.34.422.666.693.965l-.693 1.645 1.115.802 1.345-1.155c.367.163.748.299 1.156.38l.407 1.726h1.373l.408-1.726a5.632 5.632 0 001.142-.38l1.345 1.155 1.088-.802-.693-1.645a4.98 4.98 0 00.693-.965l1.794.15.421-1.305-1.536-.938c.014-.19.055-.38.055-.584z" stroke="#000" stroke-width=".951" stroke-linecap="round" stroke-linejoin="round"/><path d="M276.493 270.13c0-.203-.041-.394-.055-.597l1.536-.925-.421-1.305-1.794.15a5.43 5.43 0 00-.693-.965l.693-1.658-1.115-.802-1.345 1.155a5.632 5.632 0 00-1.142-.38l-.408-1.713h-1.373l-.407 1.713a5.632 5.632 0 00-1.142.38l-1.346-1.155-1.1.802.692 1.644a5.244 5.244 0 00-.693.965l-1.78-.15-.422 1.306 1.536.938c-.027.19-.068.394-.068.584 0 .204.041.394.068.598l-1.536.938.422 1.305 1.78-.15c.204.34.422.666.693.965l-.693 1.645 1.115.802 1.345-1.155c.367.163.748.299 1.156.38l.407 1.726h1.373l.408-1.726a5.632 5.632 0 001.142-.38l1.345 1.155 1.088-.802-.693-1.645a4.98 4.98 0 00.693-.965l1.794.15.421-1.305-1.536-.938c.014-.19.055-.38.055-.584" fill="#FFF" fill-rule="nonzero"/><path d="M392.781 263.851h24.738c3.466 0 6.266 2.814 6.266 6.28s-2.814 6.28-6.266 6.28h-24.738v-12.56z" fill="#000" fill-rule="nonzero"/><path d="M397.973 270.13c0-.203-.04-.394-.054-.597l1.536-.925-.421-1.305-1.795.15a5.43 5.43 0 00-.693-.965l.693-1.658-1.114-.802-1.346 1.155a5.632 5.632 0 00-1.142-.38l-.407-1.713h-1.373l-.408 1.713a5.632 5.632 0 00-1.142.38l-1.345-1.155-1.101.802.693 1.644a5.244 5.244 0 00-.693.965l-1.78-.15-.422 1.306 1.536.938c-.027.19-.068.394-.068.584 0 .204.04.394.068.598l-1.536.938.421 1.305 1.78-.15c.205.34.422.666.694.965l-.693 1.645 1.114.802 1.346-1.155c.367.163.748.299 1.155.38l.408 1.726h1.373l.408-1.726a5.632 5.632 0 001.141-.38l1.346 1.155 1.087-.802-.693-1.645a4.98 4.98 0 00.693-.965l1.795.15.42-1.305-1.535-.938c.014-.19.054-.38.054-.584z" stroke="#FFF" stroke-width="2.718" stroke-linecap="round" stroke-linejoin="round"/><path d="M397.973 270.13c0-.203-.04-.394-.054-.597l1.536-.925-.421-1.305-1.795.15a5.43 5.43 0 00-.693-.965l.693-1.658-1.114-.802-1.346 1.155a5.632 5.632 0 00-1.142-.38l-.407-1.713h-1.373l-.408 1.713a5.632 5.632 0 00-1.142.38l-1.345-1.155-1.101.802.693 1.644a5.244 5.244 0 00-.693.965l-1.78-.15-.422 1.306 1.536.938c-.027.19-.068.394-.068.584 0 .204.04.394.068.598l-1.536.938.421 1.305 1.78-.15c.205.34.422.666.694.965l-.693 1.645 1.114.802 1.346-1.155c.367.163.748.299 1.155.38l.408 1.726h1.373l.408-1.726a5.632 5.632 0 001.141-.38l1.346 1.155 1.087-.802-.693-1.645a4.98 4.98 0 00.693-.965l1.795.15.42-1.305-1.535-.938c.014-.19.054-.38.054-.584z" stroke="#000" stroke-width=".951" stroke-linecap="round" stroke-linejoin="round"/><path d="M397.973 270.13c0-.203-.04-.394-.054-.597l1.536-.925-.421-1.305-1.795.15a5.43 5.43 0 00-.693-.965l.693-1.658-1.114-.802-1.346 1.155a5.632 5.632 0 00-1.142-.38l-.407-1.713h-1.373l-.408 1.713a5.632 5.632 0 00-1.142.38l-1.345-1.155-1.101.802.693 1.644a5.244 5.244 0 00-.693.965l-1.78-.15-.422 1.306 1.536.938c-.027.19-.068.394-.068.584 0 .204.04.394.068.598l-1.536.938.421 1.305 1.78-.15c.205.34.422.666.694.965l-.693 1.645 1.114.802 1.346-1.155c.367.163.748.299 1.155.38l.408 1.726h1.373l.408-1.726a5.632 5.632 0 001.141-.38l1.346 1.155 1.087-.802-.693-1.645a4.98 4.98 0 00.693-.965l1.795.15.42-1.305-1.535-.938c.014-.19.054-.38.054-.584" fill="#FFF" fill-rule="nonzero"/><path d="M398.214 157.367h24.738c3.466 0 6.266 2.814 6.266 6.28s-2.814 6.28-6.266 6.28h-24.738v-12.56z" fill="#000" fill-rule="nonzero"/><path d="M403.406 163.647c0-.204-.04-.395-.054-.598l1.536-.925-.421-1.305-1.795.15a5.43 5.43 0 00-.693-.965l.693-1.658-1.114-.802-1.346 1.155a5.632 5.632 0 00-1.142-.38l-.407-1.713h-1.373l-.408 1.713a5.632 5.632 0 00-1.142.38l-1.345-1.155-1.101.802.693 1.644a5.244 5.244 0 00-.693.965l-1.78-.15-.422 1.306 1.536.938c-.027.19-.068.394-.068.584 0 .204.04.394.068.598l-1.536.938.421 1.305 1.78-.15c.205.34.422.666.694.965l-.693 1.645 1.114.802 1.346-1.155c.367.163.747.299 1.155.38l.408 1.726h1.373l.408-1.726a5.632 5.632 0 001.141-.38l1.346 1.155 1.087-.802-.693-1.645a4.98 4.98 0 00.693-.965l1.795.15.42-1.305-1.535-.938c.014-.19.054-.38.054-.584z" stroke="#FFF" stroke-width="2.718" stroke-linecap="round" stroke-linejoin="round"/><path d="M403.406 163.647c0-.204-.04-.395-.054-.598l1.536-.925-.421-1.305-1.795.15a5.43 5.43 0 00-.693-.965l.693-1.658-1.114-.802-1.346 1.155a5.632 5.632 0 00-1.142-.38l-.407-1.713h-1.373l-.408 1.713a5.632 5.632 0 00-1.142.38l-1.345-1.155-1.101.802.693 1.644a5.244 5.244 0 00-.693.965l-1.78-.15-.422 1.306 1.536.938c-.027.19-.068.394-.068.584 0 .204.04.394.068.598l-1.536.938.421 1.305 1.78-.15c.205.34.422.666.694.965l-.693 1.645 1.114.802 1.346-1.155c.367.163.747.299 1.155.38l.408 1.726h1.373l.408-1.726a5.632 5.632 0 001.141-.38l1.346 1.155 1.087-.802-.693-1.645a4.98 4.98 0 00.693-.965l1.795.15.42-1.305-1.535-.938c.014-.19.054-.38.054-.584z" stroke="#000" stroke-width=".951" stroke-linecap="round" stroke-linejoin="round"/><path d="M403.406 163.647c0-.204-.04-.395-.054-.598l1.536-.925-.421-1.305-1.795.15a5.43 5.43 0 00-.693-.965l.693-1.658-1.114-.802-1.346 1.155a5.632 5.632 0 00-1.142-.38l-.407-1.713h-1.373l-.408 1.713a5.632 5.632 0 00-1.142.38l-1.345-1.155-1.101.802.693 1.644a5.244 5.244 0 00-.693.965l-1.78-.15-.422 1.306 1.536.938c-.027.19-.068.394-.068.584 0 .204.04.394.068.598l-1.536.938.421 1.305 1.78-.15c.205.34.422.666.694.965l-.693 1.645 1.114.802 1.346-1.155c.367.163.747.299 1.155.38l.408 1.726h1.373l.408-1.726a5.632 5.632 0 001.141-.38l1.346 1.155 1.087-.802-.693-1.645a4.98 4.98 0 00.693-.965l1.795.15.42-1.305-1.535-.938c.014-.19.054-.38.054-.584" fill="#FFF" fill-rule="nonzero"/><g><path d="M265.01 172.771h24.738c3.466 0 6.266 2.814 6.266 6.28s-2.813 6.28-6.266 6.28H265.01v-12.56z" fill="#000" fill-rule="nonzero"/><path d="M270.202 179.05c0-.203-.04-.393-.054-.597l1.536-.925-.421-1.304-1.795.15a5.43 5.43 0 00-.693-.966l.693-1.658-1.114-.802-1.346 1.155a5.632 5.632 0 00-1.141-.38l-.408-1.713h-1.373l-.408 1.713a5.632 5.632 0 00-1.142.38l-1.345-1.155-1.101.802.693 1.644a5.244 5.244 0 00-.693.965l-1.78-.149-.422 1.305 1.536.938c-.027.19-.068.394-.068.584 0 .204.04.394.068.598l-1.536.938.421 1.305 1.78-.15c.205.34.422.666.694.965l-.693 1.645 1.114.802 1.346-1.155c.367.163.748.299 1.155.38l.408 1.727h1.373l.408-1.727a5.632 5.632 0 001.141-.38l1.346 1.155 1.087-.802-.693-1.645a4.98 4.98 0 00.693-.965l1.795.15.421-1.305-1.536-.938c.014-.19.054-.38.054-.584z" stroke="#FFF" stroke-width="2.718" stroke-linecap="round" stroke-linejoin="round"/><path d="M270.202 179.05c0-.203-.04-.393-.054-.597l1.536-.925-.421-1.304-1.795.15a5.43 5.43 0 00-.693-.966l.693-1.658-1.114-.802-1.346 1.155a5.632 5.632 0 00-1.141-.38l-.408-1.713h-1.373l-.408 1.713a5.632 5.632 0 00-1.142.38l-1.345-1.155-1.101.802.693 1.644a5.244 5.244 0 00-.693.965l-1.78-.149-.422 1.305 1.536.938c-.027.19-.068.394-.068.584 0 .204.04.394.068.598l-1.536.938.421 1.305 1.78-.15c.205.34.422.666.694.965l-.693 1.645 1.114.802 1.346-1.155c.367.163.748.299 1.155.38l.408 1.727h1.373l.408-1.727a5.632 5.632 0 001.141-.38l1.346 1.155 1.087-.802-.693-1.645a4.98 4.98 0 00.693-.965l1.795.15.421-1.305-1.536-.938c.014-.19.054-.38.054-.584z" stroke="#000" stroke-width=".951" stroke-linecap="round" stroke-linejoin="round"/><path d="M270.202 179.05c0-.203-.04-.393-.054-.597l1.536-.925-.421-1.304-1.795.15a5.43 5.43 0 00-.693-.966l.693-1.658-1.114-.802-1.346 1.155a5.632 5.632 0 00-1.141-.38l-.408-1.713h-1.373l-.408 1.713a5.632 5.632 0 00-1.142.38l-1.345-1.155-1.101.802.693 1.644a5.244 5.244 0 00-.693.965l-1.78-.149-.422 1.305 1.536.938c-.027.19-.068.394-.068.584 0 .204.04.394.068.598l-1.536.938.421 1.305 1.78-.15c.205.34.422.666.694.965l-.693 1.645 1.114.802 1.346-1.155c.367.163.748.299 1.155.38l.408 1.727h1.373l.408-1.727a5.632 5.632 0 001.141-.38l1.346 1.155 1.087-.802-.693-1.645a4.98 4.98 0 00.693-.965l1.795.15.421-1.305-1.536-.938c.014-.19.054-.38.054-.584" fill="#FFF" fill-rule="nonzero"/></g><g><path d="M280.024 137.532h24.738c3.466 0 6.266 2.814 6.266 6.28s-2.814 6.28-6.266 6.28h-24.738v-12.56z" fill="#000" fill-rule="nonzero"/><path d="M285.216 143.812c0-.204-.04-.394-.054-.598l1.536-.924-.422-1.305-1.794.15a5.43 5.43 0 00-.693-.966l.693-1.658-1.114-.802-1.346 1.155a5.632 5.632 0 00-1.142-.38l-.407-1.713H279.1l-.408 1.713a5.632 5.632 0 00-1.142.38l-1.345-1.155-1.101.802.693 1.645a5.244 5.244 0 00-.693.965l-1.78-.15-.422 1.305 1.536.938c-.028.19-.068.394-.068.584 0 .204.04.395.068.598l-1.536.938.421 1.305 1.78-.15c.205.34.422.667.694.966l-.693 1.644 1.114.802 1.346-1.155c.367.163.747.299 1.155.38l.408 1.727h1.373l.408-1.727a5.632 5.632 0 001.141-.38l1.346 1.155 1.087-.802-.693-1.644a4.98 4.98 0 00.693-.965l1.794.15.422-1.306-1.536-.938c.014-.19.054-.38.054-.584z" stroke="#FFF" stroke-width="2.718" stroke-linecap="round" stroke-linejoin="round"/><path d="M285.216 143.812c0-.204-.04-.394-.054-.598l1.536-.924-.422-1.305-1.794.15a5.43 5.43 0 00-.693-.966l.693-1.658-1.114-.802-1.346 1.155a5.632 5.632 0 00-1.142-.38l-.407-1.713H279.1l-.408 1.713a5.632 5.632 0 00-1.142.38l-1.345-1.155-1.101.802.693 1.645a5.244 5.244 0 00-.693.965l-1.78-.15-.422 1.305 1.536.938c-.028.19-.068.394-.068.584 0 .204.04.395.068.598l-1.536.938.421 1.305 1.78-.15c.205.34.422.667.694.966l-.693 1.644 1.114.802 1.346-1.155c.367.163.747.299 1.155.38l.408 1.727h1.373l.408-1.727a5.632 5.632 0 001.141-.38l1.346 1.155 1.087-.802-.693-1.644a4.98 4.98 0 00.693-.965l1.794.15.422-1.306-1.536-.938c.014-.19.054-.38.054-.584z" stroke="#000" stroke-width=".951" stroke-linecap="round" stroke-linejoin="round"/><path d="M285.216 143.812c0-.204-.04-.394-.054-.598l1.536-.924-.422-1.305-1.794.15a5.43 5.43 0 00-.693-.966l.693-1.658-1.114-.802-1.346 1.155a5.632 5.632 0 00-1.142-.38l-.407-1.713H279.1l-.408 1.713a5.632 5.632 0 00-1.142.38l-1.345-1.155-1.101.802.693 1.645a5.244 5.244 0 00-.693.965l-1.78-.15-.422 1.305 1.536.938c-.028.19-.068.394-.068.584 0 .204.04.395.068.598l-1.536.938.421 1.305 1.78-.15c.205.34.422.667.694.966l-.693 1.644 1.114.802 1.346-1.155c.367.163.747.299 1.155.38l.408 1.727h1.373l.408-1.727a5.632 5.632 0 001.141-.38l1.346 1.155 1.087-.802-.693-1.644a4.98 4.98 0 00.693-.965l1.794.15.422-1.306-1.536-.938c.014-.19.054-.38.054-.584" fill="#FFF" fill-rule="nonzero"/></g><g><path d="M274.619 112.16h24.737c3.467 0 6.267 2.813 6.267 6.28 0 3.465-2.814 6.279-6.267 6.279H274.62v-12.56z" fill="#000" fill-rule="nonzero"/><path d="M279.81 118.44c0-.205-.04-.395-.054-.599l1.536-.924-.421-1.305-1.794.15a5.43 5.43 0 00-.693-.965l.693-1.659-1.115-.802-1.345 1.156a5.632 5.632 0 00-1.142-.38l-.408-1.713h-1.373l-.407 1.712a5.632 5.632 0 00-1.142.38l-1.346-1.155-1.1.802.692 1.645a5.244 5.244 0 00-.693.965l-1.78-.15-.422 1.305 1.536.938c-.027.19-.068.394-.068.585 0 .204.041.394.068.598l-1.536.938.422 1.304 1.78-.149c.204.34.422.666.693.965l-.693 1.645 1.115.802 1.345-1.156c.367.163.748.3 1.156.38l.408 1.727h1.372l.408-1.726a5.632 5.632 0 001.142-.38l1.345 1.155 1.088-.802-.693-1.645a4.98 4.98 0 00.693-.965l1.794.15.421-1.305-1.536-.938c.014-.19.055-.38.055-.585z" stroke="#FFF" stroke-width="2.718" stroke-linecap="round" stroke-linejoin="round"/><path d="M279.81 118.44c0-.205-.04-.395-.054-.599l1.536-.924-.421-1.305-1.794.15a5.43 5.43 0 00-.693-.965l.693-1.659-1.115-.802-1.345 1.156a5.632 5.632 0 00-1.142-.38l-.408-1.713h-1.373l-.407 1.712a5.632 5.632 0 00-1.142.38l-1.346-1.155-1.1.802.692 1.645a5.244 5.244 0 00-.693.965l-1.78-.15-.422 1.305 1.536.938c-.027.19-.068.394-.068.585 0 .204.041.394.068.598l-1.536.938.422 1.304 1.78-.149c.204.34.422.666.693.965l-.693 1.645 1.115.802 1.345-1.156c.367.163.748.3 1.156.38l.408 1.727h1.372l.408-1.726a5.632 5.632 0 001.142-.38l1.345 1.155 1.088-.802-.693-1.645a4.98 4.98 0 00.693-.965l1.794.15.421-1.305-1.536-.938c.014-.19.055-.38.055-.585z" stroke="#000" stroke-width=".951" stroke-linecap="round" stroke-linejoin="round"/><path d="M279.81 118.44c0-.205-.04-.395-.054-.599l1.536-.924-.421-1.305-1.794.15a5.43 5.43 0 00-.693-.965l.693-1.659-1.115-.802-1.345 1.156a5.632 5.632 0 00-1.142-.38l-.408-1.713h-1.373l-.407 1.712a5.632 5.632 0 00-1.142.38l-1.346-1.155-1.1.802.692 1.645a5.244 5.244 0 00-.693.965l-1.78-.15-.422 1.305 1.536.938c-.027.19-.068.394-.068.585 0 .204.041.394.068.598l-1.536.938.422 1.304 1.78-.149c.204.34.422.666.693.965l-.693 1.645 1.115.802 1.345-1.156c.367.163.748.3 1.156.38l.408 1.727h1.372l.408-1.726a5.632 5.632 0 001.142-.38l1.345 1.155 1.088-.802-.693-1.645a4.98 4.98 0 00.693-.965l1.794.15.421-1.305-1.536-.938c.014-.19.055-.38.055-.585" fill="#FFF" fill-rule="nonzero"/></g><g><path d="M409.743 22.448h24.738c3.466 0 6.266 2.814 6.266 6.28s-2.813 6.28-6.266 6.28h-24.738v-12.56z" fill="#000" fill-rule="nonzero"/><path d="M414.935 28.728c0-.204-.04-.394-.054-.598l1.536-.924-.421-1.305-1.795.15a5.43 5.43 0 00-.693-.966l.693-1.658-1.114-.802-1.346 1.155a5.632 5.632 0 00-1.141-.38l-.408-1.713h-1.373l-.408 1.713a5.632 5.632 0 00-1.142.38l-1.345-1.155-1.101.802.693 1.645a5.244 5.244 0 00-.693.965l-1.78-.15-.422 1.305 1.536.938c-.027.19-.068.394-.068.584 0 .204.04.394.068.598l-1.536.938.421 1.305 1.78-.15c.205.34.422.667.694.966l-.693 1.644 1.114.802 1.346-1.155c.367.163.748.299 1.155.38l.408 1.727h1.373l.408-1.727a5.632 5.632 0 001.141-.38l1.346 1.155 1.087-.802-.693-1.644a4.98 4.98 0 00.693-.965l1.795.149.421-1.305-1.536-.938c.014-.19.054-.38.054-.584z" stroke="#FFF" stroke-width="2.718" stroke-linecap="round" stroke-linejoin="round"/><path d="M414.935 28.728c0-.204-.04-.394-.054-.598l1.536-.924-.421-1.305-1.795.15a5.43 5.43 0 00-.693-.966l.693-1.658-1.114-.802-1.346 1.155a5.632 5.632 0 00-1.141-.38l-.408-1.713h-1.373l-.408 1.713a5.632 5.632 0 00-1.142.38l-1.345-1.155-1.101.802.693 1.645a5.244 5.244 0 00-.693.965l-1.78-.15-.422 1.305 1.536.938c-.027.19-.068.394-.068.584 0 .204.04.394.068.598l-1.536.938.421 1.305 1.78-.15c.205.34.422.667.694.966l-.693 1.644 1.114.802 1.346-1.155c.367.163.748.299 1.155.38l.408 1.727h1.373l.408-1.727a5.632 5.632 0 001.141-.38l1.346 1.155 1.087-.802-.693-1.644a4.98 4.98 0 00.693-.965l1.795.149.421-1.305-1.536-.938c.014-.19.054-.38.054-.584z" stroke="#000" stroke-width=".951" stroke-linecap="round" stroke-linejoin="round"/><path d="M414.935 28.728c0-.204-.04-.394-.054-.598l1.536-.924-.421-1.305-1.795.15a5.43 5.43 0 00-.693-.966l.693-1.658-1.114-.802-1.346 1.155a5.632 5.632 0 00-1.141-.38l-.408-1.713h-1.373l-.408 1.713a5.632 5.632 0 00-1.142.38l-1.345-1.155-1.101.802.693 1.645a5.244 5.244 0 00-.693.965l-1.78-.15-.422 1.305 1.536.938c-.027.19-.068.394-.068.584 0 .204.04.394.068.598l-1.536.938.421 1.305 1.78-.15c.205.34.422.667.694.966l-.693 1.644 1.114.802 1.346-1.155c.367.163.748.299 1.155.38l.408 1.727h1.373l.408-1.727a5.632 5.632 0 001.141-.38l1.346 1.155 1.087-.802-.693-1.644a4.98 4.98 0 00.693-.965l1.795.149.421-1.305-1.536-.938c.014-.19.054-.38.054-.584" fill="#FFF" fill-rule="nonzero"/></g><g><path d="M310.713 22.448h24.738c3.466 0 6.266 2.814 6.266 6.28s-2.814 6.28-6.266 6.28h-24.738v-12.56z" fill="#000" fill-rule="nonzero"/><path d="M315.905 28.728c0-.204-.04-.394-.054-.598l1.536-.924-.422-1.305-1.794.15a5.43 5.43 0 00-.693-.966l.693-1.658-1.115-.802-1.345 1.155a5.632 5.632 0 00-1.142-.38l-.408-1.713h-1.373l-.407 1.713a5.632 5.632 0 00-1.142.38l-1.346-1.155-1.1.802.693 1.645a5.244 5.244 0 00-.694.965l-1.78-.15-.422 1.305 1.536.938c-.027.19-.068.394-.068.584 0 .204.041.394.068.598l-1.536.938.422 1.305 1.78-.15c.204.34.422.667.694.966l-.694 1.644 1.115.802 1.346-1.155c.367.163.747.299 1.155.38l.408 1.727h1.372l.408-1.727a5.632 5.632 0 001.142-.38l1.346 1.155 1.087-.802-.693-1.644a4.98 4.98 0 00.693-.965l1.794.149.422-1.305-1.536-.938c.013-.19.054-.38.054-.584z" stroke="#FFF" stroke-width="2.718" stroke-linecap="round" stroke-linejoin="round"/><path d="M315.905 28.728c0-.204-.04-.394-.054-.598l1.536-.924-.422-1.305-1.794.15a5.43 5.43 0 00-.693-.966l.693-1.658-1.115-.802-1.345 1.155a5.632 5.632 0 00-1.142-.38l-.408-1.713h-1.373l-.407 1.713a5.632 5.632 0 00-1.142.38l-1.346-1.155-1.1.802.693 1.645a5.244 5.244 0 00-.694.965l-1.78-.15-.422 1.305 1.536.938c-.027.19-.068.394-.068.584 0 .204.041.394.068.598l-1.536.938.422 1.305 1.78-.15c.204.34.422.667.694.966l-.694 1.644 1.115.802 1.346-1.155c.367.163.747.299 1.155.38l.408 1.727h1.372l.408-1.727a5.632 5.632 0 001.142-.38l1.346 1.155 1.087-.802-.693-1.644a4.98 4.98 0 00.693-.965l1.794.149.422-1.305-1.536-.938c.013-.19.054-.38.054-.584z" stroke="#000" stroke-width=".951" stroke-linecap="round" stroke-linejoin="round"/><path d="M315.905 28.728c0-.204-.04-.394-.054-.598l1.536-.924-.422-1.305-1.794.15a5.43 5.43 0 00-.693-.966l.693-1.658-1.115-.802-1.345 1.155a5.632 5.632 0 00-1.142-.38l-.408-1.713h-1.373l-.407 1.713a5.632 5.632 0 00-1.142.38l-1.346-1.155-1.1.802.693 1.645a5.244 5.244 0 00-.694.965l-1.78-.15-.422 1.305 1.536.938c-.027.19-.068.394-.068.584 0 .204.041.394.068.598l-1.536.938.422 1.305 1.78-.15c.204.34.422.667.694.966l-.694 1.644 1.115.802 1.346-1.155c.367.163.747.299 1.155.38l.408 1.727h1.372l.408-1.727a5.632 5.632 0 001.142-.38l1.346 1.155 1.087-.802-.693-1.644a4.98 4.98 0 00.693-.965l1.794.149.422-1.305-1.536-.938c.013-.19.054-.38.054-.584" fill="#FFF" fill-rule="nonzero"/></g><g><path d="M201.417 22.448h24.738c3.466 0 6.266 2.814 6.266 6.28s-2.814 6.28-6.266 6.28h-24.738v-12.56z" fill="#000" fill-rule="nonzero"/><path d="M206.609 28.728c0-.204-.04-.394-.054-.598l1.536-.924-.422-1.305-1.794.15a5.43 5.43 0 00-.693-.966l.693-1.658-1.115-.802-1.345 1.155a5.632 5.632 0 00-1.142-.38l-.408-1.713h-1.372l-.408 1.713a5.632 5.632 0 00-1.142.38l-1.346-1.155-1.1.802.693 1.645a5.244 5.244 0 00-.694.965l-1.78-.15-.422 1.305 1.536.938c-.027.19-.068.394-.068.584 0 .204.041.394.068.598l-1.536.938.422 1.305 1.78-.15c.204.34.422.667.694.966l-.694 1.644 1.115.802 1.346-1.155c.367.163.747.299 1.155.38l.408 1.727h1.373l.407-1.727a5.632 5.632 0 001.142-.38l1.346 1.155 1.087-.802-.693-1.644a4.98 4.98 0 00.693-.965l1.794.149.422-1.305-1.536-.938c.013-.19.054-.38.054-.584z" stroke="#FFF" stroke-width="2.718" stroke-linecap="round" stroke-linejoin="round"/><path d="M206.609 28.728c0-.204-.04-.394-.054-.598l1.536-.924-.422-1.305-1.794.15a5.43 5.43 0 00-.693-.966l.693-1.658-1.115-.802-1.345 1.155a5.632 5.632 0 00-1.142-.38l-.408-1.713h-1.372l-.408 1.713a5.632 5.632 0 00-1.142.38l-1.346-1.155-1.1.802.693 1.645a5.244 5.244 0 00-.694.965l-1.78-.15-.422 1.305 1.536.938c-.027.19-.068.394-.068.584 0 .204.041.394.068.598l-1.536.938.422 1.305 1.78-.15c.204.34.422.667.694.966l-.694 1.644 1.115.802 1.346-1.155c.367.163.747.299 1.155.38l.408 1.727h1.373l.407-1.727a5.632 5.632 0 001.142-.38l1.346 1.155 1.087-.802-.693-1.644a4.98 4.98 0 00.693-.965l1.794.149.422-1.305-1.536-.938c.013-.19.054-.38.054-.584z" stroke="#000" stroke-width=".951" stroke-linecap="round" stroke-linejoin="round"/><path d="M206.609 28.728c0-.204-.04-.394-.054-.598l1.536-.924-.422-1.305-1.794.15a5.43 5.43 0 00-.693-.966l.693-1.658-1.115-.802-1.345 1.155a5.632 5.632 0 00-1.142-.38l-.408-1.713h-1.372l-.408 1.713a5.632 5.632 0 00-1.142.38l-1.346-1.155-1.1.802.693 1.645a5.244 5.244 0 00-.694.965l-1.78-.15-.422 1.305 1.536.938c-.027.19-.068.394-.068.584 0 .204.041.394.068.598l-1.536.938.422 1.305 1.78-.15c.204.34.422.667.694.966l-.694 1.644 1.115.802 1.346-1.155c.367.163.747.299 1.155.38l.408 1.727h1.373l.407-1.727a5.632 5.632 0 001.142-.38l1.346 1.155 1.087-.802-.693-1.644a4.98 4.98 0 00.693-.965l1.794.149.422-1.305-1.536-.938c.013-.19.054-.38.054-.584" fill="#FFF" fill-rule="nonzero"/></g><g><path d="M257.143 22.448h24.738c3.466 0 6.266 2.814 6.266 6.28s-2.814 6.28-6.266 6.28h-24.738v-12.56z" fill="#000" fill-rule="nonzero"/><path d="M262.335 28.728c0-.204-.04-.394-.054-.598l1.536-.924-.422-1.305-1.794.15a5.43 5.43 0 00-.693-.966l.693-1.658-1.114-.802-1.346 1.155a5.632 5.632 0 00-1.142-.38l-.408-1.713h-1.372l-.408 1.713a5.632 5.632 0 00-1.142.38l-1.346-1.155-1.1.802.693 1.645a5.244 5.244 0 00-.693.965l-1.781-.15-.421 1.305 1.535.938c-.027.19-.067.394-.067.584 0 .204.04.394.067.598l-1.535.938.42 1.305 1.782-.15c.203.34.42.667.693.966l-.693 1.644 1.114.802 1.346-1.155c.367.163.747.299 1.155.38l.408 1.727h1.373l.407-1.727a5.632 5.632 0 001.142-.38l1.346 1.155 1.087-.802-.693-1.644a4.98 4.98 0 00.693-.965l1.794.149.422-1.305-1.536-.938c.013-.19.054-.38.054-.584z" stroke="#FFF" stroke-width="2.718" stroke-linecap="round" stroke-linejoin="round"/><path d="M262.335 28.728c0-.204-.04-.394-.054-.598l1.536-.924-.422-1.305-1.794.15a5.43 5.43 0 00-.693-.966l.693-1.658-1.114-.802-1.346 1.155a5.632 5.632 0 00-1.142-.38l-.408-1.713h-1.372l-.408 1.713a5.632 5.632 0 00-1.142.38l-1.346-1.155-1.1.802.693 1.645a5.244 5.244 0 00-.693.965l-1.781-.15-.421 1.305 1.535.938c-.027.19-.067.394-.067.584 0 .204.04.394.067.598l-1.535.938.42 1.305 1.782-.15c.203.34.42.667.693.966l-.693 1.644 1.114.802 1.346-1.155c.367.163.747.299 1.155.38l.408 1.727h1.373l.407-1.727a5.632 5.632 0 001.142-.38l1.346 1.155 1.087-.802-.693-1.644a4.98 4.98 0 00.693-.965l1.794.149.422-1.305-1.536-.938c.013-.19.054-.38.054-.584z" stroke="#000" stroke-width=".951" stroke-linecap="round" stroke-linejoin="round"/><path d="M262.335 28.728c0-.204-.04-.394-.054-.598l1.536-.924-.422-1.305-1.794.15a5.43 5.43 0 00-.693-.966l.693-1.658-1.114-.802-1.346 1.155a5.632 5.632 0 00-1.142-.38l-.408-1.713h-1.372l-.408 1.713a5.632 5.632 0 00-1.142.38l-1.346-1.155-1.1.802.693 1.645a5.244 5.244 0 00-.693.965l-1.781-.15-.421 1.305 1.535.938c-.027.19-.067.394-.067.584 0 .204.04.394.067.598l-1.535.938.42 1.305 1.782-.15c.203.34.42.667.693.966l-.693 1.644 1.114.802 1.346-1.155c.367.163.747.299 1.155.38l.408 1.727h1.373l.407-1.727a5.632 5.632 0 001.142-.38l1.346 1.155 1.087-.802-.693-1.644a4.98 4.98 0 00.693-.965l1.794.149.422-1.305-1.536-.938c.013-.19.054-.38.054-.584" fill="#FFF" fill-rule="nonzero"/></g><g><path d="M91.165 22.448h24.738c3.466 0 6.266 2.814 6.266 6.28s-2.814 6.28-6.266 6.28H91.165v-12.56z" fill="#000" fill-rule="nonzero"/><path d="M96.357 28.728c0-.204-.04-.394-.054-.598l1.536-.924-.422-1.305-1.794.15a5.43 5.43 0 00-.693-.966l.693-1.658-1.114-.802-1.346 1.155a5.632 5.632 0 00-1.142-.38l-.407-1.713H90.24l-.408 1.713a5.632 5.632 0 00-1.142.38l-1.345-1.155-1.101.802.693 1.645a5.244 5.244 0 00-.693.965l-1.781-.15-.421 1.305 1.536.938c-.028.19-.068.394-.068.584 0 .204.04.394.068.598l-1.536.938.421 1.305 1.78-.15c.205.34.422.667.694.966l-.693 1.644 1.114.802 1.346-1.155c.367.163.747.299 1.155.38l.408 1.727h1.373l.408-1.727a5.632 5.632 0 001.141-.38l1.346 1.155 1.087-.802-.693-1.644a4.98 4.98 0 00.693-.965l1.794.149.422-1.305-1.536-.938c.013-.19.054-.38.054-.584z" stroke="#FFF" stroke-width="2.718" stroke-linecap="round" stroke-linejoin="round"/><path d="M96.357 28.728c0-.204-.04-.394-.054-.598l1.536-.924-.422-1.305-1.794.15a5.43 5.43 0 00-.693-.966l.693-1.658-1.114-.802-1.346 1.155a5.632 5.632 0 00-1.142-.38l-.407-1.713H90.24l-.408 1.713a5.632 5.632 0 00-1.142.38l-1.345-1.155-1.101.802.693 1.645a5.244 5.244 0 00-.693.965l-1.781-.15-.421 1.305 1.536.938c-.028.19-.068.394-.068.584 0 .204.04.394.068.598l-1.536.938.421 1.305 1.78-.15c.205.34.422.667.694.966l-.693 1.644 1.114.802 1.346-1.155c.367.163.747.299 1.155.38l.408 1.727h1.373l.408-1.727a5.632 5.632 0 001.141-.38l1.346 1.155 1.087-.802-.693-1.644a4.98 4.98 0 00.693-.965l1.794.149.422-1.305-1.536-.938c.013-.19.054-.38.054-.584z" stroke="#000" stroke-width=".951" stroke-linecap="round" stroke-linejoin="round"/><path d="M96.357 28.728c0-.204-.04-.394-.054-.598l1.536-.924-.422-1.305-1.794.15a5.43 5.43 0 00-.693-.966l.693-1.658-1.114-.802-1.346 1.155a5.632 5.632 0 00-1.142-.38l-.407-1.713H90.24l-.408 1.713a5.632 5.632 0 00-1.142.38l-1.345-1.155-1.101.802.693 1.645a5.244 5.244 0 00-.693.965l-1.781-.15-.421 1.305 1.536.938c-.028.19-.068.394-.068.584 0 .204.04.394.068.598l-1.536.938.421 1.305 1.78-.15c.205.34.422.667.694.966l-.693 1.644 1.114.802 1.346-1.155c.367.163.747.299 1.155.38l.408 1.727h1.373l.408-1.727a5.632 5.632 0 001.141-.38l1.346 1.155 1.087-.802-.693-1.644a4.98 4.98 0 00.693-.965l1.794.149.422-1.305-1.536-.938c.013-.19.054-.38.054-.584" fill="#FFF" fill-rule="nonzero"/></g><g><path d="M201.417 75.58h24.738c3.466 0 6.266 2.814 6.266 6.28s-2.814 6.28-6.266 6.28h-24.738V75.58z" fill="#000" fill-rule="nonzero"/><path d="M206.609 81.86c0-.204-.04-.394-.054-.598l1.536-.924-.422-1.305-1.794.15a5.43 5.43 0 00-.693-.966l.693-1.658-1.115-.802-1.345 1.156a5.632 5.632 0 00-1.142-.381l-.408-1.713h-1.372l-.408 1.713a5.632 5.632 0 00-1.142.38l-1.346-1.155-1.1.802.693 1.645a5.244 5.244 0 00-.694.965l-1.78-.15-.422 1.305 1.536.938c-.027.19-.068.394-.068.584 0 .204.041.395.068.599l-1.536.937.422 1.305 1.78-.15c.204.34.422.667.694.966l-.694 1.644 1.115.802 1.346-1.155c.367.163.747.3 1.155.38l.408 1.727h1.373l.407-1.726a5.632 5.632 0 001.142-.38l1.346 1.154 1.087-.802-.693-1.644a4.98 4.98 0 00.693-.965l1.794.15.422-1.306-1.536-.937c.013-.19.054-.381.054-.585z" stroke="#FFF" stroke-width="2.718" stroke-linecap="round" stroke-linejoin="round"/><path d="M206.609 81.86c0-.204-.04-.394-.054-.598l1.536-.924-.422-1.305-1.794.15a5.43 5.43 0 00-.693-.966l.693-1.658-1.115-.802-1.345 1.156a5.632 5.632 0 00-1.142-.381l-.408-1.713h-1.372l-.408 1.713a5.632 5.632 0 00-1.142.38l-1.346-1.155-1.1.802.693 1.645a5.244 5.244 0 00-.694.965l-1.78-.15-.422 1.305 1.536.938c-.027.19-.068.394-.068.584 0 .204.041.395.068.599l-1.536.937.422 1.305 1.78-.15c.204.34.422.667.694.966l-.694 1.644 1.115.802 1.346-1.155c.367.163.747.3 1.155.38l.408 1.727h1.373l.407-1.726a5.632 5.632 0 001.142-.38l1.346 1.154 1.087-.802-.693-1.644a4.98 4.98 0 00.693-.965l1.794.15.422-1.306-1.536-.937c.013-.19.054-.381.054-.585z" stroke="#000" stroke-width=".951" stroke-linecap="round" stroke-linejoin="round"/><path d="M206.609 81.86c0-.204-.04-.394-.054-.598l1.536-.924-.422-1.305-1.794.15a5.43 5.43 0 00-.693-.966l.693-1.658-1.115-.802-1.345 1.156a5.632 5.632 0 00-1.142-.381l-.408-1.713h-1.372l-.408 1.713a5.632 5.632 0 00-1.142.38l-1.346-1.155-1.1.802.693 1.645a5.244 5.244 0 00-.694.965l-1.78-.15-.422 1.305 1.536.938c-.027.19-.068.394-.068.584 0 .204.041.395.068.599l-1.536.937.422 1.305 1.78-.15c.204.34.422.667.694.966l-.694 1.644 1.115.802 1.346-1.155c.367.163.747.3 1.155.38l.408 1.727h1.373l.407-1.726a5.632 5.632 0 001.142-.38l1.346 1.154 1.087-.802-.693-1.644a4.98 4.98 0 00.693-.965l1.794.15.422-1.306-1.536-.937c.013-.19.054-.381.054-.585" fill="#FFF" fill-rule="nonzero"/></g><g stroke-linecap="round" stroke-linejoin="round"><path stroke="#000" stroke-width=".883" d="M249.798 114.697h-28.544V90.68"/><path stroke="#FFF" stroke-width="3.398" d="M249.798 114.697h-28.544V90.68"/><path stroke="#000" stroke-width=".883" d="M249.798 114.697h-28.544V90.68"/></g><g stroke-linecap="round" stroke-linejoin="round"><path stroke="#000" stroke-width=".883" d="M291.934 21.876v33.858"/><path stroke="#FFF" stroke-width="3.398" d="M291.934 21.876v33.858"/><path stroke="#000" stroke-width=".883" d="M291.934 21.876v33.858"/></g><g fill-rule="nonzero"><path fill="#FFF" d="M195.685 235.501l9.361 9.361 9.352-9.351-9.362-9.361z"/><path fill="#00628B" d="M197.416 235.502l7.63 7.631 7.632-7.63-7.631-7.632z"/></g><g fill-rule="nonzero"><path fill="#FFF" d="M211.317 204.239l9.361 9.361 9.352-9.351-9.362-9.362z"/><path fill="#00628B" d="M213.047 204.24l7.631 7.631 7.631-7.63-7.63-7.632z"/></g><g fill-rule="nonzero"><path fill="#FFF" d="M297.354 220.925l9.361 9.362 9.352-9.352-9.362-9.361z"/><path fill="#00628B" d="M299.085 220.926l7.63 7.632 7.632-7.632-7.631-7.63z"/></g><g fill-rule="nonzero"><path fill="#FFF" d="M306.749 180.222l9.361 9.361 9.352-9.352-9.362-9.36z"/><path fill="#00628B" d="M308.48 180.223l7.63 7.63 7.632-7.63-7.631-7.631z"/></g><g fill-rule="nonzero"><path fill="#FFF" d="M197.104 140.803l9.361 9.362 9.352-9.352-9.362-9.361z"/><path fill="#00628B" d="M198.834 140.805l7.632 7.63 7.63-7.63-7.63-7.632z"/></g><g fill-rule="nonzero"><path fill="#FFF" d="M342.04 208.877l9.361 9.361 9.352-9.351-9.362-9.362z"/><path fill="#00628B" d="M343.77 208.878l7.631 7.631 7.632-7.631-7.632-7.631z"/></g><g fill-rule="nonzero"><path fill="#FFF" d="M356.716 185.248l9.362 9.362 9.351-9.352-9.361-9.361z"/><path fill="#00628B" d="M358.447 185.25l7.631 7.63 7.631-7.63-7.63-7.632z"/></g><g fill-rule="nonzero"><path fill="#FFF" d="M295.84 101.963l9.36 9.362 9.352-9.352-9.361-9.361z"/><path fill="#00628B" d="M297.57 101.965l7.631 7.63 7.631-7.63-7.631-7.632z"/></g><g fill-rule="nonzero"><path fill="#FFF" d="M405.936 115.726l9.362 9.362 9.351-9.352-9.361-9.361z"/><path fill="#00628B" d="M407.667 115.727l7.631 7.631 7.631-7.63-7.63-7.632z"/></g><g fill-rule="nonzero"><path fill="#FFF" d="M273.125 64.982l9.362 9.361 9.351-9.351-9.361-9.362z"/><path fill="#00628B" d="M274.856 64.983l7.631 7.63 7.631-7.63-7.63-7.631z"/></g><g fill-rule="nonzero"><path fill="#FFF" d="M266.402 81.894l9.362 9.361 9.351-9.351-9.361-9.362z"/><path fill="#00628B" d="M268.133 81.895l7.631 7.63 7.631-7.63-7.63-7.631z"/></g><g fill-rule="nonzero"><path fill="#FFF" d="M57.343 153.879l9.361 9.361 9.352-9.351-9.362-9.362z"/><path fill="#00628B" d="M59.073 153.88l7.631 7.63 7.632-7.63-7.632-7.631z"/></g><g fill-rule="nonzero"><path fill="#FFF" d="M59.042 183.442l9.362 9.361 9.351-9.351-9.361-9.362z"/><path fill="#00628B" d="M60.773 183.443l7.631 7.631 7.631-7.631-7.63-7.631z"/></g><g fill-rule="nonzero"><path fill="#FFF" d="M88.117 167.383l9.361 9.362 9.352-9.352-9.361-9.361z"/><path fill="#00628B" d="M89.848 167.384l7.63 7.632 7.632-7.632-7.631-7.63z"/></g><g><path stroke="#FFF" stroke-width="2.718" stroke-linecap="round" stroke-linejoin="round" d="M107.536 134.142l3.93-3.93 3.931 3.93-3.93 3.93z"/><path fill="#00628B" fill-rule="nonzero" d="M107.536 134.142l3.93-3.93 3.931 3.93-3.93 3.93z"/></g><g><path stroke="#FFF" stroke-width="2.718" stroke-linecap="round" stroke-linejoin="round" d="M325.7 54.804l3.93-3.93 3.931 3.93-3.93 3.931z"/><path fill="#00628B" fill-rule="nonzero" d="M325.7 54.804l3.93-3.93 3.931 3.93-3.93 3.931z"/></g><g><path stroke="#FFF" stroke-width="2.718" stroke-linecap="round" stroke-linejoin="round" d="M183.65 216.103l3.931-3.93 3.93 3.93-3.93 3.931z"/><path fill="#00628B" fill-rule="nonzero" d="M183.65 216.103l3.931-3.93 3.93 3.93-3.93 3.931z"/></g><g><path stroke="#FFF" stroke-width="2.718" stroke-linecap="round" stroke-linejoin="round" d="M287.584 193.58l3.931-3.93 3.931 3.93-3.93 3.93z"/><path fill="#00628B" fill-rule="nonzero" d="M287.584 193.58l3.931-3.93 3.931 3.93-3.93 3.93z"/></g><g><path stroke="#FFF" stroke-width="2.718" stroke-linecap="round" stroke-linejoin="round" d="M247.29 114.412l3.93-3.931 3.932 3.93-3.931 3.931z"/><path fill="#00628B" fill-rule="nonzero" d="M247.29 114.412l3.93-3.931 3.932 3.93-3.931 3.931z"/></g><g><path stroke="#FFF" stroke-width="2.718" stroke-linecap="round" stroke-linejoin="round" d="M393.79 134.927l3.93-3.931 3.932 3.93-3.93 3.931z"/><path fill="#00628B" fill-rule="nonzero" d="M393.79 134.927l3.93-3.931 3.932 3.93-3.93 3.931z"/></g></g><g font-family="Helvetica"><text fill="#FFF" font-size="10.874" transform="translate(25.885 21.6)"><tspan x="185.668" y="10">225</tspan></text><text fill="#000" font-size="10.874" transform="translate(25.885 21.6)"><tspan x="172.298" y="10">4</tspan></text><text fill="#FFF" font-size="10.874" transform="translate(25.885 21.6)"><tspan x="184.309" y="63.132">288</tspan></text><text fill="#000" font-size="10.874" transform="translate(25.885 21.6)"><tspan x="172.298" y="63.132">6</tspan></text><text fill="#FFF" font-size="10.874" transform="translate(25.885 21.6)"><tspan x="241.396" y="10">156</tspan></text><text fill="#000" font-size="10.874" transform="translate(25.885 21.6)"><tspan x="228.026" y="10">3</tspan></text><text fill="#FFF" font-size="10.874" transform="translate(25.885 21.6)"><tspan x="75.494" y="10">310</tspan></text><text fill="#000" font-size="10.874" transform="translate(25.885 21.6)"><tspan x="61.812" y="10">7</tspan></text><text fill="#FFF" font-size="10.874" transform="translate(25.885 21.6)"><tspan x="293.754" y="10">309</tspan></text><text fill="#000" font-size="10.874" transform="translate(25.885 21.6)"><tspan x="281.431" y="10">7</tspan></text><text fill="#FFF" font-size="10.874" transform="translate(25.885 21.6)"><tspan x="394.168" y="10">262</tspan></text><text fill="#000" font-size="10.874" transform="translate(25.885 21.6)"><tspan x="380.486" y="10">6</tspan></text><text fill="#000" font-size="10.874" transform="translate(25.885 21.6)"><tspan x="157.731" y="251.435">3</tspan></text><text fill="#FFF" font-size="10.874" transform="translate(25.885 21.6)"><tspan x="171.187" y="251.432">141</tspan></text><text fill="#000" font-size="10.874" transform="translate(25.885 21.6)"><tspan x="199.602" y="251.435">5</tspan></text><text fill="#FFF" font-size="10.874" transform="translate(25.885 21.6)"><tspan x="213.058" y="251.432">232</tspan></text><text fill="#000" font-size="10.874" transform="translate(25.885 21.6)"><tspan x="241.769" y="251.435">6</tspan></text><text fill="#FFF" font-size="10.874" transform="translate(25.885 21.6)"><tspan x="256.583" y="251.432">284</tspan></text><text fill="#000" font-size="10.874" transform="translate(25.885 21.6)"><tspan x="0" y="251.435">2</tspan></text><text fill="#FFF" font-size="10.874" transform="translate(25.885 21.6)"><tspan x="15.12" y="251.432">94</tspan></text><text fill="#000" font-size="10.874" transform="translate(25.885 21.6)"><tspan x="89.142" y="147.794">2</tspan></text><text fill="#FFF" font-size="10.874" transform="translate(25.885 21.6)"><tspan x="104.262" y="147.791">84</tspan></text><text fill="#000" font-size="10.874" transform="translate(25.885 21.6)"><tspan x="0" y="10">2</tspan></text><text fill="#FFF" font-size="10.874" transform="translate(25.885 21.6)"><tspan x="16.479" y="10">93</tspan></text><text fill="#000" font-size="10.874" transform="translate(25.885 21.6)"><tspan x="113.33" y="251.435">6</tspan></text><text fill="#FFF" font-size="10.874" transform="translate(25.885 21.6)"><tspan x="128.145" y="251.432">291</tspan></text><text fill="#000" font-size="10.874" transform="translate(25.885 21.6)"><tspan x="363.237" y="251.435">3</tspan></text><text fill="#FFF" font-size="10.874" transform="translate(25.885 21.6)"><tspan x="375.333" y="251.432">127</tspan></text><text fill="#E50040" font-size="10.874" transform="translate(25.885 21.6)"><tspan x="224.381" y="113.356">2</tspan></text><text fill="#E50040" font-size="10.874" transform="translate(25.885 21.6)"><tspan x="90.848" y="200.117">3</tspan></text><text fill="#E50040" font-size="10.874" transform="translate(25.885 21.6)"><tspan x="312.861" y="120.593">1</tspan></text><text fill="#FFF" font-size="9.82" transform="translate(25.885 21.6)"><tspan x="175.638" y="216.69">1</tspan></text><text fill="#FFF" font-size="9.82" transform="translate(25.885 21.6)"><tspan x="192.269" y="185.428">2</tspan></text><text fill="#FFF" font-size="9.82" transform="translate(25.885 21.6)"><tspan x="287.569" y="161.385">4</tspan></text><text fill="#FFF" font-size="9.82" transform="translate(25.885 21.6)"><tspan x="322.897" y="190.015">5</tspan></text><text fill="#FFF" font-size="9.82" transform="translate(25.885 21.6)"><tspan x="337.534" y="166.399">6</tspan></text><text fill="#FFF" font-size="9.82" transform="translate(25.885 21.6)"><tspan x="276.709" y="82.112">7</tspan></text><text fill="#FFF" font-size="9.82" transform="translate(25.885 21.6)"><tspan x="253.942" y="46.301">9</tspan></text><text fill="#FFF" font-size="9.82" transform="translate(25.885 21.6)"><tspan x="386.716" y="96.841">8</tspan></text><text fill="#FFF" font-size="9.82" transform="translate(25.885 21.6)"><tspan x="244.18" y="63.208">10</tspan></text><text fill="#FFF" font-size="9.82" transform="translate(25.885 21.6)"><tspan x="175.812" y="121.872">11</tspan></text><text fill="#FFF" font-size="9.82" transform="translate(25.885 21.6)"><tspan x="34.652" y="135.011">12</tspan></text><text fill="#FFF" font-size="9.82" transform="translate(25.885 21.6)"><tspan x="36.351" y="163.574">14</tspan></text><text fill="#FFF" font-size="9.82" transform="translate(25.885 21.6)"><tspan x="65.965" y="148.603">13</tspan></text><text fill="#000" font-size="10.874" transform="translate(25.885 21.6)"><tspan x="250.89" y="125.083">6</tspan></text><text fill="#FFF" font-size="10.874" transform="translate(25.885 21.6)"><tspan x="264.346" y="125.08">281</tspan></text><text fill="#000" font-size="10.874" transform="translate(25.885 21.6)"><tspan x="245.485" y="99.71">3</tspan></text><text fill="#FFF" font-size="10.874" transform="translate(25.885 21.6)"><tspan x="258.94" y="99.708">134</tspan></text><text fill="#000" font-size="10.874" transform="translate(25.885 21.6)"><tspan x="368.624" y="144.906">6</tspan></text><text fill="#FFF" font-size="10.874" transform="translate(25.885 21.6)"><tspan x="382.079" y="144.903">270</tspan></text><text fill="#000" font-size="10.874" transform="translate(25.885 21.6)"><tspan x="236.779" y="160.31">2</tspan></text><text fill="#FFF" font-size="10.874" transform="translate(25.885 21.6)"><tspan x="251.899" y="160.307">99</tspan></text><text fill="#FFF" font-size="10.874" transform="translate(25.885 21.6)"><tspan x="129.462" y="273.266">km/h</tspan></text><text fill="#FFF" font-size="9.82" transform="translate(25.885 21.6)"><tspan x="278.17" y="202.078">3</tspan></text></g></g></svg>