<svg id="Capa_1" data-name="Capa 1" xmlns="http://www.w3.org/2000/svg" width="297.85" height="188.35" viewBox="0 0 297.85 188.35"><defs><style>.cls-1,.cls-10,.cls-16,.cls-17,.cls-18,.cls-2,.cls-3,.cls-4,.cls-5,.cls-6,.cls-8,.cls-9{fill:none;}.cls-1,.cls-10,.cls-6{stroke:#fff;}.cls-1,.cls-10,.cls-16,.cls-18,.cls-2,.cls-3,.cls-4,.cls-9{stroke-linecap:round;}.cls-1,.cls-10,.cls-16,.cls-17,.cls-18,.cls-2,.cls-3,.cls-4,.cls-5,.cls-9{stroke-linejoin:round;}.cls-1{stroke-width:8px;}.cls-2,.cls-3{stroke:#00071b;}.cls-2,.cls-4,.cls-5{stroke-width:2.8px;}.cls-3{stroke-width:5.4px;}.cls-4{stroke:#8c92a1;}.cls-5{stroke:#fff100;}.cls-6{stroke-width:1.3px;}.cls-7{fill:#ea1a4d;}.cls-16,.cls-17,.cls-18,.cls-8,.cls-9{stroke:#231f20;}.cls-9{stroke-width:1.5px;}.cls-10,.cls-15,.cls-16{stroke-width:0.5px;}.cls-11,.cls-15,.cls-20,.cls-22,.cls-24,.cls-25{fill:#fff;}.cls-12{fill:#ffca05;}.cls-13,.cls-19,.cls-23{fill:#231f20;}.cls-14{fill:#007dc4;}.cls-15{stroke:#007dc4;}.cls-17{stroke-width:0.25px;}.cls-18{stroke-width:0.65px;}.cls-19,.cls-20,.cls-21,.cls-22,.cls-23,.cls-24,.cls-25{isolation:isolate;}.cls-19,.cls-20,.cls-22{font-size:8.5px;}.cls-19,.cls-20,.cls-22,.cls-24,.cls-25{font-family:Helvetica-Bold, Helvetica;font-weight:700;}.cls-22{letter-spacing:-0.05em;}.cls-23,.cls-24,.cls-25{font-size:7.5px;}.cls-23{font-family:Helvetica-Oblique, Helvetica;font-style:oblique;}.cls-24{letter-spacing:-0.08em;}.cls-25{letter-spacing:-0.13em;}</style></defs><g id="spa_francorchamps" data-name="spa francorchamps"><path class="cls-1" d="M45.36,45.12l49.57,5.21c4.82.58,11.16.63,6.36,5.21-3.53,3.37,6.37,7.91,15.44,13.31s25,9,32.4,11.19c7.91,2.31,11.57,12.68,17.07,24.3,5.21,11,0,23.26-.87,32.79a67,67,0,0,0,1,19.48c1.16,6.76,2.79,12.93,7.14,19.87,5.23,8.38,13.5,6.27,13.5,6.27l11.28-3.38c5.79-2.12,3.57-8.87,3.57-8.87l-6.46-15.72c-2.8-8.29,2-10.85,6.46-13.11,9.07-4.63,3.67-12.06,3.67-12.06L189.83,102.8c-4.92-7.62-3.86-13.7.39-20.06s10.12-10,17.55-5.79c18.77,10.73,38.39,16.88,43.59,19.29,4.12,1.9,1,14.66,1,16.39s.19,6.56,5,7,5.79-4.63,5.79-4.63l1.35-30.48c.1-5-2.51-6.56-2.51-6.56s-8.39-3.76-10.7-4.91-2.51-2.61-2.32-6.85S245,60.6,245,60.6l-71.2-26.86c-11.86-4.72-31-4.34-37.9-4.92-6-.49-10.32-5.49-15.92-5.49s-6.07,2.12-12,2.89-29.41.58-41.47,4.15c-8.49,2.5-21.9,9.83-21.9,9.83s-3,1.55-2.7,2.8C42.24,44.55,43.72,44.93,45.36,45.12Z" transform="translate(-4.63 -5.05)"/><path class="cls-2" d="M66.7,31.81s-11.88,5.31-10.63,8.27c.42,1,2.6,1.26,4.24,1.45L96,45.15l5.74-.51,10.32,2a3.81,3.81,0,0,1,2,1.93c.39,1.26-.84,2.28-2,3.28-1.53,1.36-3.8,2.68-7.92,5.68" transform="translate(-4.63 -5.05)"/><path class="cls-3" d="M45.36,45.12l49.57,5.21c4.82.58,11.16.63,6.36,5.21-3.53,3.37,6.37,7.91,15.44,13.31s25,9,32.4,11.19c7.91,2.31,11.57,12.68,17.07,24.3,5.21,11,0,23.26-.87,32.79a67,67,0,0,0,1,19.48c1.16,6.76,2.79,12.93,7.14,19.87,5.23,8.38,13.5,6.27,13.5,6.27l11.28-3.38c5.79-2.12,3.57-8.87,3.57-8.87l-6.46-15.72c-2.8-8.29,2-10.85,6.46-13.11,9.07-4.63,3.67-12.06,3.67-12.06L189.83,102.8c-4.92-7.62-3.86-13.7.39-20.06s10.12-10,17.55-5.79c18.77,10.73,38.39,16.88,43.59,19.29,4.12,1.9,1,14.66,1,16.39s.19,6.56,5,7,5.79-4.63,5.79-4.63l1.35-30.48c.1-5-2.51-6.56-2.51-6.56s-8.39-3.76-10.7-4.91-2.51-2.61-2.32-6.85S245,60.6,245,60.6l-71.2-26.86c-11.86-4.72-31-4.34-37.9-4.92-6-.49-10.32-5.49-15.92-5.49s-6.07,2.12-12,2.89-29.41.58-41.47,4.15c-8.49,2.5-21.9,9.83-21.9,9.83s-3,1.55-2.7,2.8C42.24,44.55,43.72,44.93,45.36,45.12Z" transform="translate(-4.63 -5.05)"/><path class="cls-4" d="M45.36,45.12l49.57,5.21c4.82.58,11.16.63,6.36,5.21-3.53,3.37,6.37,7.91,15.44,13.31s25,9,32.4,11.19c7.91,2.31,11.57,12.68,17.07,24.3,5.21,11,0,23.26-.87,32.79a67,67,0,0,0,1,19.48c1.16,6.76,2.79,12.93,7.14,19.87,5.23,8.38,13.5,6.27,13.5,6.27l11.28-3.38c5.79-2.12,3.57-8.87,3.57-8.87l-6.46-15.72c-2.8-8.29,2-10.85,6.46-13.11,9.07-4.63,3.67-12.06,3.67-12.06L189.83,102.8c-4.92-7.62-3.86-13.7.39-20.06s10.12-10,17.55-5.79c18.77,10.73,38.39,16.88,43.59,19.29,4.12,1.9,1,14.66,1,16.39s.19,6.56,5,7,5.79-4.63,5.79-4.63l1.35-30.48c.1-5-2.51-6.56-2.51-6.56s-8.39-3.76-10.7-4.91-2.51-2.61-2.32-6.85S245,60.6,245,60.6l-71.2-26.86c-11.86-4.72-31-4.34-37.9-4.92-6-.49-10.32-5.49-15.92-5.49s-6.07,2.12-12,2.89-29.41.58-41.47,4.15c-8.49,2.5-21.9,9.83-21.9,9.83s-3,1.55-2.7,2.8C42.24,44.55,43.72,44.93,45.36,45.12Z" transform="translate(-4.63 -5.05)"/><path class="cls-5" d="M245,60.55,173.82,33.74a40,40,0,0,0-4.13-1.37" transform="translate(-4.63 -5.05)"/><path class="cls-5" d="M45.36,45.12l49.57,5.21c1,.12,2.1.22,3.13.35" transform="translate(-4.63 -5.05)"/><rect class="cls-6" x="24.23" y="25.02" width="9.61" height="9.61" rx="2.29"/><rect class="cls-7" x="24.23" y="25.02" width="9.61" height="9.61" rx="2.29"/><rect class="cls-6" x="107.4" y="23.02" width="9.61" height="9.61" rx="2.29"/><rect class="cls-7" x="107.4" y="23.02" width="9.61" height="9.61" rx="2.29"/><rect class="cls-6" x="110.9" y="3.35" width="9.61" height="9.61" rx="2.29"/><rect class="cls-7" x="110.9" y="3.35" width="9.61" height="9.61" rx="2.29"/><rect class="cls-6" x="121.4" y="28.02" width="9.61" height="9.61" rx="2.29"/><rect class="cls-7" x="121.4" y="28.02" width="9.61" height="9.61" rx="2.29"/><rect class="cls-6" x="246.23" y="45.35" width="9.61" height="9.61" rx="2.29"/><rect class="cls-7" x="246.23" y="45.35" width="9.61" height="9.61" rx="2.29"/><rect class="cls-6" x="235.73" y="71.02" width="9.61" height="9.61" rx="2.29"/><rect class="cls-7" x="235.73" y="71.02" width="9.61" height="9.61" rx="2.29"/><rect class="cls-6" x="268.23" y="68.68" width="9.61" height="9.61" rx="2.29"/><rect class="cls-7" x="268.23" y="68.68" width="9.61" height="9.61" rx="2.29"/><rect class="cls-6" x="258.4" y="117.02" width="9.61" height="9.61" rx="2.29"/><rect class="cls-7" x="258.4" y="117.02" width="9.61" height="9.61" rx="2.29"/><rect class="cls-6" x="234.9" y="94.02" width="9.61" height="9.61" rx="2.29"/><rect class="cls-7" x="234.9" y="94.02" width="9.61" height="9.61" rx="2.29"/><rect class="cls-6" x="198.07" y="57.02" width="9.61" height="9.61" rx="2.29"/><rect class="cls-7" x="198.07" y="57.02" width="9.61" height="9.61" rx="2.29"/><rect class="cls-6" x="167.57" y="85.02" width="9.61" height="9.61" rx="2.29"/><rect class="cls-7" x="167.57" y="85.02" width="9.61" height="9.61" rx="2.29"/><rect class="cls-6" x="188.07" y="123.68" width="9.61" height="9.61" rx="2.29"/><rect class="cls-7" x="188.07" y="123.68" width="9.61" height="9.61" rx="2.29"/><rect class="cls-6" x="194.9" y="141.68" width="9.61" height="9.61" rx="2.29"/><rect class="cls-7" x="194.9" y="141.68" width="9.61" height="9.61" rx="2.29"/><rect class="cls-6" x="197.07" y="176.02" width="9.61" height="9.61" rx="2.29"/><rect class="cls-7" x="197.07" y="176.02" width="9.61" height="9.61" rx="2.29"/><rect class="cls-6" x="159.23" y="177.35" width="9.61" height="9.61" rx="2.29"/><rect class="cls-7" x="159.23" y="177.35" width="9.61" height="9.61" rx="2.29"/><rect class="cls-6" x="149.73" y="108.68" width="9.61" height="9.61" rx="2.29"/><rect class="cls-7" x="149.73" y="108.68" width="9.61" height="9.61" rx="2.29"/><rect class="cls-6" x="137.23" y="61.68" width="9.61" height="9.61" rx="2.29"/><rect class="cls-7" x="137.23" y="61.68" width="9.61" height="9.61" rx="2.29"/><rect class="cls-6" x="85.4" y="58.35" width="9.61" height="9.61" rx="2.29"/><rect class="cls-7" x="85.4" y="58.35" width="9.61" height="9.61" rx="2.29"/><rect class="cls-6" x="101.57" y="35.35" width="9.61" height="9.61" rx="2.29"/><rect class="cls-7" x="101.57" y="35.35" width="9.61" height="9.61" rx="2.29"/><path class="cls-8" d="M154.19,84.29a1.42,1.42,0,1,0-1.41-1.43h0A1.42,1.42,0,0,0,154.19,84.29Z" transform="translate(-4.63 -5.05)"/><line class="cls-9" x1="149.56" y1="77.82" x2="149.56" y2="44.09"/><line class="cls-10" x1="149.56" y1="77.82" x2="149.56" y2="44.09"/><path class="cls-11" d="M154.19,84.29a1.42,1.42,0,1,0-1.41-1.43h0A1.42,1.42,0,0,0,154.19,84.29Z" transform="translate(-4.63 -5.05)"/><path class="cls-8" d="M245,61.83a1.42,1.42,0,1,0-1.42-1.42h0A1.43,1.43,0,0,0,245,61.83Z" transform="translate(-4.63 -5.05)"/><polyline class="cls-9" points="240.37 55.36 240.37 37.3 264.98 37.3"/><polyline class="cls-10" points="240.37 55.36 240.37 37.3 264.98 37.3"/><path class="cls-11" d="M245,61.83a1.42,1.42,0,1,0-1.42-1.42h0A1.43,1.43,0,0,0,245,61.83Z" transform="translate(-4.63 -5.05)"/><path class="cls-8" d="M228.83,55.88a1.42,1.42,0,1,0-1.42-1.42h0A1.43,1.43,0,0,0,228.83,55.88Z" transform="translate(-4.63 -5.05)"/><polyline class="cls-9" points="224.2 49.41 224.2 33.55 252.93 33.55 252.93 8.3 264.98 8.3"/><polyline class="cls-10" points="224.2 49.41 224.2 33.55 252.93 33.55 252.93 8.3 264.98 8.3"/><path class="cls-11" d="M228.83,55.88a1.42,1.42,0,1,0-1.42-1.42h0A1.43,1.43,0,0,0,228.83,55.88Z" transform="translate(-4.63 -5.05)"/><path class="cls-8" d="M192.06,41.89a1.42,1.42,0,1,0-1.42-1.42h0A1.43,1.43,0,0,0,192.06,41.89Z" transform="translate(-4.63 -5.05)"/><polyline class="cls-9" points="187.43 35.42 187.43 19.99 210.46 19.99 210.46 8.3"/><polyline class="cls-10" points="187.43 35.42 187.43 19.99 210.46 19.99 210.46 8.3"/><path class="cls-11" d="M192.06,41.89a1.42,1.42,0,1,0-1.42-1.42h0A1.43,1.43,0,0,0,192.06,41.89Z" transform="translate(-4.63 -5.05)"/><path class="cls-8" d="M190.35,182.42a1.42,1.42,0,1,0-1.42-1.42h0A1.43,1.43,0,0,0,190.35,182.42Z" transform="translate(-4.63 -5.05)"/><polyline class="cls-9" points="185.72 175.95 185.72 164.76 174.62 164.76 174.62 125.3"/><polyline class="cls-10" points="185.72 175.95 185.72 164.76 174.62 164.76 174.62 125.3"/><path class="cls-11" d="M190.35,182.42a1.42,1.42,0,1,0-1.42-1.42h0A1.43,1.43,0,0,0,190.35,182.42Z" transform="translate(-4.63 -5.05)"/><path class="cls-8" d="M120.23,24.6a1.42,1.42,0,1,0-1.42-1.42h0a1.41,1.41,0,0,0,1.41,1.41Z" transform="translate(-4.63 -5.05)"/><polyline class="cls-9" points="115.6 18.14 115.6 8.3 102.04 8.3"/><polyline class="cls-10" points="115.6 18.14 115.6 8.3 102.04 8.3"/><path class="cls-11" d="M120.23,24.6a1.42,1.42,0,1,0-1.42-1.42h0a1.41,1.41,0,0,0,1.41,1.41Z" transform="translate(-4.63 -5.05)"/><path class="cls-8" d="M60.2,34.07a1.42,1.42,0,1,0-1.42-1.42h0A1.42,1.42,0,0,0,60.2,34.07Z" transform="translate(-4.63 -5.05)"/><polyline class="cls-9" points="55.57 27.61 55.57 18.7 45.81 18.7 45.81 8.3 36.32 8.3"/><polyline class="cls-10" points="55.57 27.61 55.57 18.7 45.81 18.7 45.81 8.3 36.32 8.3"/><path class="cls-11" d="M60.2,34.07a1.42,1.42,0,1,0-1.42-1.42h0A1.42,1.42,0,0,0,60.2,34.07Z" transform="translate(-4.63 -5.05)"/><path class="cls-8" d="M135.41,30A1.42,1.42,0,1,0,134,28.57v.06A1.42,1.42,0,0,0,135.41,30Z" transform="translate(-4.63 -5.05)"/><line class="cls-9" x1="130.78" y1="23.58" x2="130.78" y2="8.3"/><line class="cls-10" x1="130.78" y1="23.58" x2="130.78" y2="8.3"/><path class="cls-11" d="M135.41,30A1.42,1.42,0,1,0,134,28.57v.06A1.42,1.42,0,0,0,135.41,30Z" transform="translate(-4.63 -5.05)"/><path class="cls-8" d="M115.61,69.6a1.42,1.42,0,1,0-1.42-1.42h0a1.41,1.41,0,0,0,1.41,1.41Z" transform="translate(-4.63 -5.05)"/><polyline class="cls-9" points="110.98 63.14 110.98 52.05 129.47 52.05"/><polyline class="cls-10" points="110.98 63.14 110.98 52.05 129.47 52.05"/><path class="cls-11" d="M115.61,69.6a1.42,1.42,0,1,0-1.42-1.42h0a1.41,1.41,0,0,0,1.41,1.41Z" transform="translate(-4.63 -5.05)"/><path class="cls-8" d="M121.47,70a1.42,1.42,0,1,1-1.41,1.43h0A1.42,1.42,0,0,1,121.47,70Z" transform="translate(-4.63 -5.05)"/><line class="cls-9" x1="116.84" y1="66.37" x2="116.84" y2="87.59"/><line class="cls-10" x1="116.84" y1="66.37" x2="116.84" y2="87.59"/><path class="cls-11" d="M121.47,70a1.42,1.42,0,1,1-1.41,1.43h0A1.42,1.42,0,0,1,121.47,70Z" transform="translate(-4.63 -5.05)"/><path class="cls-8" d="M102.18,58.49a1.42,1.42,0,1,1-1.41,1.43v0a1.41,1.41,0,0,1,1.41-1.41Z" transform="translate(-4.63 -5.05)"/><polyline class="cls-9" points="97.56 54.85 97.56 122.63 35.2 122.63"/><polyline class="cls-10" points="97.56 54.85 97.56 122.63 35.2 122.63"/><path class="cls-11" d="M102.18,58.49a1.42,1.42,0,1,1-1.41,1.43v0a1.41,1.41,0,0,1,1.41-1.41Z" transform="translate(-4.63 -5.05)"/><path class="cls-8" d="M86.66,48.19a1.42,1.42,0,1,1-1.42,1.42h0a1.41,1.41,0,0,1,1.4-1.42Z" transform="translate(-4.63 -5.05)"/><polyline class="cls-9" points="82.03 44.55 82.03 96.87 35.2 96.87"/><polyline class="cls-10" points="82.03 44.55 82.03 96.87 35.2 96.87"/><path class="cls-11" d="M86.66,48.19a1.42,1.42,0,1,1-1.42,1.42h0a1.41,1.41,0,0,1,1.4-1.42Z" transform="translate(-4.63 -5.05)"/><path class="cls-8" d="M59.23,45.16a1.42,1.42,0,1,1-1.42,1.42h0A1.44,1.44,0,0,1,59.23,45.16Z" transform="translate(-4.63 -5.05)"/><polyline class="cls-9" points="54.6 41.53 54.6 71.6 35.2 71.6"/><polyline class="cls-10" points="54.6 41.53 54.6 71.6 35.2 71.6"/><path class="cls-11" d="M59.23,45.16a1.42,1.42,0,1,1-1.42,1.42h0A1.44,1.44,0,0,1,59.23,45.16Z" transform="translate(-4.63 -5.05)"/><path class="cls-8" d="M258,118.18a1.42,1.42,0,1,1-1.42,1.42,1.43,1.43,0,0,1,1.42-1.42Z" transform="translate(-4.63 -5.05)"/><polyline class="cls-9" points="253.37 114.55 253.37 170.91 264.97 170.91"/><polyline class="cls-10" points="253.37 114.55 253.37 170.91 264.97 170.91"/><path class="cls-11" d="M258,118.18a1.42,1.42,0,1,1-1.42,1.42,1.43,1.43,0,0,1,1.42-1.42Z" transform="translate(-4.63 -5.05)"/><path class="cls-8" d="M209.33,76.41a1.42,1.42,0,1,1-1.42,1.42h0A1.43,1.43,0,0,1,209.33,76.41Z" transform="translate(-4.63 -5.05)"/><line class="cls-9" x1="204.7" y1="72.78" x2="204.7" y2="96.17"/><line class="cls-10" x1="204.7" y1="72.78" x2="204.7" y2="96.17"/><path class="cls-11" d="M209.33,76.41a1.42,1.42,0,1,1-1.42,1.42h0A1.43,1.43,0,0,1,209.33,76.41Z" transform="translate(-4.63 -5.05)"/><path class="cls-8" d="M234.81,55.3a1.42,1.42,0,1,1-1.42,1.42h0A1.44,1.44,0,0,1,234.81,55.3Z" transform="translate(-4.63 -5.05)"/><line class="cls-9" x1="230.18" y1="51.67" x2="230.18" y2="67.14"/><line class="cls-10" x1="230.18" y1="51.67" x2="230.18" y2="67.14"/><path class="cls-11" d="M234.81,55.3a1.42,1.42,0,1,1-1.42,1.42h0A1.44,1.44,0,0,1,234.81,55.3Z" transform="translate(-4.63 -5.05)"/><path class="cls-8" d="M197.36,117.89a1.42,1.42,0,1,1,1.42,1.42h0a1.41,1.41,0,0,1-1.41-1.41Z" transform="translate(-4.63 -5.05)"/><line class="cls-9" x1="194.14" y1="112.84" x2="210.33" y2="112.84"/><line class="cls-10" x1="194.14" y1="112.84" x2="210.33" y2="112.84"/><path class="cls-11" d="M197.36,117.89a1.42,1.42,0,1,1,1.42,1.42h0a1.41,1.41,0,0,1-1.41-1.41Z" transform="translate(-4.63 -5.05)"/><path class="cls-8" d="M205.76,135.08a1.42,1.42,0,1,1,1.42,1.42h0A1.42,1.42,0,0,1,205.76,135.08Z" transform="translate(-4.63 -5.05)"/><polyline class="cls-9" points="202.55 130.03 214.43 130.03 214.43 142.3"/><polyline class="cls-10" points="202.55 130.03 214.43 130.03 214.43 142.3"/><path class="cls-11" d="M205.76,135.08a1.42,1.42,0,1,1,1.42,1.42h0A1.42,1.42,0,0,1,205.76,135.08Z" transform="translate(-4.63 -5.05)"/><path class="cls-8" d="M197.36,162.81a1.42,1.42,0,1,1,1.42,1.42h0A1.42,1.42,0,0,1,197.36,162.81Z" transform="translate(-4.63 -5.05)"/><polyline class="cls-9" points="194.14 157.76 214.78 157.76 214.78 171.55"/><polyline class="cls-10" points="194.14 157.76 214.78 157.76 214.78 171.55"/><path class="cls-11" d="M197.36,162.81a1.42,1.42,0,1,1,1.42,1.42h0A1.42,1.42,0,0,1,197.36,162.81Z" transform="translate(-4.63 -5.05)"/><path class="cls-8" d="M263.21,84.47a1.42,1.42,0,1,1,1.42,1.42h0A1.42,1.42,0,0,1,263.21,84.47Z" transform="translate(-4.63 -5.05)"/><polyline class="cls-9" points="259.99 79.42 264.97 79.42 264.97 58.05"/><polyline class="cls-10" points="259.99 79.42 264.97 79.42 264.97 58.05"/><path class="cls-11" d="M263.21,84.47a1.42,1.42,0,1,1,1.42,1.42h0A1.42,1.42,0,0,1,263.21,84.47Z" transform="translate(-4.63 -5.05)"/><path class="cls-8" d="M262.08,106.71a1.42,1.42,0,1,1,1.43,1.41h0a1.41,1.41,0,0,1-1.42-1.4Z" transform="translate(-4.63 -5.05)"/><polyline class="cls-9" points="258.87 101.66 280.64 101.66 280.64 143.32"/><polyline class="cls-10" points="258.87 101.66 280.64 101.66 280.64 143.32"/><path class="cls-11" d="M262.08,106.71a1.42,1.42,0,1,1,1.43,1.41h0a1.41,1.41,0,0,1-1.42-1.4Z" transform="translate(-4.63 -5.05)"/><path class="cls-8" d="M82.08,27.87a1.42,1.42,0,1,0-1.42,1.42h0A1.43,1.43,0,0,0,82.08,27.87Z" transform="translate(-4.63 -5.05)"/><polyline class="cls-9" points="76.03 22.82 59.02 22.82 59.02 8.3"/><polyline class="cls-10" points="76.03 22.82 59.02 22.82 59.02 8.3"/><path class="cls-11" d="M82.08,27.87a1.42,1.42,0,1,0-1.42,1.42h0A1.43,1.43,0,0,0,82.08,27.87Z" transform="translate(-4.63 -5.05)"/><path class="cls-8" d="M43.29,42.71a1.42,1.42,0,1,0-1.43,1.41h0A1.42,1.42,0,0,0,43.29,42.71Z" transform="translate(-4.63 -5.05)"/><polyline class="cls-9" points="37.24 37.66 8.56 37.66 8.56 52.3"/><polyline class="cls-10" points="37.24 37.66 8.56 37.66 8.56 52.3"/><path class="cls-11" d="M43.29,42.71a1.42,1.42,0,1,0-1.43,1.41h0A1.42,1.42,0,0,0,43.29,42.71Z" transform="translate(-4.63 -5.05)"/><path class="cls-8" d="M192.21,81.71a1.42,1.42,0,1,0-1.42,1.42h0a1.41,1.41,0,0,0,1.42-1.4Z" transform="translate(-4.63 -5.05)"/><polyline class="cls-9" points="186.16 76.66 161.27 76.66 161.27 60.41"/><polyline class="cls-10" points="186.16 76.66 161.27 76.66 161.27 60.41"/><path class="cls-11" d="M192.21,81.71a1.42,1.42,0,1,0-1.42,1.42h0a1.41,1.41,0,0,0,1.42-1.4Z" transform="translate(-4.63 -5.05)"/><path class="cls-8" d="M169.69,111.72a1.42,1.42,0,1,0-1.42,1.42h0A1.42,1.42,0,0,0,169.69,111.72Z" transform="translate(-4.63 -5.05)"/><line class="cls-9" x1="163.65" y1="106.67" x2="132.89" y2="106.67"/><line class="cls-10" x1="163.65" y1="106.67" x2="132.89" y2="106.67"/><path class="cls-11" d="M169.69,111.72a1.42,1.42,0,1,0-1.42,1.42h0A1.42,1.42,0,0,0,169.69,111.72Z" transform="translate(-4.63 -5.05)"/><path class="cls-8" d="M166.54,147.22a1.42,1.42,0,1,0-1.42,1.42h0A1.44,1.44,0,0,0,166.54,147.22Z" transform="translate(-4.63 -5.05)"/><line class="cls-9" x1="160.49" y1="142.17" x2="132.89" y2="142.17"/><line class="cls-10" x1="160.49" y1="142.17" x2="132.89" y2="142.17"/><path class="cls-11" d="M166.54,147.22a1.42,1.42,0,1,0-1.42,1.42h0A1.44,1.44,0,0,0,166.54,147.22Z" transform="translate(-4.63 -5.05)"/><path class="cls-8" d="M174.62,176.34a1.42,1.42,0,1,0-1.42,1.42h0A1.44,1.44,0,0,0,174.62,176.34Z" transform="translate(-4.63 -5.05)"/><polyline class="cls-9" points="168.57 171.29 138.56 171.29 138.56 161.38"/><polyline class="cls-10" points="168.57 171.29 138.56 171.29 138.56 161.38"/><path class="cls-11" d="M174.62,176.34a1.42,1.42,0,1,0-1.42,1.42h0A1.44,1.44,0,0,0,174.62,176.34Z" transform="translate(-4.63 -5.05)"/><rect class="cls-12" x="123.96" y="46.06" width="11.87" height="11.87" rx="2.83"/><polygon class="cls-13" points="126.23 53.69 125.6 56.09 134.2 56.09 133.57 53.69 126.23 53.69"/><polygon class="cls-13" points="126.9 47.87 125.6 52.79 134.2 52.79 132.9 47.87 126.9 47.87"/><rect class="cls-13" x="8.56" y="2.65" width="32.57" height="11.87" rx="2.83"/><polygon class="cls-11" points="23.41 6.28 21.96 6.28 22.1 5.6 23.56 5.6 23.41 6.28"/><polygon class="cls-11" points="23.04 8.06 20.64 8.06 20.78 7.37 23.18 7.37 23.04 8.06"/><polygon class="cls-11" points="22.66 9.84 19.31 9.84 19.46 9.15 22.81 9.15 22.66 9.84"/><polygon class="cls-11" points="22.29 11.61 17.99 11.61 18.14 10.93 22.43 10.93 22.29 11.61"/><path class="cls-14" d="M11.46,7.61a6.34,6.34,0,0,0-.83.3.28.28,0,0,1-.22,0L9,6.86a.63.63,0,0,0-.74,0l-.91.75a.65.65,0,0,0-.15.73L8,9.9a.22.22,0,0,1,0,.22,7.44,7.44,0,0,0-.44.78.23.23,0,0,1-.18.12l-1.73.11a.63.63,0,0,0-.56.49l-.2,1.16a.61.61,0,0,0,.35.65l1.58.69A.28.28,0,0,1,7,14.3a6.6,6.6,0,0,0,.15.87.28.28,0,0,1,0,.22L5.78,16.58a.62.62,0,0,0-.11.73l.59,1a.63.63,0,0,0,.69.28L8.6,18.1a.28.28,0,0,1,.23,0c.21.2.44.39.67.57a.25.25,0,0,1,.09.2l-.2,1.72a.63.63,0,0,0,.39.63l1.11.4a.63.63,0,0,0,.71-.23L12.54,20a.28.28,0,0,1,.21-.1h.88a.26.26,0,0,1,.2.1l1,1.45a.62.62,0,0,0,.7.23l1.11-.4a.63.63,0,0,0,.39-.63L16.79,19a.31.31,0,0,1,.09-.22,6.13,6.13,0,0,0,.68-.56.26.26,0,0,1,.21-.06l1.66.5a.63.63,0,0,0,.69-.28l.59-1a.62.62,0,0,0-.1-.73L19.36,15.4a.25.25,0,0,1-.07-.23,6.49,6.49,0,0,0,.16-.88.24.24,0,0,1,.12-.17l1.59-.69a.61.61,0,0,0,.35-.65l-.2-1.16a.65.65,0,0,0-.56-.5L19,11a.28.28,0,0,1-.2-.13,5.35,5.35,0,0,0-.45-.77.26.26,0,0,1,0-.21l.78-1.55A.66.66,0,0,0,19,7.63l-.91-.75a.63.63,0,0,0-.74,0L16,7.88a.24.24,0,0,1-.23,0,6.34,6.34,0,0,0-.83-.3.31.31,0,0,1-.16-.16l-.4-1.69a.63.63,0,0,0-.58-.46H12.6a.63.63,0,0,0-.58.46l-.4,1.68A.29.29,0,0,1,11.46,7.61Z" transform="translate(-4.63 -5.05)"/><path class="cls-15" d="M13.19,8.57a5.07,5.07,0,1,0,5.07,5.07h0A5.07,5.07,0,0,0,13.19,8.57Z" transform="translate(-4.63 -5.05)"/><path class="cls-13" d="M272.44,36.7h26.9a2.83,2.83,0,0,1,2.83,2.83v6.21a2.83,2.83,0,0,1-2.83,2.83h-26.9a2.83,2.83,0,0,1-2.83-2.83V39.53A2.85,2.85,0,0,1,272.44,36.7Z" transform="translate(-4.63 -5.05)"/><polygon class="cls-11" points="279.83 35.28 278.37 35.28 278.52 34.6 279.97 34.6 279.83 35.28"/><polygon class="cls-11" points="279.45 37.06 277.05 37.06 277.2 36.37 279.6 36.37 279.45 37.06"/><polygon class="cls-11" points="279.08 38.84 275.73 38.84 275.87 38.15 279.22 38.15 279.08 38.84"/><polygon class="cls-11" points="278.7 40.61 274.41 40.61 274.55 39.93 278.85 39.93 278.7 40.61"/><path class="cls-14" d="M267.87,36.61a6.34,6.34,0,0,0-.83.3.2.2,0,0,1-.21,0l-1.4-1a.63.63,0,0,0-.74,0l-.9.75a.64.64,0,0,0-.15.73l.77,1.54a.28.28,0,0,1,0,.22,6.06,6.06,0,0,0-.45.78.22.22,0,0,1-.18.12l-1.73.11a.61.61,0,0,0-.55.49l-.21,1.16a.65.65,0,0,0,.35.65l1.58.69a.24.24,0,0,1,.14.18,6.64,6.64,0,0,0,.16.87.29.29,0,0,1-.06.22l-1.26,1.19a.62.62,0,0,0-.11.73l.59,1a.63.63,0,0,0,.69.28l1.65-.49a.27.27,0,0,1,.23,0c.21.2.44.39.67.57a.2.2,0,0,1,.1.2l-.2,1.72a.63.63,0,0,0,.39.63l1.1.4a.63.63,0,0,0,.71-.23L269,49a.32.32,0,0,1,.22-.1h.88a.26.26,0,0,1,.2.1l.95,1.45a.63.63,0,0,0,.71.23l1.1-.4a.62.62,0,0,0,.39-.63L273.21,48a.26.26,0,0,1,.09-.22,6,6,0,0,0,.67-.56.26.26,0,0,1,.21-.06l1.67.5a.63.63,0,0,0,.69-.28l.59-1a.62.62,0,0,0-.11-.73l-1.25-1.18a.28.28,0,0,1-.07-.23,5.24,5.24,0,0,0,.16-.88.3.3,0,0,1,.12-.17l1.59-.69a.64.64,0,0,0,.36-.65l-.21-1.16a.64.64,0,0,0-.55-.5l-1.72-.1a.28.28,0,0,1-.2-.13,7.3,7.3,0,0,0-.44-.77.26.26,0,0,1,0-.21l.78-1.55a.64.64,0,0,0-.15-.73l-.9-.75a.63.63,0,0,0-.74,0l-1.38,1a.25.25,0,0,1-.24,0,6.34,6.34,0,0,0-.83-.3.26.26,0,0,1-.15-.16l-.41-1.69a.63.63,0,0,0-.58-.46H269a.63.63,0,0,0-.58.46l-.4,1.68A.24.24,0,0,1,267.87,36.61Z" transform="translate(-4.63 -5.05)"/><path class="cls-15" d="M269.6,37.57a5.07,5.07,0,1,0,5.07,5.07,5.07,5.07,0,0,0-5.07-5.07Z" transform="translate(-4.63 -5.05)"/><path class="cls-13" d="M272.44,7.7h26.9a2.83,2.83,0,0,1,2.83,2.83v6.21a2.83,2.83,0,0,1-2.83,2.83h-26.9a2.83,2.83,0,0,1-2.83-2.83V10.53A2.85,2.85,0,0,1,272.44,7.7Z" transform="translate(-4.63 -5.05)"/><polygon class="cls-11" points="279.83 6.28 278.37 6.28 278.52 5.6 279.97 5.6 279.83 6.28"/><polygon class="cls-11" points="279.45 8.06 277.05 8.06 277.2 7.37 279.6 7.37 279.45 8.06"/><polygon class="cls-11" points="279.08 9.84 275.73 9.84 275.87 9.15 279.22 9.15 279.08 9.84"/><polygon class="cls-11" points="278.7 11.61 274.41 11.61 274.55 10.93 278.85 10.93 278.7 11.61"/><path class="cls-14" d="M267.87,7.61a6.34,6.34,0,0,0-.83.3.2.2,0,0,1-.21,0l-1.4-1a.63.63,0,0,0-.74,0l-.9.75a.64.64,0,0,0-.15.73l.77,1.54a.28.28,0,0,1,0,.22,6.06,6.06,0,0,0-.45.78.22.22,0,0,1-.18.12l-1.73.11a.61.61,0,0,0-.55.49l-.21,1.16a.65.65,0,0,0,.35.65l1.58.69a.24.24,0,0,1,.14.18,6.64,6.64,0,0,0,.16.87.29.29,0,0,1-.06.22l-1.26,1.19a.62.62,0,0,0-.11.73l.59,1a.63.63,0,0,0,.69.28l1.65-.49a.27.27,0,0,1,.23.05c.21.2.44.39.67.57a.2.2,0,0,1,.1.2l-.2,1.72a.63.63,0,0,0,.39.63l1.1.4a.63.63,0,0,0,.71-.23L269,20a.32.32,0,0,1,.22-.1h.88a.26.26,0,0,1,.2.1l.95,1.45a.63.63,0,0,0,.71.23l1.1-.4a.62.62,0,0,0,.39-.63L273.21,19a.26.26,0,0,1,.09-.22,6,6,0,0,0,.67-.56.26.26,0,0,1,.21-.06l1.67.5a.63.63,0,0,0,.69-.28l.59-1a.62.62,0,0,0-.11-.73l-1.25-1.18a.28.28,0,0,1-.07-.23,5.24,5.24,0,0,0,.16-.88.3.3,0,0,1,.12-.17l1.59-.69a.64.64,0,0,0,.36-.65l-.21-1.16a.64.64,0,0,0-.55-.5l-1.72-.1a.28.28,0,0,1-.2-.13,7.3,7.3,0,0,0-.44-.77.26.26,0,0,1,0-.21l.78-1.55a.64.64,0,0,0-.15-.73l-.9-.75a.63.63,0,0,0-.74,0l-1.38,1a.26.26,0,0,1-.24,0,6.34,6.34,0,0,0-.83-.3.26.26,0,0,1-.15-.16l-.41-1.69a.63.63,0,0,0-.58-.46H269a.63.63,0,0,0-.58.46L268,7.44A.25.25,0,0,1,267.87,7.61Z" transform="translate(-4.63 -5.05)"/><path class="cls-15" d="M269.6,8.57a5.07,5.07,0,1,0,5.07,5.07,5.07,5.07,0,0,0-5.07-5.07Z" transform="translate(-4.63 -5.05)"/><path class="cls-12" d="M236.79,65.92H225.62a5.94,5.94,0,0,0,0,11.88h11.17a2.84,2.84,0,0,0,2.83-2.8V68.8a2.84,2.84,0,0,0-2.8-2.88Z" transform="translate(-4.63 -5.05)"/><path class="cls-13" d="M230,71.86a4.35,4.35,0,1,1-8.7,0,4.5,4.5,0,0,1,.32-1.66.46.46,0,1,1,.89.22.49.49,0,0,1,0,.11,3.51,3.51,0,0,0-.25,1.28,3.44,3.44,0,1,0,5-3,.46.46,0,0,1-.24-.6.45.45,0,0,1,.61-.24l.06,0A4.34,4.34,0,0,1,230,71.86Zm-4.35-3a.67.67,0,1,0-.66-.68h0a.67.67,0,0,0,.63.66Zm0,3.68a.67.67,0,0,0,.67-.65v0a.68.68,0,0,0-.3-.56l-3.58-2.65,2.66,3.58a.68.68,0,0,0,.52.29Z" transform="translate(-4.63 -5.05)"/><rect class="cls-13" x="210.46" y="2.65" width="32.57" height="11.87" rx="2.83"/><polygon class="cls-11" points="225.32 6.28 223.86 6.28 224.01 5.6 225.46 5.6 225.32 6.28"/><polygon class="cls-11" points="224.94 8.06 222.54 8.06 222.69 7.37 225.09 7.37 224.94 8.06"/><polygon class="cls-11" points="224.57 9.84 221.22 9.84 221.37 9.15 224.71 9.15 224.57 9.84"/><polygon class="cls-11" points="224.19 11.61 219.9 11.61 220.04 10.93 224.34 10.93 224.19 11.61"/><path class="cls-14" d="M213.36,7.61a6.34,6.34,0,0,0-.83.3.2.2,0,0,1-.21,0l-1.4-1a.63.63,0,0,0-.74,0l-.9.75a.64.64,0,0,0-.15.73l.77,1.54a.28.28,0,0,1,0,.22,6.06,6.06,0,0,0-.45.78.22.22,0,0,1-.18.12l-1.73.11a.61.61,0,0,0-.55.49l-.21,1.16a.65.65,0,0,0,.35.65l1.59.69a.24.24,0,0,1,.13.18,6.64,6.64,0,0,0,.16.87.29.29,0,0,1-.06.22l-1.26,1.19a.62.62,0,0,0-.11.73l.59,1a.63.63,0,0,0,.69.28l1.65-.49a.27.27,0,0,1,.23.05c.21.2.44.39.67.57a.2.2,0,0,1,.1.2l-.2,1.72a.63.63,0,0,0,.39.63l1.1.4a.63.63,0,0,0,.71-.23l.94-1.44a.32.32,0,0,1,.22-.1h.88a.26.26,0,0,1,.2.1l.95,1.45a.63.63,0,0,0,.71.23l1.1-.4a.62.62,0,0,0,.39-.63L218.7,19a.26.26,0,0,1,.09-.22,6,6,0,0,0,.67-.56.26.26,0,0,1,.21-.06l1.67.5a.63.63,0,0,0,.69-.28l.59-1a.62.62,0,0,0-.11-.73l-1.25-1.18a.28.28,0,0,1-.07-.23,5.24,5.24,0,0,0,.16-.88.3.3,0,0,1,.12-.17l1.59-.69a.64.64,0,0,0,.36-.65l-.21-1.16a.64.64,0,0,0-.55-.5l-1.72-.1a.28.28,0,0,1-.2-.13,7.3,7.3,0,0,0-.44-.77.26.26,0,0,1,0-.21l.78-1.55a.64.64,0,0,0-.15-.73L220,7a.63.63,0,0,0-.74,0l-1.38,1a.25.25,0,0,1-.24,0,6.34,6.34,0,0,0-.83-.3.26.26,0,0,1-.15-.16l-.41-1.69a.63.63,0,0,0-.58-.46h-1.2a.63.63,0,0,0-.58.46l-.4,1.68A.26.26,0,0,1,213.36,7.61Z" transform="translate(-4.63 -5.05)"/><path class="cls-15" d="M215.09,8.57a5.07,5.07,0,1,0,5.07,5.07,5.07,5.07,0,0,0-5.07-5.07Z" transform="translate(-4.63 -5.05)"/><path class="cls-13" d="M138.25,7.7h26.9A2.83,2.83,0,0,1,168,10.51v6.23a2.84,2.84,0,0,1-2.84,2.84h-26.9a2.83,2.83,0,0,1-2.83-2.83h0V10.53A2.83,2.83,0,0,1,138.25,7.7Z" transform="translate(-4.63 -5.05)"/><polygon class="cls-11" points="145.63 6.28 144.18 6.28 144.33 5.6 145.78 5.6 145.63 6.28"/><polygon class="cls-11" points="145.26 8.06 142.86 8.06 143 7.37 145.4 7.37 145.26 8.06"/><polygon class="cls-11" points="144.88 9.84 141.53 9.84 141.68 9.15 145.03 9.15 144.88 9.84"/><polygon class="cls-11" points="144.51 11.61 140.21 11.61 140.36 10.93 144.65 10.93 144.51 11.61"/><path class="cls-14" d="M133.68,7.61a6.34,6.34,0,0,0-.83.3.28.28,0,0,1-.22,0l-1.39-1a.63.63,0,0,0-.74,0l-.91.75a.65.65,0,0,0-.15.73l.77,1.54a.22.22,0,0,1,0,.22,7.44,7.44,0,0,0-.44.78.23.23,0,0,1-.18.12l-1.73.11a.63.63,0,0,0-.56.49l-.2,1.16a.61.61,0,0,0,.35.65l1.58.69a.28.28,0,0,1,.14.18,6.6,6.6,0,0,0,.15.87.25.25,0,0,1,0,.22L128,16.58a.62.62,0,0,0-.11.73l.59,1a.63.63,0,0,0,.69.28l1.65-.49a.28.28,0,0,1,.23,0c.21.2.44.39.67.57a.25.25,0,0,1,.09.2l-.2,1.72a.63.63,0,0,0,.39.63l1.11.4a.63.63,0,0,0,.71-.23l.94-1.44a.28.28,0,0,1,.21-.1h.88a.26.26,0,0,1,.2.1l1,1.45a.62.62,0,0,0,.7.23l1.11-.4a.63.63,0,0,0,.39-.63L139,19a.31.31,0,0,1,.09-.22,6.13,6.13,0,0,0,.68-.56.26.26,0,0,1,.21-.06l1.66.5a.63.63,0,0,0,.69-.28l.59-1a.62.62,0,0,0-.1-.73l-1.25-1.18a.28.28,0,0,1-.07-.23,6.49,6.49,0,0,0,.16-.88.26.26,0,0,1,.12-.17l1.59-.69a.61.61,0,0,0,.35-.65l-.2-1.16a.65.65,0,0,0-.56-.5l-1.71-.1a.28.28,0,0,1-.2-.13,5.35,5.35,0,0,0-.45-.77.26.26,0,0,1,0-.21l.78-1.55a.65.65,0,0,0-.15-.73L140.32,7a.63.63,0,0,0-.74,0L138.2,8A.24.24,0,0,1,138,8a6.34,6.34,0,0,0-.83-.3.26.26,0,0,1-.15-.16l-.41-1.69a.64.64,0,0,0-.58-.5h-1.18a.63.63,0,0,0-.58.46l-.4,1.68A.25.25,0,0,1,133.68,7.61Z" transform="translate(-4.63 -5.05)"/><path class="cls-15" d="M135.41,8.57a5.07,5.07,0,1,0,5.07,5.07,5.07,5.07,0,0,0-5.07-5.07Z" transform="translate(-4.63 -5.05)"/><rect class="cls-13" x="73.99" y="2.65" width="32.57" height="11.87" rx="2.83"/><polygon class="cls-11" points="88.84 6.28 87.38 6.28 87.53 5.6 88.98 5.6 88.84 6.28"/><polygon class="cls-11" points="88.46 8.06 86.06 8.06 86.21 7.37 88.61 7.37 88.46 8.06"/><polygon class="cls-11" points="88.09 9.84 84.74 9.84 84.89 9.15 88.23 9.15 88.09 9.84"/><polygon class="cls-11" points="87.71 11.61 83.42 11.61 83.56 10.93 87.86 10.93 87.71 11.61"/><path class="cls-14" d="M76.88,7.61a6.34,6.34,0,0,0-.83.3.2.2,0,0,1-.21,0l-1.4-1a.63.63,0,0,0-.74,0l-.9.75a.64.64,0,0,0-.15.73l.77,1.54a.28.28,0,0,1,0,.22,6,6,0,0,0-.44.78.23.23,0,0,1-.18.12l-1.74.11a.61.61,0,0,0-.55.49l-.21,1.16a.64.64,0,0,0,.36.65l1.58.69a.24.24,0,0,1,.13.18,6.64,6.64,0,0,0,.16.87.29.29,0,0,1-.06.22L71.2,16.58a.62.62,0,0,0-.11.73l.59,1a.65.65,0,0,0,.69.28L74,18.12a.27.27,0,0,1,.23.05c.21.2.44.39.67.57a.2.2,0,0,1,.1.2l-.2,1.72a.63.63,0,0,0,.39.63l1.11.4a.62.62,0,0,0,.7-.23L78,20a.28.28,0,0,1,.21-.1h.88a.26.26,0,0,1,.2.1l.95,1.45a.63.63,0,0,0,.71.23l1.11-.4a.63.63,0,0,0,.39-.63L82.22,19a.26.26,0,0,1,.09-.22,7.22,7.22,0,0,0,.68-.56.26.26,0,0,1,.21-.06l1.66.5a.63.63,0,0,0,.69-.28l.59-1a.62.62,0,0,0-.11-.73L84.78,15.4a.28.28,0,0,1-.07-.23,5.24,5.24,0,0,0,.16-.88.3.3,0,0,1,.12-.17l1.6-.69a.65.65,0,0,0,.35-.65l-.21-1.16a.64.64,0,0,0-.55-.5L84.46,11a.3.3,0,0,1-.2-.13,4.51,4.51,0,0,0-.44-.77.26.26,0,0,1,0-.21l.77-1.55a.64.64,0,0,0-.15-.73l-.9-.75a.63.63,0,0,0-.74,0l-1.38,1a.25.25,0,0,1-.24,0,6.34,6.34,0,0,0-.83-.3.26.26,0,0,1-.15-.16l-.4-1.69a.63.63,0,0,0-.58-.46H78a.64.64,0,0,0-.59.46L77,7.39A.3.3,0,0,1,76.88,7.61Z" transform="translate(-4.63 -5.05)"/><path class="cls-15" d="M78.62,8.57a5.07,5.07,0,1,0,5.06,5.08h0A5.09,5.09,0,0,0,78.62,8.57Z" transform="translate(-4.63 -5.05)"/><rect class="cls-13" x="8.56" y="65.7" width="32.57" height="11.87" rx="2.83"/><polygon class="cls-11" points="23.41 69.34 21.96 69.34 22.1 68.65 23.56 68.65 23.41 69.34"/><polygon class="cls-11" points="23.04 71.11 20.64 71.11 20.78 70.42 23.18 70.42 23.04 71.11"/><polygon class="cls-11" points="22.66 72.89 19.31 72.89 19.46 72.2 22.81 72.2 22.66 72.89"/><polygon class="cls-11" points="22.29 74.67 17.99 74.67 18.14 73.98 22.43 73.98 22.29 74.67"/><path class="cls-14" d="M11.46,70.66a6.34,6.34,0,0,0-.83.3.28.28,0,0,1-.22,0L9,69.91a.63.63,0,0,0-.74,0l-.91.76a.63.63,0,0,0-.15.72L8,73a.22.22,0,0,1,0,.22,7.44,7.44,0,0,0-.44.78.27.27,0,0,1-.18.13l-1.73.1a.63.63,0,0,0-.56.49l-.2,1.16a.61.61,0,0,0,.35.65l1.58.69A.28.28,0,0,1,7,77.4a6.6,6.6,0,0,0,.15.87.28.28,0,0,1,0,.22L5.78,79.63a.62.62,0,0,0-.11.73l.59,1a.63.63,0,0,0,.69.28l1.65-.49a.31.31,0,0,1,.23,0c.21.2.44.39.67.57a.25.25,0,0,1,.09.2l-.2,1.72a.63.63,0,0,0,.39.63l1.11.4a.63.63,0,0,0,.71-.23L12.54,83a.28.28,0,0,1,.21-.1h.88a.22.22,0,0,1,.2.09l1,1.45a.62.62,0,0,0,.7.23l1.11-.4a.63.63,0,0,0,.39-.63L16.79,82a.31.31,0,0,1,.09-.22,6.13,6.13,0,0,0,.68-.56.26.26,0,0,1,.21-.06l1.66.5a.63.63,0,0,0,.69-.28l.59-1a.62.62,0,0,0-.1-.73l-1.25-1.18a.25.25,0,0,1-.07-.23,6.49,6.49,0,0,0,.16-.88.24.24,0,0,1,.12-.17l1.59-.69a.61.61,0,0,0,.35-.65l-.2-1.16a.63.63,0,0,0-.56-.49L19,74.08a.32.32,0,0,1-.2-.14,5.35,5.35,0,0,0-.45-.77.26.26,0,0,1,0-.21l.78-1.55a.63.63,0,0,0-.15-.72l-.91-.76a.63.63,0,0,0-.74,0l-1.38,1a.24.24,0,0,1-.23,0,6.34,6.34,0,0,0-.83-.3.31.31,0,0,1-.16-.16l-.4-1.69a.63.63,0,0,0-.58-.46H12.6a.63.63,0,0,0-.58.46l-.4,1.68A.29.29,0,0,1,11.46,70.66Z" transform="translate(-4.63 -5.05)"/><path class="cls-15" d="M13.19,71.62a5.07,5.07,0,1,0,5.07,5.07h0A5.07,5.07,0,0,0,13.19,71.62Z" transform="translate(-4.63 -5.05)"/><rect class="cls-13" x="8.56" y="116.73" width="32.57" height="11.87" rx="2.83"/><polygon class="cls-11" points="23.41 120.37 21.96 120.37 22.1 119.68 23.56 119.68 23.41 120.37"/><polygon class="cls-11" points="23.04 122.14 20.64 122.14 20.78 121.46 23.18 121.46 23.04 122.14"/><polygon class="cls-11" points="22.66 123.92 19.31 123.92 19.46 123.23 22.81 123.23 22.66 123.92"/><polygon class="cls-11" points="22.29 125.7 17.99 125.7 18.14 125.01 22.43 125.01 22.29 125.7"/><path class="cls-14" d="M11.46,121.69a6.34,6.34,0,0,0-.83.3.28.28,0,0,1-.22,0L9,121a.63.63,0,0,0-.74,0l-.91.76a.65.65,0,0,0-.15.73L8,124a.24.24,0,0,1,0,.23,7.3,7.3,0,0,0-.44.77.27.27,0,0,1-.18.13l-1.73.1a.66.66,0,0,0-.56.49l-.2,1.16a.63.63,0,0,0,.35.66l1.58.68a.28.28,0,0,1,.14.18,6.47,6.47,0,0,0,.15.88.26.26,0,0,1,0,.21l-1.26,1.19a.62.62,0,0,0-.11.73l.59,1a.63.63,0,0,0,.69.27l1.65-.49a.24.24,0,0,1,.23.06,6,6,0,0,0,.67.56.25.25,0,0,1,.09.2l-.2,1.72a.63.63,0,0,0,.39.63l1.11.41a.65.65,0,0,0,.71-.24l.94-1.43a.26.26,0,0,1,.21-.11h.88a.26.26,0,0,1,.2.1l1,1.44a.64.64,0,0,0,.7.24l1.11-.41a.63.63,0,0,0,.39-.63L16.9,133a.31.31,0,0,1,.09-.22,6.13,6.13,0,0,0,.68-.56.26.26,0,0,1,.21-.06l1.66.5a.63.63,0,0,0,.69-.27l.59-1a.62.62,0,0,0-.1-.73l-1.25-1.18a.25.25,0,0,1-.07-.23,6.49,6.49,0,0,0,.16-.88.2.2,0,0,1,.12-.16l1.59-.69a.63.63,0,0,0,.35-.66l-.2-1.16a.63.63,0,0,0-.56-.49l-1.71-.1A.28.28,0,0,1,19,125a6.06,6.06,0,0,0-.45-.78.23.23,0,0,1,0-.2l.78-1.56a.63.63,0,0,0-.15-.72l-1-.74a.63.63,0,0,0-.74,0L16,122a.24.24,0,0,1-.23,0,6.34,6.34,0,0,0-.83-.3.22.22,0,0,1-.16-.16l-.4-1.68a.63.63,0,0,0-.58-.46H12.6a.63.63,0,0,0-.58.46l-.4,1.67A.31.31,0,0,1,11.46,121.69Z" transform="translate(-4.63 -5.05)"/><path class="cls-15" d="M13.19,122.65a5.07,5.07,0,1,0,5.07,5.07h0A5.07,5.07,0,0,0,13.19,122.65Z" transform="translate(-4.63 -5.05)"/><rect class="cls-13" x="110.91" y="81.86" width="32.57" height="11.87" rx="2.83"/><polygon class="cls-11" points="125.76 85.5 124.31 85.5 124.45 84.81 125.9 84.81 125.76 85.5"/><polygon class="cls-11" points="125.38 87.27 122.98 87.27 123.13 86.59 125.53 86.59 125.38 87.27"/><polygon class="cls-11" points="125.01 89.05 121.66 89.05 121.81 88.36 125.15 88.36 125.01 89.05"/><polygon class="cls-11" points="124.63 90.83 120.34 90.83 120.48 90.14 124.78 90.14 124.63 90.83"/><path class="cls-14" d="M113.8,86.82a6.34,6.34,0,0,0-.83.3.2.2,0,0,1-.21,0l-1.39-1a.62.62,0,0,0-.75,0l-.9.76a.6.6,0,0,0-.15.72l.77,1.54a.22.22,0,0,1,0,.22,6,6,0,0,0-.44.78.23.23,0,0,1-.18.12l-1.74.11a.62.62,0,0,0-.55.49l-.2,1.16a.61.61,0,0,0,.35.65l1.58.69a.24.24,0,0,1,.13.18,6.64,6.64,0,0,0,.16.87.25.25,0,0,1-.06.22l-1.26,1.19a.62.62,0,0,0-.11.73l.59,1a.65.65,0,0,0,.69.28l1.65-.49a.31.31,0,0,1,.23,0c.22.2.44.39.68.57a.25.25,0,0,1,.09.2l-.2,1.72a.63.63,0,0,0,.39.63l1.11.4a.62.62,0,0,0,.7-.23l1-1.44a.28.28,0,0,1,.21-.1H116a.25.25,0,0,1,.2.09l1,1.45a.63.63,0,0,0,.71.23l1.11-.4a.63.63,0,0,0,.39-.63l-.2-1.71a.26.26,0,0,1,.09-.22,6.13,6.13,0,0,0,.68-.56.26.26,0,0,1,.21-.06l1.66.5a.63.63,0,0,0,.69-.28l.59-1a.62.62,0,0,0-.11-.73l-1.25-1.18a.27.27,0,0,1-.06-.23,6.47,6.47,0,0,0,.15-.88.3.3,0,0,1,.12-.17l1.6-.69a.65.65,0,0,0,.35-.65l-.21-1.16a.61.61,0,0,0-.55-.49l-1.72-.11a.26.26,0,0,1-.19-.13,6,6,0,0,0-.45-.77.26.26,0,0,1,0-.21l.77-1.55a.6.6,0,0,0-.15-.72l-.9-.76a.63.63,0,0,0-.74,0l-1.38,1a.26.26,0,0,1-.24,0,6.34,6.34,0,0,0-.83-.3.29.29,0,0,1-.15-.16l-.4-1.69a.63.63,0,0,0-.58-.46H115a.63.63,0,0,0-.58.46L114,86.6A.28.28,0,0,1,113.8,86.82Z" transform="translate(-4.63 -5.05)"/><path class="cls-15" d="M115.54,87.78a5.07,5.07,0,1,0,5.07,5.07h0A5.08,5.08,0,0,0,115.54,87.78Z" transform="translate(-4.63 -5.05)"/><rect class="cls-13" x="110.91" y="100.61" width="32.57" height="11.87" rx="2.83"/><polygon class="cls-11" points="125.76 104.25 124.31 104.25 124.45 103.56 125.9 103.56 125.76 104.25"/><polygon class="cls-11" points="125.38 106.02 122.98 106.02 123.13 105.34 125.53 105.34 125.38 106.02"/><polygon class="cls-11" points="125.01 107.8 121.66 107.8 121.81 107.11 125.15 107.11 125.01 107.8"/><polygon class="cls-11" points="124.63 109.58 120.34 109.58 120.48 108.89 124.78 108.89 124.63 109.58"/><path class="cls-14" d="M113.8,105.57a6.34,6.34,0,0,0-.83.3.2.2,0,0,1-.21,0l-1.39-1a.62.62,0,0,0-.75,0l-.9.76a.6.6,0,0,0-.15.72l.77,1.54a.22.22,0,0,1,0,.22,6,6,0,0,0-.44.78.23.23,0,0,1-.18.12l-1.74.11a.62.62,0,0,0-.55.49l-.2,1.16a.61.61,0,0,0,.35.65l1.58.69a.24.24,0,0,1,.13.18,6.64,6.64,0,0,0,.16.87.25.25,0,0,1-.06.22l-1.26,1.19a.62.62,0,0,0-.11.73l.59,1a.65.65,0,0,0,.69.28l1.65-.49a.31.31,0,0,1,.23,0c.22.2.44.39.68.57a.25.25,0,0,1,.09.2l-.2,1.72a.63.63,0,0,0,.39.63l1.11.4a.62.62,0,0,0,.7-.23l1-1.44a.28.28,0,0,1,.21-.1H116a.25.25,0,0,1,.2.09l1,1.45a.63.63,0,0,0,.71.23l1.11-.4a.63.63,0,0,0,.39-.63l-.2-1.71a.26.26,0,0,1,.09-.22,6.13,6.13,0,0,0,.68-.56.26.26,0,0,1,.21-.06l1.66.5a.63.63,0,0,0,.69-.28l.59-1a.62.62,0,0,0-.11-.73l-1.25-1.18a.27.27,0,0,1-.06-.23,6.47,6.47,0,0,0,.15-.88.3.3,0,0,1,.12-.17l1.6-.69a.65.65,0,0,0,.35-.65l-.21-1.16a.61.61,0,0,0-.55-.49l-1.72-.11a.26.26,0,0,1-.19-.13,6,6,0,0,0-.45-.77.26.26,0,0,1,0-.21l.77-1.55a.6.6,0,0,0-.15-.72l-.9-.76a.63.63,0,0,0-.74,0l-1.38,1a.26.26,0,0,1-.24,0,6.34,6.34,0,0,0-.83-.3.29.29,0,0,1-.15-.16l-.4-1.69a.63.63,0,0,0-.58-.46H115a.63.63,0,0,0-.58.46l-.4,1.68A.28.28,0,0,1,113.8,105.57Z" transform="translate(-4.63 -5.05)"/><path class="cls-15" d="M115.54,106.53a5.07,5.07,0,1,0,5.07,5.07h0A5.08,5.08,0,0,0,115.54,106.53Z" transform="translate(-4.63 -5.05)"/><rect class="cls-13" x="110.91" y="136.13" width="32.57" height="11.87" rx="2.83"/><polygon class="cls-11" points="125.76 139.77 124.31 139.77 124.45 139.08 125.9 139.08 125.76 139.77"/><polygon class="cls-11" points="125.38 141.55 122.98 141.55 123.13 140.86 125.53 140.86 125.38 141.55"/><polygon class="cls-11" points="125.01 143.32 121.66 143.32 121.81 142.64 125.15 142.64 125.01 143.32"/><polygon class="cls-11" points="124.63 145.1 120.34 145.1 120.48 144.41 124.78 144.41 124.63 145.1"/><path class="cls-14" d="M113.8,141.09a6.39,6.39,0,0,0-.83.31.26.26,0,0,1-.21,0l-1.39-1a.62.62,0,0,0-.75,0l-.9.76a.64.64,0,0,0-.15.73l.77,1.53a.24.24,0,0,1,0,.23,4.51,4.51,0,0,0-.44.77.29.29,0,0,1-.18.13l-1.74.1a.64.64,0,0,0-.55.49l-.2,1.17a.62.62,0,0,0,.35.65l1.58.68a.27.27,0,0,1,.13.18,6.49,6.49,0,0,0,.16.88.26.26,0,0,1-.06.21l-1.26,1.19a.64.64,0,0,0-.11.74l.59,1a.63.63,0,0,0,.69.27l1.65-.49a.24.24,0,0,1,.23.06,6.13,6.13,0,0,0,.68.56.25.25,0,0,1,.09.2l-.2,1.72a.65.65,0,0,0,.39.64l1.11.4a.63.63,0,0,0,.7-.23l1-1.44a.26.26,0,0,1,.21-.11H116a.26.26,0,0,1,.2.1l1,1.44a.65.65,0,0,0,.71.24l1.11-.41a.63.63,0,0,0,.39-.63l-.2-1.71a.27.27,0,0,1,.09-.22,6.13,6.13,0,0,0,.68-.56.26.26,0,0,1,.21-.06l1.66.5a.63.63,0,0,0,.69-.27l.59-1a.62.62,0,0,0-.11-.73l-1.25-1.18a.27.27,0,0,1-.06-.23,6.47,6.47,0,0,0,.15-.88.25.25,0,0,1,.12-.16l1.6-.69a.65.65,0,0,0,.35-.65l-.21-1.17a.62.62,0,0,0-.55-.49l-1.72-.1a.26.26,0,0,1-.19-.13,6.06,6.06,0,0,0-.45-.78.23.23,0,0,1,0-.2l.77-1.55a.64.64,0,0,0-.15-.73l-.9-.76a.63.63,0,0,0-.74,0l-1.38,1a.33.33,0,0,1-.24,0,6.34,6.34,0,0,0-.83-.3.28.28,0,0,1-.15-.15l-.4-1.69a.63.63,0,0,0-.58-.46H115a.62.62,0,0,0-.58.46l-.4,1.67A.26.26,0,0,1,113.8,141.09Z" transform="translate(-4.63 -5.05)"/><path class="cls-15" d="M115.54,142.05a5.07,5.07,0,1,0,5.07,5.07A5.07,5.07,0,0,0,115.54,142.05Z" transform="translate(-4.63 -5.05)"/><rect class="cls-13" x="214.78" y="165.38" width="32.57" height="11.87" rx="2.83"/><polygon class="cls-11" points="229.63 169.02 228.18 169.02 228.32 168.33 229.78 168.33 229.63 169.02"/><polygon class="cls-11" points="229.25 170.8 226.85 170.8 227 170.11 229.4 170.11 229.25 170.8"/><polygon class="cls-11" points="228.88 172.57 225.53 172.57 225.68 171.89 229.03 171.89 228.88 172.57"/><polygon class="cls-11" points="228.5 174.35 224.21 174.35 224.35 173.66 228.65 173.66 228.5 174.35"/><path class="cls-14" d="M217.67,170.34a6.39,6.39,0,0,0-.83.31.26.26,0,0,1-.21,0l-1.39-1a.6.6,0,0,0-.74,0l-.91.76a.64.64,0,0,0-.15.73l.77,1.53a.24.24,0,0,1,0,.23,4.51,4.51,0,0,0-.44.77.29.29,0,0,1-.18.13l-1.74.1a.64.64,0,0,0-.55.49l-.2,1.17a.62.62,0,0,0,.35.65l1.58.68a.27.27,0,0,1,.13.18,6.49,6.49,0,0,0,.16.88.26.26,0,0,1-.06.21L212,179.31a.64.64,0,0,0-.11.74l.59,1a.63.63,0,0,0,.69.27l1.65-.49a.24.24,0,0,1,.23.06,6.13,6.13,0,0,0,.68.56.25.25,0,0,1,.09.2l-.2,1.72a.65.65,0,0,0,.39.64l1.11.4a.63.63,0,0,0,.7-.23l1-1.44a.26.26,0,0,1,.21-.11h.88a.26.26,0,0,1,.2.1l.95,1.44a.65.65,0,0,0,.71.24l1.11-.41a.63.63,0,0,0,.39-.63l-.2-1.71a.27.27,0,0,1,.09-.22,6.13,6.13,0,0,0,.68-.56.26.26,0,0,1,.21-.06l1.66.5a.63.63,0,0,0,.69-.27l.59-1a.62.62,0,0,0-.11-.73l-1.25-1.18a.27.27,0,0,1-.06-.23,6.47,6.47,0,0,0,.15-.88.25.25,0,0,1,.12-.16l1.6-.69a.65.65,0,0,0,.35-.65l-.21-1.17a.62.62,0,0,0-.55-.49l-1.72-.1a.26.26,0,0,1-.19-.13,6.06,6.06,0,0,0-.45-.78.23.23,0,0,1,0-.2l.77-1.55a.64.64,0,0,0-.15-.73l-.9-.76a.63.63,0,0,0-.74,0l-1.38,1a.33.33,0,0,1-.24,0,6.34,6.34,0,0,0-.83-.3.28.28,0,0,1-.15-.15l-.4-1.69a.61.61,0,0,0-.6-.48h-1.18a.62.62,0,0,0-.58.46l-.4,1.67A.25.25,0,0,1,217.67,170.34Z" transform="translate(-4.63 -5.05)"/><path class="cls-15" d="M219.41,171.3a5.07,5.07,0,1,0,5.07,5.07A5.07,5.07,0,0,0,219.41,171.3Z" transform="translate(-4.63 -5.05)"/><path class="cls-13" d="M272.44,170.22h26.9a2.83,2.83,0,0,1,2.83,2.83v6.21a2.83,2.83,0,0,1-2.83,2.83h-26.9a2.83,2.83,0,0,1-2.83-2.83v-6.21A2.85,2.85,0,0,1,272.44,170.22Z" transform="translate(-4.63 -5.05)"/><polygon class="cls-11" points="279.83 168.81 278.37 168.81 278.52 168.12 279.97 168.12 279.83 168.81"/><polygon class="cls-11" points="279.45 170.58 277.05 170.58 277.2 169.9 279.6 169.9 279.45 170.58"/><polygon class="cls-11" points="279.08 172.36 275.73 172.36 275.87 171.67 279.22 171.67 279.08 172.36"/><polygon class="cls-11" points="278.7 174.14 274.41 174.14 274.55 173.45 278.85 173.45 278.7 174.14"/><path class="cls-14" d="M267.87,170.13a6.34,6.34,0,0,0-.83.3.2.2,0,0,1-.21,0l-1.4-1a.63.63,0,0,0-.74,0l-.9.76a.64.64,0,0,0-.15.73l.77,1.53a.31.31,0,0,1,0,.23,5.35,5.35,0,0,0-.45.77.24.24,0,0,1-.18.13l-1.73.1a.64.64,0,0,0-.55.49l-.21,1.16a.67.67,0,0,0,.35.66l1.58.68a.24.24,0,0,1,.14.18,6.49,6.49,0,0,0,.16.88.26.26,0,0,1-.06.21l-1.26,1.19a.62.62,0,0,0-.11.73l.59,1a.63.63,0,0,0,.69.27l1.65-.49a.27.27,0,0,1,.23.05,5.18,5.18,0,0,0,.67.57.22.22,0,0,1,.1.2l-.2,1.72a.63.63,0,0,0,.39.63l1.1.41A.65.65,0,0,0,268,184l.94-1.43a.27.27,0,0,1,.22-.11H270a.25.25,0,0,1,.2.09l.95,1.45a.65.65,0,0,0,.71.24l1.1-.41a.62.62,0,0,0,.39-.63l-.19-1.71a.26.26,0,0,1,.09-.22,6,6,0,0,0,.67-.56.26.26,0,0,1,.21-.06l1.67.5a.63.63,0,0,0,.69-.27l.59-1a.62.62,0,0,0-.11-.73L275.76,178a.28.28,0,0,1-.07-.23,5.24,5.24,0,0,0,.16-.88.3.3,0,0,1,.12-.17l1.59-.68a.65.65,0,0,0,.36-.66l-.21-1.16a.61.61,0,0,0-.55-.49l-1.72-.1a.28.28,0,0,1-.2-.13,7.44,7.44,0,0,0-.44-.78.23.23,0,0,1,0-.2l.78-1.56a.6.6,0,0,0-.15-.72l-.9-.76a.63.63,0,0,0-.74,0l-1.38,1a.25.25,0,0,1-.24,0,6.34,6.34,0,0,0-.83-.3.26.26,0,0,1-.15-.16l-.41-1.68a.61.61,0,0,0-.58-.46H269a.63.63,0,0,0-.58.46L268,170A.27.27,0,0,1,267.87,170.13Z" transform="translate(-4.63 -5.05)"/><path class="cls-15" d="M269.6,171.09a5.07,5.07,0,1,0,5.07,5.07,5.07,5.07,0,0,0-5.07-5.07Z" transform="translate(-4.63 -5.05)"/><path class="cls-13" d="M272.44,141.18h26.9a2.83,2.83,0,0,1,2.83,2.83v6.21a2.83,2.83,0,0,1-2.83,2.83h-26.9a2.83,2.83,0,0,1-2.83-2.83V144A2.84,2.84,0,0,1,272.44,141.18Z" transform="translate(-4.63 -5.05)"/><polygon class="cls-11" points="279.83 139.77 278.37 139.77 278.52 139.08 279.97 139.08 279.83 139.77"/><polygon class="cls-11" points="279.45 141.55 277.05 141.55 277.2 140.86 279.6 140.86 279.45 141.55"/><polygon class="cls-11" points="279.08 143.32 275.73 143.32 275.87 142.64 279.22 142.64 279.08 143.32"/><polygon class="cls-11" points="278.7 145.1 274.41 145.1 274.55 144.41 278.85 144.41 278.7 145.1"/><path class="cls-14" d="M267.87,141.09a6.39,6.39,0,0,0-.83.31.26.26,0,0,1-.21,0l-1.4-1a.63.63,0,0,0-.74,0l-.9.76a.64.64,0,0,0-.15.73l.77,1.53a.31.31,0,0,1,0,.23,5.35,5.35,0,0,0-.45.77.24.24,0,0,1-.18.13l-1.73.1a.64.64,0,0,0-.55.49l-.21,1.17a.65.65,0,0,0,.35.65l1.58.68a.24.24,0,0,1,.14.18,6.49,6.49,0,0,0,.16.88.26.26,0,0,1-.06.21l-1.26,1.19a.64.64,0,0,0-.11.74l.59,1a.63.63,0,0,0,.69.27l1.65-.49a.24.24,0,0,1,.23.06,7.1,7.1,0,0,0,.67.56.22.22,0,0,1,.1.2l-.2,1.72a.65.65,0,0,0,.39.64l1.1.4a.65.65,0,0,0,.69-.2l.94-1.44a.27.27,0,0,1,.22-.11H270a.26.26,0,0,1,.2.1l.95,1.44a.64.64,0,0,0,.71.24l1.1-.41a.62.62,0,0,0,.39-.63l-.19-1.71a.27.27,0,0,1,.09-.22,6,6,0,0,0,.67-.56.26.26,0,0,1,.21-.06l1.67.5a.63.63,0,0,0,.69-.27l.59-1a.62.62,0,0,0-.11-.73L275.76,149a.28.28,0,0,1-.07-.23,5.24,5.24,0,0,0,.16-.88.25.25,0,0,1,.12-.16l1.59-.69a.65.65,0,0,0,.36-.65l-.21-1.17a.62.62,0,0,0-.55-.49l-1.72-.1a.28.28,0,0,1-.2-.13,7.44,7.44,0,0,0-.44-.78.23.23,0,0,1,0-.2l.78-1.55a.64.64,0,0,0-.15-.73l-.9-.76a.63.63,0,0,0-.74,0l-1.38,1a.33.33,0,0,1-.24,0,6.34,6.34,0,0,0-.83-.3.23.23,0,0,1-.15-.15l-.41-1.69a.61.61,0,0,0-.58-.46H269a.63.63,0,0,0-.58.46L268,141A.23.23,0,0,1,267.87,141.09Z" transform="translate(-4.63 -5.05)"/><path class="cls-15" d="M269.6,142.05a5.07,5.07,0,1,0,5.07,5.07,5.07,5.07,0,0,0-5.07-5.07Z" transform="translate(-4.63 -5.05)"/><rect class="cls-13" x="214.78" y="136.13" width="32.57" height="11.88" rx="2.83"/><polygon class="cls-11" points="229.63 139.77 228.18 139.77 228.32 139.08 229.78 139.08 229.63 139.77"/><polygon class="cls-11" points="229.25 141.55 226.85 141.55 227 140.86 229.4 140.86 229.25 141.55"/><polygon class="cls-11" points="228.88 143.32 225.53 143.32 225.68 142.63 229.03 142.63 228.88 143.32"/><polygon class="cls-11" points="228.5 145.1 224.21 145.1 224.35 144.41 228.65 144.41 228.5 145.1"/><path class="cls-14" d="M217.67,141.09a6.34,6.34,0,0,0-.83.3.2.2,0,0,1-.21,0l-1.39-1a.6.6,0,0,0-.74,0l-.91.76a.64.64,0,0,0-.15.73l.77,1.53a.24.24,0,0,1,0,.23,4.51,4.51,0,0,0-.44.77.29.29,0,0,1-.18.13l-1.74.1a.64.64,0,0,0-.55.49l-.2,1.16a.63.63,0,0,0,.35.66l1.58.68a.27.27,0,0,1,.13.18,6.49,6.49,0,0,0,.16.88.26.26,0,0,1-.06.21L212,150.06a.64.64,0,0,0-.11.74l.59,1a.63.63,0,0,0,.69.27l1.65-.49a.24.24,0,0,1,.23.06,6.13,6.13,0,0,0,.68.56.25.25,0,0,1,.09.2l-.2,1.72a.62.62,0,0,0,.39.63l1.11.41a.64.64,0,0,0,.7-.24l1-1.43a.26.26,0,0,1,.21-.11h.88a.29.29,0,0,1,.2.09l.95,1.45a.65.65,0,0,0,.71.24l1.11-.41a.63.63,0,0,0,.39-.63l-.2-1.71a.26.26,0,0,1,.09-.22,6.13,6.13,0,0,0,.68-.56.26.26,0,0,1,.21-.06l1.66.5a.63.63,0,0,0,.69-.27l.59-1a.62.62,0,0,0-.11-.73l-1.25-1.18a.27.27,0,0,1-.06-.23,6.47,6.47,0,0,0,.15-.88.25.25,0,0,1,.12-.16l1.6-.69a.67.67,0,0,0,.35-.66l-.21-1.16a.62.62,0,0,0-.55-.49l-1.72-.1a.26.26,0,0,1-.19-.13,6.06,6.06,0,0,0-.45-.78.23.23,0,0,1,0-.2l.77-1.55a.64.64,0,0,0-.15-.73l-.9-.76a.63.63,0,0,0-.74,0l-1.38,1a.25.25,0,0,1-.24,0,6.34,6.34,0,0,0-.83-.3.26.26,0,0,1-.15-.16l-.4-1.68a.63.63,0,0,0-.58-.46h-1.18a.62.62,0,0,0-.58.46l-.4,1.67A.3.3,0,0,1,217.67,141.09Z" transform="translate(-4.63 -5.05)"/><path class="cls-15" d="M219.41,142.05a5.07,5.07,0,1,0,5.07,5.07A5.07,5.07,0,0,0,219.41,142.05Z" transform="translate(-4.63 -5.05)"/><rect class="cls-13" x="210.57" y="106.92" width="32.57" height="11.88" rx="2.83"/><polygon class="cls-11" points="225.42 110.56 223.97 110.56 224.11 109.87 225.57 109.87 225.42 110.56"/><polygon class="cls-11" points="225.05 112.33 222.65 112.33 222.79 111.65 225.19 111.65 225.05 112.33"/><polygon class="cls-11" points="224.67 114.11 221.32 114.11 221.47 113.42 224.82 113.42 224.67 114.11"/><polygon class="cls-11" points="224.3 115.89 220 115.89 220.15 115.2 224.44 115.2 224.3 115.89"/><path class="cls-14" d="M213.47,111.88a6,6,0,0,0-.84.3.26.26,0,0,1-.21,0l-1.39-1a.63.63,0,0,0-.74,0l-.91.76a.63.63,0,0,0-.15.72l.77,1.54a.24.24,0,0,1,0,.23,4.51,4.51,0,0,0-.44.77.27.27,0,0,1-.18.13l-1.73.1a.64.64,0,0,0-.56.49l-.2,1.16a.63.63,0,0,0,.35.66l1.58.68a.28.28,0,0,1,.14.18,4.38,4.38,0,0,0,.15.88.2.2,0,0,1-.06.21l-1.25,1.19a.62.62,0,0,0-.11.73l.59,1a.63.63,0,0,0,.69.27l1.65-.49a.28.28,0,0,1,.22,0,5.27,5.27,0,0,0,.68.57.25.25,0,0,1,.09.2l-.2,1.72a.63.63,0,0,0,.39.63l1.11.41a.64.64,0,0,0,.7-.24l1-1.43a.26.26,0,0,1,.21-.11h.88a.25.25,0,0,1,.2.09l1,1.45a.64.64,0,0,0,.7.24l1.11-.41a.63.63,0,0,0,.39-.63l-.2-1.71A.26.26,0,0,1,219,123a6.13,6.13,0,0,0,.68-.56.26.26,0,0,1,.21-.06l1.66.5a.63.63,0,0,0,.69-.27l.59-1a.65.65,0,0,0-.1-.73l-1.25-1.18a.25.25,0,0,1-.07-.23,8.52,8.52,0,0,0,.16-.88.24.24,0,0,1,.12-.17l1.59-.68a.66.66,0,0,0,.35-.66l-.2-1.16a.63.63,0,0,0-.56-.49l-1.72-.1a.25.25,0,0,1-.19-.14,6,6,0,0,0-.45-.77.23.23,0,0,1,0-.2l.78-1.56a.66.66,0,0,0-.15-.72l-.91-.76a.63.63,0,0,0-.74,0l-1.38,1a.25.25,0,0,1-.24,0,6.34,6.34,0,0,0-.83-.3.29.29,0,0,1-.15-.16l-.4-1.68a.63.63,0,0,0-.58-.46h-1.18a.63.63,0,0,0-.58.46l-.4,1.67A.27.27,0,0,1,213.47,111.88Z" transform="translate(-4.63 -5.05)"/><path class="cls-15" d="M215.2,112.84a5.07,5.07,0,1,0,5.07,5.07,5.07,5.07,0,0,0-5.07-5.07Z" transform="translate(-4.63 -5.05)"/><rect class="cls-13" x="198.32" y="89.67" width="32.57" height="11.88" rx="2.83"/><polygon class="cls-11" points="213.17 93.31 211.72 93.31 211.86 92.62 213.32 92.62 213.17 93.31"/><polygon class="cls-11" points="212.8 95.08 210.4 95.08 210.54 94.4 212.94 94.4 212.8 95.08"/><polygon class="cls-11" points="212.42 96.86 209.07 96.86 209.22 96.17 212.57 96.17 212.42 96.86"/><polygon class="cls-11" points="212.05 98.64 207.75 98.64 207.9 97.95 212.19 97.95 212.05 98.64"/><path class="cls-14" d="M201.22,94.63a6,6,0,0,0-.84.3.26.26,0,0,1-.21,0l-1.39-1a.63.63,0,0,0-.74,0l-.91.76a.63.63,0,0,0-.15.72l.77,1.54a.24.24,0,0,1,0,.23,4.51,4.51,0,0,0-.44.77.27.27,0,0,1-.18.13l-1.73.1a.64.64,0,0,0-.56.49l-.2,1.16a.63.63,0,0,0,.35.66l1.58.68a.28.28,0,0,1,.14.18,4.38,4.38,0,0,0,.15.88.2.2,0,0,1-.06.21l-1.25,1.19a.62.62,0,0,0-.11.73l.59,1a.63.63,0,0,0,.69.27l1.65-.49a.28.28,0,0,1,.22,0,5.27,5.27,0,0,0,.68.57.25.25,0,0,1,.09.2l-.2,1.72a.63.63,0,0,0,.39.63l1.11.41a.64.64,0,0,0,.7-.24l1-1.43a.26.26,0,0,1,.21-.11h.88a.25.25,0,0,1,.2.09l1,1.45a.64.64,0,0,0,.7.24l1.11-.41a.63.63,0,0,0,.39-.63l-.2-1.71a.26.26,0,0,1,.09-.22,6.13,6.13,0,0,0,.68-.56.26.26,0,0,1,.21-.06l1.66.5a.63.63,0,0,0,.69-.27l.59-1a.65.65,0,0,0-.1-.73l-1.25-1.18a.25.25,0,0,1-.07-.23,8.52,8.52,0,0,0,.16-.88.24.24,0,0,1,.12-.17l1.59-.68a.66.66,0,0,0,.35-.66l-.2-1.16a.63.63,0,0,0-.56-.49l-1.72-.1a.25.25,0,0,1-.19-.14,6,6,0,0,0-.45-.77.23.23,0,0,1,0-.2l.78-1.56a.66.66,0,0,0-.15-.72l-.91-.76a.63.63,0,0,0-.74,0l-1.38,1a.25.25,0,0,1-.24,0,6.34,6.34,0,0,0-.83-.3.29.29,0,0,1-.15-.16l-.4-1.68a.63.63,0,0,0-.58-.46h-1.18a.63.63,0,0,0-.58.46l-.4,1.67A.27.27,0,0,1,201.22,94.63Z" transform="translate(-4.63 -5.05)"/><path class="cls-15" d="M203,95.59a5.07,5.07,0,1,0,5.07,5.07A5.07,5.07,0,0,0,203,95.59Z" transform="translate(-4.63 -5.05)"/><path class="cls-13" d="M272.44,57.47h26.9a2.83,2.83,0,0,1,2.83,2.83v6.21a2.83,2.83,0,0,1-2.83,2.83h-26.9a2.83,2.83,0,0,1-2.83-2.83v-6.2A2.85,2.85,0,0,1,272.44,57.47Z" transform="translate(-4.63 -5.05)"/><polygon class="cls-11" points="279.83 56.06 278.37 56.06 278.52 55.37 279.97 55.37 279.83 56.06"/><polygon class="cls-11" points="279.45 57.83 277.05 57.83 277.2 57.15 279.6 57.15 279.45 57.83"/><polygon class="cls-11" points="279.08 59.61 275.73 59.61 275.87 58.92 279.22 58.92 279.08 59.61"/><polygon class="cls-11" points="278.7 61.39 274.41 61.39 274.55 60.7 278.85 60.7 278.7 61.39"/><path class="cls-14" d="M267.87,57.38a6.34,6.34,0,0,0-.83.3.2.2,0,0,1-.21,0l-1.4-1a.63.63,0,0,0-.74,0l-.9.76a.6.6,0,0,0-.15.72l.77,1.54a.31.31,0,0,1,0,.23,5.35,5.35,0,0,0-.45.77.24.24,0,0,1-.18.13l-1.73.1a.62.62,0,0,0-.55.49l-.21,1.16a.67.67,0,0,0,.35.66l1.58.68a.24.24,0,0,1,.14.18,6.49,6.49,0,0,0,.16.88.26.26,0,0,1-.06.21l-1.26,1.19a.62.62,0,0,0-.11.73l.59,1a.63.63,0,0,0,.69.27l1.65-.49a.31.31,0,0,1,.23,0c.21.2.44.39.67.57a.22.22,0,0,1,.1.2l-.2,1.72a.63.63,0,0,0,.39.63l1.1.41a.65.65,0,0,0,.71-.24l1-1.38a.27.27,0,0,1,.22-.11h.88a.25.25,0,0,1,.2.09l.95,1.45a.65.65,0,0,0,.71.24l1.1-.41a.62.62,0,0,0,.39-.63l-.19-1.71a.26.26,0,0,1,.09-.22,6,6,0,0,0,.67-.56.26.26,0,0,1,.21-.06l1.67.5a.63.63,0,0,0,.69-.27l.59-1a.62.62,0,0,0-.11-.73l-1.25-1.18a.28.28,0,0,1-.07-.23,5.24,5.24,0,0,0,.16-.88.3.3,0,0,1,.12-.17l1.59-.69a.64.64,0,0,0,.36-.65l-.21-1.16a.61.61,0,0,0-.55-.49l-1.72-.1a.25.25,0,0,1-.2-.14,8.46,8.46,0,0,0-.44-.77.23.23,0,0,1,0-.2l.78-1.56a.6.6,0,0,0-.15-.72l-.9-.76a.63.63,0,0,0-.74,0l-1.38,1a.26.26,0,0,1-.24,0,6.34,6.34,0,0,0-.83-.3.26.26,0,0,1-.15-.16l-.41-1.68a.61.61,0,0,0-.58-.46H269a.63.63,0,0,0-.58.46l-.4,1.67A.26.26,0,0,1,267.87,57.38Z" transform="translate(-4.63 -5.05)"/><path class="cls-15" d="M269.6,58.34a5.07,5.07,0,1,0,5.07,5.07,5.07,5.07,0,0,0-5.07-5.07Z" transform="translate(-4.63 -5.05)"/><rect class="cls-13" x="110.91" y="155.38" width="32.57" height="11.87" rx="2.83"/><polygon class="cls-11" points="125.76 159.02 124.31 159.02 124.45 158.33 125.9 158.33 125.76 159.02"/><polygon class="cls-11" points="125.38 160.8 122.98 160.8 123.13 160.11 125.53 160.11 125.38 160.8"/><polygon class="cls-11" points="125.01 162.57 121.66 162.57 121.81 161.88 125.15 161.88 125.01 162.57"/><polygon class="cls-11" points="124.63 164.35 120.34 164.35 120.48 163.66 124.78 163.66 124.63 164.35"/><path class="cls-14" d="M113.8,160.34a6.34,6.34,0,0,0-.83.3.2.2,0,0,1-.21,0l-1.39-1a.62.62,0,0,0-.75,0l-.9.76a.64.64,0,0,0-.15.73l.77,1.53a.24.24,0,0,1,0,.23,4.51,4.51,0,0,0-.44.77.29.29,0,0,1-.18.13l-1.74.1a.64.64,0,0,0-.55.49l-.2,1.16a.63.63,0,0,0,.35.66l1.58.68a.27.27,0,0,1,.13.18,6.49,6.49,0,0,0,.16.88.26.26,0,0,1-.06.21l-1.26,1.19a.64.64,0,0,0-.11.74l.59,1a.63.63,0,0,0,.69.27l1.65-.49a.24.24,0,0,1,.23.06,6.13,6.13,0,0,0,.68.56.25.25,0,0,1,.09.2l-.2,1.72a.63.63,0,0,0,.39.63l1.11.41a.64.64,0,0,0,.7-.24l1-1.43a.26.26,0,0,1,.21-.11H116a.26.26,0,0,1,.2.1l1,1.44a.65.65,0,0,0,.71.24L119,174a.63.63,0,0,0,.39-.63l-.2-1.71a.26.26,0,0,1,.09-.22,6.13,6.13,0,0,0,.68-.56.26.26,0,0,1,.21-.06l1.66.5a.63.63,0,0,0,.69-.27l.59-1a.62.62,0,0,0-.11-.73l-1.25-1.18a.27.27,0,0,1-.06-.23,6.47,6.47,0,0,0,.15-.88.25.25,0,0,1,.12-.16l1.6-.69a.67.67,0,0,0,.35-.66l-.21-1.16a.62.62,0,0,0-.55-.49l-1.72-.1a.26.26,0,0,1-.19-.13,6.06,6.06,0,0,0-.45-.78.23.23,0,0,1,0-.2l.77-1.55a.64.64,0,0,0-.15-.73l-.9-.76a.63.63,0,0,0-.74,0l-1.38,1a.25.25,0,0,1-.24,0,6.34,6.34,0,0,0-.83-.3.26.26,0,0,1-.15-.16l-.4-1.68a.63.63,0,0,0-.58-.46H115a.62.62,0,0,0-.58.46l-.4,1.67A.28.28,0,0,1,113.8,160.34Z" transform="translate(-4.63 -5.05)"/><path class="cls-15" d="M115.54,161.3a5.07,5.07,0,1,0,5.07,5.07A5.07,5.07,0,0,0,115.54,161.3Z" transform="translate(-4.63 -5.05)"/><rect class="cls-13" x="8.56" y="46.13" width="32.57" height="11.87" rx="2.83"/><polygon class="cls-11" points="23.41 49.77 21.96 49.77 22.1 49.08 23.56 49.08 23.41 49.77"/><polygon class="cls-11" points="23.04 51.55 20.64 51.55 20.78 50.86 23.18 50.86 23.04 51.55"/><polygon class="cls-11" points="22.66 53.32 19.31 53.32 19.46 52.64 22.81 52.64 22.66 53.32"/><polygon class="cls-11" points="22.29 55.1 17.99 55.1 18.14 54.41 22.43 54.41 22.29 55.1"/><path class="cls-14" d="M11.46,51.09a5.21,5.21,0,0,0-.83.31.28.28,0,0,1-.22,0L9,50.34a.63.63,0,0,0-.74,0l-.91.76a.65.65,0,0,0-.15.73L8,53.38a.24.24,0,0,1,0,.23,7.3,7.3,0,0,0-.44.77.27.27,0,0,1-.18.13l-1.73.1a.66.66,0,0,0-.56.49l-.2,1.17a.62.62,0,0,0,.35.65l1.58.68a.28.28,0,0,1,.14.18,6.47,6.47,0,0,0,.15.88.26.26,0,0,1,0,.21L5.78,60.06a.64.64,0,0,0-.11.74l.59,1a.63.63,0,0,0,.69.27L8.6,61.6a.24.24,0,0,1,.23.06,6,6,0,0,0,.67.56.25.25,0,0,1,.09.2l-.2,1.72a.66.66,0,0,0,.39.64l1.11.4A.66.66,0,0,0,11.6,65l.94-1.44a.26.26,0,0,1,.21-.11h.88a.26.26,0,0,1,.2.1l1,1.44a.62.62,0,0,0,.7.24l1.11-.41a.63.63,0,0,0,.39-.63l-.2-1.71a.31.31,0,0,1,.09-.22,6.13,6.13,0,0,0,.68-.56.26.26,0,0,1,.21-.06l1.66.5a.63.63,0,0,0,.69-.27l.59-1a.62.62,0,0,0-.1-.73L19.4,59a.25.25,0,0,1-.07-.23,6.49,6.49,0,0,0,.16-.88.2.2,0,0,1,.12-.16L21.2,57a.62.62,0,0,0,.35-.65l-.2-1.17a.64.64,0,0,0-.56-.49L19,54.51a.28.28,0,0,1-.2-.13,6.06,6.06,0,0,0-.45-.78.23.23,0,0,1,0-.2l.78-1.55a.65.65,0,0,0-.15-.73l-.91-.76a.63.63,0,0,0-.74,0l-1.38,1a.31.31,0,0,1-.23,0,6.34,6.34,0,0,0-.83-.3.26.26,0,0,1-.16-.15l-.4-1.69a.63.63,0,0,0-.58-.46H12.6a.63.63,0,0,0-.58.46l-.4,1.67A.24.24,0,0,1,11.46,51.09Z" transform="translate(-4.63 -5.05)"/><path class="cls-15" d="M13.19,52.05a5.07,5.07,0,1,0,5.07,5.07h0A5.07,5.07,0,0,0,13.19,52.05Z" transform="translate(-4.63 -5.05)"/><rect class="cls-13" x="161.27" y="54.34" width="32.57" height="11.87" rx="2.83"/><polygon class="cls-11" points="176.12 57.98 174.67 57.98 174.81 57.29 176.27 57.29 176.12 57.98"/><polygon class="cls-11" points="175.75 59.76 173.35 59.76 173.49 59.07 175.89 59.07 175.75 59.76"/><polygon class="cls-11" points="175.37 61.54 172.02 61.54 172.17 60.85 175.52 60.85 175.37 61.54"/><polygon class="cls-11" points="175 63.31 170.7 63.31 170.85 62.62 175.14 62.62 175 63.31"/><path class="cls-14" d="M164.17,59.3a8.29,8.29,0,0,0-.83.31.41.41,0,0,1-.22,0l-1.39-1a.66.66,0,0,0-.74,0l-.91.76a.65.65,0,0,0-.15.73l.77,1.54a.22.22,0,0,1,0,.22,6,6,0,0,0-.44.78.28.28,0,0,1-.18.12l-1.73.1a.66.66,0,0,0-.56.49l-.2,1.17a.62.62,0,0,0,.35.65l1.58.68a.28.28,0,0,1,.14.18,4.38,4.38,0,0,0,.15.88.23.23,0,0,1-.05.21l-1.26,1.19a.64.64,0,0,0-.11.74l.59,1a.6.6,0,0,0,.69.27l1.65-.49a.23.23,0,0,1,.22.06,7.22,7.22,0,0,0,.68.56.25.25,0,0,1,.09.2l-.2,1.73a.64.64,0,0,0,.39.63l1.11.4a.63.63,0,0,0,.7-.23l.95-1.44a.23.23,0,0,1,.21-.1h.88a.26.26,0,0,1,.2.1l1,1.45a.63.63,0,0,0,.7.23l1.11-.4a.64.64,0,0,0,.39-.63l-.2-1.71a.31.31,0,0,1,.09-.22,5.27,5.27,0,0,0,.68-.57.26.26,0,0,1,.21,0l1.66.49a.63.63,0,0,0,.69-.27l.59-1a.64.64,0,0,0-.1-.74l-1.25-1.18a.23.23,0,0,1-.07-.22,8.72,8.72,0,0,0,.16-.89.22.22,0,0,1,.12-.16l1.59-.69a.62.62,0,0,0,.35-.65l-.2-1.17a.66.66,0,0,0-.56-.49l-1.71-.1a.28.28,0,0,1-.2-.13,6.06,6.06,0,0,0-.45-.78.23.23,0,0,1,0-.2l.78-1.55a.65.65,0,0,0-.15-.73l-.91-.76a.63.63,0,0,0-.74,0l-1.38,1a.31.31,0,0,1-.23,0,6,6,0,0,0-.84-.3.28.28,0,0,1-.15-.15l-.4-1.69a.63.63,0,0,0-.58-.46h-1.18a.63.63,0,0,0-.58.46l-.4,1.67A.23.23,0,0,1,164.17,59.3Z" transform="translate(-4.63 -5.05)"/><path class="cls-15" d="M165.9,60.26a5.07,5.07,0,1,0,5.1,5.07,5.07,5.07,0,0,0-5.1-5.07Z" transform="translate(-4.63 -5.05)"/><rect class="cls-13" x="149.56" y="38.36" width="32.57" height="11.87" rx="2.83"/><polygon class="cls-11" points="164.42 42 162.96 42 163.11 41.31 164.56 41.31 164.42 42"/><polygon class="cls-11" points="164.04 43.78 161.64 43.78 161.79 43.09 164.19 43.09 164.04 43.78"/><polygon class="cls-11" points="163.67 45.55 160.32 45.55 160.46 44.86 163.81 44.86 163.67 45.55"/><polygon class="cls-11" points="163.29 47.33 159 47.33 159.14 46.64 163.43 46.64 163.29 47.33"/><path class="cls-14" d="M152.46,43.32a6.34,6.34,0,0,0-.83.3.2.2,0,0,1-.21,0l-1.4-1a.63.63,0,0,0-.74,0l-.9.76a.64.64,0,0,0-.15.73l.77,1.53a.31.31,0,0,1,0,.23,5.35,5.35,0,0,0-.45.77.24.24,0,0,1-.18.13l-1.73.1a.64.64,0,0,0-.55.49l-.21,1.16a.67.67,0,0,0,.35.66l1.58.68A.28.28,0,0,1,148,50a6.49,6.49,0,0,0,.16.88.26.26,0,0,1-.06.21l-1.26,1.19a.64.64,0,0,0-.11.74l.59,1a.63.63,0,0,0,.69.27l1.65-.49a.24.24,0,0,1,.23.06,7.1,7.1,0,0,0,.67.56.26.26,0,0,1,.1.2l-.2,1.72a.63.63,0,0,0,.39.63l1.1.41a.65.65,0,0,0,.71-.24l.94-1.43a.27.27,0,0,1,.22-.11h.88a.23.23,0,0,1,.19.1l1,1.44a.65.65,0,0,0,.71.24l1.1-.41a.62.62,0,0,0,.39-.63l-.19-1.71a.26.26,0,0,1,.09-.22,6,6,0,0,0,.67-.56.26.26,0,0,1,.21-.06l1.67.5a.63.63,0,0,0,.69-.27l.59-1a.62.62,0,0,0-.11-.73l-1.25-1.18a.28.28,0,0,1-.07-.23,6.49,6.49,0,0,0,.16-.88.25.25,0,0,1,.12-.16l1.59-.69a.65.65,0,0,0,.36-.66l-.21-1.16a.62.62,0,0,0-.55-.49l-1.72-.1a.28.28,0,0,1-.2-.13,7.44,7.44,0,0,0-.44-.78.23.23,0,0,1,0-.2l.78-1.55a.64.64,0,0,0-.15-.73l-.9-.76a.63.63,0,0,0-.74,0l-1.38,1a.25.25,0,0,1-.24,0,6.34,6.34,0,0,0-.83-.3.26.26,0,0,1-.15-.16l-.41-1.68a.62.62,0,0,0-.58-.46H153.6a.63.63,0,0,0-.58.46l-.4,1.67A.22.22,0,0,1,152.46,43.32Z" transform="translate(-4.63 -5.05)"/><path class="cls-15" d="M154.19,44.28a5.07,5.07,0,1,0,5.07,5.07,5.07,5.07,0,0,0-5.07-5.07Z" transform="translate(-4.63 -5.05)"/><path class="cls-12" d="M31.05,96H19.89a5.94,5.94,0,0,0,0,11.88H31.05A2.86,2.86,0,0,0,33.89,105V98.8A2.86,2.86,0,0,0,31.05,96Z" transform="translate(-4.63 -5.05)"/><path class="cls-13" d="M24.23,101.92a4.35,4.35,0,0,1-8.69.42,2.94,2.94,0,0,1,0-.42,4.25,4.25,0,0,1,.32-1.62.45.45,0,0,1,.58-.25h0a.46.46,0,0,1,.25.59,3.5,3.5,0,0,0-.24,1.28,3.43,3.43,0,1,0,5-3,.46.46,0,0,1-.12-.64.47.47,0,0,1,.54-.17A4.34,4.34,0,0,1,24.23,101.92Zm-4.34-3a.67.67,0,1,0-.67-.67.67.67,0,0,0,.67.67Zm0,3.68a.67.67,0,0,0,.67-.67.66.66,0,0,0-.31-.56l-3.57-2.65,2.65,3.58a.67.67,0,0,0,.56.29Z" transform="translate(-4.63 -5.05)"/><rect class="cls-12" x="49.98" y="2.65" width="11.87" height="11.87" rx="2.83"/><polygon class="cls-13" points="52.25 10.28 51.62 12.68 60.22 12.68 59.59 10.28 52.25 10.28"/><polygon class="cls-13" points="52.92 4.46 51.62 9.38 60.22 9.38 58.92 4.46 52.92 4.46"/><path class="cls-12" d="M190.42,125H179.25a5.94,5.94,0,0,0,0,11.88h11.17a2.85,2.85,0,0,0,2.83-2.84v-6.2A2.85,2.85,0,0,0,190.42,125Z" transform="translate(-4.63 -5.05)"/><path class="cls-13" d="M183.6,130.91a4.35,4.35,0,0,1-8.69,0,4.28,4.28,0,0,1,.31-1.62.46.46,0,0,1,.59-.25.45.45,0,0,1,.25.58h0a3.5,3.5,0,0,0-.24,1.28,3.43,3.43,0,1,0,5-3,.46.46,0,0,1-.19-.62.45.45,0,0,1,.61-.19h0A4.34,4.34,0,0,1,183.6,130.91Zm-4.35-3a.67.67,0,1,0-.67-.67h0a.67.67,0,0,0,.67.66Zm0,3.68a.67.67,0,0,0,.67-.67.68.68,0,0,0-.3-.56L176,127.7l2.65,3.58a.68.68,0,0,0,.6.3Z" transform="translate(-4.63 -5.05)"/><rect class="cls-16" x="123.96" y="46.06" width="11.87" height="11.87" rx="2.83"/><path class="cls-16" d="M42.93,7.7H19.06V7.63l-.91-.75a.63.63,0,0,0-.74,0l-1.13.85H16a2.74,2.74,0,0,0-.64.08,3.75,3.75,0,0,0-.47-.17.31.31,0,0,1-.16-.16l-.4-1.69a.63.63,0,0,0-.58-.46H12.6a.63.63,0,0,0-.58.46l-.4,1.68a.25.25,0,0,1-.16.17,6.34,6.34,0,0,0-.83.3.28.28,0,0,1-.22,0L9,6.86a.63.63,0,0,0-.74,0l-.91.75a.65.65,0,0,0-.15.73L8,9.9a.22.22,0,0,1,0,.22,7.44,7.44,0,0,0-.44.78.23.23,0,0,1-.18.12l-1.73.11a.63.63,0,0,0-.56.49l-.2,1.16a.61.61,0,0,0,.35.65l1.58.69A.28.28,0,0,1,7,14.3a6.6,6.6,0,0,0,.15.87.28.28,0,0,1,0,.22L5.78,16.58a.62.62,0,0,0-.11.73l.59,1a.63.63,0,0,0,.69.28L8.6,18.1a.28.28,0,0,1,.23,0c.21.2.44.39.67.57a.25.25,0,0,1,.09.2l-.2,1.72a.63.63,0,0,0,.39.63l1.11.4a.63.63,0,0,0,.71-.23L12.54,20a.28.28,0,0,1,.21-.1h.88a.26.26,0,0,1,.2.1l1,1.45a.62.62,0,0,0,.7.23l1.11-.4a.63.63,0,0,0,.39-.63l-.13-1.09h26a2.83,2.83,0,0,0,2.83-2.83h0v-6.2A2.83,2.83,0,0,0,42.93,7.7Z" transform="translate(-4.63 -5.05)"/><path class="cls-16" d="M299.34,36.7H275.47l-.05-.07-.9-.75a.63.63,0,0,0-.74,0l-1.14.85h-.2a2.74,2.74,0,0,0-.64.08,3.75,3.75,0,0,0-.47-.17.26.26,0,0,1-.15-.16l-.41-1.69a.63.63,0,0,0-.58-.46H269a.63.63,0,0,0-.58.46l-.4,1.68a.25.25,0,0,1-.16.17,6.34,6.34,0,0,0-.83.3.2.2,0,0,1-.21,0l-1.4-1a.63.63,0,0,0-.74,0l-.9.75a.64.64,0,0,0-.15.73L264.4,39a.28.28,0,0,1,0,.22A6.06,6.06,0,0,0,264,40a.22.22,0,0,1-.18.12l-1.73.11a.61.61,0,0,0-.55.49l-.21,1.16a.65.65,0,0,0,.35.65l1.58.69a.24.24,0,0,1,.14.18,6.64,6.64,0,0,0,.16.87.29.29,0,0,1-.06.22l-1.26,1.19a.62.62,0,0,0-.11.73l.59,1a.63.63,0,0,0,.69.28l1.65-.49a.27.27,0,0,1,.23.05c.21.2.44.39.67.57a.2.2,0,0,1,.1.2l-.2,1.72a.63.63,0,0,0,.39.63l1.1.4a.63.63,0,0,0,.71-.23l1-1.5a.32.32,0,0,1,.22-.1h.88a.26.26,0,0,1,.2.1l.95,1.45a.63.63,0,0,0,.71.23l1.1-.4a.62.62,0,0,0,.39-.63l-.12-1.09h26.06a2.85,2.85,0,0,0,2.84-2.83v-6.2a2.84,2.84,0,0,0-2.85-2.83Z" transform="translate(-4.63 -5.05)"/><path class="cls-16" d="M299.34,7.7H275.47l-.05-.07-.9-.75a.63.63,0,0,0-.74,0l-1.14.85h-.2a2.74,2.74,0,0,0-.64.08,3.75,3.75,0,0,0-.47-.17.26.26,0,0,1-.15-.16l-.41-1.69a.63.63,0,0,0-.58-.46H269a.63.63,0,0,0-.58.46L268,7.44a.25.25,0,0,1-.16.17,6.34,6.34,0,0,0-.83.3.2.2,0,0,1-.21,0l-1.4-1a.63.63,0,0,0-.74,0l-.9.75a.64.64,0,0,0-.15.73l.77,1.54a.28.28,0,0,1,0,.22,6.06,6.06,0,0,0-.45.78.22.22,0,0,1-.18.12l-1.73.11a.61.61,0,0,0-.55.49l-.21,1.16a.65.65,0,0,0,.35.65l1.58.69a.24.24,0,0,1,.14.18,6.64,6.64,0,0,0,.16.87.29.29,0,0,1-.06.22l-1.26,1.19a.62.62,0,0,0-.11.73l.59,1a.63.63,0,0,0,.69.28l1.65-.49a.27.27,0,0,1,.23.05c.21.2.44.39.67.57a.2.2,0,0,1,.1.2l-.2,1.72a.63.63,0,0,0,.39.63l1.1.4a.63.63,0,0,0,.71-.23L269,20a.32.32,0,0,1,.22-.1h.88a.26.26,0,0,1,.2.1l.95,1.45a.63.63,0,0,0,.71.23l1.1-.4a.62.62,0,0,0,.39-.63l-.12-1.09h26.06a2.85,2.85,0,0,0,2.84-2.83v-6.2a2.84,2.84,0,0,0-2.85-2.83Z" transform="translate(-4.63 -5.05)"/><path class="cls-16" d="M225.62,65.92a5.94,5.94,0,0,0,0,11.88h11.17a2.84,2.84,0,0,0,2.83-2.8V68.8A2.85,2.85,0,0,0,236.79,66Z" transform="translate(-4.63 -5.05)"/><path class="cls-16" d="M207.12,13.43l1.59.69a.24.24,0,0,1,.13.18,6.64,6.64,0,0,0,.16.87.29.29,0,0,1-.06.22l-1.26,1.19a.62.62,0,0,0-.11.73l.59,1a.63.63,0,0,0,.69.28l1.65-.49a.27.27,0,0,1,.23,0c.21.2.44.39.67.57a.2.2,0,0,1,.1.2l-.2,1.72a.63.63,0,0,0,.39.63l1.1.4a.63.63,0,0,0,.71-.23l.94-1.44a.32.32,0,0,1,.22-.1h.88a.26.26,0,0,1,.2.1l.95,1.45a.63.63,0,0,0,.71.23l1.1-.4a.62.62,0,0,0,.39-.63l-.12-1.09h26.06a2.85,2.85,0,0,0,2.84-2.83v-6.2a2.85,2.85,0,0,0-2.84-2.83H221L221,7.63l-.9-.75a.63.63,0,0,0-.74,0l-1.14.85H218a2.74,2.74,0,0,0-.64.08,3.75,3.75,0,0,0-.47-.17.26.26,0,0,1-.15-.16l-.41-1.69a.63.63,0,0,0-.58-.46H214.5a.63.63,0,0,0-.58.46l-.4,1.68a.25.25,0,0,1-.16.17,6.34,6.34,0,0,0-.83.3.2.2,0,0,1-.21,0l-1.4-1a.63.63,0,0,0-.74,0l-.9.75a.64.64,0,0,0-.15.73L209.9,10a.28.28,0,0,1,0,.22,6.06,6.06,0,0,0-.45.78.22.22,0,0,1-.18.12l-1.73.11a.61.61,0,0,0-.55.49l-.21,1.16A.63.63,0,0,0,207.12,13.43Z" transform="translate(-4.63 -5.05)"/><path class="cls-16" d="M127.44,13.43l1.58.69a.28.28,0,0,1,.14.18,6.6,6.6,0,0,0,.15.87.25.25,0,0,1-.05.22L128,16.58a.62.62,0,0,0-.11.73l.59,1a.63.63,0,0,0,.69.28l1.65-.49a.28.28,0,0,1,.23,0c.21.2.44.39.67.57a.25.25,0,0,1,.09.2l-.2,1.72a.63.63,0,0,0,.39.63l1.11.4a.63.63,0,0,0,.71-.23l.94-1.44a.28.28,0,0,1,.21-.1h.88a.26.26,0,0,1,.2.1l1,1.45a.62.62,0,0,0,.7.23l1.11-.4a.63.63,0,0,0,.39-.63l-.13-1.09h26.07A2.83,2.83,0,0,0,168,16.74V10.53a2.83,2.83,0,0,0-2.83-2.83H141.28l-.05-.07-.91-.75a.63.63,0,0,0-.74,0l-1.13.85h-.2a2.74,2.74,0,0,0-.64.08,3.75,3.75,0,0,0-.47-.17.26.26,0,0,1-.15-.16l-.41-1.69A.64.64,0,0,0,136,5.3h-1.18a.63.63,0,0,0-.58.46l-.4,1.68a.25.25,0,0,1-.16.17,6.34,6.34,0,0,0-.83.3.28.28,0,0,1-.22,0l-1.39-1a.63.63,0,0,0-.74,0l-.91.75a.65.65,0,0,0-.15.73l.77,1.54a.22.22,0,0,1,0,.22,7.44,7.44,0,0,0-.44.78.23.23,0,0,1-.18.12l-1.73.11a.63.63,0,0,0-.56.49l-.2,1.16A.61.61,0,0,0,127.44,13.43Z" transform="translate(-4.63 -5.05)"/><path class="cls-16" d="M108.35,19.57a2.85,2.85,0,0,0,2.84-2.83V10.53a2.85,2.85,0,0,0-2.84-2.83H84.48V7.63l-.9-.75a.63.63,0,0,0-.74,0l-1.14.85h-.2a2.74,2.74,0,0,0-.64.08,3.75,3.75,0,0,0-.47-.17.26.26,0,0,1-.15-.16l-.4-1.69a.63.63,0,0,0-.58-.46H78a.64.64,0,0,0-.59.46L77,7.47a.29.29,0,0,1-.17.17,6.34,6.34,0,0,0-.83.3.2.2,0,0,1-.21,0l-1.4-1a.63.63,0,0,0-.74,0l-.9.75a.64.64,0,0,0-.15.73L73.39,10a.28.28,0,0,1,0,.22A6,6,0,0,0,73,11a.23.23,0,0,1-.18.12L71,11.19a.61.61,0,0,0-.55.49l-.21,1.16a.64.64,0,0,0,.36.65l1.58.69a.24.24,0,0,1,.13.18,6.64,6.64,0,0,0,.16.87.29.29,0,0,1-.06.22L71.2,16.58a.62.62,0,0,0-.11.73l.59,1a.65.65,0,0,0,.69.28L74,18.12a.27.27,0,0,1,.23.05c.21.2.44.39.67.57a.2.2,0,0,1,.1.2l-.2,1.72a.63.63,0,0,0,.39.63l1.11.4a.62.62,0,0,0,.7-.23L78,20a.28.28,0,0,1,.21-.1h.88a.26.26,0,0,1,.2.1l.95,1.45a.63.63,0,0,0,.71.23l1.11-.4a.63.63,0,0,0,.39-.63l-.13-1.09Z" transform="translate(-4.63 -5.05)"/><path class="cls-16" d="M42.93,70.75H19.06v-.06l-.91-.76a.63.63,0,0,0-.74,0l-1.13.84H16a2.74,2.74,0,0,0-.64.08,3.75,3.75,0,0,0-.47-.17.31.31,0,0,1-.16-.16l-.4-1.69a.63.63,0,0,0-.58-.46H12.6a.63.63,0,0,0-.58.46l-.4,1.68a.25.25,0,0,1-.16.17,6.34,6.34,0,0,0-.83.3.28.28,0,0,1-.22,0L9,69.91a.63.63,0,0,0-.74,0l-.91.76a.63.63,0,0,0-.15.72L8,73a.22.22,0,0,1,0,.22,7.44,7.44,0,0,0-.44.78.27.27,0,0,1-.18.13l-1.73.1a.63.63,0,0,0-.56.49l-.2,1.16a.61.61,0,0,0,.35.65l1.58.69A.28.28,0,0,1,7,77.4a6.6,6.6,0,0,0,.15.87.28.28,0,0,1,0,.22L5.78,79.63a.62.62,0,0,0-.11.73l.59,1a.63.63,0,0,0,.69.28l1.65-.49a.31.31,0,0,1,.23,0c.21.2.44.39.67.57a.25.25,0,0,1,.09.2l-.2,1.72a.63.63,0,0,0,.39.63l1.11.4a.63.63,0,0,0,.71-.23L12.54,83a.28.28,0,0,1,.21-.1h.88a.22.22,0,0,1,.2.09l1,1.45a.62.62,0,0,0,.7.23l1.11-.4a.63.63,0,0,0,.39-.63l-.13-1.09h26a2.83,2.83,0,0,0,2.83-2.83h0V73.58a2.83,2.83,0,0,0-2.83-2.83Z" transform="translate(-4.63 -5.05)"/><path class="cls-16" d="M42.93,121.78H19.06v-.06l-1-.72a.63.63,0,0,0-.74,0l-1.13.84H16a2.74,2.74,0,0,0-.64.08l-.47-.17a.22.22,0,0,1-.16-.16l-.4-1.68a.63.63,0,0,0-.58-.46H12.6a.63.63,0,0,0-.58.46l-.4,1.67a.25.25,0,0,1-.16.17,6.34,6.34,0,0,0-.83.3.28.28,0,0,1-.22,0l-1.39-1a.63.63,0,0,0-.74,0l-.91.76a.65.65,0,0,0-.15.73L8,124a.24.24,0,0,1,0,.23,7.3,7.3,0,0,0-.44.77.27.27,0,0,1-.18.13l-1.73.1a.66.66,0,0,0-.56.49l-.2,1.16a.63.63,0,0,0,.35.66l1.58.68a.28.28,0,0,1,.14.18,6.47,6.47,0,0,0,.15.88.26.26,0,0,1,0,.21l-1.26,1.19a.62.62,0,0,0-.11.73l.59,1a.63.63,0,0,0,.69.27l1.65-.49a.24.24,0,0,1,.23.06,6,6,0,0,0,.67.56.25.25,0,0,1,.09.2l-.2,1.72a.63.63,0,0,0,.39.63l1.11.41a.65.65,0,0,0,.71-.24l.94-1.43a.26.26,0,0,1,.21-.11h.88a.26.26,0,0,1,.2.1l1,1.44a.64.64,0,0,0,.7.24l1.11-.41a.63.63,0,0,0,.39-.63L17,133.65h26a2.85,2.85,0,0,0,2.83-2.84v-6.2A2.85,2.85,0,0,0,42.93,121.78Z" transform="translate(-4.63 -5.05)"/><path class="cls-16" d="M145.27,86.91H121.41l-.06-.06-.9-.76a.63.63,0,0,0-.74,0l-1.14.84h-.2a2.72,2.72,0,0,0-.63.08,4.59,4.59,0,0,0-.48-.17.29.29,0,0,1-.15-.16l-.4-1.69a.63.63,0,0,0-.58-.46H115a.63.63,0,0,0-.58.46l-.4,1.68a.29.29,0,0,1-.17.17,6.34,6.34,0,0,0-.83.3.2.2,0,0,1-.21,0l-1.39-1a.62.62,0,0,0-.75,0l-.9.76a.6.6,0,0,0-.15.72l.77,1.54a.22.22,0,0,1,0,.22,6,6,0,0,0-.44.78.29.29,0,0,1-.18.13l-1.74.1a.62.62,0,0,0-.55.49l-.2,1.16a.61.61,0,0,0,.35.65l1.58.69a.24.24,0,0,1,.13.18,6.64,6.64,0,0,0,.16.87.25.25,0,0,1-.06.22l-1.26,1.19a.62.62,0,0,0-.11.73l.59,1a.65.65,0,0,0,.69.28l1.65-.49a.31.31,0,0,1,.23,0c.22.2.44.39.68.57a.25.25,0,0,1,.09.2l-.2,1.72a.63.63,0,0,0,.39.63l1.11.4a.62.62,0,0,0,.7-.23l1-1.44a.28.28,0,0,1,.21-.1h.88a.25.25,0,0,1,.2.09l.95,1.45a.63.63,0,0,0,.71.23l1.11-.4a.63.63,0,0,0,.39-.63l-.13-1.09h26.06A2.84,2.84,0,0,0,148.11,96V89.74A2.85,2.85,0,0,0,145.27,86.91Z" transform="translate(-4.63 -5.05)"/><path class="cls-16" d="M145.27,105.66H121.41l-.06-.06-.9-.76a.63.63,0,0,0-.74,0l-1.14.84h-.2a2.72,2.72,0,0,0-.63.08,4.59,4.59,0,0,0-.48-.17.29.29,0,0,1-.15-.16l-.4-1.69a.63.63,0,0,0-.58-.46H115a.63.63,0,0,0-.58.46l-.4,1.68a.29.29,0,0,1-.17.17,6.34,6.34,0,0,0-.83.3.2.2,0,0,1-.21,0l-1.39-1a.62.62,0,0,0-.75,0l-.9.76a.6.6,0,0,0-.15.72l.77,1.54a.22.22,0,0,1,0,.22,6,6,0,0,0-.44.78.29.29,0,0,1-.18.13l-1.74.1a.62.62,0,0,0-.55.49l-.2,1.16a.61.61,0,0,0,.35.65l1.58.69a.24.24,0,0,1,.13.18,6.64,6.64,0,0,0,.16.87.25.25,0,0,1-.06.22l-1.26,1.19a.62.62,0,0,0-.11.73l.59,1a.65.65,0,0,0,.69.28l1.65-.49a.31.31,0,0,1,.23,0c.22.2.44.39.68.57a.25.25,0,0,1,.09.2l-.2,1.72a.63.63,0,0,0,.39.63l1.11.4a.62.62,0,0,0,.7-.23l1-1.44a.28.28,0,0,1,.21-.1h.88a.25.25,0,0,1,.2.09l.95,1.45a.63.63,0,0,0,.71.23l1.11-.4a.63.63,0,0,0,.39-.63l-.13-1.09h26.06a2.85,2.85,0,0,0,2.84-2.83v-6.21a2.84,2.84,0,0,0-2.87-2.81Z" transform="translate(-4.63 -5.05)"/><path class="cls-16" d="M145.27,141.18H121.41l-.06-.06-.9-.76a.63.63,0,0,0-.74,0l-1.14.84h-.2a2.72,2.72,0,0,0-.63.08c-.16-.06-.31-.12-.48-.17a.28.28,0,0,1-.15-.15l-.4-1.69a.63.63,0,0,0-.58-.46H115a.62.62,0,0,0-.58.46l-.4,1.67a.29.29,0,0,1-.17.17,6.39,6.39,0,0,0-.83.31.26.26,0,0,1-.21,0l-1.39-1a.62.62,0,0,0-.75,0l-.9.76a.64.64,0,0,0-.15.73l.77,1.53a.24.24,0,0,1,0,.23,4.51,4.51,0,0,0-.44.77.29.29,0,0,1-.18.13l-1.74.1a.64.64,0,0,0-.55.49l-.2,1.17a.62.62,0,0,0,.35.65l1.58.68a.27.27,0,0,1,.13.18,6.49,6.49,0,0,0,.16.88.26.26,0,0,1-.06.21l-1.26,1.19a.64.64,0,0,0-.11.74l.59,1a.63.63,0,0,0,.69.27l1.65-.49a.24.24,0,0,1,.23.06,6.13,6.13,0,0,0,.68.56.25.25,0,0,1,.09.2l-.2,1.72a.65.65,0,0,0,.39.64l1.11.4a.63.63,0,0,0,.7-.23l1-1.44a.26.26,0,0,1,.21-.11h.88a.26.26,0,0,1,.2.1l.95,1.44a.65.65,0,0,0,.71.24l1.11-.41a.63.63,0,0,0,.39-.63l-.13-1.08h26.06a2.85,2.85,0,0,0,2.84-2.84V144a2.85,2.85,0,0,0-2.88-2.82Z" transform="translate(-4.63 -5.05)"/><path class="cls-16" d="M249.14,170.43H225.28l-.06-.06-.9-.76a.63.63,0,0,0-.74,0l-1.14.84h-.2a2.72,2.72,0,0,0-.63.08c-.16-.06-.31-.12-.48-.17a.28.28,0,0,1-.15-.15l-.4-1.69A.63.63,0,0,0,220,168h-1.18a.62.62,0,0,0-.58.46l-.4,1.67a.29.29,0,0,1-.17.17,6.39,6.39,0,0,0-.83.31.26.26,0,0,1-.21,0l-1.39-1a.6.6,0,0,0-.74,0l-.91.76a.64.64,0,0,0-.15.73l.77,1.53a.24.24,0,0,1,0,.23,4.51,4.51,0,0,0-.44.77.29.29,0,0,1-.18.13l-1.74.1a.64.64,0,0,0-.55.49l-.2,1.17a.62.62,0,0,0,.35.65l1.58.68a.27.27,0,0,1,.13.18,6.49,6.49,0,0,0,.16.88.26.26,0,0,1-.06.21L212,179.31a.64.64,0,0,0-.11.74l.59,1a.63.63,0,0,0,.69.27l1.65-.49a.24.24,0,0,1,.23.06,6.13,6.13,0,0,0,.68.56.25.25,0,0,1,.09.2l-.2,1.72a.65.65,0,0,0,.39.64l1.11.4a.63.63,0,0,0,.7-.23l1-1.44a.26.26,0,0,1,.21-.11h.88a.26.26,0,0,1,.2.1l.95,1.44a.65.65,0,0,0,.71.24l1.11-.41a.63.63,0,0,0,.39-.63l-.13-1.08h26.06a2.85,2.85,0,0,0,2.84-2.84v-6.2A2.86,2.86,0,0,0,249.14,170.43Z" transform="translate(-4.63 -5.05)"/><path class="cls-16" d="M299.34,170.22H275.47l-.05-.06-.9-.76a.63.63,0,0,0-.74,0l-1.14.84h-.2a2.74,2.74,0,0,0-.64.08l-.47-.17a.26.26,0,0,1-.15-.16l-.41-1.68a.62.62,0,0,0-.58-.46H269a.63.63,0,0,0-.58.46L268,170a.25.25,0,0,1-.16.17,6.34,6.34,0,0,0-.83.3.2.2,0,0,1-.21,0l-1.4-1a.63.63,0,0,0-.74,0l-.9.76a.64.64,0,0,0-.15.73l.77,1.53a.31.31,0,0,1,0,.23,5.35,5.35,0,0,0-.45.77.24.24,0,0,1-.18.13l-1.73.1a.64.64,0,0,0-.55.49l-.21,1.16a.67.67,0,0,0,.35.66l1.58.68a.24.24,0,0,1,.14.18,6.49,6.49,0,0,0,.16.88.26.26,0,0,1-.06.21l-1.26,1.19a.62.62,0,0,0-.11.73l.59,1a.63.63,0,0,0,.69.27l1.65-.49a.24.24,0,0,1,.23.06,7.1,7.1,0,0,0,.67.56.22.22,0,0,1,.1.2l-.2,1.72a.63.63,0,0,0,.39.63l1.1.41A.66.66,0,0,0,268,184l.94-1.43a.27.27,0,0,1,.22-.11H270a.26.26,0,0,1,.2.1l.95,1.44a.65.65,0,0,0,.71.24l1.1-.41a.62.62,0,0,0,.39-.63l-.12-1.08h26.06a2.85,2.85,0,0,0,2.84-2.84v-6.2A2.85,2.85,0,0,0,299.34,170.22Z" transform="translate(-4.63 -5.05)"/><path class="cls-16" d="M299.34,141.18H275.47l-.05-.06-.9-.76a.63.63,0,0,0-.74,0l-1.14.84h-.2a2.74,2.74,0,0,0-.64.08l-.47-.17a.23.23,0,0,1-.15-.15l-.41-1.69a.62.62,0,0,0-.58-.46H269a.63.63,0,0,0-.58.46l-.4,1.67a.23.23,0,0,1-.16.17,6.39,6.39,0,0,0-.83.31.26.26,0,0,1-.21,0l-1.4-1a.63.63,0,0,0-.74,0l-.9.76a.64.64,0,0,0-.15.73l.77,1.53a.31.31,0,0,1,0,.23,5.35,5.35,0,0,0-.45.77.24.24,0,0,1-.18.13l-1.73.1a.64.64,0,0,0-.55.49l-.21,1.17a.65.65,0,0,0,.35.65l1.58.68a.24.24,0,0,1,.14.18,6.49,6.49,0,0,0,.16.88.26.26,0,0,1-.06.21l-1.26,1.19a.64.64,0,0,0-.11.74l.59,1a.63.63,0,0,0,.69.27l1.65-.49a.24.24,0,0,1,.23.06,7.1,7.1,0,0,0,.67.56.22.22,0,0,1,.1.2l-.2,1.72a.65.65,0,0,0,.39.64l1.1.4a.64.64,0,0,0,.7-.22l.94-1.44a.27.27,0,0,1,.22-.11H270a.26.26,0,0,1,.2.1l.95,1.44a.64.64,0,0,0,.71.24l1.1-.41a.62.62,0,0,0,.39-.63l-.12-1.08h26.06a2.85,2.85,0,0,0,2.84-2.84V144A2.86,2.86,0,0,0,299.34,141.18Z" transform="translate(-4.63 -5.05)"/><path class="cls-16" d="M249.14,141.18H225.28l-.06-.06-.9-.76a.63.63,0,0,0-.74,0l-1.14.84h-.2a2.72,2.72,0,0,0-.63.08c-.16-.06-.31-.12-.48-.17A.28.28,0,0,1,221,141l-.4-1.69a.63.63,0,0,0-.58-.46h-1.18a.62.62,0,0,0-.58.46l-.4,1.67a.29.29,0,0,1-.17.17,6.39,6.39,0,0,0-.83.31.26.26,0,0,1-.21,0l-1.39-1a.6.6,0,0,0-.74,0l-.91.76a.64.64,0,0,0-.15.73l.77,1.53a.24.24,0,0,1,0,.23,4.51,4.51,0,0,0-.44.77.29.29,0,0,1-.18.13l-1.74.1a.64.64,0,0,0-.55.49l-.2,1.17a.62.62,0,0,0,.35.65l1.58.68a.27.27,0,0,1,.13.18,6.49,6.49,0,0,0,.16.88.26.26,0,0,1-.06.21L212,150.06a.64.64,0,0,0-.11.74l.59,1a.63.63,0,0,0,.69.27l1.65-.49a.24.24,0,0,1,.23.06,6.13,6.13,0,0,0,.68.56.25.25,0,0,1,.09.2l-.2,1.72a.62.62,0,0,0,.39.63l1.11.41a.64.64,0,0,0,.7-.24l1-1.43a.26.26,0,0,1,.21-.11h.88a.29.29,0,0,1,.2.09l.95,1.45a.65.65,0,0,0,.71.24l1.11-.41a.63.63,0,0,0,.39-.63l-.13-1.08h26.06A2.85,2.85,0,0,0,252,150.2V144A2.86,2.86,0,0,0,249.14,141.18Z" transform="translate(-4.63 -5.05)"/><path class="cls-16" d="M211.6,123.21l-.2,1.72a.63.63,0,0,0,.39.63l1.11.41a.64.64,0,0,0,.7-.24l1-1.43a.26.26,0,0,1,.21-.11h.88a.25.25,0,0,1,.2.09l1,1.45a.64.64,0,0,0,.7.24l1.11-.41a.63.63,0,0,0,.39-.63l-.13-1.08H245a2.85,2.85,0,0,0,2.83-2.84v-6.2A2.85,2.85,0,0,0,245,112h-24v-.06l-.91-.76a.63.63,0,0,0-.74,0l-1.13.84H218a2.72,2.72,0,0,0-.63.08,4.59,4.59,0,0,0-.48-.17.29.29,0,0,1-.15-.16l-.4-1.68a.63.63,0,0,0-.58-.46h-1.18a.63.63,0,0,0-.58.46l-.4,1.67a.25.25,0,0,1-.16.17,6,6,0,0,0-.84.3.26.26,0,0,1-.21,0l-1.39-1a.63.63,0,0,0-.74,0l-.91.76a.63.63,0,0,0-.15.72l.77,1.54a.24.24,0,0,1,0,.23,4.51,4.51,0,0,0-.44.77.27.27,0,0,1-.18.13l-1.73.1a.64.64,0,0,0-.56.49l-.2,1.16a.63.63,0,0,0,.35.66l1.58.68a.28.28,0,0,1,.14.18,5.22,5.22,0,0,0,.15.88.2.2,0,0,1-.06.21l-1.25,1.19a.62.62,0,0,0-.11.73l.59,1a.63.63,0,0,0,.69.27l1.65-.49a.28.28,0,0,1,.22,0,5.27,5.27,0,0,0,.68.57A.24.24,0,0,1,211.6,123.21Z" transform="translate(-4.63 -5.05)"/><path class="cls-16" d="M232.69,106.6a2.85,2.85,0,0,0,2.83-2.84v-6.2a2.85,2.85,0,0,0-2.83-2.84H208.82v-.06l-.91-.76a.63.63,0,0,0-.74,0l-1.13.84h-.21a2.72,2.72,0,0,0-.63.08,4.59,4.59,0,0,0-.48-.17.29.29,0,0,1-.15-.16l-.4-1.68a.63.63,0,0,0-.58-.46h-1.18a.63.63,0,0,0-.58.46l-.4,1.67a.25.25,0,0,1-.16.17,6,6,0,0,0-.84.3.26.26,0,0,1-.21,0l-1.39-1a.63.63,0,0,0-.74,0l-.91.76a.63.63,0,0,0-.15.72L197.8,97a.24.24,0,0,1,0,.23,4.51,4.51,0,0,0-.44.77.27.27,0,0,1-.18.13l-1.73.1a.64.64,0,0,0-.56.49l-.2,1.16a.63.63,0,0,0,.35.66l1.58.68a.28.28,0,0,1,.14.18,4.38,4.38,0,0,0,.15.88.2.2,0,0,1-.06.21l-1.25,1.19a.62.62,0,0,0-.11.73l.59,1a.63.63,0,0,0,.69.27l1.65-.49a.28.28,0,0,1,.22,0,5.27,5.27,0,0,0,.68.57.25.25,0,0,1,.09.2l-.2,1.72a.63.63,0,0,0,.39.63l1.11.41a.64.64,0,0,0,.7-.24l1-1.43a.26.26,0,0,1,.21-.11h.88a.25.25,0,0,1,.2.09l1,1.45a.64.64,0,0,0,.7.24l1.11-.41a.63.63,0,0,0,.39-.63l-.13-1.08Z" transform="translate(-4.63 -5.05)"/><path class="cls-16" d="M299.34,57.47H275.47l-.05-.06-.9-.76a.63.63,0,0,0-.74,0l-1.14.84h-.2a2.74,2.74,0,0,0-.64.08,3.75,3.75,0,0,0-.47-.17.26.26,0,0,1-.15-.16l-.41-1.68a.62.62,0,0,0-.58-.46H269a.63.63,0,0,0-.58.46l-.4,1.67a.25.25,0,0,1-.16.17,6.34,6.34,0,0,0-.83.3.2.2,0,0,1-.21,0l-1.4-1a.63.63,0,0,0-.74,0l-.9.76a.6.6,0,0,0-.15.72l.77,1.54a.31.31,0,0,1,0,.23,5.35,5.35,0,0,0-.45.77.24.24,0,0,1-.18.13L262,61a.62.62,0,0,0-.55.49l-.21,1.16a.67.67,0,0,0,.35.66l1.58.68a.24.24,0,0,1,.14.18,6.49,6.49,0,0,0,.16.88.26.26,0,0,1-.06.21l-1.26,1.19a.62.62,0,0,0-.11.73l.59,1a.63.63,0,0,0,.69.27l1.65-.49a.31.31,0,0,1,.23,0c.21.2.44.39.67.57a.22.22,0,0,1,.1.2l-.2,1.72a.63.63,0,0,0,.39.63l1.1.41a.65.65,0,0,0,.71-.24l1-1.4a.27.27,0,0,1,.22-.11h.88a.25.25,0,0,1,.2.09l.95,1.45a.65.65,0,0,0,.71.24l1.1-.41a.62.62,0,0,0,.39-.63l-.12-1.08h26.06a2.85,2.85,0,0,0,2.84-2.84v-6.2a2.86,2.86,0,0,0-2.86-2.84Z" transform="translate(-4.63 -5.05)"/><path class="cls-16" d="M145.27,160.43H121.41l-.06-.06-.9-.76a.63.63,0,0,0-.74,0l-1.14.84h-.2a2.72,2.72,0,0,0-.63.08c-.16-.06-.31-.12-.48-.17a.28.28,0,0,1-.15-.15l-.4-1.69a.63.63,0,0,0-.58-.46H115a.62.62,0,0,0-.58.46l-.4,1.67a.29.29,0,0,1-.17.17,6.39,6.39,0,0,0-.83.31.26.26,0,0,1-.21,0l-1.39-1a.62.62,0,0,0-.75,0l-.9.76a.64.64,0,0,0-.15.73l.77,1.53a.24.24,0,0,1,0,.23,4.51,4.51,0,0,0-.44.77.29.29,0,0,1-.18.13l-1.74.1a.64.64,0,0,0-.55.49l-.2,1.17a.62.62,0,0,0,.35.65l1.58.68a.27.27,0,0,1,.13.18,6.49,6.49,0,0,0,.16.88.26.26,0,0,1-.06.21l-1.26,1.19a.64.64,0,0,0-.11.74l.59,1a.63.63,0,0,0,.69.27l1.65-.49a.24.24,0,0,1,.23.06,6.13,6.13,0,0,0,.68.56.25.25,0,0,1,.09.2l-.2,1.72a.65.65,0,0,0,.39.64l1.11.4a.63.63,0,0,0,.7-.23l1-1.44a.26.26,0,0,1,.21-.11h.88a.26.26,0,0,1,.2.1l.95,1.44a.65.65,0,0,0,.71.24l1-.47a.63.63,0,0,0,.39-.63l-.13-1.08h26.06a2.85,2.85,0,0,0,2.84-2.84v-6.2a2.86,2.86,0,0,0-2.88-2.82Z" transform="translate(-4.63 -5.05)"/><path class="cls-16" d="M42.93,51.18H19.06v-.06l-.91-.76a.63.63,0,0,0-.74,0l-1.13.84H16a2.74,2.74,0,0,0-.64.08l-.47-.17a.26.26,0,0,1-.16-.15l-.4-1.69a.63.63,0,0,0-.58-.46H12.6a.63.63,0,0,0-.58.46l-.4,1.67a.25.25,0,0,1-.16.17,5.21,5.21,0,0,0-.83.31.28.28,0,0,1-.22,0L9,50.34a.63.63,0,0,0-.74,0l-.91.76a.65.65,0,0,0-.15.73L8,53.38a.24.24,0,0,1,0,.23,7.3,7.3,0,0,0-.44.77.27.27,0,0,1-.18.13l-1.73.1a.66.66,0,0,0-.56.49l-.2,1.17a.62.62,0,0,0,.35.65l1.58.68a.28.28,0,0,1,.14.18,6.47,6.47,0,0,0,.15.88.26.26,0,0,1,0,.21L5.78,60.06a.64.64,0,0,0-.11.74l.59,1a.63.63,0,0,0,.69.27L8.6,61.6a.24.24,0,0,1,.23.06,6,6,0,0,0,.67.56.25.25,0,0,1,.09.2l-.2,1.72a.66.66,0,0,0,.39.64l1.11.4A.66.66,0,0,0,11.6,65l.94-1.44a.26.26,0,0,1,.21-.11h.88a.26.26,0,0,1,.2.1l1,1.44a.62.62,0,0,0,.7.24l1.11-.41a.63.63,0,0,0,.39-.63l-.13-1.08h26a2.85,2.85,0,0,0,2.83-2.84V54A2.84,2.84,0,0,0,42.93,51.18Z" transform="translate(-4.63 -5.05)"/><path class="cls-16" d="M195.64,71.27a2.85,2.85,0,0,0,2.83-2.83V62.23a2.83,2.83,0,0,0-2.83-2.83H171.77l-.05-.07-.91-.76a.66.66,0,0,0-.74,0l-1.13.85h-.2a3.39,3.39,0,0,0-.64.07c-.16,0-.31-.12-.48-.17a.28.28,0,0,1-.15-.15l-.4-1.69a.63.63,0,0,0-.58-.46h-1.18a.63.63,0,0,0-.58.46l-.4,1.67a.25.25,0,0,1-.16.17,8.29,8.29,0,0,0-.83.31.41.41,0,0,1-.22,0l-1.39-1a.66.66,0,0,0-.74,0l-.91.76a.65.65,0,0,0-.15.73l.77,1.54a.22.22,0,0,1,0,.22,6,6,0,0,0-.44.78.28.28,0,0,1-.18.12l-1.73.1a.65.65,0,0,0-.56.5l-.2,1.16a.61.61,0,0,0,.35.65l1.58.68a.28.28,0,0,1,.14.18,5.22,5.22,0,0,0,.15.88.23.23,0,0,1-.05.21l-1.26,1.2a.62.62,0,0,0-.11.73l.59,1a.6.6,0,0,0,.69.27l1.65-.49a.23.23,0,0,1,.22.06,7.22,7.22,0,0,0,.68.56.25.25,0,0,1,.09.2l-.2,1.73a.63.63,0,0,0,.39.63l1.11.4a.63.63,0,0,0,.7-.23l.95-1.44a.25.25,0,0,1,.21-.1h.88a.26.26,0,0,1,.2.1l1,1.45a.63.63,0,0,0,.7.23l1.11-.4a.63.63,0,0,0,.39-.63l-.13-1.09Z" transform="translate(-4.63 -5.05)"/><path class="cls-16" d="M158,56.37l-.12-1.08h26.06a2.85,2.85,0,0,0,2.83-2.84v-6.2a2.85,2.85,0,0,0-2.83-2.84H160.06l-.05-.06-.9-.76a.63.63,0,0,0-.74,0l-1.14.84H157a2.74,2.74,0,0,0-.64.08l-.47-.17a.26.26,0,0,1-.15-.16l-.41-1.68a.62.62,0,0,0-.58-.46H153.6a.63.63,0,0,0-.58.46l-.4,1.67a.25.25,0,0,1-.16.17,6.34,6.34,0,0,0-.83.3.2.2,0,0,1-.21,0l-1.4-1a.63.63,0,0,0-.74,0l-.9.76a.64.64,0,0,0-.15.73l.77,1.53a.31.31,0,0,1,0,.23,5.35,5.35,0,0,0-.45.77.24.24,0,0,1-.18.13l-1.73.1a.64.64,0,0,0-.55.49l-.21,1.16a.67.67,0,0,0,.35.66l1.58.68a.28.28,0,0,1,.14.18,6.49,6.49,0,0,0,.16.88.26.26,0,0,1-.06.21l-1.26,1.19a.64.64,0,0,0-.11.74l.59,1a.63.63,0,0,0,.69.27l1.65-.49a.24.24,0,0,1,.23.06,7.1,7.1,0,0,0,.67.56.26.26,0,0,1,.1.2l-.2,1.72a.63.63,0,0,0,.39.63l1.1.41a.65.65,0,0,0,.71-.24l.94-1.43a.27.27,0,0,1,.22-.11h.88a.23.23,0,0,1,.19.1l1,1.44a.65.65,0,0,0,.71.24l1.1-.41A.63.63,0,0,0,158,56.37Z" transform="translate(-4.63 -5.05)"/><path class="cls-16" d="M19.89,107.86H31.05A2.86,2.86,0,0,0,33.89,105h0V98.8A2.86,2.86,0,0,0,31.05,96H19.89a5.94,5.94,0,0,0,0,11.88Z" transform="translate(-4.63 -5.05)"/><path class="cls-17" d="M41.43,96.45a6.5,6.5,0,0,0,1.08-.24,8,8,0,0,0,3-1.71l3.67,9.28a20.38,20.38,0,0,1-3,2.48,6.46,6.46,0,0,1-3.41,1.24,2.5,2.5,0,0,1-2.2-1.09c.56-.52,2-1.51,2.47-1.18s-.44,1.48-.44,1.48c1.3-1,1.34-1.58,1.24-1.87l-.33-.46m.21.27L39.41,95a5.6,5.6,0,0,0-1-.06,11.74,11.74,0,0,0-3.17.46,10.6,10.6,0,0,0-3.8,2l4.65,11.8a26.15,26.15,0,0,1,3.62-3.2,6.57,6.57,0,0,1,3.37-1.46,1.94,1.94,0,0,1,.63.11Z" transform="translate(-4.63 -5.05)"/><path class="cls-13" d="M45.54,94.5a8,8,0,0,1-3,1.71,6.5,6.5,0,0,1-1.08.24l2.4,8.39h0c.1.29.06.89-1.24,1.87,0,0,.91-1.15.44-1.48s-1.91.66-2.47,1.18a2.5,2.5,0,0,0,2.2,1.09,6.46,6.46,0,0,0,3.41-1.24,20.38,20.38,0,0,0,3-2.48Z" transform="translate(-4.63 -5.05)"/><path class="cls-11" d="M46.05,106a19.39,19.39,0,0,0,2.77-2.26L47.72,101A14.12,14.12,0,0,1,45,103Z" transform="translate(-4.63 -5.05)"/><path class="cls-11" d="M46.5,97.83l-1.1-2.78a8.35,8.35,0,0,1-2.78,1.47l1.13,3.09A10.14,10.14,0,0,0,46.5,97.83Z" transform="translate(-4.63 -5.05)"/><path class="cls-11" d="M45,103l-1.21-3.35a7.31,7.31,0,0,1-1.3.42l1,3.57A8.35,8.35,0,0,0,45,103Z" transform="translate(-4.63 -5.05)"/><path class="cls-13" d="M38.45,94.91a11.74,11.74,0,0,0-3.17.46,10.6,10.6,0,0,0-3.8,2l4.65,11.8A25.69,25.69,0,0,1,39.71,106a6.57,6.57,0,0,1,3.37-1.46,1.93,1.93,0,0,1,.63.1L39.41,95a5.6,5.6,0,0,0-1-.06Z" transform="translate(-4.63 -5.05)"/><path class="cls-11" d="M38.45,95.24a11.28,11.28,0,0,0-3,.44l1.45,3.47a11.92,11.92,0,0,1,3.6-1l-1.27-2.89Z" transform="translate(-4.63 -5.05)"/><path class="cls-11" d="M38.33,102.69l1.25,3a6.65,6.65,0,0,1,3.5-1.48h.08l-1.28-2.87A8,8,0,0,0,38.33,102.69Z" transform="translate(-4.63 -5.05)"/><path class="cls-11" d="M36.86,99.15a15.85,15.85,0,0,0-3.57,2l1.55,3.93a31.87,31.87,0,0,1,3.49-2.36Z" transform="translate(-4.63 -5.05)"/><rect class="cls-16" x="49.98" y="2.65" width="11.87" height="11.87" rx="2.83"/><path class="cls-16" d="M190.42,125H179.25a5.94,5.94,0,0,0,0,11.88h11.17a2.85,2.85,0,0,0,2.83-2.84v-6.2A2.85,2.85,0,0,0,190.42,125Z" transform="translate(-4.63 -5.05)"/><polyline class="cls-18" points="62.74 52.72 70.74 52.72 70.74 38.73"/><text class="cls-19" transform="translate(6.16 11.61)">5</text><text class="cls-20" transform="translate(23.88 11.61)">210</text><text class="cls-19" transform="translate(262.57 40.61)">4</text><text class="cls-20" transform="translate(280.3 40.61)">180</text><text class="cls-19" transform="translate(262.57 11.61)">8</text><text class="cls-20" transform="translate(280.3 11.61)">340</text><text class="cls-19" transform="translate(227.73 69.84)">1</text><text class="cls-19" transform="translate(208.06 11.61)">8</text><text class="cls-20" transform="translate(225.79 11.61)">325</text><text class="cls-19" transform="translate(128.38 11.61)">8</text><text class="cls-20" transform="translate(146.1 11.61)">310</text><text class="cls-19" transform="translate(71.58 11.61)">8</text><text class="cls-20" transform="translate(89.31 11.61)">315</text><text class="cls-19" transform="translate(6.16 74.67)">8</text><text class="cls-20" transform="translate(23.88 74.67)">305</text><text class="cls-19" transform="translate(6.16 125.7)">2</text><g class="cls-21"><text class="cls-22" transform="translate(24.12 125.7)">1</text><text class="cls-20" transform="translate(28.38 125.7)">10</text></g><text class="cls-19" transform="translate(108.51 90.83)">8</text><text class="cls-20" transform="translate(126.23 90.83)">325</text><text class="cls-19" transform="translate(108.51 109.58)">8</text><text class="cls-20" transform="translate(126.23 109.58)">325</text><text class="cls-19" transform="translate(108.51 145.1)">8</text><text class="cls-20" transform="translate(126.23 145.1)">310</text><text class="cls-19" transform="translate(212.38 174.35)">6</text><text class="cls-20" transform="translate(230.1 174.35)">260</text><text class="cls-19" transform="translate(262.57 174.14)">4</text><text class="cls-20" transform="translate(280.3 174.14)">140</text><text class="cls-19" transform="translate(262.57 145.1)">7</text><text class="cls-20" transform="translate(280.3 145.1)">280</text><text class="cls-19" transform="translate(212.38 145.1)">5</text><text class="cls-20" transform="translate(230.1 145.1)">175</text><text class="cls-19" transform="translate(208.17 115.89)">8</text><text class="cls-20" transform="translate(225.89 115.89)">310</text><text class="cls-19" transform="translate(195.92 98.64)">8</text><text class="cls-20" transform="translate(213.64 98.64)">305</text><text class="cls-19" transform="translate(262.57 61.39)">6</text><text class="cls-20" transform="translate(280.3 61.39)">235</text><text class="cls-19" transform="translate(108.51 164.35)">7</text><text class="cls-20" transform="translate(126.23 164.35)">295</text><text class="cls-19" transform="translate(6.16 55.1)">2</text><text class="cls-20" transform="translate(26.25 55.1)">95</text><text class="cls-19" transform="translate(158.87 63.31)">8</text><text class="cls-20" transform="translate(176.59 63.31)">290</text><text class="cls-19" transform="translate(147.16 47.33)">8</text><text class="cls-20" transform="translate(164.89 47.33)">320</text><text class="cls-19" transform="translate(21.99 99.9)">3</text><text class="cls-19" transform="translate(181.35 128.89)">2</text><text class="cls-23" transform="translate(98.1 182.67)">Curve Paul Frere</text><text class="cls-24" transform="translate(27.27 32.41)">1</text><text class="cls-24" transform="translate(110.38 30.41)">2</text><text class="cls-24" transform="translate(113.83 10.74)">3</text><text class="cls-24" transform="translate(124.32 35.41)">4</text><text class="cls-24" transform="translate(249.21 52.74)">5</text><text class="cls-24" transform="translate(238.66 78.41)">6</text><text class="cls-24" transform="translate(271.21 76.07)">7</text><text class="cls-24" transform="translate(261.44 124.41)">8</text><text class="cls-24" transform="translate(237.82 101.41)">9</text><text class="cls-24" transform="translate(199.03 64.41)">10</text><g class="cls-21"><text class="cls-25" transform="translate(169.02 92.41)">1</text><text class="cls-24" transform="translate(172.18 92.41)">1</text></g><text class="cls-24" transform="translate(189.03 131.07)">12</text><text class="cls-24" transform="translate(195.87 149.07)">13</text><text class="cls-24" transform="translate(198.03 183.41)">14</text><text class="cls-24" transform="translate(160.2 184.74)">15</text><text class="cls-24" transform="translate(150.7 116.07)">16</text><text class="cls-24" transform="translate(138.2 69.07)">17</text><text class="cls-24" transform="translate(86.37 65.74)">18</text><text class="cls-24" transform="translate(102.54 42.74)">19</text></g></svg>