<svg id="Capa_1" data-name="Capa 1" xmlns="http://www.w3.org/2000/svg" width="297.22" height="195.15" viewBox="0 0 297.22 195.15"><defs><style>.cls-1,.cls-10,.cls-11,.cls-17,.cls-18,.cls-19,.cls-2,.cls-3,.cls-4,.cls-5,.cls-6,.cls-7,.cls-9{fill:none;}.cls-1,.cls-11,.cls-7{stroke:#fff;}.cls-1,.cls-10,.cls-11,.cls-17,.cls-19,.cls-2,.cls-3,.cls-4{stroke-linecap:round;}.cls-1,.cls-10,.cls-11,.cls-17,.cls-18,.cls-19,.cls-2,.cls-3,.cls-4,.cls-6{stroke-linejoin:round;}.cls-1{stroke-width:8px;}.cls-2,.cls-3,.cls-5{stroke:#00071b;}.cls-2,.cls-4,.cls-5,.cls-6{stroke-width:2.8px;}.cls-3{stroke-width:5.4px;}.cls-4{stroke:#8c92a1;}.cls-6{stroke:#fff100;}.cls-7{stroke-width:1.3px;}.cls-8{fill:#ea1a4d;}.cls-10,.cls-17,.cls-18,.cls-19,.cls-9{stroke:#231f20;}.cls-10{stroke-width:1.5px;}.cls-11,.cls-16,.cls-17{stroke-width:0.5px;}.cls-12,.cls-16,.cls-21,.cls-23,.cls-26,.cls-27{fill:#fff;}.cls-13{fill:#ffca05;}.cls-14,.cls-20,.cls-24,.cls-25{fill:#231f20;}.cls-15{fill:#007dc4;}.cls-16{stroke:#007dc4;}.cls-18{stroke-width:0.25px;}.cls-19{stroke-width:0.65px;}.cls-20,.cls-21,.cls-22,.cls-23,.cls-24,.cls-25,.cls-26,.cls-27{isolation:isolate;}.cls-20,.cls-21,.cls-23,.cls-25{font-size:8.5px;}.cls-20,.cls-21,.cls-23,.cls-26,.cls-27{font-family:Helvetica-Bold, Helvetica;font-weight:700;}.cls-23{letter-spacing:-0.05em;}.cls-24,.cls-26,.cls-27{font-size:7.5px;}.cls-24,.cls-25{font-family:Helvetica;}.cls-26{letter-spacing:-0.08em;}.cls-27{letter-spacing:-0.13em;}</style></defs><g id="montecarlo"><path class="cls-1" d="M237,101.16c6.19,1,28.68,4.22,30.73,4.61s5.5,1,5.5,5.37-4.23,4.1-6,6.27-3.32,6.41-4.61,8.2-5.58,5.26-.12,8.06c4.48,2.31,4.86-1.28,6.14-4.48s3.86-10,9.6-6.27c5.25,3.46,9,7.94,8.33,11.14s-6.66,2.17-21.77,10.62C253.4,151,230.51,153.8,221,152c-11.39-2.18-31.75-19.2-38-24.07s-19.21-20-22.79-25.86-4.05,2.78-7.55-1c-4.61-5,.89-4.23-4.23-11-4-5.32-25.86-35.85-25.86-35.85s-3.2-7-21.76-1C78.44,60.38,88.2,66.59,83.59,70.05,79.45,73.16,61.7,87.59,61.7,87.59s-1.66,1-3.33-1-4.09-.64-5.12.77S40.71,98.47,38.79,114.47s-5.76,7.94-8.07,5.38-11-12-6-14c4.23-1.62,4.49-3.84,5.51-5.5s1.15-3.07,2.18-5.12c0,0,11.9-18.31,34.18-34.7s34.43-18.94,41-18.82,9-7.16,13.32-2.43S133.65,59,149,74.27c8.17,8.1,7,12.55,16.77,19.46,10.87,7.72,16.9,17.28,19.85,20.61s7,11.19,18.56,10.88c9.6-.25,15-12.16,16.39-19.07,1-5,3.84-5.12,5.63-5.12a7,7,0,0,0,3.45,0C231.46,100.26,233.89,100.64,237,101.16Z" transform="translate(-5.81 -5.05)"/><path class="cls-2" d="M25.09,111.92s7.3-2.81,8.45-4.48S35.2,94.9,63.75,69.8c5.86-5.15,13.19-15.87,22.28-21" transform="translate(-5.81 -5.05)"/><path class="cls-3" d="M237,101.16c6.19,1,28.68,4.22,30.73,4.61s5.5,1,5.5,5.37-4.23,4.1-6,6.27-3.32,6.41-4.61,8.2-5.58,5.26-.12,8.06c4.48,2.31,4.86-1.28,6.14-4.48s3.86-10,9.6-6.27c5.25,3.46,9,7.94,8.33,11.14s-6.66,2.17-21.77,10.62C253.4,151,230.51,153.8,221,152c-11.39-2.18-31.75-19.2-38-24.07s-19.21-20-22.79-25.86-4.05,2.78-7.55-1c-4.61-5,.89-4.23-4.23-11-4-5.32-25.86-35.85-25.86-35.85s-3.2-7-21.76-1C78.44,60.38,88.2,66.59,83.59,70.05,79.45,73.16,61.7,87.59,61.7,87.59s-1.66,1-3.33-1-4.09-.64-5.12.77S40.71,98.47,38.79,114.47s-5.76,7.94-8.07,5.38-11-12-6-14c4.23-1.62,4.49-3.84,5.51-5.5s1.15-3.07,2.18-5.12c0,0,11.9-18.31,34.18-34.7s34.43-18.94,41-18.82,9-7.16,13.32-2.43S133.65,59,149,74.27c8.17,8.1,7,12.55,16.77,19.46,10.87,7.72,16.9,17.28,19.85,20.61s7,11.19,18.56,10.88c9.6-.25,15-12.16,16.39-19.07,1-5,3.84-5.12,5.63-5.12a7,7,0,0,0,3.45,0C231.46,100.26,233.89,100.64,237,101.16Z" transform="translate(-5.81 -5.05)"/><path class="cls-4" d="M237,101.16c6.19,1,28.68,4.22,30.73,4.61s5.5,1,5.5,5.37-4.23,4.1-6,6.27-3.32,6.41-4.61,8.2-5.58,5.26-.12,8.06c4.48,2.31,4.86-1.28,6.14-4.48s3.86-10,9.6-6.27c5.25,3.46,9,7.94,8.33,11.14s-6.66,2.17-21.77,10.62C253.4,151,230.51,153.8,221,152c-11.39-2.18-31.75-19.2-38-24.07s-19.21-20-22.79-25.86-4.05,2.78-7.55-1c-4.61-5,.89-4.23-4.23-11-4-5.32-25.86-35.85-25.86-35.85s-3.2-7-21.76-1C78.44,60.38,88.2,66.59,83.59,70.05,79.45,73.16,61.7,87.59,61.7,87.59s-1.66,1-3.33-1-4.09-.64-5.12.77S40.71,98.47,38.79,114.47s-5.76,7.94-8.07,5.38-11-12-6-14c4.23-1.62,4.49-3.84,5.51-5.5s1.15-3.07,2.18-5.12c0,0,11.9-18.31,34.18-34.7s34.43-18.94,41-18.82,9-7.16,13.32-2.43S133.65,59,149,74.27c8.17,8.1,7,12.55,16.77,19.46,10.87,7.72,16.9,17.28,19.85,20.61s7,11.19,18.56,10.88c9.6-.25,15-12.16,16.39-19.07,1-5,3.84-5.12,5.63-5.12a7,7,0,0,0,3.45,0C231.46,100.26,233.89,100.64,237,101.16Z" transform="translate(-5.81 -5.05)"/><path class="cls-5" d="M267.74,143.06q-1.42.75-3,1.62C253.4,151,230.51,153.8,221,152c-6.12-1.17-14.83-6.63-22.56-12.18" transform="translate(-5.81 -5.05)"/><path class="cls-6" d="M30.21,100.39c1-1.67,1.15-3.07,2.18-5.12,0,0,11.9-18.31,34.18-34.7s34.43-18.94,41-18.82a10.45,10.45,0,0,0,6-2" transform="translate(-5.81 -5.05)"/><rect class="cls-7" x="95.98" y="21.27" width="9.61" height="9.61" rx="2.29"/><rect class="cls-8" x="95.98" y="21.27" width="9.61" height="9.61" rx="2.29"/><rect class="cls-7" x="156.73" y="76.02" width="9.61" height="9.61" rx="2.29"/><rect class="cls-8" x="156.73" y="76.02" width="9.61" height="9.61" rx="2.29"/><rect class="cls-7" x="187.73" y="103.77" width="9.61" height="9.61" rx="2.29"/><rect class="cls-8" x="187.73" y="103.77" width="9.61" height="9.61" rx="2.29"/><rect class="cls-7" x="219.23" y="101.02" width="9.61" height="9.61" rx="2.29"/><rect class="cls-8" x="219.23" y="101.02" width="9.61" height="9.61" rx="2.29"/><rect class="cls-7" x="264.48" y="87.27" width="9.61" height="9.61" rx="2.29"/><rect class="cls-8" x="264.48" y="87.27" width="9.61" height="9.61" rx="2.29"/><rect class="cls-7" x="242.23" y="112.27" width="9.61" height="9.61" rx="2.29"/><rect class="cls-8" x="242.23" y="112.27" width="9.61" height="9.61" rx="2.29"/><rect class="cls-7" x="265.23" y="122.02" width="9.61" height="9.61" rx="2.29"/><rect class="cls-8" x="265.23" y="122.02" width="9.61" height="9.61" rx="2.29"/><rect class="cls-7" x="285.48" y="127.02" width="9.61" height="9.61" rx="2.29"/><rect class="cls-8" x="285.48" y="127.02" width="9.61" height="9.61" rx="2.29"/><rect class="cls-7" x="200.23" y="149.02" width="9.61" height="9.61" rx="2.29"/><rect class="cls-8" x="200.23" y="149.02" width="9.61" height="9.61" rx="2.29"/><rect class="cls-7" x="142.23" y="102.52" width="9.61" height="9.61" rx="2.29"/><rect class="cls-8" x="142.23" y="102.52" width="9.61" height="9.61" rx="2.29"/><rect class="cls-7" x="127.73" y="84.77" width="9.61" height="9.61" rx="2.29"/><rect class="cls-8" x="127.73" y="84.77" width="9.61" height="9.61" rx="2.29"/><rect class="cls-7" x="103.73" y="50.02" width="9.61" height="9.61" rx="2.29"/><rect class="cls-8" x="103.73" y="50.02" width="9.61" height="9.61" rx="2.29"/><rect class="cls-7" x="83.73" y="57.02" width="9.61" height="9.61" rx="2.29"/><rect class="cls-8" x="83.73" y="57.02" width="9.61" height="9.61" rx="2.29"/><rect class="cls-7" x="66.23" y="54.27" width="9.61" height="9.61" rx="2.29"/><rect class="cls-8" x="66.23" y="54.27" width="9.61" height="9.61" rx="2.29"/><rect class="cls-7" x="51.73" y="86.27" width="9.61" height="9.61" rx="2.29"/><rect class="cls-8" x="51.73" y="86.27" width="9.61" height="9.61" rx="2.29"/><rect class="cls-7" x="47.73" y="66.77" width="9.61" height="9.61" rx="2.29"/><rect class="cls-8" x="47.73" y="66.77" width="9.61" height="9.61" rx="2.29"/><rect class="cls-7" x="35.98" y="99.52" width="9.61" height="9.61" rx="2.29"/><rect class="cls-8" x="35.98" y="99.52" width="9.61" height="9.61" rx="2.29"/><rect class="cls-7" x="29.48" y="122.27" width="9.61" height="9.61" rx="2.29"/><rect class="cls-8" x="29.48" y="122.27" width="9.61" height="9.61" rx="2.29"/><rect class="cls-7" x="10.73" y="87.27" width="9.61" height="9.61" rx="2.29"/><rect class="cls-8" x="10.73" y="87.27" width="9.61" height="9.61" rx="2.29"/><path class="cls-9" d="M222.56,103.25a1.42,1.42,0,1,0-1.42-1.42h0a1.41,1.41,0,0,0,1.41,1.41Z" transform="translate(-5.81 -5.05)"/><line class="cls-10" x1="216.75" y1="96.79" x2="216.75" y2="28.57"/><line class="cls-11" x1="216.75" y1="96.79" x2="216.75" y2="28.57"/><path class="cls-12" d="M222.56,103.25a1.42,1.42,0,1,0-1.42-1.42h0a1.41,1.41,0,0,0,1.41,1.41Z" transform="translate(-5.81 -5.05)"/><path class="cls-9" d="M244.26,103.41a1.42,1.42,0,1,0-1.42-1.42h0a1.41,1.41,0,0,0,1.41,1.41Z" transform="translate(-5.81 -5.05)"/><line class="cls-10" x1="238.45" y1="96.95" x2="238.45" y2="47.6"/><line class="cls-11" x1="238.45" y1="96.95" x2="238.45" y2="47.6"/><path class="cls-12" d="M244.26,103.41a1.42,1.42,0,1,0-1.42-1.42h0a1.41,1.41,0,0,0,1.41,1.41Z" transform="translate(-5.81 -5.05)"/><path class="cls-9" d="M257.42,105.5a1.42,1.42,0,1,0-1.42-1.42A1.43,1.43,0,0,0,257.42,105.5Z" transform="translate(-5.81 -5.05)"/><line class="cls-10" x1="251.61" y1="99.03" x2="251.61" y2="67.09"/><line class="cls-11" x1="251.61" y1="99.03" x2="251.61" y2="67.09"/><path class="cls-12" d="M257.42,105.5a1.42,1.42,0,1,0-1.42-1.42A1.43,1.43,0,0,0,257.42,105.5Z" transform="translate(-5.81 -5.05)"/><path class="cls-9" d="M282.15,127.12a1.42,1.42,0,1,0-1.42-1.42h0a1.41,1.41,0,0,0,1.41,1.41Z" transform="translate(-5.81 -5.05)"/><line class="cls-10" x1="276.34" y1="120.66" x2="276.34" y2="8.2"/><line class="cls-11" x1="276.34" y1="120.66" x2="276.34" y2="8.2"/><path class="cls-12" d="M282.15,127.12a1.42,1.42,0,1,0-1.42-1.42h0a1.41,1.41,0,0,0,1.41,1.41Z" transform="translate(-5.81 -5.05)"/><path class="cls-9" d="M173.74,101.68a1.42,1.42,0,1,0-1.41-1.43v0A1.42,1.42,0,0,0,173.74,101.68Z" transform="translate(-5.81 -5.05)"/><line class="cls-10" x1="167.93" y1="95.22" x2="167.93" y2="67.1"/><line class="cls-11" x1="167.93" y1="95.22" x2="167.93" y2="67.1"/><path class="cls-12" d="M173.74,101.68a1.42,1.42,0,1,0-1.41-1.43v0A1.42,1.42,0,0,0,173.74,101.68Z" transform="translate(-5.81 -5.05)"/><path class="cls-9" d="M113.83,40.7a1.42,1.42,0,1,0-1.42-1.42h0A1.43,1.43,0,0,0,113.83,40.7Z" transform="translate(-5.81 -5.05)"/><polyline class="cls-10" points="108.02 34.23 108.02 27.6 130.8 27.6"/><polyline class="cls-11" points="108.02 34.23 108.02 27.6 130.8 27.6"/><path class="cls-12" d="M113.83,40.7a1.42,1.42,0,1,0-1.42-1.42h0A1.43,1.43,0,0,0,113.83,40.7Z" transform="translate(-5.81 -5.05)"/><path class="cls-9" d="M99.46,43.94A1.42,1.42,0,1,0,98,42.52a1.43,1.43,0,0,0,1.46,1.42Z" transform="translate(-5.81 -5.05)"/><polyline class="cls-10" points="93.65 37.47 93.65 8.2 108.01 8.2"/><polyline class="cls-11" points="93.65 37.47 93.65 8.2 108.01 8.2"/><path class="cls-12" d="M99.46,43.94A1.42,1.42,0,1,0,98,42.52a1.43,1.43,0,0,0,1.46,1.42Z" transform="translate(-5.81 -5.05)"/><path class="cls-9" d="M103.94,50.72a1.42,1.42,0,1,1-1.42,1.42h0A1.43,1.43,0,0,1,103.94,50.72Z" transform="translate(-5.81 -5.05)"/><line class="cls-10" x1="98.13" y1="47.09" x2="98.13" y2="67.09"/><line class="cls-11" x1="98.13" y1="47.09" x2="98.13" y2="67.09"/><path class="cls-12" d="M103.94,50.72a1.42,1.42,0,1,1-1.42,1.42h0A1.43,1.43,0,0,1,103.94,50.72Z" transform="translate(-5.81 -5.05)"/><path class="cls-9" d="M85.15,63.75a1.42,1.42,0,1,1-1.41,1.43h0a1.41,1.41,0,0,1,1.4-1.42Z" transform="translate(-5.81 -5.05)"/><line class="cls-10" x1="79.34" y1="60.12" x2="79.34" y2="87.57"/><line class="cls-11" x1="79.34" y1="60.12" x2="79.34" y2="87.57"/><path class="cls-12" d="M85.15,63.75a1.42,1.42,0,1,1-1.41,1.43h0a1.41,1.41,0,0,1,1.4-1.42Z" transform="translate(-5.81 -5.05)"/><path class="cls-9" d="M68.86,80.14a1.42,1.42,0,1,1-1.42,1.42h0A1.44,1.44,0,0,1,68.86,80.14Z" transform="translate(-5.81 -5.05)"/><line class="cls-10" x1="63.05" y1="76.51" x2="63.05" y2="108.01"/><line class="cls-11" x1="63.05" y1="76.51" x2="63.05" y2="108.01"/><path class="cls-12" d="M68.86,80.14a1.42,1.42,0,1,1-1.42,1.42h0A1.44,1.44,0,0,1,68.86,80.14Z" transform="translate(-5.81 -5.05)"/><path class="cls-9" d="M55.39,84.29A1.42,1.42,0,1,1,54,85.74v0A1.43,1.43,0,0,1,55.39,84.29Z" transform="translate(-5.81 -5.05)"/><polyline class="cls-10" points="49.58 80.66 49.58 126.6 63.05 126.6"/><polyline class="cls-11" points="49.58 80.66 49.58 126.6 63.05 126.6"/><path class="cls-12" d="M55.39,84.29A1.42,1.42,0,1,1,54,85.74v0A1.43,1.43,0,0,1,55.39,84.29Z" transform="translate(-5.81 -5.05)"/><path class="cls-9" d="M46.51,93.42a1.42,1.42,0,1,1-1.42,1.42h0a1.41,1.41,0,0,1,1.41-1.41Z" transform="translate(-5.81 -5.05)"/><line class="cls-10" x1="40.7" y1="89.78" x2="40.7" y2="146.85"/><line class="cls-11" x1="40.7" y1="89.78" x2="40.7" y2="146.85"/><path class="cls-12" d="M46.51,93.42a1.42,1.42,0,1,1-1.42,1.42h0a1.41,1.41,0,0,1,1.41-1.41Z" transform="translate(-5.81 -5.05)"/><path class="cls-9" d="M33.86,122.15a1.42,1.42,0,1,1-1.42,1.42h0A1.42,1.42,0,0,1,33.86,122.15Z" transform="translate(-5.81 -5.05)"/><line class="cls-10" x1="28.05" y1="118.51" x2="28.05" y2="166.35"/><line class="cls-11" x1="28.05" y1="118.51" x2="28.05" y2="166.35"/><path class="cls-12" d="M33.86,122.15a1.42,1.42,0,1,1-1.42,1.42h0A1.42,1.42,0,0,1,33.86,122.15Z" transform="translate(-5.81 -5.05)"/><path class="cls-9" d="M159.41,99.43a1.42,1.42,0,1,1-1.42,1.42h0A1.43,1.43,0,0,1,159.41,99.43Z" transform="translate(-5.81 -5.05)"/><polyline class="cls-10" points="153.6 95.79 153.6 127.15 138.05 127.15"/><polyline class="cls-11" points="153.6 95.79 153.6 127.15 138.05 127.15"/><path class="cls-12" d="M159.41,99.43a1.42,1.42,0,1,1-1.42,1.42h0A1.43,1.43,0,0,1,159.41,99.43Z" transform="translate(-5.81 -5.05)"/><path class="cls-9" d="M182.93,126.5a1.42,1.42,0,1,1-1.42,1.42h0A1.42,1.42,0,0,1,182.93,126.5Z" transform="translate(-5.81 -5.05)"/><polyline class="cls-10" points="177.12 122.86 177.12 146.23 166 146.23"/><polyline class="cls-11" points="177.12 122.86 177.12 146.23 166 146.23"/><path class="cls-12" d="M182.93,126.5a1.42,1.42,0,1,1-1.42,1.42h0A1.42,1.42,0,0,1,182.93,126.5Z" transform="translate(-5.81 -5.05)"/><path class="cls-9" d="M192.28,133.69a1.42,1.42,0,1,1-1.42,1.42h0A1.42,1.42,0,0,1,192.28,133.69Z" transform="translate(-5.81 -5.05)"/><line class="cls-10" x1="186.47" y1="130.05" x2="186.47" y2="166.62"/><line class="cls-11" x1="186.47" y1="130.05" x2="186.47" y2="166.62"/><path class="cls-12" d="M192.28,133.69a1.42,1.42,0,1,1-1.42,1.42h0A1.42,1.42,0,0,1,192.28,133.69Z" transform="translate(-5.81 -5.05)"/><path class="cls-9" d="M270.12,140.22a1.42,1.42,0,1,1-1.42,1.42,1.43,1.43,0,0,1,1.42-1.42Z" transform="translate(-5.81 -5.05)"/><line class="cls-10" x1="264.31" y1="136.59" x2="264.31" y2="186.53"/><line class="cls-11" x1="264.31" y1="136.59" x2="264.31" y2="186.53"/><path class="cls-12" d="M270.12,140.22a1.42,1.42,0,1,1-1.42,1.42,1.43,1.43,0,0,1,1.42-1.42Z" transform="translate(-5.81 -5.05)"/><path class="cls-9" d="M154,100.89a1.42,1.42,0,1,1-1.42-1.42h0a1.41,1.41,0,0,1,1.42,1.4Z" transform="translate(-5.81 -5.05)"/><polyline class="cls-10" points="146.78 95.84 138.05 95.84 138.05 107.35"/><polyline class="cls-11" points="146.78 95.84 138.05 95.84 138.05 107.35"/><path class="cls-12" d="M154,100.89a1.42,1.42,0,1,1-1.42-1.42h0a1.41,1.41,0,0,1,1.42,1.4Z" transform="translate(-5.81 -5.05)"/><path class="cls-9" d="M266.15,134.26a1.42,1.42,0,1,1-1.42-1.42h0A1.42,1.42,0,0,1,266.15,134.26Z" transform="translate(-5.81 -5.05)"/><line class="cls-10" x1="258.93" y1="129.21" x2="231.33" y2="129.21"/><line class="cls-11" x1="258.93" y1="129.21" x2="231.33" y2="129.21"/><path class="cls-12" d="M266.15,134.26a1.42,1.42,0,1,1-1.42-1.42h0A1.42,1.42,0,0,1,266.15,134.26Z" transform="translate(-5.81 -5.05)"/><path class="cls-9" d="M24.6,107.83a1.42,1.42,0,1,1-1.43-1.41h0A1.42,1.42,0,0,1,24.6,107.83Z" transform="translate(-5.81 -5.05)"/><polyline class="cls-10" points="17.37 102.78 8.81 102.78 8.81 47.35"/><polyline class="cls-11" points="17.37 102.78 8.81 102.78 8.81 47.35"/><path class="cls-12" d="M24.6,107.83a1.42,1.42,0,1,1-1.43-1.41h0A1.42,1.42,0,0,1,24.6,107.83Z" transform="translate(-5.81 -5.05)"/><path class="cls-9" d="M128.77,52.37A1.42,1.42,0,1,0,130.24,51h-.06A1.41,1.41,0,0,0,128.77,52.37Z" transform="translate(-5.81 -5.05)"/><line class="cls-10" x1="124.37" y1="47.32" x2="144.99" y2="47.32"/><line class="cls-11" x1="124.37" y1="47.32" x2="144.99" y2="47.32"/><path class="cls-12" d="M128.77,52.37A1.42,1.42,0,1,0,130.24,51h-.06A1.41,1.41,0,0,0,128.77,52.37Z" transform="translate(-5.81 -5.05)"/><path class="cls-9" d="M28.27,115.16a1.42,1.42,0,1,1-1.42-1.42h0A1.42,1.42,0,0,1,28.27,115.16Z" transform="translate(-5.81 -5.05)"/><polyline class="cls-10" points="21.05 110.11 8.81 110.11 8.81 187.03"/><polyline class="cls-11" points="21.05 110.11 8.81 110.11 8.81 187.03"/><path class="cls-12" d="M28.27,115.16a1.42,1.42,0,1,1-1.42-1.42h0A1.42,1.42,0,0,1,28.27,115.16Z" transform="translate(-5.81 -5.05)"/><path class="cls-9" d="M236.48,150.68a1.42,1.42,0,1,1-1.41,1.43h0A1.42,1.42,0,0,1,236.48,150.68Z" transform="translate(-5.81 -5.05)"/><line class="cls-10" x1="230.67" y1="147.05" x2="230.67" y2="165.56"/><line class="cls-11" x1="230.67" y1="147.05" x2="230.67" y2="165.56"/><path class="cls-12" d="M236.48,150.68a1.42,1.42,0,1,1-1.41,1.43h0A1.42,1.42,0,0,1,236.48,150.68Z" transform="translate(-5.81 -5.05)"/><path class="cls-9" d="M78.28,53.88a1.42,1.42,0,1,0-1.42-1.42h0A1.43,1.43,0,0,0,78.28,53.88Z" transform="translate(-5.81 -5.05)"/><line class="cls-10" x1="72.47" y1="47.41" x2="72.47" y2="8.58"/><line class="cls-11" x1="72.47" y1="47.41" x2="72.47" y2="8.58"/><path class="cls-12" d="M78.28,53.88a1.42,1.42,0,1,0-1.42-1.42h0A1.43,1.43,0,0,0,78.28,53.88Z" transform="translate(-5.81 -5.05)"/><path class="cls-9" d="M72.79,57.45A1.42,1.42,0,1,0,71.37,56a1.43,1.43,0,0,0,1.42,1.45Z" transform="translate(-5.81 -5.05)"/><polyline class="cls-10" points="66.98 50.98 66.98 22.1 39.37 22.1 39.37 8.58 32.07 8.58"/><polyline class="cls-11" points="66.98 50.98 66.98 22.1 39.37 22.1 39.37 8.58 32.07 8.58"/><path class="cls-12" d="M72.79,57.45A1.42,1.42,0,1,0,71.37,56a1.43,1.43,0,0,0,1.42,1.45Z" transform="translate(-5.81 -5.05)"/><path class="cls-9" d="M205,126.45a1.42,1.42,0,1,0-1.42-1.42h0A1.43,1.43,0,0,0,205,126.45Z" transform="translate(-5.81 -5.05)"/><line class="cls-10" x1="199.18" y1="119.98" x2="199.18" y2="8.2"/><line class="cls-11" x1="199.18" y1="119.98" x2="199.18" y2="8.2"/><path class="cls-12" d="M205,126.45a1.42,1.42,0,1,0-1.42-1.42h0A1.43,1.43,0,0,0,205,126.45Z" transform="translate(-5.81 -5.05)"/><path class="cls-13" d="M23.4,7.7H12.24a5.94,5.94,0,0,0-.49,11.87H23.4a2.85,2.85,0,0,0,2.84-2.83V10.53A2.85,2.85,0,0,0,23.4,7.7Z" transform="translate(-5.81 -5.05)"/><path class="cls-14" d="M16.58,13.64a4.34,4.34,0,1,1-8.68,0h0A4.19,4.19,0,0,1,8.21,12a.45.45,0,0,1,.84.34h0a3.5,3.5,0,0,0-.24,1.28,3.43,3.43,0,1,0,5-3,.44.44,0,0,1-.2-.59v0a.45.45,0,0,1,.61-.19h0A4.32,4.32,0,0,1,16.58,13.64Zm-4.34-3a.67.67,0,1,0-.67-.67.67.67,0,0,0,.67.67Zm0,3.68a.67.67,0,0,0,.67-.67h0a.66.66,0,0,0-.31-.56L9,10.42,11.68,14a.66.66,0,0,0,.56.31Z" transform="translate(-5.81 -5.05)"/><path class="cls-14" d="M62.46,7.7h26.9a2.83,2.83,0,0,1,2.83,2.83h0v6.2a2.84,2.84,0,0,1-2.84,2.84H62.46a2.83,2.83,0,0,1-2.83-2.83h0V10.53A2.83,2.83,0,0,1,62.46,7.7Z" transform="translate(-5.81 -5.05)"/><polygon class="cls-12" points="68.66 6.28 67.21 6.28 67.36 5.6 68.81 5.6 68.66 6.28"/><polygon class="cls-12" points="68.29 8.06 65.89 8.06 66.04 7.37 68.44 7.37 68.29 8.06"/><polygon class="cls-12" points="67.91 9.84 64.57 9.84 64.71 9.15 68.06 9.15 67.91 9.84"/><polygon class="cls-12" points="67.54 11.61 63.25 11.61 63.39 10.93 67.69 10.93 67.54 11.61"/><path class="cls-15" d="M57.89,7.61a6.34,6.34,0,0,0-.83.3.2.2,0,0,1-.21,0l-1.4-1a.63.63,0,0,0-.74,0l-.9.75a.64.64,0,0,0-.15.73l.77,1.54a.28.28,0,0,1,0,.22,6.06,6.06,0,0,0-.45.78.22.22,0,0,1-.18.12l-1.73.11a.61.61,0,0,0-.55.49l-.21,1.16a.65.65,0,0,0,.35.65l1.58.69a.28.28,0,0,1,.14.18,6.64,6.64,0,0,0,.16.87.29.29,0,0,1-.06.22l-1.26,1.19a.62.62,0,0,0-.11.73l.59,1a.63.63,0,0,0,.69.28l1.61-.5a.27.27,0,0,1,.23.05c.21.2.44.39.67.57a.2.2,0,0,1,.09.2l-.19,1.72a.63.63,0,0,0,.39.63l1.1.4a.63.63,0,0,0,.71-.23L59,20a.32.32,0,0,1,.22-.1h.87a.28.28,0,0,1,.21.1l1,1.45a.62.62,0,0,0,.7.23l1.11-.4a.63.63,0,0,0,.39-.63L63.23,19a.24.24,0,0,1,.09-.22,6,6,0,0,0,.67-.56.26.26,0,0,1,.21-.06l1.67.5a.63.63,0,0,0,.69-.28l.59-1a.62.62,0,0,0-.11-.73L65.79,15.4a.28.28,0,0,1-.07-.23,5.24,5.24,0,0,0,.16-.88.3.3,0,0,1,.12-.17l1.59-.69a.64.64,0,0,0,.36-.65l-.21-1.16a.64.64,0,0,0-.55-.5L65.47,11a.28.28,0,0,1-.2-.13,7.3,7.3,0,0,0-.44-.77.26.26,0,0,1,0-.21l.78-1.55a.64.64,0,0,0-.15-.73l-.9-.75a.63.63,0,0,0-.74,0l-1.39,1a.24.24,0,0,1-.23,0,6.34,6.34,0,0,0-.83-.3.26.26,0,0,1-.15-.16l-.41-1.69a.63.63,0,0,0-.58-.46H59a.63.63,0,0,0-.58.46L58,7.39A.25.25,0,0,1,57.89,7.61Z" transform="translate(-5.81 -5.05)"/><path class="cls-16" d="M59.62,8.57a5.07,5.07,0,1,0,5.07,5.07,5.07,5.07,0,0,0-5.07-5.07Z" transform="translate(-5.81 -5.05)"/><rect class="cls-14" x="108.01" y="2.65" width="32.57" height="11.87" rx="2.83"/><polygon class="cls-12" points="122.86 6.28 121.41 6.28 121.56 5.6 123.01 5.6 122.86 6.28"/><polygon class="cls-12" points="122.49 8.06 120.09 8.06 120.24 7.37 122.64 7.37 122.49 8.06"/><polygon class="cls-12" points="122.11 9.84 118.77 9.84 118.91 9.15 122.26 9.15 122.11 9.84"/><polygon class="cls-12" points="121.74 11.61 117.44 11.61 117.59 10.93 121.88 10.93 121.74 11.61"/><path class="cls-15" d="M112.09,7.61a6.34,6.34,0,0,0-.83.3.2.2,0,0,1-.21,0l-1.4-1a.63.63,0,0,0-.74,0l-.9.75a.64.64,0,0,0-.15.73l.77,1.54a.28.28,0,0,1,0,.22,7.44,7.44,0,0,0-.44.78A.23.23,0,0,1,108,11l-1.73.11a.61.61,0,0,0-.55.49l-.21,1.16a.65.65,0,0,0,.35.65l1.58.69a.28.28,0,0,1,.14.18,5.13,5.13,0,0,0,.16.87.29.29,0,0,1-.06.22l-1.26,1.19a.62.62,0,0,0-.11.73l.59,1a.63.63,0,0,0,.69.28l1.65-.49a.27.27,0,0,1,.23.05c.21.2.44.39.67.57a.2.2,0,0,1,.09.2L110,20.66a.63.63,0,0,0,.38.63l1.11.4a.63.63,0,0,0,.71-.23l.94-1.44a.32.32,0,0,1,.22-.1h.87a.26.26,0,0,1,.2.1l1,1.45a.62.62,0,0,0,.7.23l1.11-.4a.63.63,0,0,0,.39-.63l-.2-1.71a.27.27,0,0,1,.1-.22,7.1,7.1,0,0,0,.67-.56.26.26,0,0,1,.21-.06l1.67.5a.62.62,0,0,0,.68-.28l.6-1a.62.62,0,0,0-.11-.73L120,15.4a.28.28,0,0,1-.07-.23,6.49,6.49,0,0,0,.16-.88.26.26,0,0,1,.12-.17l1.59-.69a.64.64,0,0,0,.36-.65L122,11.62a.64.64,0,0,0-.55-.5l-1.72-.1a.28.28,0,0,1-.2-.13,7.3,7.3,0,0,0-.44-.77.26.26,0,0,1,0-.21l.78-1.55a.65.65,0,0,0-.15-.73l-.91-.75a.63.63,0,0,0-.74,0l-1.38,1a.24.24,0,0,1-.23,0,6.34,6.34,0,0,0-.83-.3.26.26,0,0,1-.15-.16L115,5.76a.63.63,0,0,0-.58-.46h-1.18a.63.63,0,0,0-.58.46l-.4,1.68A.24.24,0,0,1,112.09,7.61Z" transform="translate(-5.81 -5.05)"/><path class="cls-16" d="M113.82,8.57a5.07,5.07,0,1,0,5.07,5.07h0A5.07,5.07,0,0,0,113.82,8.57Z" transform="translate(-5.81 -5.05)"/><rect class="cls-14" x="199" y="2.65" width="32.57" height="11.87" rx="2.83"/><polygon class="cls-12" points="213.85 6.28 212.39 6.28 212.54 5.6 213.99 5.6 213.85 6.28"/><polygon class="cls-12" points="213.47 8.06 211.07 8.06 211.22 7.37 213.62 7.37 213.47 8.06"/><polygon class="cls-12" points="213.1 9.84 209.75 9.84 209.9 9.15 213.24 9.15 213.1 9.84"/><polygon class="cls-12" points="212.72 11.61 208.43 11.61 208.57 10.93 212.87 10.93 212.72 11.61"/><path class="cls-15" d="M203.07,7.61a6.34,6.34,0,0,0-.83.3.2.2,0,0,1-.21,0l-1.4-1a.63.63,0,0,0-.74,0l-.9.75a.64.64,0,0,0-.15.73l.77,1.54a.28.28,0,0,1,0,.22,6.06,6.06,0,0,0-.45.78A.24.24,0,0,1,199,11l-1.73.11a.61.61,0,0,0-.55.49l-.21,1.16a.64.64,0,0,0,.36.65l1.58.69a.24.24,0,0,1,.13.18,6.64,6.64,0,0,0,.16.87.29.29,0,0,1-.06.22l-1.26,1.19a.62.62,0,0,0-.11.73l.59,1a.63.63,0,0,0,.69.28l1.65-.49a.27.27,0,0,1,.23.05c.21.2.44.39.67.57a.2.2,0,0,1,.1.2l-.2,1.72a.63.63,0,0,0,.39.63l1.1.4a.63.63,0,0,0,.71-.23l.94-1.44a.32.32,0,0,1,.22-.1h.88a.26.26,0,0,1,.2.1l1,1.45a.63.63,0,0,0,.71.23l1.11-.4a.63.63,0,0,0,.38-.63L208.41,19a.26.26,0,0,1,.09-.22,6,6,0,0,0,.67-.56.29.29,0,0,1,.22-.06l1.66.5a.63.63,0,0,0,.69-.28l.59-1a.62.62,0,0,0-.11-.73L211,15.4a.28.28,0,0,1-.07-.23,5.24,5.24,0,0,0,.16-.88.3.3,0,0,1,.12-.17l1.59-.69a.64.64,0,0,0,.36-.65L213,11.62a.64.64,0,0,0-.55-.5l-1.72-.1a.28.28,0,0,1-.2-.13,4.51,4.51,0,0,0-.44-.77.37.37,0,0,1,0-.21l.78-1.55a.64.64,0,0,0-.15-.73l-.9-.75a.63.63,0,0,0-.74,0l-1.38,1a.25.25,0,0,1-.24,0,6.34,6.34,0,0,0-.83-.3.26.26,0,0,1-.15-.16L206,5.76a.64.64,0,0,0-.58-.46h-1.19a.63.63,0,0,0-.58.46l-.4,1.68A.26.26,0,0,1,203.07,7.61Z" transform="translate(-5.81 -5.05)"/><path class="cls-16" d="M204.81,8.57a5.07,5.07,0,1,0,5.06,5.08h0A5.07,5.07,0,0,0,204.81,8.57Z" transform="translate(-5.81 -5.05)"/><path class="cls-14" d="M273,7.7h26.9a2.83,2.83,0,0,1,2.83,2.83v6.21a2.83,2.83,0,0,1-2.83,2.83H273a2.83,2.83,0,0,1-2.83-2.83V10.53A2.85,2.85,0,0,1,273,7.7Z" transform="translate(-5.81 -5.05)"/><polygon class="cls-12" points="279.15 6.28 277.7 6.28 277.85 5.6 279.3 5.6 279.15 6.28"/><polygon class="cls-12" points="278.78 8.06 276.38 8.06 276.52 7.37 278.93 7.37 278.78 8.06"/><polygon class="cls-12" points="278.4 9.84 275.06 9.84 275.2 9.15 278.55 9.15 278.4 9.84"/><polygon class="cls-12" points="278.03 11.61 273.73 11.61 273.88 10.93 278.17 10.93 278.03 11.61"/><path class="cls-15" d="M268.38,7.61a6.34,6.34,0,0,0-.83.3.28.28,0,0,1-.22,0l-1.39-1a.63.63,0,0,0-.74,0l-.9.75a.64.64,0,0,0-.15.73l.76,1.54a.22.22,0,0,1,0,.22,7.44,7.44,0,0,0-.44.78.22.22,0,0,1-.18.12l-1.73.11a.61.61,0,0,0-.55.49l-.21,1.16a.62.62,0,0,0,.35.65l1.58.69a.28.28,0,0,1,.14.18,6.6,6.6,0,0,0,.15.87.25.25,0,0,1,0,.22l-1.26,1.19a.62.62,0,0,0-.11.73l.59,1a.63.63,0,0,0,.69.28l1.65-.49a.28.28,0,0,1,.23.05c.21.2.44.39.67.57a.25.25,0,0,1,.09.2l-.2,1.72a.63.63,0,0,0,.39.63l1.11.4a.63.63,0,0,0,.71-.23l.94-1.44a.28.28,0,0,1,.21-.1h.88a.26.26,0,0,1,.2.1l1,1.45a.62.62,0,0,0,.7.23l1.11-.4a.62.62,0,0,0,.39-.63l-.2-1.71a.27.27,0,0,1,.1-.22,7.1,7.1,0,0,0,.67-.56.26.26,0,0,1,.21-.06l1.67.5a.62.62,0,0,0,.68-.28l.6-1a.64.64,0,0,0-.11-.73l-1.25-1.18a.28.28,0,0,1-.07-.23,6.49,6.49,0,0,0,.16-.88.26.26,0,0,1,.12-.17l1.59-.69a.61.61,0,0,0,.35-.65l-.2-1.16a.64.64,0,0,0-.56-.5L276,11a.28.28,0,0,1-.2-.13,5.35,5.35,0,0,0-.45-.77.26.26,0,0,1,0-.21l.78-1.55a.65.65,0,0,0-.15-.73l-1-.73a.63.63,0,0,0-.74,0l-1.38,1a.24.24,0,0,1-.23,0,6.34,6.34,0,0,0-.83-.3.26.26,0,0,1-.15-.16l-.41-1.69a.63.63,0,0,0-.58-.46H269.5a.63.63,0,0,0-.58.46l-.4,1.68A.25.25,0,0,1,268.38,7.61Z" transform="translate(-5.81 -5.05)"/><path class="cls-16" d="M270.11,8.57a5.07,5.07,0,1,0,5.07,5.07,5.07,5.07,0,0,0-5.07-5.07Z" transform="translate(-5.81 -5.05)"/><path class="cls-14" d="M17.46,185.88h26.9a2.83,2.83,0,0,1,2.83,2.83h0v6.2a2.84,2.84,0,0,1-2.84,2.84H17.46a2.83,2.83,0,0,1-2.83-2.83h0v-6.2a2.83,2.83,0,0,1,2.82-2.84Z" transform="translate(-5.81 -5.05)"/><polygon class="cls-12" points="23.67 184.46 22.21 184.46 22.36 183.78 23.81 183.78 23.67 184.46"/><polygon class="cls-12" points="23.29 186.24 20.89 186.24 21.04 185.55 23.44 185.55 23.29 186.24"/><polygon class="cls-12" points="22.92 188.02 19.57 188.02 19.71 187.33 23.06 187.33 22.92 188.02"/><polygon class="cls-12" points="22.54 189.8 18.25 189.8 18.39 189.11 22.69 189.11 22.54 189.8"/><path class="cls-15" d="M12.89,185.79a6.34,6.34,0,0,0-.83.3.2.2,0,0,1-.21,0l-1.4-1a.63.63,0,0,0-.74,0l-.9.76a.6.6,0,0,0-.15.72l.77,1.54a.28.28,0,0,1,0,.22,6.06,6.06,0,0,0-.45.78.22.22,0,0,1-.18.12l-1.73.11a.61.61,0,0,0-.55.49L6.3,191a.65.65,0,0,0,.35.65l1.58.69a.24.24,0,0,1,.14.18,6.64,6.64,0,0,0,.16.87.29.29,0,0,1-.06.22L7.21,194.8a.62.62,0,0,0-.11.73l.59,1a.63.63,0,0,0,.69.28L10,196.3a.31.31,0,0,1,.23,0,7.1,7.1,0,0,0,.67.56.25.25,0,0,1,.1.21l-.2,1.72a.63.63,0,0,0,.39.63l1.1.4a.63.63,0,0,0,.71-.23l1-1.39a.32.32,0,0,1,.22-.1h.88a.26.26,0,0,1,.2.1l.95,1.45a.63.63,0,0,0,.71.23l1.1-.4a.63.63,0,0,0,.39-.63l-.19-1.71a.26.26,0,0,1,.09-.22,6,6,0,0,0,.67-.56.26.26,0,0,1,.21-.06l1.67.5a.63.63,0,0,0,.69-.28l.59-1a.62.62,0,0,0-.11-.73l-1.25-1.18a.28.28,0,0,1-.07-.23,5.24,5.24,0,0,0,.16-.88.3.3,0,0,1,.12-.17l1.59-.69A.63.63,0,0,0,23,191l-.21-1.16a.61.61,0,0,0-.55-.49l-1.72-.11a.28.28,0,0,1-.2-.13,7.3,7.3,0,0,0-.44-.77.26.26,0,0,1,0-.21l.78-1.55a.6.6,0,0,0-.15-.72l-.9-.76a.63.63,0,0,0-.74,0l-1.38,1a.26.26,0,0,1-.24,0,6.34,6.34,0,0,0-.83-.3.26.26,0,0,1-.15-.16L15.86,184a.63.63,0,0,0-.58-.46H14a.63.63,0,0,0-.58.46l-.4,1.68A.26.26,0,0,1,12.89,185.79Z" transform="translate(-5.81 -5.05)"/><path class="cls-16" d="M14.62,186.75a5.07,5.07,0,1,0,5.07,5.07,5.07,5.07,0,0,0-5.07-5.07Z" transform="translate(-5.81 -5.05)"/><path class="cls-14" d="M273,185.88h26.9a2.83,2.83,0,0,1,2.83,2.83v6.2a2.83,2.83,0,0,1-2.83,2.83H273a2.83,2.83,0,0,1-2.83-2.83v-6.2A2.85,2.85,0,0,1,273,185.88Z" transform="translate(-5.81 -5.05)"/><polygon class="cls-12" points="279.15 184.46 277.7 184.46 277.85 183.78 279.3 183.78 279.15 184.46"/><polygon class="cls-12" points="278.78 186.24 276.38 186.24 276.52 185.55 278.93 185.55 278.78 186.24"/><polygon class="cls-12" points="278.4 188.02 275.06 188.02 275.2 187.33 278.55 187.33 278.4 188.02"/><polygon class="cls-12" points="278.03 189.8 273.73 189.8 273.88 189.11 278.17 189.11 278.03 189.8"/><path class="cls-15" d="M268.38,185.79a6.34,6.34,0,0,0-.83.3.28.28,0,0,1-.22,0l-1.39-1a.63.63,0,0,0-.74,0l-.9.76a.6.6,0,0,0-.15.72l.76,1.54a.22.22,0,0,1,0,.22,7.44,7.44,0,0,0-.44.78.22.22,0,0,1-.18.12l-1.73.11a.61.61,0,0,0-.55.49L261.8,191a.62.62,0,0,0,.35.65l1.58.69a.28.28,0,0,1,.14.18,6.6,6.6,0,0,0,.15.87.25.25,0,0,1,0,.22l-1.26,1.19a.62.62,0,0,0-.11.73l.59,1a.63.63,0,0,0,.69.28l1.65-.49a.31.31,0,0,1,.23,0,6,6,0,0,0,.67.56.27.27,0,0,1,.09.21l-.2,1.72a.63.63,0,0,0,.39.63l1.11.4a.63.63,0,0,0,.71-.23l.94-1.44a.28.28,0,0,1,.21-.1h.88a.26.26,0,0,1,.2.1l1,1.45a.62.62,0,0,0,.7.23l1.11-.4a.62.62,0,0,0,.39-.63l-.2-1.71a.26.26,0,0,1,.1-.22,7.1,7.1,0,0,0,.67-.56.26.26,0,0,1,.21-.06l1.67.5a.62.62,0,0,0,.68-.28l.6-1a.64.64,0,0,0-.11-.73l-1.25-1.18a.28.28,0,0,1-.07-.23,6.49,6.49,0,0,0,.16-.88.26.26,0,0,1,.12-.17l1.59-.69a.61.61,0,0,0,.35-.65l-.2-1.16a.63.63,0,0,0-.56-.49l-1.72-.1a.28.28,0,0,1-.2-.13,5.35,5.35,0,0,0-.45-.77.26.26,0,0,1,0-.21l.78-1.55a.63.63,0,0,0-.15-.72l-.91-.76a.63.63,0,0,0-.74,0l-1.38,1a.24.24,0,0,1-.23,0,6.34,6.34,0,0,0-.83-.3.26.26,0,0,1-.15-.16l-.41-1.69a.63.63,0,0,0-.58-.46h-1.18a.63.63,0,0,0-.58.46l-.4,1.68A.26.26,0,0,1,268.38,185.79Z" transform="translate(-5.81 -5.05)"/><path class="cls-16" d="M270.11,186.75a5.07,5.07,0,1,0,5.07,5.07,5.07,5.07,0,0,0-5.07-5.07Z" transform="translate(-5.81 -5.05)"/><rect class="cls-14" x="130.76" y="22.15" width="32.57" height="11.87" rx="2.83"/><polygon class="cls-12" points="145.62 25.78 144.16 25.78 144.31 25.1 145.76 25.1 145.62 25.78"/><polygon class="cls-12" points="145.24 27.56 142.84 27.56 142.99 26.87 145.39 26.87 145.24 27.56"/><polygon class="cls-12" points="144.87 29.34 141.52 29.34 141.66 28.65 145.01 28.65 144.87 29.34"/><polygon class="cls-12" points="144.49 31.11 140.19 31.11 140.34 30.43 144.63 30.43 144.49 31.11"/><path class="cls-15" d="M134.84,27.11a6.34,6.34,0,0,0-.83.3.2.2,0,0,1-.21,0l-1.4-1a.63.63,0,0,0-.74,0l-.9.75a.64.64,0,0,0-.15.73l.77,1.54a.28.28,0,0,1,0,.22,6.06,6.06,0,0,0-.45.78.22.22,0,0,1-.18.12l-1.73.11a.61.61,0,0,0-.55.49l-.21,1.16a.65.65,0,0,0,.35.65l1.58.69a.28.28,0,0,1,.14.18,6.64,6.64,0,0,0,.16.87.29.29,0,0,1-.06.22l-1.26,1.19a.62.62,0,0,0-.11.73l.59,1a.63.63,0,0,0,.69.28l1.65-.49a.27.27,0,0,1,.23,0c.21.2.44.39.67.57a.26.26,0,0,1,.1.2l-.2,1.72a.63.63,0,0,0,.39.63l1.1.4A.62.62,0,0,0,135,41l.94-1.44a.32.32,0,0,1,.22-.1H137a.26.26,0,0,1,.2.1l.95,1.45a.62.62,0,0,0,.7.23l1.11-.4a.63.63,0,0,0,.39-.63l-.19-1.71a.24.24,0,0,1,.09-.22,6,6,0,0,0,.67-.56.26.26,0,0,1,.21-.06l1.67.5a.63.63,0,0,0,.69-.28l.59-1a.62.62,0,0,0-.11-.73L142.76,35a.28.28,0,0,1-.07-.23,6.49,6.49,0,0,0,.16-.88.3.3,0,0,1,.12-.17l1.59-.69a.64.64,0,0,0,.36-.65l-.21-1.16a.64.64,0,0,0-.55-.5l-1.72-.1a.28.28,0,0,1-.2-.13,7.3,7.3,0,0,0-.44-.77.26.26,0,0,1,0-.21l.78-1.55a.64.64,0,0,0-.15-.73l-.9-.75a.63.63,0,0,0-.74,0l-1.39,1a.24.24,0,0,1-.23,0,6.34,6.34,0,0,0-.83-.3.26.26,0,0,1-.15-.16l-.41-1.69a.63.63,0,0,0-.58-.46H136a.63.63,0,0,0-.58.46L135,27A.24.24,0,0,1,134.84,27.11Z" transform="translate(-5.81 -5.05)"/><path class="cls-16" d="M136.57,28.07a5.07,5.07,0,1,0,5.07,5.07,5.07,5.07,0,0,0-5.07-5.07Z" transform="translate(-5.81 -5.05)"/><rect class="cls-14" x="217.07" y="22.15" width="32.57" height="11.87" rx="2.83"/><polygon class="cls-12" points="231.92 25.78 230.47 25.78 230.61 25.1 232.07 25.1 231.92 25.78"/><polygon class="cls-12" points="231.55 27.56 229.15 27.56 229.29 26.87 231.69 26.87 231.55 27.56"/><polygon class="cls-12" points="231.17 29.34 227.82 29.34 227.97 28.65 231.32 28.65 231.17 29.34"/><polygon class="cls-12" points="230.8 31.11 226.5 31.11 226.65 30.43 230.94 30.43 230.8 31.11"/><path class="cls-15" d="M221.15,27.11a6,6,0,0,0-.84.3.26.26,0,0,1-.21,0l-1.39-1a.63.63,0,0,0-.74,0l-.91.75a.65.65,0,0,0-.15.73l.77,1.54a.22.22,0,0,1,0,.22,6,6,0,0,0-.44.78.23.23,0,0,1-.18.12l-1.73.11a.63.63,0,0,0-.56.49l-.2,1.16a.61.61,0,0,0,.35.65l1.58.69a.28.28,0,0,1,.14.18,5.28,5.28,0,0,0,.15.87.25.25,0,0,1,0,.22l-1.26,1.19a.62.62,0,0,0-.11.73l.59,1a.63.63,0,0,0,.69.28l1.65-.49a.25.25,0,0,1,.22,0c.22.2.44.39.68.57a.25.25,0,0,1,.09.2l-.2,1.72a.63.63,0,0,0,.39.63l1.11.4a.62.62,0,0,0,.7-.23l1-1.44a.28.28,0,0,1,.21-.1h.88a.26.26,0,0,1,.2.1l1,1.45a.62.62,0,0,0,.7.23l1.11-.4a.63.63,0,0,0,.39-.63l-.2-1.71a.31.31,0,0,1,.09-.22,6.13,6.13,0,0,0,.68-.56.26.26,0,0,1,.21-.06l1.66.5a.63.63,0,0,0,.69-.28l.59-1a.65.65,0,0,0-.1-.73l-1.25-1.18a.25.25,0,0,1-.07-.23,8.52,8.52,0,0,0,.16-.88.24.24,0,0,1,.12-.17L230.9,33a.62.62,0,0,0,.35-.65l-.2-1.16a.65.65,0,0,0-.56-.5l-1.71-.1a.28.28,0,0,1-.2-.13,5.35,5.35,0,0,0-.45-.77.26.26,0,0,1,0-.21l.78-1.55a.65.65,0,0,0-.15-.73l-.91-.75a.63.63,0,0,0-.74,0l-1.38,1a.24.24,0,0,1-.23,0,6,6,0,0,0-.84-.3.29.29,0,0,1-.15-.16l-.4-1.69a.63.63,0,0,0-.58-.46h-1.18a.63.63,0,0,0-.58.46l-.4,1.68A.27.27,0,0,1,221.15,27.11Z" transform="translate(-5.81 -5.05)"/><path class="cls-16" d="M222.88,28.07a5.1,5.1,0,1,0,.05,0Z" transform="translate(-5.81 -5.05)"/><rect class="cls-14" x="214.32" y="122.9" width="32.57" height="11.87" rx="2.83"/><polygon class="cls-12" points="229.17 126.53 227.72 126.53 227.86 125.85 229.32 125.85 229.17 126.53"/><polygon class="cls-12" points="228.8 128.31 226.4 128.31 226.54 127.62 228.94 127.62 228.8 128.31"/><polygon class="cls-12" points="228.42 130.09 225.07 130.09 225.22 129.4 228.57 129.4 228.42 130.09"/><polygon class="cls-12" points="228.05 131.86 223.75 131.86 223.9 131.18 228.19 131.18 228.05 131.86"/><path class="cls-15" d="M218.4,127.86a6,6,0,0,0-.84.3.26.26,0,0,1-.21,0l-1.39-1a.63.63,0,0,0-.74,0l-.91.75a.65.65,0,0,0-.15.73l.77,1.54a.22.22,0,0,1,0,.22,6,6,0,0,0-.44.78.23.23,0,0,1-.18.12l-1.73.11a.63.63,0,0,0-.56.49l-.2,1.16a.61.61,0,0,0,.35.65l1.58.69a.28.28,0,0,1,.14.18,5.28,5.28,0,0,0,.15.87.25.25,0,0,1,0,.22l-1.26,1.19a.62.62,0,0,0-.11.73l.59,1a.63.63,0,0,0,.69.28l1.65-.49a.28.28,0,0,1,.22,0c.22.2.44.39.68.57a.25.25,0,0,1,.09.2l-.2,1.72a.63.63,0,0,0,.39.63l1.11.4a.62.62,0,0,0,.7-.23l1-1.44a.28.28,0,0,1,.21-.1h.88a.26.26,0,0,1,.2.1l1,1.45a.62.62,0,0,0,.7.23l1.11-.4a.63.63,0,0,0,.39-.63l-.2-1.71a.31.31,0,0,1,.09-.22,6.13,6.13,0,0,0,.68-.56.26.26,0,0,1,.21-.06l1.66.5a.63.63,0,0,0,.69-.28l.59-1a.65.65,0,0,0-.1-.73l-1.25-1.18a.25.25,0,0,1-.07-.23,8.52,8.52,0,0,0,.16-.88.24.24,0,0,1,.12-.17l1.59-.69a.62.62,0,0,0,.35-.65l-.2-1.16a.65.65,0,0,0-.56-.5l-1.71-.1a.28.28,0,0,1-.2-.13,5.35,5.35,0,0,0-.45-.77.26.26,0,0,1,0-.21l.78-1.55a.65.65,0,0,0-.15-.73l-.91-.75a.63.63,0,0,0-.74,0l-1.38,1a.24.24,0,0,1-.23,0,6,6,0,0,0-.84-.3.29.29,0,0,1-.15-.16l-.4-1.69a.63.63,0,0,0-.58-.46H219.6a.63.63,0,0,0-.58.46l-.4,1.68A.27.27,0,0,1,218.4,127.86Z" transform="translate(-5.81 -5.05)"/><path class="cls-16" d="M220.13,128.82a5.07,5.07,0,1,0,5.07,5.07,5.07,5.07,0,0,0-5.07-5.07Z" transform="translate(-5.81 -5.05)"/><path class="cls-14" d="M17.46,46.7h26.9a2.83,2.83,0,0,1,2.83,2.83v6.21a2.84,2.84,0,0,1-2.84,2.84H17.46a2.83,2.83,0,0,1-2.83-2.83V49.53A2.83,2.83,0,0,1,17.46,46.7Z" transform="translate(-5.81 -5.05)"/><polygon class="cls-12" points="23.67 45.28 22.21 45.28 22.36 44.6 23.81 44.6 23.67 45.28"/><polygon class="cls-12" points="23.29 47.06 20.89 47.06 21.04 46.37 23.44 46.37 23.29 47.06"/><polygon class="cls-12" points="22.92 48.84 19.57 48.84 19.71 48.15 23.06 48.15 22.92 48.84"/><polygon class="cls-12" points="22.54 50.61 18.25 50.61 18.39 49.93 22.69 49.93 22.54 50.61"/><path class="cls-15" d="M12.89,46.61a6.34,6.34,0,0,0-.83.3.2.2,0,0,1-.21,0l-1.4-1a.63.63,0,0,0-.74,0l-.9.75a.64.64,0,0,0-.15.73l.77,1.54a.28.28,0,0,1,0,.22A6.93,6.93,0,0,0,9,49.9a.22.22,0,0,1-.18.12l-1.73.11a.61.61,0,0,0-.55.49L6.3,51.78a.65.65,0,0,0,.35.65l1.58.69a.24.24,0,0,1,.14.18,6.64,6.64,0,0,0,.16.87.29.29,0,0,1-.06.22L7.21,55.58a.62.62,0,0,0-.11.73l.59,1a.63.63,0,0,0,.69.28L10,57.12a.27.27,0,0,1,.23.05c.21.2.44.39.67.57a.2.2,0,0,1,.1.2l-.2,1.72a.63.63,0,0,0,.39.63l1.1.4a.63.63,0,0,0,.71-.23L14,59a.32.32,0,0,1,.22-.1h.88a.26.26,0,0,1,.2.1l.95,1.45a.63.63,0,0,0,.71.23l1.1-.4a.63.63,0,0,0,.39-.63L18.23,58a.26.26,0,0,1,.09-.22,6,6,0,0,0,.67-.56.26.26,0,0,1,.21-.06l1.67.5a.63.63,0,0,0,.69-.28l.59-1a.62.62,0,0,0-.11-.73L20.79,54.4a.28.28,0,0,1-.07-.23,5.24,5.24,0,0,0,.16-.88.3.3,0,0,1,.12-.17l1.59-.69a.64.64,0,0,0,.36-.65l-.21-1.16a.64.64,0,0,0-.55-.5L20.47,50a.28.28,0,0,1-.2-.13,7.3,7.3,0,0,0-.44-.77.26.26,0,0,1,0-.21l.78-1.55a.64.64,0,0,0-.15-.73l-.9-.75a.63.63,0,0,0-.74,0l-1.38,1a.26.26,0,0,1-.24,0,6.34,6.34,0,0,0-.83-.3.26.26,0,0,1-.15-.16l-.41-1.69a.63.63,0,0,0-.58-.46H14a.63.63,0,0,0-.58.46L13,46.39A.25.25,0,0,1,12.89,46.61Z" transform="translate(-5.81 -5.05)"/><path class="cls-16" d="M14.62,47.57a5.07,5.07,0,1,0,5.07,5.07h0A5.07,5.07,0,0,0,14.62,47.57Z" transform="translate(-5.81 -5.05)"/><path class="cls-14" d="M153.71,46.7h26.9a2.83,2.83,0,0,1,2.83,2.83v6.21a2.84,2.84,0,0,1-2.84,2.84H153.7a2.83,2.83,0,0,1-2.83-2.83V49.53a2.83,2.83,0,0,1,2.83-2.83Z" transform="translate(-5.81 -5.05)"/><polygon class="cls-12" points="159.92 45.28 158.46 45.28 158.61 44.6 160.06 44.6 159.92 45.28"/><polygon class="cls-12" points="159.54 47.06 157.14 47.06 157.29 46.37 159.69 46.37 159.54 47.06"/><polygon class="cls-12" points="159.17 48.84 155.82 48.84 155.97 48.15 159.31 48.15 159.17 48.84"/><polygon class="cls-12" points="158.79 50.61 154.5 50.61 154.64 49.93 158.94 49.93 158.79 50.61"/><path class="cls-15" d="M149.14,46.61a6.34,6.34,0,0,0-.83.3.2.2,0,0,1-.21,0l-1.4-1a.63.63,0,0,0-.74,0l-.9.75a.64.64,0,0,0-.15.73l.77,1.54a.28.28,0,0,1,0,.22,6.06,6.06,0,0,0-.45.78A.23.23,0,0,1,145,50l-1.73.11a.61.61,0,0,0-.55.49l-.21,1.16a.65.65,0,0,0,.35.65l1.58.69a.24.24,0,0,1,.14.18,6.64,6.64,0,0,0,.16.87.29.29,0,0,1-.06.22l-1.26,1.19a.62.62,0,0,0-.11.73l.59,1a.63.63,0,0,0,.69.28l1.65-.49a.27.27,0,0,1,.23.05c.21.2.44.39.67.57a.2.2,0,0,1,.1.2l-.2,1.72a.63.63,0,0,0,.39.63l1.1.4a.63.63,0,0,0,.71-.23l.94-1.44a.32.32,0,0,1,.22-.1h.88a.26.26,0,0,1,.2.1l1,1.45a.63.63,0,0,0,.71.23l1.1-.4a.62.62,0,0,0,.39-.63L154.48,58a.26.26,0,0,1,.09-.22,6,6,0,0,0,.67-.56.26.26,0,0,1,.21-.06l1.67.5a.63.63,0,0,0,.69-.28l.59-1a.62.62,0,0,0-.11-.73L157,54.4a.28.28,0,0,1-.07-.23,5.24,5.24,0,0,0,.16-.88.3.3,0,0,1,.12-.17l1.59-.69a.64.64,0,0,0,.36-.65L159,50.62a.64.64,0,0,0-.55-.5l-1.72-.1a.28.28,0,0,1-.2-.13,7.3,7.3,0,0,0-.44-.77.26.26,0,0,1,0-.21l.78-1.55a.64.64,0,0,0-.15-.73l-.9-.75a.63.63,0,0,0-.74,0l-1.38,1a.26.26,0,0,1-.24,0,6.34,6.34,0,0,0-.83-.3.26.26,0,0,1-.15-.16L152,44.76a.63.63,0,0,0-.58-.46h-1.18a.63.63,0,0,0-.58.46l-.4,1.68A.26.26,0,0,1,149.14,46.61Z" transform="translate(-5.81 -5.05)"/><path class="cls-16" d="M150.87,47.57a5.07,5.07,0,1,0,5.07,5.07,5.07,5.07,0,0,0-5.07-5.07Z" transform="translate(-5.81 -5.05)"/><rect class="cls-14" x="161.12" y="61.15" width="32.57" height="11.87" rx="2.83"/><polygon class="cls-12" points="175.97 64.78 174.51 64.78 174.66 64.1 176.11 64.1 175.97 64.78"/><polygon class="cls-12" points="175.59 66.56 173.19 66.56 173.34 65.87 175.74 65.87 175.59 66.56"/><polygon class="cls-12" points="175.22 68.34 171.87 68.34 172.02 67.65 175.36 67.65 175.22 68.34"/><polygon class="cls-12" points="174.84 70.12 170.55 70.12 170.69 69.43 174.99 69.43 174.84 70.12"/><path class="cls-15" d="M165.19,66.11a6.34,6.34,0,0,0-.83.3.2.2,0,0,1-.21,0l-1.4-1a.63.63,0,0,0-.74,0l-.9.75a.64.64,0,0,0-.15.73l.77,1.54a.28.28,0,0,1,0,.22,6.06,6.06,0,0,0-.45.78.22.22,0,0,1-.18.12l-1.73.11a.61.61,0,0,0-.55.49l-.21,1.16A.64.64,0,0,0,159,72l1.58.69a.24.24,0,0,1,.13.18,6.64,6.64,0,0,0,.16.87.29.29,0,0,1-.06.22l-1.26,1.19a.62.62,0,0,0-.11.73l.59,1a.63.63,0,0,0,.69.28l1.65-.49a.31.31,0,0,1,.23,0c.21.2.44.39.67.57a.2.2,0,0,1,.1.2l-.2,1.72a.63.63,0,0,0,.39.63l1.1.4a.63.63,0,0,0,.71-.23l.94-1.44a.32.32,0,0,1,.22-.1h.88a.26.26,0,0,1,.2.1l1,1.45a.63.63,0,0,0,.71.23l1.11-.4a.63.63,0,0,0,.38-.63l-.19-1.71a.26.26,0,0,1,.09-.22,6,6,0,0,0,.67-.56.29.29,0,0,1,.22-.06l1.66.5a.63.63,0,0,0,.69-.28l.59-1a.62.62,0,0,0-.11-.73l-1.25-1.18a.28.28,0,0,1-.07-.23,5.24,5.24,0,0,0,.16-.88.3.3,0,0,1,.12-.17l1.6-.69a.65.65,0,0,0,.35-.65L175,70.12a.64.64,0,0,0-.55-.5l-1.72-.1a.28.28,0,0,1-.2-.13,4.51,4.51,0,0,0-.44-.77.37.37,0,0,1,0-.21l.78-1.55a.64.64,0,0,0-.15-.73l-.9-.75a.63.63,0,0,0-.74,0l-1.38,1a.26.26,0,0,1-.24,0,6.34,6.34,0,0,0-.83-.3.26.26,0,0,1-.15-.16l-.4-1.69a.64.64,0,0,0-.58-.46h-1.19a.63.63,0,0,0-.58.46l-.39,1.68A.28.28,0,0,1,165.19,66.11Z" transform="translate(-5.81 -5.05)"/><path class="cls-16" d="M166.93,67.07A5.07,5.07,0,1,0,172,72.14a5.07,5.07,0,0,0-5.07-5.07Z" transform="translate(-5.81 -5.05)"/><rect class="cls-14" x="238.55" y="41.65" width="32.57" height="11.87" rx="2.83"/><polygon class="cls-12" points="253.4 45.28 251.95 45.28 252.1 44.6 253.55 44.6 253.4 45.28"/><polygon class="cls-12" points="253.03 47.06 250.63 47.06 250.78 46.37 253.18 46.37 253.03 47.06"/><polygon class="cls-12" points="252.65 48.84 249.31 48.84 249.45 48.15 252.8 48.15 252.65 48.84"/><polygon class="cls-12" points="252.28 50.61 247.98 50.61 248.13 49.93 252.42 49.93 252.28 50.61"/><path class="cls-15" d="M242.63,46.61a6.34,6.34,0,0,0-.83.3.2.2,0,0,1-.21,0l-1.4-1a.63.63,0,0,0-.74,0l-.9.75a.64.64,0,0,0-.15.73l.77,1.54a.28.28,0,0,1,0,.22,7.44,7.44,0,0,0-.44.78.22.22,0,0,1-.18.12l-1.73.11a.61.61,0,0,0-.55.49L236,51.78a.65.65,0,0,0,.35.65l1.58.69a.28.28,0,0,1,.14.18,5.13,5.13,0,0,0,.16.87.29.29,0,0,1-.06.22L237,55.58a.62.62,0,0,0-.11.73l.59,1a.63.63,0,0,0,.69.28l1.65-.49a.27.27,0,0,1,.23,0c.21.2.44.39.67.57a.2.2,0,0,1,.09.2l-.19,1.72a.63.63,0,0,0,.38.63l1.11.4a.63.63,0,0,0,.71-.23l.94-1.44a.32.32,0,0,1,.22-.1h.87a.26.26,0,0,1,.2.1l1,1.45a.62.62,0,0,0,.7.23l1.11-.4a.63.63,0,0,0,.39-.63L248,58a.27.27,0,0,1,.1-.22,7.1,7.1,0,0,0,.67-.56.26.26,0,0,1,.21-.06l1.67.5a.62.62,0,0,0,.68-.28l.6-1a.62.62,0,0,0-.11-.73l-1.25-1.18a.28.28,0,0,1-.07-.23,6.49,6.49,0,0,0,.16-.88.26.26,0,0,1,.12-.17l1.59-.69a.64.64,0,0,0,.36-.65l-.21-1.16a.64.64,0,0,0-.55-.5l-1.72-.1a.28.28,0,0,1-.2-.13,7.3,7.3,0,0,0-.44-.77.26.26,0,0,1,0-.21l.78-1.55a.65.65,0,0,0-.15-.73l-.91-.75a.63.63,0,0,0-.74,0l-1.38,1a.24.24,0,0,1-.23,0,6.34,6.34,0,0,0-.83-.3.26.26,0,0,1-.15-.16l-.41-1.69a.63.63,0,0,0-.58-.46h-1.18a.63.63,0,0,0-.58.46l-.4,1.68A.25.25,0,0,1,242.63,46.61Z" transform="translate(-5.81 -5.05)"/><path class="cls-16" d="M244.36,47.57a5.07,5.07,0,1,0,5.07,5.07,5.07,5.07,0,0,0-5.07-5.07Z" transform="translate(-5.81 -5.05)"/><rect class="cls-14" x="63.05" y="101.4" width="32.57" height="11.88" rx="2.83"/><polygon class="cls-12" points="77.9 105.03 76.45 105.03 76.59 104.35 78.05 104.35 77.9 105.03"/><polygon class="cls-12" points="77.53 106.81 75.13 106.81 75.27 106.12 77.67 106.12 77.53 106.81"/><polygon class="cls-12" points="77.15 108.59 73.8 108.59 73.95 107.9 77.3 107.9 77.15 108.59"/><polygon class="cls-12" points="76.78 110.37 72.48 110.37 72.63 109.68 76.92 109.68 76.78 110.37"/><path class="cls-15" d="M67.13,106.36a6,6,0,0,0-.84.3.26.26,0,0,1-.21,0l-1.39-1a.63.63,0,0,0-.74,0l-.91.75a.64.64,0,0,0-.15.73l.77,1.54a.22.22,0,0,1,0,.22,6,6,0,0,0-.44.78.23.23,0,0,1-.18.12l-1.73.11a.63.63,0,0,0-.56.49l-.2,1.16a.61.61,0,0,0,.35.65l1.58.69a.28.28,0,0,1,.14.18,4.4,4.4,0,0,0,.15.87.23.23,0,0,1-.06.22l-1.26,1.19a.65.65,0,0,0-.1.73l.59,1a.63.63,0,0,0,.69.28l1.65-.5a.29.29,0,0,1,.22.06,6.13,6.13,0,0,0,.68.56.25.25,0,0,1,.09.2l-.2,1.73a.63.63,0,0,0,.39.63l1.11.4a.62.62,0,0,0,.7-.23l1-1.44a.28.28,0,0,1,.21-.1h.88a.26.26,0,0,1,.2.1l1,1.45a.62.62,0,0,0,.7.23l1.11-.4a.63.63,0,0,0,.39-.63l-.2-1.71a.26.26,0,0,1,.09-.22,6.13,6.13,0,0,0,.68-.56.2.2,0,0,1,.21-.06l1.66.5a.63.63,0,0,0,.69-.28l.59-1a.62.62,0,0,0-.11-.73L75,114.14a.25.25,0,0,1-.06-.22,6.47,6.47,0,0,0,.15-.88.31.31,0,0,1,.13-.17l1.59-.69a.62.62,0,0,0,.35-.65l-.2-1.16a.65.65,0,0,0-.56-.5l-1.72-.1a.26.26,0,0,1-.19-.13,5.35,5.35,0,0,0-.45-.77.26.26,0,0,1,0-.21l.77-1.55a.64.64,0,0,0-.14-.73l-.91-.75a.63.63,0,0,0-.74,0l-1.38,1a.33.33,0,0,1-.24,0,8.29,8.29,0,0,0-.83-.31.28.28,0,0,1-.15-.15l-.4-1.69a.63.63,0,0,0-.58-.46H68.27a.63.63,0,0,0-.58.46l-.4,1.68A.29.29,0,0,1,67.13,106.36Z" transform="translate(-5.81 -5.05)"/><path class="cls-16" d="M68.86,107.31a5.08,5.08,0,1,0,5.07,5.09h0A5.09,5.09,0,0,0,68.86,107.31Z" transform="translate(-5.81 -5.05)"/><rect class="cls-14" x="63.05" y="120.9" width="32.57" height="11.88" rx="2.83"/><polygon class="cls-12" points="77.9 124.53 76.45 124.53 76.59 123.85 78.05 123.85 77.9 124.53"/><polygon class="cls-12" points="77.53 126.31 75.13 126.31 75.27 125.62 77.67 125.62 77.53 126.31"/><polygon class="cls-12" points="77.15 128.09 73.8 128.09 73.95 127.4 77.3 127.4 77.15 128.09"/><polygon class="cls-12" points="76.78 129.86 72.48 129.86 72.63 129.18 76.92 129.18 76.78 129.86"/><path class="cls-15" d="M67.13,125.86a6,6,0,0,0-.84.3.26.26,0,0,1-.21,0l-1.39-1a.63.63,0,0,0-.74,0l-.91.75a.64.64,0,0,0-.15.73l.77,1.54a.22.22,0,0,1,0,.22,6,6,0,0,0-.44.78.23.23,0,0,1-.18.12l-1.73.11a.63.63,0,0,0-.56.49l-.2,1.16a.61.61,0,0,0,.35.65l1.58.69a.28.28,0,0,1,.14.18,4.4,4.4,0,0,0,.15.87.23.23,0,0,1-.06.22l-1.26,1.19a.65.65,0,0,0-.1.73l.59,1a.63.63,0,0,0,.69.28l1.65-.5a.29.29,0,0,1,.22.06,6.13,6.13,0,0,0,.68.56.25.25,0,0,1,.09.2l-.2,1.73a.63.63,0,0,0,.39.63l1.11.4a.62.62,0,0,0,.7-.23l1-1.44a.28.28,0,0,1,.21-.1h.88a.26.26,0,0,1,.2.1l1,1.45a.62.62,0,0,0,.7.23l1.11-.4a.63.63,0,0,0,.39-.63l-.2-1.71a.26.26,0,0,1,.09-.22,6.13,6.13,0,0,0,.68-.56.2.2,0,0,1,.21-.06l1.66.5a.63.63,0,0,0,.69-.28l.59-1a.62.62,0,0,0-.11-.73L75,133.64a.25.25,0,0,1-.06-.22,6.47,6.47,0,0,0,.15-.88.31.31,0,0,1,.13-.17l1.59-.69a.62.62,0,0,0,.35-.65l-.2-1.16a.65.65,0,0,0-.56-.5l-1.72-.1a.26.26,0,0,1-.19-.13,5.35,5.35,0,0,0-.45-.77.26.26,0,0,1,0-.21l.77-1.55a.64.64,0,0,0-.14-.73l-.91-.75a.63.63,0,0,0-.74,0l-1.38,1a.33.33,0,0,1-.24,0,8.29,8.29,0,0,0-.83-.31.28.28,0,0,1-.15-.15L70,124a.63.63,0,0,0-.58-.46H68.27a.63.63,0,0,0-.58.46l-.4,1.68A.26.26,0,0,1,67.13,125.86Z" transform="translate(-5.81 -5.05)"/><path class="cls-16" d="M68.86,126.81a5.08,5.08,0,1,0,5.07,5.09h0A5.09,5.09,0,0,0,68.86,126.81Z" transform="translate(-5.81 -5.05)"/><rect class="cls-14" x="110.05" y="101.4" width="32.57" height="11.88" rx="2.83"/><polygon class="cls-12" points="124.9 105.03 123.45 105.03 123.59 104.35 125.05 104.35 124.9 105.03"/><polygon class="cls-12" points="124.53 106.81 122.13 106.81 122.27 106.12 124.67 106.12 124.53 106.81"/><polygon class="cls-12" points="124.15 108.59 120.8 108.59 120.95 107.9 124.3 107.9 124.15 108.59"/><polygon class="cls-12" points="123.78 110.37 119.48 110.37 119.63 109.68 123.92 109.68 123.78 110.37"/><path class="cls-15" d="M114.13,106.36a6,6,0,0,0-.84.3.26.26,0,0,1-.21,0l-1.39-1a.63.63,0,0,0-.74,0l-.91.75a.64.64,0,0,0-.15.73l.77,1.54a.22.22,0,0,1,0,.22,6,6,0,0,0-.44.78.23.23,0,0,1-.18.12l-1.73.11a.63.63,0,0,0-.56.49l-.2,1.16a.61.61,0,0,0,.35.65l1.58.69a.28.28,0,0,1,.14.18,4.4,4.4,0,0,0,.15.87.23.23,0,0,1-.06.22l-1.26,1.19a.65.65,0,0,0-.1.73l.59,1a.63.63,0,0,0,.69.28l1.65-.5a.29.29,0,0,1,.22.06,6.13,6.13,0,0,0,.68.56.25.25,0,0,1,.09.2l-.2,1.73a.63.63,0,0,0,.39.63l1.11.4a.62.62,0,0,0,.7-.23l1-1.44a.28.28,0,0,1,.21-.1h.88a.26.26,0,0,1,.2.1l1,1.45a.62.62,0,0,0,.7.23l1.11-.4a.63.63,0,0,0,.39-.63l-.2-1.71a.26.26,0,0,1,.09-.22,6.13,6.13,0,0,0,.68-.56.2.2,0,0,1,.21-.06l1.66.5a.63.63,0,0,0,.69-.28l.59-1a.62.62,0,0,0-.11-.73L122,114.14a.25.25,0,0,1-.06-.22,6.47,6.47,0,0,0,.15-.88.31.31,0,0,1,.13-.17l1.59-.69a.62.62,0,0,0,.35-.65l-.2-1.16a.65.65,0,0,0-.56-.5l-1.72-.1a.26.26,0,0,1-.19-.13,5.35,5.35,0,0,0-.45-.77.26.26,0,0,1,0-.21l.77-1.55a.64.64,0,0,0-.14-.73l-.91-.75a.63.63,0,0,0-.74,0l-1.38,1a.33.33,0,0,1-.24,0,8.29,8.29,0,0,0-.83-.31.28.28,0,0,1-.15-.15l-.4-1.69a.63.63,0,0,0-.58-.46h-1.18a.63.63,0,0,0-.58.46l-.4,1.68A.26.26,0,0,1,114.13,106.36Z" transform="translate(-5.81 -5.05)"/><path class="cls-16" d="M115.86,107.31a5.08,5.08,0,1,0,5.07,5.09h0A5.09,5.09,0,0,0,115.86,107.31Z" transform="translate(-5.81 -5.05)"/><rect class="cls-14" x="110.05" y="120.9" width="32.57" height="11.88" rx="2.83"/><polygon class="cls-12" points="124.9 124.53 123.45 124.53 123.59 123.85 125.05 123.85 124.9 124.53"/><polygon class="cls-12" points="124.53 126.31 122.13 126.31 122.27 125.62 124.67 125.62 124.53 126.31"/><polygon class="cls-12" points="124.15 128.09 120.8 128.09 120.95 127.4 124.3 127.4 124.15 128.09"/><polygon class="cls-12" points="123.78 129.86 119.48 129.86 119.63 129.18 123.92 129.18 123.78 129.86"/><path class="cls-15" d="M114.13,125.86a6,6,0,0,0-.84.3.26.26,0,0,1-.21,0l-1.39-1a.63.63,0,0,0-.74,0l-.91.75a.64.64,0,0,0-.15.73l.77,1.54a.22.22,0,0,1,0,.22,6,6,0,0,0-.44.78.23.23,0,0,1-.18.12l-1.73.11a.63.63,0,0,0-.56.49l-.2,1.16a.61.61,0,0,0,.35.65l1.58.69a.28.28,0,0,1,.14.18,4.4,4.4,0,0,0,.15.87.23.23,0,0,1-.06.22l-1.26,1.19a.65.65,0,0,0-.1.73l.59,1a.63.63,0,0,0,.69.28l1.65-.5a.29.29,0,0,1,.22.06,6.13,6.13,0,0,0,.68.56.25.25,0,0,1,.09.2l-.2,1.73a.63.63,0,0,0,.39.63l1.11.4a.62.62,0,0,0,.7-.23l1-1.44a.28.28,0,0,1,.21-.1h.88a.26.26,0,0,1,.2.1l1,1.45a.62.62,0,0,0,.7.23l1.11-.4a.63.63,0,0,0,.39-.63l-.2-1.71a.26.26,0,0,1,.09-.22,6.13,6.13,0,0,0,.68-.56.2.2,0,0,1,.21-.06l1.66.5a.63.63,0,0,0,.69-.28l.59-1a.62.62,0,0,0-.11-.73L122,133.64a.25.25,0,0,1-.06-.22,6.47,6.47,0,0,0,.15-.88.31.31,0,0,1,.13-.17l1.59-.69a.62.62,0,0,0,.35-.65l-.2-1.16a.65.65,0,0,0-.56-.5l-1.72-.1a.26.26,0,0,1-.19-.13,5.35,5.35,0,0,0-.45-.77.26.26,0,0,1,0-.21l.77-1.55a.64.64,0,0,0-.14-.73l-.91-.75a.63.63,0,0,0-.74,0l-1.38,1a.33.33,0,0,1-.24,0,8.29,8.29,0,0,0-.83-.31.28.28,0,0,1-.15-.15L117,124a.63.63,0,0,0-.58-.46h-1.18a.63.63,0,0,0-.58.46l-.4,1.68A.27.27,0,0,1,114.13,125.86Z" transform="translate(-5.81 -5.05)"/><path class="cls-16" d="M115.86,126.81a5.08,5.08,0,1,0,5.07,5.09h0A5.09,5.09,0,0,0,115.86,126.81Z" transform="translate(-5.81 -5.05)"/><path class="cls-14" d="M88.2,87h26.9a2.83,2.83,0,0,1,2.83,2.83h0V96a2.83,2.83,0,0,1-2.83,2.83H88.2A2.83,2.83,0,0,1,85.36,96h0V89.78A2.85,2.85,0,0,1,88.2,87Z" transform="translate(-5.81 -5.05)"/><polygon class="cls-12" points="94.4 85.53 92.95 85.53 93.1 84.85 94.55 84.85 94.4 85.53"/><polygon class="cls-12" points="94.03 87.31 91.63 87.31 91.78 86.62 94.18 86.62 94.03 87.31"/><polygon class="cls-12" points="93.65 89.09 90.31 89.09 90.45 88.4 93.8 88.4 93.65 89.09"/><polygon class="cls-12" points="93.28 90.87 88.98 90.87 89.13 90.18 93.42 90.18 93.28 90.87"/><path class="cls-15" d="M83.63,86.86a6.34,6.34,0,0,0-.83.3.2.2,0,0,1-.21,0l-1.4-1a.63.63,0,0,0-.74,0l-.9.75a.64.64,0,0,0-.15.73l.77,1.54a.28.28,0,0,1,0,.22,7.44,7.44,0,0,0-.44.78.22.22,0,0,1-.18.12l-1.73.11a.61.61,0,0,0-.55.49L77,92a.65.65,0,0,0,.35.65l1.58.69a.28.28,0,0,1,.14.18,5.13,5.13,0,0,0,.16.87.29.29,0,0,1-.06.22L78,95.83a.62.62,0,0,0-.11.73l.59,1a.63.63,0,0,0,.69.28l1.65-.5a.32.32,0,0,1,.23.06,7.1,7.1,0,0,0,.67.56.25.25,0,0,1,.09.2l-.19,1.73a.63.63,0,0,0,.38.63l1.11.4a.63.63,0,0,0,.71-.23l.94-1.44a.32.32,0,0,1,.22-.1h.87a.26.26,0,0,1,.2.1l1,1.45a.62.62,0,0,0,.7.23l1.11-.4a.63.63,0,0,0,.39-.63L89,98.2a.27.27,0,0,1,.1-.22,7.1,7.1,0,0,0,.67-.56.26.26,0,0,1,.21-.06l1.67.5a.62.62,0,0,0,.68-.28l.6-1a.62.62,0,0,0-.11-.73l-1.25-1.19a.26.26,0,0,1-.07-.22,6.49,6.49,0,0,0,.16-.88.26.26,0,0,1,.12-.17l1.59-.69a.64.64,0,0,0,.36-.65l-.21-1.16a.64.64,0,0,0-.55-.5l-1.72-.1a.28.28,0,0,1-.2-.13,7.3,7.3,0,0,0-.44-.77.26.26,0,0,1,0-.21l.78-1.55a.65.65,0,0,0-.15-.73l-.91-.75a.63.63,0,0,0-.74,0l-1.38,1a.31.31,0,0,1-.23,0,8.29,8.29,0,0,0-.83-.31.23.23,0,0,1-.15-.15L86.53,85a.63.63,0,0,0-.58-.46H84.77a.63.63,0,0,0-.58.46l-.4,1.68A.26.26,0,0,1,83.63,86.86Z" transform="translate(-5.81 -5.05)"/><path class="cls-16" d="M85.36,87.81a5.08,5.08,0,1,0,5.07,5.09h0A5.09,5.09,0,0,0,85.36,87.81Z" transform="translate(-5.81 -5.05)"/><rect class="cls-14" x="28.05" y="159.9" width="32.57" height="11.88" rx="2.83"/><polygon class="cls-12" points="42.91 163.53 41.45 163.53 41.6 162.85 43.05 162.85 42.91 163.53"/><polygon class="cls-12" points="42.53 165.31 40.13 165.31 40.28 164.62 42.68 164.62 42.53 165.31"/><polygon class="cls-12" points="42.16 167.09 38.81 167.09 38.96 166.4 42.3 166.4 42.16 167.09"/><polygon class="cls-12" points="41.78 168.86 37.49 168.86 37.63 168.18 41.93 168.18 41.78 168.86"/><path class="cls-15" d="M32.13,164.86a6.34,6.34,0,0,0-.83.3.2.2,0,0,1-.21,0l-1.4-1a.63.63,0,0,0-.74,0l-.9.75a.64.64,0,0,0-.15.73l.77,1.54a.28.28,0,0,1,0,.22,6.06,6.06,0,0,0-.45.78.22.22,0,0,1-.18.12l-1.73.11a.61.61,0,0,0-.55.49l-.22,1.1a.64.64,0,0,0,.36.65l1.58.69a.24.24,0,0,1,.13.18,6.64,6.64,0,0,0,.16.87.29.29,0,0,1-.06.22l-1.26,1.19a.62.62,0,0,0-.11.73l.59,1a.63.63,0,0,0,.69.28l1.65-.5a.32.32,0,0,1,.23.06,7.1,7.1,0,0,0,.67.56.26.26,0,0,1,.1.2l-.2,1.73a.63.63,0,0,0,.39.63l1.1.4a.63.63,0,0,0,.71-.23l.94-1.44a.32.32,0,0,1,.22-.1h.88a.26.26,0,0,1,.2.1l1,1.45a.63.63,0,0,0,.71.23l1.1-.4a.63.63,0,0,0,.39-.63l-.19-1.71a.26.26,0,0,1,.09-.22,6,6,0,0,0,.67-.56.26.26,0,0,1,.21-.06l1.67.5a.63.63,0,0,0,.69-.28l.59-1a.62.62,0,0,0-.11-.73L40,172.64a.26.26,0,0,1-.07-.22,5.24,5.24,0,0,0,.16-.88.3.3,0,0,1,.12-.17l1.59-.69a.64.64,0,0,0,.36-.65L42,168.87a.64.64,0,0,0-.55-.5l-1.72-.1a.28.28,0,0,1-.2-.13,7.3,7.3,0,0,0-.44-.77.26.26,0,0,1,0-.21l.78-1.55a.64.64,0,0,0-.15-.73l-.9-.75a.63.63,0,0,0-.74,0l-1.38,1a.33.33,0,0,1-.24,0,8.29,8.29,0,0,0-.83-.31.23.23,0,0,1-.15-.15L35,163a.63.63,0,0,0-.58-.46H33.27a.63.63,0,0,0-.58.46l-.4,1.68A.26.26,0,0,1,32.13,164.86Z" transform="translate(-5.81 -5.05)"/><path class="cls-16" d="M33.86,165.81a5.08,5.08,0,1,0,5.07,5.09h0A5.09,5.09,0,0,0,33.86,165.81Z" transform="translate(-5.81 -5.05)"/><path class="cls-14" d="M146.78,145.45h26.9a2.83,2.83,0,0,1,2.83,2.83h0v6.21a2.83,2.83,0,0,1-2.83,2.83h-26.9a2.83,2.83,0,0,1-2.83-2.83h0v-6.21A2.85,2.85,0,0,1,146.78,145.45Z" transform="translate(-5.81 -5.05)"/><polygon class="cls-12" points="152.99 144.03 151.53 144.03 151.68 143.35 153.13 143.35 152.99 144.03"/><polygon class="cls-12" points="152.61 145.81 150.21 145.81 150.36 145.12 152.76 145.12 152.61 145.81"/><polygon class="cls-12" points="152.24 147.59 148.89 147.59 149.03 146.9 152.38 146.9 152.24 147.59"/><polygon class="cls-12" points="151.86 149.36 147.57 149.36 147.71 148.68 152.01 148.68 151.86 149.36"/><path class="cls-15" d="M142.21,145.36a6.34,6.34,0,0,0-.83.3.2.2,0,0,1-.21,0l-1.4-1a.63.63,0,0,0-.74,0l-.9.75a.64.64,0,0,0-.15.73l.77,1.54a.28.28,0,0,1,0,.22,6.06,6.06,0,0,0-.45.78.22.22,0,0,1-.18.12l-1.73.11a.61.61,0,0,0-.55.49l-.21,1.16a.64.64,0,0,0,.36.65l1.58.69a.24.24,0,0,1,.13.18,6.64,6.64,0,0,0,.16.87.29.29,0,0,1-.06.22l-1.26,1.19a.62.62,0,0,0-.11.73l.59,1a.63.63,0,0,0,.69.28l1.65-.5a.32.32,0,0,1,.23.06,7.1,7.1,0,0,0,.67.56.26.26,0,0,1,.1.2l-.2,1.73a.63.63,0,0,0,.39.63l1.1.4a.63.63,0,0,0,.71-.23l.94-1.44a.32.32,0,0,1,.22-.1h.88a.26.26,0,0,1,.2.1l1,1.45a.63.63,0,0,0,.71.23l1.11-.4a.63.63,0,0,0,.38-.63l-.19-1.71a.26.26,0,0,1,.09-.22,6,6,0,0,0,.67-.56.26.26,0,0,1,.21-.06l1.67.5a.63.63,0,0,0,.69-.28l.59-1a.62.62,0,0,0-.11-.73l-1.25-1.19a.26.26,0,0,1-.07-.22,5.24,5.24,0,0,0,.16-.88.3.3,0,0,1,.12-.17l1.59-.69a.64.64,0,0,0,.36-.65l-.21-1.16a.63.63,0,0,0-.55-.5l-1.72-.1a.28.28,0,0,1-.2-.13,7.3,7.3,0,0,0-.44-.77.26.26,0,0,1,0-.21l.78-1.55a.64.64,0,0,0-.15-.73l-.9-.75a.63.63,0,0,0-.74,0l-1.38,1a.33.33,0,0,1-.24,0,8.29,8.29,0,0,0-.83-.31.23.23,0,0,1-.15-.15l-.41-1.69a.63.63,0,0,0-.58-.46h-1.18a.63.63,0,0,0-.58.46l-.4,1.68A.26.26,0,0,1,142.21,145.36Z" transform="translate(-5.81 -5.05)"/><path class="cls-16" d="M143.94,146.31A5.08,5.08,0,1,0,149,151.4h0A5.09,5.09,0,0,0,143.94,146.31Z" transform="translate(-5.81 -5.05)"/><rect class="cls-14" x="158.45" y="159.9" width="32.57" height="11.88" rx="2.83"/><polygon class="cls-12" points="173.3 163.53 171.85 163.53 171.99 162.85 173.45 162.85 173.3 163.53"/><polygon class="cls-12" points="172.93 165.31 170.53 165.31 170.67 164.62 173.07 164.62 172.93 165.31"/><polygon class="cls-12" points="172.55 167.09 169.2 167.09 169.35 166.4 172.7 166.4 172.55 167.09"/><polygon class="cls-12" points="172.18 168.86 167.88 168.86 168.03 168.18 172.32 168.18 172.18 168.86"/><path class="cls-15" d="M162.53,164.86a6,6,0,0,0-.84.3.26.26,0,0,1-.21,0l-1.39-1a.63.63,0,0,0-.74,0l-.91.75a.65.65,0,0,0-.15.73l.77,1.54a.22.22,0,0,1,0,.22,6,6,0,0,0-.44.78.23.23,0,0,1-.18.12l-1.73.11a.63.63,0,0,0-.56.49l-.2,1.16a.61.61,0,0,0,.35.65l1.58.69a.28.28,0,0,1,.14.18,5.28,5.28,0,0,0,.15.87.28.28,0,0,1,0,.22l-1.26,1.19a.62.62,0,0,0-.11.73l.59,1a.63.63,0,0,0,.69.28l1.65-.5a.29.29,0,0,1,.22.06,7.22,7.22,0,0,0,.68.56.25.25,0,0,1,.09.2l-.2,1.73a.63.63,0,0,0,.39.63l1.11.4a.62.62,0,0,0,.7-.23l1-1.44a.28.28,0,0,1,.21-.1h.88a.26.26,0,0,1,.2.1l1,1.45a.62.62,0,0,0,.7.23l1.11-.4a.63.63,0,0,0,.39-.63l-.2-1.71a.28.28,0,0,1,0-.22,6.13,6.13,0,0,0,.68-.56.26.26,0,0,1,.21-.06l1.66.5a.63.63,0,0,0,.69-.28l.59-1a.65.65,0,0,0-.1-.73l-1.25-1.19a.23.23,0,0,1-.07-.22,8.52,8.52,0,0,0,.16-.88.24.24,0,0,1,.12-.17l1.59-.69a.62.62,0,0,0,.35-.65l-.2-1.16a.65.65,0,0,0-.56-.5l-1.71-.1a.28.28,0,0,1-.2-.13,5.35,5.35,0,0,0-.45-.77.26.26,0,0,1,0-.21l.78-1.55a.65.65,0,0,0-.15-.73l-.91-.75a.63.63,0,0,0-.74,0l-1.38,1a.33.33,0,0,1-.24,0,8.29,8.29,0,0,0-.83-.31.28.28,0,0,1-.15-.15l-.4-1.69a.63.63,0,0,0-.58-.46h-1.18a.63.63,0,0,0-.58.46l-.4,1.68A.27.27,0,0,1,162.53,164.86Z" transform="translate(-5.81 -5.05)"/><path class="cls-16" d="M164.26,165.81a5.08,5.08,0,1,0,5.07,5.09h0A5.09,5.09,0,0,0,164.26,165.81Z" transform="translate(-5.81 -5.05)"/><rect class="cls-14" x="214.43" y="159.9" width="32.57" height="11.88" rx="2.83"/><polygon class="cls-12" points="229.28 163.53 227.83 163.53 227.98 162.85 229.43 162.85 229.28 163.53"/><polygon class="cls-12" points="228.91 165.31 226.51 165.31 226.65 164.62 229.05 164.62 228.91 165.31"/><polygon class="cls-12" points="228.53 167.09 225.19 167.09 225.33 166.4 228.68 166.4 228.53 167.09"/><polygon class="cls-12" points="228.16 168.86 223.86 168.86 224.01 168.18 228.3 168.18 228.16 168.86"/><path class="cls-15" d="M218.51,164.86a6.34,6.34,0,0,0-.83.3.28.28,0,0,1-.22,0l-1.39-1a.63.63,0,0,0-.74,0l-.91.75a.65.65,0,0,0-.15.73l.77,1.54a.22.22,0,0,1,0,.22,7.44,7.44,0,0,0-.44.78.23.23,0,0,1-.18.12l-1.73.11a.63.63,0,0,0-.56.49l-.2,1.16a.61.61,0,0,0,.35.65l1.58.69a.28.28,0,0,1,.14.18,6.6,6.6,0,0,0,.15.87.28.28,0,0,1,0,.22l-1.26,1.19a.62.62,0,0,0-.11.73l.59,1a.63.63,0,0,0,.69.28l1.65-.5a.32.32,0,0,1,.23.06,6,6,0,0,0,.67.56.25.25,0,0,1,.09.2l-.2,1.73a.63.63,0,0,0,.39.63l1.11.4a.63.63,0,0,0,.71-.23l.94-1.44a.28.28,0,0,1,.21-.1h.88a.26.26,0,0,1,.2.1l1,1.45a.62.62,0,0,0,.7.23l1.11-.4a.63.63,0,0,0,.39-.63l-.2-1.71A.31.31,0,0,1,224,176a6.13,6.13,0,0,0,.68-.56.26.26,0,0,1,.21-.06l1.66.5a.63.63,0,0,0,.69-.28l.59-1a.62.62,0,0,0-.1-.73l-1.25-1.19a.23.23,0,0,1-.07-.22,6.49,6.49,0,0,0,.16-.88.26.26,0,0,1,.12-.17l1.59-.69a.61.61,0,0,0,.35-.65l-.2-1.16a.65.65,0,0,0-.56-.5l-1.71-.1a.28.28,0,0,1-.2-.13,5.35,5.35,0,0,0-.45-.77.26.26,0,0,1,0-.21l.78-1.55a.65.65,0,0,0-.15-.73l-.91-.75a.63.63,0,0,0-.74,0l-1.38,1a.31.31,0,0,1-.23,0,8.29,8.29,0,0,0-.83-.31.26.26,0,0,1-.16-.15l-.4-1.69a.63.63,0,0,0-.58-.46h-1.18a.63.63,0,0,0-.58.46l-.4,1.68A.27.27,0,0,1,218.51,164.86Z" transform="translate(-5.81 -5.05)"/><path class="cls-16" d="M220.24,165.81a5.08,5.08,0,1,0,5.07,5.09h0A5.09,5.09,0,0,0,220.24,165.81Z" transform="translate(-5.81 -5.05)"/><rect class="cls-13" x="34.76" y="140.4" width="11.88" height="11.87" rx="2.83"/><polygon class="cls-14" points="37.03 148.03 36.4 150.43 44.99 150.43 44.36 148.03 37.03 148.03"/><polygon class="cls-14" points="37.69 142.21 36.4 147.13 44.99 147.13 43.7 142.21 37.69 142.21"/><path class="cls-13" d="M115.1,66.2H103.93a5.94,5.94,0,0,0,0,11.87H115.1a2.83,2.83,0,0,0,2.83-2.83h0V69A2.83,2.83,0,0,0,115.1,66.2Z" transform="translate(-5.81 -5.05)"/><path class="cls-14" d="M108.28,72.14a4.35,4.35,0,0,1-8.69,0,4.53,4.53,0,0,1,.31-1.62.46.46,0,0,1,.62-.2.48.48,0,0,1,.23.54,3.32,3.32,0,0,0-.25,1.28,3.44,3.44,0,1,0,5-3,.45.45,0,1,1,.42-.8A4.32,4.32,0,0,1,108.28,72.14Zm-4.35-3a.67.67,0,1,0-.67-.67h0a.67.67,0,0,0,.67.66Zm0,3.68a.67.67,0,0,0,.37-1.23l-3.58-2.66,2.66,3.58a.65.65,0,0,0,.55.3Z" transform="translate(-5.81 -5.05)"/><path class="cls-13" d="M268.6,66.2H257.43a5.94,5.94,0,0,0-.49,11.87,4,4,0,0,0,.49,0H268.6a2.85,2.85,0,0,0,2.83-2.83V69A2.84,2.84,0,0,0,268.6,66.2Z" transform="translate(-5.81 -5.05)"/><path class="cls-14" d="M261.77,72.14a4.34,4.34,0,1,1-8.68,0h0a4.28,4.28,0,0,1,.31-1.62.45.45,0,0,1,.84.34,3.5,3.5,0,0,0-.24,1.28,3.43,3.43,0,1,0,5-3,.45.45,0,0,1,.42-.8h0A4.33,4.33,0,0,1,261.77,72.14Zm-4.34-3a.67.67,0,1,0-.67-.67.67.67,0,0,0,.67.67Zm0,3.68a.67.67,0,0,0,.37-1.23l-3.58-2.66,2.65,3.58a.65.65,0,0,0,.56.3Z" transform="translate(-5.81 -5.05)"/><path class="cls-17" d="M12.24,19.57H23.4a2.85,2.85,0,0,0,2.84-2.83V10.53A2.85,2.85,0,0,0,23.4,7.7H12.24a5.94,5.94,0,0,0-.49,11.87Z" transform="translate(-5.81 -5.05)"/><path class="cls-18" d="M33.78,8.16a6.5,6.5,0,0,0,1.08-.24,7.93,7.93,0,0,0,3-1.7l3.67,9.27a19.83,19.83,0,0,1-3,2.49,6.49,6.49,0,0,1-3.41,1.24,2.48,2.48,0,0,1-2.2-1.1c.56-.52,2-1.5,2.47-1.17S35,18.42,35,18.42c1.3-1,1.34-1.58,1.24-1.86l-.33-.46m.21.27-4.3-9.69a8.34,8.34,0,0,0-1,0,11.36,11.36,0,0,0-3.17.46,10.6,10.6,0,0,0-3.8,2l4.65,11.79A25.76,25.76,0,0,1,32,17.75a6.57,6.57,0,0,1,3.37-1.46,1.84,1.84,0,0,1,.66.08Z" transform="translate(-5.81 -5.05)"/><path class="cls-14" d="M37.89,6.22a7.93,7.93,0,0,1-3,1.7,6.5,6.5,0,0,1-1.08.24l2.4,8.4h0c.1.28.06.88-1.24,1.86,0,0,.91-1.15.44-1.47s-1.91.65-2.47,1.17a2.48,2.48,0,0,0,2.2,1.1A6.46,6.46,0,0,0,38.52,18a19.83,19.83,0,0,0,3-2.49Z" transform="translate(-5.81 -5.05)"/><path class="cls-12" d="M38.4,17.66a20,20,0,0,0,2.77-2.25l-1.1-2.77a13.88,13.88,0,0,1-2.76,2Z" transform="translate(-5.81 -5.05)"/><path class="cls-12" d="M38.85,9.54l-1.1-2.78A8.21,8.21,0,0,1,35,8.23l1.13,3.1A10.1,10.1,0,0,0,38.85,9.54Z" transform="translate(-5.81 -5.05)"/><path class="cls-12" d="M37.31,14.68,36.1,11.33a7.31,7.31,0,0,1-1.3.42l1,3.56A8.31,8.31,0,0,0,37.31,14.68Z" transform="translate(-5.81 -5.05)"/><path class="cls-14" d="M30.8,6.63a11.36,11.36,0,0,0-3.17.46,10.6,10.6,0,0,0-3.8,2l4.65,11.79a25.76,25.76,0,0,1,3.58-3.18,6.57,6.57,0,0,1,3.37-1.46,1.93,1.93,0,0,1,.63.1l-4.3-9.69a8.34,8.34,0,0,0-1,0Z" transform="translate(-5.81 -5.05)"/><path class="cls-12" d="M30.8,7a11.28,11.28,0,0,0-3,.44l1.44,3.47a12.59,12.59,0,0,1,3.61-1L31.54,7Z" transform="translate(-5.81 -5.05)"/><path class="cls-12" d="M30.68,14.4l1.25,3a6.65,6.65,0,0,1,3.5-1.48h.08l-1.28-2.87A8.15,8.15,0,0,0,30.68,14.4Z" transform="translate(-5.81 -5.05)"/><path class="cls-12" d="M29.2,10.87a15.14,15.14,0,0,0-3.55,2l1.54,3.92a32.85,32.85,0,0,1,3.49-2.36Z" transform="translate(-5.81 -5.05)"/><path class="cls-17" d="M51.65,13.43l1.58.69a.26.26,0,0,1,.14.17,6.49,6.49,0,0,0,.16.88.26.26,0,0,1-.06.21l-1.26,1.2a.62.62,0,0,0-.11.73l.59,1a.6.6,0,0,0,.69.27L55,18.11a.27.27,0,0,1,.23.06,7.1,7.1,0,0,0,.67.56.25.25,0,0,1,.09.2l-.19,1.73a.63.63,0,0,0,.39.63l1.1.4a.63.63,0,0,0,.71-.23L59,20a.26.26,0,0,1,.22-.1h.87a.28.28,0,0,1,.21.1l1,1.45a.63.63,0,0,0,.7.23l1.11-.4a.63.63,0,0,0,.39-.63l-.12-1.09h26a2.85,2.85,0,0,0,2.84-2.83v-6.2A2.85,2.85,0,0,0,89.36,7.7H65.49V7.63l-.9-.76a.66.66,0,0,0-.74,0l-1.14.85h-.2a2.74,2.74,0,0,0-.64.08c-.16-.06-.31-.13-.47-.18a.23.23,0,0,1-.15-.15l-.41-1.69a.63.63,0,0,0-.58-.46H59a.63.63,0,0,0-.58.46L58,7.45a.26.26,0,0,1-.16.18,6.34,6.34,0,0,0-.83.3.26.26,0,0,1-.21,0l-1.4-1a.66.66,0,0,0-.74,0l-.9.76a.64.64,0,0,0-.15.73L54.4,10a.28.28,0,0,1,0,.22A6.06,6.06,0,0,0,54,11a.23.23,0,0,1-.18.12l-1.73.1a.63.63,0,0,0-.55.5l-.21,1.16A.65.65,0,0,0,51.65,13.43Z" transform="translate(-5.81 -5.05)"/><path class="cls-17" d="M105.85,13.43l1.58.69a.26.26,0,0,1,.14.17,5.24,5.24,0,0,0,.16.88.26.26,0,0,1-.06.21l-1.26,1.2a.62.62,0,0,0-.11.73l.59,1a.6.6,0,0,0,.69.27l1.65-.49a.27.27,0,0,1,.23.06,7.1,7.1,0,0,0,.67.56.25.25,0,0,1,.09.2L110,20.66a.63.63,0,0,0,.38.63l1.11.4a.63.63,0,0,0,.71-.23l.94-1.44a.26.26,0,0,1,.22-.1h.87a.26.26,0,0,1,.2.1l1,1.45a.63.63,0,0,0,.7.23l1.11-.4a.63.63,0,0,0,.39-.63l-.12-1.09h26.06a2.83,2.83,0,0,0,2.83-2.83h0V10.53a2.83,2.83,0,0,0-2.83-2.83H119.69V7.63l-.91-.76a.66.66,0,0,0-.74,0l-1.13.85h-.2a2.74,2.74,0,0,0-.64.08c-.16-.06-.31-.13-.47-.18a.23.23,0,0,1-.15-.15L115,5.76a.63.63,0,0,0-.58-.46h-1.18a.63.63,0,0,0-.58.46l-.4,1.67a.26.26,0,0,1-.16.18,6.34,6.34,0,0,0-.83.3.26.26,0,0,1-.21,0l-1.4-1a.66.66,0,0,0-.74,0l-.9.76a.64.64,0,0,0-.15.73l.77,1.54a.28.28,0,0,1,0,.22,7.44,7.44,0,0,0-.44.78.24.24,0,0,1-.2.06l-1.73.1a.64.64,0,0,0-.55.5l-.21,1.16A.64.64,0,0,0,105.85,13.43Z" transform="translate(-5.81 -5.05)"/><path class="cls-17" d="M234.54,19.57a2.85,2.85,0,0,0,2.84-2.83V10.53a2.85,2.85,0,0,0-2.84-2.83H210.67V7.63l-.9-.76a.66.66,0,0,0-.74,0l-1.14.85h-.2a2.74,2.74,0,0,0-.64.08c-.15-.06-.31-.13-.47-.18a.23.23,0,0,1-.15-.15L206,5.76a.64.64,0,0,0-.58-.46h-1.19a.63.63,0,0,0-.58.46l-.4,1.67a.26.26,0,0,1-.16.18,6.34,6.34,0,0,0-.83.3.26.26,0,0,1-.21,0l-1.4-1a.66.66,0,0,0-.74,0l-.9.76a.64.64,0,0,0-.15.73l.77,1.54a.28.28,0,0,1,0,.22,6.06,6.06,0,0,0-.45.78A.23.23,0,0,1,199,11l-1.73.1a.64.64,0,0,0-.55.5l-.21,1.16a.64.64,0,0,0,.36.65l1.58.69a.25.25,0,0,1,.13.17,6.49,6.49,0,0,0,.16.88.26.26,0,0,1-.06.21l-1.26,1.2a.62.62,0,0,0-.11.73l.59,1a.6.6,0,0,0,.69.27l1.65-.49a.27.27,0,0,1,.23.06,7.1,7.1,0,0,0,.67.56.26.26,0,0,1,.1.2l-.2,1.73a.63.63,0,0,0,.39.63l1.1.4a.63.63,0,0,0,.71-.23l.94-1.44a.27.27,0,0,1,.22-.1h.88a.26.26,0,0,1,.2.1l1,1.45a.65.65,0,0,0,.71.23l1.11-.4a.63.63,0,0,0,.38-.63l-.12-1.09Z" transform="translate(-5.81 -5.05)"/><path class="cls-17" d="M299.85,7.7H276L276,7.63,275,6.87a.66.66,0,0,0-.74,0l-1.13.85H273a2.74,2.74,0,0,0-.64.08c-.16-.06-.31-.13-.47-.18a.23.23,0,0,1-.15-.15l-.41-1.69a.63.63,0,0,0-.58-.46h-1.18a.63.63,0,0,0-.58.46l-.4,1.67a.26.26,0,0,1-.16.18,6.34,6.34,0,0,0-.83.3.41.41,0,0,1-.22,0l-1.39-1a.66.66,0,0,0-.74,0l-.9.76a.64.64,0,0,0-.15.73L265,10a.22.22,0,0,1,0,.22,7.44,7.44,0,0,0-.44.78.23.23,0,0,1-.18.12l-1.73.1a.64.64,0,0,0-.55.5l-.21,1.16a.62.62,0,0,0,.35.65l1.58.69a.26.26,0,0,1,.14.17,6.47,6.47,0,0,0,.15.88.23.23,0,0,1-.05.21l-1.26,1.2a.62.62,0,0,0-.11.73l.59,1a.6.6,0,0,0,.69.27l1.65-.49a.27.27,0,0,1,.23.06,6,6,0,0,0,.67.56.25.25,0,0,1,.09.2l-.2,1.73a.63.63,0,0,0,.39.63l1.11.4a.63.63,0,0,0,.71-.23l.94-1.44a.25.25,0,0,1,.21-.1h.88a.26.26,0,0,1,.2.1l1,1.45a.63.63,0,0,0,.7.23l1.11-.4a.62.62,0,0,0,.39-.63l-.12-1.09H300a2.83,2.83,0,0,0,2.83-2.83V10.53A2.83,2.83,0,0,0,300,7.7Z" transform="translate(-5.81 -5.05)"/><path class="cls-17" d="M44.36,185.88H20.49v-.07l-.9-.76a.66.66,0,0,0-.74,0l-1.14.85h-.2a2.74,2.74,0,0,0-.64.08c-.15-.06-.31-.13-.47-.18a.23.23,0,0,1-.15-.15L15.84,184a.63.63,0,0,0-.58-.46H14a.63.63,0,0,0-.58.46l-.4,1.68a.25.25,0,0,1-.16.17,6.34,6.34,0,0,0-.83.3.2.2,0,0,1-.21,0l-1.4-1a.66.66,0,0,0-.74,0l-.9.76a.64.64,0,0,0-.15.73l.77,1.54a.28.28,0,0,1,0,.22,6.06,6.06,0,0,0-.45.78.23.23,0,0,1-.18.12L7,189.37a.61.61,0,0,0-.55.49L6.3,191a.65.65,0,0,0,.35.65l1.58.69a.24.24,0,0,1,.14.17,6.49,6.49,0,0,0,.16.88.26.26,0,0,1-.06.21l-1.26,1.2a.62.62,0,0,0-.11.73l.59,1a.6.6,0,0,0,.69.27l1.65-.49a.27.27,0,0,1,.23.06,7.1,7.1,0,0,0,.67.56.26.26,0,0,1,.1.2l-.2,1.73a.63.63,0,0,0,.39.63l1.1.4a.63.63,0,0,0,.71-.23l1-1.46a.26.26,0,0,1,.22-.1h.88a.26.26,0,0,1,.2.1l.95,1.45a.65.65,0,0,0,.71.23l1.1-.4a.63.63,0,0,0,.39-.63l-.12-1.09h26a2.85,2.85,0,0,0,2.84-2.83v-6.21A2.84,2.84,0,0,0,44.36,185.88Z" transform="translate(-5.81 -5.05)"/><path class="cls-17" d="M299.85,185.88H276l-.05-.07-.91-.76a.66.66,0,0,0-.74,0l-1.13.85H273a2.74,2.74,0,0,0-.64.08c-.16-.06-.31-.13-.47-.18a.23.23,0,0,1-.15-.15l-.41-1.69a.63.63,0,0,0-.58-.46h-1.18a.63.63,0,0,0-.58.46l-.4,1.68a.25.25,0,0,1-.16.17,6.34,6.34,0,0,0-.83.3.28.28,0,0,1-.22,0l-1.39-1a.66.66,0,0,0-.74,0l-.9.76a.64.64,0,0,0-.15.73l.76,1.54a.22.22,0,0,1,0,.22,7.44,7.44,0,0,0-.44.78.23.23,0,0,1-.18.12l-1.73.11a.61.61,0,0,0-.55.49l-.21,1.16a.62.62,0,0,0,.35.65l1.58.69a.26.26,0,0,1,.14.17,6.47,6.47,0,0,0,.15.88.23.23,0,0,1-.05.21l-1.26,1.2a.62.62,0,0,0-.11.73l.59,1a.6.6,0,0,0,.69.27l1.65-.49a.27.27,0,0,1,.23.06,6,6,0,0,0,.67.56.25.25,0,0,1,.09.2l-.2,1.73a.63.63,0,0,0,.39.63l1.11.4a.63.63,0,0,0,.71-.23l.94-1.44a.25.25,0,0,1,.21-.1h.88a.26.26,0,0,1,.2.1l1,1.45a.63.63,0,0,0,.7.23l1.11-.4a.62.62,0,0,0,.39-.63l-.12-1.09H300a2.83,2.83,0,0,0,2.83-2.83v-6.21a2.83,2.83,0,0,0-2.78-2.88Z" transform="translate(-5.81 -5.05)"/><path class="cls-17" d="M142.39,27.13l-.9-.76a.66.66,0,0,0-.74,0l-1.14.85h-.2a2.74,2.74,0,0,0-.64.08c-.16-.06-.31-.13-.47-.18a.23.23,0,0,1-.15-.15l-.41-1.69a.63.63,0,0,0-.58-.46H136a.63.63,0,0,0-.58.46L135,27a.26.26,0,0,1-.16.18,6.34,6.34,0,0,0-.83.3.26.26,0,0,1-.21,0l-1.4-1a.66.66,0,0,0-.74,0l-.9.76a.64.64,0,0,0-.15.73l.77,1.54a.28.28,0,0,1,0,.22,6.06,6.06,0,0,0-.45.78.23.23,0,0,1-.18.12l-1.73.1a.64.64,0,0,0-.55.5l-.21,1.16a.65.65,0,0,0,.35.65l1.58.69a.26.26,0,0,1,.14.17,6.49,6.49,0,0,0,.16.88.26.26,0,0,1-.06.21l-1.26,1.2a.62.62,0,0,0-.11.73l.59,1a.6.6,0,0,0,.69.27l1.65-.49a.27.27,0,0,1,.23.06,7.1,7.1,0,0,0,.67.56.26.26,0,0,1,.1.2l-.2,1.73a.63.63,0,0,0,.39.63l1.1.4A.63.63,0,0,0,135,41l.94-1.44a.26.26,0,0,1,.22-.1H137a.26.26,0,0,1,.2.1l.95,1.45a.63.63,0,0,0,.7.23l1.11-.4a.63.63,0,0,0,.39-.63l-.12-1.09h26.06a2.85,2.85,0,0,0,2.84-2.83V30a2.85,2.85,0,0,0-2.84-2.83H142.44Z" transform="translate(-5.81 -5.05)"/><path class="cls-17" d="M228.7,27.13l-.91-.76a.66.66,0,0,0-.74,0l-1.13.85h-.21a2.72,2.72,0,0,0-.63.08c-.16-.06-.31-.13-.48-.18a.28.28,0,0,1-.15-.15l-.4-1.69a.63.63,0,0,0-.58-.46h-1.18a.63.63,0,0,0-.58.46l-.4,1.67a.26.26,0,0,1-.16.18,6,6,0,0,0-.84.3.38.38,0,0,1-.21,0l-1.39-1a.66.66,0,0,0-.74,0l-.91.76a.65.65,0,0,0-.15.73l.77,1.54a.22.22,0,0,1,0,.22,6,6,0,0,0-.44.78.28.28,0,0,1-.18.12l-1.73.1a.65.65,0,0,0-.56.5l-.2,1.16a.61.61,0,0,0,.35.65l1.58.69a.26.26,0,0,1,.14.17,4.38,4.38,0,0,0,.15.88.23.23,0,0,1,0,.21l-1.26,1.2a.62.62,0,0,0-.11.73l.59,1a.6.6,0,0,0,.69.27l1.65-.49a.25.25,0,0,1,.22.06,7.22,7.22,0,0,0,.68.56.25.25,0,0,1,.09.2l-.2,1.73a.63.63,0,0,0,.39.63l1.11.4a.62.62,0,0,0,.7-.23l1-1.44a.25.25,0,0,1,.21-.1h.88a.26.26,0,0,1,.2.1l1,1.45a.63.63,0,0,0,.7.23l1.11-.4a.63.63,0,0,0,.39-.63l-.13-1.09h26.07a2.83,2.83,0,0,0,2.83-2.83h0V30a2.83,2.83,0,0,0-2.83-2.83H228.75Z" transform="translate(-5.81 -5.05)"/><path class="cls-17" d="M212.16,133.68l1.58.69a.26.26,0,0,1,.14.17,4.38,4.38,0,0,0,.15.88.23.23,0,0,1-.05.21l-1.26,1.2a.62.62,0,0,0-.11.73l.59,1a.6.6,0,0,0,.69.27l1.65-.49a.25.25,0,0,1,.22.06,7.22,7.22,0,0,0,.68.56.25.25,0,0,1,.09.2l-.2,1.73a.63.63,0,0,0,.39.63l1.11.4a.62.62,0,0,0,.7-.23l.95-1.44a.25.25,0,0,1,.21-.1h.88a.26.26,0,0,1,.2.1l1,1.45a.63.63,0,0,0,.7.23l1.11-.4a.63.63,0,0,0,.39-.63l-.13-1.09h26.07A2.83,2.83,0,0,0,252.7,137v-6.21a2.83,2.83,0,0,0-2.83-2.83H226l-.05-.07-.91-.76a.66.66,0,0,0-.74,0l-1.13.85H223a2.72,2.72,0,0,0-.63.08c-.16-.06-.31-.13-.48-.18a.28.28,0,0,1-.15-.15l-.4-1.69a.63.63,0,0,0-.58-.46h-1.18a.63.63,0,0,0-.58.46l-.4,1.67a.26.26,0,0,1-.16.18,6,6,0,0,0-.84.3.37.37,0,0,1-.21,0l-1.39-1a.66.66,0,0,0-.74,0l-.91.76a.65.65,0,0,0-.15.73l.77,1.54a.22.22,0,0,1,0,.22,6,6,0,0,0-.44.78.28.28,0,0,1-.18.12l-1.73.1a.65.65,0,0,0-.56.5l-.2,1.16A.61.61,0,0,0,212.16,133.68Z" transform="translate(-5.81 -5.05)"/><path class="cls-17" d="M6.65,52.43l1.58.69a.24.24,0,0,1,.14.17,6.49,6.49,0,0,0,.16.88.26.26,0,0,1-.06.21l-1.26,1.2a.62.62,0,0,0-.11.73l.59,1a.6.6,0,0,0,.69.27L10,57.11a.27.27,0,0,1,.23.06,7.1,7.1,0,0,0,.67.56.26.26,0,0,1,.1.2l-.2,1.73a.63.63,0,0,0,.39.63l1.1.4a.63.63,0,0,0,.71-.23L14,59a.26.26,0,0,1,.22-.1h.88a.26.26,0,0,1,.2.1l.95,1.45a.65.65,0,0,0,.71.23l1.1-.4a.63.63,0,0,0,.39-.63l-.12-1.09h26a2.85,2.85,0,0,0,2.84-2.83v-6.2a2.85,2.85,0,0,0-2.84-2.83H20.49v-.07l-.9-.76a.66.66,0,0,0-.74,0l-1.14.85h-.2a2.74,2.74,0,0,0-.64.08c-.15-.06-.31-.13-.47-.18a.23.23,0,0,1-.15-.15l-.41-1.69a.63.63,0,0,0-.58-.46H14a.63.63,0,0,0-.58.46L13,46.45a.26.26,0,0,1-.16.18,6.34,6.34,0,0,0-.83.3.26.26,0,0,1-.21,0l-1.4-1a.66.66,0,0,0-.74,0l-.9.76a.64.64,0,0,0-.15.73L9.4,49a.28.28,0,0,1,0,.22,6.3,6.3,0,0,0-.4.72.23.23,0,0,1-.18.12l-1.73.1a.64.64,0,0,0-.55.5L6.3,51.78A.65.65,0,0,0,6.65,52.43Z" transform="translate(-5.81 -5.05)"/><path class="cls-17" d="M156.69,46.63l-.9-.76a.66.66,0,0,0-.74,0l-1.14.85h-.2a2.74,2.74,0,0,0-.64.08c-.15-.06-.31-.13-.47-.18a.23.23,0,0,1-.15-.15L152,44.76a.63.63,0,0,0-.58-.46h-1.18a.63.63,0,0,0-.58.46l-.4,1.67a.26.26,0,0,1-.16.18,6.34,6.34,0,0,0-.83.3.26.26,0,0,1-.21,0l-1.4-1a.66.66,0,0,0-.74,0l-.9.76a.64.64,0,0,0-.15.73l.77,1.54a.28.28,0,0,1,0,.22,6.06,6.06,0,0,0-.45.78A.22.22,0,0,1,145,50l-1.73.1a.64.64,0,0,0-.55.5l-.21,1.16a.65.65,0,0,0,.35.65l1.58.69a.24.24,0,0,1,.14.17,6.49,6.49,0,0,0,.16.88.26.26,0,0,1-.06.21l-1.26,1.2a.62.62,0,0,0-.11.73l.59,1a.6.6,0,0,0,.69.27l1.65-.49a.27.27,0,0,1,.23.06,7.1,7.1,0,0,0,.67.56.26.26,0,0,1,.1.2l-.2,1.73a.63.63,0,0,0,.39.63l1.1.4a.63.63,0,0,0,.71-.23l.94-1.44a.26.26,0,0,1,.22-.1h.88a.26.26,0,0,1,.2.1l1,1.45a.65.65,0,0,0,.71.23l1.1-.4a.62.62,0,0,0,.39-.63l-.12-1.09h26.06a2.85,2.85,0,0,0,2.84-2.83V49.53a2.85,2.85,0,0,0-2.84-2.83H156.74Z" transform="translate(-5.81 -5.05)"/><path class="cls-17" d="M196.66,66.2H172.79v-.07l-.9-.76a.66.66,0,0,0-.74,0L170,66.2h-.2a2.74,2.74,0,0,0-.64.08c-.15-.06-.31-.13-.47-.18a.23.23,0,0,1-.15-.15l-.4-1.69a.64.64,0,0,0-.58-.46h-1.19a.63.63,0,0,0-.58.46l-.39,1.67a.3.3,0,0,1-.17.18,6.34,6.34,0,0,0-.83.3.26.26,0,0,1-.21,0l-1.4-1a.66.66,0,0,0-.74,0l-.9.76a.64.64,0,0,0-.15.73l.77,1.54a.28.28,0,0,1,0,.22,6.06,6.06,0,0,0-.45.78.23.23,0,0,1-.18.12l-1.73.1a.64.64,0,0,0-.55.5l-.21,1.16A.64.64,0,0,0,159,72l1.58.69a.25.25,0,0,1,.13.17,6.49,6.49,0,0,0,.16.88.26.26,0,0,1-.06.21l-1.26,1.2a.62.62,0,0,0-.11.73l.59,1a.6.6,0,0,0,.69.27l1.65-.49a.27.27,0,0,1,.23.06,7.1,7.1,0,0,0,.67.56.26.26,0,0,1,.1.2l-.2,1.73a.63.63,0,0,0,.39.63l1.1.4a.63.63,0,0,0,.71-.23l.94-1.44a.27.27,0,0,1,.22-.1h.88a.26.26,0,0,1,.2.1l1,1.45a.65.65,0,0,0,.71.23l1.11-.4a.63.63,0,0,0,.38-.63l-.12-1.09h26.06a2.85,2.85,0,0,0,2.84-2.83V69a2.84,2.84,0,0,0-2.88-2.8Z" transform="translate(-5.81 -5.05)"/><path class="cls-17" d="M276.93,55.74V49.53a2.83,2.83,0,0,0-2.83-2.83H250.23v-.07l-.91-.76a.66.66,0,0,0-.74,0l-1.13.85h-.2a2.74,2.74,0,0,0-.64.08c-.16-.06-.31-.13-.47-.18a.23.23,0,0,1-.15-.15l-.41-1.69a.63.63,0,0,0-.58-.46h-1.18a.63.63,0,0,0-.58.46l-.4,1.67a.26.26,0,0,1-.16.18,6.34,6.34,0,0,0-.83.3.26.26,0,0,1-.21,0l-1.4-1a.66.66,0,0,0-.74,0l-.9.76a.64.64,0,0,0-.15.73l.77,1.54a.28.28,0,0,1,0,.22,7.44,7.44,0,0,0-.44.78.23.23,0,0,1-.18.12l-1.73.1a.64.64,0,0,0-.55.5l-.32,1.1a.65.65,0,0,0,.35.65l1.58.69a.26.26,0,0,1,.14.17,5.24,5.24,0,0,0,.16.88.26.26,0,0,1-.06.21L237,55.58a.62.62,0,0,0-.11.73l.59,1a.6.6,0,0,0,.69.27l1.65-.49a.27.27,0,0,1,.23.06,7.1,7.1,0,0,0,.67.56.25.25,0,0,1,.09.2l-.19,1.73a.63.63,0,0,0,.38.63l1.11.4a.63.63,0,0,0,.71-.23l.94-1.44a.26.26,0,0,1,.22-.1h.87a.26.26,0,0,1,.2.1l1,1.45a.63.63,0,0,0,.7.23l1.11-.4a.63.63,0,0,0,.39-.63L248,58.57h26.1A2.83,2.83,0,0,0,276.93,55.74Z" transform="translate(-5.81 -5.05)"/><path class="cls-17" d="M98.6,106.45H74.73v-.07l-.91-.76a.63.63,0,0,0-.74,0l-1.13.85h-.21a3.38,3.38,0,0,0-.63.07c-.16,0-.31-.12-.48-.17a.28.28,0,0,1-.15-.15l-.4-1.69a.63.63,0,0,0-.58-.46H68.27a.63.63,0,0,0-.58.46l-.4,1.67a.25.25,0,0,1-.16.17,7.63,7.63,0,0,0-.84.31.38.38,0,0,1-.21,0l-1.39-1a.66.66,0,0,0-.74,0l-.91.76a.64.64,0,0,0-.15.73l.77,1.54a.22.22,0,0,1,0,.22,6,6,0,0,0-.44.78.28.28,0,0,1-.18.12l-1.73.1a.65.65,0,0,0-.56.5l-.2,1.16a.61.61,0,0,0,.35.65l1.58.68a.28.28,0,0,1,.14.18,4.38,4.38,0,0,0,.15.88.2.2,0,0,1-.06.21l-1.26,1.2a.62.62,0,0,0-.1.73l.59,1a.6.6,0,0,0,.69.27l1.65-.49a.23.23,0,0,1,.22.06,6.13,6.13,0,0,0,.68.56.25.25,0,0,1,.09.2l-.2,1.73a.64.64,0,0,0,.39.63l1.11.4a.63.63,0,0,0,.7-.23l1-1.44a.23.23,0,0,1,.21-.1h.88a.26.26,0,0,1,.2.1l1,1.45a.63.63,0,0,0,.7.23l1.11-.4a.64.64,0,0,0,.39-.63l-.13-1.09h26a2.85,2.85,0,0,0,2.83-2.83v-6.21a2.84,2.84,0,0,0-2.8-2.88Z" transform="translate(-5.81 -5.05)"/><path class="cls-17" d="M98.6,126H74.73v-.07l-.91-.76a.63.63,0,0,0-.74,0L71.9,126h-.21a3.38,3.38,0,0,0-.63.07c-.16,0-.31-.12-.48-.17a.28.28,0,0,1-.15-.15L70,124a.63.63,0,0,0-.58-.46H68.27a.63.63,0,0,0-.58.46l-.4,1.67a.25.25,0,0,1-.16.17,7.63,7.63,0,0,0-.84.31.37.37,0,0,1-.21,0l-1.39-1a.66.66,0,0,0-.74,0l-.91.76a.64.64,0,0,0-.15.73l.77,1.54a.22.22,0,0,1,0,.22,6,6,0,0,0-.44.78.28.28,0,0,1-.18.12l-1.73.1a.65.65,0,0,0-.56.5l-.2,1.16a.61.61,0,0,0,.35.65l1.58.68a.28.28,0,0,1,.14.18,4.38,4.38,0,0,0,.15.88.2.2,0,0,1-.06.21l-1.26,1.2a.62.62,0,0,0-.1.73l.59,1a.6.6,0,0,0,.69.27l1.65-.49a.23.23,0,0,1,.22.06,6.13,6.13,0,0,0,.68.56.25.25,0,0,1,.09.2l-.2,1.73a.64.64,0,0,0,.39.63l1.11.4a.63.63,0,0,0,.7-.23l1-1.44a.23.23,0,0,1,.21-.1h.88a.26.26,0,0,1,.2.1l1,1.45a.63.63,0,0,0,.7.23l1.11-.4a.64.64,0,0,0,.39-.63l-.13-1.09h26a2.85,2.85,0,0,0,2.83-2.83V128.8A2.84,2.84,0,0,0,98.6,126Z" transform="translate(-5.81 -5.05)"/><path class="cls-17" d="M148.43,115.49v-6.21a2.85,2.85,0,0,0-2.83-2.83H121.73v-.07l-.91-.76a.63.63,0,0,0-.74,0l-1.13.85h-.21a3.38,3.38,0,0,0-.63.07c-.16,0-.31-.12-.48-.17a.28.28,0,0,1-.15-.15l-.4-1.69a.63.63,0,0,0-.58-.46h-1.18a.63.63,0,0,0-.58.46l-.4,1.67a.25.25,0,0,1-.16.17,7.63,7.63,0,0,0-.84.31.37.37,0,0,1-.21,0l-1.39-1a.66.66,0,0,0-.74,0l-.91.76a.64.64,0,0,0-.15.73l.77,1.54a.22.22,0,0,1,0,.22,6,6,0,0,0-.44.78.28.28,0,0,1-.18.12l-1.73.1a.65.65,0,0,0-.56.5l-.2,1.16a.61.61,0,0,0,.35.65l1.58.68a.28.28,0,0,1,.14.18,4.38,4.38,0,0,0,.15.88.2.2,0,0,1-.06.21l-1.26,1.2a.62.62,0,0,0-.1.73l.59,1a.6.6,0,0,0,.69.27l1.65-.49a.23.23,0,0,1,.22.06,6.13,6.13,0,0,0,.68.56.25.25,0,0,1,.09.2l-.2,1.73a.64.64,0,0,0,.39.63l1.11.4a.63.63,0,0,0,.7-.23l1-1.44a.23.23,0,0,1,.21-.1h.88a.26.26,0,0,1,.2.1l1,1.45a.63.63,0,0,0,.7.23l1.11-.4a.64.64,0,0,0,.39-.63l-.13-1.09h26a2.86,2.86,0,0,0,2.83-2.87Z" transform="translate(-5.81 -5.05)"/><path class="cls-17" d="M145.6,137.82a2.85,2.85,0,0,0,2.83-2.83v-6.21A2.84,2.84,0,0,0,145.6,126H121.73v-.07l-.91-.76a.63.63,0,0,0-.74,0L119,126h-.21a3.38,3.38,0,0,0-.63.07c-.16,0-.31-.12-.48-.17a.28.28,0,0,1-.15-.15L117,124a.63.63,0,0,0-.58-.46h-1.18a.63.63,0,0,0-.58.46l-.4,1.67a.25.25,0,0,1-.16.17,7.63,7.63,0,0,0-.84.31.38.38,0,0,1-.21,0l-1.39-1a.66.66,0,0,0-.74,0l-.91.76a.64.64,0,0,0-.15.73l.77,1.54a.22.22,0,0,1,0,.22,6,6,0,0,0-.44.78.28.28,0,0,1-.18.12l-1.73.1a.65.65,0,0,0-.56.5l-.2,1.16a.61.61,0,0,0,.35.65l1.58.68a.28.28,0,0,1,.14.18,4.38,4.38,0,0,0,.15.88.2.2,0,0,1-.06.21l-1.26,1.2a.62.62,0,0,0-.1.73l.59,1a.6.6,0,0,0,.69.27l1.65-.49a.23.23,0,0,1,.22.06,6.13,6.13,0,0,0,.68.56.25.25,0,0,1,.09.2l-.2,1.73a.64.64,0,0,0,.39.63l1.11.4a.63.63,0,0,0,.7-.23l1-1.44a.23.23,0,0,1,.21-.1h.88a.26.26,0,0,1,.2.1l1,1.45a.63.63,0,0,0,.7.23l1.11-.4a.64.64,0,0,0,.39-.63l-.13-1.09Z" transform="translate(-5.81 -5.05)"/><path class="cls-17" d="M117.93,96V89.78A2.84,2.84,0,0,0,115.1,87H91.23v-.07l-.91-.76a.63.63,0,0,0-.74,0L88.4,87h-.2a3.39,3.39,0,0,0-.64.07l-.47-.17a.23.23,0,0,1-.15-.15L86.53,85a.63.63,0,0,0-.58-.46H84.77a.63.63,0,0,0-.58.46l-.4,1.67a.23.23,0,0,1-.16.17,8.29,8.29,0,0,0-.83.31.26.26,0,0,1-.21,0l-1.4-1a.66.66,0,0,0-.74,0l-.9.76a.64.64,0,0,0-.15.73l.77,1.54a.28.28,0,0,1,0,.22,7.44,7.44,0,0,0-.44.78.23.23,0,0,1-.18.12l-1.73.1a.63.63,0,0,0-.55.5L77,92a.65.65,0,0,0,.35.65l1.58.68a.28.28,0,0,1,.14.18,5.24,5.24,0,0,0,.16.88.26.26,0,0,1-.06.21L78,95.83a.62.62,0,0,0-.11.73l.59,1a.6.6,0,0,0,.69.27l1.65-.49a.24.24,0,0,1,.23.06,7.1,7.1,0,0,0,.67.56.25.25,0,0,1,.09.2l-.19,1.73a.63.63,0,0,0,.38.63l1.11.4a.65.65,0,0,0,.71-.23l.94-1.44a.23.23,0,0,1,.22-.1h.87a.26.26,0,0,1,.2.1l1,1.45a.63.63,0,0,0,.7.23l1.11-.4a.63.63,0,0,0,.39-.63L89,98.82h26.1A2.84,2.84,0,0,0,117.93,96Z" transform="translate(-5.81 -5.05)"/><path class="cls-17" d="M63.6,165H39.73v-.07l-.9-.76a.63.63,0,0,0-.74,0L36.9,165h-.2a3.39,3.39,0,0,0-.64.07l-.47-.17a.23.23,0,0,1-.15-.15L35,163a.63.63,0,0,0-.58-.46H33.27a.63.63,0,0,0-.58.46l-.4,1.67a.23.23,0,0,1-.16.17,8.29,8.29,0,0,0-.83.31.26.26,0,0,1-.21,0l-1.4-1a.66.66,0,0,0-.74,0l-.9.76a.64.64,0,0,0-.15.73l.77,1.54a.28.28,0,0,1,0,.22,6.06,6.06,0,0,0-.45.78.23.23,0,0,1-.18.12l-1.73.1a.64.64,0,0,0-.55.5l-.22,1.1a.64.64,0,0,0,.36.65l1.58.68a.29.29,0,0,1,.13.18,6.49,6.49,0,0,0,.16.88.26.26,0,0,1-.06.21l-1.26,1.2a.62.62,0,0,0-.11.73l.59,1a.6.6,0,0,0,.69.27l1.65-.49a.24.24,0,0,1,.23.06,7.1,7.1,0,0,0,.67.56.26.26,0,0,1,.1.2l-.2,1.73a.63.63,0,0,0,.39.63l1.1.4a.65.65,0,0,0,.71-.23l.94-1.44a.23.23,0,0,1,.22-.1h.88a.26.26,0,0,1,.2.1l1,1.45a.65.65,0,0,0,.71.23l1.1-.4a.63.63,0,0,0,.39-.63l-.12-1.09h26A2.85,2.85,0,0,0,66.44,174v-6.21A2.84,2.84,0,0,0,63.6,165Z" transform="translate(-5.81 -5.05)"/><path class="cls-17" d="M173.68,157.32a2.86,2.86,0,0,0,2.84-2.83v-6.21a2.85,2.85,0,0,0-2.84-2.83H149.81a.18.18,0,0,0-.05-.07l-.9-.76a.63.63,0,0,0-.74,0l-1.14.85h-.2a3.39,3.39,0,0,0-.64.07l-.47-.17a.23.23,0,0,1-.15-.15l-.41-1.69a.63.63,0,0,0-.58-.46h-1.18a.63.63,0,0,0-.58.46l-.4,1.67a.23.23,0,0,1-.16.17,8.29,8.29,0,0,0-.83.31.26.26,0,0,1-.21,0l-1.4-1a.66.66,0,0,0-.74,0l-.9.76a.64.64,0,0,0-.15.73l.77,1.54a.28.28,0,0,1,0,.22,6.06,6.06,0,0,0-.45.78.23.23,0,0,1-.18.12l-1.73.1a.64.64,0,0,0-.55.5l-.21,1.16a.64.64,0,0,0,.36.65l1.58.68a.29.29,0,0,1,.13.18,6.49,6.49,0,0,0,.16.88.26.26,0,0,1-.06.21l-1.26,1.2a.62.62,0,0,0-.11.73l.59,1a.6.6,0,0,0,.69.27l1.65-.49a.24.24,0,0,1,.23.06,7.1,7.1,0,0,0,.67.56.26.26,0,0,1,.1.2l-.2,1.73a.63.63,0,0,0,.39.63l1.1.4a.65.65,0,0,0,.71-.23l.94-1.44a.23.23,0,0,1,.22-.1h.88a.26.26,0,0,1,.2.1l1,1.45a.65.65,0,0,0,.71.23l1.11-.4a.63.63,0,0,0,.38-.63l-.12-1.09Z" transform="translate(-5.81 -5.05)"/><path class="cls-17" d="M194,165H170.13v-.07l-.91-.76a.63.63,0,0,0-.74,0l-1.13.85h-.21a3.38,3.38,0,0,0-.63.07c-.16-.05-.31-.12-.48-.17a.28.28,0,0,1-.15-.15l-.4-1.69a.63.63,0,0,0-.58-.46h-1.18a.63.63,0,0,0-.58.46l-.4,1.67a.25.25,0,0,1-.16.17,7.63,7.63,0,0,0-.84.31.38.38,0,0,1-.21,0l-1.39-1a.66.66,0,0,0-.74,0l-.91.76a.65.65,0,0,0-.15.73l.77,1.54a.22.22,0,0,1,0,.22,6,6,0,0,0-.44.78.28.28,0,0,1-.18.12l-1.73.1a.65.65,0,0,0-.56.5l-.2,1.16a.61.61,0,0,0,.35.65l1.58.68a.28.28,0,0,1,.14.18,4.38,4.38,0,0,0,.15.88.26.26,0,0,1,0,.21l-1.26,1.2a.62.62,0,0,0-.11.73l.59,1a.6.6,0,0,0,.69.27l1.65-.49a.23.23,0,0,1,.22.06,7.22,7.22,0,0,0,.68.56.25.25,0,0,1,.09.2l-.2,1.73a.64.64,0,0,0,.39.63l1.11.4a.63.63,0,0,0,.7-.23l1-1.44a.23.23,0,0,1,.21-.1h.88a.26.26,0,0,1,.2.1l1,1.45a.63.63,0,0,0,.7.23l1.11-.4a.64.64,0,0,0,.39-.63l-.13-1.09H194a2.85,2.85,0,0,0,2.83-2.83v-6.21a2.83,2.83,0,0,0-2.78-2.88Z" transform="translate(-5.81 -5.05)"/><path class="cls-17" d="M250,165H226.11l-.05-.07-.91-.76a.63.63,0,0,0-.74,0l-1.13.85h-.2a3.39,3.39,0,0,0-.64.07l-.47-.17a.26.26,0,0,1-.16-.15l-.4-1.69a.63.63,0,0,0-.58-.46h-1.18a.63.63,0,0,0-.58.46l-.4,1.67a.25.25,0,0,1-.16.17,8.29,8.29,0,0,0-.83.31.41.41,0,0,1-.22,0l-1.39-1a.66.66,0,0,0-.74,0l-.91.76a.65.65,0,0,0-.15.73l.77,1.54a.22.22,0,0,1,0,.22,7.44,7.44,0,0,0-.44.78.28.28,0,0,1-.18.12l-1.73.1a.65.65,0,0,0-.56.5l-.2,1.16a.61.61,0,0,0,.35.65l1.58.68a.28.28,0,0,1,.14.18,6.47,6.47,0,0,0,.15.88.26.26,0,0,1,0,.21l-1.26,1.2a.62.62,0,0,0-.11.73l.59,1a.6.6,0,0,0,.69.27l1.65-.49a.24.24,0,0,1,.23.06,6,6,0,0,0,.67.56.25.25,0,0,1,.09.2l-.2,1.73a.64.64,0,0,0,.39.63l1.11.4a.65.65,0,0,0,.71-.23l.94-1.44a.23.23,0,0,1,.21-.1h.88a.26.26,0,0,1,.2.1l1,1.45a.63.63,0,0,0,.7.23l1.11-.4a.64.64,0,0,0,.39-.63l-.13-1.09h26a2.85,2.85,0,0,0,2.83-2.83v-6.21a2.83,2.83,0,0,0-2.78-2.88Z" transform="translate(-5.81 -5.05)"/><rect class="cls-17" x="34.76" y="140.4" width="11.88" height="11.87" rx="2.83"/><path class="cls-17" d="M103.93,78.07H115.1a2.83,2.83,0,0,0,2.83-2.83h0V69a2.83,2.83,0,0,0-2.83-2.83H103.93a5.94,5.94,0,0,0,0,11.87Z" transform="translate(-5.81 -5.05)"/><path class="cls-17" d="M271.43,75.24V69a2.85,2.85,0,0,0-2.83-2.83H257.43A5.94,5.94,0,0,0,256.94,78H268.6A2.84,2.84,0,0,0,271.43,75.24Z" transform="translate(-5.81 -5.05)"/><polyline class="cls-19" points="58.05 62.1 58.05 35.56 6.5 35.63"/><text class="cls-20" transform="translate(13.16 11.62)">3</text><text class="cls-20" transform="translate(51.41 11.61)">7</text><text class="cls-21" transform="translate(69.14 11.61)">295</text><text class="cls-20" transform="translate(105.61 11.61)">6</text><text class="cls-21" transform="translate(123.34 11.61)">230</text><text class="cls-20" transform="translate(196.59 11.61)">4</text><text class="cls-21" transform="translate(214.32 11.61)">165</text><text class="cls-20" transform="translate(261.9 11.61)">2</text><text class="cls-21" transform="translate(279.63 11.61)">125</text><text class="cls-20" transform="translate(6.41 189.8)">2</text><text class="cls-21" transform="translate(24.14 189.8)">100</text><text class="cls-20" transform="translate(261.9 189.8)">3</text><text class="cls-21" transform="translate(279.63 189.8)">165</text><text class="cls-20" transform="translate(128.36 31.11)">3</text><g class="cls-22"><text class="cls-23" transform="translate(146.32 31.11)">1</text><text class="cls-21" transform="translate(150.58 31.11)">15</text></g><text class="cls-20" transform="translate(214.67 31.11)">4</text><text class="cls-21" transform="translate(232.39 31.11)">165</text><text class="cls-20" transform="translate(211.92 131.86)">1</text><text class="cls-21" transform="translate(232.01 131.86)">41</text><text class="cls-20" transform="translate(6.41 50.62)">2</text><text class="cls-21" transform="translate(26.5 50.62)">80</text><text class="cls-20" transform="translate(142.66 50.62)">4</text><text class="cls-21" transform="translate(160.39 50.62)">190</text><text class="cls-20" transform="translate(158.71 70.12)">7</text><text class="cls-21" transform="translate(176.44 70.12)">280</text><text class="cls-20" transform="translate(236.15 50.62)">5</text><text class="cls-21" transform="translate(253.88 50.62)">220</text><text class="cls-20" transform="translate(60.65 110.36)">5</text><text class="cls-21" transform="translate(78.37 110.36)">180</text><text class="cls-20" transform="translate(60.65 129.86)">3</text><text class="cls-21" transform="translate(78.37 129.86)">125</text><text class="cls-20" transform="translate(107.65 110.36)">2</text><text class="cls-21" transform="translate(127.74 110.36)">70</text><text class="cls-20" transform="translate(107.65 129.86)">2</text><text class="cls-21" transform="translate(127.74 129.86)">85</text><text class="cls-20" transform="translate(77.15 90.86)">6</text><text class="cls-21" transform="translate(94.88 90.86)">250</text><text class="cls-20" transform="translate(25.65 168.86)">1</text><text class="cls-21" transform="translate(45.74 168.86)">70</text><text class="cls-20" transform="translate(135.73 149.36)">8</text><text class="cls-21" transform="translate(153.46 149.36)">295</text><text class="cls-20" transform="translate(156.05 168.86)">8</text><text class="cls-21" transform="translate(173.77 168.86)">285</text><text class="cls-20" transform="translate(212.03 168.86)">7</text><text class="cls-21" transform="translate(229.75 168.86)">265</text><text class="cls-20" transform="translate(104.86 70.12)">2</text><text class="cls-20" transform="translate(258.35 70.11)">1</text><text class="cls-24" transform="translate(238.27 157.3)">Tnel</text><text class="cls-25" transform="translate(5.34 31.83)">Zona de Boxes</text><text class="cls-26" transform="translate(99.02 28.66)">1</text><text class="cls-26" transform="translate(159.71 83.41)">2</text><text class="cls-26" transform="translate(190.65 111.16)">3</text><text class="cls-26" transform="translate(222.15 108.41)">4</text><text class="cls-26" transform="translate(267.46 94.66)">5</text><text class="cls-26" transform="translate(245.15 119.66)">6</text><text class="cls-26" transform="translate(268.21 129.41)">7</text><text class="cls-26" transform="translate(288.52 134.41)">8</text><text class="cls-26" transform="translate(203.15 156.41)">9</text><text class="cls-26" transform="translate(143.2 109.91)">10</text><g class="cls-22"><text class="cls-27" transform="translate(129.19 92.16)">1</text><text class="cls-26" transform="translate(132.35 92.16)">1</text></g><text class="cls-26" transform="translate(104.7 57.41)">12</text><text class="cls-26" transform="translate(84.7 64.41)">13</text><text class="cls-26" transform="translate(67.2 61.66)">14</text><text class="cls-26" transform="translate(52.7 93.66)">15</text><text class="cls-26" transform="translate(48.7 74.16)">16</text><text class="cls-26" transform="translate(36.95 106.91)">17</text><text class="cls-26" transform="translate(30.45 129.66)">18</text><text class="cls-26" transform="translate(11.7 94.66)">19</text></g></svg>