<svg width="550" height="360" viewBox="0 0 550 360" fill="none" xmlns="http://www.w3.org/2000/svg">
<path d="M428.5 348.5C426.833 344.833 404.1 334.3 394.5 333.5C384.9 332.7 272.833 333.167 211.5 333.5C201 333.667 167.6 341.3 158 350.5" stroke="#00071B" stroke-width="7"/>
<path d="M51.3224 151.497L61.2377 162.683L57.5765 163.431L52.6843 158.159L50.2541 164.928L46.5929 165.677L51.3224 151.497Z" fill="#00071B"/>
<path d="M481.118 248.152L468.199 240.633L471.442 238.775L477.739 242.251L477.927 235.061L481.17 233.204L481.118 248.152Z" fill="#00071B"/>
<path d="M53.2084 160.721L63.1237 171.906L59.4625 172.655L54.5703 167.382L52.1401 174.152L48.4789 174.9L53.2084 160.721Z" fill="#00071B"/>
<path d="M476.439 239.982L463.52 232.463L466.763 230.606L473.06 234.082L473.248 226.892L476.491 225.034L476.439 239.982Z" fill="#00071B"/>
<path d="M328.28 297.553L337.491 287.559H330.761L331.063 286H339.842L339.54 287.516L330.33 297.467H337.62L337.318 299.026H328L328.28 297.553Z" fill="#231F20"/>
<path d="M339.324 296.658H342.211L341.544 299.026H338.658L339.324 296.658Z" fill="#231F20"/>
<path d="M354.557 289.76C354.857 290.01 355.101 290.313 355.276 290.654L356.212 286H357.605L355.058 298.715H353.752L354.013 297.427C353.628 297.941 353.12 298.361 352.533 298.652C352.012 298.9 351.438 299.028 350.856 299.026C350.404 299.025 349.961 298.905 349.576 298.677C349.192 298.45 348.881 298.125 348.679 297.738C348.112 296.672 347.98 295.443 348.309 294.289C348.546 293.006 349.115 291.799 349.964 290.778C350.322 290.324 350.785 289.954 351.318 289.698C351.85 289.443 352.437 289.307 353.033 289.303C353.581 289.285 354.119 289.446 354.557 289.76ZM351.596 297.78C351.956 297.763 352.307 297.673 352.626 297.515C352.945 297.357 353.225 297.136 353.447 296.866C354.081 296.093 354.494 295.177 354.644 294.206C354.901 293.328 354.847 292.394 354.492 291.547C354.354 291.282 354.139 291.061 353.872 290.91C353.606 290.759 353.3 290.684 352.99 290.695C352.611 290.706 352.239 290.793 351.897 290.951C351.556 291.108 351.253 291.333 351.009 291.609C350.36 292.36 349.938 293.265 349.789 294.227C349.55 295.042 349.55 295.905 349.789 296.72C349.905 297.076 350.152 297.379 350.484 297.574C350.817 297.769 351.212 297.842 351.596 297.78V297.78Z" fill="#231F20"/>
<path d="M364.447 291.157C364.65 291.656 364.737 292.189 364.704 292.722C364.676 293.397 364.583 294.069 364.426 294.728H358.162C357.994 295.457 358.053 296.217 358.333 296.915C358.486 297.189 358.722 297.413 359.011 297.56C359.301 297.707 359.631 297.768 359.958 297.737C360.322 297.737 360.682 297.667 361.016 297.533C361.35 297.399 361.652 297.202 361.903 296.955C362.221 296.651 362.482 296.298 362.673 295.912H364.084C363.936 296.302 363.735 296.673 363.485 297.015C363.225 297.379 362.916 297.709 362.566 297.998C362.054 298.43 361.438 298.74 360.77 298.901C360.377 298.982 359.976 299.022 359.573 299.021C359.069 299.051 358.565 298.95 358.117 298.731C357.669 298.512 357.293 298.182 357.029 297.778C356.723 297.267 356.527 296.704 356.454 296.123C356.38 295.541 356.431 294.951 356.602 294.387C356.837 293.08 357.476 291.866 358.44 290.897C358.84 290.475 359.331 290.137 359.88 289.906C360.429 289.674 361.024 289.554 361.625 289.553C362.22 289.557 362.803 289.709 363.314 289.994C363.82 290.251 364.219 290.661 364.447 291.157V291.157ZM363.207 293.505C363.317 292.988 363.317 292.456 363.207 291.94C363.103 291.595 362.872 291.297 362.554 291.099C362.237 290.9 361.855 290.814 361.476 290.857C360.79 290.872 360.138 291.138 359.659 291.599C359.08 292.147 358.693 292.846 358.547 293.605L363.207 293.505Z" fill="#231F20"/>
<path d="M331.455 306.161H336.017C336.501 306.08 336.995 306.167 337.431 306.41C337.866 306.653 338.221 307.039 338.443 307.513C338.672 308.093 338.719 308.739 338.579 309.351C338.502 309.953 338.282 310.522 337.942 311.004C337.602 311.485 337.153 311.862 336.638 312.098C337.052 312.291 337.418 312.588 337.706 312.964C337.907 313.305 338.039 313.689 338.093 314.09C338.147 314.491 338.12 314.9 338.016 315.289C337.848 316.395 337.316 317.396 336.52 318.108C335.723 318.819 334.717 319.191 333.688 319.155H329.184L331.455 306.161ZM333.94 317.55C334.307 317.56 334.671 317.482 335.006 317.321C335.342 317.161 335.641 316.921 335.881 316.62C336.195 316.213 336.408 315.726 336.502 315.204C336.617 314.846 336.609 314.454 336.481 314.102C336.352 313.749 336.112 313.458 335.804 313.281C335.353 313.085 334.871 312.991 334.387 313.007H331.669L330.854 317.55H333.94ZM334.484 311.612C334.991 311.634 335.497 311.525 335.959 311.295C336.267 311.137 336.531 310.894 336.725 310.59C336.919 310.286 337.036 309.932 337.065 309.563C337.173 309.253 337.177 308.912 337.078 308.6C336.978 308.287 336.782 308.022 336.522 307.851C336.08 307.68 335.612 307.601 335.144 307.619H332.601L331.999 311.612H334.484Z" fill="#231F20"/>
<path d="M347.932 314.242C347.7 315.536 347.112 316.751 346.227 317.767C345.814 318.222 345.296 318.584 344.713 318.824C344.13 319.064 343.496 319.177 342.86 319.153C342.363 319.182 341.868 319.083 341.426 318.867C340.985 318.65 340.615 318.325 340.355 317.925C339.829 316.896 339.703 315.726 339.998 314.618C340.209 313.275 340.839 312.021 341.808 311.014C342.204 310.595 342.69 310.26 343.235 310.032C343.779 309.803 344.369 309.686 344.965 309.687C345.452 309.666 345.937 309.757 346.378 309.954C346.818 310.151 347.2 310.447 347.49 310.816C347.815 311.326 348.023 311.894 348.099 312.485C348.175 313.075 348.118 313.674 347.932 314.242V314.242ZM346.438 314.242C346.585 313.589 346.585 312.914 346.438 312.262C346.356 311.875 346.122 311.531 345.782 311.3C345.443 311.069 345.023 310.967 344.607 311.014C344.19 311.005 343.778 311.097 343.409 311.281C343.041 311.465 342.729 311.734 342.502 312.064C341.953 312.813 341.58 313.663 341.408 314.559C341.22 315.35 341.279 316.175 341.576 316.935C341.711 317.241 341.948 317.498 342.252 317.666C342.556 317.834 342.91 317.904 343.26 317.866C343.684 317.872 344.101 317.773 344.471 317.578C344.841 317.383 345.149 317.1 345.365 316.757C345.889 315.998 346.254 315.151 346.438 314.262V314.242Z" fill="#231F20"/>
<path d="M349.137 309.684H351.23L352.721 312.989L355.632 309.684H357.605L353.371 314.211L355.777 319.011H353.708L352.096 315.495L348.992 319.158H346.947L351.374 314.358L349.137 309.684Z" fill="#231F20"/>
<path d="M364.447 311.289C364.65 311.788 364.737 312.321 364.704 312.854C364.676 313.529 364.583 314.2 364.426 314.86H358.162C357.972 315.587 358.031 316.353 358.333 317.047C358.481 317.319 358.714 317.543 359 317.689C359.286 317.836 359.612 317.899 359.936 317.869C360.3 317.869 360.66 317.799 360.994 317.665C361.329 317.53 361.63 317.334 361.882 317.087C362.2 316.783 362.46 316.43 362.651 316.043H364.062C363.928 316.439 363.726 316.812 363.464 317.147C363.212 317.51 362.91 317.84 362.566 318.13C362.05 318.569 361.425 318.879 360.749 319.033C360.355 319.113 359.954 319.154 359.551 319.153C359.047 319.182 358.543 319.082 358.095 318.863C357.647 318.644 357.271 318.314 357.007 317.909C356.407 316.872 356.261 315.655 356.601 314.519C356.82 313.211 357.453 311.994 358.418 311.028C358.821 310.604 359.315 310.265 359.868 310.033C360.421 309.801 361.02 309.682 361.625 309.684C362.213 309.688 362.789 309.84 363.293 310.126C363.805 310.382 364.211 310.791 364.447 311.289ZM363.186 313.636C363.295 313.12 363.295 312.588 363.186 312.071C363.074 311.728 362.837 311.431 362.517 311.234C362.197 311.036 361.814 310.949 361.433 310.988C360.747 311.004 360.095 311.27 359.616 311.73C359.036 312.275 358.654 312.977 358.525 313.736L363.186 313.636Z" fill="#231F20"/>
<path d="M367.239 315.877C367.159 316.26 367.201 316.659 367.359 317.016C367.598 317.496 368.136 317.735 368.974 317.735C369.463 317.749 369.947 317.624 370.369 317.376C370.573 317.264 370.749 317.107 370.884 316.916C371.019 316.726 371.108 316.507 371.146 316.277C371.186 316.117 371.179 315.949 371.126 315.793C371.072 315.637 370.976 315.5 370.847 315.398C370.513 315.217 370.158 315.076 369.791 314.978L368.774 314.778C368.279 314.655 367.812 314.438 367.399 314.139C367.153 313.949 366.969 313.689 366.87 313.394C366.77 313.099 366.76 312.781 366.841 312.481C366.992 311.689 367.424 310.98 368.057 310.483C368.721 309.96 369.545 309.685 370.389 309.703C370.856 309.644 371.33 309.724 371.752 309.934C372.174 310.143 372.525 310.473 372.761 310.882C372.998 311.387 373.061 311.956 372.94 312.501H371.684C371.722 312.185 371.667 311.865 371.525 311.581C371.306 311.182 370.807 310.982 370.05 310.982C369.619 310.96 369.192 311.079 368.834 311.322C368.553 311.525 368.355 311.823 368.276 312.161C368.228 312.333 368.235 312.516 368.295 312.685C368.356 312.853 368.468 312.998 368.615 313.1C368.857 313.28 369.136 313.403 369.432 313.46L370.269 313.699C370.909 313.839 371.517 314.097 372.063 314.459C372.289 314.692 372.447 314.983 372.52 315.3C372.594 315.616 372.581 315.947 372.482 316.257C372.328 317.038 371.913 317.742 371.306 318.255C370.569 318.867 369.63 319.181 368.675 319.134C368.239 319.193 367.795 319.142 367.384 318.985C366.973 318.828 366.608 318.57 366.323 318.235C365.929 317.56 365.801 316.762 365.964 315.997L367.239 315.877Z" fill="#231F20"/>
<path d="M279.027 295C277.429 296.444 275.533 297.518 273.473 298.147C272.821 298.352 272.152 298.5 271.474 298.591L275.935 314.141C276.12 314.659 276.046 315.77 273.64 317.584C273.64 317.584 275.306 315.455 274.454 314.844C273.603 314.233 270.919 316.066 269.882 317.028C270.325 317.693 270.934 318.23 271.648 318.587C272.362 318.944 273.157 319.109 273.955 319.065C276.229 318.918 278.413 318.121 280.248 316.769C282.25 315.424 284.11 313.879 285.802 312.16L279.027 295Z" fill="#231F20"/>
<path d="M280.045 316.177C281.853 314.951 283.55 313.57 285.117 312.049L283.081 306.921C281.536 308.36 279.82 309.604 277.971 310.623L280.045 316.177Z" fill="white"/>
<path d="M280.822 301.146L278.786 296C277.258 297.224 275.512 298.148 273.64 298.721L275.713 304.459C277.58 303.631 279.304 302.512 280.822 301.146V301.146Z" fill="white"/>
<path d="M277.972 310.66L275.713 304.459C274.942 304.79 274.143 305.051 273.325 305.237L275.176 311.827C276.144 311.531 277.08 311.14 277.972 310.66V310.66Z" fill="white"/>
<path d="M265.902 295.759C263.922 295.764 261.952 296.051 260.053 296.61C257.474 297.351 255.074 298.611 253 300.313L261.534 322.193C263.566 320.033 265.79 318.063 268.179 316.306C269.982 314.821 272.173 313.884 274.491 313.604C274.888 313.6 275.282 313.663 275.658 313.789L267.716 295.851C267.1 295.814 266.482 295.814 265.865 295.851L265.902 295.759Z" fill="#231F20"/>
<path d="M265.902 296.37C264.023 296.375 262.154 296.643 260.349 297.166L263.014 303.589C265.137 302.642 267.39 302.019 269.697 301.738L267.328 296.407C266.854 296.367 266.378 296.355 265.902 296.37V296.37Z" fill="white"/>
<path d="M265.68 310.198L268.012 315.751C269.853 314.214 272.107 313.254 274.491 312.993H274.639L272.288 307.68C269.917 307.982 267.651 308.845 265.68 310.198V310.198Z" fill="white"/>
<path d="M262.959 303.589C260.609 304.529 258.394 305.773 256.369 307.291L259.238 314.548C261.29 312.961 263.442 311.508 265.68 310.198L262.959 303.589Z" fill="white"/>
<path d="M470.239 322.285H479.55C481.734 322.285 483.505 324.055 483.505 326.239V335.55C483.505 337.734 481.734 339.505 479.55 339.505H470.239C468.055 339.505 466.285 337.734 466.285 335.55V326.239C466.285 324.055 468.055 322.285 470.239 322.285Z" fill="#EA1A4D" stroke="white" stroke-width="0.569406"/>
<path d="M468.06 329.726V328.411C468.67 328.383 469.097 328.343 469.342 328.288C469.73 328.203 470.047 328.031 470.291 327.773C470.458 327.597 470.584 327.362 470.67 327.068C470.72 326.892 470.745 326.761 470.745 326.675H472.351V336.505H470.372V329.726H468.06ZM477.198 333.393C477.198 333.922 477.341 334.353 477.625 334.688C477.91 335.022 478.272 335.19 478.71 335.19C479.139 335.19 479.476 335.029 479.72 334.708C479.969 334.383 480.093 333.963 480.093 333.447C480.093 332.873 479.953 332.435 479.673 332.132C479.393 331.825 479.049 331.671 478.642 331.671C478.312 331.671 478.021 331.771 477.768 331.969C477.388 332.263 477.198 332.738 477.198 333.393ZM479.917 329.149C479.917 328.991 479.856 328.817 479.734 328.627C479.526 328.32 479.212 328.166 478.791 328.166C478.163 328.166 477.716 328.519 477.449 329.224C477.305 329.613 477.205 330.187 477.151 330.946C477.39 330.661 477.668 330.453 477.985 330.322C478.301 330.191 478.663 330.126 479.069 330.126C479.942 330.126 480.656 330.422 481.212 331.014C481.772 331.606 482.052 332.363 482.052 333.285C482.052 334.202 481.779 335.011 481.232 335.711C480.685 336.412 479.835 336.762 478.683 336.762C477.445 336.762 476.532 336.245 475.944 335.21C475.488 334.401 475.26 333.357 475.26 332.078C475.26 331.328 475.291 330.718 475.354 330.248C475.467 329.412 475.687 328.716 476.012 328.16C476.292 327.685 476.658 327.303 477.11 327.014C477.567 326.725 478.111 326.58 478.744 326.58C479.657 326.58 480.384 326.815 480.927 327.285C481.469 327.751 481.774 328.372 481.842 329.149H479.917Z" fill="white"/>
<path d="M401.239 193.285H410.55C412.734 193.285 414.505 195.055 414.505 197.239V206.55C414.505 208.734 412.734 210.505 410.55 210.505H401.239C399.055 210.505 397.285 208.734 397.285 206.55V197.239C397.285 195.055 399.055 193.285 401.239 193.285Z" fill="#EA1A4D" stroke="white" stroke-width="0.569406"/>
<path d="M399.06 200.726V199.411C399.67 199.383 400.097 199.343 400.342 199.288C400.73 199.203 401.047 199.031 401.291 198.773C401.458 198.597 401.584 198.362 401.67 198.068C401.72 197.892 401.745 197.761 401.745 197.675H403.351V207.505H401.372V200.726H399.06ZM408.117 204.874C408.194 205.295 408.341 205.62 408.558 205.851C408.775 206.077 409.091 206.19 409.507 206.19C409.986 206.19 410.35 206.022 410.598 205.688C410.851 205.349 410.978 204.924 410.978 204.413C410.978 203.912 410.86 203.489 410.625 203.146C410.39 202.798 410.024 202.624 409.527 202.624C409.292 202.624 409.089 202.653 408.917 202.712C408.614 202.82 408.386 203.021 408.232 203.315L406.497 203.234L407.188 197.804H412.605V199.444H408.585L408.232 201.593C408.531 201.399 408.763 201.27 408.93 201.207C409.211 201.103 409.552 201.051 409.954 201.051C410.768 201.051 411.477 201.324 412.083 201.871C412.688 202.418 412.991 203.214 412.991 204.257C412.991 205.166 412.7 205.977 412.117 206.691C411.534 207.405 410.661 207.762 409.5 207.762C408.564 207.762 407.796 207.511 407.195 207.01C406.594 206.508 406.26 205.796 406.192 204.874H408.117Z" fill="white"/>
<path d="M460.239 103.285H469.55C471.734 103.285 473.505 105.055 473.505 107.239V116.55C473.505 118.734 471.734 120.505 469.55 120.505H460.239C458.055 120.505 456.285 118.734 456.285 116.55V107.239C456.285 105.055 458.055 103.285 460.239 103.285Z" fill="#EA1A4D" stroke="white" stroke-width="0.569406"/>
<path d="M458.06 110.726V109.411C458.67 109.383 459.097 109.343 459.342 109.288C459.73 109.203 460.047 109.031 460.291 108.773C460.458 108.597 460.584 108.362 460.67 108.068C460.72 107.892 460.745 107.761 460.745 107.675H462.351V117.505H460.372V110.726H458.06ZM472.086 115.39H470.974V117.505H469.083V115.39H465.192V113.702L468.805 107.736H470.974V113.878H472.086V115.39ZM469.083 113.878V109.634L466.622 113.878H469.083Z" fill="white"/>
<path d="M437.239 60.2847H446.55C448.734 60.2847 450.505 62.0551 450.505 64.2391V73.5502C450.505 75.7341 448.734 77.5045 446.55 77.5045H437.239C435.055 77.5045 433.285 75.7341 433.285 73.5502V64.2391C433.285 62.0551 435.055 60.2847 437.239 60.2847Z" fill="#EA1A4D" stroke="white" stroke-width="0.569406"/>
<path d="M435.06 67.7256V66.4105C435.67 66.3834 436.097 66.3427 436.342 66.2885C436.73 66.2026 437.047 66.0309 437.291 65.7733C437.458 65.597 437.584 65.362 437.67 65.0683C437.72 64.892 437.745 64.761 437.745 64.6751H439.351V74.5046H437.372V67.7256H435.06ZM444.09 71.488C444.09 71.8812 444.153 72.2066 444.28 72.4642C444.515 72.9387 444.942 73.176 445.561 73.176C445.941 73.176 446.27 73.0472 446.551 72.7896C446.835 72.5274 446.978 72.1523 446.978 71.6642C446.978 71.018 446.716 70.5864 446.191 70.3695C445.893 70.2474 445.423 70.1864 444.781 70.1864V68.8035C445.41 68.7945 445.848 68.7335 446.096 68.6205C446.526 68.4307 446.74 68.0465 446.74 67.468C446.74 67.0929 446.63 66.7879 446.408 66.5529C446.191 66.3179 445.884 66.2004 445.486 66.2004C445.03 66.2004 444.693 66.345 444.476 66.6342C444.264 66.9235 444.162 67.3099 444.171 67.7934H442.368C442.386 67.3053 442.47 66.8421 442.619 66.4037C442.777 66.0196 443.026 65.6648 443.365 65.3394C443.618 65.1089 443.918 64.9327 444.266 64.8107C444.614 64.6887 445.041 64.6276 445.547 64.6276C446.487 64.6276 447.244 64.8717 447.818 65.3598C448.397 65.8433 448.686 66.4941 448.686 67.3121C448.686 67.8906 448.514 68.3787 448.171 68.7764C447.954 69.0249 447.728 69.1944 447.493 69.2848C447.669 69.2848 447.922 69.4362 448.252 69.739C448.745 70.1955 448.991 70.8191 448.991 71.61C448.991 72.4416 448.702 73.1737 448.123 73.8064C447.549 74.4346 446.698 74.7487 445.568 74.7487C444.176 74.7487 443.209 74.2945 442.666 73.3861C442.382 72.9025 442.223 72.2698 442.192 71.488H444.09Z" fill="white"/>
<path d="M354.239 54.2847H363.55C365.734 54.2847 367.505 56.0551 367.505 58.2391V67.5502C367.505 69.7341 365.734 71.5045 363.55 71.5045H354.239C352.055 71.5045 350.285 69.7341 350.285 67.5502V58.2391C350.285 56.0551 352.055 54.2847 354.239 54.2847Z" fill="#EA1A4D" stroke="white" stroke-width="0.569406"/>
<path d="M352.06 61.7256V60.4105C352.67 60.3834 353.097 60.3427 353.342 60.2885C353.73 60.2026 354.047 60.0309 354.291 59.7733C354.458 59.597 354.584 59.362 354.67 59.0683C354.72 58.892 354.745 58.761 354.745 58.6751H356.351V68.5046H354.372V61.7256H352.06ZM359.26 68.5046C359.278 67.7996 359.429 67.1556 359.714 66.5726C359.989 65.9173 360.64 65.2236 361.666 64.4915C362.556 63.8542 363.133 63.3978 363.395 63.1221C363.797 62.6928 363.998 62.2228 363.998 61.7121C363.998 61.2963 363.883 60.9506 363.652 60.6749C363.422 60.3992 363.092 60.2614 362.663 60.2614C362.075 60.2614 361.675 60.4806 361.463 60.9189C361.341 61.172 361.268 61.5742 361.246 62.1256H359.368C359.4 61.2895 359.551 60.6139 359.822 60.0987C360.337 59.118 361.253 58.6276 362.568 58.6276C363.607 58.6276 364.434 58.9169 365.049 59.4954C365.663 60.0693 365.971 60.8308 365.971 61.7799C365.971 62.5075 365.754 63.1538 365.32 63.7187C365.035 64.0938 364.568 64.5118 363.917 64.9728L363.144 65.5219C362.66 65.8653 362.328 66.1139 362.147 66.2676C361.971 66.4212 361.822 66.5997 361.7 66.8031H365.991V68.5046H359.26Z" fill="white"/>
<path d="M322.239 132.285H331.55C333.734 132.285 335.505 134.055 335.505 136.239V145.55C335.505 147.734 333.734 149.505 331.55 149.505H322.239C320.055 149.505 318.285 147.734 318.285 145.55V136.239C318.285 134.055 320.055 132.285 322.239 132.285Z" fill="#EA1A4D" stroke="white" stroke-width="0.569406"/>
<path d="M320.44 139.726V138.411C321.05 138.383 321.477 138.343 321.721 138.288C322.11 138.203 322.426 138.031 322.67 137.773C322.837 137.597 322.964 137.362 323.05 137.068C323.1 136.892 323.124 136.761 323.124 136.675H324.731V146.505H322.752V139.726H320.44ZM327.409 139.726V138.411C328.019 138.383 328.446 138.343 328.69 138.288C329.079 138.203 329.395 138.031 329.639 137.773C329.806 137.597 329.933 137.362 330.019 137.068C330.068 136.892 330.093 136.761 330.093 136.675H331.7V146.505H329.72V139.726H327.409Z" fill="white"/>
<path d="M274.239 167.285H283.55C285.734 167.285 287.505 169.055 287.505 171.239V180.55C287.505 182.734 285.734 184.505 283.55 184.505H274.239C272.055 184.505 270.285 182.734 270.285 180.55V171.239C270.285 169.055 272.055 167.285 274.239 167.285Z" fill="#EA1A4D" stroke="white" stroke-width="0.569406"/>
<path d="M272.06 174.726V173.411C272.67 173.383 273.097 173.343 273.342 173.288C273.73 173.203 274.047 173.031 274.291 172.773C274.458 172.597 274.584 172.362 274.67 172.068C274.72 171.892 274.745 171.761 274.745 171.675H276.351V181.505H274.372V174.726H272.06ZM281.232 176.685C281.232 177.815 281.325 178.68 281.51 179.281C281.695 179.878 282.075 180.176 282.649 180.176C283.223 180.176 283.598 179.878 283.774 179.281C283.955 178.68 284.046 177.815 284.046 176.685C284.046 175.501 283.955 174.624 283.774 174.055C283.598 173.485 283.223 173.2 282.649 173.2C282.075 173.2 281.695 173.485 281.51 174.055C281.325 174.624 281.232 175.501 281.232 176.685ZM282.649 171.607C283.901 171.607 284.778 172.048 285.279 172.929C285.785 173.81 286.039 175.062 286.039 176.685C286.039 178.307 285.785 179.557 285.279 180.434C284.778 181.31 283.901 181.749 282.649 181.749C281.397 181.749 280.518 181.31 280.012 180.434C279.51 179.557 279.26 178.307 279.26 176.685C279.26 175.062 279.51 173.81 280.012 172.929C280.518 172.048 281.397 171.607 282.649 171.607Z" fill="white"/>
<path d="M240.239 121.285H249.55C251.734 121.285 253.505 123.055 253.505 125.239V134.55C253.505 136.734 251.734 138.505 249.55 138.505H240.239C238.055 138.505 236.285 136.734 236.285 134.55V125.239C236.285 123.055 238.055 121.285 240.239 121.285Z" fill="#EA1A4D" stroke="white" stroke-width="0.569406"/>
<path d="M241.375 129.132C241.375 128.079 241.678 127.227 242.284 126.577C242.894 125.921 243.685 125.594 244.656 125.594C246.152 125.594 247.178 126.256 247.734 127.58C248.05 128.33 248.208 129.318 248.208 130.542C248.208 131.731 248.057 132.723 247.754 133.518C247.176 135.032 246.114 135.789 244.568 135.789C243.831 135.789 243.169 135.572 242.582 135.139C241.994 134.7 241.658 134.063 241.572 133.227H243.497C243.542 133.516 243.664 133.751 243.863 133.932C244.062 134.113 244.326 134.203 244.656 134.203C245.293 134.203 245.741 133.851 245.998 133.146C246.139 132.757 246.227 132.19 246.263 131.444C246.087 131.665 245.899 131.835 245.7 131.952C245.339 132.169 244.894 132.278 244.365 132.278C243.583 132.278 242.889 132.009 242.284 131.471C241.678 130.929 241.375 130.149 241.375 129.132ZM244.785 130.705C245.052 130.705 245.303 130.628 245.538 130.475C245.976 130.194 246.195 129.709 246.195 129.017C246.195 128.461 246.064 128.021 245.802 127.695C245.544 127.37 245.19 127.207 244.738 127.207C244.408 127.207 244.125 127.3 243.89 127.485C243.52 127.774 243.334 128.265 243.334 128.956C243.334 129.539 243.452 129.977 243.687 130.271C243.926 130.56 244.292 130.705 244.785 130.705Z" fill="white"/>
<path d="M207.239 82.2847H216.55C218.734 82.2847 220.505 84.0551 220.505 86.2391V95.5502C220.505 97.7341 218.734 99.5045 216.55 99.5045H207.239C205.055 99.5045 203.285 97.7341 203.285 95.5502V86.2391C203.285 84.0551 205.055 82.2847 207.239 82.2847Z" fill="#EA1A4D" stroke="white" stroke-width="0.569406"/>
<path d="M210.334 93.6507C210.334 94.1342 210.459 94.5094 210.707 94.776C210.96 95.0426 211.308 95.176 211.751 95.176C212.194 95.176 212.54 95.0426 212.788 94.776C213.041 94.5094 213.168 94.1342 213.168 93.6507C213.168 93.149 213.039 92.7694 212.782 92.5118C212.528 92.2497 212.185 92.1186 211.751 92.1186C211.317 92.1186 210.972 92.2497 210.714 92.5118C210.461 92.7694 210.334 93.149 210.334 93.6507ZM208.328 93.7795C208.328 93.2281 208.452 92.7287 208.701 92.2813C208.954 91.8339 209.322 91.4972 209.806 91.2713C209.331 90.9549 209.021 90.6137 208.877 90.2476C208.737 89.877 208.667 89.5313 208.667 89.2104C208.667 88.4964 208.936 87.8885 209.473 87.3869C210.011 86.8807 210.77 86.6276 211.751 86.6276C212.732 86.6276 213.491 86.8807 214.029 87.3869C214.567 87.8885 214.836 88.4964 214.836 89.2104C214.836 89.5313 214.763 89.877 214.619 90.2476C214.479 90.6137 214.171 90.9323 213.697 91.2035C214.18 91.4746 214.544 91.8339 214.788 92.2813C215.032 92.7287 215.154 93.2281 215.154 93.7795C215.154 94.6065 214.847 95.3115 214.232 95.8945C213.622 96.473 212.768 96.7622 211.67 96.7622C210.572 96.7622 209.74 96.473 209.175 95.8945C208.61 95.3115 208.328 94.6065 208.328 93.7795ZM210.511 89.4274C210.511 89.7844 210.619 90.0759 210.836 90.3019C211.057 90.5278 211.362 90.6408 211.751 90.6408C212.144 90.6408 212.447 90.5278 212.66 90.3019C212.876 90.0759 212.985 89.7844 212.985 89.4274C212.985 89.0387 212.876 88.7359 212.66 88.519C212.447 88.2975 212.144 88.1868 211.751 88.1868C211.362 88.1868 211.057 88.2975 210.836 88.519C210.619 88.7359 210.511 89.0387 210.511 89.4274Z" fill="white"/>
<path d="M195.239 4.2847H204.55C206.734 4.2847 208.505 6.05513 208.505 8.23906V17.5502C208.505 19.7341 206.734 21.5045 204.55 21.5045H195.239C193.055 21.5045 191.285 19.7341 191.285 17.5502V8.23906C191.285 6.05513 193.055 4.2847 195.239 4.2847Z" fill="#EA1A4D" stroke="white" stroke-width="0.569406"/>
<path d="M203.283 10.3156C202.994 10.6003 202.592 11.1088 202.076 11.8409C201.561 12.5685 201.13 13.321 200.782 14.0983C200.506 14.7084 200.257 15.4541 200.036 16.3354C199.814 17.2166 199.704 17.9397 199.704 18.5046H197.697C197.756 16.7421 198.334 14.9095 199.433 13.0069C200.142 11.8273 200.736 11.0048 201.215 10.5393H196.314L196.341 8.80389H203.283V10.3156Z" fill="white"/>
<path d="M155.239 167.285H164.55C166.734 167.285 168.505 169.055 168.505 171.239V180.55C168.505 182.734 166.734 184.505 164.55 184.505H155.239C153.055 184.505 151.285 182.734 151.285 180.55V171.239C151.285 169.055 153.055 167.285 155.239 167.285Z" fill="#EA1A4D" stroke="white" stroke-width="0.569406"/>
<path d="M158.334 178.393C158.334 178.922 158.477 179.353 158.761 179.688C159.046 180.022 159.408 180.19 159.846 180.19C160.275 180.19 160.612 180.029 160.856 179.708C161.105 179.383 161.229 178.963 161.229 178.447C161.229 177.873 161.089 177.435 160.809 177.132C160.528 176.825 160.185 176.671 159.778 176.671C159.448 176.671 159.157 176.771 158.904 176.969C158.524 177.263 158.334 177.738 158.334 178.393ZM161.053 174.149C161.053 173.991 160.992 173.817 160.87 173.627C160.662 173.32 160.348 173.166 159.927 173.166C159.299 173.166 158.852 173.519 158.585 174.224C158.441 174.613 158.341 175.187 158.287 175.946C158.526 175.661 158.804 175.453 159.121 175.322C159.437 175.191 159.799 175.126 160.205 175.126C161.078 175.126 161.792 175.422 162.348 176.014C162.908 176.606 163.188 177.363 163.188 178.285C163.188 179.202 162.915 180.011 162.368 180.711C161.821 181.412 160.971 181.762 159.819 181.762C158.581 181.762 157.668 181.245 157.08 180.21C156.624 179.401 156.396 178.357 156.396 177.078C156.396 176.328 156.427 175.718 156.49 175.248C156.603 174.412 156.823 173.716 157.148 173.16C157.428 172.685 157.794 172.303 158.246 172.014C158.703 171.725 159.247 171.58 159.88 171.58C160.793 171.58 161.52 171.815 162.063 172.285C162.605 172.751 162.91 173.372 162.978 174.149H161.053Z" fill="white"/>
<path d="M111.239 37.2847H120.55C122.734 37.2847 124.505 39.0551 124.505 41.2391V50.5502C124.505 52.7341 122.734 54.5045 120.55 54.5045H111.239C109.055 54.5045 107.285 52.7341 107.285 50.5502V41.2391C107.285 39.0551 109.055 37.2847 111.239 37.2847Z" fill="#EA1A4D" stroke="white" stroke-width="0.569406"/>
<path d="M114.253 48.8744C114.33 49.2947 114.477 49.6201 114.694 49.8506C114.911 50.0765 115.227 50.1895 115.643 50.1895C116.122 50.1895 116.486 50.0223 116.734 49.6879C116.987 49.3489 117.114 48.9241 117.114 48.4134C117.114 47.9118 116.996 47.4892 116.761 47.1457C116.526 46.7978 116.16 46.6238 115.663 46.6238C115.428 46.6238 115.225 46.6531 115.053 46.7119C114.75 46.8204 114.522 47.0215 114.368 47.3152L112.633 47.2339L113.324 41.8039H118.741V43.4444H114.721L114.368 45.5934C114.667 45.399 114.899 45.2702 115.066 45.207C115.347 45.103 115.688 45.051 116.09 45.051C116.904 45.051 117.613 45.3245 118.219 45.8713C118.824 46.4181 119.127 47.2135 119.127 48.2575C119.127 49.1659 118.836 49.9771 118.253 50.6912C117.67 51.4052 116.797 51.7622 115.636 51.7622C114.7 51.7622 113.932 51.5114 113.331 51.0098C112.73 50.5081 112.396 49.7963 112.328 48.8744H114.253Z" fill="white"/>
<path d="M75.2391 87.2847H84.5502C86.7341 87.2847 88.5045 89.0551 88.5045 91.2391V100.55C88.5045 102.734 86.7341 104.505 84.5502 104.505H75.2391C73.0551 104.505 71.2847 102.734 71.2847 100.55V91.2391C71.2847 89.0551 73.0551 87.2847 75.2391 87.2847Z" fill="#EA1A4D" stroke="white" stroke-width="0.569406"/>
<path d="M83.222 99.3896H82.1102V101.505H80.2189V99.3896H76.3278V97.7016L79.941 91.7361H82.1102V97.8779H83.222V99.3896ZM80.2189 97.8779V93.6342L77.7581 97.8779H80.2189Z" fill="white"/>
<path d="M77.2391 226.285H86.5502C88.7341 226.285 90.5045 228.055 90.5045 230.239V239.55C90.5045 241.734 88.7341 243.505 86.5502 243.505H77.2391C75.0551 243.505 73.2847 241.734 73.2847 239.55V230.239C73.2847 228.055 75.0551 226.285 77.2391 226.285Z" fill="#EA1A4D" stroke="white" stroke-width="0.569406"/>
<path d="M80.2259 237.488C80.2259 237.881 80.2891 238.207 80.4157 238.464C80.6507 238.939 81.0778 239.176 81.6969 239.176C82.0765 239.176 82.4065 239.047 82.6866 238.79C82.9714 238.527 83.1137 238.152 83.1137 237.664C83.1137 237.018 82.8516 236.586 82.3274 236.369C82.0291 236.247 81.5591 236.186 80.9173 236.186V234.804C81.5455 234.794 81.9839 234.733 82.2325 234.62C82.6618 234.431 82.8765 234.047 82.8765 233.468C82.8765 233.093 82.7657 232.788 82.5443 232.553C82.3274 232.318 82.02 232.2 81.6223 232.2C81.1659 232.2 80.8292 232.345 80.6123 232.634C80.3999 232.923 80.2982 233.31 80.3072 233.793H78.504C78.5221 233.305 78.6057 232.842 78.7548 232.404C78.913 232.02 79.1616 231.665 79.5005 231.339C79.7536 231.109 80.0541 230.933 80.4021 230.811C80.7501 230.689 81.1772 230.628 81.6834 230.628C82.6234 230.628 83.3804 230.872 83.9543 231.36C84.5328 231.843 84.822 232.494 84.822 233.312C84.822 233.891 84.6503 234.379 84.3068 234.776C84.0899 235.025 83.8639 235.194 83.6289 235.285C83.8052 235.285 84.0583 235.436 84.3882 235.739C84.8808 236.195 85.1271 236.819 85.1271 237.61C85.1271 238.442 84.8379 239.174 84.2594 239.806C83.6854 240.435 82.8335 240.749 81.7037 240.749C80.3117 240.749 79.3446 240.294 78.8023 239.386C78.5176 238.903 78.3594 238.27 78.3278 237.488H80.2259Z" fill="white"/>
<path d="M129.239 256.285H138.55C140.734 256.285 142.505 258.055 142.505 260.239V269.55C142.505 271.734 140.734 273.505 138.55 273.505H129.239C127.055 273.505 125.285 271.734 125.285 269.55V260.239C125.285 258.055 127.055 256.285 129.239 256.285Z" fill="#EA1A4D" stroke="white" stroke-width="0.569406"/>
<path d="M130.396 270.505C130.414 269.8 130.565 269.156 130.85 268.573C131.125 267.917 131.776 267.224 132.802 266.491C133.692 265.854 134.269 265.398 134.531 265.122C134.933 264.693 135.134 264.223 135.134 263.712C135.134 263.296 135.019 262.951 134.788 262.675C134.558 262.399 134.228 262.261 133.799 262.261C133.211 262.261 132.811 262.481 132.599 262.919C132.477 263.172 132.404 263.574 132.382 264.126H130.504C130.536 263.29 130.687 262.614 130.958 262.099C131.473 261.118 132.389 260.628 133.704 260.628C134.743 260.628 135.57 260.917 136.185 261.495C136.799 262.069 137.107 262.831 137.107 263.78C137.107 264.507 136.89 265.154 136.456 265.719C136.171 266.094 135.703 266.512 135.053 266.973L134.28 267.522C133.796 267.865 133.464 268.114 133.283 268.268C133.107 268.421 132.958 268.6 132.836 268.803H137.127V270.505H130.396Z" fill="white"/>
<path d="M111.239 323.285H120.55C122.734 323.285 124.505 325.055 124.505 327.239V336.55C124.505 338.734 122.734 340.505 120.55 340.505H111.239C109.055 340.505 107.285 338.734 107.285 336.55V327.239C107.285 325.055 109.055 323.285 111.239 323.285Z" fill="#EA1A4D" stroke="white" stroke-width="0.569406"/>
<path d="M112.924 330.726V329.411C113.534 329.383 113.961 329.343 114.206 329.288C114.594 329.203 114.911 329.031 115.155 328.773C115.322 328.597 115.448 328.362 115.534 328.068C115.584 327.892 115.609 327.761 115.609 327.675H117.215V337.505H115.236V330.726H112.924Z" fill="white"/>
<mask id="path-55-outside-1" maskUnits="userSpaceOnUse" x="48.9995" y="28" width="459" height="331" fill="black">
<rect fill="white" x="48.9995" y="28" width="459" height="331"/>
<path fill-rule="evenodd" clip-rule="evenodd" d="M196.493 38.8287C191.04 40.825 186.58 46.075 184.965 50.3837C184.624 51.2933 184.204 53.0886 183.744 55.8629C183.298 58.553 182.855 61.9084 182.403 65.7755C181.738 71.461 181.069 78.1324 180.354 85.2604C180.096 87.84 179.831 90.4795 179.558 93.1536C177.531 113.029 175.049 135.107 171.301 147.04C169.767 151.925 167.813 155.572 165.312 157.92C162.636 160.434 159.485 161.298 156.367 160.742C153.499 160.23 151.049 158.592 149.186 156.908C147.279 155.184 145.671 153.127 144.485 151.253L144.285 150.937L144.147 150.589C138.27 135.777 125.12 101.491 119.828 83.4859C117.447 75.3847 113.813 72.0086 110.863 70.6385C107.785 69.2093 104.718 69.613 102.969 70.3426L102.814 70.4071L102.654 70.4585C96.5733 72.4144 81.1428 77.5037 68.1222 82.1944C62.7496 84.1299 60.8934 87.1092 60.2759 89.7116C59.586 92.619 60.3025 95.7314 61.2192 97.6494L61.3185 97.857L61.3932 98.0747C70.9824 125.99 91.7443 186.572 98.0303 205.443C101.488 215.823 110.25 223.371 121.047 229.773C126.404 232.95 132.09 235.748 137.648 238.452C137.974 238.611 138.3 238.769 138.626 238.927C143.783 241.434 148.858 243.902 153.175 246.462C158.068 249.364 161.381 252.705 163.378 256.342C165.386 259.997 165.924 263.695 165.67 267.057C165.176 273.584 161.677 278.925 160.35 280.917C159.83 281.698 159.062 282.365 158.553 282.789C157.933 283.305 157.168 283.882 156.311 284.495C154.591 285.727 152.321 287.236 149.713 288.915C144.487 292.277 137.724 296.432 130.903 300.601C129.707 301.332 128.51 302.063 127.319 302.79C121.691 306.227 116.188 309.588 111.593 312.462C106.257 315.8 102.521 318.258 101.097 319.412C97.2478 324.637 95.6794 328.801 95.344 332.009C95.0114 335.19 95.8577 337.709 97.3755 339.802C100.545 344.174 106.875 346.934 112.273 348H481.166C486.955 347.26 490.615 345.655 492.894 343.848C495.141 342.068 496.286 339.907 496.75 337.536C497.736 332.509 495.654 326.354 493.06 322.043C473.64 291.692 433.181 228.5 426.393 218.049C418.77 206.313 420.919 195.887 423.766 191.456L423.876 191.284L424.003 191.125C431.757 181.399 443.718 166.642 454.404 153.979C459.744 147.651 464.792 141.816 468.848 137.384C470.872 135.172 472.684 133.272 474.181 131.823C474.928 131.099 475.631 130.455 476.265 129.929C476.71 129.56 477.233 129.153 477.789 128.814C486.207 121.431 485.575 111.451 484.226 107.378C480.71 99.4785 471.782 80.5683 463.585 66.7254C455.664 53.3499 448.005 52.6919 446.835 52.9114L446.47 52.98H409.888C391.615 56.9079 383.615 71.183 381.947 77.4906L381.911 77.627L381.865 77.7605C375.981 94.9893 360.674 135.125 346.771 156.529C337.761 170.4 322.732 181.585 308.852 189.486C295.003 197.369 281.633 202.354 275.44 203.447C268.779 204.624 262.422 202.856 257.745 200.087C255.4 198.698 253.353 196.985 251.848 195.106C250.578 193.52 249.471 191.528 249.217 189.326C246.972 183.648 248.501 176.948 250.666 170.292C251.718 167.06 253.034 163.536 254.428 159.805C254.595 159.358 254.763 158.907 254.932 158.454C256.524 154.186 258.214 149.595 259.819 144.615C263.048 134.598 263.549 128.965 262.603 125.117C261.709 121.478 259.353 118.748 254.586 114.932C249.287 110.69 242.508 103.01 236.554 95.0648C230.608 87.1321 225.11 78.4364 222.619 72.0264C220.545 66.6899 219.816 62.1222 219.225 58.416C219.111 57.7018 219.003 57.0196 218.89 56.37C218.2 52.3788 217.378 49.4346 214.771 46.304L214.745 46.2732L214.72 46.242C211.162 41.7906 207.77 39.565 204.823 38.613C201.905 37.6708 199.106 37.8718 196.493 38.8287ZM220.945 41.216C216.662 35.8682 212.05 32.5406 207.281 31.0002C202.473 29.4473 197.833 29.8189 193.742 31.3163C185.788 34.2285 179.784 41.4135 177.474 47.5764C176.834 49.2846 176.314 51.7638 175.852 54.5551C175.375 57.4306 174.914 60.9318 174.457 64.8468C173.784 70.6028 173.105 77.3734 172.388 84.5258C172.13 87.0918 171.868 89.7069 171.599 92.342C169.538 112.553 167.115 133.67 163.669 144.643C162.325 148.922 160.907 151.083 159.836 152.089C158.941 152.929 158.323 152.965 157.773 152.866C156.973 152.724 155.855 152.153 154.551 150.973C153.38 149.915 152.296 148.581 151.439 147.276C145.478 132.235 132.634 98.6861 127.504 81.23C124.652 71.5296 119.784 65.9612 114.232 63.3828C108.894 60.9033 103.545 61.4871 100.057 62.8901C93.8319 64.8946 78.4472 69.9715 65.4108 74.6679C57.703 77.4446 53.782 82.428 52.492 87.8646C51.303 92.8756 52.4626 97.7639 53.897 100.877C63.5229 128.9 84.1843 189.191 90.4403 207.972C94.8309 221.153 105.689 229.967 116.966 236.654C122.645 240.022 128.609 242.951 134.148 245.646C134.438 245.787 134.726 245.927 135.013 246.066C140.28 248.628 145.074 250.959 149.095 253.343C153.031 255.677 155.196 258.063 156.366 260.193C157.527 262.306 157.847 264.416 157.693 266.453C157.378 270.61 155.109 274.339 153.8 276.32C153.748 276.369 153.635 276.474 153.434 276.641C153.026 276.981 152.436 277.431 151.654 277.991C150.096 279.106 147.956 280.532 145.384 282.187C140.248 285.492 133.562 289.6 126.731 293.775C125.542 294.502 124.349 295.23 123.159 295.957C117.532 299.393 111.984 302.781 107.35 305.68C101.904 309.088 97.2882 312.08 95.5009 313.67L95.2 313.938L94.9585 314.26C90.3666 320.387 87.9274 326.012 87.3874 331.177C86.8371 336.441 88.2962 340.909 90.8987 344.498C95.9013 351.398 104.864 354.766 111.165 355.933L111.526 356H481.659L481.901 355.97C488.794 355.126 494.063 353.129 497.863 350.118C501.726 347.057 503.801 343.156 504.601 339.075C506.142 331.214 502.943 322.93 499.881 317.862L499.854 317.818L499.827 317.775C480.43 287.461 439.913 224.178 433.102 213.691C427.277 204.724 429.305 197.825 430.41 195.922C438.139 186.23 449.964 171.645 460.518 159.138C465.833 152.84 470.801 147.1 474.749 142.785C476.727 140.624 478.416 138.858 479.745 137.57C480.411 136.926 480.954 136.434 481.374 136.085C481.722 135.796 481.893 135.684 481.921 135.665C481.961 135.581 481.926 135.66 481.921 135.663L482 135.5L482.698 135.145C494.817 124.837 493.825 110.624 491.733 104.606L491.678 104.448L491.611 104.295C488.098 96.3872 478.956 76.9824 470.468 62.6491C461.853 48.1013 451.658 44.1434 445.777 44.98H409.066L408.668 45.0617C386.531 49.6059 376.568 66.769 374.251 75.3017C368.333 92.6068 353.334 131.739 340.062 152.171C332.068 164.478 318.32 174.891 304.894 182.534C291.438 190.194 278.974 194.7 274.049 195.569C269.592 196.356 265.158 195.179 261.822 193.203C260.162 192.22 258.897 191.11 258.093 190.105C257.694 189.607 257.445 189.181 257.305 188.857C257.169 188.544 257.162 188.39 257.162 188.382L257.162 187.504L256.794 186.707C255.559 184.028 255.955 179.895 258.274 172.767C259.268 169.71 260.52 166.358 261.926 162.593C262.092 162.151 262.259 161.703 262.428 161.249C264.025 156.968 265.769 152.233 267.433 147.069C270.744 136.797 271.879 129.341 270.372 123.208C268.814 116.866 264.629 112.724 259.586 108.687C255.074 105.075 248.773 98.0292 242.955 90.2669C237.128 82.4924 232.162 74.499 230.075 69.1286C228.335 64.649 227.745 60.9885 227.154 57.317C227.031 56.5499 226.907 55.7822 226.773 55.0066C225.994 50.4997 224.857 45.9279 220.945 41.216Z"/>
</mask>
<path fill-rule="evenodd" clip-rule="evenodd" d="M196.493 38.8287C191.04 40.825 186.58 46.075 184.965 50.3837C184.624 51.2933 184.204 53.0886 183.744 55.8629C183.298 58.553 182.855 61.9084 182.403 65.7755C181.738 71.461 181.069 78.1324 180.354 85.2604C180.096 87.84 179.831 90.4795 179.558 93.1536C177.531 113.029 175.049 135.107 171.301 147.04C169.767 151.925 167.813 155.572 165.312 157.92C162.636 160.434 159.485 161.298 156.367 160.742C153.499 160.23 151.049 158.592 149.186 156.908C147.279 155.184 145.671 153.127 144.485 151.253L144.285 150.937L144.147 150.589C138.27 135.777 125.12 101.491 119.828 83.4859C117.447 75.3847 113.813 72.0086 110.863 70.6385C107.785 69.2093 104.718 69.613 102.969 70.3426L102.814 70.4071L102.654 70.4585C96.5733 72.4144 81.1428 77.5037 68.1222 82.1944C62.7496 84.1299 60.8934 87.1092 60.2759 89.7116C59.586 92.619 60.3025 95.7314 61.2192 97.6494L61.3185 97.857L61.3932 98.0747C70.9824 125.99 91.7443 186.572 98.0303 205.443C101.488 215.823 110.25 223.371 121.047 229.773C126.404 232.95 132.09 235.748 137.648 238.452C137.974 238.611 138.3 238.769 138.626 238.927C143.783 241.434 148.858 243.902 153.175 246.462C158.068 249.364 161.381 252.705 163.378 256.342C165.386 259.997 165.924 263.695 165.67 267.057C165.176 273.584 161.677 278.925 160.35 280.917C159.83 281.698 159.062 282.365 158.553 282.789C157.933 283.305 157.168 283.882 156.311 284.495C154.591 285.727 152.321 287.236 149.713 288.915C144.487 292.277 137.724 296.432 130.903 300.601C129.707 301.332 128.51 302.063 127.319 302.79C121.691 306.227 116.188 309.588 111.593 312.462C106.257 315.8 102.521 318.258 101.097 319.412C97.2478 324.637 95.6794 328.801 95.344 332.009C95.0114 335.19 95.8577 337.709 97.3755 339.802C100.545 344.174 106.875 346.934 112.273 348H481.166C486.955 347.26 490.615 345.655 492.894 343.848C495.141 342.068 496.286 339.907 496.75 337.536C497.736 332.509 495.654 326.354 493.06 322.043C473.64 291.692 433.181 228.5 426.393 218.049C418.77 206.313 420.919 195.887 423.766 191.456L423.876 191.284L424.003 191.125C431.757 181.399 443.718 166.642 454.404 153.979C459.744 147.651 464.792 141.816 468.848 137.384C470.872 135.172 472.684 133.272 474.181 131.823C474.928 131.099 475.631 130.455 476.265 129.929C476.71 129.56 477.233 129.153 477.789 128.814C486.207 121.431 485.575 111.451 484.226 107.378C480.71 99.4785 471.782 80.5683 463.585 66.7254C455.664 53.3499 448.005 52.6919 446.835 52.9114L446.47 52.98H409.888C391.615 56.9079 383.615 71.183 381.947 77.4906L381.911 77.627L381.865 77.7605C375.981 94.9893 360.674 135.125 346.771 156.529C337.761 170.4 322.732 181.585 308.852 189.486C295.003 197.369 281.633 202.354 275.44 203.447C268.779 204.624 262.422 202.856 257.745 200.087C255.4 198.698 253.353 196.985 251.848 195.106C250.578 193.52 249.471 191.528 249.217 189.326C246.972 183.648 248.501 176.948 250.666 170.292C251.718 167.06 253.034 163.536 254.428 159.805C254.595 159.358 254.763 158.907 254.932 158.454C256.524 154.186 258.214 149.595 259.819 144.615C263.048 134.598 263.549 128.965 262.603 125.117C261.709 121.478 259.353 118.748 254.586 114.932C249.287 110.69 242.508 103.01 236.554 95.0648C230.608 87.1321 225.11 78.4364 222.619 72.0264C220.545 66.6899 219.816 62.1222 219.225 58.416C219.111 57.7018 219.003 57.0196 218.89 56.37C218.2 52.3788 217.378 49.4346 214.771 46.304L214.745 46.2732L214.72 46.242C211.162 41.7906 207.77 39.565 204.823 38.613C201.905 37.6708 199.106 37.8718 196.493 38.8287ZM220.945 41.216C216.662 35.8682 212.05 32.5406 207.281 31.0002C202.473 29.4473 197.833 29.8189 193.742 31.3163C185.788 34.2285 179.784 41.4135 177.474 47.5764C176.834 49.2846 176.314 51.7638 175.852 54.5551C175.375 57.4306 174.914 60.9318 174.457 64.8468C173.784 70.6028 173.105 77.3734 172.388 84.5258C172.13 87.0918 171.868 89.7069 171.599 92.342C169.538 112.553 167.115 133.67 163.669 144.643C162.325 148.922 160.907 151.083 159.836 152.089C158.941 152.929 158.323 152.965 157.773 152.866C156.973 152.724 155.855 152.153 154.551 150.973C153.38 149.915 152.296 148.581 151.439 147.276C145.478 132.235 132.634 98.6861 127.504 81.23C124.652 71.5296 119.784 65.9612 114.232 63.3828C108.894 60.9033 103.545 61.4871 100.057 62.8901C93.8319 64.8946 78.4472 69.9715 65.4108 74.6679C57.703 77.4446 53.782 82.428 52.492 87.8646C51.303 92.8756 52.4626 97.7639 53.897 100.877C63.5229 128.9 84.1843 189.191 90.4403 207.972C94.8309 221.153 105.689 229.967 116.966 236.654C122.645 240.022 128.609 242.951 134.148 245.646C134.438 245.787 134.726 245.927 135.013 246.066C140.28 248.628 145.074 250.959 149.095 253.343C153.031 255.677 155.196 258.063 156.366 260.193C157.527 262.306 157.847 264.416 157.693 266.453C157.378 270.61 155.109 274.339 153.8 276.32C153.748 276.369 153.635 276.474 153.434 276.641C153.026 276.981 152.436 277.431 151.654 277.991C150.096 279.106 147.956 280.532 145.384 282.187C140.248 285.492 133.562 289.6 126.731 293.775C125.542 294.502 124.349 295.23 123.159 295.957C117.532 299.393 111.984 302.781 107.35 305.68C101.904 309.088 97.2882 312.08 95.5009 313.67L95.2 313.938L94.9585 314.26C90.3666 320.387 87.9274 326.012 87.3874 331.177C86.8371 336.441 88.2962 340.909 90.8987 344.498C95.9013 351.398 104.864 354.766 111.165 355.933L111.526 356H481.659L481.901 355.97C488.794 355.126 494.063 353.129 497.863 350.118C501.726 347.057 503.801 343.156 504.601 339.075C506.142 331.214 502.943 322.93 499.881 317.862L499.854 317.818L499.827 317.775C480.43 287.461 439.913 224.178 433.102 213.691C427.277 204.724 429.305 197.825 430.41 195.922C438.139 186.23 449.964 171.645 460.518 159.138C465.833 152.84 470.801 147.1 474.749 142.785C476.727 140.624 478.416 138.858 479.745 137.57C480.411 136.926 480.954 136.434 481.374 136.085C481.722 135.796 481.893 135.684 481.921 135.665C481.961 135.581 481.926 135.66 481.921 135.663L482 135.5L482.698 135.145C494.817 124.837 493.825 110.624 491.733 104.606L491.678 104.448L491.611 104.295C488.098 96.3872 478.956 76.9824 470.468 62.6491C461.853 48.1013 451.658 44.1434 445.777 44.98H409.066L408.668 45.0617C386.531 49.6059 376.568 66.769 374.251 75.3017C368.333 92.6068 353.334 131.739 340.062 152.171C332.068 164.478 318.32 174.891 304.894 182.534C291.438 190.194 278.974 194.7 274.049 195.569C269.592 196.356 265.158 195.179 261.822 193.203C260.162 192.22 258.897 191.11 258.093 190.105C257.694 189.607 257.445 189.181 257.305 188.857C257.169 188.544 257.162 188.39 257.162 188.382L257.162 187.504L256.794 186.707C255.559 184.028 255.955 179.895 258.274 172.767C259.268 169.71 260.52 166.358 261.926 162.593C262.092 162.151 262.259 161.703 262.428 161.249C264.025 156.968 265.769 152.233 267.433 147.069C270.744 136.797 271.879 129.341 270.372 123.208C268.814 116.866 264.629 112.724 259.586 108.687C255.074 105.075 248.773 98.0292 242.955 90.2669C237.128 82.4924 232.162 74.499 230.075 69.1286C228.335 64.649 227.745 60.9885 227.154 57.317C227.031 56.5499 226.907 55.7822 226.773 55.0066C225.994 50.4997 224.857 45.9279 220.945 41.216Z" fill="#8C92A1"/>
<path fill-rule="evenodd" clip-rule="evenodd" d="M196.493 38.8287C191.04 40.825 186.58 46.075 184.965 50.3837C184.624 51.2933 184.204 53.0886 183.744 55.8629C183.298 58.553 182.855 61.9084 182.403 65.7755C181.738 71.461 181.069 78.1324 180.354 85.2604C180.096 87.84 179.831 90.4795 179.558 93.1536C177.531 113.029 175.049 135.107 171.301 147.04C169.767 151.925 167.813 155.572 165.312 157.92C162.636 160.434 159.485 161.298 156.367 160.742C153.499 160.23 151.049 158.592 149.186 156.908C147.279 155.184 145.671 153.127 144.485 151.253L144.285 150.937L144.147 150.589C138.27 135.777 125.12 101.491 119.828 83.4859C117.447 75.3847 113.813 72.0086 110.863 70.6385C107.785 69.2093 104.718 69.613 102.969 70.3426L102.814 70.4071L102.654 70.4585C96.5733 72.4144 81.1428 77.5037 68.1222 82.1944C62.7496 84.1299 60.8934 87.1092 60.2759 89.7116C59.586 92.619 60.3025 95.7314 61.2192 97.6494L61.3185 97.857L61.3932 98.0747C70.9824 125.99 91.7443 186.572 98.0303 205.443C101.488 215.823 110.25 223.371 121.047 229.773C126.404 232.95 132.09 235.748 137.648 238.452C137.974 238.611 138.3 238.769 138.626 238.927C143.783 241.434 148.858 243.902 153.175 246.462C158.068 249.364 161.381 252.705 163.378 256.342C165.386 259.997 165.924 263.695 165.67 267.057C165.176 273.584 161.677 278.925 160.35 280.917C159.83 281.698 159.062 282.365 158.553 282.789C157.933 283.305 157.168 283.882 156.311 284.495C154.591 285.727 152.321 287.236 149.713 288.915C144.487 292.277 137.724 296.432 130.903 300.601C129.707 301.332 128.51 302.063 127.319 302.79C121.691 306.227 116.188 309.588 111.593 312.462C106.257 315.8 102.521 318.258 101.097 319.412C97.2478 324.637 95.6794 328.801 95.344 332.009C95.0114 335.19 95.8577 337.709 97.3755 339.802C100.545 344.174 106.875 346.934 112.273 348H481.166C486.955 347.26 490.615 345.655 492.894 343.848C495.141 342.068 496.286 339.907 496.75 337.536C497.736 332.509 495.654 326.354 493.06 322.043C473.64 291.692 433.181 228.5 426.393 218.049C418.77 206.313 420.919 195.887 423.766 191.456L423.876 191.284L424.003 191.125C431.757 181.399 443.718 166.642 454.404 153.979C459.744 147.651 464.792 141.816 468.848 137.384C470.872 135.172 472.684 133.272 474.181 131.823C474.928 131.099 475.631 130.455 476.265 129.929C476.71 129.56 477.233 129.153 477.789 128.814C486.207 121.431 485.575 111.451 484.226 107.378C480.71 99.4785 471.782 80.5683 463.585 66.7254C455.664 53.3499 448.005 52.6919 446.835 52.9114L446.47 52.98H409.888C391.615 56.9079 383.615 71.183 381.947 77.4906L381.911 77.627L381.865 77.7605C375.981 94.9893 360.674 135.125 346.771 156.529C337.761 170.4 322.732 181.585 308.852 189.486C295.003 197.369 281.633 202.354 275.44 203.447C268.779 204.624 262.422 202.856 257.745 200.087C255.4 198.698 253.353 196.985 251.848 195.106C250.578 193.52 249.471 191.528 249.217 189.326C246.972 183.648 248.501 176.948 250.666 170.292C251.718 167.06 253.034 163.536 254.428 159.805C254.595 159.358 254.763 158.907 254.932 158.454C256.524 154.186 258.214 149.595 259.819 144.615C263.048 134.598 263.549 128.965 262.603 125.117C261.709 121.478 259.353 118.748 254.586 114.932C249.287 110.69 242.508 103.01 236.554 95.0648C230.608 87.1321 225.11 78.4364 222.619 72.0264C220.545 66.6899 219.816 62.1222 219.225 58.416C219.111 57.7018 219.003 57.0196 218.89 56.37C218.2 52.3788 217.378 49.4346 214.771 46.304L214.745 46.2732L214.72 46.242C211.162 41.7906 207.77 39.565 204.823 38.613C201.905 37.6708 199.106 37.8718 196.493 38.8287ZM220.945 41.216C216.662 35.8682 212.05 32.5406 207.281 31.0002C202.473 29.4473 197.833 29.8189 193.742 31.3163C185.788 34.2285 179.784 41.4135 177.474 47.5764C176.834 49.2846 176.314 51.7638 175.852 54.5551C175.375 57.4306 174.914 60.9318 174.457 64.8468C173.784 70.6028 173.105 77.3734 172.388 84.5258C172.13 87.0918 171.868 89.7069 171.599 92.342C169.538 112.553 167.115 133.67 163.669 144.643C162.325 148.922 160.907 151.083 159.836 152.089C158.941 152.929 158.323 152.965 157.773 152.866C156.973 152.724 155.855 152.153 154.551 150.973C153.38 149.915 152.296 148.581 151.439 147.276C145.478 132.235 132.634 98.6861 127.504 81.23C124.652 71.5296 119.784 65.9612 114.232 63.3828C108.894 60.9033 103.545 61.4871 100.057 62.8901C93.8319 64.8946 78.4472 69.9715 65.4108 74.6679C57.703 77.4446 53.782 82.428 52.492 87.8646C51.303 92.8756 52.4626 97.7639 53.897 100.877C63.5229 128.9 84.1843 189.191 90.4403 207.972C94.8309 221.153 105.689 229.967 116.966 236.654C122.645 240.022 128.609 242.951 134.148 245.646C134.438 245.787 134.726 245.927 135.013 246.066C140.28 248.628 145.074 250.959 149.095 253.343C153.031 255.677 155.196 258.063 156.366 260.193C157.527 262.306 157.847 264.416 157.693 266.453C157.378 270.61 155.109 274.339 153.8 276.32C153.748 276.369 153.635 276.474 153.434 276.641C153.026 276.981 152.436 277.431 151.654 277.991C150.096 279.106 147.956 280.532 145.384 282.187C140.248 285.492 133.562 289.6 126.731 293.775C125.542 294.502 124.349 295.23 123.159 295.957C117.532 299.393 111.984 302.781 107.35 305.68C101.904 309.088 97.2882 312.08 95.5009 313.67L95.2 313.938L94.9585 314.26C90.3666 320.387 87.9274 326.012 87.3874 331.177C86.8371 336.441 88.2962 340.909 90.8987 344.498C95.9013 351.398 104.864 354.766 111.165 355.933L111.526 356H481.659L481.901 355.97C488.794 355.126 494.063 353.129 497.863 350.118C501.726 347.057 503.801 343.156 504.601 339.075C506.142 331.214 502.943 322.93 499.881 317.862L499.854 317.818L499.827 317.775C480.43 287.461 439.913 224.178 433.102 213.691C427.277 204.724 429.305 197.825 430.41 195.922C438.139 186.23 449.964 171.645 460.518 159.138C465.833 152.84 470.801 147.1 474.749 142.785C476.727 140.624 478.416 138.858 479.745 137.57C480.411 136.926 480.954 136.434 481.374 136.085C481.722 135.796 481.893 135.684 481.921 135.665C481.961 135.581 481.926 135.66 481.921 135.663L482 135.5L482.698 135.145C494.817 124.837 493.825 110.624 491.733 104.606L491.678 104.448L491.611 104.295C488.098 96.3872 478.956 76.9824 470.468 62.6491C461.853 48.1013 451.658 44.1434 445.777 44.98H409.066L408.668 45.0617C386.531 49.6059 376.568 66.769 374.251 75.3017C368.333 92.6068 353.334 131.739 340.062 152.171C332.068 164.478 318.32 174.891 304.894 182.534C291.438 190.194 278.974 194.7 274.049 195.569C269.592 196.356 265.158 195.179 261.822 193.203C260.162 192.22 258.897 191.11 258.093 190.105C257.694 189.607 257.445 189.181 257.305 188.857C257.169 188.544 257.162 188.39 257.162 188.382L257.162 187.504L256.794 186.707C255.559 184.028 255.955 179.895 258.274 172.767C259.268 169.71 260.52 166.358 261.926 162.593C262.092 162.151 262.259 161.703 262.428 161.249C264.025 156.968 265.769 152.233 267.433 147.069C270.744 136.797 271.879 129.341 270.372 123.208C268.814 116.866 264.629 112.724 259.586 108.687C255.074 105.075 248.773 98.0292 242.955 90.2669C237.128 82.4924 232.162 74.499 230.075 69.1286C228.335 64.649 227.745 60.9885 227.154 57.317C227.031 56.5499 226.907 55.7822 226.773 55.0066C225.994 50.4997 224.857 45.9279 220.945 41.216Z" stroke="#00071B" stroke-width="4" mask="url(#path-55-outside-1)"/>
<path d="M243.832 356C244.59 356 245.331 355.775 245.961 355.354C246.591 354.933 247.082 354.335 247.372 353.635C247.662 352.934 247.738 352.164 247.59 351.421C247.443 350.677 247.078 349.994 246.542 349.459C246.006 348.923 245.323 348.558 244.58 348.41C243.836 348.262 243.066 348.338 242.366 348.628C241.665 348.918 241.067 349.409 240.646 350.039C240.225 350.669 240 351.41 240 352.168V352.168C240.014 353.18 240.422 354.147 241.138 354.862C241.854 355.578 242.82 355.986 243.832 356Z" stroke="#00071B" stroke-width="2.26502"/>
<path d="M243.664 353L243.664 298" stroke="#00071B" stroke-width="3.39753" stroke-linecap="round" stroke-linejoin="round"/>
<path d="M243.664 353L243.664 298" stroke="white" stroke-width="1.13251" stroke-linecap="round" stroke-linejoin="round"/>
<path d="M243.832 356C244.59 356 245.331 355.775 245.961 355.354C246.591 354.933 247.082 354.335 247.372 353.635C247.662 352.934 247.738 352.164 247.59 351.421C247.443 350.677 247.078 349.994 246.542 349.459C246.006 348.923 245.323 348.558 244.58 348.41C243.836 348.262 243.066 348.338 242.366 348.628C241.665 348.918 241.067 349.409 240.646 350.039C240.225 350.669 240 351.41 240 352.168V352.168C240.014 353.18 240.422 354.147 241.138 354.862C241.854 355.578 242.82 355.986 243.832 356Z" fill="white"/>
</svg>
