<svg id="Capa_1" data-name="Capa 1" xmlns="http://www.w3.org/2000/svg" width="308.98" height="199.98" viewBox="0 0 308.98 199.98"><defs><style>.cls-1,.cls-14,.cls-16{fill:#fff;}.cls-10,.cls-11,.cls-2,.cls-3,.cls-4,.cls-5,.cls-6,.cls-8,.cls-9{fill:none;}.cls-10,.cls-2,.cls-6{stroke:#fff;}.cls-10,.cls-2,.cls-3,.cls-4,.cls-5,.cls-9{stroke-linecap:round;}.cls-10,.cls-11,.cls-2,.cls-3,.cls-4,.cls-5,.cls-9{stroke-linejoin:round;}.cls-2{stroke-width:8px;}.cls-3,.cls-4{stroke:#00071b;}.cls-3{stroke-width:5.4px;}.cls-4,.cls-5{stroke-width:2.8px;}.cls-5{stroke:#8c92a1;}.cls-6{stroke-width:1.3px;}.cls-7{fill:#ea1a4d;}.cls-11,.cls-8,.cls-9{stroke:#231f20;}.cls-8{stroke-width:2px;}.cls-9{stroke-width:2.5px;}.cls-10{stroke-width:0.65px;}.cls-11{stroke-width:0.25px;}.cls-12,.cls-13{fill:#231f20;}.cls-13,.cls-14,.cls-15,.cls-16{isolation:isolate;}.cls-13{font-size:8.5px;font-family:Helvetica-Oblique, Helvetica;font-style:oblique;}.cls-14,.cls-16{font-size:7.5px;font-family:Helvetica-Bold, Helvetica;font-weight:700;}.cls-14{letter-spacing:-0.08em;}.cls-16{letter-spacing:-0.13em;}</style></defs><rect class="cls-1" width="308.98" height="199.98"/><g id="zandvoort"><path class="cls-2" d="M75,177.84H226.49s30.43,0,30.43-31.75c0-16.54-11.06-35.44-16.45-37a12.17,12.17,0,0,0-8.5.66c-4.77,2-37,22.91-42.05,26-5.77,3.49-11.12,5.48-14.08,1.32-5.39-7.56,8.41-12.76,1.13-18.33-8.17-6.26-24.7-17.37-38.93-39.13-14.84-22.68-14.75-39.88-8.6-40.92,14.51-2.45,24.19,35.92,35.06,32,6.61-2.36,9.16-21.73,9.35-28.16s2.41-27.87-6.61-25.33c-17.77,5-33.74-.19-47.54-2.64s-20.08,4.9-19.84,15.12c.28,11.9.28,34.39,9.26,42.05,14.48,12.34,28.69,21.76,29.29,27.4,1.33,12.38,2.84,13.9,6.05,20.7s15.31,30.81,15.31,30.81,3.69,7.94-2.27,11.05c-4.88,2.56-8.41,1.23-11.15-1-2.54-2.1-18.33-15.4-18.33-15.4s-5.39-4.82-11.62.47-9,8.32-13.14,8.32H75c-1.51,0-8.22,1.7-8.22,12.1C66.78,174.06,73.4,177.84,75,177.84Z"/><path class="cls-3" d="M75,177.84H226.49s30.43,0,30.43-31.75c0-16.54-11.06-35.44-16.45-37a12.17,12.17,0,0,0-8.5.66c-4.77,2-37,22.91-42.05,26-5.77,3.49-11.12,5.48-14.08,1.32-5.39-7.56,8.41-12.76,1.13-18.33-8.17-6.26-24.7-17.37-38.93-39.13-14.84-22.68-14.75-39.88-8.6-40.92,14.51-2.45,24.19,35.92,35.06,32,6.61-2.36,9.16-21.73,9.35-28.16s2.41-27.87-6.61-25.33c-17.77,5-33.74-.19-47.54-2.64s-20.08,4.9-19.84,15.12c.28,11.9.28,34.39,9.26,42.05,14.48,12.34,28.69,21.76,29.29,27.4,1.33,12.38,2.84,13.9,6.05,20.7s15.31,30.81,15.31,30.81,3.69,7.94-2.27,11.05c-4.88,2.56-8.41,1.23-11.15-1-2.54-2.1-18.33-15.4-18.33-15.4s-5.39-4.82-11.62.47-9,8.32-13.14,8.32H75c-1.51,0-8.22,1.7-8.22,12.1C66.78,174.06,73.4,177.84,75,177.84Z"/><path class="cls-4" d="M153.35,176.77a19.82,19.82,0,0,1-8.23-2.16c-4.37-2.27-5.85-1.83-7.84-1.83H96.74c-2,0-3.47-.44-7.84,1.83a19.82,19.82,0,0,1-8.23,2.16"/><path class="cls-5" d="M75,177.84H226.49s30.43,0,30.43-31.75c0-16.54-11.06-35.44-16.45-37a12.17,12.17,0,0,0-8.5.66c-4.77,2-37,22.91-42.05,26-5.77,3.49-11.12,5.48-14.08,1.32-5.39-7.56,8.41-12.76,1.13-18.33-8.17-6.26-24.7-17.37-38.93-39.13-14.84-22.68-14.75-39.88-8.6-40.92,14.51-2.45,24.19,35.92,35.06,32,6.61-2.36,9.16-21.73,9.35-28.16s2.41-27.87-6.61-25.33c-17.77,5-33.74-.19-47.54-2.64s-20.08,4.9-19.84,15.12c.28,11.9.28,34.39,9.26,42.05,14.48,12.34,28.69,21.76,29.29,27.4,1.33,12.38,2.84,13.9,6.05,20.7s15.31,30.81,15.31,30.81,3.69,7.94-2.27,11.05c-4.88,2.56-8.41,1.23-11.15-1-2.54-2.1-18.33-15.4-18.33-15.4s-5.39-4.82-11.62.47-9,8.32-13.14,8.32H75c-1.51,0-8.22,1.7-8.22,12.1C66.78,174.06,73.4,177.84,75,177.84Z"/><rect class="cls-6" x="52.53" y="162.73" width="9.61" height="9.61" rx="2.29"/><rect class="cls-7" x="52.53" y="162.73" width="9.61" height="9.61" rx="2.29"/><rect class="cls-6" x="102.36" y="136.4" width="9.61" height="9.61" rx="2.29"/><rect class="cls-7" x="102.36" y="136.4" width="9.61" height="9.61" rx="2.29"/><rect class="cls-6" x="162.2" y="160.73" width="9.61" height="9.61" rx="2.29"/><rect class="cls-7" x="162.2" y="160.73" width="9.61" height="9.61" rx="2.29"/><rect class="cls-6" x="127.03" y="112.07" width="9.61" height="9.61" rx="2.29"/><rect class="cls-7" x="127.03" y="112.07" width="9.61" height="9.61" rx="2.29"/><rect class="cls-6" x="123.2" y="98.07" width="9.61" height="9.61" rx="2.29"/><rect class="cls-7" x="123.2" y="98.07" width="9.61" height="9.61" rx="2.29"/><rect class="cls-6" x="93.69" y="70.4" width="9.61" height="9.61" rx="2.29"/><rect class="cls-7" x="93.69" y="70.4" width="9.61" height="9.61" rx="2.29"/><rect class="cls-6" x="89.28" y="7.7" width="9.61" height="9.61" rx="2.29"/><rect class="cls-7" x="89.28" y="7.7" width="9.61" height="9.61" rx="2.29"/><rect class="cls-6" x="175.7" y="7.7" width="9.61" height="9.61" rx="2.29"/><rect class="cls-7" x="175.7" y="7.7" width="9.61" height="9.61" rx="2.29"/><rect class="cls-6" x="158.86" y="75.07" width="9.61" height="9.61" rx="2.29"/><rect class="cls-7" x="158.86" y="75.07" width="9.61" height="9.61" rx="2.29"/><rect class="cls-6" x="117.7" y="26.4" width="9.61" height="9.61" rx="2.29"/><rect class="cls-7" x="117.7" y="26.4" width="9.61" height="9.61" rx="2.29"/><rect class="cls-6" x="182.53" y="109.73" width="9.61" height="9.61" rx="2.29"/><rect class="cls-7" x="182.53" y="109.73" width="9.61" height="9.61" rx="2.29"/><rect class="cls-6" x="167.7" y="142.07" width="9.61" height="9.61" rx="2.29"/><rect class="cls-7" x="167.7" y="142.07" width="9.61" height="9.61" rx="2.29"/><rect class="cls-6" x="234.2" y="94.73" width="9.61" height="9.61" rx="2.29"/><rect class="cls-7" x="234.2" y="94.73" width="9.61" height="9.61" rx="2.29"/><rect class="cls-6" x="252.36" y="170.07" width="9.61" height="9.61" rx="2.29"/><rect class="cls-7" x="252.36" y="170.07" width="9.61" height="9.61" rx="2.29"/><path class="cls-8" d="M125.9,176.43a1.42,1.42,0,1,1-1.41,1.43v0a1.41,1.41,0,0,1,1.41-1.41Z"/><line class="cls-9" x1="125.9" y1="177.84" x2="125.9" y2="191.44"/><line class="cls-10" x1="125.9" y1="177.84" x2="125.9" y2="191.44"/><path class="cls-1" d="M125.9,176.43a1.42,1.42,0,1,1-1.41,1.43v0a1.41,1.41,0,0,1,1.41-1.41Z"/><path class="cls-11" d="M131.41,187a6.5,6.5,0,0,0,1.08-.24,7.93,7.93,0,0,0,3-1.7l3.67,9.27a20.44,20.44,0,0,1-3,2.49,6.42,6.42,0,0,1-3.4,1.23,2.52,2.52,0,0,1-2.21-1.09c.57-.52,2-1.51,2.48-1.18s-.44,1.48-.44,1.48c1.29-1,1.34-1.58,1.23-1.86l-.33-.46m.21.27-4.3-9.69a8.37,8.37,0,0,0-1-.05,11.29,11.29,0,0,0-3.16.46,10.26,10.26,0,0,0-3.81,2l4.65,11.79a26.43,26.43,0,0,1,3.59-3.18,6.62,6.62,0,0,1,3.36-1.46,1.86,1.86,0,0,1,.66.14Z"/><path class="cls-12" d="M135.52,185.07a7.93,7.93,0,0,1-3,1.7,6.5,6.5,0,0,1-1.08.24l2.4,8.4h0c.11.28.06.88-1.23,1.86,0,0,.9-1.15.44-1.48s-1.91.66-2.48,1.18a2.52,2.52,0,0,0,2.21,1.09,6.42,6.42,0,0,0,3.4-1.23,20.44,20.44,0,0,0,3-2.49Z"/><path class="cls-1" d="M136,196.51a18.66,18.66,0,0,0,2.77-2.25l-1.09-2.77a13.88,13.88,0,0,1-2.76,2Z"/><path class="cls-1" d="M136.48,188.39l-1.1-2.78a8,8,0,0,1-2.77,1.47l1.12,3.1A10,10,0,0,0,136.48,188.39Z"/><path class="cls-1" d="M135,193.53l-1.22-3.35a7.47,7.47,0,0,1-1.29.42l1,3.56A8.31,8.31,0,0,0,135,193.53Z"/><path class="cls-12" d="M128.43,185.48a11.29,11.29,0,0,0-3.16.46,10.26,10.26,0,0,0-3.81,2l4.65,11.79a26.43,26.43,0,0,1,3.59-3.18,6.62,6.62,0,0,1,3.36-1.46,1.93,1.93,0,0,1,.63.1l-4.3-9.69a8.37,8.37,0,0,0-1-.05Z"/><path class="cls-1" d="M128.43,185.81a10.88,10.88,0,0,0-3,.43l1.45,3.47a12.59,12.59,0,0,1,3.61-1l-1.28-2.88A6.77,6.77,0,0,0,128.43,185.81Z"/><path class="cls-1" d="M128.31,193.25l1.26,3a6.62,6.62,0,0,1,3.49-1.48h.08l-1.27-2.87A8,8,0,0,0,128.31,193.25Z"/><path class="cls-1" d="M126.84,189.71a15.57,15.57,0,0,0-3.56,2l1.55,3.92a32.73,32.73,0,0,1,3.48-2.36Z"/><text class="cls-13" transform="translate(86.4 169.14)">Zona de Boxes</text><text class="cls-14" transform="translate(55.57 170.12)">1</text><text class="cls-14" transform="translate(105.34 143.79)">2</text><text class="cls-14" transform="translate(165.12 168.12)">3</text><text class="cls-14" transform="translate(129.95 119.46)">4</text><text class="cls-14" transform="translate(126.18 105.46)">5</text><text class="cls-14" transform="translate(96.62 77.79)">6</text><text class="cls-14" transform="translate(92.26 15.09)">7</text><text class="cls-14" transform="translate(178.73 15.09)">8</text><text class="cls-14" transform="translate(161.79 82.46)">9</text><text class="cls-14" transform="translate(118.66 33.79)">10</text><g class="cls-15"><text class="cls-16" transform="translate(183.99 117.12)">1</text><text class="cls-14" transform="translate(187.15 117.12)">1</text></g><text class="cls-14" transform="translate(168.66 149.46)">12</text><text class="cls-14" transform="translate(235.16 102.12)">13</text><text class="cls-14" transform="translate(253.33 177.46)">14</text></g></svg>