<svg id="Capa_1" data-name="Capa 1" xmlns="http://www.w3.org/2000/svg" width="297.63" height="195.16" viewBox="0 0 297.63 195.16"><defs><style>.cls-1,.cls-10,.cls-16,.cls-17,.cls-18,.cls-2,.cls-3,.cls-4,.cls-5,.cls-6,.cls-8,.cls-9{fill:none;}.cls-1,.cls-10,.cls-6{stroke:#fff;}.cls-1,.cls-10,.cls-16,.cls-18,.cls-2,.cls-3,.cls-4,.cls-9{stroke-linecap:round;}.cls-1,.cls-10,.cls-16,.cls-17,.cls-18,.cls-2,.cls-3,.cls-4,.cls-5,.cls-9{stroke-linejoin:round;}.cls-1{stroke-width:8px;}.cls-2,.cls-3{stroke:#00071b;}.cls-2,.cls-4,.cls-5{stroke-width:2.8px;}.cls-3{stroke-width:5.4px;}.cls-4{stroke:#8c92a1;}.cls-5{stroke:#fff100;}.cls-6{stroke-width:1.3px;}.cls-7{fill:#ea1a4d;}.cls-16,.cls-17,.cls-18,.cls-8,.cls-9{stroke:#231f20;}.cls-9{stroke-width:1.5px;}.cls-10,.cls-15,.cls-16{stroke-width:0.5px;}.cls-11,.cls-15,.cls-20,.cls-21,.cls-23{fill:#fff;}.cls-12{fill:#ffca05;}.cls-13,.cls-19{fill:#231f20;}.cls-14{fill:#007dc4;}.cls-15{stroke:#007dc4;}.cls-17{stroke-width:0.25px;}.cls-18{stroke-width:0.65px;}.cls-19,.cls-20,.cls-21,.cls-22,.cls-23{isolation:isolate;}.cls-19,.cls-20{font-size:8.5px;}.cls-19,.cls-20,.cls-21,.cls-23{font-family:Helvetica-Bold, Helvetica;font-weight:700;}.cls-21,.cls-23{font-size:7.5px;}.cls-21{letter-spacing:-0.08em;}.cls-23{letter-spacing:-0.13em;}</style></defs><g id="sochi"><path class="cls-1" d="M136.28,132.47l72.18,22.22c15.39,3.61,24.51-2.46,24.51-2.46l51.28-28.69c1.9-1.14.38-3.23.38-3.23L276.85,108a4.54,4.54,0,0,0-5.13-1.14l-36.28,19.75c-3,1.52-1.71,4.75-1.71,4.75L236,136.3a3.22,3.22,0,0,1-.76,4.37L224,146.34a18.22,18.22,0,0,1-18.24-.57c-4.87-3.23-.13-8.66.7-12.6.51-2.41-2.79-3.17-2.79-3.17-23.36-4.37-34.19-21.27-42-33.24s-20.52-24.88-34.2-34-25.07-8.93-28.87-9.5S94,56.49,94,56.49L89.36,83.84A17.61,17.61,0,0,1,87.46,89l-7,7.6a4,4,0,0,1-4,.19L44.41,84a3.52,3.52,0,0,0-3.68.76l-8.54,9.5c-3.8,4.94-4.75,12.16-4.75,12.16l-2.09,21.27s-.57,4.56,3.61,4.56l48.25.38a3.42,3.42,0,0,0,3.54-3.3v-.25c.13-3.67,1.9-20.13,3.55-24.56A25,25,0,0,1,107.09,89.7c13.67,0,21.42,11.73,23.3,18.36,2.16,7.6,5.7,15.45,4.05,19.38C133.19,130.47,132.67,131.14,136.28,132.47Z" transform="translate(-4.8 -1.44)"/><path class="cls-2" d="M190.54,148.24s15.2,2.91,23.81,3.92a24,24,0,0,0,14.32-2.45l48.43-27.09a2.4,2.4,0,0,0,1.21-3.17,2.71,2.71,0,0,0-.21-.37l-3.62-5.69a3.27,3.27,0,0,0-4.06-.26L262,117.85s-5.48,3.36-11.64,2.36" transform="translate(-4.8 -1.44)"/><path class="cls-3" d="M136.28,132.47l72.18,22.22c15.39,3.61,24.51-2.46,24.51-2.46l51.28-28.69c1.9-1.14.38-3.23.38-3.23L276.85,108a4.54,4.54,0,0,0-5.13-1.14l-36.28,19.75c-3,1.52-1.71,4.75-1.71,4.75L236,136.3a3.22,3.22,0,0,1-.76,4.37L224,146.34a18.22,18.22,0,0,1-18.24-.57c-4.87-3.23-.13-8.66.7-12.6.51-2.41-2.79-3.17-2.79-3.17-23.36-4.37-34.19-21.27-42-33.24s-20.52-24.88-34.2-34-25.07-8.93-28.87-9.5S94,56.49,94,56.49L89.36,83.84A17.61,17.61,0,0,1,87.46,89l-7,7.6a4,4,0,0,1-4,.19L44.41,84a3.52,3.52,0,0,0-3.68.76l-8.54,9.5c-3.8,4.94-4.75,12.16-4.75,12.16l-2.09,21.27s-.57,4.56,3.61,4.56l48.25.38a3.42,3.42,0,0,0,3.54-3.3v-.25c.13-3.67,1.9-20.13,3.55-24.56A25,25,0,0,1,107.09,89.7c13.67,0,21.42,11.73,23.3,18.36,2.16,7.6,5.7,15.45,4.05,19.38C133.19,130.47,132.67,131.14,136.28,132.47Z" transform="translate(-4.8 -1.44)"/><path class="cls-4" d="M136.28,132.47l72.18,22.22c15.39,3.61,24.51-2.46,24.51-2.46l51.28-28.69c1.9-1.14.38-3.23.38-3.23L276.85,108a4.54,4.54,0,0,0-5.13-1.14l-36.28,19.75c-3,1.52-1.71,4.75-1.71,4.75L236,136.3a3.22,3.22,0,0,1-.76,4.37L224,146.34a18.22,18.22,0,0,1-18.24-.57c-4.87-3.23-.13-8.66.7-12.6.51-2.41-2.79-3.17-2.79-3.17-23.36-4.37-34.19-21.27-42-33.24s-20.52-24.88-34.2-34-25.07-8.93-28.87-9.5S94,56.49,94,56.49L89.36,83.84A17.61,17.61,0,0,1,87.46,89l-7,7.6a4,4,0,0,1-4,.19L44.41,84a3.52,3.52,0,0,0-3.68.76l-8.54,9.5c-3.8,4.94-4.75,12.16-4.75,12.16l-2.09,21.27s-.57,4.56,3.61,4.56l48.25.38a3.42,3.42,0,0,0,3.54-3.3v-.25c.13-3.67,1.9-20.13,3.55-24.56A25,25,0,0,1,107.09,89.7c13.67,0,21.42,11.73,23.3,18.36,2.16,7.6,5.7,15.45,4.05,19.38C133.19,130.47,132.67,131.14,136.28,132.47Z" transform="translate(-4.8 -1.44)"/><path class="cls-5" d="M193.79,127.16c-16.7-6.61-25.47-20.27-32-30.4-7.79-12-20.52-24.88-34.2-34a55.84,55.84,0,0,0-13-6.49" transform="translate(-4.8 -1.44)"/><line class="cls-5" x1="131.48" y1="131.03" x2="203.66" y2="153.25"/><rect class="cls-6" x="214.73" y="158.69" width="9.61" height="9.61" rx="2.29"/><rect class="cls-7" x="214.73" y="158.69" width="9.61" height="9.61" rx="2.29"/><rect class="cls-6" x="135.23" y="118.02" width="9.61" height="9.61" rx="2.29"/><rect class="cls-7" x="135.23" y="118.02" width="9.61" height="9.61" rx="2.29"/><rect class="cls-6" x="97.4" y="92.69" width="9.61" height="9.61" rx="2.29"/><rect class="cls-7" x="97.4" y="92.69" width="9.61" height="9.61" rx="2.29"/><rect class="cls-6" x="69.9" y="135.36" width="9.61" height="9.61" rx="2.29"/><rect class="cls-7" x="69.9" y="135.36" width="9.61" height="9.61" rx="2.29"/><rect class="cls-6" x="9.06" y="131.36" width="9.61" height="9.61" rx="2.29"/><rect class="cls-7" x="9.06" y="131.36" width="9.61" height="9.61" rx="2.29"/><rect class="cls-6" x="11.56" y="88.02" width="9.61" height="9.61" rx="2.29"/><rect class="cls-7" x="11.56" y="88.02" width="9.61" height="9.61" rx="2.29"/><rect class="cls-6" x="35.73" y="89.02" width="9.61" height="9.61" rx="2.29"/><rect class="cls-7" x="35.73" y="89.02" width="9.61" height="9.61" rx="2.29"/><rect class="cls-6" x="62.56" y="98.36" width="9.61" height="9.61" rx="2.29"/><rect class="cls-7" x="62.56" y="98.36" width="9.61" height="9.61" rx="2.29"/><rect class="cls-6" x="89.73" y="75.36" width="9.61" height="9.61" rx="2.29"/><rect class="cls-7" x="89.73" y="75.36" width="9.61" height="9.61" rx="2.29"/><rect class="cls-6" x="90.9" y="38.02" width="9.61" height="9.61" rx="2.29"/><rect class="cls-7" x="90.9" y="38.02" width="9.61" height="9.61" rx="2.29"/><rect class="cls-6" x="131.06" y="80.36" width="9.61" height="9.61" rx="2.29"/><rect class="cls-7" x="131.06" y="80.36" width="9.61" height="9.61" rx="2.29"/><rect class="cls-6" x="181.23" y="108.02" width="9.61" height="9.61" rx="2.29"/><rect class="cls-7" x="181.23" y="108.02" width="9.61" height="9.61" rx="2.29"/><rect class="cls-6" x="184.4" y="131.69" width="9.61" height="9.61" rx="2.29"/><rect class="cls-7" x="184.4" y="131.69" width="9.61" height="9.61" rx="2.29"/><rect class="cls-6" x="205.56" y="133.36" width="9.61" height="9.61" rx="2.29"/><rect class="cls-7" x="205.56" y="133.36" width="9.61" height="9.61" rx="2.29"/><rect class="cls-6" x="216.4" y="128.36" width="9.61" height="9.61" rx="2.29"/><rect class="cls-7" x="216.4" y="128.36" width="9.61" height="9.61" rx="2.29"/><rect class="cls-6" x="215.56" y="116.36" width="9.61" height="9.61" rx="2.29"/><rect class="cls-7" x="215.56" y="116.36" width="9.61" height="9.61" rx="2.29"/><rect class="cls-6" x="258.73" y="93.02" width="9.61" height="9.61" rx="2.29"/><rect class="cls-7" x="258.73" y="93.02" width="9.61" height="9.61" rx="2.29"/><rect class="cls-6" x="281.9" y="124.69" width="9.61" height="9.61" rx="2.29"/><rect class="cls-7" x="281.9" y="124.69" width="9.61" height="9.61" rx="2.29"/><path class="cls-8" d="M113.15,57.24a1.42,1.42,0,1,0-1.41-1.43h0A1.42,1.42,0,0,0,113.15,57.24Z" transform="translate(-4.8 -1.44)"/><line class="cls-9" x1="108.35" y1="54.38" x2="108.35" y2="28.59"/><line class="cls-10" x1="108.35" y1="54.38" x2="108.35" y2="28.59"/><path class="cls-11" d="M113.15,57.24a1.42,1.42,0,1,0-1.41-1.43h0A1.42,1.42,0,0,0,113.15,57.24Z" transform="translate(-4.8 -1.44)"/><path class="cls-8" d="M93.82,59.59a1.42,1.42,0,1,0-1.42-1.42h0A1.42,1.42,0,0,0,93.82,59.59Z" transform="translate(-4.8 -1.44)"/><polyline class="cls-9" points="89.02 56.74 89.02 48.3 72.56 48.3"/><polyline class="cls-10" points="89.02 56.74 89.02 48.3 72.56 48.3"/><path class="cls-11" d="M93.82,59.59a1.42,1.42,0,1,0-1.42-1.42h0A1.42,1.42,0,0,0,93.82,59.59Z" transform="translate(-4.8 -1.44)"/><path class="cls-8" d="M91.41,64.75a1.42,1.42,0,0,1,2.83,0,1.42,1.42,0,0,1-2.83.24A1,1,0,0,1,91.41,64.75Z" transform="translate(-4.8 -1.44)"/><line class="cls-9" x1="88.02" y1="63.31" x2="103.56" y2="63.31"/><line class="cls-10" x1="88.02" y1="63.31" x2="103.56" y2="63.31"/><path class="cls-11" d="M91.41,64.75a1.42,1.42,0,0,1,2.83,0,1.42,1.42,0,0,1-2.83.24A1,1,0,0,1,91.41,64.75Z" transform="translate(-4.8 -1.44)"/><path class="cls-8" d="M139.29,73.11a1.42,1.42,0,1,0-1.41-1.43h0a1.41,1.41,0,0,0,1.4,1.42Z" transform="translate(-4.8 -1.44)"/><line class="cls-9" x1="134.49" y1="70.25" x2="134.49" y2="8.45"/><line class="cls-10" x1="134.49" y1="70.25" x2="134.49" y2="8.45"/><path class="cls-11" d="M139.29,73.11a1.42,1.42,0,1,0-1.41-1.43h0a1.41,1.41,0,0,0,1.4,1.42Z" transform="translate(-4.8 -1.44)"/><path class="cls-8" d="M42.23,131.11a1.42,1.42,0,1,1-1.42,1.42h0A1.44,1.44,0,0,1,42.23,131.11Z" transform="translate(-4.8 -1.44)"/><polyline class="cls-9" points="37.43 131.09 37.43 166.59 15.22 166.59"/><polyline class="cls-10" points="37.43 131.09 37.43 166.59 15.22 166.59"/><path class="cls-11" d="M42.23,131.11a1.42,1.42,0,1,1-1.42,1.42h0A1.44,1.44,0,0,1,42.23,131.11Z" transform="translate(-4.8 -1.44)"/><path class="cls-8" d="M50.9,131.18a1.42,1.42,0,1,1-1.42,1.42h0a1.41,1.41,0,0,1,1.4-1.42Z" transform="translate(-4.8 -1.44)"/><polyline class="cls-9" points="46.1 131.16 46.1 147.12 68.56 147.12 68.56 167.16"/><polyline class="cls-10" points="46.1 131.16 46.1 147.12 68.56 147.12 68.56 167.16"/><path class="cls-11" d="M50.9,131.18a1.42,1.42,0,1,1-1.42,1.42h0a1.41,1.41,0,0,1,1.4-1.42Z" transform="translate(-4.8 -1.44)"/><path class="cls-8" d="M122.36,95.62A1.42,1.42,0,1,1,120.94,97v0A1.42,1.42,0,0,1,122.36,95.62Z" transform="translate(-4.8 -1.44)"/><line class="cls-9" x1="117.56" y1="95.59" x2="117.56" y2="126.12"/><line class="cls-10" x1="117.56" y1="95.59" x2="117.56" y2="126.12"/><path class="cls-11" d="M122.36,95.62A1.42,1.42,0,1,1,120.94,97v0A1.42,1.42,0,0,1,122.36,95.62Z" transform="translate(-4.8 -1.44)"/><path class="cls-8" d="M138,131.8a1.42,1.42,0,1,1-1.42,1.42h0A1.43,1.43,0,0,1,138,131.8Z" transform="translate(-4.8 -1.44)"/><line class="cls-9" x1="133.15" y1="131.78" x2="133.15" y2="167.76"/><line class="cls-10" x1="133.15" y1="131.78" x2="133.15" y2="167.76"/><path class="cls-11" d="M138,131.8a1.42,1.42,0,1,1-1.42,1.42h0A1.43,1.43,0,0,1,138,131.8Z" transform="translate(-4.8 -1.44)"/><path class="cls-8" d="M150.11,135.45a1.42,1.42,0,1,1-1.42,1.42h0A1.43,1.43,0,0,1,150.11,135.45Z" transform="translate(-4.8 -1.44)"/><line class="cls-9" x1="145.31" y1="135.43" x2="145.31" y2="186.96"/><line class="cls-10" x1="145.31" y1="135.43" x2="145.31" y2="186.96"/><path class="cls-11" d="M150.11,135.45a1.42,1.42,0,1,1-1.42,1.42h0A1.43,1.43,0,0,1,150.11,135.45Z" transform="translate(-4.8 -1.44)"/><path class="cls-8" d="M177.52,143.89a1.42,1.42,0,1,1-1.42,1.42h0A1.43,1.43,0,0,1,177.52,143.89Z" transform="translate(-4.8 -1.44)"/><line class="cls-9" x1="172.72" y1="143.87" x2="172.72" y2="167.16"/><line class="cls-10" x1="172.72" y1="143.87" x2="172.72" y2="167.16"/><path class="cls-11" d="M177.52,143.89a1.42,1.42,0,1,1-1.42,1.42h0A1.43,1.43,0,0,1,177.52,143.89Z" transform="translate(-4.8 -1.44)"/><path class="cls-8" d="M204.33,152.15a1.42,1.42,0,1,1-1.42,1.42h0A1.42,1.42,0,0,1,204.33,152.15Z" transform="translate(-4.8 -1.44)"/><line class="cls-9" x1="199.53" y1="152.12" x2="199.53" y2="186.96"/><line class="cls-10" x1="199.53" y1="152.12" x2="199.53" y2="186.96"/><path class="cls-11" d="M204.33,152.15a1.42,1.42,0,1,1-1.42,1.42h0A1.42,1.42,0,0,1,204.33,152.15Z" transform="translate(-4.8 -1.44)"/><path class="cls-8" d="M243.39,145.13a1.42,1.42,0,1,1-1.42,1.42h0A1.42,1.42,0,0,1,243.39,145.13Z" transform="translate(-4.8 -1.44)"/><line class="cls-9" x1="238.59" y1="145.1" x2="238.59" y2="187.1"/><line class="cls-10" x1="238.59" y1="145.1" x2="238.59" y2="187.1"/><path class="cls-11" d="M243.39,145.13a1.42,1.42,0,1,1-1.42,1.42h0A1.42,1.42,0,0,1,243.39,145.13Z" transform="translate(-4.8 -1.44)"/><path class="cls-8" d="M273,128.44a1.42,1.42,0,1,1-1.42,1.42h0A1.42,1.42,0,0,1,273,128.44Z" transform="translate(-4.8 -1.44)"/><line class="cls-9" x1="268.17" y1="128.41" x2="268.17" y2="186.96"/><line class="cls-10" x1="268.17" y1="128.41" x2="268.17" y2="186.96"/><path class="cls-11" d="M273,128.44a1.42,1.42,0,1,1-1.42,1.42h0A1.42,1.42,0,0,1,273,128.44Z" transform="translate(-4.8 -1.44)"/><path class="cls-8" d="M155.75,90a1.42,1.42,0,1,0-1.41-1.43v0A1.41,1.41,0,0,0,155.75,90Z" transform="translate(-4.8 -1.44)"/><line class="cls-9" x1="150.95" y1="87.13" x2="150.95" y2="8.45"/><line class="cls-10" x1="150.95" y1="87.13" x2="150.95" y2="8.45"/><path class="cls-11" d="M155.75,90a1.42,1.42,0,1,0-1.41-1.43v0A1.41,1.41,0,0,0,155.75,90Z" transform="translate(-4.8 -1.44)"/><path class="cls-8" d="M171,111.25a1.42,1.42,0,1,0-1.42-1.42h0A1.44,1.44,0,0,0,171,111.25Z" transform="translate(-4.8 -1.44)"/><line class="cls-9" x1="166.17" y1="108.39" x2="166.17" y2="28.79"/><line class="cls-10" x1="166.17" y1="108.39" x2="166.17" y2="28.79"/><path class="cls-11" d="M171,111.25a1.42,1.42,0,1,0-1.42-1.42h0A1.44,1.44,0,0,0,171,111.25Z" transform="translate(-4.8 -1.44)"/><path class="cls-8" d="M182.11,122.05a1.42,1.42,0,1,0-1.42-1.42h0a1.41,1.41,0,0,0,1.41,1.41Z" transform="translate(-4.8 -1.44)"/><line class="cls-9" x1="177.31" y1="119.2" x2="177.31" y2="94.5"/><line class="cls-10" x1="177.31" y1="119.2" x2="177.31" y2="94.5"/><path class="cls-11" d="M182.11,122.05a1.42,1.42,0,1,0-1.42-1.42h0a1.41,1.41,0,0,0,1.41,1.41Z" transform="translate(-4.8 -1.44)"/><path class="cls-8" d="M202.21,131a1.42,1.42,0,1,0-1.41-1.43h0A1.42,1.42,0,0,0,202.21,131Z" transform="translate(-4.8 -1.44)"/><line class="cls-9" x1="197.41" y1="128.12" x2="197.41" y2="48.16"/><line class="cls-10" x1="197.41" y1="128.12" x2="197.41" y2="48.16"/><path class="cls-11" d="M202.21,131a1.42,1.42,0,1,0-1.41-1.43h0A1.42,1.42,0,0,0,202.21,131Z" transform="translate(-4.8 -1.44)"/><path class="cls-8" d="M233.7,129.59a1.42,1.42,0,1,0-1.41-1.43v0A1.42,1.42,0,0,0,233.7,129.59Z" transform="translate(-4.8 -1.44)"/><line class="cls-9" x1="228.9" y1="126.74" x2="228.9" y2="106.74"/><line class="cls-10" x1="228.9" y1="126.74" x2="228.9" y2="106.74"/><path class="cls-11" d="M233.7,129.59a1.42,1.42,0,1,0-1.41-1.43v0A1.42,1.42,0,0,0,233.7,129.59Z" transform="translate(-4.8 -1.44)"/><path class="cls-8" d="M260,114.63a1.42,1.42,0,1,0-1.42-1.42,1.43,1.43,0,0,0,1.42,1.42Z" transform="translate(-4.8 -1.44)"/><polyline class="cls-9" points="255.19 111.77 255.19 96.56 235.6 96.56 235.6 66.45"/><polyline class="cls-10" points="255.19 111.77 255.19 96.56 235.6 96.56 235.6 66.45"/><path class="cls-11" d="M260,114.63a1.42,1.42,0,1,0-1.42-1.42,1.43,1.43,0,0,0,1.42,1.42Z" transform="translate(-4.8 -1.44)"/><path class="cls-8" d="M275.54,108.48a1.42,1.42,0,1,0-1.42-1.42A1.43,1.43,0,0,0,275.54,108.48Z" transform="translate(-4.8 -1.44)"/><line class="cls-9" x1="270.74" y1="105.62" x2="270.74" y2="85.12"/><line class="cls-10" x1="270.74" y1="105.62" x2="270.74" y2="85.12"/><path class="cls-11" d="M275.54,108.48a1.42,1.42,0,1,0-1.42-1.42A1.43,1.43,0,0,0,275.54,108.48Z" transform="translate(-4.8 -1.44)"/><path class="cls-8" d="M33.88,93.83a1.42,1.42,0,1,0-1.42-1.42h0A1.43,1.43,0,0,0,33.88,93.83Z" transform="translate(-4.8 -1.44)"/><line class="cls-9" x1="29.08" y1="90.97" x2="29.08" y2="28.59"/><line class="cls-10" x1="29.08" y1="90.97" x2="29.08" y2="28.59"/><path class="cls-11" d="M33.88,93.83a1.42,1.42,0,1,0-1.42-1.42h0A1.43,1.43,0,0,0,33.88,93.83Z" transform="translate(-4.8 -1.44)"/><path class="cls-8" d="M83.47,117.41a1.42,1.42,0,1,0-1.42,1.42h0A1.42,1.42,0,0,0,83.47,117.41Z" transform="translate(-4.8 -1.44)"/><line class="cls-9" x1="77.26" y1="115.97" x2="64.78" y2="115.97"/><line class="cls-10" x1="77.26" y1="115.97" x2="64.78" y2="115.97"/><path class="cls-11" d="M83.47,117.41a1.42,1.42,0,1,0-1.42,1.42h0A1.42,1.42,0,0,0,83.47,117.41Z" transform="translate(-4.8 -1.44)"/><path class="cls-8" d="M136.13,123.05a1.42,1.42,0,1,0-1.43,1.41h0A1.42,1.42,0,0,0,136.13,123.05Z" transform="translate(-4.8 -1.44)"/><polyline class="cls-9" points="129.91 121.61 125.8 121.61 125.8 147.12 119.22 147.12"/><polyline class="cls-10" points="129.91 121.61 125.8 121.61 125.8 147.12 119.22 147.12"/><path class="cls-11" d="M136.13,123.05a1.42,1.42,0,1,0-1.43,1.41h0A1.42,1.42,0,0,0,136.13,123.05Z" transform="translate(-4.8 -1.44)"/><path class="cls-8" d="M283.5,120.88a1.42,1.42,0,1,1,1.42,1.42A1.43,1.43,0,0,1,283.5,120.88Z" transform="translate(-4.8 -1.44)"/><polyline class="cls-9" points="280.12 119.44 292.56 119.44 292.56 66.45"/><polyline class="cls-10" points="280.12 119.44 292.56 119.44 292.56 66.45"/><path class="cls-11" d="M283.5,120.88a1.42,1.42,0,1,1,1.42,1.42A1.43,1.43,0,0,1,283.5,120.88Z" transform="translate(-4.8 -1.44)"/><path class="cls-8" d="M28.45,109.1A1.42,1.42,0,1,0,27,110.52a1.43,1.43,0,0,0,1.45-1.42Z" transform="translate(-4.8 -1.44)"/><polyline class="cls-9" points="22.24 107.66 9 107.66 9 9.12"/><polyline class="cls-10" points="22.24 107.66 9 107.66 9 9.12"/><path class="cls-11" d="M28.45,109.1A1.42,1.42,0,1,0,27,110.52a1.43,1.43,0,0,0,1.45-1.42Z" transform="translate(-4.8 -1.44)"/><path class="cls-8" d="M90.64,83.85a1.42,1.42,0,1,0-1.42,1.42h0A1.44,1.44,0,0,0,90.64,83.85Z" transform="translate(-4.8 -1.44)"/><polyline class="cls-9" points="84.42 82.41 72.55 82.41 72.55 67.79"/><polyline class="cls-10" points="84.42 82.41 72.55 82.41 72.55 67.79"/><path class="cls-11" d="M90.64,83.85a1.42,1.42,0,1,0-1.42,1.42h0A1.44,1.44,0,0,0,90.64,83.85Z" transform="translate(-4.8 -1.44)"/><rect class="cls-12" x="97.48" y="60.4" width="11.87" height="11.87" rx="2.83"/><polygon class="cls-13" points="99.75 68.03 99.12 70.43 107.71 70.43 107.08 68.03 99.75 68.03"/><polygon class="cls-13" points="100.41 62.21 99.12 67.14 107.71 67.14 106.41 62.21 100.41 62.21"/><rect class="cls-12" x="232.65" y="180.84" width="11.87" height="11.87" rx="2.83"/><polygon class="cls-13" points="234.92 188.47 234.29 190.87 242.88 190.87 242.25 188.47 234.92 188.47"/><polygon class="cls-13" points="235.58 182.65 234.29 187.57 242.88 187.57 241.59 182.65 235.58 182.65"/><path class="cls-12" d="M193.28,92H182.11a5.94,5.94,0,0,0,0,11.88h11.17a2.85,2.85,0,0,0,2.83-2.84v-6.2A2.85,2.85,0,0,0,193.28,92Z" transform="translate(-4.8 -1.44)"/><path class="cls-13" d="M186.46,98a4.35,4.35,0,0,1-8.69.42,2.94,2.94,0,0,1,0-.42,4.23,4.23,0,0,1,.31-1.61.46.46,0,0,1,.62-.18.45.45,0,0,1,.23.51,3.32,3.32,0,0,0-.25,1.28,3.44,3.44,0,1,0,5-3,.46.46,0,0,1-.19-.62.45.45,0,0,1,.61-.19h0A4.34,4.34,0,0,1,186.46,98Zm-4.35-3a.67.67,0,1,0-.67-.67A.67.67,0,0,0,182.11,95Zm0,3.68a.67.67,0,0,0,.67-.67.68.68,0,0,0-.3-.56L178.9,94.8l2.65,3.58a.67.67,0,0,0,.56.25Z" transform="translate(-4.8 -1.44)"/><path class="cls-12" d="M284.14,182.28H273a5.94,5.94,0,0,0,0,11.87h11.17a2.83,2.83,0,0,0,2.83-2.83v-6.21a2.83,2.83,0,0,0-2.83-2.83Z" transform="translate(-4.8 -1.44)"/><path class="cls-13" d="M277.32,188.22a4.35,4.35,0,0,1-8.69,0,4.53,4.53,0,0,1,.31-1.62.46.46,0,0,1,.88.26.41.41,0,0,1,0,.08,3.32,3.32,0,0,0-.25,1.28,3.44,3.44,0,1,0,5-3.05.46.46,0,0,1-.12-.64.47.47,0,0,1,.54-.17A4.33,4.33,0,0,1,277.32,188.22Zm-4.35-3a.67.67,0,1,0-.67-.67.67.67,0,0,0,.67.67h0Zm0,3.68a.68.68,0,0,0,.67-.67.65.65,0,0,0-.3-.56L269.76,185l2.66,3.58a.66.66,0,0,0,.58.31Z" transform="translate(-4.8 -1.44)"/><path class="cls-12" d="M22.4,162.1H11.23A5.94,5.94,0,0,0,10.74,174H22.4a2.83,2.83,0,0,0,2.83-2.83h0v-6.21A2.83,2.83,0,0,0,22.4,162.1Z" transform="translate(-4.8 -1.44)"/><path class="cls-13" d="M15.57,168a4.34,4.34,0,1,1-8.68,0,4.25,4.25,0,0,1,.31-1.62.45.45,0,0,1,.58-.26h0a.46.46,0,0,1,.25.6A3.43,3.43,0,1,0,12.82,165a.46.46,0,0,1-.12-.64.47.47,0,0,1,.54-.17A4.34,4.34,0,0,1,15.57,168Zm-4.34-3a.67.67,0,1,0-.67-.67h0A.67.67,0,0,0,11.23,165Zm0,3.68a.67.67,0,0,0,.37-1.23L8,164.82l2.65,3.58a.71.71,0,0,0,.58.31Z" transform="translate(-4.8 -1.44)"/><path class="cls-13" d="M272.44,62.1h26.9a2.83,2.83,0,0,1,2.83,2.83v6.21a2.83,2.83,0,0,1-2.8,2.86H272.44a2.83,2.83,0,0,1-2.83-2.83V64.93A2.85,2.85,0,0,1,272.44,62.1Z" transform="translate(-4.8 -1.44)"/><polygon class="cls-11" points="279.66 64.29 278.2 64.29 278.35 63.61 279.8 63.61 279.66 64.29"/><polygon class="cls-11" points="279.28 66.07 276.88 66.07 277.03 65.38 279.43 65.38 279.28 66.07"/><polygon class="cls-11" points="278.91 67.85 275.56 67.85 275.7 67.16 279.05 67.16 278.91 67.85"/><polygon class="cls-11" points="278.53 69.62 274.24 69.62 274.38 68.94 278.68 68.94 278.53 69.62"/><path class="cls-14" d="M267.87,62a6.34,6.34,0,0,0-.83.3.26.26,0,0,1-.21,0l-1.4-1a.66.66,0,0,0-.74,0l-.9.76a.64.64,0,0,0-.15.73l.77,1.54a.28.28,0,0,1,0,.22,6.06,6.06,0,0,0-.45.78.23.23,0,0,1-.18.12l-1.73.1a.64.64,0,0,0-.55.5l-.21,1.16a.65.65,0,0,0,.35.65l1.58.69a.24.24,0,0,1,.14.17,6.49,6.49,0,0,0,.16.88.26.26,0,0,1-.06.21L262.19,71a.62.62,0,0,0-.11.73l.59,1a.6.6,0,0,0,.69.27l1.65-.49a.27.27,0,0,1,.23.06,7.1,7.1,0,0,0,.67.56.26.26,0,0,1,.1.2l-.2,1.73a.63.63,0,0,0,.39.63l1.1.4a.63.63,0,0,0,.71-.23l.94-1.44a.26.26,0,0,1,.22-.1h.88a.26.26,0,0,1,.2.1l.95,1.45a.65.65,0,0,0,.71.23l1.1-.4a.62.62,0,0,0,.39-.63l-.19-1.71a.24.24,0,0,1,.09-.22,5.18,5.18,0,0,0,.67-.57.26.26,0,0,1,.21,0l1.67.49a.63.63,0,0,0,.69-.27l.59-1A.64.64,0,0,0,277,71l-1.25-1.18a.26.26,0,0,1-.07-.22,5.24,5.24,0,0,0,.16-.88.3.3,0,0,1,.12-.17l1.59-.69a.64.64,0,0,0,.36-.65L277.72,66a.64.64,0,0,0-.55-.5l-1.72-.1a.28.28,0,0,1-.2-.13,7.3,7.3,0,0,0-.44-.77.26.26,0,0,1,0-.21l.78-1.55a.64.64,0,0,0-.15-.73l-.9-.76a.66.66,0,0,0-.74,0l-1.38,1a.33.33,0,0,1-.24,0,6.34,6.34,0,0,0-.83-.3.23.23,0,0,1-.15-.15l-.41-1.69a.63.63,0,0,0-.58-.46H269a.63.63,0,0,0-.58.46l-.4,1.67A.26.26,0,0,1,267.87,62Z" transform="translate(-4.8 -1.44)"/><path class="cls-15" d="M269.6,63a5.07,5.07,0,1,0,5.07,5.07V68A5.08,5.08,0,0,0,269.6,63Z" transform="translate(-4.8 -1.44)"/><rect class="cls-13" x="218.47" y="60.66" width="32.57" height="11.87" rx="2.83"/><polygon class="cls-11" points="233.32 64.29 231.87 64.29 232.01 63.61 233.47 63.61 233.32 64.29"/><polygon class="cls-11" points="232.95 66.07 230.55 66.07 230.69 65.38 233.09 65.38 232.95 66.07"/><polygon class="cls-11" points="232.57 67.85 229.22 67.85 229.37 67.16 232.72 67.16 232.57 67.85"/><polygon class="cls-11" points="232.2 69.62 227.9 69.62 228.05 68.94 232.34 68.94 232.2 69.62"/><path class="cls-14" d="M221.54,62a6.34,6.34,0,0,0-.83.3.41.41,0,0,1-.22,0l-1.39-1a.66.66,0,0,0-.74,0l-.91.76a.65.65,0,0,0-.15.73l.77,1.54a.22.22,0,0,1,0,.22,7.44,7.44,0,0,0-.44.78.28.28,0,0,1-.18.12l-1.73.1a.65.65,0,0,0-.56.5l-.2,1.16a.61.61,0,0,0,.35.65l1.58.69a.26.26,0,0,1,.14.17,6.47,6.47,0,0,0,.15.88.26.26,0,0,1,0,.21L215.86,71a.62.62,0,0,0-.11.73l.59,1A.61.61,0,0,0,217,73l1.65-.49a.27.27,0,0,1,.23.06,6,6,0,0,0,.67.56.25.25,0,0,1,.09.2l-.2,1.73a.63.63,0,0,0,.39.63l1.11.4a.63.63,0,0,0,.71-.23l.94-1.44a.25.25,0,0,1,.21-.1h.88a.26.26,0,0,1,.2.1l1,1.45a.63.63,0,0,0,.7.23l1.11-.4a.63.63,0,0,0,.39-.63l-.2-1.71a.31.31,0,0,1,.09-.22,5.27,5.27,0,0,0,.68-.57.26.26,0,0,1,.21,0l1.66.49a.63.63,0,0,0,.69-.27l.59-1a.64.64,0,0,0-.1-.74l-1.25-1.18a.23.23,0,0,1-.07-.22,6.49,6.49,0,0,0,.16-.88.24.24,0,0,1,.12-.17l1.59-.69a.62.62,0,0,0,.35-.65l-.2-1.16a.65.65,0,0,0-.56-.5l-1.71-.1a.28.28,0,0,1-.2-.13,5.35,5.35,0,0,0-.45-.77.26.26,0,0,1,0-.21l.78-1.55a.65.65,0,0,0-.15-.73l-.91-.76a.66.66,0,0,0-.74,0l-1.38,1a.31.31,0,0,1-.23,0A8.93,8.93,0,0,0,225,62a.26.26,0,0,1-.16-.15l-.4-1.69a.63.63,0,0,0-.58-.46h-1.18a.63.63,0,0,0-.58.46l-.4,1.67A.3.3,0,0,1,221.54,62Z" transform="translate(-4.8 -1.44)"/><path class="cls-15" d="M223.27,63a5.07,5.07,0,1,0,5.07,5.07V68A5.08,5.08,0,0,0,223.27,63Z" transform="translate(-4.8 -1.44)"/><rect class="cls-13" x="209.6" y="100.08" width="32.57" height="11.87" rx="2.83"/><polygon class="cls-11" points="224.45 103.72 223 103.72 223.14 103.03 224.6 103.03 224.45 103.72"/><polygon class="cls-11" points="224.08 105.49 221.68 105.49 221.82 104.81 224.22 104.81 224.08 105.49"/><polygon class="cls-11" points="223.7 107.27 220.35 107.27 220.5 106.58 223.85 106.58 223.7 107.27"/><polygon class="cls-11" points="223.33 109.05 219.03 109.05 219.18 108.36 223.47 108.36 223.33 109.05"/><path class="cls-14" d="M212.67,101.43a6,6,0,0,0-.84.3.26.26,0,0,1-.21,0l-1.39-1a.63.63,0,0,0-.74,0l-.91.76a.63.63,0,0,0-.15.72l.77,1.54a.24.24,0,0,1,0,.23,4.51,4.51,0,0,0-.44.77.27.27,0,0,1-.18.13l-1.73.1a.66.66,0,0,0-.56.49l-.2,1.16a.63.63,0,0,0,.35.66L208,108a.28.28,0,0,1,.14.18,4.38,4.38,0,0,0,.15.88.23.23,0,0,1-.05.21L207,110.4a.62.62,0,0,0-.11.73l.59,1a.63.63,0,0,0,.69.27l1.65-.49a.28.28,0,0,1,.22,0,5.27,5.27,0,0,0,.68.57.25.25,0,0,1,.09.2l-.2,1.72a.63.63,0,0,0,.39.63l1.11.41a.64.64,0,0,0,.7-.24l.95-1.43a.26.26,0,0,1,.21-.11h.88a.25.25,0,0,1,.2.09l1,1.45a.64.64,0,0,0,.7.24l1.11-.41a.63.63,0,0,0,.39-.63l-.2-1.71a.31.31,0,0,1,.09-.22,6.13,6.13,0,0,0,.68-.56.26.26,0,0,1,.21-.06l1.66.5a.63.63,0,0,0,.69-.27l.59-1a.65.65,0,0,0-.1-.73l-1.25-1.18a.25.25,0,0,1-.07-.23,8.52,8.52,0,0,0,.16-.88.24.24,0,0,1,.12-.17l1.59-.68a.66.66,0,0,0,.35-.66l-.2-1.16A.63.63,0,0,0,222,105l-1.71-.1a.28.28,0,0,1-.2-.13,6.06,6.06,0,0,0-.45-.78.23.23,0,0,1,0-.2l.78-1.56a.63.63,0,0,0-.15-.72l-.91-.76a.63.63,0,0,0-.74,0l-1.38,1a.24.24,0,0,1-.23,0,6,6,0,0,0-.84-.3.26.26,0,0,1-.15-.16l-.4-1.68a.63.63,0,0,0-.58-.46h-1.18a.63.63,0,0,0-.58.46l-.4,1.67A.27.27,0,0,1,212.67,101.43Z" transform="translate(-4.8 -1.44)"/><path class="cls-15" d="M214.4,102.39a5.07,5.07,0,1,0,5.07,5.07,5.07,5.07,0,0,0-5.07-5.07Z" transform="translate(-4.8 -1.44)"/><path class="cls-13" d="M179.44,182.28h26.9a2.84,2.84,0,0,1,2.84,2.84v6.21a2.83,2.83,0,0,1-2.83,2.83h-26.9a2.83,2.83,0,0,1-2.83-2.83h0v-6.21a2.83,2.83,0,0,1,2.82-2.84Z" transform="translate(-4.8 -1.44)"/><polygon class="cls-11" points="186.66 184.47 185.2 184.47 185.35 183.78 186.8 183.78 186.66 184.47"/><polygon class="cls-11" points="186.28 186.25 183.88 186.25 184.03 185.56 186.43 185.56 186.28 186.25"/><polygon class="cls-11" points="185.91 188.03 182.56 188.03 182.7 187.34 186.05 187.34 185.91 188.03"/><polygon class="cls-11" points="185.53 189.8 181.24 189.8 181.38 189.12 185.68 189.12 185.53 189.8"/><path class="cls-14" d="M174.87,182.18a8.29,8.29,0,0,0-.83.31.26.26,0,0,1-.21,0l-1.4-1a.66.66,0,0,0-.74,0l-.9.76a.64.64,0,0,0-.15.73l.77,1.54a.28.28,0,0,1,0,.22,6.06,6.06,0,0,0-.45.78.23.23,0,0,1-.18.12l-1.73.1a.64.64,0,0,0-.55.5l-.21,1.16a.65.65,0,0,0,.35.65l1.58.68a.28.28,0,0,1,.14.18,6.49,6.49,0,0,0,.16.88.26.26,0,0,1-.06.21l-1.26,1.2a.62.62,0,0,0-.11.73l.59,1a.6.6,0,0,0,.69.27l1.65-.49a.27.27,0,0,1,.23.06,7.1,7.1,0,0,0,.67.56.26.26,0,0,1,.1.2l-.2,1.73a.63.63,0,0,0,.39.63l1.1.4A.62.62,0,0,0,175,196l.94-1.44a.26.26,0,0,1,.22-.1H177a.26.26,0,0,1,.2.1l.95,1.45a.63.63,0,0,0,.71.23l1.1-.4a.63.63,0,0,0,.39-.63l-.19-1.71a.24.24,0,0,1,.09-.22,5.18,5.18,0,0,0,.67-.57.27.27,0,0,1,.21-.05l1.67.49a.6.6,0,0,0,.69-.27l.59-1a.64.64,0,0,0-.11-.74L182.77,190a.26.26,0,0,1-.07-.22,5.24,5.24,0,0,0,.16-.88.3.3,0,0,1,.12-.17l1.59-.69a.64.64,0,0,0,.36-.65l-.21-1.16a.64.64,0,0,0-.55-.5l-1.72-.1a.28.28,0,0,1-.2-.13,7.3,7.3,0,0,0-.44-.77.26.26,0,0,1,0-.21l.78-1.55a.64.64,0,0,0-.15-.73l-.9-.76a.66.66,0,0,0-.74,0l-1.38,1a.33.33,0,0,1-.24,0,6.34,6.34,0,0,0-.83-.3.23.23,0,0,1-.15-.15l-.41-1.69a.63.63,0,0,0-.58-.46H176a.63.63,0,0,0-.58.46L175,182A.23.23,0,0,1,174.87,182.18Z" transform="translate(-4.8 -1.44)"/><path class="cls-15" d="M176.6,183.14a5.08,5.08,0,1,0,5.07,5.09v0a5.07,5.07,0,0,0-5.07-5.07Z" transform="translate(-4.8 -1.44)"/><path class="cls-13" d="M167.44,162.1h26.9a2.83,2.83,0,0,1,2.83,2.83h0v6.21a2.83,2.83,0,0,1-2.83,2.83h-26.9a2.83,2.83,0,0,1-2.83-2.83h0v-6.2A2.85,2.85,0,0,1,167.44,162.1Z" transform="translate(-4.8 -1.44)"/><polygon class="cls-11" points="174.66 164.29 173.2 164.29 173.35 163.6 174.8 163.6 174.66 164.29"/><polygon class="cls-11" points="174.28 166.07 171.88 166.07 172.03 165.38 174.43 165.38 174.28 166.07"/><polygon class="cls-11" points="173.91 167.85 170.56 167.85 170.7 167.16 174.05 167.16 173.91 167.85"/><polygon class="cls-11" points="173.53 169.62 169.24 169.62 169.38 168.94 173.68 168.94 173.53 169.62"/><path class="cls-14" d="M162.87,162a6.34,6.34,0,0,0-.83.3.26.26,0,0,1-.21,0l-1.4-1a.66.66,0,0,0-.74,0l-.9.76a.64.64,0,0,0-.15.73l.77,1.54a.28.28,0,0,1,0,.22,6.06,6.06,0,0,0-.45.78.23.23,0,0,1-.18.12l-1.73.11a.61.61,0,0,0-.55.49l-.21,1.16a.65.65,0,0,0,.35.65l1.58.69a.24.24,0,0,1,.14.17,6.49,6.49,0,0,0,.16.88.26.26,0,0,1-.06.21L157.2,171a.62.62,0,0,0-.11.73l.59,1a.6.6,0,0,0,.69.27l1.65-.49a.32.32,0,0,1,.23.06,7.1,7.1,0,0,0,.67.56.26.26,0,0,1,.1.2l-.2,1.73a.63.63,0,0,0,.39.63l1.1.4a.63.63,0,0,0,.71-.23l.94-1.44a.26.26,0,0,1,.22-.1h.88a.26.26,0,0,1,.2.1l1,1.45a.65.65,0,0,0,.71.23l1.1-.4a.62.62,0,0,0,.39-.63l-.19-1.71a.24.24,0,0,1,.09-.22,5.18,5.18,0,0,0,.67-.57.27.27,0,0,1,.21-.05l1.67.49a.6.6,0,0,0,.69-.27l.59-1A.64.64,0,0,0,172,171l-1.25-1.18a.26.26,0,0,1-.07-.22,5.24,5.24,0,0,0,.16-.88.3.3,0,0,1,.12-.17l1.59-.69a.64.64,0,0,0,.36-.65l-.21-1.16a.64.64,0,0,0-.55-.5l-1.72-.1a.28.28,0,0,1-.2-.13,7.3,7.3,0,0,0-.44-.77.26.26,0,0,1,0-.21l.78-1.55a.64.64,0,0,0-.15-.73l-.9-.76a.66.66,0,0,0-.74,0l-1.38,1a.33.33,0,0,1-.24,0c-.27-.11-.54-.21-.83-.3a.23.23,0,0,1-.15-.15l-.41-1.69a.63.63,0,0,0-.58-.46H164a.63.63,0,0,0-.58.46l-.4,1.67A.26.26,0,0,1,162.87,162Z" transform="translate(-4.8 -1.44)"/><path class="cls-15" d="M164.6,163a5.08,5.08,0,1,0,5.07,5.09v0A5.07,5.07,0,0,0,164.6,163Z" transform="translate(-4.8 -1.44)"/><path class="cls-13" d="M123.11,182.28H150a2.83,2.83,0,0,1,2.83,2.83h0v6.21a2.83,2.83,0,0,1-2.83,2.83H123.1a2.83,2.83,0,0,1-2.83-2.83h0v-6.21a2.84,2.84,0,0,1,2.84-2.84Z" transform="translate(-4.8 -1.44)"/><polygon class="cls-11" points="130.32 184.47 128.87 184.47 129.02 183.78 130.47 183.78 130.32 184.47"/><polygon class="cls-11" points="129.95 186.25 127.55 186.25 127.69 185.56 130.1 185.56 129.95 186.25"/><polygon class="cls-11" points="129.57 188.03 126.23 188.03 126.37 187.34 129.72 187.34 129.57 188.03"/><polygon class="cls-11" points="129.2 189.8 124.9 189.8 125.05 189.12 129.34 189.12 129.2 189.8"/><path class="cls-14" d="M118.54,182.18a8.29,8.29,0,0,0-.83.31.41.41,0,0,1-.22,0l-1.39-1a.66.66,0,0,0-.74,0l-.9.76a.65.65,0,0,0-.16.73l.77,1.54a.22.22,0,0,1,0,.22,7.44,7.44,0,0,0-.44.78.28.28,0,0,1-.18.12l-1.73.1a.63.63,0,0,0-.55.5L112,187.4a.62.62,0,0,0,.35.65l1.58.68a.28.28,0,0,1,.14.18,6.47,6.47,0,0,0,.15.88.26.26,0,0,1,0,.21l-1.26,1.2a.62.62,0,0,0-.11.73l.59,1a.6.6,0,0,0,.69.27l1.65-.49a.27.27,0,0,1,.23.06,6,6,0,0,0,.67.56.25.25,0,0,1,.09.2l-.2,1.73a.63.63,0,0,0,.39.63l1.11.4a.63.63,0,0,0,.71-.23l.94-1.44a.25.25,0,0,1,.21-.1h.88a.26.26,0,0,1,.2.1l1,1.45a.62.62,0,0,0,.7.23l1.11-.4a.63.63,0,0,0,.39-.63l-.2-1.71a.31.31,0,0,1,.09-.22,5.27,5.27,0,0,0,.68-.57.27.27,0,0,1,.21-.05l1.66.49a.6.6,0,0,0,.69-.27l.59-1a.64.64,0,0,0-.1-.74l-1.35-1.2a.26.26,0,0,1-.07-.22,6.49,6.49,0,0,0,.16-.88.26.26,0,0,1,.12-.17l1.59-.69a.62.62,0,0,0,.35-.65l-.2-1.16a.65.65,0,0,0-.56-.5l-1.71-.1a.28.28,0,0,1-.2-.13,5.35,5.35,0,0,0-.45-.77.26.26,0,0,1,0-.21l.78-1.55a.65.65,0,0,0-.15-.73l-.91-.76a.66.66,0,0,0-.74,0l-1.38,1a.31.31,0,0,1-.23,0c-.27-.11-.55-.21-.83-.3a.23.23,0,0,1-.15-.15l-.41-1.69a.63.63,0,0,0-.58-.46h-1.18a.63.63,0,0,0-.58.46l-.4,1.67A.24.24,0,0,1,118.54,182.18Z" transform="translate(-4.8 -1.44)"/><path class="cls-15" d="M120.27,183.14a5.08,5.08,0,1,0,5.07,5.09v0a5.07,5.07,0,0,0-5.07-5.07Z" transform="translate(-4.8 -1.44)"/><path class="cls-13" d="M112.77,162.1h26.9a2.83,2.83,0,0,1,2.83,2.83h0v6.21a2.83,2.83,0,0,1-2.83,2.83h-26.9a2.83,2.83,0,0,1-2.83-2.83h0v-6.2A2.85,2.85,0,0,1,112.77,162.1Z" transform="translate(-4.8 -1.44)"/><polygon class="cls-11" points="119.99 164.29 118.54 164.29 118.68 163.6 120.14 163.6 119.99 164.29"/><polygon class="cls-11" points="119.62 166.07 117.22 166.07 117.36 165.38 119.76 165.38 119.62 166.07"/><polygon class="cls-11" points="119.24 167.85 115.89 167.85 116.04 167.16 119.39 167.16 119.24 167.85"/><polygon class="cls-11" points="118.87 169.62 114.57 169.62 114.72 168.94 119.01 168.94 118.87 169.62"/><path class="cls-14" d="M108.2,162a6.34,6.34,0,0,0-.83.3.26.26,0,0,1-.21,0l-1.39-1a.66.66,0,0,0-.74,0l-.91.76a.64.64,0,0,0-.15.73l.77,1.54a.22.22,0,0,1,0,.22,6,6,0,0,0-.44.78.28.28,0,0,1-.18.12l-1.73.11a.63.63,0,0,0-.56.49l-.2,1.16a.61.61,0,0,0,.35.65l1.58.69a.23.23,0,0,1,.13.17,6.49,6.49,0,0,0,.16.88.23.23,0,0,1-.06.21l-1.26,1.2a.62.62,0,0,0-.1.73l.58,1a.63.63,0,0,0,.69.27l1.65-.49a.32.32,0,0,1,.23.06,6.13,6.13,0,0,0,.68.56.25.25,0,0,1,.09.2l-.2,1.73a.63.63,0,0,0,.39.63l1.11.4a.62.62,0,0,0,.7-.23l1-1.44a.25.25,0,0,1,.21-.1h.88a.26.26,0,0,1,.2.1l1,1.45a.63.63,0,0,0,.7.23l1.11-.4a.63.63,0,0,0,.39-.63l-.2-1.71a.24.24,0,0,1,.09-.22,5.27,5.27,0,0,0,.68-.57.23.23,0,0,1,.21-.05l1.66.49a.6.6,0,0,0,.69-.27l.59-1a.64.64,0,0,0-.11-.74l-1.25-1.18a.25.25,0,0,1-.06-.22,6.47,6.47,0,0,0,.15-.88.31.31,0,0,1,.13-.17l1.59-.69a.62.62,0,0,0,.35-.65l-.2-1.16a.65.65,0,0,0-.56-.5l-1.72-.1a.26.26,0,0,1-.19-.13,5.35,5.35,0,0,0-.45-.77.26.26,0,0,1,0-.21l.77-1.55a.64.64,0,0,0-.15-.73l-.9-.76a.66.66,0,0,0-.74,0l-1.38,1a.33.33,0,0,1-.24,0c-.26-.11-.54-.21-.83-.3a.28.28,0,0,1-.15-.15l-.4-1.69a.63.63,0,0,0-.58-.46h-1.18a.63.63,0,0,0-.58.46l-.4,1.67A.29.29,0,0,1,108.2,162Z" transform="translate(-4.8 -1.44)"/><path class="cls-15" d="M109.94,163a5.08,5.08,0,1,0,5.06,5.1V168A5.07,5.07,0,0,0,109.94,163Z" transform="translate(-4.8 -1.44)"/><path class="cls-13" d="M96.77,142.43h26.9a2.83,2.83,0,0,1,2.83,2.83h0v6.21a2.83,2.83,0,0,1-2.83,2.83H96.77a2.83,2.83,0,0,1-2.83-2.83h0v-6.2A2.85,2.85,0,0,1,96.77,142.43Z" transform="translate(-4.8 -1.44)"/><polygon class="cls-11" points="103.99 144.63 102.54 144.63 102.68 143.94 104.14 143.94 103.99 144.63"/><polygon class="cls-11" points="103.62 146.4 101.22 146.4 101.36 145.72 103.76 145.72 103.62 146.4"/><polygon class="cls-11" points="103.24 148.18 99.89 148.18 100.04 147.49 103.39 147.49 103.24 148.18"/><polygon class="cls-11" points="102.87 149.96 98.57 149.96 98.72 149.27 103.01 149.27 102.87 149.96"/><path class="cls-14" d="M92.2,142.34a6.34,6.34,0,0,0-.83.3.26.26,0,0,1-.21,0l-1.39-1a.63.63,0,0,0-.74,0l-.91.76a.6.6,0,0,0-.15.72l.77,1.54a.31.31,0,0,1,0,.23,4.51,4.51,0,0,0-.44.77.29.29,0,0,1-.18.13l-1.73.1a.64.64,0,0,0-.56.49l-.2,1.16a.63.63,0,0,0,.35.66l1.58.68a.23.23,0,0,1,.13.18,6.64,6.64,0,0,0,.16.87.25.25,0,0,1-.06.22l-1.26,1.19a.62.62,0,0,0-.1.73l.58,1a.65.65,0,0,0,.69.27l1.65-.49a.27.27,0,0,1,.23.05,5.27,5.27,0,0,0,.68.57.25.25,0,0,1,.09.2l-.2,1.72a.63.63,0,0,0,.39.63l1.11.41a.64.64,0,0,0,.7-.24l1-1.43a.26.26,0,0,1,.21-.11h.88a.22.22,0,0,1,.2.09l1,1.45a.64.64,0,0,0,.7.24l1.11-.41a.63.63,0,0,0,.39-.63l-.2-1.71a.26.26,0,0,1,.09-.22,6.13,6.13,0,0,0,.68-.56.26.26,0,0,1,.21-.06l1.66.5a.63.63,0,0,0,.69-.27l.59-1a.62.62,0,0,0-.11-.73l-1.25-1.18a.27.27,0,0,1-.06-.23,6.47,6.47,0,0,0,.15-.88.31.31,0,0,1,.13-.17l1.59-.69a.62.62,0,0,0,.35-.65l-.2-1.16a.63.63,0,0,0-.56-.49l-1.72-.1a.3.3,0,0,1-.19-.14,6,6,0,0,0-.45-.77.26.26,0,0,1,0-.21l.77-1.55a.6.6,0,0,0-.15-.72l-.9-.76a.63.63,0,0,0-.74,0l-1.38,1a.26.26,0,0,1-.24,0,6.34,6.34,0,0,0-.83-.3.29.29,0,0,1-.15-.16l-.4-1.68a.63.63,0,0,0-.58-.46H93.35a.63.63,0,0,0-.58.46l-.4,1.67A.29.29,0,0,1,92.2,142.34Z" transform="translate(-4.8 -1.44)"/><path class="cls-15" d="M93.94,143.3A5.07,5.07,0,1,0,99,148.38h0A5.07,5.07,0,0,0,93.94,143.3Z" transform="translate(-4.8 -1.44)"/><path class="cls-13" d="M96.77,122.76h26.9a2.83,2.83,0,0,1,2.83,2.83h0v6.21a2.83,2.83,0,0,1-2.83,2.83H96.77a2.83,2.83,0,0,1-2.83-2.83h0v-6.2A2.85,2.85,0,0,1,96.77,122.76Z" transform="translate(-4.8 -1.44)"/><polygon class="cls-11" points="103.99 124.96 102.54 124.96 102.68 124.27 104.14 124.27 103.99 124.96"/><polygon class="cls-11" points="103.62 126.74 101.22 126.74 101.36 126.05 103.76 126.05 103.62 126.74"/><polygon class="cls-11" points="103.24 128.51 99.89 128.51 100.04 127.83 103.39 127.83 103.24 128.51"/><polygon class="cls-11" points="102.87 130.29 98.57 130.29 98.72 129.6 103.01 129.6 102.87 130.29"/><path class="cls-14" d="M92.2,122.67a8.29,8.29,0,0,0-.83.31.26.26,0,0,1-.21,0l-1.39-1a.66.66,0,0,0-.74,0l-.91.76a.64.64,0,0,0-.15.73l.77,1.54a.22.22,0,0,1,0,.22,5.88,5.88,0,0,0-.44.77.24.24,0,0,1-.18.13l-1.73.1a.66.66,0,0,0-.56.49l-.2,1.17a.62.62,0,0,0,.35.65l1.58.68a.24.24,0,0,1,.13.18,6.49,6.49,0,0,0,.16.88.26.26,0,0,1-.06.21l-1.26,1.19a.64.64,0,0,0-.1.74l.58,1a.63.63,0,0,0,.69.27l1.65-.49a.24.24,0,0,1,.23.06,6.13,6.13,0,0,0,.68.56.25.25,0,0,1,.09.2l-.2,1.72a.66.66,0,0,0,.39.64l1.11.4a.63.63,0,0,0,.7-.23l1-1.44a.26.26,0,0,1,.21-.11h.88a.26.26,0,0,1,.2.1l1,1.44a.62.62,0,0,0,.7.24l1.11-.41a.63.63,0,0,0,.39-.63l-.2-1.7a.24.24,0,0,1,.09-.22c.24-.18.46-.37.68-.57a.2.2,0,0,1,.21,0l1.66.49a.63.63,0,0,0,.69-.27l.59-1a.64.64,0,0,0-.11-.74l-1.25-1.18a.27.27,0,0,1-.06-.23,6.47,6.47,0,0,0,.15-.88.23.23,0,0,1,.13-.16l1.59-.69a.63.63,0,0,0,.35-.65l-.2-1.17a.66.66,0,0,0-.56-.49l-1.72-.1a.26.26,0,0,1-.19-.13,6.06,6.06,0,0,0-.45-.78.23.23,0,0,1,0-.2l.77-1.55a.64.64,0,0,0-.15-.73L99,122a.63.63,0,0,0-.74,0l-1.38,1a.33.33,0,0,1-.24,0,6.34,6.34,0,0,0-.83-.3.28.28,0,0,1-.15-.15l-.4-1.69a.63.63,0,0,0-.58-.46H93.35a.63.63,0,0,0-.58.46l-.4,1.67A.25.25,0,0,1,92.2,122.67Z" transform="translate(-4.8 -1.44)"/><path class="cls-15" d="M93.94,123.63A5.07,5.07,0,1,0,99,128.71h0A5.07,5.07,0,0,0,93.94,123.63Z" transform="translate(-4.8 -1.44)"/><path class="cls-13" d="M44.66,111.6h26.9a2.83,2.83,0,0,1,2.83,2.83h0v6.2a2.84,2.84,0,0,1-2.84,2.84H44.66a2.83,2.83,0,0,1-2.83-2.83v-6.21A2.83,2.83,0,0,1,44.66,111.6Z" transform="translate(-4.8 -1.44)"/><polygon class="cls-11" points="51.88 113.79 50.43 113.79 50.57 113.11 52.03 113.11 51.88 113.79"/><polygon class="cls-11" points="51.5 115.57 49.1 115.57 49.25 114.88 51.65 114.88 51.5 115.57"/><polygon class="cls-11" points="51.13 117.35 47.78 117.35 47.93 116.66 51.28 116.66 51.13 117.35"/><polygon class="cls-11" points="50.75 119.12 46.46 119.12 46.6 118.44 50.9 118.44 50.75 119.12"/><path class="cls-14" d="M40.09,111.51a6.34,6.34,0,0,0-.83.3.2.2,0,0,1-.21,0l-1.39-1a.63.63,0,0,0-.74,0l-.91.75a.64.64,0,0,0-.15.73l.77,1.54a.22.22,0,0,1,0,.22,6,6,0,0,0-.44.78A.23.23,0,0,1,36,115l-1.74.11a.62.62,0,0,0-.55.49l-.2,1.16a.61.61,0,0,0,.35.65l1.58.69a.24.24,0,0,1,.13.18,6.64,6.64,0,0,0,.16.87.25.25,0,0,1-.06.22l-1.26,1.19a.62.62,0,0,0-.11.73l.59,1a.65.65,0,0,0,.69.28l1.65-.5a.32.32,0,0,1,.23.06,6.13,6.13,0,0,0,.68.56.27.27,0,0,1,.09.21l-.2,1.72a.63.63,0,0,0,.39.63l1.11.4a.62.62,0,0,0,.7-.23l1-1.44a.25.25,0,0,1,.21-.1h.88a.26.26,0,0,1,.2.1l1,1.45a.63.63,0,0,0,.71.23l1.11-.4a.63.63,0,0,0,.39-.63l-.2-1.71a.26.26,0,0,1,.09-.22,6.13,6.13,0,0,0,.68-.56.2.2,0,0,1,.21-.06l1.66.5a.63.63,0,0,0,.69-.28l.59-1a.62.62,0,0,0-.11-.73L48,119.29a.25.25,0,0,1-.06-.22,6.47,6.47,0,0,0,.15-.88.3.3,0,0,1,.12-.17l1.6-.69a.65.65,0,0,0,.35-.65L50,115.52a.64.64,0,0,0-.55-.5l-1.72-.1a.26.26,0,0,1-.19-.13A6.48,6.48,0,0,0,47,114a.26.26,0,0,1,0-.21l.77-1.55a.64.64,0,0,0-.15-.73l-.9-.75a.63.63,0,0,0-.74,0l-1.38,1a.33.33,0,0,1-.24,0,8.29,8.29,0,0,0-.83-.31.28.28,0,0,1-.15-.15l-.4-1.69a.63.63,0,0,0-.58-.46H41.24a.63.63,0,0,0-.58.46l-.4,1.68A.3.3,0,0,1,40.09,111.51Z" transform="translate(-4.8 -1.44)"/><path class="cls-15" d="M41.83,112.46a5.08,5.08,0,1,0,5.07,5.09h0A5.09,5.09,0,0,0,41.83,112.46Z" transform="translate(-4.8 -1.44)"/><rect class="cls-13" x="51" y="160.66" width="32.57" height="11.87" rx="2.83"/><polygon class="cls-11" points="65.85 164.29 64.4 164.29 64.54 163.6 66 163.6 65.85 164.29"/><polygon class="cls-11" points="65.48 166.07 63.08 166.07 63.22 165.38 65.62 165.38 65.48 166.07"/><polygon class="cls-11" points="65.1 167.85 61.75 167.85 61.9 167.16 65.25 167.16 65.1 167.85"/><polygon class="cls-11" points="64.73 169.62 60.43 169.62 60.58 168.94 64.87 168.94 64.73 169.62"/><path class="cls-14" d="M54.07,162a6.34,6.34,0,0,0-.83.3.28.28,0,0,1-.22,0l-1.39-1a.66.66,0,0,0-.74,0L50,162a.65.65,0,0,0-.15.73l.77,1.54a.22.22,0,0,1,0,.22,6,6,0,0,0-.44.78.28.28,0,0,1-.18.12l-1.73.11a.63.63,0,0,0-.56.49l-.2,1.16a.61.61,0,0,0,.35.65l1.58.69a.26.26,0,0,1,.14.17,6.47,6.47,0,0,0,.15.88.23.23,0,0,1,0,.21L48.39,171a.62.62,0,0,0-.11.73l.59,1a.6.6,0,0,0,.69.27l1.65-.49a.29.29,0,0,1,.22.06,7.22,7.22,0,0,0,.68.56.25.25,0,0,1,.09.2l-.2,1.73a.63.63,0,0,0,.39.63l1.11.4a.63.63,0,0,0,.71-.23l.94-1.44a.25.25,0,0,1,.21-.1h.88a.26.26,0,0,1,.2.1l1,1.45a.63.63,0,0,0,.7.23l1.11-.4a.63.63,0,0,0,.39-.63l-.2-1.71a.31.31,0,0,1,.09-.22,5.27,5.27,0,0,0,.68-.57.27.27,0,0,1,.21,0L62,173a.6.6,0,0,0,.69-.27l.59-1a.64.64,0,0,0-.1-.74L62,169.79a.23.23,0,0,1-.07-.22,8.52,8.52,0,0,0,.16-.88.24.24,0,0,1,.12-.17l1.59-.69a.61.61,0,0,0,.35-.65L64,166a.65.65,0,0,0-.56-.5l-1.71-.1a.28.28,0,0,1-.2-.13,5.35,5.35,0,0,0-.45-.77.26.26,0,0,1,0-.21l.78-1.55a.65.65,0,0,0-.15-.73l-.91-.76a.66.66,0,0,0-.74,0l-1.38,1a.31.31,0,0,1-.23,0q-.4-.17-.84-.3a.28.28,0,0,1-.15-.15l-.4-1.69a.63.63,0,0,0-.58-.46H55.21a.63.63,0,0,0-.58.46l-.4,1.67A.29.29,0,0,1,54.07,162Z" transform="translate(-4.8 -1.44)"/><path class="cls-15" d="M55.8,163a5.08,5.08,0,1,0,5.07,5.09V168A5.08,5.08,0,0,0,55.8,163Z" transform="translate(-4.8 -1.44)"/><rect class="cls-13" x="9" y="2.66" width="32.57" height="11.87" rx="2.83"/><polygon class="cls-11" points="23.85 6.29 22.4 6.29 22.54 5.6 24 5.6 23.85 6.29"/><polygon class="cls-11" points="23.48 8.07 21.08 8.07 21.22 7.38 23.62 7.38 23.48 8.07"/><polygon class="cls-11" points="23.1 9.85 19.75 9.85 19.9 9.16 23.25 9.16 23.1 9.85"/><polygon class="cls-11" points="22.73 11.62 18.43 11.62 18.58 10.94 22.87 10.94 22.73 11.62"/><path class="cls-14" d="M12.07,4a6.34,6.34,0,0,0-.83.3.41.41,0,0,1-.22,0l-1.39-1a.66.66,0,0,0-.74,0L8,4a.65.65,0,0,0-.15.73L8.6,6.3a.22.22,0,0,1,0,.22,6,6,0,0,0-.44.78A.28.28,0,0,1,8,7.42l-1.73.1a.65.65,0,0,0-.56.5l-.2,1.16a.61.61,0,0,0,.35.65l1.58.69a.26.26,0,0,1,.14.17,6.47,6.47,0,0,0,.15.88.26.26,0,0,1,0,.21L6.39,13a.62.62,0,0,0-.11.73l.59,1a.6.6,0,0,0,.69.27l1.65-.49a.25.25,0,0,1,.22.06,7.22,7.22,0,0,0,.68.56.25.25,0,0,1,.09.2L10,17.06a.63.63,0,0,0,.39.63l1.11.4a.63.63,0,0,0,.71-.23l.94-1.44a.25.25,0,0,1,.21-.1h.88a.26.26,0,0,1,.2.1l1,1.45a.63.63,0,0,0,.7.23l1.11-.4a.63.63,0,0,0,.39-.63l-.2-1.71a.31.31,0,0,1,.09-.22,5.27,5.27,0,0,0,.68-.57.27.27,0,0,1,.21-.05L20,15a.63.63,0,0,0,.69-.27l.59-1a.64.64,0,0,0-.1-.74L20,11.79a.23.23,0,0,1-.07-.22,8.52,8.52,0,0,0,.16-.88.24.24,0,0,1,.12-.17l1.59-.69a.62.62,0,0,0,.35-.65L21.92,8a.65.65,0,0,0-.56-.5l-1.71-.1a.28.28,0,0,1-.2-.13A5.73,5.73,0,0,0,19,6.52a.26.26,0,0,1,0-.21l.78-1.55A.64.64,0,0,0,19.62,4l-.91-.76a.66.66,0,0,0-.74,0l-1.38,1a.31.31,0,0,1-.23,0,6,6,0,0,0-.84-.3.28.28,0,0,1-.15-.15L15,2.16a.63.63,0,0,0-.58-.46H13.21a.63.63,0,0,0-.58.46l-.4,1.67A.3.3,0,0,1,12.07,4Z" transform="translate(-4.8 -1.44)"/><path class="cls-15" d="M13.8,5a5.08,5.08,0,1,0,5.07,5.09V10A5.08,5.08,0,0,0,13.8,5Z" transform="translate(-4.8 -1.44)"/><rect class="cls-13" x="106.68" y="2.66" width="32.57" height="11.87" rx="2.83"/><polygon class="cls-11" points="121.54 6.29 120.08 6.29 120.23 5.6 121.68 5.6 121.54 6.29"/><polygon class="cls-11" points="121.16 8.07 118.76 8.07 118.91 7.38 121.31 7.38 121.16 8.07"/><polygon class="cls-11" points="120.79 9.85 117.44 9.85 117.59 9.16 120.93 9.16 120.79 9.85"/><polygon class="cls-11" points="120.41 11.62 116.12 11.62 116.26 10.94 120.56 10.94 120.41 11.62"/><path class="cls-14" d="M109.75,4a6.34,6.34,0,0,0-.83.3.26.26,0,0,1-.21,0l-1.4-1a.66.66,0,0,0-.74,0l-.9.76a.64.64,0,0,0-.15.73l.77,1.54a.28.28,0,0,1,0,.22,6.06,6.06,0,0,0-.45.78.23.23,0,0,1-.18.12l-1.73.1a.63.63,0,0,0-.55.5l-.21,1.16a.65.65,0,0,0,.35.65l1.58.69a.24.24,0,0,1,.14.17,6.49,6.49,0,0,0,.16.88.26.26,0,0,1-.06.21L104.07,13a.62.62,0,0,0-.11.73l.59,1a.6.6,0,0,0,.69.27l1.65-.49a.27.27,0,0,1,.23.06,7.1,7.1,0,0,0,.67.56.26.26,0,0,1,.1.2l-.2,1.73a.63.63,0,0,0,.39.63l1.1.4a.63.63,0,0,0,.71-.23l.94-1.44a.26.26,0,0,1,.22-.1h.88a.26.26,0,0,1,.2.1l1,1.45a.65.65,0,0,0,.71.23l1.1-.4a.63.63,0,0,0,.39-.63l-.19-1.71a.24.24,0,0,1,.09-.22,5.18,5.18,0,0,0,.67-.57.27.27,0,0,1,.21-.05l1.67.49a.63.63,0,0,0,.69-.27l.59-1A.64.64,0,0,0,119,13l-1.25-1.18a.26.26,0,0,1-.07-.22,5.24,5.24,0,0,0,.16-.88.3.3,0,0,1,.12-.17l1.59-.69a.64.64,0,0,0,.36-.65L119.6,8a.64.64,0,0,0-.55-.5l-1.72-.1a.28.28,0,0,1-.2-.13,7.3,7.3,0,0,0-.44-.77.26.26,0,0,1,0-.21l.78-1.55A.62.62,0,0,0,117.3,4l-.9-.76a.66.66,0,0,0-.74,0l-1.38,1a.33.33,0,0,1-.24,0,6.34,6.34,0,0,0-.83-.3.23.23,0,0,1-.15-.15l-.41-1.69a.63.63,0,0,0-.58-.46h-1.18a.63.63,0,0,0-.58.46l-.4,1.67A.26.26,0,0,1,109.75,4Z" transform="translate(-4.8 -1.44)"/><path class="cls-15" d="M111.48,5a5.08,5.08,0,1,0,5.07,5.09V10A5.08,5.08,0,0,0,111.48,5Z" transform="translate(-4.8 -1.44)"/><rect class="cls-13" x="92.67" y="22.66" width="32.57" height="11.87" rx="2.83"/><polygon class="cls-11" points="107.52 26.29 106.06 26.29 106.21 25.61 107.67 25.61 107.52 26.29"/><polygon class="cls-11" points="107.14 28.07 104.74 28.07 104.89 27.38 107.29 27.38 107.14 28.07"/><polygon class="cls-11" points="106.77 29.85 103.42 29.85 103.57 29.16 106.92 29.16 106.77 29.85"/><polygon class="cls-11" points="106.39 31.62 102.1 31.62 102.24 30.94 106.54 30.94 106.39 31.62"/><path class="cls-14" d="M95.73,24a6.34,6.34,0,0,0-.83.3.26.26,0,0,1-.21,0l-1.4-1a.66.66,0,0,0-.74,0l-.9.76a.64.64,0,0,0-.15.73l.77,1.54a.28.28,0,0,1,0,.22,6,6,0,0,0-.44.78.28.28,0,0,1-.18.12l-1.74.1a.64.64,0,0,0-.55.5l-.2,1.16a.61.61,0,0,0,.35.65l1.58.69a.25.25,0,0,1,.13.17,6.49,6.49,0,0,0,.16.88.26.26,0,0,1-.06.21L90.05,33a.62.62,0,0,0-.11.73l.59,1a.63.63,0,0,0,.69.27l1.65-.49a.27.27,0,0,1,.23.06,6.13,6.13,0,0,0,.68.56.25.25,0,0,1,.09.2l-.2,1.73a.63.63,0,0,0,.39.63l1.11.4a.62.62,0,0,0,.7-.23l.95-1.44a.25.25,0,0,1,.21-.1h.88a.26.26,0,0,1,.2.1l1,1.45a.65.65,0,0,0,.71.23l1.11-.4a.63.63,0,0,0,.39-.63l-.2-1.71a.24.24,0,0,1,.09-.22,7.59,7.59,0,0,0,.68-.57.23.23,0,0,1,.21,0l1.66.49a.63.63,0,0,0,.69-.27l.59-1a.64.64,0,0,0-.11-.74l-1.25-1.18a.25.25,0,0,1-.06-.22,6.47,6.47,0,0,0,.15-.88.3.3,0,0,1,.12-.17l1.6-.69a.65.65,0,0,0,.35-.65L105.58,28a.64.64,0,0,0-.55-.5l-1.72-.1a.26.26,0,0,1-.19-.13,6,6,0,0,0-.45-.77.26.26,0,0,1,0-.21l.77-1.55a.64.64,0,0,0-.15-.73l-.9-.76a.66.66,0,0,0-.74,0l-1.38,1a.33.33,0,0,1-.24,0,6.34,6.34,0,0,0-.83-.3.28.28,0,0,1-.15-.15l-.4-1.69a.63.63,0,0,0-.58-.46H96.88a.64.64,0,0,0-.59.46l-.39,1.67A.3.3,0,0,1,95.73,24Z" transform="translate(-4.8 -1.44)"/><path class="cls-15" d="M97.47,25a5.08,5.08,0,1,0,5.07,5.09V30A5.08,5.08,0,0,0,97.47,25Z" transform="translate(-4.8 -1.44)"/><rect class="cls-13" x="150.95" y="2.66" width="32.57" height="11.87" rx="2.83"/><polygon class="cls-11" points="165.8 6.29 164.35 6.29 164.49 5.6 165.95 5.6 165.8 6.29"/><polygon class="cls-11" points="165.43 8.07 163.02 8.07 163.17 7.38 165.57 7.38 165.43 8.07"/><polygon class="cls-11" points="165.05 9.85 161.7 9.85 161.85 9.16 165.2 9.16 165.05 9.85"/><polygon class="cls-11" points="164.68 11.62 160.38 11.62 160.52 10.94 164.82 10.94 164.68 11.62"/><path class="cls-14" d="M154,4a6,6,0,0,0-.84.3.37.37,0,0,1-.21,0l-1.39-1a.66.66,0,0,0-.74,0l-.91.76a.65.65,0,0,0-.15.73l.77,1.54a.22.22,0,0,1,0,.22,6,6,0,0,0-.44.78.28.28,0,0,1-.18.12l-1.73.1a.65.65,0,0,0-.56.5l-.2,1.16a.61.61,0,0,0,.35.65l1.58.69a.26.26,0,0,1,.14.17,4.38,4.38,0,0,0,.15.88.2.2,0,0,1-.06.21L148.33,13a.62.62,0,0,0-.1.73l.59,1a.6.6,0,0,0,.69.27l1.65-.49a.25.25,0,0,1,.22.06,6.13,6.13,0,0,0,.68.56.25.25,0,0,1,.09.2l-.2,1.73a.63.63,0,0,0,.39.63l1.11.4a.62.62,0,0,0,.7-.23l.95-1.44a.25.25,0,0,1,.21-.1h.88a.26.26,0,0,1,.2.1l1,1.45a.63.63,0,0,0,.7.23l1.11-.4a.63.63,0,0,0,.39-.63l-.2-1.71a.24.24,0,0,1,.09-.22,5.27,5.27,0,0,0,.68-.57.23.23,0,0,1,.21-.05L162,15a.63.63,0,0,0,.69-.27l.59-1a.64.64,0,0,0-.1-.74l-1.25-1.18a.23.23,0,0,1-.07-.22,6.47,6.47,0,0,0,.15-.88.31.31,0,0,1,.13-.17l1.59-.69a.63.63,0,0,0,.35-.65L163.87,8a.65.65,0,0,0-.56-.5l-1.72-.1a.26.26,0,0,1-.19-.13A5.35,5.35,0,0,0,161,6.5a.26.26,0,0,1,0-.21l.77-1.55a.64.64,0,0,0-.14-.73l-.91-.76a.66.66,0,0,0-.74,0l-1.38,1a.33.33,0,0,1-.24,0,6.34,6.34,0,0,0-.83-.3.28.28,0,0,1-.15-.15l-.4-1.69a.63.63,0,0,0-.58-.46h-1.18a.63.63,0,0,0-.58.46l-.4,1.67A.28.28,0,0,1,154,4Z" transform="translate(-4.8 -1.44)"/><path class="cls-15" d="M155.75,5a5.08,5.08,0,1,0,5.07,5.09V10A5.08,5.08,0,0,0,155.75,5Z" transform="translate(-4.8 -1.44)"/><rect class="cls-13" x="166.17" y="22.66" width="32.57" height="11.87" rx="2.83"/><polygon class="cls-11" points="181.02 26.29 179.57 26.29 179.71 25.61 181.17 25.61 181.02 26.29"/><polygon class="cls-11" points="180.64 28.07 178.24 28.07 178.39 27.38 180.79 27.38 180.64 28.07"/><polygon class="cls-11" points="180.27 29.85 176.92 29.85 177.07 29.16 180.42 29.16 180.27 29.85"/><polygon class="cls-11" points="179.89 31.62 175.6 31.62 175.74 30.94 180.04 30.94 179.89 31.62"/><path class="cls-14" d="M169.23,24a6.34,6.34,0,0,0-.83.3.26.26,0,0,1-.21,0l-1.4-1a.66.66,0,0,0-.74,0l-.9.76a.64.64,0,0,0-.15.73l.77,1.54a.28.28,0,0,1,0,.22,6,6,0,0,0-.44.78.28.28,0,0,1-.18.12l-1.74.1a.64.64,0,0,0-.55.5l-.2,1.16a.61.61,0,0,0,.35.65l1.58.69a.25.25,0,0,1,.13.17,6.49,6.49,0,0,0,.16.88.26.26,0,0,1-.06.21L163.55,33a.62.62,0,0,0-.11.73l.59,1a.63.63,0,0,0,.69.27l1.65-.49a.27.27,0,0,1,.23.06,6.13,6.13,0,0,0,.68.56.25.25,0,0,1,.09.2l-.2,1.73a.62.62,0,0,0,.39.63l1.11.4a.62.62,0,0,0,.7-.23l.95-1.44a.25.25,0,0,1,.21-.1h.88a.26.26,0,0,1,.2.1l.95,1.45a.65.65,0,0,0,.71.23l1.11-.4a.63.63,0,0,0,.39-.63l-.2-1.71a.24.24,0,0,1,.09-.22,7.59,7.59,0,0,0,.68-.57.23.23,0,0,1,.21,0l1.66.49a.63.63,0,0,0,.69-.27l.59-1a.64.64,0,0,0-.11-.74l-1.25-1.18a.25.25,0,0,1-.06-.22,6.47,6.47,0,0,0,.15-.88.3.3,0,0,1,.12-.17l1.6-.69a.65.65,0,0,0,.35-.65L179.08,28a.64.64,0,0,0-.55-.5l-1.72-.1a.26.26,0,0,1-.19-.13,6,6,0,0,0-.45-.77.26.26,0,0,1,0-.21l.77-1.55a.64.64,0,0,0-.15-.73l-.9-.76a.66.66,0,0,0-.74,0l-1.38,1a.33.33,0,0,1-.24,0,6.34,6.34,0,0,0-.83-.3.28.28,0,0,1-.15-.15l-.4-1.69a.63.63,0,0,0-.58-.46h-1.18a.64.64,0,0,0-.59.46l-.39,1.67A.31.31,0,0,1,169.23,24Z" transform="translate(-4.8 -1.44)"/><path class="cls-15" d="M171,25a5.08,5.08,0,1,0,5,5.16V30A5.08,5.08,0,0,0,171,25Z" transform="translate(-4.8 -1.44)"/><rect class="cls-13" x="22.67" y="22.66" width="32.57" height="11.87" rx="2.83"/><polygon class="cls-11" points="37.52 26.29 36.07 26.29 36.21 25.61 37.67 25.61 37.52 26.29"/><polygon class="cls-11" points="37.14 28.07 34.74 28.07 34.89 27.38 37.29 27.38 37.14 28.07"/><polygon class="cls-11" points="36.77 29.85 33.42 29.85 33.57 29.16 36.92 29.16 36.77 29.85"/><polygon class="cls-11" points="36.39 31.62 32.1 31.62 32.24 30.94 36.54 30.94 36.39 31.62"/><path class="cls-14" d="M25.73,24a6.34,6.34,0,0,0-.83.3.26.26,0,0,1-.21,0l-1.4-1a.66.66,0,0,0-.74,0l-.9.76a.64.64,0,0,0-.15.73l.77,1.54a.28.28,0,0,1,0,.22,6,6,0,0,0-.44.78.28.28,0,0,1-.18.12l-1.74.1a.64.64,0,0,0-.55.5l-.2,1.16a.61.61,0,0,0,.35.65l1.58.69a.25.25,0,0,1,.13.17,6.49,6.49,0,0,0,.16.88.26.26,0,0,1-.06.21L20.05,33a.62.62,0,0,0-.11.73l.59,1a.63.63,0,0,0,.69.27l1.65-.49a.27.27,0,0,1,.23.06,6.13,6.13,0,0,0,.68.56.25.25,0,0,1,.09.2l-.2,1.73a.63.63,0,0,0,.39.63l1.11.4a.62.62,0,0,0,.7-.23l.95-1.44a.25.25,0,0,1,.21-.1h.88a.26.26,0,0,1,.2.1l.95,1.45a.65.65,0,0,0,.71.23l1.11-.4a.63.63,0,0,0,.39-.63l-.2-1.71a.24.24,0,0,1,.09-.22,7.59,7.59,0,0,0,.68-.57.23.23,0,0,1,.21,0l1.66.49a.63.63,0,0,0,.69-.27l.59-1a.64.64,0,0,0-.11-.74l-1.25-1.18a.25.25,0,0,1-.06-.22,6.47,6.47,0,0,0,.15-.88.3.3,0,0,1,.12-.17l1.6-.69a.65.65,0,0,0,.35-.65L35.58,28a.64.64,0,0,0-.55-.5l-1.72-.1a.26.26,0,0,1-.19-.13,6,6,0,0,0-.45-.77.26.26,0,0,1,0-.21l.77-1.55a.64.64,0,0,0-.15-.73l-.9-.76a.66.66,0,0,0-.74,0l-1.38,1a.33.33,0,0,1-.24,0,6.34,6.34,0,0,0-.83-.3.28.28,0,0,1-.15-.15l-.4-1.69a.63.63,0,0,0-.58-.46H26.88a.64.64,0,0,0-.59.46l-.39,1.67A.3.3,0,0,1,25.73,24Z" transform="translate(-4.8 -1.44)"/><path class="cls-15" d="M27.47,25a5.08,5.08,0,1,0,5.07,5.09V30A5.08,5.08,0,0,0,27.47,25Z" transform="translate(-4.8 -1.44)"/><rect class="cls-13" x="44.52" y="42.66" width="32.57" height="11.87" rx="2.83"/><polygon class="cls-11" points="59.37 46.29 57.92 46.29 58.07 45.61 59.52 45.61 59.37 46.29"/><polygon class="cls-11" points="59 48.07 56.6 48.07 56.74 47.38 59.14 47.38 59 48.07"/><polygon class="cls-11" points="58.62 49.85 55.28 49.85 55.42 49.16 58.77 49.16 58.62 49.85"/><polygon class="cls-11" points="58.25 51.62 53.95 51.62 54.1 50.94 58.39 50.94 58.25 51.62"/><path class="cls-14" d="M47.59,44a6.34,6.34,0,0,0-.83.3.41.41,0,0,1-.22,0l-1.39-1a.66.66,0,0,0-.74,0l-.91.7a.65.65,0,0,0-.15.73l.77,1.54a.22.22,0,0,1,0,.22,7.44,7.44,0,0,0-.44.78.28.28,0,0,1-.18.12l-1.73.1a.64.64,0,0,0-.55.5L41,49.18a.62.62,0,0,0,.35.65l1.58.69a.26.26,0,0,1,.14.17,6.47,6.47,0,0,0,.15.88.26.26,0,0,1,0,.21L41.91,53a.62.62,0,0,0-.11.73l.59,1a.6.6,0,0,0,.69.27l1.65-.49a.27.27,0,0,1,.23.06,6,6,0,0,0,.67.56.25.25,0,0,1,.09.2l-.2,1.73a.63.63,0,0,0,.39.63l1.11.4a.63.63,0,0,0,.71-.23l.94-1.44a.25.25,0,0,1,.21-.1h.88a.26.26,0,0,1,.2.1l1,1.45a.63.63,0,0,0,.7.23l1.11-.4a.63.63,0,0,0,.39-.63L53,55.36a.31.31,0,0,1,.09-.22,5.27,5.27,0,0,0,.68-.57.27.27,0,0,1,.21,0L55.6,55a.63.63,0,0,0,.69-.27l.59-1a.64.64,0,0,0-.1-.74l-1.25-1.18a.26.26,0,0,1-.07-.22,6.49,6.49,0,0,0,.16-.88.26.26,0,0,1,.12-.17l1.59-.69a.62.62,0,0,0,.35-.65L57.44,48a.65.65,0,0,0-.56-.5l-1.71-.1a.28.28,0,0,1-.2-.13,5.35,5.35,0,0,0-.45-.77.26.26,0,0,1,0-.21l.78-1.55a.65.65,0,0,0-.15-.73l-.91-.76a.66.66,0,0,0-.74,0l-1.38,1a.31.31,0,0,1-.23,0c-.27-.11-.55-.21-.83-.3a.23.23,0,0,1-.15-.15l-.41-1.69a.63.63,0,0,0-.58-.46H48.73a.63.63,0,0,0-.58.46l-.4,1.67A.27.27,0,0,1,47.59,44Z" transform="translate(-4.8 -1.44)"/><path class="cls-15" d="M49.32,45a5.08,5.08,0,1,0,5.07,5.09V50A5.08,5.08,0,0,0,49.32,45Z" transform="translate(-4.8 -1.44)"/><rect class="cls-13" x="197.41" y="42.66" width="32.57" height="11.87" rx="2.83"/><polygon class="cls-11" points="212.27 46.29 210.81 46.29 210.96 45.61 212.41 45.61 212.27 46.29"/><polygon class="cls-11" points="211.89 48.07 209.49 48.07 209.64 47.38 212.04 47.38 211.89 48.07"/><polygon class="cls-11" points="211.52 49.85 208.17 49.85 208.32 49.16 211.66 49.16 211.52 49.85"/><polygon class="cls-11" points="211.14 51.62 206.85 51.62 206.99 50.94 211.29 50.94 211.14 51.62"/><path class="cls-14" d="M200.48,44a6.34,6.34,0,0,0-.83.3.26.26,0,0,1-.21,0l-1.4-1a.66.66,0,0,0-.74,0l-.9.76a.64.64,0,0,0-.15.73L197,46.3a.28.28,0,0,1,0,.22,6.06,6.06,0,0,0-.45.78.23.23,0,0,1-.18.12l-1.73.1a.64.64,0,0,0-.55.5l-.21,1.16a.64.64,0,0,0,.36.65l1.58.69a.25.25,0,0,1,.13.17,6.49,6.49,0,0,0,.16.88.26.26,0,0,1-.06.21L194.8,53a.62.62,0,0,0-.11.73l.59,1A.61.61,0,0,0,196,55l1.65-.49a.27.27,0,0,1,.23.06,7.1,7.1,0,0,0,.67.56.26.26,0,0,1,.1.2l-.2,1.73a.63.63,0,0,0,.39.63l1.1.4a.63.63,0,0,0,.71-.23l.94-1.44a.27.27,0,0,1,.22-.1h.88a.26.26,0,0,1,.2.1l1,1.45a.65.65,0,0,0,.71.23l1.1-.4a.63.63,0,0,0,.39-.63l-.19-1.71a.24.24,0,0,1,.09-.22,5.18,5.18,0,0,0,.67-.57.27.27,0,0,1,.21,0l1.67.49a.63.63,0,0,0,.69-.27l.59-1a.64.64,0,0,0-.11-.74l-1.25-1.18a.26.26,0,0,1-.07-.22,5.24,5.24,0,0,0,.16-.88.3.3,0,0,1,.12-.17l1.59-.69a.64.64,0,0,0,.36-.65L210.33,48a.64.64,0,0,0-.55-.5l-1.72-.1a.28.28,0,0,1-.2-.13,7.3,7.3,0,0,0-.44-.77.26.26,0,0,1,0-.21l.78-1.55A.62.62,0,0,0,208,44l-.9-.76a.66.66,0,0,0-.74,0l-1.38,1a.33.33,0,0,1-.24,0,6.34,6.34,0,0,0-.83-.3.23.23,0,0,1-.15-.15l-.41-1.69a.63.63,0,0,0-.58-.46h-1.18a.63.63,0,0,0-.58.46l-.4,1.67A.28.28,0,0,1,200.48,44Z" transform="translate(-4.8 -1.44)"/><path class="cls-15" d="M202.21,45a5.08,5.08,0,1,0,5.07,5.09V50A5.08,5.08,0,0,0,202.21,45Z" transform="translate(-4.8 -1.44)"/><rect class="cls-13" x="44.52" y="62.49" width="32.57" height="11.87" rx="2.83"/><polygon class="cls-11" points="59.37 66.12 57.92 66.12 58.07 65.43 59.52 65.43 59.37 66.12"/><polygon class="cls-11" points="59 67.9 56.6 67.9 56.74 67.21 59.14 67.21 59 67.9"/><polygon class="cls-11" points="58.62 69.68 55.28 69.68 55.42 68.99 58.77 68.99 58.62 69.68"/><polygon class="cls-11" points="58.25 71.45 53.95 71.45 54.1 70.76 58.39 70.76 58.25 71.45"/><path class="cls-14" d="M47.59,63.83a8.29,8.29,0,0,0-.83.31.41.41,0,0,1-.22,0l-1.39-1a.66.66,0,0,0-.74,0l-.91.76a.65.65,0,0,0-.15.73l.77,1.54a.22.22,0,0,1,0,.22,7.44,7.44,0,0,0-.44.78.28.28,0,0,1-.18.12l-1.73.1a.64.64,0,0,0-.55.5L41,69a.62.62,0,0,0,.35.65l1.58.68a.28.28,0,0,1,.14.18,6.47,6.47,0,0,0,.15.88.26.26,0,0,1,0,.21L42,72.8a.62.62,0,0,0-.11.73l.59,1a.6.6,0,0,0,.69.27l1.65-.49a.24.24,0,0,1,.23.06,6,6,0,0,0,.67.56.25.25,0,0,1,.09.2l-.2,1.73a.63.63,0,0,0,.39.63l1.11.4a.63.63,0,0,0,.71-.23l.94-1.44a.25.25,0,0,1,.21-.1h.88a.26.26,0,0,1,.2.1l1,1.45a.63.63,0,0,0,.7.23l1.11-.4a.63.63,0,0,0,.39-.63L53,75.16A.29.29,0,0,1,53,75a5.27,5.27,0,0,0,.68-.57.26.26,0,0,1,.21,0l1.66.49a.63.63,0,0,0,.69-.27l.59-1a.64.64,0,0,0-.1-.74l-1.25-1.18a.26.26,0,0,1-.07-.22,6.49,6.49,0,0,0,.16-.88.26.26,0,0,1,.12-.17l1.59-.69a.62.62,0,0,0,.35-.65L57.43,68a.65.65,0,0,0-.56-.5l-1.71-.1a.28.28,0,0,1-.2-.13,5.35,5.35,0,0,0-.45-.77.26.26,0,0,1,0-.21l.78-1.55a.65.65,0,0,0-.15-.73l-.91-.76a.63.63,0,0,0-.74,0l-1.38,1a.31.31,0,0,1-.23,0c-.27-.11-.55-.21-.83-.3a.23.23,0,0,1-.15-.15L50.49,62a.63.63,0,0,0-.58-.46H48.73a.63.63,0,0,0-.58.46l-.4,1.67A.22.22,0,0,1,47.59,63.83Z" transform="translate(-4.8 -1.44)"/><path class="cls-15" d="M49.32,64.79a5.07,5.07,0,1,0,5.07,5.07h0A5.07,5.07,0,0,0,49.32,64.79Z" transform="translate(-4.8 -1.44)"/><rect class="cls-13" x="255.14" y="78.99" width="32.57" height="11.87" rx="2.83"/><polygon class="cls-11" points="269.99 82.63 268.54 82.63 268.68 81.94 270.14 81.94 269.99 82.63"/><polygon class="cls-11" points="269.62 84.4 267.21 84.4 267.36 83.72 269.76 83.72 269.62 84.4"/><polygon class="cls-11" points="269.24 86.18 265.89 86.18 266.04 85.49 269.39 85.49 269.24 86.18"/><polygon class="cls-11" points="268.87 87.96 264.57 87.96 264.71 87.27 269.01 87.27 268.87 87.96"/><path class="cls-14" d="M258.21,80.34a6,6,0,0,0-.84.3.26.26,0,0,1-.21,0l-1.39-1a.63.63,0,0,0-.74,0l-.91.76a.6.6,0,0,0-.15.72l.77,1.54a.31.31,0,0,1,0,.23,4.51,4.51,0,0,0-.44.77.29.29,0,0,1-.18.13l-1.73.1a.63.63,0,0,0-.56.49l-.2,1.16a.61.61,0,0,0,.35.65l1.58.69a.23.23,0,0,1,.13.18,6.64,6.64,0,0,0,.16.87.25.25,0,0,1-.06.22l-1.26,1.19a.62.62,0,0,0-.1.73l.59,1a.63.63,0,0,0,.69.27l1.64-.49a.27.27,0,0,1,.23.05,5.27,5.27,0,0,0,.68.57.25.25,0,0,1,.09.2l-.2,1.72a.63.63,0,0,0,.39.63l1.11.4a.62.62,0,0,0,.7-.23l1-1.44a.28.28,0,0,1,.21-.1h.88a.22.22,0,0,1,.2.09l1,1.45a.62.62,0,0,0,.7.23l1.11-.4a.63.63,0,0,0,.39-.63l-.2-1.71a.26.26,0,0,1,.09-.22,6.13,6.13,0,0,0,.68-.56.26.26,0,0,1,.21-.06l1.66.5a.63.63,0,0,0,.69-.27l.59-1a.62.62,0,0,0-.11-.73l-1.25-1.18a.27.27,0,0,1-.06-.23,6.47,6.47,0,0,0,.15-.88.31.31,0,0,1,.13-.17l1.59-.69a.62.62,0,0,0,.35-.65l-.2-1.16a.63.63,0,0,0-.56-.49l-1.72-.1a.3.3,0,0,1-.19-.14,6,6,0,0,0-.45-.77.26.26,0,0,1,0-.21l.77-1.55a.6.6,0,0,0-.15-.72l-.9-.76a.63.63,0,0,0-.74,0l-1.38,1a.26.26,0,0,1-.24,0,6.34,6.34,0,0,0-.83-.3.29.29,0,0,1-.15-.16l-.4-1.68a.63.63,0,0,0-.58-.46h-1.18a.63.63,0,0,0-.58.46l-.4,1.67A.3.3,0,0,1,258.21,80.34Z" transform="translate(-4.8 -1.44)"/><path class="cls-15" d="M259.94,81.3A5.07,5.07,0,1,0,265,86.38h0A5.07,5.07,0,0,0,259.94,81.3Z" transform="translate(-4.8 -1.44)"/><rect class="cls-16" x="97.48" y="60.4" width="11.87" height="11.87" rx="2.83"/><rect class="cls-16" x="232.65" y="180.84" width="11.87" height="11.87" rx="2.83"/><path class="cls-16" d="M193.28,92H182.11a5.94,5.94,0,0,0,0,11.88h11.17a2.85,2.85,0,0,0,2.83-2.84v-6.2A2.85,2.85,0,0,0,193.28,92Z" transform="translate(-4.8 -1.44)"/><path class="cls-16" d="M284.14,182.28H273a5.94,5.94,0,0,0,0,11.87h11.17a2.83,2.83,0,0,0,2.83-2.83v-6.21a2.83,2.83,0,0,0-2.83-2.83Z" transform="translate(-4.8 -1.44)"/><path class="cls-17" d="M294.51,182.74a6.85,6.85,0,0,0,1.09-.24,7.93,7.93,0,0,0,3-1.7l3.67,9.27a19.83,19.83,0,0,1-3,2.49,6.42,6.42,0,0,1-3.4,1.23,2.48,2.48,0,0,1-2.2-1.09c.56-.52,2-1.51,2.47-1.18s-.44,1.48-.44,1.48c1.3-1,1.34-1.58,1.24-1.86l-.33-.46m.2.27-4.29-9.69a8.34,8.34,0,0,0-1,0,11.29,11.29,0,0,0-3.16.46,10.64,10.64,0,0,0-3.81,2l4.65,11.79a26.43,26.43,0,0,1,3.59-3.18,6.62,6.62,0,0,1,3.36-1.46,2,2,0,0,1,.64.13Z" transform="translate(-4.8 -1.44)"/><path class="cls-13" d="M298.62,180.8a7.93,7.93,0,0,1-3,1.7,6.85,6.85,0,0,1-1.09.24l2.41,8.4h0c.1.28.06.88-1.24,1.86,0,0,.9-1.15.44-1.48s-1.91.66-2.47,1.18a2.48,2.48,0,0,0,2.2,1.09,6.42,6.42,0,0,0,3.4-1.23,19.83,19.83,0,0,0,3-2.49Z" transform="translate(-4.8 -1.44)"/><path class="cls-11" d="M299.14,192.24a20,20,0,0,0,2.77-2.25l-1.1-2.77a14.72,14.72,0,0,1-2.76,2Z" transform="translate(-4.8 -1.44)"/><path class="cls-11" d="M299.59,184.12l-1.1-2.78a8.45,8.45,0,0,1-2.78,1.47l1.12,3.1A10.47,10.47,0,0,0,299.59,184.12Z" transform="translate(-4.8 -1.44)"/><path class="cls-11" d="M298.05,189.26l-1.22-3.35a7.47,7.47,0,0,1-1.29.42l1,3.56A8.31,8.31,0,0,0,298.05,189.26Z" transform="translate(-4.8 -1.44)"/><path class="cls-13" d="M291.53,181.21a11.29,11.29,0,0,0-3.16.46,10.64,10.64,0,0,0-3.81,2l4.65,11.79a26.43,26.43,0,0,1,3.59-3.18,6.62,6.62,0,0,1,3.36-1.46,1.93,1.93,0,0,1,.63.1l-4.29-9.69a8.34,8.34,0,0,0-1,0Z" transform="translate(-4.8 -1.44)"/><path class="cls-11" d="M291.53,181.54a10.88,10.88,0,0,0-3,.43l1.44,3.47a12.59,12.59,0,0,1,3.61-1l-1.28-2.88A6.6,6.6,0,0,0,291.53,181.54Z" transform="translate(-4.8 -1.44)"/><path class="cls-11" d="M291.41,189l1.26,3a6.62,6.62,0,0,1,3.49-1.48h.08L295,187.65A8.14,8.14,0,0,0,291.41,189Z" transform="translate(-4.8 -1.44)"/><path class="cls-11" d="M289.94,185.44a15.79,15.79,0,0,0-3.56,2l1.55,3.92a32.73,32.73,0,0,1,3.48-2.36Z" transform="translate(-4.8 -1.44)"/><path class="cls-16" d="M22.4,162.1H11.23A5.94,5.94,0,0,0,10.74,174H22.4a2.83,2.83,0,0,0,2.83-2.83h0v-6.21A2.83,2.83,0,0,0,22.4,162.1Z" transform="translate(-4.8 -1.44)"/><path class="cls-16" d="M299.34,62.1H275.47l-.05-.07-.9-.76a.66.66,0,0,0-.74,0l-1.14.85h-.2a2.74,2.74,0,0,0-.64.08c-.15-.06-.31-.13-.47-.18a.23.23,0,0,1-.15-.15l-.41-1.69a.63.63,0,0,0-.58-.46H269a.63.63,0,0,0-.58.46l-.4,1.67a.26.26,0,0,1-.16.18,6.34,6.34,0,0,0-.83.3.26.26,0,0,1-.21,0l-1.4-1a.66.66,0,0,0-.74,0l-.9.76a.64.64,0,0,0-.15.73l.77,1.54a.28.28,0,0,1,0,.22,6.06,6.06,0,0,0-.45.78.23.23,0,0,1-.18.12l-1.73.1a.64.64,0,0,0-.55.5l-.21,1.16a.65.65,0,0,0,.35.65l1.58.69a.24.24,0,0,1,.14.17,6.49,6.49,0,0,0,.16.88.26.26,0,0,1-.06.21L262.19,71a.62.62,0,0,0-.11.73l.59,1a.6.6,0,0,0,.69.27l1.65-.49a.27.27,0,0,1,.23.06,7.1,7.1,0,0,0,.67.56.26.26,0,0,1,.1.2l-.2,1.73a.63.63,0,0,0,.39.63l1.1.4a.63.63,0,0,0,.71-.23l.94-1.44a.26.26,0,0,1,.22-.1h.88a.26.26,0,0,1,.2.1l.95,1.45a.65.65,0,0,0,.71.23l1.1-.4a.62.62,0,0,0,.39-.63L273.28,74h26.06a2.85,2.85,0,0,0,2.84-2.83V64.93A2.85,2.85,0,0,0,299.34,62.1Z" transform="translate(-4.8 -1.44)"/><path class="cls-16" d="M229.09,62l-.91-.76a.66.66,0,0,0-.74,0l-1.13.85h-.2a2.74,2.74,0,0,0-.64.08c-.16-.06-.31-.13-.47-.18a.26.26,0,0,1-.16-.15l-.4-1.69a.63.63,0,0,0-.58-.46h-1.18a.63.63,0,0,0-.58.46l-.4,1.67a.26.26,0,0,1-.16.18,6.34,6.34,0,0,0-.83.3.41.41,0,0,1-.22,0l-1.39-1a.66.66,0,0,0-.74,0l-.91.76a.65.65,0,0,0-.15.73l.77,1.54a.22.22,0,0,1,0,.22,7.44,7.44,0,0,0-.44.78.28.28,0,0,1-.18.12l-1.73.1a.65.65,0,0,0-.56.5l-.2,1.16a.61.61,0,0,0,.35.65l1.58.69a.26.26,0,0,1,.14.17,6.47,6.47,0,0,0,.15.88.26.26,0,0,1,0,.21L215.86,71a.62.62,0,0,0-.11.73l.59,1A.61.61,0,0,0,217,73l1.65-.49a.27.27,0,0,1,.23.06,6,6,0,0,0,.67.56.25.25,0,0,1,.09.2l-.2,1.73a.63.63,0,0,0,.39.63l1.11.4a.63.63,0,0,0,.71-.23l.94-1.44a.25.25,0,0,1,.21-.1h.88a.26.26,0,0,1,.2.1l1,1.45a.63.63,0,0,0,.7.23l1.11-.4a.63.63,0,0,0,.39-.63L226.94,74H253a2.83,2.83,0,0,0,2.83-2.83h0V64.93A2.83,2.83,0,0,0,253,62.1H229.14Z" transform="translate(-4.8 -1.44)"/><path class="cls-16" d="M244.14,113.4a2.85,2.85,0,0,0,2.83-2.84v-6.21a2.85,2.85,0,0,0-2.83-2.83H220.27l-.05-.06-.91-.76a.63.63,0,0,0-.74,0l-1.13.84h-.21a2.72,2.72,0,0,0-.63.08c-.16-.06-.31-.12-.48-.17a.26.26,0,0,1-.15-.16l-.4-1.68a.63.63,0,0,0-.58-.46h-1.18a.63.63,0,0,0-.58.46l-.4,1.67a.25.25,0,0,1-.16.17,6,6,0,0,0-.84.3.26.26,0,0,1-.21,0l-1.39-1a.63.63,0,0,0-.74,0l-.91.76a.63.63,0,0,0-.15.72l.77,1.54a.24.24,0,0,1,0,.23,4.51,4.51,0,0,0-.44.77.27.27,0,0,1-.18.13l-1.73.1a.66.66,0,0,0-.56.49l-.2,1.16a.63.63,0,0,0,.35.66L208,108a.28.28,0,0,1,.14.18,4.38,4.38,0,0,0,.15.88.23.23,0,0,1-.05.21L207,110.4a.62.62,0,0,0-.11.73l.59,1a.63.63,0,0,0,.69.27l1.65-.49a.28.28,0,0,1,.22,0,5.27,5.27,0,0,0,.68.57.25.25,0,0,1,.09.2l-.2,1.72a.63.63,0,0,0,.39.63l1.11.41a.64.64,0,0,0,.7-.24l.95-1.43a.26.26,0,0,1,.21-.11h.88a.25.25,0,0,1,.2.09l1,1.45a.64.64,0,0,0,.7.24l1.11-.41a.63.63,0,0,0,.39-.63l-.13-1.08Z" transform="translate(-4.8 -1.44)"/><path class="cls-16" d="M206.34,182.28H182.47l-.05-.07-.9-.76a.66.66,0,0,0-.74,0l-1.14.85h-.2a3.39,3.39,0,0,0-.64.07l-.47-.17a.23.23,0,0,1-.15-.15l-.41-1.69a.63.63,0,0,0-.58-.46H176a.63.63,0,0,0-.58.46L175,182a.23.23,0,0,1-.16.17,8.29,8.29,0,0,0-.83.31.26.26,0,0,1-.21,0l-1.4-1a.66.66,0,0,0-.74,0l-.9.76a.64.64,0,0,0-.15.73l.77,1.54a.28.28,0,0,1,0,.22,6.06,6.06,0,0,0-.45.78.23.23,0,0,1-.18.12l-1.73.1a.64.64,0,0,0-.55.5l-.21,1.16a.65.65,0,0,0,.35.65l1.58.68a.28.28,0,0,1,.14.18,6.49,6.49,0,0,0,.16.88.26.26,0,0,1-.06.21l-1.26,1.2a.62.62,0,0,0-.11.73l.59,1a.6.6,0,0,0,.69.27l1.65-.49a.27.27,0,0,1,.23.06,7.1,7.1,0,0,0,.67.56.26.26,0,0,1,.1.2l-.2,1.73a.63.63,0,0,0,.39.63l1.1.4A.63.63,0,0,0,175,196l.94-1.44a.26.26,0,0,1,.22-.1H177a.26.26,0,0,1,.2.1l.95,1.45a.63.63,0,0,0,.71.23l1.1-.4a.63.63,0,0,0,.39-.63l-.12-1.09h26.06a2.85,2.85,0,0,0,2.84-2.83v-6.21A2.84,2.84,0,0,0,206.34,182.28Z" transform="translate(-4.8 -1.44)"/><path class="cls-16" d="M168.28,174h26.06a2.85,2.85,0,0,0,2.84-2.83V165a2.85,2.85,0,0,0-2.84-2.83H170.47l-.05-.07-.9-.76a.66.66,0,0,0-.74,0l-1.14.85h-.2a2.74,2.74,0,0,0-.64.08c-.15-.06-.31-.13-.47-.18a.23.23,0,0,1-.15-.15l-.41-1.69a.63.63,0,0,0-.58-.46H164a.63.63,0,0,0-.58.46l-.4,1.67a.26.26,0,0,1-.16.18,6.34,6.34,0,0,0-.83.3.26.26,0,0,1-.21,0l-1.4-1a.66.66,0,0,0-.74,0l-.9.76a.64.64,0,0,0-.15.73l.77,1.54a.28.28,0,0,1,0,.22,6.06,6.06,0,0,0-.45.78.23.23,0,0,1-.18.12l-1.73.1a.64.64,0,0,0-.55.5l-.21,1.16a.65.65,0,0,0,.35.65l1.58.69a.24.24,0,0,1,.14.17,6.49,6.49,0,0,0,.16.88.26.26,0,0,1-.06.21l-1.26,1.2a.62.62,0,0,0-.11.73l.59,1a.6.6,0,0,0,.69.27l1.65-.49a.27.27,0,0,1,.23.06,7.1,7.1,0,0,0,.67.56.26.26,0,0,1,.1.2l-.2,1.73a.63.63,0,0,0,.39.63l1.1.4a.63.63,0,0,0,.71-.23l.94-1.44a.26.26,0,0,1,.22-.1h.88a.26.26,0,0,1,.2.1l.95,1.45a.65.65,0,0,0,.71.23l1.1-.4a.62.62,0,0,0,.39-.63Z" transform="translate(-4.8 -1.44)"/><path class="cls-16" d="M150,182.28H126.14v-.07l-.91-.76a.66.66,0,0,0-.74,0l-1.13.85h-.2a3.39,3.39,0,0,0-.64.07l-.47-.17a.23.23,0,0,1-.15-.15l-.41-1.69a.63.63,0,0,0-.58-.46h-1.18a.63.63,0,0,0-.58.46l-.4,1.67a.23.23,0,0,1-.16.17,8.29,8.29,0,0,0-.83.31.41.41,0,0,1-.22,0l-1.39-1a.66.66,0,0,0-.74,0l-.9.76a.65.65,0,0,0-.16.73l.77,1.54a.22.22,0,0,1,0,.22,7.44,7.44,0,0,0-.44.78.28.28,0,0,1-.18.12l-1.73.1a.63.63,0,0,0-.55.5l-.21,1.16a.62.62,0,0,0,.35.65l1.58.68a.28.28,0,0,1,.14.18,6.47,6.47,0,0,0,.15.88.26.26,0,0,1,0,.21l-1.26,1.2a.62.62,0,0,0-.11.73l.59,1a.6.6,0,0,0,.69.27l1.65-.49a.27.27,0,0,1,.23.06,6,6,0,0,0,.67.56.25.25,0,0,1,.09.2l-.2,1.73a.63.63,0,0,0,.39.63l1.11.4a.63.63,0,0,0,.71-.23l.94-1.44a.25.25,0,0,1,.21-.1h.88a.26.26,0,0,1,.2.1l1,1.45a.62.62,0,0,0,.7.23l1.11-.4a.63.63,0,0,0,.39-.63l-.12-1.09H150a2.83,2.83,0,0,0,2.83-2.83h0v-6.21a2.83,2.83,0,0,0-2.78-2.88Z" transform="translate(-4.8 -1.44)"/><path class="cls-16" d="M112.24,176.09l1.11-.4a.63.63,0,0,0,.39-.63l-.13-1.09h26.06a2.85,2.85,0,0,0,2.84-2.83v-6.21a2.85,2.85,0,0,0-2.84-2.83H115.81l-.06-.07-.9-.76a.66.66,0,0,0-.74,0l-1.13.85h-.21a2.72,2.72,0,0,0-.63.08c-.16-.06-.31-.13-.48-.18a.28.28,0,0,1-.15-.15l-.4-1.69a.63.63,0,0,0-.58-.46h-1.18a.63.63,0,0,0-.58.46l-.4,1.67a.3.3,0,0,1-.17.18,6.34,6.34,0,0,0-.83.3.38.38,0,0,1-.21,0l-1.39-1a.66.66,0,0,0-.74,0l-.91.76a.64.64,0,0,0-.15.73l.77,1.54a.22.22,0,0,1,0,.22,6,6,0,0,0-.44.78.28.28,0,0,1-.18.12l-1.73.1a.65.65,0,0,0-.56.5l-.2,1.16a.61.61,0,0,0,.35.65l1.58.69a.23.23,0,0,1,.13.17,6.49,6.49,0,0,0,.16.88.23.23,0,0,1-.06.21l-1.26,1.2a.62.62,0,0,0-.1.73l.58,1a.63.63,0,0,0,.69.27l1.65-.49a.27.27,0,0,1,.23.06,6.13,6.13,0,0,0,.68.56.25.25,0,0,1,.09.2l-.2,1.73a.63.63,0,0,0,.39.63l1.11.4a.62.62,0,0,0,.7-.23l1-1.44a.25.25,0,0,1,.21-.1h.88a.26.26,0,0,1,.2.1l1,1.45A.63.63,0,0,0,112.24,176.09Z" transform="translate(-4.8 -1.44)"/><path class="cls-16" d="M123.67,154.3a2.85,2.85,0,0,0,2.84-2.83v-6.21a2.86,2.86,0,0,0-2.84-2.83H99.81a.06.06,0,0,0-.06-.06l-.9-.76a.63.63,0,0,0-.74,0l-1.13.84h-.21a2.72,2.72,0,0,0-.63.08,4.59,4.59,0,0,0-.48-.17.29.29,0,0,1-.15-.16l-.4-1.68a.63.63,0,0,0-.58-.46H93.35a.63.63,0,0,0-.58.46l-.4,1.67a.29.29,0,0,1-.17.17,6.34,6.34,0,0,0-.83.3.26.26,0,0,1-.21,0l-1.39-1a.63.63,0,0,0-.74,0l-.91.76a.6.6,0,0,0-.15.72l.77,1.54a.31.31,0,0,1,0,.23,4.51,4.51,0,0,0-.44.77.29.29,0,0,1-.18.13l-1.73.1a.64.64,0,0,0-.56.49l-.2,1.16a.63.63,0,0,0,.35.66l1.58.68a.23.23,0,0,1,.13.18,6.64,6.64,0,0,0,.16.87.25.25,0,0,1-.06.22l-1.26,1.19a.62.62,0,0,0-.1.73l.58,1a.65.65,0,0,0,.69.27l1.65-.49a.27.27,0,0,1,.23,0c.22.2.44.39.68.57a.25.25,0,0,1,.09.2l-.2,1.72a.63.63,0,0,0,.39.63l1.11.41a.64.64,0,0,0,.7-.24l1-1.43a.26.26,0,0,1,.21-.11h.88a.22.22,0,0,1,.2.09l1,1.45a.64.64,0,0,0,.7.24l1.11-.41a.63.63,0,0,0,.39-.63l-.13-1.09Z" transform="translate(-4.8 -1.44)"/><path class="cls-16" d="M86,128.5l1.58.68a.24.24,0,0,1,.13.18,6.49,6.49,0,0,0,.16.88.26.26,0,0,1-.06.21l-1.26,1.19a.64.64,0,0,0-.1.74l.58,1a.63.63,0,0,0,.69.27l1.65-.49a.24.24,0,0,1,.23.06,6.13,6.13,0,0,0,.68.56.25.25,0,0,1,.09.2l-.2,1.72a.66.66,0,0,0,.39.64l1.11.4a.63.63,0,0,0,.7-.23l1-1.44a.26.26,0,0,1,.21-.11h.88a.26.26,0,0,1,.2.1l1,1.44a.62.62,0,0,0,.7.24l1.11-.41a.63.63,0,0,0,.39-.63l-.13-1.08h26.06a2.85,2.85,0,0,0,2.84-2.84v-6.2a2.85,2.85,0,0,0-2.84-2.84h-24l-.06-.06-.9-.76a.63.63,0,0,0-.74,0l-1.13.84h-.21a2.72,2.72,0,0,0-.63.08c-.16-.06-.31-.12-.48-.17a.28.28,0,0,1-.15-.15l-.4-1.69a.63.63,0,0,0-.58-.46H93.35a.63.63,0,0,0-.58.46l-.4,1.67a.29.29,0,0,1-.17.17,8.29,8.29,0,0,0-.83.31.26.26,0,0,1-.21,0l-1.39-1a.63.63,0,0,0-.74,0l-.91.76a.64.64,0,0,0-.15.73l.77,1.54a.22.22,0,0,1,0,.22,4.51,4.51,0,0,0-.44.77.24.24,0,0,1-.18.13l-1.73.1a.66.66,0,0,0-.56.49l-.2,1.17A.61.61,0,0,0,86,128.5Z" transform="translate(-4.8 -1.44)"/><path class="cls-16" d="M71.56,123.47a2.85,2.85,0,0,0,2.84-2.83v-6.21a2.85,2.85,0,0,0-2.84-2.83H47.7l-.06-.07-.9-.76a.66.66,0,0,0-.74,0l-1.14.85h-.2a2.72,2.72,0,0,0-.63.08c-.16-.06-.31-.13-.48-.18a.28.28,0,0,1-.15-.15l-.4-1.69a.63.63,0,0,0-.58-.46H41.24a.63.63,0,0,0-.58.46l-.4,1.68a.29.29,0,0,1-.17.17,6.34,6.34,0,0,0-.83.3.2.2,0,0,1-.21,0l-1.39-1a.66.66,0,0,0-.74,0l-.91.76a.64.64,0,0,0-.15.73l.77,1.54a.22.22,0,0,1,0,.22,6,6,0,0,0-.44.78A.28.28,0,0,1,36,115l-1.74.11a.62.62,0,0,0-.55.49l-.2,1.16a.61.61,0,0,0,.35.65l1.58.69a.25.25,0,0,1,.13.17,6.49,6.49,0,0,0,.16.88.2.2,0,0,1-.06.21l-1.26,1.2a.62.62,0,0,0-.11.73l.59,1a.65.65,0,0,0,.69.28l1.65-.5a.32.32,0,0,1,.23.06,6.13,6.13,0,0,0,.68.56.27.27,0,0,1,.09.21L38,124.6a.63.63,0,0,0,.39.63l1.11.4a.62.62,0,0,0,.7-.23l1-1.44a.25.25,0,0,1,.21-.1h.88a.26.26,0,0,1,.2.1l1,1.45a.63.63,0,0,0,.71.23l1.11-.4a.63.63,0,0,0,.39-.63l-.13-1.09Z" transform="translate(-4.8 -1.44)"/><path class="cls-16" d="M85.54,162.1H61.67l-.05-.07-.91-.76a.66.66,0,0,0-.74,0l-1.13.85h-.21a2.72,2.72,0,0,0-.63.08c-.16-.06-.31-.13-.48-.18a.28.28,0,0,1-.15-.15l-.4-1.69a.63.63,0,0,0-.58-.46H55.21a.63.63,0,0,0-.58.46l-.4,1.67a.26.26,0,0,1-.16.18,6.34,6.34,0,0,0-.83.3.41.41,0,0,1-.22,0l-1.39-1a.66.66,0,0,0-.74,0L50,162a.65.65,0,0,0-.15.73l.77,1.54a.22.22,0,0,1,0,.22,6,6,0,0,0-.44.78.28.28,0,0,1-.18.12l-1.73.1a.65.65,0,0,0-.56.5l-.2,1.16a.61.61,0,0,0,.35.65l1.58.69a.26.26,0,0,1,.14.17,6.47,6.47,0,0,0,.15.88.23.23,0,0,1,0,.21L48.39,171a.62.62,0,0,0-.11.73l.59,1a.6.6,0,0,0,.69.27l1.65-.49a.25.25,0,0,1,.22.06,7.22,7.22,0,0,0,.68.56.25.25,0,0,1,.09.2l-.2,1.73a.63.63,0,0,0,.39.63l1.11.4a.63.63,0,0,0,.71-.23l.94-1.44a.25.25,0,0,1,.21-.1h.88a.26.26,0,0,1,.2.1l1,1.45a.63.63,0,0,0,.7.23l1.11-.4a.63.63,0,0,0,.39-.63L59.47,174H85.54a2.83,2.83,0,0,0,2.83-2.83h0V165a2.83,2.83,0,0,0-2.8-2.86Z" transform="translate(-4.8 -1.44)"/><path class="cls-16" d="M5.83,9.83l1.58.69a.26.26,0,0,1,.14.17,6.47,6.47,0,0,0,.15.88.26.26,0,0,1,0,.21L6.39,13a.62.62,0,0,0-.11.73l.59,1a.6.6,0,0,0,.69.27l1.65-.49a.25.25,0,0,1,.22.06,7.22,7.22,0,0,0,.68.56.25.25,0,0,1,.09.2L10,17.06a.63.63,0,0,0,.39.63l1.11.4a.63.63,0,0,0,.71-.23l.94-1.44a.25.25,0,0,1,.21-.1h.88a.26.26,0,0,1,.2.1l1,1.45a.63.63,0,0,0,.7.23l1.11-.4a.63.63,0,0,0,.39-.63L17.47,16H43.54a2.85,2.85,0,0,0,2.83-2.83V6.93A2.83,2.83,0,0,0,43.54,4.1H19.67L19.62,4l-.91-.76a.66.66,0,0,0-.74,0l-1.13.85h-.21a2.72,2.72,0,0,0-.63.08c-.16-.06-.31-.13-.48-.18a.28.28,0,0,1-.15-.15L15,2.16a.63.63,0,0,0-.58-.46H13.21a.63.63,0,0,0-.58.46l-.4,1.67a.26.26,0,0,1-.16.18,6.34,6.34,0,0,0-.83.3.41.41,0,0,1-.22,0l-1.39-1a.66.66,0,0,0-.74,0L8,4a.65.65,0,0,0-.15.73L8.6,6.3a.22.22,0,0,1,0,.22,6,6,0,0,0-.44.78A.28.28,0,0,1,8,7.42l-1.73.1a.65.65,0,0,0-.56.5l-.2,1.16A.6.6,0,0,0,5.83,9.83Z" transform="translate(-4.8 -1.44)"/><path class="cls-16" d="M103.51,9.83l1.58.69a.24.24,0,0,1,.14.17,6.49,6.49,0,0,0,.16.88.26.26,0,0,1-.06.21L104.07,13a.62.62,0,0,0-.11.73l.59,1a.6.6,0,0,0,.69.27l1.65-.49a.27.27,0,0,1,.23.06,7.1,7.1,0,0,0,.67.56.26.26,0,0,1,.1.2l-.2,1.73a.63.63,0,0,0,.39.63l1.1.4a.63.63,0,0,0,.71-.23l.94-1.44a.26.26,0,0,1,.22-.1h.88a.26.26,0,0,1,.2.1l1,1.45a.65.65,0,0,0,.71.23l1.1-.4a.63.63,0,0,0,.39-.63L115.16,16h26.06a2.86,2.86,0,0,0,2.84-2.83V6.93a2.85,2.85,0,0,0-2.84-2.83H117.35V4l-.9-.76a.66.66,0,0,0-.74,0l-1.14.85h-.2a2.74,2.74,0,0,0-.64.08c-.15-.06-.31-.13-.47-.18a.23.23,0,0,1-.15-.15l-.41-1.69a.63.63,0,0,0-.58-.46h-1.18a.63.63,0,0,0-.58.46L110,3.85a.26.26,0,0,1-.16.18,6.34,6.34,0,0,0-.83.3.26.26,0,0,1-.21,0l-1.4-1a.66.66,0,0,0-.74,0l-.9.76a.64.64,0,0,0-.15.73l.77,1.54a.28.28,0,0,1,0,.22,6.06,6.06,0,0,0-.45.78.23.23,0,0,1-.18.12l-1.73.1a.63.63,0,0,0-.55.5l-.21,1.16A.63.63,0,0,0,103.51,9.83Z" transform="translate(-4.8 -1.44)"/><path class="cls-16" d="M89.5,29.83l1.58.69a.25.25,0,0,1,.13.17,6.49,6.49,0,0,0,.16.88.26.26,0,0,1-.06.21L90.05,33a.62.62,0,0,0-.11.73l.59,1a.63.63,0,0,0,.69.27l1.65-.49a.27.27,0,0,1,.23.06,6.13,6.13,0,0,0,.68.56.25.25,0,0,1,.09.2l-.2,1.73a.63.63,0,0,0,.39.63l1.11.4a.62.62,0,0,0,.7-.23l.95-1.44a.25.25,0,0,1,.21-.1h.88a.26.26,0,0,1,.2.1l1,1.45a.65.65,0,0,0,.71.23l1.11-.4a.63.63,0,0,0,.39-.63L101.14,36H127.2a2.85,2.85,0,0,0,2.8-2.86V26.93a2.85,2.85,0,0,0-2.84-2.83H103.33V24l-.9-.76a.66.66,0,0,0-.74,0l-1.14.85h-.2a2.72,2.72,0,0,0-.63.08c-.16-.06-.31-.13-.48-.18a.28.28,0,0,1-.15-.15l-.4-1.69a.63.63,0,0,0-.58-.46H96.88a.64.64,0,0,0-.59.46l-.39,1.67a.3.3,0,0,1-.17.18,6.34,6.34,0,0,0-.83.3.26.26,0,0,1-.21,0l-1.4-1a.66.66,0,0,0-.74,0l-.9.76a.64.64,0,0,0-.15.73l.77,1.54a.28.28,0,0,1,0,.22,6,6,0,0,0-.44.78.28.28,0,0,1-.18.12l-1.74.1a.64.64,0,0,0-.55.5l-.2,1.16A.61.61,0,0,0,89.5,29.83Z" transform="translate(-4.8 -1.44)"/><path class="cls-16" d="M157.35,17.86a.63.63,0,0,0,.7.23l1.11-.4a.63.63,0,0,0,.39-.63L159.42,16h26.07a2.85,2.85,0,0,0,2.83-2.83V6.93a2.85,2.85,0,0,0-2.83-2.83H161.62l-.05-.1-.91-.76a.66.66,0,0,0-.74,0l-1.13.85h-.21a2.72,2.72,0,0,0-.63.08c-.16-.06-.31-.13-.48-.18a.28.28,0,0,1-.15-.15l-.4-1.69a.63.63,0,0,0-.58-.46h-1.18a.63.63,0,0,0-.58.46l-.4,1.67A.32.32,0,0,1,154,4a6,6,0,0,0-.84.3.37.37,0,0,1-.21,0l-1.39-1a.66.66,0,0,0-.74,0l-.91.76a.65.65,0,0,0-.15.73l.77,1.54a.22.22,0,0,1,0,.22,6,6,0,0,0-.44.78.28.28,0,0,1-.18.12l-1.73.1a.65.65,0,0,0-.56.5l-.2,1.16a.61.61,0,0,0,.35.65l1.58.69a.26.26,0,0,1,.14.17,4.38,4.38,0,0,0,.15.88.2.2,0,0,1-.06.21L148.33,13a.62.62,0,0,0-.1.73l.59,1a.6.6,0,0,0,.69.27l1.65-.49a.25.25,0,0,1,.22.06,6.13,6.13,0,0,0,.68.56.25.25,0,0,1,.09.2l-.2,1.73a.63.63,0,0,0,.39.63l1.11.4a.62.62,0,0,0,.7-.23l.95-1.44a.25.25,0,0,1,.21-.1h.88a.26.26,0,0,1,.2.1Z" transform="translate(-4.8 -1.44)"/><path class="cls-16" d="M176.78,24l-.9-.76a.66.66,0,0,0-.74,0L174,24.1h-.2a2.72,2.72,0,0,0-.63.08c-.16-.06-.31-.13-.48-.18a.28.28,0,0,1-.15-.15l-.4-1.69a.63.63,0,0,0-.58-.46h-1.18a.64.64,0,0,0-.59.46l-.39,1.67a.3.3,0,0,1-.17.18,6.34,6.34,0,0,0-.83.3.26.26,0,0,1-.21,0l-1.4-1a.66.66,0,0,0-.74,0l-.9.76a.64.64,0,0,0-.15.73l.77,1.54a.28.28,0,0,1,0,.22,6,6,0,0,0-.44.78.28.28,0,0,1-.18.12l-1.74.1a.64.64,0,0,0-.55.5l-.2,1.16a.61.61,0,0,0,.35.65l1.58.69a.25.25,0,0,1,.13.17,6.49,6.49,0,0,0,.16.88.26.26,0,0,1-.06.21L163.55,33a.62.62,0,0,0-.11.73l.59,1a.63.63,0,0,0,.69.27l1.65-.49a.27.27,0,0,1,.23.06,6.13,6.13,0,0,0,.68.56.25.25,0,0,1,.09.2l-.2,1.73a.62.62,0,0,0,.39.63l1.11.4a.62.62,0,0,0,.7-.23l.95-1.44a.25.25,0,0,1,.21-.1h.88a.26.26,0,0,1,.2.1l.95,1.45a.65.65,0,0,0,.71.23l1.11-.4a.63.63,0,0,0,.39-.63L174.64,36H200.7a2.86,2.86,0,0,0,2.84-2.83V26.93a2.85,2.85,0,0,0-2.84-2.83H176.83Z" transform="translate(-4.8 -1.44)"/><path class="cls-16" d="M57.2,36A2.85,2.85,0,0,0,60,33.14V26.93a2.84,2.84,0,0,0-2.8-2.83H33.33V24l-.9-.76a.66.66,0,0,0-.74,0l-1.14.85h-.2a2.72,2.72,0,0,0-.63.08c-.16-.06-.31-.13-.48-.18a.28.28,0,0,1-.15-.15l-.4-1.69a.63.63,0,0,0-.58-.46H26.88a.64.64,0,0,0-.59.46l-.39,1.67a.3.3,0,0,1-.17.18,6.34,6.34,0,0,0-.83.3.26.26,0,0,1-.21,0l-1.4-1a.66.66,0,0,0-.74,0l-.9.76a.64.64,0,0,0-.15.73l.77,1.54a.28.28,0,0,1,0,.22,6,6,0,0,0-.44.78.28.28,0,0,1-.18.12l-1.74.1a.64.64,0,0,0-.55.5l-.2,1.16a.61.61,0,0,0,.35.65l1.58.69a.25.25,0,0,1,.13.17,6.49,6.49,0,0,0,.16.88.26.26,0,0,1-.06.21L20.05,33a.62.62,0,0,0-.11.73l.59,1a.63.63,0,0,0,.69.27l1.65-.49a.27.27,0,0,1,.23.06,6.13,6.13,0,0,0,.68.56.25.25,0,0,1,.09.2l-.2,1.73a.63.63,0,0,0,.39.63l1.11.4a.62.62,0,0,0,.7-.23l.95-1.44a.25.25,0,0,1,.21-.1h.88a.26.26,0,0,1,.2.1l.95,1.45a.65.65,0,0,0,.71.23l1.11-.4a.63.63,0,0,0,.39-.63L31.14,36Z" transform="translate(-4.8 -1.44)"/><path class="cls-16" d="M55.14,44l-.91-.76a.66.66,0,0,0-.74,0l-1.13.85h-.2a2.74,2.74,0,0,0-.64.08c-.16-.06-.31-.13-.47-.18a.23.23,0,0,1-.15-.15l-.41-1.69a.63.63,0,0,0-.58-.46H48.73a.63.63,0,0,0-.58.46l-.4,1.67a.26.26,0,0,1-.16.18,6.34,6.34,0,0,0-.83.3.41.41,0,0,1-.22,0l-1.39-1a.66.66,0,0,0-.74,0l-.91.7a.65.65,0,0,0-.15.73l.77,1.54a.22.22,0,0,1,0,.22,7.44,7.44,0,0,0-.44.78.28.28,0,0,1-.18.12l-1.73.1a.64.64,0,0,0-.55.5L41,49.18a.62.62,0,0,0,.35.65l1.58.69a.26.26,0,0,1,.14.17,6.47,6.47,0,0,0,.15.88.26.26,0,0,1,0,.21L41.91,53a.62.62,0,0,0-.11.73l.59,1a.6.6,0,0,0,.69.27l1.65-.49a.27.27,0,0,1,.23.06,6,6,0,0,0,.67.56.25.25,0,0,1,.09.2l-.2,1.73a.63.63,0,0,0,.39.63l1.11.4a.63.63,0,0,0,.71-.23l.94-1.44a.25.25,0,0,1,.21-.1h.88a.26.26,0,0,1,.2.1l1,1.45a.63.63,0,0,0,.7.23l1.11-.4a.63.63,0,0,0,.39-.63L53,56H79.06a2.85,2.85,0,0,0,2.83-2.83V46.93a2.83,2.83,0,0,0-2.83-2.83H55.19Z" transform="translate(-4.8 -1.44)"/><path class="cls-16" d="M202.8,41.7h-1.18a.63.63,0,0,0-.58.46l-.4,1.67a.26.26,0,0,1-.16.18,6.34,6.34,0,0,0-.83.3.26.26,0,0,1-.21,0l-1.4-1a.66.66,0,0,0-.74,0l-.9.76a.64.64,0,0,0-.15.73l.75,1.5a.28.28,0,0,1,0,.22,6.06,6.06,0,0,0-.45.78.23.23,0,0,1-.18.12l-1.73.1a.64.64,0,0,0-.55.5l-.21,1.16a.64.64,0,0,0,.36.65l1.58.69a.25.25,0,0,1,.13.17,6.49,6.49,0,0,0,.16.88.26.26,0,0,1-.06.21L194.8,53a.62.62,0,0,0-.11.73l.59,1A.61.61,0,0,0,196,55l1.65-.49a.27.27,0,0,1,.23.06,7.1,7.1,0,0,0,.67.56.26.26,0,0,1,.1.2l-.2,1.73a.63.63,0,0,0,.39.63l1.1.4a.63.63,0,0,0,.71-.23l.94-1.44a.27.27,0,0,1,.22-.1h.88a.26.26,0,0,1,.2.1l1,1.45a.65.65,0,0,0,.71.23l1.1-.4a.63.63,0,0,0,.39-.63L205.89,56H232a2.86,2.86,0,0,0,2.84-2.83V46.93A2.85,2.85,0,0,0,232,44.1H208.08L208,44l-.9-.76a.66.66,0,0,0-.74,0l-1.14.85H205a2.74,2.74,0,0,0-.64.08c-.15-.06-.31-.13-.47-.18a.23.23,0,0,1-.15-.15l-.41-1.69A.62.62,0,0,0,202.8,41.7Z" transform="translate(-4.8 -1.44)"/><path class="cls-16" d="M81.89,73V66.76a2.83,2.83,0,0,0-2.83-2.83H55.19v-.07l-.91-.76a.63.63,0,0,0-.74,0L52.41,64h-.2a3.39,3.39,0,0,0-.64.07l-.47-.17A.23.23,0,0,1,51,63.7L50.49,62a.63.63,0,0,0-.58-.46H48.73a.63.63,0,0,0-.58.46l-.4,1.67a.23.23,0,0,1-.16.17,8.29,8.29,0,0,0-.83.31.41.41,0,0,1-.22,0l-1.39-1a.66.66,0,0,0-.74,0l-.91.76a.65.65,0,0,0-.15.73l.77,1.54a.22.22,0,0,1,0,.22,7.44,7.44,0,0,0-.44.78.28.28,0,0,1-.18.12l-1.73.1a.64.64,0,0,0-.55.5L41,69a.62.62,0,0,0,.35.65l1.58.68a.28.28,0,0,1,.14.18,6.47,6.47,0,0,0,.15.88.26.26,0,0,1,0,.21L42,72.8a.62.62,0,0,0-.11.73l.59,1a.6.6,0,0,0,.69.27l1.65-.49a.24.24,0,0,1,.23.06,6,6,0,0,0,.67.56.25.25,0,0,1,.09.2l-.2,1.73a.64.64,0,0,0,.39.63l1.11.4a.65.65,0,0,0,.71-.23l.94-1.44a.26.26,0,0,1,.21-.11,3.23,3.23,0,0,0,.44,0h.44a.26.26,0,0,1,.2.1l1,1.45a.63.63,0,0,0,.7.23l1.11-.4a.64.64,0,0,0,.39-.63L53,75.8H79.06A2.84,2.84,0,0,0,81.89,73Z" transform="translate(-4.8 -1.44)"/><path class="cls-16" d="M289.67,80.43H265.81a.06.06,0,0,0-.06-.06l-.9-.76a.63.63,0,0,0-.74,0l-1.13.84h-.21a2.72,2.72,0,0,0-.63.08,4.59,4.59,0,0,0-.48-.17.29.29,0,0,1-.15-.16l-.4-1.69a.63.63,0,0,0-.58-.46h-1.18a.63.63,0,0,0-.58.46l-.4,1.68a.3.3,0,0,1-.16.17,6,6,0,0,0-.84.3.26.26,0,0,1-.21,0l-1.39-1a.63.63,0,0,0-.74,0l-.91.76a.6.6,0,0,0-.15.72l.77,1.54a.22.22,0,0,1,0,.22,6,6,0,0,0-.44.78.29.29,0,0,1-.18.13l-1.73.1a.63.63,0,0,0-.56.49l-.2,1.16a.61.61,0,0,0,.35.65l1.58.69a.23.23,0,0,1,.13.18,6.64,6.64,0,0,0,.16.87.25.25,0,0,1-.06.22l-1.26,1.19a.62.62,0,0,0-.1.73l.59,1a.63.63,0,0,0,.69.28l1.64-.49a.27.27,0,0,1,.23.05c.22.2.44.39.68.57a.25.25,0,0,1,.09.2l-.2,1.72a.63.63,0,0,0,.39.63l1.11.4a.62.62,0,0,0,.7-.23l1-1.44a.28.28,0,0,1,.21-.1h.88a.22.22,0,0,1,.2.09l1,1.45a.62.62,0,0,0,.7.23l1.11-.4a.63.63,0,0,0,.39-.63l-.13-1.09h26.06a2.85,2.85,0,0,0,2.84-2.83V83.26a2.83,2.83,0,0,0-2.85-2.83Z" transform="translate(-4.8 -1.44)"/><polyline class="cls-18" points="261.18 151.6 246.96 151.69 246.96 137.53"/><text class="cls-19" transform="translate(184.04 99.55)">2</text><text class="cls-19" transform="translate(274.9 189.8)">3</text><text class="cls-19" transform="translate(13.16 169.63)">1</text><text class="cls-19" transform="translate(262.4 69.62)">4</text><text class="cls-20" transform="translate(280.13 69.62)">125</text><text class="cls-19" transform="translate(216.07 69.62)">6</text><text class="cls-20" transform="translate(233.79 69.62)">270</text><text class="cls-19" transform="translate(207.2 109.05)">4</text><text class="cls-20" transform="translate(224.92 109.05)">135</text><text class="cls-19" transform="translate(169.4 189.8)">8</text><text class="cls-20" transform="translate(187.13 189.8)">315</text><text class="cls-19" transform="translate(157.4 169.62)">8</text><text class="cls-20" transform="translate(175.13 169.62)">325</text><text class="cls-19" transform="translate(113.07 189.8)">8</text><text class="cls-20" transform="translate(130.79 190.11)">330</text><text class="cls-19" transform="translate(102.74 169.62)">4</text><text class="cls-20" transform="translate(120.46 169.93)">145</text><text class="cls-19" transform="translate(86.74 149.96)">4</text><text class="cls-20" transform="translate(104.46 149.96)">190</text><text class="cls-19" transform="translate(86.74 130.29)">7</text><text class="cls-20" transform="translate(104.46 130.29)">265</text><text class="cls-19" transform="translate(34.63 119.12)">8</text><text class="cls-20" transform="translate(52.35 119.12)">295</text><text class="cls-19" transform="translate(48.6 169.62)">7</text><text class="cls-20" transform="translate(66.32 169.62)">280</text><text class="cls-19" transform="translate(6.6 11.62)">5</text><text class="cls-20" transform="translate(24.32 11.62)">225</text><text class="cls-19" transform="translate(104.28 11.62)">7</text><text class="cls-20" transform="translate(122.01 11.62)">290</text><text class="cls-19" transform="translate(90.26 31.62)">5</text><text class="cls-20" transform="translate(107.99 31.62)">230</text><text class="cls-19" transform="translate(148.55 11.62)">8</text><text class="cls-20" transform="translate(166.27 11.62)">325</text><text class="cls-19" transform="translate(163.76 31.62)">8</text><text class="cls-20" transform="translate(181.49 31.62)">330</text><text class="cls-19" transform="translate(20.26 31.62)">7</text><text class="cls-20" transform="translate(37.99 31.62)">280</text><text class="cls-19" transform="translate(42.12 51.62)">4</text><text class="cls-20" transform="translate(59.84 51.62)">150</text><text class="cls-19" transform="translate(195.01 51.62)">3</text><text class="cls-20" transform="translate(212.74 51.62)">120</text><text class="cls-19" transform="translate(42.12 71.45)">6</text><text class="cls-20" transform="translate(59.84 71.45)">250</text><text class="cls-19" transform="translate(252.74 87.96)">4</text><text class="cls-20" transform="translate(270.46 87.96)">140</text><text class="cls-21" transform="translate(217.77 166.08)">1</text><text class="cls-21" transform="translate(138.21 125.41)">2</text><text class="cls-21" transform="translate(100.32 100.08)">3</text><text class="cls-21" transform="translate(72.82 142.75)">4</text><text class="cls-21" transform="translate(12.05 138.75)">5</text><text class="cls-21" transform="translate(14.49 95.41)">6</text><text class="cls-21" transform="translate(38.71 96.41)">7</text><text class="cls-21" transform="translate(65.6 105.75)">8</text><text class="cls-21" transform="translate(92.66 82.75)">9</text><text class="cls-21" transform="translate(91.86 45.41)">10</text><g class="cls-22"><text class="cls-23" transform="translate(132.52 87.75)">1</text><text class="cls-21" transform="translate(135.68 87.75)">1</text></g><text class="cls-21" transform="translate(182.2 115.41)">12</text><text class="cls-21" transform="translate(185.37 139.08)">13</text><text class="cls-21" transform="translate(206.53 140.75)">14</text><text class="cls-21" transform="translate(217.36 135.75)">15</text><text class="cls-21" transform="translate(216.53 123.75)">16</text><text class="cls-21" transform="translate(259.7 100.41)">17</text><text class="cls-21" transform="translate(282.87 132.08)">18</text></g></svg>