<svg id="Capa_1" data-name="Capa 1" xmlns="http://www.w3.org/2000/svg" width="297.35" height="178.59" viewBox="0 0 297.35 178.59"><defs><style>.cls-1,.cls-10,.cls-16,.cls-17,.cls-18,.cls-2,.cls-3,.cls-4,.cls-5,.cls-6,.cls-8,.cls-9{fill:none;}.cls-1,.cls-10,.cls-6{stroke:#fff;}.cls-1,.cls-10,.cls-16,.cls-18,.cls-2,.cls-3,.cls-4,.cls-9{stroke-linecap:round;}.cls-1,.cls-10,.cls-16,.cls-17,.cls-18,.cls-2,.cls-3,.cls-4,.cls-5,.cls-9{stroke-linejoin:round;}.cls-1{stroke-width:8px;}.cls-2,.cls-3{stroke:#00071b;}.cls-2,.cls-4,.cls-5{stroke-width:2.8px;}.cls-3{stroke-width:5.4px;}.cls-4{stroke:#8c92a1;}.cls-5{stroke:#fff100;}.cls-6{stroke-width:1.3px;}.cls-7{fill:#ea1a4d;}.cls-16,.cls-17,.cls-18,.cls-8,.cls-9{stroke:#231f20;}.cls-9{stroke-width:1.5px;}.cls-10,.cls-15,.cls-16{stroke-width:0.5px;}.cls-11,.cls-15,.cls-20,.cls-22,.cls-23,.cls-24{fill:#fff;}.cls-12{fill:#ffca05;}.cls-13,.cls-19{fill:#231f20;}.cls-14{fill:#007dc4;}.cls-15{stroke:#007dc4;}.cls-17{stroke-width:0.25px;}.cls-18{stroke-width:0.65px;}.cls-19,.cls-20,.cls-21,.cls-22,.cls-23,.cls-24{isolation:isolate;}.cls-19,.cls-20,.cls-22{font-size:8.5px;}.cls-19,.cls-20,.cls-22,.cls-23,.cls-24{font-family:Helvetica-Bold, Helvetica;font-weight:700;}.cls-22{letter-spacing:-0.05em;}.cls-23,.cls-24{font-size:7.5px;}.cls-23{letter-spacing:-0.08em;}.cls-24{letter-spacing:-0.13em;}</style></defs><g id="las_americas" data-name="las americas"><path class="cls-1" d="M281.17,117s2.76.69,2.76,2.53-2.52,3-2.52,3L234.78,139.3a38.94,38.94,0,0,1-5.81.5l-21.62-7.36c-3.22-1.84-2.3-5.06-3.91-9.89s-8.51-4.6-11-3.22a29.9,29.9,0,0,1-10.58,3.45,7,7,0,0,1-5.5-2.24q-6.8-9.95-8.78-12.56a7.42,7.42,0,0,0-4-2.67,24.73,24.73,0,0,0-6.35-.8,15.45,15.45,0,0,0-7.35,1.57,14.79,14.79,0,0,0-5.88,5.38,11.51,11.51,0,0,1-4.92,4.68,11,11,0,0,1-6.28.11c-6.48-1.92-10.31-1.75-12.38,1.7s-6.67,5.06-6.67,5.06l-31.28.46c-6.44,0-8.28,7.59-8.28,7.59l-5.34,26-.44,1a2,2,0,0,1-1.58,1.08,2.26,2.26,0,0,1-1.63-.74l-.69-.8-4.73-9.35L24.5,57.37,24.3,56a2.63,2.63,0,0,1,.75-1.6,3.19,3.19,0,0,1,2-.86l1.21-.08L44.9,55.71q17,2.3,18.71,2.66a4,4,0,0,1,2.68,2.12,6,6,0,0,1,.62,1.69L72.58,93.8s2.76,11.5,14.49,11.5c13.8,0,16.1-13.8,16.1-13.8l3-23.68c.69-4.14,4.14-1.15,6.21,0s3,3.67,4.14,8.27-3,5.52-4.37,9.89,5.06,7.13,6.9,8.28,4.6,2.07,5.75-.69,0-16.1,0-16.1a75.06,75.06,0,0,0-1.37-13.62,3.46,3.46,0,0,1,0-1.36,2.12,2.12,0,0,1,.83-1.16,2.05,2.05,0,0,1,1.54,0l1,.36S190.56,96.1,281.17,117Z" transform="translate(-4.63 -5.05)"/><path class="cls-2" d="M65,156.15c-2.16-4.17-2.29-14.74-2.29-14.74L32.31,63.17s-3.11-8,6.06-6.86" transform="translate(-4.63 -5.05)"/><path class="cls-3" d="M281.17,117s2.76.69,2.76,2.53-2.52,3-2.52,3L234.78,139.3a38.94,38.94,0,0,1-5.81.5l-21.62-7.36c-3.22-1.84-2.3-5.06-3.91-9.89s-8.51-4.6-11-3.22a29.9,29.9,0,0,1-10.58,3.45,7,7,0,0,1-5.5-2.24q-6.8-9.95-8.78-12.56a7.42,7.42,0,0,0-4-2.67,24.73,24.73,0,0,0-6.35-.8,15.45,15.45,0,0,0-7.35,1.57,14.79,14.79,0,0,0-5.88,5.38,11.51,11.51,0,0,1-4.92,4.68,11,11,0,0,1-6.28.11c-6.48-1.92-10.31-1.75-12.38,1.7s-6.67,5.06-6.67,5.06l-31.28.46c-6.44,0-8.28,7.59-8.28,7.59l-5.34,26-.44,1a2,2,0,0,1-1.58,1.08,2.26,2.26,0,0,1-1.63-.74l-.69-.8-4.73-9.35L24.5,57.37,24.3,56a2.63,2.63,0,0,1,.75-1.6,3.19,3.19,0,0,1,2-.86l1.21-.08L44.9,55.71q17,2.3,18.71,2.66a4,4,0,0,1,2.68,2.12,6,6,0,0,1,.62,1.69L72.58,93.8s2.76,11.5,14.49,11.5c13.8,0,16.1-13.8,16.1-13.8l3-23.68c.69-4.14,4.14-1.15,6.21,0s3,3.67,4.14,8.27-3,5.52-4.37,9.89,5.06,7.13,6.9,8.28,4.6,2.07,5.75-.69,0-16.1,0-16.1a75.06,75.06,0,0,0-1.37-13.62,3.46,3.46,0,0,1,0-1.36,2.12,2.12,0,0,1,.83-1.16,2.05,2.05,0,0,1,1.54,0l1,.36S190.56,96.1,281.17,117Z" transform="translate(-4.63 -5.05)"/><path class="cls-4" d="M281.17,117s2.76.69,2.76,2.53-2.52,3-2.52,3L234.78,139.3a38.94,38.94,0,0,1-5.81.5l-21.62-7.36c-3.22-1.84-2.3-5.06-3.91-9.89s-8.51-4.6-11-3.22a29.9,29.9,0,0,1-10.58,3.45,7,7,0,0,1-5.5-2.24q-6.8-9.95-8.78-12.56a7.42,7.42,0,0,0-4-2.67,24.73,24.73,0,0,0-6.35-.8,15.45,15.45,0,0,0-7.35,1.57,14.79,14.79,0,0,0-5.88,5.38,11.51,11.51,0,0,1-4.92,4.68,11,11,0,0,1-6.28.11c-6.48-1.92-10.31-1.75-12.38,1.7s-6.67,5.06-6.67,5.06l-31.28.46c-6.44,0-8.28,7.59-8.28,7.59l-5.34,26-.44,1a2,2,0,0,1-1.58,1.08,2.26,2.26,0,0,1-1.63-.74l-.69-.8-4.73-9.35L24.5,57.37,24.3,56a2.63,2.63,0,0,1,.75-1.6,3.19,3.19,0,0,1,2-.86l1.21-.08L44.9,55.71q17,2.3,18.71,2.66a4,4,0,0,1,2.68,2.12,6,6,0,0,1,.62,1.69L72.58,93.8s2.76,11.5,14.49,11.5c13.8,0,16.1-13.8,16.1-13.8l3-23.68c.69-4.14,4.14-1.15,6.21,0s3,3.67,4.14,8.27-3,5.52-4.37,9.89,5.06,7.13,6.9,8.28,4.6,2.07,5.75-.69,0-16.1,0-16.1a75.06,75.06,0,0,0-1.37-13.62,3.46,3.46,0,0,1,0-1.36,2.12,2.12,0,0,1,.83-1.16,2.05,2.05,0,0,1,1.54,0l1,.36S190.56,96.1,281.17,117Z" transform="translate(-4.63 -5.05)"/><line class="cls-5" x1="55.15" y1="143.23" x2="21.13" y2="55.57"/><path class="cls-5" d="M130.13,63.46c12.56,6.39,59.64,29.19,124.64,46.92" transform="translate(-4.63 -5.05)"/><rect class="cls-6" x="52.48" y="157.77" width="9.61" height="9.61" rx="2.29"/><rect class="cls-7" x="52.48" y="157.77" width="9.61" height="9.61" rx="2.29"/><rect class="cls-6" x="59.73" y="109.77" width="9.61" height="9.61" rx="2.29"/><rect class="cls-7" x="59.73" y="109.77" width="9.61" height="9.61" rx="2.29"/><rect class="cls-6" x="100.73" y="104.27" width="9.61" height="9.61" rx="2.29"/><rect class="cls-7" x="100.73" y="104.27" width="9.61" height="9.61" rx="2.29"/><rect class="cls-6" x="117.73" y="114.27" width="9.61" height="9.61" rx="2.29"/><rect class="cls-7" x="117.73" y="114.27" width="9.61" height="9.61" rx="2.29"/><rect class="cls-6" x="125.98" y="97.52" width="9.61" height="9.61" rx="2.29"/><rect class="cls-7" x="125.98" y="97.52" width="9.61" height="9.61" rx="2.29"/><rect class="cls-6" x="147.73" y="103.77" width="9.61" height="9.61" rx="2.29"/><rect class="cls-7" x="147.73" y="103.77" width="9.61" height="9.61" rx="2.29"/><rect class="cls-6" x="172.98" y="103.02" width="9.61" height="9.61" rx="2.29"/><rect class="cls-7" x="172.98" y="103.02" width="9.61" height="9.61" rx="2.29"/><rect class="cls-6" x="185.98" y="118.77" width="9.61" height="9.61" rx="2.29"/><rect class="cls-7" x="185.98" y="118.77" width="9.61" height="9.61" rx="2.29"/><rect class="cls-6" x="203.98" y="114.77" width="9.61" height="9.61" rx="2.29"/><rect class="cls-7" x="203.98" y="114.77" width="9.61" height="9.61" rx="2.29"/><rect class="cls-6" x="221.48" y="120.77" width="9.61" height="9.61" rx="2.29"/><rect class="cls-7" x="221.48" y="120.77" width="9.61" height="9.61" rx="2.29"/><rect class="cls-6" x="281.23" y="101.52" width="9.61" height="9.61" rx="2.29"/><rect class="cls-7" x="281.23" y="101.52" width="9.61" height="9.61" rx="2.29"/><rect class="cls-6" x="109.48" y="43.52" width="9.61" height="9.61" rx="2.29"/><rect class="cls-7" x="109.48" y="43.52" width="9.61" height="9.61" rx="2.29"/><rect class="cls-6" x="114.23" y="94.27" width="9.61" height="9.61" rx="2.29"/><rect class="cls-7" x="114.23" y="94.27" width="9.61" height="9.61" rx="2.29"/><rect class="cls-6" x="100.98" y="86.77" width="9.61" height="9.61" rx="2.29"/><rect class="cls-7" x="100.98" y="86.77" width="9.61" height="9.61" rx="2.29"/><rect class="cls-6" x="90.23" y="49.27" width="9.61" height="9.61" rx="2.29"/><rect class="cls-7" x="90.23" y="49.27" width="9.61" height="9.61" rx="2.29"/><rect class="cls-6" x="83.48" y="82.02" width="9.61" height="9.61" rx="2.29"/><rect class="cls-7" x="83.48" y="82.02" width="9.61" height="9.61" rx="2.29"/><rect class="cls-6" x="77.98" y="104.02" width="9.61" height="9.61" rx="2.29"/><rect class="cls-7" x="77.98" y="104.02" width="9.61" height="9.61" rx="2.29"/><rect class="cls-6" x="54.98" y="88.27" width="9.61" height="9.61" rx="2.29"/><rect class="cls-7" x="54.98" y="88.27" width="9.61" height="9.61" rx="2.29"/><rect class="cls-6" x="62.23" y="42.27" width="9.61" height="9.61" rx="2.29"/><rect class="cls-7" x="62.23" y="42.27" width="9.61" height="9.61" rx="2.29"/><rect class="cls-6" x="11.23" y="36.27" width="9.61" height="9.61" rx="2.29"/><rect class="cls-7" x="11.23" y="36.27" width="9.61" height="9.61" rx="2.29"/><path class="cls-8" d="M107.41,67.19A1.42,1.42,0,1,0,106,65.76v0a1.41,1.41,0,0,0,1.41,1.41Z" transform="translate(-4.63 -5.05)"/><line class="cls-9" x1="102.78" y1="60.73" x2="102.78" y2="29.55"/><line class="cls-10" x1="102.78" y1="60.73" x2="102.78" y2="29.55"/><path class="cls-11" d="M107.41,67.19A1.42,1.42,0,1,0,106,65.76v0a1.41,1.41,0,0,0,1.41,1.41Z" transform="translate(-4.63 -5.05)"/><path class="cls-8" d="M127.85,63.56a1.42,1.42,0,1,0-1.42-1.42h0A1.42,1.42,0,0,0,127.85,63.56Z" transform="translate(-4.63 -5.05)"/><line class="cls-9" x1="123.22" y1="57.1" x2="123.22" y2="8.59"/><line class="cls-10" x1="123.22" y1="57.1" x2="123.22" y2="8.59"/><path class="cls-11" d="M127.85,63.56a1.42,1.42,0,1,0-1.42-1.42h0A1.42,1.42,0,0,0,127.85,63.56Z" transform="translate(-4.63 -5.05)"/><path class="cls-8" d="M147.47,73.19a1.42,1.42,0,1,0-1.42-1.42h0a1.41,1.41,0,0,0,1.41,1.41Z" transform="translate(-4.63 -5.05)"/><line class="cls-9" x1="142.84" y1="66.73" x2="142.84" y2="29.55"/><line class="cls-10" x1="142.84" y1="66.73" x2="142.84" y2="29.55"/><path class="cls-11" d="M147.47,73.19a1.42,1.42,0,1,0-1.42-1.42h0a1.41,1.41,0,0,0,1.41,1.41Z" transform="translate(-4.63 -5.05)"/><path class="cls-8" d="M195.6,92.75a1.42,1.42,0,1,0-1.41-1.43v0A1.42,1.42,0,0,0,195.6,92.75Z" transform="translate(-4.63 -5.05)"/><line class="cls-9" x1="190.97" y1="86.29" x2="190.97" y2="8.59"/><line class="cls-10" x1="190.97" y1="86.29" x2="190.97" y2="8.59"/><path class="cls-11" d="M195.6,92.75a1.42,1.42,0,1,0-1.41-1.43v0A1.42,1.42,0,0,0,195.6,92.75Z" transform="translate(-4.63 -5.05)"/><path class="cls-8" d="M225.38,103a1.42,1.42,0,1,0-1.42-1.42h0A1.43,1.43,0,0,0,225.38,103Z" transform="translate(-4.63 -5.05)"/><line class="cls-9" x1="220.75" y1="96.49" x2="220.75" y2="29.55"/><line class="cls-10" x1="220.75" y1="96.49" x2="220.75" y2="29.55"/><path class="cls-11" d="M225.38,103a1.42,1.42,0,1,0-1.42-1.42h0A1.43,1.43,0,0,0,225.38,103Z" transform="translate(-4.63 -5.05)"/><path class="cls-8" d="M267,115a1.42,1.42,0,1,0-1.42-1.42h0A1.42,1.42,0,0,0,267,115Z" transform="translate(-4.63 -5.05)"/><polyline class="cls-9" points="262.35 108.51 262.35 96.46 250.1 96.46 250.1 64.71"/><polyline class="cls-10" points="262.35 108.51 262.35 96.46 250.1 96.46 250.1 64.71"/><path class="cls-11" d="M267,115a1.42,1.42,0,1,0-1.42-1.42h0A1.42,1.42,0,0,0,267,115Z" transform="translate(-4.63 -5.05)"/><path class="cls-8" d="M255.18,130.56a1.42,1.42,0,1,1-1.42,1.42h0a1.41,1.41,0,0,1,1.41-1.41Z" transform="translate(-4.63 -5.05)"/><line class="cls-9" x1="250.55" y1="126.92" x2="250.55" y2="170.23"/><line class="cls-10" x1="250.55" y1="126.92" x2="250.55" y2="170.23"/><path class="cls-11" d="M255.18,130.56a1.42,1.42,0,1,1-1.42,1.42h0a1.41,1.41,0,0,1,1.41-1.41Z" transform="translate(-4.63 -5.05)"/><path class="cls-8" d="M231.73,138.26a1.42,1.42,0,1,1-1.41,1.43h0A1.43,1.43,0,0,1,231.73,138.26Z" transform="translate(-4.63 -5.05)"/><line class="cls-9" x1="227.1" y1="134.63" x2="227.1" y2="149.27"/><line class="cls-10" x1="227.1" y1="134.63" x2="227.1" y2="149.27"/><path class="cls-11" d="M231.73,138.26a1.42,1.42,0,1,1-1.41,1.43h0A1.43,1.43,0,0,1,231.73,138.26Z" transform="translate(-4.63 -5.05)"/><path class="cls-8" d="M206.3,130.24a1.42,1.42,0,1,1-1.42,1.42h0A1.43,1.43,0,0,1,206.3,130.24Z" transform="translate(-4.63 -5.05)"/><line class="cls-9" x1="201.67" y1="126.61" x2="201.67" y2="161.71"/><line class="cls-10" x1="201.67" y1="126.61" x2="201.67" y2="161.71"/><path class="cls-11" d="M206.3,130.24a1.42,1.42,0,1,1-1.42,1.42h0A1.43,1.43,0,0,1,206.3,130.24Z" transform="translate(-4.63 -5.05)"/><path class="cls-8" d="M180.08,121.25a1.42,1.42,0,1,1-1.42,1.42h0A1.43,1.43,0,0,1,180.08,121.25Z" transform="translate(-4.63 -5.05)"/><line class="cls-9" x1="175.45" y1="117.62" x2="175.45" y2="170.23"/><line class="cls-10" x1="175.45" y1="117.62" x2="175.45" y2="170.23"/><path class="cls-11" d="M180.08,121.25a1.42,1.42,0,1,1-1.42,1.42h0A1.43,1.43,0,0,1,180.08,121.25Z" transform="translate(-4.63 -5.05)"/><path class="cls-8" d="M172.8,114a1.42,1.42,0,1,1-1.41,1.43v0A1.42,1.42,0,0,1,172.8,114Z" transform="translate(-4.63 -5.05)"/><line class="cls-9" x1="168.17" y1="110.37" x2="168.17" y2="149.26"/><line class="cls-10" x1="168.17" y1="110.37" x2="168.17" y2="149.26"/><path class="cls-11" d="M172.8,114a1.42,1.42,0,1,1-1.41,1.43v0A1.42,1.42,0,0,1,172.8,114Z" transform="translate(-4.63 -5.05)"/><path class="cls-8" d="M139.08,114.72a1.42,1.42,0,1,1-1.42,1.42h0A1.43,1.43,0,0,1,139.08,114.72Z" transform="translate(-4.63 -5.05)"/><line class="cls-9" x1="134.45" y1="111.09" x2="134.45" y2="133.55"/><line class="cls-10" x1="134.45" y1="111.09" x2="134.45" y2="133.55"/><path class="cls-11" d="M139.08,114.72a1.42,1.42,0,1,1-1.42,1.42h0A1.43,1.43,0,0,1,139.08,114.72Z" transform="translate(-4.63 -5.05)"/><path class="cls-8" d="M113.75,121.74a1.42,1.42,0,1,1-1.41,1.43v0a1.41,1.41,0,0,1,1.41-1.41Z" transform="translate(-4.63 -5.05)"/><line class="cls-9" x1="109.12" y1="118.1" x2="109.12" y2="151.89"/><line class="cls-10" x1="109.12" y1="118.1" x2="109.12" y2="151.89"/><path class="cls-11" d="M113.75,121.74a1.42,1.42,0,1,1-1.41,1.43v0a1.41,1.41,0,0,1,1.41-1.41Z" transform="translate(-4.63 -5.05)"/><path class="cls-8" d="M68.85,155.65a1.42,1.42,0,1,1-1.42,1.42h0A1.43,1.43,0,0,1,68.85,155.65Z" transform="translate(-4.63 -5.05)"/><polyline class="cls-9" points="64.22 152.02 64.22 170.23 36.47 170.23"/><polyline class="cls-10" points="64.22 152.02 64.22 170.23 36.47 170.23"/><path class="cls-11" d="M68.85,155.65a1.42,1.42,0,1,1-1.42,1.42h0A1.43,1.43,0,0,1,68.85,155.65Z" transform="translate(-4.63 -5.05)"/><path class="cls-8" d="M269.16,125.68a1.42,1.42,0,1,1-1.42,1.42h0A1.42,1.42,0,0,1,269.16,125.68Z" transform="translate(-4.63 -5.05)"/><line class="cls-9" x1="264.53" y1="122.04" x2="264.53" y2="149.41"/><line class="cls-10" x1="264.53" y1="122.04" x2="264.53" y2="149.41"/><path class="cls-11" d="M269.16,125.68a1.42,1.42,0,1,1-1.42,1.42h0A1.42,1.42,0,0,1,269.16,125.68Z" transform="translate(-4.63 -5.05)"/><path class="cls-8" d="M281,121.91a1.42,1.42,0,1,1,1.42,1.42,1.43,1.43,0,0,1-1.42-1.42Z" transform="translate(-4.63 -5.05)"/><polyline class="cls-9" points="277.83 116.86 294.23 116.86 294.23 84.87"/><polyline class="cls-10" points="277.83 116.86 294.23 116.86 294.23 84.87"/><path class="cls-11" d="M281,121.91a1.42,1.42,0,1,1,1.42,1.42,1.43,1.43,0,0,1-1.42-1.42Z" transform="translate(-4.63 -5.05)"/><path class="cls-8" d="M123.42,78.2a1.42,1.42,0,1,1,1.43,1.41h0A1.42,1.42,0,0,1,123.42,78.2Z" transform="translate(-4.63 -5.05)"/><polyline class="cls-9" points="120.21 73.15 136.59 73.15 136.59 84.17"/><polyline class="cls-10" points="120.21 73.15 136.59 73.15 136.59 84.17"/><path class="cls-11" d="M123.42,78.2a1.42,1.42,0,1,1,1.43,1.41h0A1.42,1.42,0,0,1,123.42,78.2Z" transform="translate(-4.63 -5.05)"/><path class="cls-8" d="M68.66,79.79a1.42,1.42,0,1,1,1.42,1.42h0a1.41,1.41,0,0,1-1.41-1.41Z" transform="translate(-4.63 -5.05)"/><line class="cls-9" x1="65.44" y1="74.74" x2="82.2" y2="74.74"/><line class="cls-10" x1="65.44" y1="74.74" x2="82.2" y2="74.74"/><path class="cls-11" d="M68.66,79.79a1.42,1.42,0,1,1,1.42,1.42h0a1.41,1.41,0,0,1-1.41-1.41Z" transform="translate(-4.63 -5.05)"/><path class="cls-8" d="M65.69,63.27a1.42,1.42,0,1,1,1.42,1.42A1.43,1.43,0,0,1,65.69,63.27Z" transform="translate(-4.63 -5.05)"/><polyline class="cls-9" points="62.48 58.22 75.38 58.22 75.38 8.59"/><polyline class="cls-10" points="62.48 58.22 75.38 58.22 75.38 8.59"/><path class="cls-11" d="M65.69,63.27a1.42,1.42,0,1,1,1.42,1.42A1.43,1.43,0,0,1,65.69,63.27Z" transform="translate(-4.63 -5.05)"/><path class="cls-8" d="M72.78,131.06a1.42,1.42,0,1,1,1.42,1.42h0A1.42,1.42,0,0,1,72.78,131.06Z" transform="translate(-4.63 -5.05)"/><polyline class="cls-9" points="69.56 126.01 80.07 126.01 80.07 170.23"/><polyline class="cls-10" points="69.56 126.01 80.07 126.01 80.07 170.23"/><path class="cls-11" d="M72.78,131.06a1.42,1.42,0,1,1,1.42,1.42h0A1.42,1.42,0,0,1,72.78,131.06Z" transform="translate(-4.63 -5.05)"/><path class="cls-8" d="M34,78.2a1.42,1.42,0,1,0-1.42,1.42h0A1.41,1.41,0,0,0,34,78.22Z" transform="translate(-4.63 -5.05)"/><polyline class="cls-9" points="27.95 73.15 19.01 73.15 19.01 107.15"/><polyline class="cls-10" points="27.95 73.15 19.01 73.15 19.01 107.15"/><path class="cls-11" d="M34,78.2a1.42,1.42,0,1,0-1.42,1.42h0A1.41,1.41,0,0,0,34,78.22Z" transform="translate(-4.63 -5.05)"/><path class="cls-8" d="M55.36,133.23a1.42,1.42,0,1,0-1.42,1.42h0A1.44,1.44,0,0,0,55.36,133.23Z" transform="translate(-4.63 -5.05)"/><line class="cls-9" x1="49.31" y1="128.18" x2="36.47" y2="128.18"/><line class="cls-10" x1="49.31" y1="128.18" x2="36.47" y2="128.18"/><path class="cls-11" d="M55.36,133.23a1.42,1.42,0,1,0-1.42,1.42h0A1.44,1.44,0,0,0,55.36,133.23Z" transform="translate(-4.63 -5.05)"/><path class="cls-8" d="M64.3,154.2a1.42,1.42,0,1,0-1.43,1.41h0A1.42,1.42,0,0,0,64.3,154.2Z" transform="translate(-4.63 -5.05)"/><line class="cls-9" x1="58.25" y1="149.15" x2="36.47" y2="149.15"/><line class="cls-10" x1="58.25" y1="149.15" x2="36.47" y2="149.15"/><path class="cls-11" d="M64.3,154.2a1.42,1.42,0,1,0-1.43,1.41h0A1.42,1.42,0,0,0,64.3,154.2Z" transform="translate(-4.63 -5.05)"/><path class="cls-8" d="M26.37,58.9A1.42,1.42,0,1,0,25,60.32H25A1.42,1.42,0,0,0,26.37,58.9Z" transform="translate(-4.63 -5.05)"/><polyline class="cls-9" points="20.32 53.85 8.57 53.85 8.57 8.59"/><polyline class="cls-10" points="20.32 53.85 8.57 53.85 8.57 8.59"/><path class="cls-11" d="M26.37,58.9A1.42,1.42,0,1,0,25,60.32H25A1.42,1.42,0,0,0,26.37,58.9Z" transform="translate(-4.63 -5.05)"/><path class="cls-8" d="M46.2,57.3a1.42,1.42,0,1,0-1.41-1.43v0A1.41,1.41,0,0,0,46.2,57.3Z" transform="translate(-4.63 -5.05)"/><line class="cls-9" x1="41.57" y1="50.84" x2="41.57" y2="26.19"/><line class="cls-10" x1="41.57" y1="50.84" x2="41.57" y2="26.19"/><path class="cls-11" d="M46.2,57.3a1.42,1.42,0,1,0-1.41-1.43v0A1.41,1.41,0,0,0,46.2,57.3Z" transform="translate(-4.63 -5.05)"/><rect class="cls-12" x="244.61" y="164.29" width="11.87" height="11.87" rx="2.83"/><polygon class="cls-13" points="246.88 171.93 246.25 174.32 254.85 174.32 254.22 171.93 246.88 171.93"/><polygon class="cls-13" points="247.55 166.1 246.25 171.03 254.85 171.03 253.55 166.1 247.55 166.1"/><rect class="cls-12" x="76.29" y="68.81" width="11.87" height="11.87" rx="2.83"/><polygon class="cls-13" points="78.56 76.44 77.93 78.84 86.52 78.84 85.89 76.44 78.56 76.44"/><polygon class="cls-13" points="79.22 70.62 77.93 75.54 86.52 75.54 85.22 70.62 79.22 70.62"/><rect class="cls-13" x="8.57" y="122.36" width="32.57" height="11.87" rx="2.83"/><polygon class="cls-11" points="23.42 126 21.97 126 22.11 125.31 23.57 125.31 23.42 126"/><polygon class="cls-11" points="23.04 127.78 20.64 127.78 20.79 127.09 23.19 127.09 23.04 127.78"/><polygon class="cls-11" points="22.67 129.56 19.32 129.56 19.47 128.87 22.82 128.87 22.67 129.56"/><polygon class="cls-11" points="22.29 131.33 18 131.33 18.14 130.64 22.44 130.64 22.29 131.33"/><path class="cls-14" d="M11.46,127.32a8.29,8.29,0,0,0-.83.31.26.26,0,0,1-.21,0l-1.39-1a.66.66,0,0,0-.74,0l-.91.76a.64.64,0,0,0-.15.73l.77,1.5a.22.22,0,0,1,0,.22,6,6,0,0,0-.44.78.28.28,0,0,1-.18.12l-1.74.1a.64.64,0,0,0-.55.49l-.2,1.17a.62.62,0,0,0,.35.65l1.58.68A.29.29,0,0,1,7,134a6.49,6.49,0,0,0,.16.88.23.23,0,0,1-.06.21l-1.26,1.19a.64.64,0,0,0-.11.74l.59,1a.63.63,0,0,0,.69.27l1.65-.49a.24.24,0,0,1,.23.06,6.13,6.13,0,0,0,.68.56.25.25,0,0,1,.09.2l-.2,1.73a.63.63,0,0,0,.39.63l1.11.4a.63.63,0,0,0,.7-.23l1-1.44a.23.23,0,0,1,.21-.1h.88a.26.26,0,0,1,.2.1l.95,1.45a.65.65,0,0,0,.71.23l1.11-.4a.64.64,0,0,0,.39-.63l-.2-1.71a.24.24,0,0,1,.09-.22,5.27,5.27,0,0,0,.68-.57.2.2,0,0,1,.21,0l1.66.49a.63.63,0,0,0,.69-.27l.59-1a.64.64,0,0,0-.11-.74l-1.25-1.18a.25.25,0,0,1-.06-.22,6.61,6.61,0,0,0,.15-.89.28.28,0,0,1,.12-.16l1.6-.69a.65.65,0,0,0,.35-.65l-.21-1.17a.64.64,0,0,0-.55-.49l-1.72-.1a.26.26,0,0,1-.19-.13,6.06,6.06,0,0,0-.45-.78.23.23,0,0,1,0-.2l.77-1.55a.64.64,0,0,0-.15-.73l-.9-.76a.63.63,0,0,0-.74,0l-1.38,1a.33.33,0,0,1-.24,0,6.34,6.34,0,0,0-.83-.3.28.28,0,0,1-.15-.15l-.4-1.69a.63.63,0,0,0-.58-.46H12.61a.63.63,0,0,0-.58.46l-.4,1.67A.26.26,0,0,1,11.46,127.32Z" transform="translate(-4.63 -5.05)"/><path class="cls-15" d="M13.2,128.28a5.07,5.07,0,1,0,5.07,5.07A5.07,5.07,0,0,0,13.2,128.28Z" transform="translate(-4.63 -5.05)"/><rect class="cls-13" x="123.82" y="127.61" width="32.57" height="11.87" rx="2.83"/><polygon class="cls-11" points="138.67 131.25 137.22 131.25 137.36 130.56 138.81 130.56 138.67 131.25"/><polygon class="cls-11" points="138.29 133.03 135.89 133.03 136.04 132.34 138.44 132.34 138.29 133.03"/><polygon class="cls-11" points="137.92 134.81 134.57 134.81 134.72 134.12 138.06 134.12 137.92 134.81"/><polygon class="cls-11" points="137.54 136.58 133.25 136.58 133.39 135.89 137.69 135.89 137.54 136.58"/><path class="cls-14" d="M126.71,132.57a8.29,8.29,0,0,0-.83.31.26.26,0,0,1-.21,0l-1.39-1a.66.66,0,0,0-.74,0l-.91.76a.64.64,0,0,0-.15.73l.77,1.54a.22.22,0,0,1,0,.22,6,6,0,0,0-.44.78.28.28,0,0,1-.18.12l-1.74.1a.64.64,0,0,0-.55.49l-.2,1.17a.62.62,0,0,0,.35.65l1.58.68a.29.29,0,0,1,.13.18,6.49,6.49,0,0,0,.16.88.23.23,0,0,1-.06.21l-1.3,1.15a.64.64,0,0,0-.11.74l.59,1a.63.63,0,0,0,.69.27l1.65-.49a.24.24,0,0,1,.23.06,6.13,6.13,0,0,0,.68.56.25.25,0,0,1,.09.2l-.2,1.73a.63.63,0,0,0,.39.63l1.11.4a.63.63,0,0,0,.7-.23l1-1.44a.23.23,0,0,1,.21-.1h.88a.26.26,0,0,1,.2.1l.95,1.45a.65.65,0,0,0,.71.23l1.11-.4a.64.64,0,0,0,.39-.63l-.2-1.71a.24.24,0,0,1,.09-.22,5.27,5.27,0,0,0,.68-.57.2.2,0,0,1,.21,0l1.66.49a.63.63,0,0,0,.69-.27l.59-1a.64.64,0,0,0-.11-.74l-1.25-1.18a.25.25,0,0,1-.06-.22,6.61,6.61,0,0,0,.15-.89.28.28,0,0,1,.12-.16l1.6-.69a.65.65,0,0,0,.35-.65l-.21-1.17a.64.64,0,0,0-.55-.49l-1.72-.1a.26.26,0,0,1-.19-.13,6.06,6.06,0,0,0-.45-.78.23.23,0,0,1,0-.2l.77-1.55a.64.64,0,0,0-.15-.73l-.9-.76a.63.63,0,0,0-.74,0l-1.38,1a.33.33,0,0,1-.24,0,6.34,6.34,0,0,0-.83-.3.28.28,0,0,1-.15-.15l-.4-1.69a.63.63,0,0,0-.58-.46h-1.18a.63.63,0,0,0-.58.46l-.4,1.67A.25.25,0,0,1,126.71,132.57Z" transform="translate(-4.63 -5.05)"/><path class="cls-15" d="M128.45,133.53a5.07,5.07,0,1,0,5.07,5.07A5.07,5.07,0,0,0,128.45,133.53Z" transform="translate(-4.63 -5.05)"/><rect class="cls-13" x="57.82" y="2.65" width="32.57" height="11.87" rx="2.83"/><polygon class="cls-11" points="72.67 6.28 71.22 6.28 71.36 5.6 72.81 5.6 72.67 6.28"/><polygon class="cls-11" points="72.29 8.06 69.89 8.06 70.04 7.37 72.44 7.37 72.29 8.06"/><polygon class="cls-11" points="71.92 9.84 68.57 9.84 68.72 9.15 72.06 9.15 71.92 9.84"/><polygon class="cls-11" points="71.54 11.61 67.25 11.61 67.39 10.93 71.69 10.93 71.54 11.61"/><path class="cls-14" d="M60.71,7.61a6.34,6.34,0,0,0-.83.3.2.2,0,0,1-.21,0l-1.39-1a.6.6,0,0,0-.74,0l-.91.75a.64.64,0,0,0-.15.73l.77,1.54a.22.22,0,0,1,0,.22,6,6,0,0,0-.44.78.23.23,0,0,1-.18.12l-1.74.11a.62.62,0,0,0-.55.49l-.2,1.16a.61.61,0,0,0,.35.65l1.58.69a.24.24,0,0,1,.13.18,6.64,6.64,0,0,0,.16.87.25.25,0,0,1-.06.22L55,16.58a.62.62,0,0,0-.11.73l.59,1a.65.65,0,0,0,.69.28l1.65-.49a.27.27,0,0,1,.23,0c.22.2.44.39.68.57a.25.25,0,0,1,.09.2l-.2,1.72a.63.63,0,0,0,.39.63l1.11.4a.62.62,0,0,0,.7-.23l1-1.44a.28.28,0,0,1,.21-.1h.88a.26.26,0,0,1,.2.1l1,1.45a.63.63,0,0,0,.71.23l1.11-.4a.63.63,0,0,0,.39-.63L66.05,19a.26.26,0,0,1,.09-.22,6.13,6.13,0,0,0,.68-.56.26.26,0,0,1,.21-.06l1.66.5a.63.63,0,0,0,.69-.28l.59-1a.62.62,0,0,0-.11-.73L68.61,15.4a.27.27,0,0,1-.06-.23,6.47,6.47,0,0,0,.15-.88.3.3,0,0,1,.12-.17l1.6-.69a.65.65,0,0,0,.35-.65l-.21-1.16a.64.64,0,0,0-.55-.5L68.29,11a.26.26,0,0,1-.19-.13,6,6,0,0,0-.45-.77.26.26,0,0,1,0-.21l.77-1.55a.64.64,0,0,0-.15-.73l-.9-.75a.63.63,0,0,0-.74,0l-1.38,1a.26.26,0,0,1-.24,0,6.34,6.34,0,0,0-.83-.3A.27.27,0,0,1,64,7.45l-.4-1.69A.63.63,0,0,0,63,5.3H61.86a.63.63,0,0,0-.58.46l-.4,1.68A.29.29,0,0,1,60.71,7.61Z" transform="translate(-4.63 -5.05)"/><path class="cls-15" d="M62.45,8.57a5.07,5.07,0,1,0,5.07,5.07A5.07,5.07,0,0,0,62.45,8.57Z" transform="translate(-4.63 -5.05)"/><rect class="cls-13" x="107.32" y="2.65" width="32.57" height="11.87" rx="2.83"/><polygon class="cls-11" points="122.17 6.28 120.72 6.28 120.86 5.6 122.31 5.6 122.17 6.28"/><polygon class="cls-11" points="121.79 8.06 119.39 8.06 119.54 7.37 121.94 7.37 121.79 8.06"/><polygon class="cls-11" points="121.42 9.84 118.07 9.84 118.22 9.15 121.56 9.15 121.42 9.84"/><polygon class="cls-11" points="121.04 11.61 116.75 11.61 116.89 10.93 121.19 10.93 121.04 11.61"/><path class="cls-14" d="M110.21,7.61a6.34,6.34,0,0,0-.83.3.2.2,0,0,1-.21,0l-1.39-1a.6.6,0,0,0-.74,0l-.91.75a.64.64,0,0,0-.15.73l.77,1.54a.22.22,0,0,1,0,.22,6,6,0,0,0-.44.78.23.23,0,0,1-.18.12l-1.74.11a.62.62,0,0,0-.55.49l-.2,1.16a.61.61,0,0,0,.35.65l1.58.69a.24.24,0,0,1,.13.18,6.64,6.64,0,0,0,.16.87.25.25,0,0,1-.06.22l-1.26,1.19a.62.62,0,0,0-.11.73l.59,1a.65.65,0,0,0,.69.28l1.65-.49a.27.27,0,0,1,.23.05c.22.2.44.39.68.57a.25.25,0,0,1,.09.2l-.2,1.72a.63.63,0,0,0,.39.63l1.11.4a.62.62,0,0,0,.7-.23l1-1.44a.28.28,0,0,1,.21-.1h.88a.26.26,0,0,1,.2.1l1,1.45a.63.63,0,0,0,.71.23l1.11-.4a.63.63,0,0,0,.39-.63l-.2-1.71a.26.26,0,0,1,.09-.22,6.13,6.13,0,0,0,.68-.56.26.26,0,0,1,.21-.06l1.66.5a.63.63,0,0,0,.69-.28l.59-1a.62.62,0,0,0-.11-.73l-1.25-1.18a.27.27,0,0,1-.06-.23,6.47,6.47,0,0,0,.15-.88.3.3,0,0,1,.12-.17l1.6-.69a.65.65,0,0,0,.35-.65l-.21-1.16a.64.64,0,0,0-.55-.5l-1.72-.1a.26.26,0,0,1-.19-.13,6,6,0,0,0-.45-.77.26.26,0,0,1,0-.21L118,8.4a.64.64,0,0,0-.15-.73l-.9-.75a.63.63,0,0,0-.74,0l-1.38,1a.25.25,0,0,1-.24,0,6.34,6.34,0,0,0-.83-.3.29.29,0,0,1-.15-.16l-.4-1.69a.63.63,0,0,0-.58-.46h-1.18a.63.63,0,0,0-.58.46l-.4,1.68A.29.29,0,0,1,110.21,7.61Z" transform="translate(-4.63 -5.05)"/><path class="cls-15" d="M112,8.57a5.07,5.07,0,1,0,5,5.14v-.07A5.08,5.08,0,0,0,112,8.57Z" transform="translate(-4.63 -5.05)"/><rect class="cls-13" x="163.32" y="2.65" width="32.57" height="11.87" rx="2.83"/><polygon class="cls-11" points="178.17 6.28 176.72 6.28 176.86 5.6 178.31 5.6 178.17 6.28"/><polygon class="cls-11" points="177.79 8.06 175.39 8.06 175.54 7.37 177.94 7.37 177.79 8.06"/><polygon class="cls-11" points="177.42 9.84 174.07 9.84 174.22 9.15 177.56 9.15 177.42 9.84"/><polygon class="cls-11" points="177.04 11.61 172.75 11.61 172.89 10.93 177.19 10.93 177.04 11.61"/><path class="cls-14" d="M166.21,7.61a6.34,6.34,0,0,0-.83.3.2.2,0,0,1-.21,0l-1.39-1a.6.6,0,0,0-.74,0l-.91.75a.64.64,0,0,0-.15.73l.77,1.54a.22.22,0,0,1,0,.22,6,6,0,0,0-.44.78.23.23,0,0,1-.18.12l-1.74.11a.62.62,0,0,0-.55.49l-.2,1.16a.61.61,0,0,0,.35.65l1.58.69a.24.24,0,0,1,.13.18,6.64,6.64,0,0,0,.16.87.25.25,0,0,1-.06.22l-1.26,1.19a.62.62,0,0,0-.11.73l.59,1a.65.65,0,0,0,.69.28l1.65-.49a.27.27,0,0,1,.23.05c.22.2.44.39.68.57a.25.25,0,0,1,.09.2l-.2,1.72a.63.63,0,0,0,.39.63l1.11.4a.62.62,0,0,0,.7-.23l1-1.44a.28.28,0,0,1,.21-.1h.88a.26.26,0,0,1,.2.1l.95,1.45a.63.63,0,0,0,.71.23l1.11-.4a.63.63,0,0,0,.39-.63l-.2-1.71a.26.26,0,0,1,.09-.22,6.13,6.13,0,0,0,.68-.56.26.26,0,0,1,.21-.06l1.66.5a.63.63,0,0,0,.69-.28l.59-1a.62.62,0,0,0-.11-.73l-1.25-1.18a.27.27,0,0,1-.06-.23,6.47,6.47,0,0,0,.15-.88.3.3,0,0,1,.12-.17l1.6-.69a.65.65,0,0,0,.35-.65l-.21-1.16a.63.63,0,0,0-.55-.5l-1.72-.1a.26.26,0,0,1-.19-.13,6,6,0,0,0-.45-.77.26.26,0,0,1,0-.21L174,8.4a.64.64,0,0,0-.15-.73l-.9-.75a.63.63,0,0,0-.74,0l-1.38,1a.25.25,0,0,1-.24,0,6.34,6.34,0,0,0-.83-.3.29.29,0,0,1-.15-.16l-.4-1.69a.63.63,0,0,0-.58-.46h-1.18a.63.63,0,0,0-.58.46l-.4,1.68A.31.31,0,0,1,166.21,7.61Z" transform="translate(-4.63 -5.05)"/><path class="cls-15" d="M168,8.57a5.07,5.07,0,1,0,5,5.14v-.07A5.08,5.08,0,0,0,168,8.57Z" transform="translate(-4.63 -5.05)"/><rect class="cls-13" x="23.28" y="20.25" width="32.57" height="11.87" rx="2.83"/><polygon class="cls-11" points="38.13 23.89 36.68 23.89 36.82 23.2 38.28 23.2 38.13 23.89"/><polygon class="cls-11" points="37.76 25.67 35.36 25.67 35.5 24.98 37.9 24.98 37.76 25.67"/><polygon class="cls-11" points="37.38 27.44 34.03 27.44 34.18 26.76 37.53 26.76 37.38 27.44"/><polygon class="cls-11" points="37.01 29.22 32.71 29.22 32.86 28.53 37.15 28.53 37.01 29.22"/><path class="cls-14" d="M26.18,25.21a8.29,8.29,0,0,0-.83.31.41.41,0,0,1-.22,0l-1.39-1a.66.66,0,0,0-.74,0l-.91.76a.65.65,0,0,0-.15.73l.77,1.54a.22.22,0,0,1,0,.22,8.46,8.46,0,0,0-.44.77.24.24,0,0,1-.18.13l-1.73.1a.66.66,0,0,0-.56.49l-.2,1.17a.62.62,0,0,0,.35.65l1.58.68a.28.28,0,0,1,.14.18,6.47,6.47,0,0,0,.15.88.26.26,0,0,1,0,.21L20.5,34.18a.64.64,0,0,0-.11.74l.59,1a.63.63,0,0,0,.69.27l1.65-.49a.23.23,0,0,1,.22.06,7.22,7.22,0,0,0,.68.56.25.25,0,0,1,.09.2l-.2,1.73a.64.64,0,0,0,.39.63l1.11.4a.65.65,0,0,0,.71-.23l.94-1.44a.23.23,0,0,1,.21-.1h.88a.26.26,0,0,1,.2.1l1,1.45a.63.63,0,0,0,.7.23l1.11-.4a.64.64,0,0,0,.39-.63l-.2-1.71a.31.31,0,0,1,.09-.22,5.27,5.27,0,0,0,.68-.57.23.23,0,0,1,.21,0l1.66.49a.63.63,0,0,0,.69-.27l.59-1a.64.64,0,0,0-.1-.74L34.08,33a.23.23,0,0,1-.07-.22,8.72,8.72,0,0,0,.16-.89.22.22,0,0,1,.12-.16L35.88,31a.62.62,0,0,0,.35-.65L36,29.22a.66.66,0,0,0-.56-.49l-1.71-.1a.28.28,0,0,1-.2-.13,6.06,6.06,0,0,0-.45-.78.23.23,0,0,1,0-.2l.8-1.52a.65.65,0,0,0-.15-.73l-.91-.76a.63.63,0,0,0-.74,0l-1.38,1a.31.31,0,0,1-.23,0,6,6,0,0,0-.84-.3.28.28,0,0,1-.15-.15l-.4-1.69a.63.63,0,0,0-.58-.46H27.32a.63.63,0,0,0-.58.46L26.34,25A.25.25,0,0,1,26.18,25.21Z" transform="translate(-4.63 -5.05)"/><path class="cls-15" d="M27.91,26.17A5.07,5.07,0,1,0,33,31.24a5.07,5.07,0,0,0-5.09-5.07Z" transform="translate(-4.63 -5.05)"/><rect class="cls-13" x="87.28" y="23.61" width="32.57" height="11.87" rx="2.83"/><polygon class="cls-11" points="102.13 27.25 100.68 27.25 100.82 26.56 102.28 26.56 102.13 27.25"/><polygon class="cls-11" points="101.76 29.03 99.36 29.03 99.5 28.34 101.9 28.34 101.76 29.03"/><polygon class="cls-11" points="101.38 30.8 98.03 30.8 98.18 30.11 101.53 30.11 101.38 30.8"/><polygon class="cls-11" points="101.01 32.58 96.71 32.58 96.86 31.89 101.15 31.89 101.01 32.58"/><path class="cls-14" d="M90.18,28.57a6.34,6.34,0,0,0-.83.3.28.28,0,0,1-.22,0l-1.39-1a.63.63,0,0,0-.74,0l-.91.76a.65.65,0,0,0-.15.73l.77,1.53a.24.24,0,0,1,0,.23,7.3,7.3,0,0,0-.44.77.27.27,0,0,1-.18.13l-1.73.1a.66.66,0,0,0-.56.49l-.2,1.16a.63.63,0,0,0,.35.66l1.58.68a.28.28,0,0,1,.14.18,6.47,6.47,0,0,0,.15.88.26.26,0,0,1,0,.21L84.5,37.54a.62.62,0,0,0-.11.73l.59,1a.63.63,0,0,0,.69.27l1.65-.49a.23.23,0,0,1,.22.06,7.22,7.22,0,0,0,.68.56.25.25,0,0,1,.09.2l-.2,1.72a.63.63,0,0,0,.39.63l1.11.41a.65.65,0,0,0,.71-.24L91.26,41a.26.26,0,0,1,.21-.11h.88a.25.25,0,0,1,.2.09l1,1.45a.64.64,0,0,0,.7.24l1.11-.41a.63.63,0,0,0,.39-.63l-.2-1.71a.31.31,0,0,1,.09-.22,6.13,6.13,0,0,0,.68-.56.26.26,0,0,1,.21-.06l1.66.5a.63.63,0,0,0,.69-.27l.59-1a.62.62,0,0,0-.1-.73L98.12,36.4a.25.25,0,0,1-.07-.23,8.52,8.52,0,0,0,.16-.88.2.2,0,0,1,.12-.16l1.59-.69a.63.63,0,0,0,.35-.66l-.2-1.16a.63.63,0,0,0-.56-.49L97.76,32a.28.28,0,0,1-.2-.13,6.06,6.06,0,0,0-.45-.78.23.23,0,0,1,0-.2l.78-1.56a.63.63,0,0,0-.15-.72l-.91-.76a.63.63,0,0,0-.74,0l-1.38,1a.24.24,0,0,1-.23,0,6,6,0,0,0-.84-.3.26.26,0,0,1-.15-.16l-.4-1.68a.63.63,0,0,0-.58-.46H91.32a.63.63,0,0,0-.58.46l-.4,1.67A.26.26,0,0,1,90.18,28.57Z" transform="translate(-4.63 -5.05)"/><path class="cls-15" d="M91.91,29.53A5.07,5.07,0,1,0,97,34.6a5.07,5.07,0,0,0-5.09-5.07Z" transform="translate(-4.63 -5.05)"/><rect class="cls-13" x="142.84" y="23.61" width="32.57" height="11.87" rx="2.83"/><polygon class="cls-11" points="157.69 27.25 156.24 27.25 156.39 26.56 157.84 26.56 157.69 27.25"/><polygon class="cls-11" points="157.32 29.03 154.92 29.03 155.07 28.34 157.47 28.34 157.32 29.03"/><polygon class="cls-11" points="156.94 30.8 153.6 30.8 153.74 30.11 157.09 30.11 156.94 30.8"/><polygon class="cls-11" points="156.57 32.58 152.28 32.58 152.42 31.89 156.71 31.89 156.57 32.58"/><path class="cls-14" d="M145.74,28.57a6.34,6.34,0,0,0-.83.3.2.2,0,0,1-.21,0l-1.4-1a.63.63,0,0,0-.74,0l-.9.76a.64.64,0,0,0-.15.73l.77,1.53a.31.31,0,0,1,0,.23,5.35,5.35,0,0,0-.45.77.24.24,0,0,1-.18.13l-1.73.1a.64.64,0,0,0-.55.49l-.21,1.16a.67.67,0,0,0,.35.66l1.58.68a.28.28,0,0,1,.14.18,6.49,6.49,0,0,0,.16.88.26.26,0,0,1-.06.21l-1.26,1.19a.62.62,0,0,0-.11.73l.59,1a.63.63,0,0,0,.69.27l1.65-.49a.24.24,0,0,1,.23.06,7.1,7.1,0,0,0,.67.56.22.22,0,0,1,.09.2l-.19,1.72a.63.63,0,0,0,.39.63l1.1.41a.65.65,0,0,0,.71-.24l.94-1.43a.27.27,0,0,1,.22-.11h.88a.29.29,0,0,1,.2.09l1,1.45a.64.64,0,0,0,.7.24l1.11-.41a.62.62,0,0,0,.39-.63l-.19-1.71a.24.24,0,0,1,.09-.22,6,6,0,0,0,.67-.56.26.26,0,0,1,.21-.06l1.67.5a.63.63,0,0,0,.69-.27l.59-1a.62.62,0,0,0-.11-.73l-1.25-1.18a.28.28,0,0,1-.07-.23,6.49,6.49,0,0,0,.16-.88.25.25,0,0,1,.12-.16l1.59-.69a.65.65,0,0,0,.36-.66l-.21-1.16a.61.61,0,0,0-.55-.49l-1.72-.1a.28.28,0,0,1-.2-.13,7.44,7.44,0,0,0-.44-.78.23.23,0,0,1,0-.2l.78-1.56a.6.6,0,0,0-.15-.72l-.9-.76a.63.63,0,0,0-.74,0l-1.39,1a.24.24,0,0,1-.23,0,6.34,6.34,0,0,0-.83-.3.26.26,0,0,1-.15-.16l-.41-1.68a.63.63,0,0,0-.58-.46h-1.18a.63.63,0,0,0-.58.46l-.4,1.67A.25.25,0,0,1,145.74,28.57Z" transform="translate(-4.63 -5.05)"/><path class="cls-15" d="M147.47,29.53a5.07,5.07,0,1,0,5.07,5.07,5.07,5.07,0,0,0-5.07-5.07Z" transform="translate(-4.63 -5.05)"/><rect class="cls-13" x="204.34" y="23.61" width="32.57" height="11.87" rx="2.83"/><polygon class="cls-11" points="219.19 27.25 217.74 27.25 217.89 26.56 219.34 26.56 219.19 27.25"/><polygon class="cls-11" points="218.82 29.03 216.42 29.03 216.57 28.34 218.97 28.34 218.82 29.03"/><polygon class="cls-11" points="218.44 30.8 215.1 30.8 215.24 30.11 218.59 30.11 218.44 30.8"/><polygon class="cls-11" points="218.07 32.58 213.78 32.58 213.92 31.89 218.21 31.89 218.07 32.58"/><path class="cls-14" d="M207.24,28.57a6.34,6.34,0,0,0-.83.3.2.2,0,0,1-.21,0l-1.4-1a.63.63,0,0,0-.74,0l-.9.76a.64.64,0,0,0-.15.73l.77,1.53a.31.31,0,0,1,0,.23,5.35,5.35,0,0,0-.45.77.24.24,0,0,1-.18.13l-1.73.1a.64.64,0,0,0-.55.49l-.21,1.16a.67.67,0,0,0,.35.66l1.58.68a.28.28,0,0,1,.14.18,6.49,6.49,0,0,0,.16.88.26.26,0,0,1-.06.21l-1.26,1.19a.62.62,0,0,0-.11.73l.59,1a.63.63,0,0,0,.69.27l1.65-.49a.24.24,0,0,1,.23.06,7.1,7.1,0,0,0,.67.56.22.22,0,0,1,.09.2l-.19,1.72a.63.63,0,0,0,.39.63l1.1.41a.65.65,0,0,0,.71-.24l.94-1.43a.27.27,0,0,1,.22-.11h.88a.29.29,0,0,1,.2.09l1,1.45a.64.64,0,0,0,.7.24l1.11-.41a.62.62,0,0,0,.39-.63l-.19-1.71a.24.24,0,0,1,.09-.22,6,6,0,0,0,.67-.56.26.26,0,0,1,.21-.06l1.67.5a.63.63,0,0,0,.69-.27l.59-1a.62.62,0,0,0-.11-.73l-1.25-1.18a.28.28,0,0,1-.07-.23,6.49,6.49,0,0,0,.16-.88.25.25,0,0,1,.12-.16l1.59-.69a.65.65,0,0,0,.36-.66l-.21-1.16a.61.61,0,0,0-.55-.49l-1.72-.1a.28.28,0,0,1-.2-.13,7.44,7.44,0,0,0-.44-.78.23.23,0,0,1,0-.2l.78-1.56a.6.6,0,0,0-.15-.72l-.9-.76a.63.63,0,0,0-.74,0l-1.39,1a.24.24,0,0,1-.23,0,6.34,6.34,0,0,0-.83-.3.26.26,0,0,1-.15-.16l-.41-1.68a.63.63,0,0,0-.58-.46h-1.18a.63.63,0,0,0-.58.46l-.4,1.67A.25.25,0,0,1,207.24,28.57Z" transform="translate(-4.63 -5.05)"/><path class="cls-15" d="M209,29.53a5.07,5.07,0,1,0,5,5.14V34.6A5.08,5.08,0,0,0,209,29.53Z" transform="translate(-4.63 -5.05)"/><rect class="cls-13" x="235.09" y="59.29" width="32.57" height="11.87" rx="2.83"/><polygon class="cls-11" points="249.94 62.92 248.49 62.92 248.64 62.24 250.09 62.24 249.94 62.92"/><polygon class="cls-11" points="249.57 64.7 247.17 64.7 247.32 64.01 249.72 64.01 249.57 64.7"/><polygon class="cls-11" points="249.19 66.48 245.85 66.48 245.99 65.79 249.34 65.79 249.19 66.48"/><polygon class="cls-11" points="248.82 68.26 244.53 68.26 244.67 67.57 248.96 67.57 248.82 68.26"/><path class="cls-14" d="M238,64.25a6.34,6.34,0,0,0-.83.3.2.2,0,0,1-.21,0l-1.4-1a.63.63,0,0,0-.74,0l-.9.75a.64.64,0,0,0-.15.73l.77,1.54a.28.28,0,0,1,0,.22,6.06,6.06,0,0,0-.45.78.22.22,0,0,1-.18.12l-1.73.11a.61.61,0,0,0-.55.49l-.21,1.16a.65.65,0,0,0,.35.65l1.58.69a.28.28,0,0,1,.14.18,6.64,6.64,0,0,0,.16.87.29.29,0,0,1-.06.22l-1.26,1.19a.62.62,0,0,0-.11.73l.59,1a.63.63,0,0,0,.69.28l1.65-.5a.32.32,0,0,1,.23.06,7.1,7.1,0,0,0,.67.56.24.24,0,0,1,.09.21L236,77.31a.63.63,0,0,0,.39.63l1.1.4a.63.63,0,0,0,.71-.23l.94-1.44a.32.32,0,0,1,.22-.1h.88a.26.26,0,0,1,.2.1l1,1.45a.62.62,0,0,0,.7.23l1.11-.4a.63.63,0,0,0,.39-.63l-.19-1.71a.24.24,0,0,1,.09-.22,6,6,0,0,0,.67-.56.26.26,0,0,1,.21-.06l1.67.5a.63.63,0,0,0,.69-.28l.59-1a.62.62,0,0,0-.11-.73L245.89,72a.28.28,0,0,1-.07-.23,6.49,6.49,0,0,0,.16-.88.3.3,0,0,1,.12-.17l1.59-.69a.64.64,0,0,0,.36-.65l-.21-1.16a.64.64,0,0,0-.55-.5l-1.72-.1a.28.28,0,0,1-.2-.13,7.3,7.3,0,0,0-.44-.77.26.26,0,0,1,0-.21l.78-1.55a.64.64,0,0,0-.15-.73l-.9-.75a.63.63,0,0,0-.74,0l-1.39,1a.24.24,0,0,1-.23,0,8.29,8.29,0,0,0-.83-.31.23.23,0,0,1-.15-.15l-.41-1.69a.63.63,0,0,0-.58-.46h-1.18a.63.63,0,0,0-.58.46l-.4,1.68A.25.25,0,0,1,238,64.25Z" transform="translate(-4.63 -5.05)"/><path class="cls-15" d="M239.72,65.2a5.08,5.08,0,1,0,5.07,5.09h0A5.09,5.09,0,0,0,239.72,65.2Z" transform="translate(-4.63 -5.05)"/><path class="cls-13" d="M272,84h26.9a2.83,2.83,0,0,1,2.83,2.83V93a2.84,2.84,0,0,1-2.84,2.84H272A2.83,2.83,0,0,1,269.16,93v-6.2A2.83,2.83,0,0,1,272,84Z" transform="translate(-4.63 -5.05)"/><polygon class="cls-11" points="279.38 82.57 277.93 82.57 278.07 81.88 279.53 81.88 279.38 82.57"/><polygon class="cls-11" points="279.01 84.34 276.61 84.34 276.75 83.66 279.15 83.66 279.01 84.34"/><polygon class="cls-11" points="278.63 86.12 275.28 86.12 275.43 85.43 278.78 85.43 278.63 86.12"/><polygon class="cls-11" points="278.26 87.9 273.96 87.9 274.11 87.21 278.4 87.21 278.26 87.9"/><path class="cls-14" d="M267.43,83.89a6.34,6.34,0,0,0-.83.3.28.28,0,0,1-.22,0l-1.39-1a.63.63,0,0,0-.74,0l-.91.76a.65.65,0,0,0-.15.73l.77,1.53a.24.24,0,0,1,0,.23,7.3,7.3,0,0,0-.44.77.27.27,0,0,1-.18.13l-1.73.1a.66.66,0,0,0-.56.49l-.2,1.16a.63.63,0,0,0,.35.66l1.58.68a.28.28,0,0,1,.14.18,6.47,6.47,0,0,0,.15.88.23.23,0,0,1-.05.21l-1.26,1.19a.62.62,0,0,0-.11.73l.59,1a.63.63,0,0,0,.69.27l1.65-.49a.28.28,0,0,1,.22,0,5.27,5.27,0,0,0,.68.57.25.25,0,0,1,.09.2l-.2,1.72a.63.63,0,0,0,.39.63l1.11.41a.65.65,0,0,0,.71-.24l.94-1.43a.26.26,0,0,1,.21-.11h.88a.25.25,0,0,1,.2.09l1,1.45a.64.64,0,0,0,.7.24l1.11-.41a.63.63,0,0,0,.39-.63l-.2-1.71a.31.31,0,0,1,.09-.22,6.13,6.13,0,0,0,.68-.56.26.26,0,0,1,.21-.06l1.66.5a.63.63,0,0,0,.69-.27l.59-1a.62.62,0,0,0-.1-.73l-1.25-1.18a.25.25,0,0,1-.07-.23,8.52,8.52,0,0,0,.16-.88.2.2,0,0,1,.12-.16l1.59-.69a.63.63,0,0,0,.35-.66l-.2-1.16a.63.63,0,0,0-.56-.49l-1.71-.1a.28.28,0,0,1-.2-.13,6.06,6.06,0,0,0-.45-.78.23.23,0,0,1,0-.2l.78-1.56a.63.63,0,0,0-.15-.72l-.91-.76a.63.63,0,0,0-.74,0l-1.38,1a.24.24,0,0,1-.23,0,6,6,0,0,0-.84-.3.26.26,0,0,1-.15-.16l-.4-1.68a.63.63,0,0,0-.58-.46h-1.18a.63.63,0,0,0-.58.46l-.4,1.67A.28.28,0,0,1,267.43,83.89Z" transform="translate(-4.63 -5.05)"/><path class="cls-15" d="M269.16,84.85a5.07,5.07,0,1,0,5.07,5.07,5.07,5.07,0,0,0-5.07-5.07Z" transform="translate(-4.63 -5.05)"/><rect class="cls-13" x="80.07" y="164.29" width="32.57" height="11.88" rx="2.83"/><polygon class="cls-11" points="94.92 167.93 93.47 167.93 93.61 167.24 95.06 167.24 94.92 167.93"/><polygon class="cls-11" points="94.54 169.7 92.14 169.7 92.29 169.02 94.69 169.02 94.54 169.7"/><polygon class="cls-11" points="94.17 171.48 90.82 171.48 90.97 170.79 94.31 170.79 94.17 171.48"/><polygon class="cls-11" points="93.79 173.26 89.5 173.26 89.64 172.57 93.94 172.57 93.79 173.26"/><path class="cls-14" d="M83,169.25a6.34,6.34,0,0,0-.83.3.2.2,0,0,1-.21,0l-1.39-1a.6.6,0,0,0-.74,0l-.91.76a.64.64,0,0,0-.15.73l.77,1.53a.24.24,0,0,1,0,.23,4.51,4.51,0,0,0-.44.77.29.29,0,0,1-.18.13l-1.74.1a.64.64,0,0,0-.55.49l-.2,1.16a.63.63,0,0,0,.35.66l1.58.68a.27.27,0,0,1,.13.18,6.49,6.49,0,0,0,.16.88.26.26,0,0,1-.06.21l-1.26,1.19a.62.62,0,0,0-.11.73l.59,1a.63.63,0,0,0,.69.27l1.65-.49a.24.24,0,0,1,.23.06,6.13,6.13,0,0,0,.68.56.25.25,0,0,1,.09.2L81,182.3a.63.63,0,0,0,.39.63l1.11.41a.64.64,0,0,0,.7-.24l1-1.43a.26.26,0,0,1,.21-.11h.88a.26.26,0,0,1,.2.1l1,1.44a.65.65,0,0,0,.71.24l1.11-.41a.63.63,0,0,0,.39-.63l-.2-1.71a.26.26,0,0,1,.09-.22,6.13,6.13,0,0,0,.68-.56.26.26,0,0,1,.21-.06l1.66.5a.63.63,0,0,0,.69-.27l.59-1a.62.62,0,0,0-.11-.73L90.86,177a.27.27,0,0,1-.06-.23,6.47,6.47,0,0,0,.15-.88.25.25,0,0,1,.12-.16l1.6-.69a.67.67,0,0,0,.35-.66l-.21-1.16a.61.61,0,0,0-.55-.49l-1.72-.1a.26.26,0,0,1-.19-.13,6.06,6.06,0,0,0-.45-.78.23.23,0,0,1,0-.2l.77-1.56a.6.6,0,0,0-.15-.72l-.9-.76a.63.63,0,0,0-.74,0l-1.38,1a.25.25,0,0,1-.24,0,6.34,6.34,0,0,0-.83-.3.26.26,0,0,1-.15-.16l-.4-1.68a.63.63,0,0,0-.58-.46H84.11a.62.62,0,0,0-.58.46l-.4,1.67A.28.28,0,0,1,83,169.25Z" transform="translate(-4.63 -5.05)"/><path class="cls-15" d="M84.7,170.21a5.07,5.07,0,1,0,5.07,5.07A5.07,5.07,0,0,0,84.7,170.21Z" transform="translate(-4.63 -5.05)"/><rect class="cls-13" x="147.32" y="164.29" width="32.57" height="11.88" rx="2.83"/><polygon class="cls-11" points="162.17 167.93 160.72 167.93 160.86 167.24 162.31 167.24 162.17 167.93"/><polygon class="cls-11" points="161.79 169.7 159.39 169.7 159.54 169.02 161.94 169.02 161.79 169.7"/><polygon class="cls-11" points="161.42 171.48 158.07 171.48 158.22 170.79 161.56 170.79 161.42 171.48"/><polygon class="cls-11" points="161.04 173.26 156.75 173.26 156.89 172.57 161.19 172.57 161.04 173.26"/><path class="cls-14" d="M150.21,169.25a6.34,6.34,0,0,0-.83.3.2.2,0,0,1-.21,0l-1.39-1a.6.6,0,0,0-.74,0l-.91.76a.64.64,0,0,0-.15.73l.77,1.53a.24.24,0,0,1,0,.23,4.51,4.51,0,0,0-.44.77.29.29,0,0,1-.18.13l-1.74.1a.64.64,0,0,0-.55.49l-.2,1.16a.63.63,0,0,0,.35.66l1.58.68a.27.27,0,0,1,.13.18,6.49,6.49,0,0,0,.16.88.26.26,0,0,1-.06.21l-1.26,1.19a.62.62,0,0,0-.11.73l.59,1a.63.63,0,0,0,.69.27l1.65-.49a.24.24,0,0,1,.23.06,6.13,6.13,0,0,0,.68.56.25.25,0,0,1,.09.2l-.2,1.72a.63.63,0,0,0,.39.63l1.11.41a.64.64,0,0,0,.7-.24l1-1.43a.26.26,0,0,1,.21-.11h.88a.26.26,0,0,1,.2.1l.95,1.44a.65.65,0,0,0,.71.24l1.11-.41a.63.63,0,0,0,.39-.63l-.2-1.71a.26.26,0,0,1,.09-.22,6.13,6.13,0,0,0,.68-.56.26.26,0,0,1,.21-.06l1.66.5a.63.63,0,0,0,.69-.27l.59-1a.62.62,0,0,0-.11-.73L158.11,177a.27.27,0,0,1-.06-.23,6.47,6.47,0,0,0,.15-.88.25.25,0,0,1,.12-.16l1.6-.69a.67.67,0,0,0,.35-.66l-.21-1.16a.61.61,0,0,0-.55-.49l-1.72-.1a.26.26,0,0,1-.19-.13,6.06,6.06,0,0,0-.45-.78.23.23,0,0,1,0-.2l.77-1.56a.6.6,0,0,0-.15-.72l-.9-.76a.63.63,0,0,0-.74,0l-1.38,1a.26.26,0,0,1-.24,0,6.34,6.34,0,0,0-.83-.3.26.26,0,0,1-.15-.16l-.4-1.68a.63.63,0,0,0-.58-.46h-1.18a.62.62,0,0,0-.58.46l-.4,1.67A.28.28,0,0,1,150.21,169.25Z" transform="translate(-4.63 -5.05)"/><path class="cls-15" d="M152,170.21a5.07,5.07,0,1,0,5.07,5.07A5.07,5.07,0,0,0,152,170.21Z" transform="translate(-4.63 -5.05)"/><rect class="cls-13" x="201.57" y="164.29" width="32.57" height="11.88" rx="2.83"/><polygon class="cls-11" points="216.42 167.93 214.97 167.93 215.11 167.24 216.56 167.24 216.42 167.93"/><polygon class="cls-11" points="216.04 169.7 213.64 169.7 213.79 169.02 216.19 169.02 216.04 169.7"/><polygon class="cls-11" points="215.67 171.48 212.32 171.48 212.47 170.79 215.81 170.79 215.67 171.48"/><polygon class="cls-11" points="215.29 173.26 211 173.26 211.14 172.57 215.44 172.57 215.29 173.26"/><path class="cls-14" d="M204.46,169.25a6.34,6.34,0,0,0-.83.3.2.2,0,0,1-.21,0l-1.39-1a.6.6,0,0,0-.74,0l-.91.76a.64.64,0,0,0-.15.73l.77,1.53a.24.24,0,0,1,0,.23,4.51,4.51,0,0,0-.44.77.29.29,0,0,1-.18.13l-1.74.1a.64.64,0,0,0-.55.49l-.2,1.16a.63.63,0,0,0,.35.66l1.58.68a.27.27,0,0,1,.13.18,6.49,6.49,0,0,0,.16.88.26.26,0,0,1-.06.21l-1.26,1.19a.62.62,0,0,0-.11.73l.59,1a.63.63,0,0,0,.69.27l1.65-.49a.24.24,0,0,1,.23.06,6.13,6.13,0,0,0,.68.56.25.25,0,0,1,.09.2l-.2,1.72a.63.63,0,0,0,.39.63l1.11.41a.64.64,0,0,0,.7-.24l1-1.43a.26.26,0,0,1,.21-.11h.88a.26.26,0,0,1,.2.1l.95,1.44a.65.65,0,0,0,.71.24l1.11-.41a.63.63,0,0,0,.39-.63l-.2-1.71a.26.26,0,0,1,.09-.22,6.13,6.13,0,0,0,.68-.56.26.26,0,0,1,.21-.06l1.66.5a.63.63,0,0,0,.69-.27l.59-1a.62.62,0,0,0-.11-.73L212.36,177a.27.27,0,0,1-.06-.23,6.47,6.47,0,0,0,.15-.88.25.25,0,0,1,.12-.16l1.6-.69a.67.67,0,0,0,.35-.66l-.21-1.16a.61.61,0,0,0-.55-.49l-1.72-.1a.26.26,0,0,1-.19-.13,6.06,6.06,0,0,0-.45-.78.23.23,0,0,1,0-.2l.77-1.56a.6.6,0,0,0-.15-.72l-.9-.76a.63.63,0,0,0-.74,0l-1.38,1a.26.26,0,0,1-.24,0,6.34,6.34,0,0,0-.83-.3.26.26,0,0,1-.15-.16l-.4-1.68a.63.63,0,0,0-.58-.46h-1.18a.62.62,0,0,0-.58.46l-.4,1.67A.28.28,0,0,1,204.46,169.25Z" transform="translate(-4.63 -5.05)"/><path class="cls-15" d="M206.2,170.21a5.07,5.07,0,1,0,5.07,5.07A5.07,5.07,0,0,0,206.2,170.21Z" transform="translate(-4.63 -5.05)"/><rect class="cls-13" x="212.32" y="143.33" width="32.57" height="11.87" rx="2.83"/><polygon class="cls-11" points="227.17 146.96 225.72 146.96 225.86 146.28 227.31 146.28 227.17 146.96"/><polygon class="cls-11" points="226.79 148.74 224.39 148.74 224.54 148.05 226.94 148.05 226.79 148.74"/><polygon class="cls-11" points="226.42 150.52 223.07 150.52 223.22 149.83 226.56 149.83 226.42 150.52"/><polygon class="cls-11" points="226.04 152.3 221.75 152.3 221.89 151.61 226.19 151.61 226.04 152.3"/><path class="cls-14" d="M215.21,148.29a6.34,6.34,0,0,0-.83.3.2.2,0,0,1-.21,0l-1.39-1a.6.6,0,0,0-.74,0l-.91.75a.64.64,0,0,0-.15.73l.77,1.54a.22.22,0,0,1,0,.22,6,6,0,0,0-.44.78.23.23,0,0,1-.18.12l-1.74.11a.62.62,0,0,0-.55.49l-.2,1.16a.61.61,0,0,0,.35.65l1.58.69a.24.24,0,0,1,.13.18,6.64,6.64,0,0,0,.16.87.25.25,0,0,1-.06.22l-1.26,1.19a.62.62,0,0,0-.11.73l.59,1a.65.65,0,0,0,.69.28l1.65-.49a.31.31,0,0,1,.23,0c.22.2.44.39.68.57a.25.25,0,0,1,.09.2l-.2,1.72a.63.63,0,0,0,.39.63l1.11.4a.62.62,0,0,0,.7-.23l1-1.44a.28.28,0,0,1,.21-.1h.88a.25.25,0,0,1,.2.09l.95,1.45a.63.63,0,0,0,.71.23l1.11-.4a.63.63,0,0,0,.39-.63l-.2-1.71a.26.26,0,0,1,.09-.22,6.13,6.13,0,0,0,.68-.56.26.26,0,0,1,.21-.06l1.66.5a.63.63,0,0,0,.69-.28l.59-1a.62.62,0,0,0-.11-.73l-1.25-1.18a.27.27,0,0,1-.06-.23,6.47,6.47,0,0,0,.15-.88.3.3,0,0,1,.12-.17l1.6-.69a.65.65,0,0,0,.35-.65l-.21-1.16a.61.61,0,0,0-.55-.49l-1.72-.11a.26.26,0,0,1-.19-.13,6,6,0,0,0-.45-.77.26.26,0,0,1,0-.21L223,149a.64.64,0,0,0-.15-.73l-.9-.75a.63.63,0,0,0-.74,0l-1.38,1a.25.25,0,0,1-.24,0,6.34,6.34,0,0,0-.83-.3.29.29,0,0,1-.15-.16l-.4-1.69a.63.63,0,0,0-.58-.46h-1.18a.63.63,0,0,0-.58.46l-.4,1.68A.29.29,0,0,1,215.21,148.29Z" transform="translate(-4.63 -5.05)"/><path class="cls-15" d="M217,149.25a5.07,5.07,0,1,0,5.07,5.07A5.07,5.07,0,0,0,217,149.25Z" transform="translate(-4.63 -5.05)"/><path class="cls-13" d="M272,148.38h26.9a2.83,2.83,0,0,1,2.83,2.83v6.21a2.84,2.84,0,0,1-2.84,2.84H272a2.83,2.83,0,0,1-2.83-2.83v-6.21a2.83,2.83,0,0,1,2.82-2.84Z" transform="translate(-4.63 -5.05)"/><polygon class="cls-11" points="279.38 146.96 277.93 146.96 278.07 146.28 279.53 146.28 279.38 146.96"/><polygon class="cls-11" points="279.01 148.74 276.61 148.74 276.75 148.05 279.15 148.05 279.01 148.74"/><polygon class="cls-11" points="278.63 150.52 275.28 150.52 275.43 149.83 278.78 149.83 278.63 150.52"/><polygon class="cls-11" points="278.26 152.3 273.96 152.3 274.11 151.61 278.4 151.61 278.26 152.3"/><path class="cls-14" d="M267.43,148.29a6.34,6.34,0,0,0-.83.3.28.28,0,0,1-.22,0l-1.39-1a.63.63,0,0,0-.74,0l-.91.75a.65.65,0,0,0-.15.73l.77,1.54a.22.22,0,0,1,0,.22,7.44,7.44,0,0,0-.44.78.23.23,0,0,1-.18.12l-1.73.11a.63.63,0,0,0-.56.49l-.2,1.16a.61.61,0,0,0,.35.65l1.58.69a.28.28,0,0,1,.14.18,6.6,6.6,0,0,0,.15.87.25.25,0,0,1-.05.22l-1.26,1.19a.62.62,0,0,0-.11.73l.59,1a.63.63,0,0,0,.69.28l1.65-.49a.28.28,0,0,1,.22,0c.22.2.44.39.68.57a.25.25,0,0,1,.09.2l-.2,1.72a.63.63,0,0,0,.39.63l1.11.4a.63.63,0,0,0,.71-.23l.94-1.44a.28.28,0,0,1,.21-.1h.88a.22.22,0,0,1,.2.09l1,1.45a.62.62,0,0,0,.7.23l1.11-.4a.63.63,0,0,0,.39-.63l-.2-1.71a.31.31,0,0,1,.09-.22,6.13,6.13,0,0,0,.68-.56.26.26,0,0,1,.21-.06l1.66.5a.63.63,0,0,0,.69-.28l.59-1a.62.62,0,0,0-.1-.73l-1.25-1.18a.25.25,0,0,1-.07-.23,8.52,8.52,0,0,0,.16-.88.24.24,0,0,1,.12-.17l1.59-.69a.61.61,0,0,0,.35-.65l-.2-1.16a.63.63,0,0,0-.56-.49L275,151.7a.28.28,0,0,1-.2-.13,5.35,5.35,0,0,0-.45-.77.26.26,0,0,1,0-.21l.78-1.55a.65.65,0,0,0-.15-.73l-.91-.75a.63.63,0,0,0-.74,0l-1.38,1a.24.24,0,0,1-.23,0,6,6,0,0,0-.84-.3.29.29,0,0,1-.15-.16l-.4-1.69a.63.63,0,0,0-.58-.46h-1.18a.63.63,0,0,0-.58.46l-.4,1.68A.29.29,0,0,1,267.43,148.29Z" transform="translate(-4.63 -5.05)"/><path class="cls-15" d="M269.16,149.25a5.07,5.07,0,1,0,5.07,5.07,5.07,5.07,0,0,0-5.07-5.07Z" transform="translate(-4.63 -5.05)"/><rect class="cls-13" x="101.94" y="145.95" width="32.57" height="11.87" rx="2.83"/><polygon class="cls-11" points="116.79 149.59 115.34 149.59 115.49 148.9 116.94 148.9 116.79 149.59"/><polygon class="cls-11" points="116.42 151.37 114.02 151.37 114.16 150.68 116.56 150.68 116.42 151.37"/><polygon class="cls-11" points="116.04 153.14 112.7 153.14 112.84 152.46 116.19 152.46 116.04 153.14"/><polygon class="cls-11" points="115.67 154.92 111.37 154.92 111.52 154.23 115.81 154.23 115.67 154.92"/><path class="cls-14" d="M104.84,150.91a8.29,8.29,0,0,0-.83.31.41.41,0,0,1-.22,0l-1.39-1a.66.66,0,0,0-.74,0l-.9.76a.65.65,0,0,0-.16.73l.77,1.54a.22.22,0,0,1,0,.22,7.3,7.3,0,0,0-.44.77.23.23,0,0,1-.18.13l-1.73.1a.64.64,0,0,0-.55.49l-.21,1.17a.63.63,0,0,0,.35.65l1.58.68a.28.28,0,0,1,.14.18,6.47,6.47,0,0,0,.15.88.26.26,0,0,1,0,.21l-1.26,1.19a.64.64,0,0,0-.11.74l.59,1a.63.63,0,0,0,.69.27l1.65-.49a.24.24,0,0,1,.23.06,6,6,0,0,0,.67.56.25.25,0,0,1,.09.2l-.2,1.72a.66.66,0,0,0,.39.64l1.11.4a.65.65,0,0,0,.71-.23l.94-1.44a.26.26,0,0,1,.21-.11h.88a.26.26,0,0,1,.2.1l1,1.45a.63.63,0,0,0,.7.23l1.11-.4a.65.65,0,0,0,.39-.64l-.2-1.7a.26.26,0,0,1,.1-.22c.23-.18.46-.37.67-.57a.23.23,0,0,1,.21-.05l1.66.49a.63.63,0,0,0,.69-.27l.6-1a.65.65,0,0,0-.11-.74l-1.25-1.18a.28.28,0,0,1-.07-.23,6.49,6.49,0,0,0,.16-.88.22.22,0,0,1,.12-.16l1.59-.69a.62.62,0,0,0,.35-.65l-.2-1.17a.64.64,0,0,0-.56-.49l-1.71-.1a.28.28,0,0,1-.2-.13,6.06,6.06,0,0,0-.45-.78.23.23,0,0,1,0-.2l.78-1.55a.65.65,0,0,0-.15-.73l-.91-.76a.63.63,0,0,0-.74,0l-1.38,1a.31.31,0,0,1-.23,0,6.34,6.34,0,0,0-.83-.3.23.23,0,0,1-.15-.15l-.41-1.69a.63.63,0,0,0-.58-.46H106a.63.63,0,0,0-.58.46l-.4,1.67A.24.24,0,0,1,104.84,150.91Z" transform="translate(-4.63 -5.05)"/><path class="cls-15" d="M106.57,151.87a5.07,5.07,0,1,0,5.07,5.07,5.07,5.07,0,0,0-5.07-5.07Z" transform="translate(-4.63 -5.05)"/><rect class="cls-13" x="8.57" y="143.33" width="32.57" height="11.87" rx="2.83"/><polygon class="cls-11" points="23.42 146.96 21.97 146.96 22.11 146.28 23.57 146.28 23.42 146.96"/><polygon class="cls-11" points="23.04 148.74 20.64 148.74 20.79 148.05 23.19 148.05 23.04 148.74"/><polygon class="cls-11" points="22.67 150.52 19.32 150.52 19.47 149.83 22.82 149.83 22.67 150.52"/><polygon class="cls-11" points="22.29 152.3 18 152.3 18.14 151.61 22.44 151.61 22.29 152.3"/><path class="cls-14" d="M11.46,148.29a6.34,6.34,0,0,0-.83.3.2.2,0,0,1-.21,0l-1.39-1a.6.6,0,0,0-.74,0l-.91.75a.64.64,0,0,0-.15.73L8,150.58a.22.22,0,0,1,0,.22,6,6,0,0,0-.44.78.23.23,0,0,1-.18.12l-1.74.11a.62.62,0,0,0-.55.49l-.2,1.16a.61.61,0,0,0,.35.65l1.58.69A.24.24,0,0,1,7,155a6.64,6.64,0,0,0,.16.87.25.25,0,0,1-.06.22l-1.26,1.19a.62.62,0,0,0-.11.73l.59,1a.65.65,0,0,0,.69.28l1.65-.49a.31.31,0,0,1,.23,0c.22.2.44.39.68.57a.25.25,0,0,1,.09.2l-.2,1.72a.63.63,0,0,0,.39.63l1.11.4a.62.62,0,0,0,.7-.23l1-1.44a.28.28,0,0,1,.21-.1h.88a.25.25,0,0,1,.2.09l.95,1.45a.63.63,0,0,0,.71.23l1.11-.4a.63.63,0,0,0,.39-.63l-.2-1.71a.26.26,0,0,1,.09-.22,6.13,6.13,0,0,0,.68-.56.26.26,0,0,1,.21-.06l1.66.5a.63.63,0,0,0,.69-.28l.59-1a.62.62,0,0,0-.11-.73L19.42,156a.27.27,0,0,1-.06-.23,6.47,6.47,0,0,0,.15-.88.3.3,0,0,1,.12-.17l1.6-.69a.65.65,0,0,0,.35-.65l-.21-1.16a.61.61,0,0,0-.55-.49L19,151.7a.26.26,0,0,1-.19-.13,6,6,0,0,0-.45-.77.26.26,0,0,1,0-.21l.77-1.55a.64.64,0,0,0-.15-.73l-.9-.75a.63.63,0,0,0-.74,0l-1.38,1a.26.26,0,0,1-.24,0,6.34,6.34,0,0,0-.83-.3.29.29,0,0,1-.15-.16l-.4-1.69a.63.63,0,0,0-.58-.46H12.61a.63.63,0,0,0-.58.46l-.4,1.68A.28.28,0,0,1,11.46,148.29Z" transform="translate(-4.63 -5.05)"/><path class="cls-15" d="M13.2,149.25a5.07,5.07,0,1,0,5.07,5.07A5.07,5.07,0,0,0,13.2,149.25Z" transform="translate(-4.63 -5.05)"/><rect class="cls-13" x="8.57" y="2.65" width="32.57" height="11.87" rx="2.83"/><polygon class="cls-11" points="23.42 6.28 21.97 6.28 22.11 5.6 23.57 5.6 23.42 6.28"/><polygon class="cls-11" points="23.04 8.06 20.64 8.06 20.79 7.37 23.19 7.37 23.04 8.06"/><polygon class="cls-11" points="22.67 9.84 19.32 9.84 19.47 9.15 22.82 9.15 22.67 9.84"/><polygon class="cls-11" points="22.29 11.61 18 11.61 18.14 10.93 22.44 10.93 22.29 11.61"/><path class="cls-14" d="M11.46,7.61a6.34,6.34,0,0,0-.83.3.2.2,0,0,1-.21,0L9,6.86a.6.6,0,0,0-.74,0l-.91.75a.64.64,0,0,0-.15.73L8,9.9a.22.22,0,0,1,0,.22,6,6,0,0,0-.44.78.23.23,0,0,1-.18.12l-1.74.11a.62.62,0,0,0-.55.49l-.2,1.16a.61.61,0,0,0,.35.65l1.58.69A.24.24,0,0,1,7,14.3a6.64,6.64,0,0,0,.16.87.25.25,0,0,1-.06.22L5.78,16.58a.62.62,0,0,0-.11.73l.59,1a.65.65,0,0,0,.69.28L8.6,18.1a.27.27,0,0,1,.23,0c.22.2.44.39.68.57a.25.25,0,0,1,.09.2l-.2,1.72a.63.63,0,0,0,.39.63l1.11.4a.62.62,0,0,0,.7-.23l1-1.44a.28.28,0,0,1,.21-.1h.88a.26.26,0,0,1,.2.1l.95,1.45a.63.63,0,0,0,.71.23l1.11-.4a.63.63,0,0,0,.39-.63L16.8,19a.26.26,0,0,1,.09-.22,6.13,6.13,0,0,0,.68-.56.26.26,0,0,1,.21-.06l1.66.5a.63.63,0,0,0,.69-.28l.59-1a.62.62,0,0,0-.11-.73L19.36,15.4a.27.27,0,0,1-.06-.23,6.47,6.47,0,0,0,.15-.88.3.3,0,0,1,.12-.17l1.6-.69a.65.65,0,0,0,.35-.65l-.21-1.16a.64.64,0,0,0-.55-.5L19,11a.26.26,0,0,1-.19-.13,6,6,0,0,0-.45-.77.26.26,0,0,1,0-.21l.77-1.55A.63.63,0,0,0,19,7.63l-.9-.75a.63.63,0,0,0-.74,0L16,7.88a.25.25,0,0,1-.24,0,6.34,6.34,0,0,0-.83-.3.29.29,0,0,1-.15-.16l-.4-1.69a.63.63,0,0,0-.58-.46H12.61a.63.63,0,0,0-.58.46l-.4,1.68A.28.28,0,0,1,11.46,7.61Z" transform="translate(-4.63 -5.05)"/><path class="cls-15" d="M13.2,8.57a5.07,5.07,0,1,0,5.07,5.07h0A5.08,5.08,0,0,0,13.2,8.57Z" transform="translate(-4.63 -5.05)"/><rect class="cls-13" x="8.57" y="164.29" width="32.57" height="11.88" rx="2.83"/><polygon class="cls-11" points="23.42 167.93 21.97 167.93 22.11 167.24 23.57 167.24 23.42 167.93"/><polygon class="cls-11" points="23.04 169.7 20.64 169.7 20.79 169.02 23.19 169.02 23.04 169.7"/><polygon class="cls-11" points="22.67 171.48 19.32 171.48 19.47 170.79 22.82 170.79 22.67 171.48"/><polygon class="cls-11" points="22.29 173.26 18 173.26 18.14 172.57 22.44 172.57 22.29 173.26"/><path class="cls-14" d="M11.46,169.25a6.34,6.34,0,0,0-.83.3.2.2,0,0,1-.21,0L9,168.5a.6.6,0,0,0-.74,0l-.91.76a.64.64,0,0,0-.15.73l.8,1.55a.24.24,0,0,1,0,.23,4.51,4.51,0,0,0-.44.77.29.29,0,0,1-.18.13l-1.74.1a.64.64,0,0,0-.55.49l-.2,1.16a.63.63,0,0,0,.35.66l1.58.68a.27.27,0,0,1,.13.18,6.49,6.49,0,0,0,.16.88A.27.27,0,0,1,7,177l-1.26,1.19a.62.62,0,0,0-.11.73l.59,1a.63.63,0,0,0,.69.27l1.65-.49a.24.24,0,0,1,.23.06,6.13,6.13,0,0,0,.68.56.25.25,0,0,1,.09.2l-.2,1.72a.63.63,0,0,0,.39.63l1.11.41a.64.64,0,0,0,.7-.24l1-1.43a.26.26,0,0,1,.21-.11h.88a.26.26,0,0,1,.2.1l1,1.44a.65.65,0,0,0,.71.24l1.11-.41a.63.63,0,0,0,.39-.63l-.2-1.71a.26.26,0,0,1,.09-.22,6.13,6.13,0,0,0,.68-.56.26.26,0,0,1,.21-.06l1.66.5a.63.63,0,0,0,.69-.27l.59-1a.62.62,0,0,0-.11-.73L19.36,177a.27.27,0,0,1-.06-.23,6.47,6.47,0,0,0,.15-.88.25.25,0,0,1,.12-.16l1.6-.69a.67.67,0,0,0,.35-.66l-.21-1.16a.61.61,0,0,0-.55-.49l-1.72-.1a.26.26,0,0,1-.19-.13,6.06,6.06,0,0,0-.45-.78.23.23,0,0,1,0-.2l.77-1.56a.6.6,0,0,0-.15-.72l-.9-.76a.63.63,0,0,0-.74,0l-1.38,1a.25.25,0,0,1-.24,0,6.34,6.34,0,0,0-.83-.3.26.26,0,0,1-.15-.16l-.4-1.68a.63.63,0,0,0-.58-.46H12.61a.62.62,0,0,0-.58.46l-.4,1.67A.29.29,0,0,1,11.46,169.25Z" transform="translate(-4.63 -5.05)"/><path class="cls-15" d="M13.2,170.21a5.07,5.07,0,1,0,5.07,5.07A5.07,5.07,0,0,0,13.2,170.21Z" transform="translate(-4.63 -5.05)"/><path class="cls-12" d="M152.39,83.28H141.22a5.94,5.94,0,0,0,0,11.88h11.17a2.85,2.85,0,0,0,2.83-2.84v-6.2A2.85,2.85,0,0,0,152.39,83.28Z" transform="translate(-4.63 -5.05)"/><path class="cls-13" d="M145.57,89.22a4.35,4.35,0,0,1-8.69,0,4.53,4.53,0,0,1,.31-1.62.46.46,0,0,1,.59-.25.45.45,0,0,1,.26.58h0a3.32,3.32,0,0,0-.25,1.28,3.44,3.44,0,1,0,5-3,.46.46,0,0,1-.24-.6.45.45,0,0,1,.61-.24l.06,0A4.34,4.34,0,0,1,145.57,89.22Zm-4.35-3a.67.67,0,1,0-.67-.67h0a.67.67,0,0,0,.67.66Zm0,3.68a.67.67,0,0,0,.67-.67.68.68,0,0,0-.3-.56L138,86l2.66,3.58a.66.66,0,0,0,.56.31Z" transform="translate(-4.63 -5.05)"/><path class="cls-12" d="M174.48,148.38H163.31a5.94,5.94,0,0,0-.49,11.87h11.66a2.85,2.85,0,0,0,2.83-2.83v-6.21A2.85,2.85,0,0,0,174.48,148.38Z" transform="translate(-4.63 -5.05)"/><path class="cls-13" d="M167.65,154.32a4.34,4.34,0,0,1-8.68,0,4.28,4.28,0,0,1,.31-1.62.45.45,0,0,1,.84.34h0a3.5,3.5,0,0,0-.24,1.28,3.43,3.43,0,1,0,5-3,.44.44,0,0,1-.2-.59v0a.45.45,0,0,1,.61-.19h0A4.33,4.33,0,0,1,167.65,154.32Zm-4.34-3a.67.67,0,1,0-.67-.67h0a.67.67,0,0,0,.67.66Zm0,3.68a.67.67,0,0,0,.67-.67.66.66,0,0,0-.31-.56l-3.57-2.65,2.65,3.57A.66.66,0,0,0,163.31,155Z" transform="translate(-4.63 -5.05)"/><path class="cls-12" d="M22,106.27H10.8a5.94,5.94,0,0,0,0,11.87H22a2.83,2.83,0,0,0,2.83-2.83h0V109.1A2.83,2.83,0,0,0,22,106.27Z" transform="translate(-4.63 -5.05)"/><path class="cls-13" d="M15.15,112.21a4.35,4.35,0,0,1-8.69,0,4.53,4.53,0,0,1,.31-1.62.47.47,0,0,1,.62-.2.48.48,0,0,1,.23.54,3.32,3.32,0,0,0-.25,1.28,3.44,3.44,0,1,0,5-3,.45.45,0,0,1,.42-.8h0A4.32,4.32,0,0,1,15.15,112.21Zm-4.35-3a.67.67,0,1,0-.67-.67h0a.67.67,0,0,0,.67.66Zm0,3.68a.67.67,0,0,0,.37-1.23L7.59,109l2.66,3.58a.65.65,0,0,0,.55.3Z" transform="translate(-4.63 -5.05)"/><rect class="cls-16" x="244.61" y="164.29" width="11.87" height="11.88" rx="2.83"/><rect class="cls-16" x="76.29" y="68.81" width="11.87" height="11.87" rx="2.83"/><path class="cls-16" d="M42.93,127.41H19.07l-.06-.06-.9-.76a.63.63,0,0,0-.74,0l-1.14.84H16a3.4,3.4,0,0,0-.63.08c-.16,0-.31-.12-.48-.17a.28.28,0,0,1-.15-.15l-.4-1.69a.63.63,0,0,0-.58-.46H12.61a.63.63,0,0,0-.58.46l-.4,1.67a.29.29,0,0,1-.17.17,8.29,8.29,0,0,0-.83.31.26.26,0,0,1-.21,0l-1.39-1a.66.66,0,0,0-.74,0l-.91.76a.64.64,0,0,0-.15.73L8,129.62a.22.22,0,0,1,0,.22,6,6,0,0,0-.44.78.28.28,0,0,1-.18.12l-1.74.1a.64.64,0,0,0-.55.49l-.2,1.17a.62.62,0,0,0,.35.65l1.58.68A.29.29,0,0,1,7,134a6.49,6.49,0,0,0,.16.88.23.23,0,0,1-.06.21l-1.26,1.19a.64.64,0,0,0-.11.74l.59,1a.63.63,0,0,0,.69.27l1.65-.49a.24.24,0,0,1,.23.06,6.13,6.13,0,0,0,.68.56.25.25,0,0,1,.09.2l-.2,1.73a.63.63,0,0,0,.39.63l1.11.4a.63.63,0,0,0,.7-.23l1-1.44a.23.23,0,0,1,.21-.1h.88a.26.26,0,0,1,.2.1l.95,1.45a.65.65,0,0,0,.71.23l1.11-.4a.64.64,0,0,0,.39-.63l-.13-1.09h26a2.85,2.85,0,0,0,2.84-2.84v-6.2A2.86,2.86,0,0,0,42.93,127.41Z" transform="translate(-4.63 -5.05)"/><path class="cls-16" d="M152.39,83.28H141.22a5.94,5.94,0,0,0,0,11.88h11.17a2.85,2.85,0,0,0,2.83-2.84v-6.2A2.85,2.85,0,0,0,152.39,83.28Z" transform="translate(-4.63 -5.05)"/><path class="cls-16" d="M174.48,148.38H163.31a5.94,5.94,0,0,0-.49,11.87h11.66a2.85,2.85,0,0,0,2.83-2.83v-6.21A2.85,2.85,0,0,0,174.48,148.38Z" transform="translate(-4.63 -5.05)"/><path class="cls-16" d="M22,106.27H10.8a5.94,5.94,0,0,0,0,11.87H22a2.83,2.83,0,0,0,2.83-2.83h0V109.1A2.83,2.83,0,0,0,22,106.27Z" transform="translate(-4.63 -5.05)"/><path class="cls-17" d="M32.34,106.73a6.5,6.5,0,0,0,1.08-.24,7.93,7.93,0,0,0,3-1.7l3.67,9.27a19.35,19.35,0,0,1-3,2.49,6.43,6.43,0,0,1-3.4,1.24,2.48,2.48,0,0,1-2.2-1.1c.56-.52,2-1.5,2.47-1.18s-.44,1.48-.44,1.48c1.3-1,1.34-1.58,1.24-1.86l-.33-.46m.2.27-4.29-9.69a8.34,8.34,0,0,0-1,0,11.29,11.29,0,0,0-3.16.46,10.64,10.64,0,0,0-3.81,2L27,119.48a26.43,26.43,0,0,1,3.59-3.18A6.61,6.61,0,0,1,34,114.84a1.87,1.87,0,0,1,.62.1Z" transform="translate(-4.63 -5.05)"/><path class="cls-13" d="M36.45,104.79a7.93,7.93,0,0,1-3,1.7,6.5,6.5,0,0,1-1.08.24l2.41,8.4h0c.1.28.06.88-1.24,1.86,0,0,.9-1.15.44-1.48s-1.91.66-2.47,1.18a2.48,2.48,0,0,0,2.2,1.1,6.43,6.43,0,0,0,3.4-1.24,19.35,19.35,0,0,0,3-2.49Z" transform="translate(-4.63 -5.05)"/><path class="cls-11" d="M37,116.23A20.22,20.22,0,0,0,39.74,114l-1.1-2.77a13.88,13.88,0,0,1-2.76,2Z" transform="translate(-4.63 -5.05)"/><path class="cls-11" d="M37.42,108.11l-1.1-2.78a8.35,8.35,0,0,1-2.78,1.47l1.12,3.1A10.47,10.47,0,0,0,37.42,108.11Z" transform="translate(-4.63 -5.05)"/><path class="cls-11" d="M35.88,113.25l-1.22-3.35a7.47,7.47,0,0,1-1.29.42l1,3.56A8.31,8.31,0,0,0,35.88,113.25Z" transform="translate(-4.63 -5.05)"/><path class="cls-13" d="M29.36,105.2a11.29,11.29,0,0,0-3.16.46,10.64,10.64,0,0,0-3.81,2L27,119.48a26.43,26.43,0,0,1,3.59-3.18A6.61,6.61,0,0,1,34,114.84a1.93,1.93,0,0,1,.63.1l-4.29-9.69a8.34,8.34,0,0,0-1,0Z" transform="translate(-4.63 -5.05)"/><path class="cls-11" d="M29.36,105.53a10.88,10.88,0,0,0-3,.43l1.44,3.47a12.59,12.59,0,0,1,3.61-1l-1.28-2.88A6.6,6.6,0,0,0,29.36,105.53Z" transform="translate(-4.63 -5.05)"/><path class="cls-11" d="M29.24,113l1.26,3a6.58,6.58,0,0,1,3.5-1.49h.08l-1.27-2.87A8.12,8.12,0,0,0,29.24,113Z" transform="translate(-4.63 -5.05)"/><path class="cls-11" d="M27.77,109.43a15.57,15.57,0,0,0-3.56,2l1.55,3.92A32.64,32.64,0,0,1,29.24,113Z" transform="translate(-4.63 -5.05)"/><path class="cls-16" d="M158.18,144.54A2.85,2.85,0,0,0,161,141.7v-6.2a2.85,2.85,0,0,0-2.84-2.84H134.32l-.06-.06-.9-.76a.63.63,0,0,0-.74,0l-1.14.84h-.2a3.4,3.4,0,0,0-.63.08c-.16,0-.31-.12-.48-.17a.28.28,0,0,1-.15-.15l-.4-1.69a.63.63,0,0,0-.58-.46h-1.18a.63.63,0,0,0-.58.46l-.4,1.67a.29.29,0,0,1-.17.17,8.29,8.29,0,0,0-.83.31.26.26,0,0,1-.21,0l-1.39-1a.66.66,0,0,0-.74,0l-.91.76a.64.64,0,0,0-.15.73l.77,1.54a.22.22,0,0,1,0,.22,6,6,0,0,0-.44.78.28.28,0,0,1-.18.12l-1.74.1a.64.64,0,0,0-.55.49l-.2,1.17a.62.62,0,0,0,.35.65l1.58.68a.29.29,0,0,1,.13.18,6.49,6.49,0,0,0,.16.88.23.23,0,0,1-.06.21l-1.3,1.13a.64.64,0,0,0-.11.74l.59,1a.63.63,0,0,0,.69.27l1.65-.49a.24.24,0,0,1,.23.06,6.13,6.13,0,0,0,.68.56.25.25,0,0,1,.09.2l-.2,1.73a.63.63,0,0,0,.39.63l1.11.4a.63.63,0,0,0,.7-.23l1-1.44a.23.23,0,0,1,.21-.1h.88a.26.26,0,0,1,.2.1l.95,1.45a.65.65,0,0,0,.71.23l1.11-.4a.64.64,0,0,0,.39-.63l-.13-1.09Z" transform="translate(-4.63 -5.05)"/><path class="cls-16" d="M92.18,19.57A2.84,2.84,0,0,0,95,16.74V10.53A2.84,2.84,0,0,0,92.18,7.7H68.32l-.06-.07-.9-.75a.63.63,0,0,0-.74,0l-1.14.85h-.2a2.72,2.72,0,0,0-.63.08,4.59,4.59,0,0,0-.48-.17A.27.27,0,0,1,64,7.45l-.4-1.69A.63.63,0,0,0,63,5.3H61.86a.63.63,0,0,0-.58.46l-.4,1.68a.29.29,0,0,1-.17.17,6.34,6.34,0,0,0-.83.3.2.2,0,0,1-.21,0l-1.39-1a.6.6,0,0,0-.74,0l-.91.75a.64.64,0,0,0-.15.73l.77,1.54a.22.22,0,0,1,0,.22,6,6,0,0,0-.44.78.23.23,0,0,1-.18.12l-1.74.11a.62.62,0,0,0-.55.49l-.2,1.16a.61.61,0,0,0,.35.65l1.58.69a.24.24,0,0,1,.13.18,6.64,6.64,0,0,0,.16.87.25.25,0,0,1-.06.22L55,16.58a.62.62,0,0,0-.11.73l.59,1a.65.65,0,0,0,.69.28l1.65-.49a.27.27,0,0,1,.23,0c.22.2.44.39.68.57a.25.25,0,0,1,.09.2l-.2,1.72a.63.63,0,0,0,.39.63l1.11.4a.62.62,0,0,0,.7-.23l1-1.44a.28.28,0,0,1,.21-.1h.88a.26.26,0,0,1,.2.1l1,1.45a.63.63,0,0,0,.71.23l1.11-.4a.63.63,0,0,0,.39-.63l-.13-1.09Z" transform="translate(-4.63 -5.05)"/><path class="cls-16" d="M104,13.43l1.58.69a.24.24,0,0,1,.13.18,6.64,6.64,0,0,0,.16.87.25.25,0,0,1-.06.22l-1.26,1.19a.62.62,0,0,0-.11.73l.59,1a.65.65,0,0,0,.69.28l1.65-.49a.27.27,0,0,1,.23,0c.22.2.44.39.68.57a.25.25,0,0,1,.09.2l-.2,1.72a.63.63,0,0,0,.39.63l1.11.4a.62.62,0,0,0,.7-.23l1-1.44a.28.28,0,0,1,.21-.1h.88a.26.26,0,0,1,.2.1l1,1.45a.63.63,0,0,0,.71.23l1.11-.4a.63.63,0,0,0,.39-.63l-.13-1.09H141.8a2.85,2.85,0,0,0,2.84-2.83v-6.2A2.85,2.85,0,0,0,141.8,7.7h-24l-.06-.07-.9-.75a.63.63,0,0,0-.74,0L115,7.7h-.2a2.72,2.72,0,0,0-.63.08,4.59,4.59,0,0,0-.48-.17.29.29,0,0,1-.15-.16l-.4-1.69a.63.63,0,0,0-.58-.46h-1.18a.63.63,0,0,0-.58.46l-.4,1.68a.29.29,0,0,1-.17.17,6.34,6.34,0,0,0-.83.3.2.2,0,0,1-.21,0l-1.39-1a.6.6,0,0,0-.74,0l-.91.75a.64.64,0,0,0-.15.73l.77,1.54a.22.22,0,0,1,0,.22,6,6,0,0,0-.44.78.23.23,0,0,1-.18.12l-1.74.11a.62.62,0,0,0-.55.49l-.2,1.16A.61.61,0,0,0,104,13.43Z" transform="translate(-4.63 -5.05)"/><path class="cls-16" d="M200.52,16.74V10.53a2.85,2.85,0,0,0-2.84-2.83H173.82l-.06-.07-.9-.75a.63.63,0,0,0-.74,0L171,7.7h-.2a2.72,2.72,0,0,0-.63.08,4.59,4.59,0,0,0-.48-.17.29.29,0,0,1-.15-.16l-.4-1.69a.63.63,0,0,0-.58-.46h-1.18a.63.63,0,0,0-.58.46l-.4,1.68a.29.29,0,0,1-.17.17,6.34,6.34,0,0,0-.83.3.2.2,0,0,1-.21,0l-1.39-1a.6.6,0,0,0-.74,0l-.91.75a.64.64,0,0,0-.15.73l.77,1.54a.22.22,0,0,1,0,.22,6,6,0,0,0-.44.78.23.23,0,0,1-.18.12l-1.74.11a.62.62,0,0,0-.55.49l-.2,1.16a.61.61,0,0,0,.35.65l1.58.69a.24.24,0,0,1,.13.18,6.64,6.64,0,0,0,.16.87.25.25,0,0,1-.06.22l-1.26,1.19a.62.62,0,0,0-.11.73l.59,1a.65.65,0,0,0,.69.28l1.65-.49a.27.27,0,0,1,.23.05c.22.2.44.39.68.57a.25.25,0,0,1,.09.2l-.2,1.72a.63.63,0,0,0,.39.63l1.11.4a.62.62,0,0,0,.7-.23l1-1.44a.28.28,0,0,1,.21-.1h.88a.26.26,0,0,1,.2.1l1,1.45a.63.63,0,0,0,.71.23l1.11-.4a.63.63,0,0,0,.39-.63l-.13-1.09h26.06A2.84,2.84,0,0,0,200.52,16.74Z" transform="translate(-4.63 -5.05)"/><path class="cls-16" d="M57.65,25.3H33.78l-.05-.06-.91-.76a.63.63,0,0,0-.74,0L31,25.3h-.2a3.4,3.4,0,0,0-.64.08c-.16-.06-.31-.12-.48-.17a.28.28,0,0,1-.15-.15l-.4-1.69a.63.63,0,0,0-.58-.46H27.32a.63.63,0,0,0-.58.46L26.34,25a.25.25,0,0,1-.16.17,8.29,8.29,0,0,0-.83.31.41.41,0,0,1-.22,0l-1.39-1a.66.66,0,0,0-.74,0l-.91.76a.65.65,0,0,0-.15.73l.77,1.54a.22.22,0,0,1,0,.22,7.3,7.3,0,0,0-.44.77.24.24,0,0,1-.18.13l-1.73.1a.66.66,0,0,0-.56.49l-.2,1.17A.62.62,0,0,0,20,31l1.58.68a.28.28,0,0,1,.14.18,6.47,6.47,0,0,0,.15.88.26.26,0,0,1,0,.21L20.5,34.18a.64.64,0,0,0-.11.74l.59,1a.63.63,0,0,0,.69.27l1.65-.49a.23.23,0,0,1,.22.06,7.22,7.22,0,0,0,.68.56.25.25,0,0,1,.09.2l-.2,1.72a.66.66,0,0,0,.39.64l1.11.4a.65.65,0,0,0,.71-.23l.94-1.44a.26.26,0,0,1,.21-.11h.88a.26.26,0,0,1,.2.1l1,1.45a.63.63,0,0,0,.7.23l1.11-.4a.66.66,0,0,0,.39-.64l-.13-1.08h26a2.85,2.85,0,0,0,2.83-2.83V28.14A2.85,2.85,0,0,0,57.65,25.3Z" transform="translate(-4.63 -5.05)"/><path class="cls-16" d="M94.75,28.66a2.74,2.74,0,0,0-.64.08c-.16-.06-.31-.12-.48-.17a.26.26,0,0,1-.15-.16l-.4-1.68a.63.63,0,0,0-.58-.46H91.32a.63.63,0,0,0-.58.46l-.4,1.67a.25.25,0,0,1-.16.17,6.34,6.34,0,0,0-.83.3.28.28,0,0,1-.22,0l-1.39-1a.63.63,0,0,0-.74,0l-.91.76a.65.65,0,0,0-.15.73l.77,1.53a.24.24,0,0,1,0,.23,7.3,7.3,0,0,0-.44.77.27.27,0,0,1-.18.13l-1.73.1a.66.66,0,0,0-.56.49l-.2,1.16a.63.63,0,0,0,.35.66l1.58.68a.28.28,0,0,1,.14.18,6.47,6.47,0,0,0,.15.88.26.26,0,0,1,0,.21L84.5,37.54a.62.62,0,0,0-.11.73l.59,1a.63.63,0,0,0,.69.27l1.65-.49a.25.25,0,0,1,.22.05,5.27,5.27,0,0,0,.68.57.25.25,0,0,1,.09.2l-.2,1.72a.63.63,0,0,0,.39.63l1.11.41a.65.65,0,0,0,.71-.24L91.26,41a.26.26,0,0,1,.21-.11h.88a.25.25,0,0,1,.2.09l1,1.45a.64.64,0,0,0,.7.24l1.11-.41a.63.63,0,0,0,.39-.63l-.13-1.08h26.07a2.85,2.85,0,0,0,2.83-2.84V31.5a2.85,2.85,0,0,0-2.83-2.84H97.78V28.6l-.91-.76a.63.63,0,0,0-.74,0L95,28.66Z" transform="translate(-4.63 -5.05)"/><path class="cls-16" d="M142.56,27.84l-.9.76a.64.64,0,0,0-.15.73l.77,1.53a.31.31,0,0,1,0,.23,5.35,5.35,0,0,0-.45.77.24.24,0,0,1-.18.13l-1.73.1a.64.64,0,0,0-.55.49l-.21,1.16a.67.67,0,0,0,.35.66l1.58.68a.28.28,0,0,1,.14.18,6.49,6.49,0,0,0,.16.88.26.26,0,0,1-.06.21l-1.26,1.19a.62.62,0,0,0-.11.73l.59,1a.63.63,0,0,0,.69.27l1.65-.49a.27.27,0,0,1,.23.05,5.18,5.18,0,0,0,.67.57.22.22,0,0,1,.09.2l-.19,1.72a.63.63,0,0,0,.39.63l1.1.41a.65.65,0,0,0,.71-.24l.94-1.43a.27.27,0,0,1,.22-.11h.88a.25.25,0,0,1,.2.09l1,1.45a.64.64,0,0,0,.7.24l1.11-.41a.62.62,0,0,0,.39-.63l-.12-1.08h26.06A2.85,2.85,0,0,0,180,37.7V31.5a2.85,2.85,0,0,0-2.83-2.84H153.34l-.05-.06-.9-.76a.63.63,0,0,0-.74,0l-1.14.84h-.2a2.74,2.74,0,0,0-.64.08l-.47-.17a.26.26,0,0,1-.15-.16l-.41-1.68a.63.63,0,0,0-.58-.46h-1.18a.63.63,0,0,0-.58.46l-.4,1.67a.25.25,0,0,1-.16.17,6.34,6.34,0,0,0-.83.3.2.2,0,0,1-.21,0l-1.4-1A.62.62,0,0,0,142.56,27.84Z" transform="translate(-4.63 -5.05)"/><path class="cls-16" d="M201,34.4l1.58.68a.28.28,0,0,1,.14.18,6.49,6.49,0,0,0,.16.88.26.26,0,0,1-.06.21l-1.26,1.19a.62.62,0,0,0-.11.73l.59,1a.63.63,0,0,0,.69.27l1.65-.49a.27.27,0,0,1,.23.05,5.18,5.18,0,0,0,.67.57.22.22,0,0,1,.09.2l-.19,1.72a.63.63,0,0,0,.39.63l1.1.41a.65.65,0,0,0,.71-.24l.94-1.43a.27.27,0,0,1,.22-.11h.88a.25.25,0,0,1,.2.09l.95,1.45a.64.64,0,0,0,.7.24l1.11-.41a.63.63,0,0,0,.39-.63l-.12-1.08h26.06a2.85,2.85,0,0,0,2.83-2.84V31.5a2.85,2.85,0,0,0-2.83-2.84H214.84l-.05-.06-.9-.76a.63.63,0,0,0-.74,0l-1.14.84h-.2a2.74,2.74,0,0,0-.64.08l-.47-.17a.26.26,0,0,1-.15-.16l-.41-1.68a.63.63,0,0,0-.58-.46h-1.18a.63.63,0,0,0-.58.46l-.4,1.67a.25.25,0,0,1-.16.17,6.34,6.34,0,0,0-.83.3.2.2,0,0,1-.21,0l-1.4-1a.63.63,0,0,0-.74,0l-.9.76a.64.64,0,0,0-.15.73l.77,1.53a.31.31,0,0,1,0,.23,5.35,5.35,0,0,0-.45.77.24.24,0,0,1-.18.13l-1.73.1a.64.64,0,0,0-.55.49l-.21,1.16A.66.66,0,0,0,201,34.4Z" transform="translate(-4.63 -5.05)"/><path class="cls-16" d="M241.3,64.09l-.41-1.69a.63.63,0,0,0-.58-.46h-1.18a.63.63,0,0,0-.58.46l-.4,1.68a.25.25,0,0,1-.16.17,6.34,6.34,0,0,0-.83.3.2.2,0,0,1-.21,0l-1.4-1a.63.63,0,0,0-.74,0l-.9.75a.64.64,0,0,0-.15.73l.77,1.54a.28.28,0,0,1,0,.22,6.06,6.06,0,0,0-.45.78.22.22,0,0,1-.18.12l-1.73.11a.61.61,0,0,0-.55.49l-.21,1.16a.65.65,0,0,0,.35.65l1.58.69a.28.28,0,0,1,.14.18,6.64,6.64,0,0,0,.16.87.29.29,0,0,1-.06.22l-1.26,1.19a.62.62,0,0,0-.11.73l.59,1a.63.63,0,0,0,.69.28l1.65-.5a.32.32,0,0,1,.23.06,7.1,7.1,0,0,0,.67.56.24.24,0,0,1,.09.21l-.19,1.72a.63.63,0,0,0,.39.63l1.1.4a.63.63,0,0,0,.71-.23l.94-1.44a.32.32,0,0,1,.22-.1h.88a.26.26,0,0,1,.2.1l1,1.45a.62.62,0,0,0,.7.23l1.11-.4a.62.62,0,0,0,.39-.63l-.12-1.09h26.06a2.83,2.83,0,0,0,2.83-2.83V67.17a2.83,2.83,0,0,0-2.83-2.83H245.59l-.05-.07-.9-.75a.63.63,0,0,0-.74,0l-1.14.85h-.2a2.74,2.74,0,0,0-.64.08c-.16-.06-.31-.13-.47-.18A.23.23,0,0,1,241.3,64.09Z" transform="translate(-4.63 -5.05)"/><path class="cls-16" d="M298.9,84H275v-.06l-.91-.76a.63.63,0,0,0-.74,0L272.2,84H272a2.74,2.74,0,0,0-.64.08c-.16-.06-.31-.12-.48-.17a.26.26,0,0,1-.15-.16l-.4-1.68a.63.63,0,0,0-.58-.46h-1.18a.63.63,0,0,0-.58.46l-.4,1.67a.25.25,0,0,1-.16.17,6.34,6.34,0,0,0-.83.3.28.28,0,0,1-.22,0l-1.39-1a.63.63,0,0,0-.74,0l-.91.76a.65.65,0,0,0-.15.73l.77,1.53a.24.24,0,0,1,0,.23,7.3,7.3,0,0,0-.44.77.27.27,0,0,1-.18.13l-1.73.1a.66.66,0,0,0-.56.49l-.2,1.16a.63.63,0,0,0,.35.66l1.58.68a.28.28,0,0,1,.14.18,6.47,6.47,0,0,0,.15.88.23.23,0,0,1-.05.21l-1.26,1.19a.62.62,0,0,0-.11.73l.59,1a.63.63,0,0,0,.69.27l1.65-.49a.28.28,0,0,1,.22,0,5.27,5.27,0,0,0,.68.57.25.25,0,0,1,.09.2l-.2,1.72a.63.63,0,0,0,.39.63l1.11.41a.65.65,0,0,0,.71-.24l.94-1.43a.26.26,0,0,1,.21-.11h.88a.25.25,0,0,1,.2.09l1,1.45a.64.64,0,0,0,.7.24l1.11-.41a.63.63,0,0,0,.39-.63l-.13-1.08h26A2.85,2.85,0,0,0,301.73,93V86.8A2.84,2.84,0,0,0,298.9,84Z" transform="translate(-4.63 -5.05)"/><path class="cls-16" d="M114.43,169.34H90.57l-.06-.06-.9-.76a.63.63,0,0,0-.74,0l-1.14.84h-.2a2.72,2.72,0,0,0-.63.08c-.16-.06-.31-.12-.48-.17a.26.26,0,0,1-.15-.16l-.4-1.68a.63.63,0,0,0-.58-.46H84.11a.62.62,0,0,0-.58.46l-.4,1.67a.29.29,0,0,1-.17.17,6.34,6.34,0,0,0-.83.3.2.2,0,0,1-.21,0l-1.39-1a.6.6,0,0,0-.74,0l-.91.76a.64.64,0,0,0-.15.73l.77,1.53a.24.24,0,0,1,0,.23,4.51,4.51,0,0,0-.44.77.29.29,0,0,1-.18.13l-1.74.1a.64.64,0,0,0-.55.49l-.2,1.16a.63.63,0,0,0,.35.66l1.58.68a.27.27,0,0,1,.13.18,6.49,6.49,0,0,0,.16.88.26.26,0,0,1-.06.21l-1.26,1.19a.62.62,0,0,0-.11.73l.59,1a.63.63,0,0,0,.69.27l1.65-.49a.24.24,0,0,1,.23.06,6.13,6.13,0,0,0,.68.56.25.25,0,0,1,.09.2l-.2,1.72a.63.63,0,0,0,.39.63l1.11.41a.64.64,0,0,0,.7-.24l1-1.43a.26.26,0,0,1,.21-.11h.88a.26.26,0,0,1,.2.1l1,1.44a.65.65,0,0,0,.71.24l1.11-.41a.63.63,0,0,0,.39-.63l-.13-1.08h26.06a2.85,2.85,0,0,0,2.84-2.84v-6.2a2.84,2.84,0,0,0-2.84-2.86Z" transform="translate(-4.63 -5.05)"/><path class="cls-16" d="M181.68,169.34H157.82l-.06-.06-.9-.76a.63.63,0,0,0-.74,0l-1.14.84h-.2a2.72,2.72,0,0,0-.63.08c-.16-.06-.31-.12-.48-.17a.26.26,0,0,1-.15-.16l-.4-1.68a.63.63,0,0,0-.58-.46h-1.18a.62.62,0,0,0-.58.46l-.4,1.67a.29.29,0,0,1-.17.17,6.34,6.34,0,0,0-.83.3.2.2,0,0,1-.21,0l-1.39-1a.6.6,0,0,0-.74,0l-.91.76a.64.64,0,0,0-.15.73l.77,1.53a.24.24,0,0,1,0,.23,4.51,4.51,0,0,0-.44.77.29.29,0,0,1-.18.13l-1.74.1a.64.64,0,0,0-.55.49l-.2,1.16a.63.63,0,0,0,.35.66l1.58.68a.27.27,0,0,1,.13.18,6.49,6.49,0,0,0,.16.88.26.26,0,0,1-.06.21l-1.26,1.19a.62.62,0,0,0-.11.73l.59,1a.63.63,0,0,0,.69.27l1.65-.49a.24.24,0,0,1,.23.06,6.13,6.13,0,0,0,.68.56.25.25,0,0,1,.09.2l-.2,1.72a.63.63,0,0,0,.39.63l1.11.41a.64.64,0,0,0,.7-.24l1-1.43a.26.26,0,0,1,.21-.11h.88a.26.26,0,0,1,.2.1l.95,1.44a.65.65,0,0,0,.71.24l1.11-.41a.63.63,0,0,0,.39-.63l-.13-1.08h26.06a2.85,2.85,0,0,0,2.84-2.84v-6.2a2.86,2.86,0,0,0-2.84-2.86Z" transform="translate(-4.63 -5.05)"/><path class="cls-16" d="M235.93,169.34H212.07l-.06-.06-.9-.76a.63.63,0,0,0-.74,0l-1.14.84H209a2.72,2.72,0,0,0-.63.08c-.16-.06-.31-.12-.48-.17a.26.26,0,0,1-.15-.16l-.4-1.68a.63.63,0,0,0-.58-.46h-1.18a.62.62,0,0,0-.58.46l-.4,1.67a.29.29,0,0,1-.17.17,6.34,6.34,0,0,0-.83.3.2.2,0,0,1-.21,0l-1.39-1a.6.6,0,0,0-.74,0l-.91.76a.64.64,0,0,0-.15.73l.77,1.53a.24.24,0,0,1,0,.23,4.51,4.51,0,0,0-.44.77.29.29,0,0,1-.18.13l-1.74.1a.64.64,0,0,0-.55.49l-.2,1.16a.63.63,0,0,0,.35.66l1.58.68a.27.27,0,0,1,.13.18,6.49,6.49,0,0,0,.16.88.26.26,0,0,1-.06.21l-1.26,1.19a.62.62,0,0,0-.11.73l.59,1a.63.63,0,0,0,.69.27l1.65-.49a.24.24,0,0,1,.23.06,6.13,6.13,0,0,0,.68.56.25.25,0,0,1,.09.2l-.2,1.72a.63.63,0,0,0,.39.63l1.11.41a.64.64,0,0,0,.7-.24l1-1.43a.26.26,0,0,1,.21-.11h.88a.26.26,0,0,1,.2.1l.95,1.44a.65.65,0,0,0,.71.24l1.11-.41a.63.63,0,0,0,.39-.63l-.13-1.08H236a2.85,2.85,0,0,0,2.84-2.84v-6.2a2.86,2.86,0,0,0-2.84-2.86Z" transform="translate(-4.63 -5.05)"/><path class="cls-16" d="M249.52,151.21a2.85,2.85,0,0,0-2.84-2.83H222.82l-.06-.07-.9-.75a.63.63,0,0,0-.74,0l-1.14.85h-.2a2.72,2.72,0,0,0-.63.08,4.59,4.59,0,0,0-.48-.17.29.29,0,0,1-.15-.16l-.4-1.69a.63.63,0,0,0-.58-.46h-1.18a.63.63,0,0,0-.58.46l-.4,1.68a.29.29,0,0,1-.17.17,6.34,6.34,0,0,0-.83.3.2.2,0,0,1-.21,0l-1.39-1a.6.6,0,0,0-.74,0l-.91.75a.64.64,0,0,0-.15.73l.77,1.54a.22.22,0,0,1,0,.22,6,6,0,0,0-.44.78.23.23,0,0,1-.18.12l-1.74.11a.62.62,0,0,0-.55.49l-.2,1.16a.61.61,0,0,0,.35.65l1.58.69a.24.24,0,0,1,.13.18,6.64,6.64,0,0,0,.16.87.25.25,0,0,1-.06.22l-1.26,1.19a.62.62,0,0,0-.11.73l.59,1a.65.65,0,0,0,.69.28l1.65-.5a.32.32,0,0,1,.23.06,6.13,6.13,0,0,0,.68.56.27.27,0,0,1,.09.21l-.2,1.72a.63.63,0,0,0,.39.63l1.11.4a.62.62,0,0,0,.7-.23l1-1.44a.28.28,0,0,1,.21-.1h.88a.26.26,0,0,1,.2.1l.95,1.45a.63.63,0,0,0,.71.23l1.11-.4a.63.63,0,0,0,.39-.63l-.13-1.09h26.06a2.85,2.85,0,0,0,2.84-2.83Z" transform="translate(-4.63 -5.05)"/><path class="cls-16" d="M298.9,148.38H275v-.07l-.91-.75a.63.63,0,0,0-.74,0l-1.13.85H272a2.74,2.74,0,0,0-.64.08,4.59,4.59,0,0,0-.48-.17.29.29,0,0,1-.15-.16l-.4-1.69a.63.63,0,0,0-.58-.46h-1.18a.63.63,0,0,0-.58.46l-.4,1.68a.25.25,0,0,1-.16.17,6.34,6.34,0,0,0-.83.3.28.28,0,0,1-.22,0l-1.39-1a.63.63,0,0,0-.74,0l-.91.75a.65.65,0,0,0-.15.73l.77,1.54a.22.22,0,0,1,0,.22,7.44,7.44,0,0,0-.44.78.23.23,0,0,1-.18.12l-1.73.11a.63.63,0,0,0-.56.49l-.2,1.16a.61.61,0,0,0,.35.65l1.58.69a.28.28,0,0,1,.14.18,6.6,6.6,0,0,0,.15.87.25.25,0,0,1-.05.22l-1.26,1.19a.62.62,0,0,0-.11.73l.59,1a.63.63,0,0,0,.69.28l1.65-.5a.29.29,0,0,1,.22.06,7.22,7.22,0,0,0,.68.56.27.27,0,0,1,.09.21l-.2,1.72a.63.63,0,0,0,.39.63l1.11.4a.63.63,0,0,0,.71-.23l.94-1.44a.28.28,0,0,1,.21-.1h.88a.26.26,0,0,1,.2.1l1,1.45a.62.62,0,0,0,.7.23l1.11-.4a.63.63,0,0,0,.39-.63l-.13-1.09h26a2.83,2.83,0,0,0,2.83-2.83v-6.21a2.83,2.83,0,0,0-2.78-2.88Z" transform="translate(-4.63 -5.05)"/><path class="cls-16" d="M136.31,151H112.44v-.06l-.91-.76a.63.63,0,0,0-.74,0l-1.13.84h-.2a2.74,2.74,0,0,0-.64.08l-.47-.17a.23.23,0,0,1-.15-.15l-.41-1.69a.63.63,0,0,0-.58-.46H106a.63.63,0,0,0-.58.46l-.4,1.67a.23.23,0,0,1-.16.17,8.29,8.29,0,0,0-.83.31.28.28,0,0,1-.22,0l-1.39-1a.63.63,0,0,0-.74,0l-.9.76a.65.65,0,0,0-.16.73l.77,1.54a.22.22,0,0,1,0,.22,7.3,7.3,0,0,0-.44.77.23.23,0,0,1-.18.13l-1.73.1a.64.64,0,0,0-.55.49l-.21,1.17a.63.63,0,0,0,.35.65l1.58.68a.28.28,0,0,1,.14.18,6.47,6.47,0,0,0,.15.88.26.26,0,0,1,0,.21l-1.26,1.19a.64.64,0,0,0-.11.74l.59,1a.63.63,0,0,0,.69.27l1.65-.49a.24.24,0,0,1,.23.06,6,6,0,0,0,.67.56.25.25,0,0,1,.09.2l-.2,1.72a.66.66,0,0,0,.39.64l1.11.4a.65.65,0,0,0,.71-.23l.94-1.44a.26.26,0,0,1,.21-.11h.88a.26.26,0,0,1,.2.1l1,1.44a.62.62,0,0,0,.7.24l1.11-.4a.65.65,0,0,0,.39-.64l-.12-1.08h26.06a2.85,2.85,0,0,0,2.83-2.84v-6.2a2.84,2.84,0,0,0-2.8-2.88Z" transform="translate(-4.63 -5.05)"/><path class="cls-16" d="M42.93,148.38H19.07l-.06-.07-.9-.75a.63.63,0,0,0-.74,0l-1.14.85H16a2.72,2.72,0,0,0-.63.08,4.59,4.59,0,0,0-.48-.17.29.29,0,0,1-.15-.16l-.4-1.69a.63.63,0,0,0-.58-.46H12.61a.63.63,0,0,0-.58.46l-.4,1.68a.29.29,0,0,1-.17.17,6.34,6.34,0,0,0-.83.3.2.2,0,0,1-.21,0l-1.39-1a.6.6,0,0,0-.74,0l-.91.75a.64.64,0,0,0-.15.73L8,150.58a.22.22,0,0,1,0,.22,6,6,0,0,0-.44.78.23.23,0,0,1-.18.12l-1.74.11a.62.62,0,0,0-.55.49l-.2,1.16a.61.61,0,0,0,.35.65l1.58.69A.24.24,0,0,1,7,155a6.64,6.64,0,0,0,.16.87.25.25,0,0,1-.06.22l-1.26,1.19a.62.62,0,0,0-.11.73l.59,1a.65.65,0,0,0,.69.28l1.65-.5a.32.32,0,0,1,.23.06,6.13,6.13,0,0,0,.68.56.27.27,0,0,1,.09.21l-.2,1.72a.63.63,0,0,0,.39.63l1.11.4a.62.62,0,0,0,.7-.23l1-1.44a.28.28,0,0,1,.21-.1h.88a.26.26,0,0,1,.2.1l.95,1.45a.63.63,0,0,0,.71.23l1.11-.4a.63.63,0,0,0,.39-.63l-.13-1.09h26a2.85,2.85,0,0,0,2.84-2.83V151.2A2.84,2.84,0,0,0,42.93,148.38Z" transform="translate(-4.63 -5.05)"/><path class="cls-16" d="M5.23,13.43l1.58.69a.24.24,0,0,1,.13.18,6.64,6.64,0,0,0,.16.87.25.25,0,0,1-.06.22L5.78,16.58a.62.62,0,0,0-.11.73l.59,1a.65.65,0,0,0,.69.28L8.6,18.1a.27.27,0,0,1,.23,0c.22.2.44.39.68.57a.25.25,0,0,1,.09.2l-.2,1.72a.63.63,0,0,0,.39.63l1.11.4a.62.62,0,0,0,.7-.23l1-1.44a.28.28,0,0,1,.21-.1h.88a.26.26,0,0,1,.2.1l.95,1.45a.63.63,0,0,0,.71.23l1.11-.4a.63.63,0,0,0,.39-.63l-.13-1.09h26a2.85,2.85,0,0,0,2.84-2.83v-6.2A2.85,2.85,0,0,0,42.93,7.7H19.07L19,7.63l-.9-.75a.63.63,0,0,0-.74,0l-1.14.85H16a2.72,2.72,0,0,0-.63.08,4.59,4.59,0,0,0-.48-.17.29.29,0,0,1-.15-.16l-.4-1.69a.63.63,0,0,0-.58-.46H12.61a.63.63,0,0,0-.58.46l-.4,1.68a.29.29,0,0,1-.17.17,6.34,6.34,0,0,0-.83.3.2.2,0,0,1-.21,0L9,6.86a.6.6,0,0,0-.74,0l-.91.75a.64.64,0,0,0-.15.73L8,9.9a.22.22,0,0,1,0,.22,6,6,0,0,0-.44.78.23.23,0,0,1-.18.12l-1.74.11a.62.62,0,0,0-.55.49l-.2,1.16A.61.61,0,0,0,5.23,13.43Z" transform="translate(-4.63 -5.05)"/><path class="cls-16" d="M42.93,169.34H19.07l-.06-.06-.9-.76a.63.63,0,0,0-.74,0l-1.14.84H16a2.72,2.72,0,0,0-.63.08c-.16-.06-.31-.12-.48-.17a.26.26,0,0,1-.15-.16l-.4-1.68a.63.63,0,0,0-.58-.46H12.61a.62.62,0,0,0-.58.46l-.4,1.67a.29.29,0,0,1-.17.17,6.34,6.34,0,0,0-.83.3.2.2,0,0,1-.21,0L9,168.5a.6.6,0,0,0-.74,0l-.91.76a.64.64,0,0,0-.15.73l.8,1.55a.24.24,0,0,1,0,.23,4.51,4.51,0,0,0-.44.77.29.29,0,0,1-.18.13l-1.74.1a.64.64,0,0,0-.55.49l-.2,1.16a.63.63,0,0,0,.35.66l1.58.68a.27.27,0,0,1,.13.18,6.49,6.49,0,0,0,.16.88A.27.27,0,0,1,7,177l-1.26,1.19a.62.62,0,0,0-.11.73l.59,1a.63.63,0,0,0,.69.27l1.65-.49a.24.24,0,0,1,.23.06,6.13,6.13,0,0,0,.68.56.25.25,0,0,1,.09.2l-.2,1.72a.63.63,0,0,0,.39.63l1.11.41a.64.64,0,0,0,.7-.24l1-1.43a.26.26,0,0,1,.21-.11h.88a.26.26,0,0,1,.2.1l1,1.44a.65.65,0,0,0,.71.24l1.11-.41a.63.63,0,0,0,.39-.63l-.13-1.08H42.93a2.85,2.85,0,0,0,2.84-2.84v-6.2A2.85,2.85,0,0,0,42.93,169.34Z" transform="translate(-4.63 -5.05)"/><line class="cls-18" x1="55.93" y1="78.9" x2="38.41" y2="78.9"/><text class="cls-19" transform="translate(6.17 131.33)">8</text><text class="cls-20" transform="translate(23.89 131.33)">315</text><text class="cls-19" transform="translate(121.42 136.58)">6</text><text class="cls-20" transform="translate(139.14 136.58)">265</text><text class="cls-19" transform="translate(55.42 11.61)">5</text><text class="cls-20" transform="translate(73.14 11.61)">205</text><text class="cls-19" transform="translate(104.92 11.61)">3</text><text class="cls-20" transform="translate(122.64 11.61)">100</text><text class="cls-19" transform="translate(160.92 11.61)">8</text><text class="cls-20" transform="translate(178.64 11.61)">315</text><text class="cls-19" transform="translate(20.88 29.22)">6</text><text class="cls-20" transform="translate(38.6 29.22)">255</text><text class="cls-19" transform="translate(84.88 32.58)">3</text><text class="cls-20" transform="translate(104.97 32.58)">85</text><text class="cls-19" transform="translate(140.44 32.58)">8</text><text class="cls-20" transform="translate(158.17 32.58)">330</text><text class="cls-19" transform="translate(201.94 32.58)">7</text><text class="cls-20" transform="translate(219.67 32.58)">280</text><text class="cls-19" transform="translate(232.69 68.25)">5</text><text class="cls-20" transform="translate(250.42 68.25)">215</text><text class="cls-19" transform="translate(262.13 87.9)">3</text><text class="cls-20" transform="translate(282.22 87.9)">90</text><text class="cls-19" transform="translate(77.67 173.26)">5</text><text class="cls-20" transform="translate(95.39 173.26)">230</text><text class="cls-19" transform="translate(144.92 173.26)">5</text><text class="cls-20" transform="translate(162.64 173.26)">210</text><text class="cls-19" transform="translate(199.17 173.26)">4</text><text class="cls-20" transform="translate(216.89 173.26)">180</text><text class="cls-19" transform="translate(209.92 152.3)">6</text><text class="cls-20" transform="translate(227.64 152.3)">265</text><text class="cls-19" transform="translate(262.13 152.3)">8</text><text class="cls-20" transform="translate(279.85 152.3)">295</text><text class="cls-19" transform="translate(99.54 154.92)">7</text><text class="cls-20" transform="translate(117.27 154.92)">290</text><text class="cls-19" transform="translate(6.17 152.3)">2</text><g class="cls-21"><text class="cls-22" transform="translate(24.12 152.3)">1</text><text class="cls-20" transform="translate(28.38 152.3)">10</text></g><text class="cls-19" transform="translate(6.17 11.61)">3</text><text class="cls-20" transform="translate(23.89 11.61)">155</text><text class="cls-19" transform="translate(6.17 173.26)">3</text><text class="cls-20" transform="translate(26.25 173.26)">85</text><text class="cls-19" transform="translate(143.33 87.2)">2</text><text class="cls-19" transform="translate(165.41 152.3)">1</text><text class="cls-19" transform="translate(12.9 110.19)">3</text><path class="cls-13" d="M41.29,69.76l4.27-4.68H42.44l.14-.73h4.07l-.14.71-4.27,4.66h3.38l-.14.73H41.16Z" transform="translate(-4.63 -5.05)"/><path class="cls-13" d="M46.49,69.54h.78l-.18.91h-.78Z" transform="translate(-4.63 -5.05)"/><path class="cls-13" d="M53.43,66.14a1.37,1.37,0,0,1,.33.43l.43-2.24h.64l-1.17,6.12h-.6l.12-.62a1.93,1.93,0,0,1-.68.59,1.71,1.71,0,0,1-.77.18,1.12,1.12,0,0,1-1-.62,2.32,2.32,0,0,1-.17-1.66,3.77,3.77,0,0,1,.76-1.69,1.78,1.78,0,0,1,1.41-.71A1.1,1.1,0,0,1,53.43,66.14ZM52.07,70a1.15,1.15,0,0,0,.85-.44,2.72,2.72,0,0,0,.55-1.28A2,2,0,0,0,53.4,67a.74.74,0,0,0-.69-.41,1.24,1.24,0,0,0-.91.44,2.57,2.57,0,0,0-.56,1.26,2.22,2.22,0,0,0,0,1.2A.74.74,0,0,0,52.07,70Z" transform="translate(-4.63 -5.05)"/><path class="cls-13" d="M58.47,66.7a1.88,1.88,0,0,1,.12.78,5.59,5.59,0,0,1-.13,1H55.53a1.93,1.93,0,0,0,.08,1.09.77.77,0,0,0,.76.41,1.26,1.26,0,0,0,.91-.39,1.86,1.86,0,0,0,.36-.52h.66a2.38,2.38,0,0,1-.28.55,2.52,2.52,0,0,1-.43.49,2,2,0,0,1-.84.45,2.6,2.6,0,0,1-.56.06A1.3,1.3,0,0,1,55,70a2.21,2.21,0,0,1-.2-1.69,3.37,3.37,0,0,1,.86-1.74,2,2,0,0,1,1.49-.67,1.57,1.57,0,0,1,.79.22A1.2,1.2,0,0,1,58.47,66.7Zm-.58,1.17a2,2,0,0,0,0-.78.75.75,0,0,0-.81-.54,1.23,1.23,0,0,0-.85.37,1.9,1.9,0,0,0-.52,1Z" transform="translate(-4.63 -5.05)"/><path class="cls-13" d="M42.72,73.85h2.35a1.2,1.2,0,0,1,1.25.64,1.37,1.37,0,0,1,.07.87,1.66,1.66,0,0,1-1,1.3,1.47,1.47,0,0,1,.55.41,1.34,1.34,0,0,1,.16,1.1A2.19,2.19,0,0,1,43.87,80H41.55ZM44,79.24a1.28,1.28,0,0,0,1-.44,1.49,1.49,0,0,0,.32-.67.75.75,0,0,0-.36-.91,1.82,1.82,0,0,0-.73-.13h-1.4l-.42,2.15Zm.28-2.81a1.67,1.67,0,0,0,.76-.15,1,1,0,0,0,.57-.82.67.67,0,0,0-.28-.81,1.92,1.92,0,0,0-.71-.11H43.31L43,76.43Z" transform="translate(-4.63 -5.05)"/><path class="cls-13" d="M50.48,77.63a3.81,3.81,0,0,1-.81,1.78,2,2,0,0,1-1.6.7,1.3,1.3,0,0,1-1.19-.62,2.47,2.47,0,0,1-.17-1.67A3.47,3.47,0,0,1,47.57,76a2,2,0,0,1,1.5-.67,1.41,1.41,0,0,1,1.2.57A2.14,2.14,0,0,1,50.48,77.63Zm-.71,0a2.41,2.41,0,0,0,0-1A.79.79,0,0,0,48.9,76a1.16,1.16,0,0,0-1,.53,3.24,3.24,0,0,0-.52,1.26,2.13,2.13,0,0,0,.08,1.2.77.77,0,0,0,.8.47,1.14,1.14,0,0,0,1-.56,3.56,3.56,0,0,0,.51-1.26Z" transform="translate(-4.63 -5.05)"/><path class="cls-13" d="M51.3,75.5h.87l.62,1.57L54,75.5h.82l-1.76,2.15,1,2.28H53.2l-.67-1.67L51.24,80h-.85l1.84-2.28Z" transform="translate(-4.63 -5.05)"/><path class="cls-13" d="M58.48,76.2a1.88,1.88,0,0,1,.12.78,5.59,5.59,0,0,1-.13,1H55.54a1.77,1.77,0,0,0,.08,1.09.76.76,0,0,0,.75.41,1.26,1.26,0,0,0,.91-.39,1.86,1.86,0,0,0,.36-.52h.66a1.91,1.91,0,0,1-.28.55,2.47,2.47,0,0,1-.42.49,1.94,1.94,0,0,1-.85.45,2.6,2.6,0,0,1-.56.06A1.3,1.3,0,0,1,55,79.5a2.26,2.26,0,0,1-.19-1.69,3.29,3.29,0,0,1,.85-1.74,2,2,0,0,1,1.5-.67,1.53,1.53,0,0,1,.78.22A1.22,1.22,0,0,1,58.48,76.2Zm-.59,1.17a2,2,0,0,0,0-.78.77.77,0,0,0-.82-.54,1.23,1.23,0,0,0-.85.37,1.82,1.82,0,0,0-.51,1Z" transform="translate(-4.63 -5.05)"/><path class="cls-13" d="M59.58,78.55a.93.93,0,0,0,.06.57q.18.36.81.36a1.31,1.31,0,0,0,.7-.18.77.77,0,0,0,.39-.55.43.43,0,0,0-.15-.44,2.44,2.44,0,0,0-.53-.21l-.51-.1a2,2,0,0,1-.69-.32.79.79,0,0,1-.28-.83,1.67,1.67,0,0,1,.61-1,1.83,1.83,0,0,1,1.17-.39,1.2,1.2,0,0,1,1.19.59,1.26,1.26,0,0,1,.09.81h-.63a.81.81,0,0,0-.08-.46c-.11-.2-.36-.3-.74-.3a1,1,0,0,0-.61.17.72.72,0,0,0-.28.42.43.43,0,0,0,.17.47,1,1,0,0,0,.41.18l.42.12a2.66,2.66,0,0,1,.9.38.9.9,0,0,1,.21.9,1.75,1.75,0,0,1-.59,1,1.92,1.92,0,0,1-1.32.44,1.32,1.32,0,0,1-1.18-.45,1.57,1.57,0,0,1-.18-1.12Z" transform="translate(-4.63 -5.05)"/><text class="cls-23" transform="translate(55.52 165.16)">1</text><text class="cls-23" transform="translate(62.71 117.16)">2</text><text class="cls-23" transform="translate(103.66 111.66)">3</text><text class="cls-23" transform="translate(120.66 121.66)">4</text><text class="cls-23" transform="translate(128.96 104.91)">5</text><text class="cls-23" transform="translate(150.66 111.16)">6</text><text class="cls-23" transform="translate(175.96 110.41)">7</text><text class="cls-23" transform="translate(189.02 126.16)">8</text><text class="cls-23" transform="translate(206.91 122.16)">9</text><text class="cls-23" transform="translate(222.45 128.16)">10</text><g class="cls-21"><text class="cls-24" transform="translate(282.69 108.91)">1</text><text class="cls-23" transform="translate(285.85 108.91)">1</text></g><text class="cls-23" transform="translate(110.45 50.91)">12</text><text class="cls-23" transform="translate(115.2 101.66)">13</text><text class="cls-23" transform="translate(101.95 94.16)">14</text><text class="cls-23" transform="translate(91.2 56.66)">15</text><text class="cls-23" transform="translate(84.45 89.41)">16</text><text class="cls-23" transform="translate(78.95 111.41)">17</text><text class="cls-23" transform="translate(55.95 95.66)">18</text><text class="cls-23" transform="translate(63.2 49.66)">19</text><text class="cls-23" transform="translate(12.37 43.66)">20</text></g></svg>