<svg id="Capa_1" data-name="Capa 1" xmlns="http://www.w3.org/2000/svg" width="297.57" height="197.28" viewBox="0 0 297.57 197.28"><defs><style>.cls-1,.cls-10,.cls-16,.cls-17,.cls-18,.cls-2,.cls-3,.cls-4,.cls-5,.cls-6,.cls-8,.cls-9{fill:none;}.cls-1,.cls-10,.cls-6{stroke:#fff;}.cls-1,.cls-10,.cls-16,.cls-18,.cls-2,.cls-3,.cls-4,.cls-9{stroke-linecap:round;}.cls-1,.cls-10,.cls-16,.cls-17,.cls-18,.cls-2,.cls-3,.cls-4,.cls-5,.cls-9{stroke-linejoin:round;}.cls-1{stroke-width:8px;}.cls-2,.cls-3{stroke:#00071b;}.cls-2{stroke-width:5.4px;}.cls-3,.cls-4,.cls-5{stroke-width:2.8px;}.cls-4{stroke:#8c92a1;}.cls-5{stroke:#fff100;}.cls-6{stroke-width:1.3px;}.cls-7{fill:#ea1a4d;}.cls-16,.cls-17,.cls-18,.cls-8,.cls-9{stroke:#231f20;}.cls-9{stroke-width:1.5px;}.cls-10,.cls-15,.cls-16{stroke-width:0.5px;}.cls-11,.cls-15,.cls-20,.cls-22,.cls-24{fill:#fff;}.cls-12{fill:#ffca05;}.cls-13,.cls-19,.cls-21{fill:#231f20;}.cls-14{fill:#007dc4;}.cls-15{stroke:#007dc4;}.cls-17{stroke-width:0.25px;}.cls-18{stroke-width:0.65px;}.cls-19,.cls-20,.cls-21,.cls-22,.cls-23,.cls-24{isolation:isolate;}.cls-19,.cls-20,.cls-21{font-size:8.5px;}.cls-19,.cls-20,.cls-22,.cls-24{font-family:Helvetica-Bold, Helvetica;font-weight:700;}.cls-21{font-family:Helvetica;}.cls-22,.cls-24{font-size:7.5px;}.cls-22{letter-spacing:-0.08em;}.cls-24{letter-spacing:-0.13em;}</style></defs><g id="paul_ricard" data-name="paul ricard"><path class="cls-1" d="M171.22,96l-117-40.42c-1.88-.72-4.68-1.11-6.58-8.33S38.43,36.36,33.9,34.63s-7.9,4.7-9.14,11.08S33,48,37.64,48.91s2.72,6.56,2.34,9.67,9.53,7.61,18,11C69.11,74,77.36,81.08,84.36,87.7c8.61,8.15,12.75-2.29,18.93-2.76a14.51,14.51,0,0,1,9.82,2.51L201,151.09c6.63,4.77,7.28,2.25,6.55-3.74-1.2-9.72,10.37-14.29,15.55-8.48,14.7,16.47,30.42,10.27,37.43,6.21s11.34-1.38,11.5,4.5c.2,7.42-3.06,8.16-10.78,20.13s3.36,15.08,3.36,15.08c17.3,4.54,16.87-11.14,16.87-11.14l-.9-27.22c-.37-13.4-14.27-18-14.27-18l-59.68-20.34c-8.76-3.32-17.93-10.19-21.47-15.36-2.82-4.1-5.83-.68-9.53,2.76A4.45,4.45,0,0,1,171.22,96Z" transform="translate(-4.85 -0.45)"/><path class="cls-2" d="M171.22,96l-117-40.42c-1.88-.72-4.68-1.11-6.58-8.33S38.43,36.36,33.9,34.63s-7.9,4.7-9.14,11.08S33,48,37.64,48.91s2.72,6.56,2.34,9.67,9.53,7.61,18,11C69.11,74,77.36,81.08,84.36,87.7c8.61,8.15,12.75-2.29,18.93-2.76a14.51,14.51,0,0,1,9.82,2.51L201,151.09c6.63,4.77,7.28,2.25,6.55-3.74-1.2-9.72,10.37-14.29,15.55-8.48,14.7,16.47,30.42,10.27,37.43,6.21s11.34-1.38,11.5,4.5c.2,7.42-3.06,8.16-10.78,20.13s3.36,15.08,3.36,15.08c17.3,4.54,16.87-11.14,16.87-11.14l-.9-27.22c-.37-13.4-14.27-18-14.27-18l-59.68-20.34c-8.76-3.32-17.93-10.19-21.47-15.36-2.82-4.1-5.83-.68-9.53,2.76A4.45,4.45,0,0,1,171.22,96Z" transform="translate(-4.85 -0.45)"/><path class="cls-3" d="M140.41,105.76s25.05,17,47,27.83c0,0,3.62,1.91,3.53,4.39s3.22,6.82,5.58,8.4" transform="translate(-4.85 -0.45)"/><path class="cls-4" d="M171.22,96l-117-40.42c-1.88-.72-4.68-1.11-6.58-8.33S38.43,36.36,33.9,34.63s-7.9,4.7-9.14,11.08S33,48,37.64,48.91s2.72,6.56,2.34,9.67,9.53,7.61,18,11C69.11,74,77.36,81.08,84.36,87.7c8.61,8.15,12.75-2.29,18.93-2.76a14.51,14.51,0,0,1,9.82,2.51L201,151.09c6.63,4.77,7.28,2.25,6.55-3.74-1.2-9.72,10.37-14.29,15.55-8.48,14.7,16.47,30.42,10.27,37.43,6.21s11.34-1.38,11.5,4.5c.2,7.42-3.06,8.16-10.78,20.13s3.36,15.08,3.36,15.08c17.3,4.54,16.87-11.14,16.87-11.14l-.9-27.22c-.37-13.4-14.27-18-14.27-18l-59.68-20.34c-8.76-3.32-17.93-10.19-21.47-15.36-2.82-4.1-5.83-.68-9.53,2.76A4.45,4.45,0,0,1,171.22,96Z" transform="translate(-4.85 -0.45)"/><line class="cls-5" x1="108.26" y1="87" x2="183.77" y2="141.71"/><line class="cls-5" x1="166.37" y1="95.55" x2="65.18" y2="60.59"/><rect class="cls-6" x="101.2" y="92.28" width="9.61" height="9.61" rx="2.29"/><rect class="cls-7" x="101.2" y="92.28" width="9.61" height="9.61" rx="2.29"/><rect class="cls-6" x="73.37" y="94.61" width="9.61" height="9.61" rx="2.29"/><rect class="cls-7" x="73.37" y="94.61" width="9.61" height="9.61" rx="2.29"/><rect class="cls-6" x="24.2" y="63.61" width="9.61" height="9.61" rx="2.29"/><rect class="cls-7" x="24.2" y="63.61" width="9.61" height="9.61" rx="2.29"/><rect class="cls-6" x="21.37" y="52.94" width="9.61" height="9.61" rx="2.29"/><rect class="cls-7" x="21.37" y="52.94" width="9.61" height="9.61" rx="2.29"/><rect class="cls-6" x="23.54" y="36.94" width="9.61" height="9.61" rx="2.29"/><rect class="cls-7" x="23.54" y="36.94" width="9.61" height="9.61" rx="2.29"/><rect class="cls-6" x="28.45" y="21.07" width="9.61" height="9.61" rx="2.29"/><rect class="cls-7" x="28.45" y="21.07" width="9.61" height="9.61" rx="2.29"/><rect class="cls-6" x="49.54" y="41.61" width="9.61" height="9.61" rx="2.29"/><rect class="cls-7" x="49.54" y="41.61" width="9.61" height="9.61" rx="2.29"/><rect class="cls-6" x="167.04" y="99.61" width="9.61" height="9.61" rx="2.29"/><rect class="cls-7" x="167.04" y="99.61" width="9.61" height="9.61" rx="2.29"/><rect class="cls-6" x="178.2" y="76.94" width="9.61" height="9.61" rx="2.29"/><rect class="cls-7" x="178.2" y="76.94" width="9.61" height="9.61" rx="2.29"/><rect class="cls-6" x="276.04" y="124.61" width="9.61" height="9.61" rx="2.29"/><rect class="cls-7" x="276.04" y="124.61" width="9.61" height="9.61" rx="2.29"/><rect class="cls-6" x="273.87" y="186.28" width="9.61" height="9.61" rx="2.29"/><rect class="cls-7" x="273.87" y="186.28" width="9.61" height="9.61" rx="2.29"/><rect class="cls-6" x="250.04" y="150.61" width="9.61" height="9.61" rx="2.29"/><rect class="cls-7" x="250.04" y="150.61" width="9.61" height="9.61" rx="2.29"/><rect class="cls-6" x="235.87" y="135.61" width="9.61" height="9.61" rx="2.29"/><rect class="cls-7" x="235.87" y="135.61" width="9.61" height="9.61" rx="2.29"/><rect class="cls-6" x="207.7" y="142.28" width="9.61" height="9.61" rx="2.29"/><rect class="cls-7" x="207.7" y="142.28" width="9.61" height="9.61" rx="2.29"/><rect class="cls-6" x="204.2" y="155.94" width="9.61" height="9.61" rx="2.29"/><rect class="cls-7" x="204.2" y="155.94" width="9.61" height="9.61" rx="2.29"/><path class="cls-8" d="M139.89,86.6a1.42,1.42,0,1,0-1.42-1.42h0A1.43,1.43,0,0,0,139.89,86.6Z" transform="translate(-4.85 -0.45)"/><line class="cls-9" x1="135.04" y1="84.73" x2="135.04" y2="36.29"/><line class="cls-10" x1="135.04" y1="84.73" x2="135.04" y2="36.29"/><path class="cls-11" d="M139.89,86.6a1.42,1.42,0,1,0-1.42-1.42h0A1.43,1.43,0,0,0,139.89,86.6Z" transform="translate(-4.85 -0.45)"/><path class="cls-8" d="M173.89,97.64a1.42,1.42,0,1,0-1.42-1.42h0A1.44,1.44,0,0,0,173.89,97.64Z" transform="translate(-4.85 -0.45)"/><polyline class="cls-9" points="169.04 95.77 169.04 8.44 197.31 8.44"/><polyline class="cls-10" points="169.04 95.77 169.04 8.44 197.31 8.44"/><path class="cls-11" d="M173.89,97.64a1.42,1.42,0,1,0-1.42-1.42h0A1.44,1.44,0,0,0,173.89,97.64Z" transform="translate(-4.85 -0.45)"/><path class="cls-8" d="M180.17,93a1.42,1.42,0,1,0-1.42-1.42h0A1.41,1.41,0,0,0,180.16,93Z" transform="translate(-4.85 -0.45)"/><polyline class="cls-9" points="175.32 91.08 175.32 32.45 198.6 32.45"/><polyline class="cls-10" points="175.32 91.08 175.32 32.45 198.6 32.45"/><path class="cls-11" d="M180.17,93a1.42,1.42,0,1,0-1.42-1.42h0A1.41,1.41,0,0,0,180.16,93Z" transform="translate(-4.85 -0.45)"/><path class="cls-8" d="M210.25,110.73a1.42,1.42,0,1,0-1.42-1.42h0A1.43,1.43,0,0,0,210.25,110.73Z" transform="translate(-4.85 -0.45)"/><line class="cls-9" x1="205.4" y1="108.86" x2="205.4" y2="57.04"/><line class="cls-10" x1="205.4" y1="108.86" x2="205.4" y2="57.04"/><path class="cls-11" d="M210.25,110.73a1.42,1.42,0,1,0-1.42-1.42h0A1.43,1.43,0,0,0,210.25,110.73Z" transform="translate(-4.85 -0.45)"/><path class="cls-8" d="M215.48,137.86a1.42,1.42,0,1,0-1.42-1.42h0A1.42,1.42,0,0,0,215.48,137.86Z" transform="translate(-4.85 -0.45)"/><polyline class="cls-9" points="210.63 136 210.63 130.43 230.53 130.43"/><polyline class="cls-10" points="210.63 136 210.63 130.43 230.53 130.43"/><path class="cls-11" d="M215.48,137.86a1.42,1.42,0,1,0-1.42-1.42h0A1.42,1.42,0,0,0,215.48,137.86Z" transform="translate(-4.85 -0.45)"/><path class="cls-8" d="M228,116.78a1.42,1.42,0,1,0-1.42-1.42h0A1.43,1.43,0,0,0,228,116.78Z" transform="translate(-4.85 -0.45)"/><line class="cls-9" x1="223.15" y1="114.91" x2="223.15" y2="80.01"/><line class="cls-10" x1="223.15" y1="114.91" x2="223.15" y2="80.01"/><path class="cls-11" d="M228,116.78a1.42,1.42,0,1,0-1.42-1.42h0A1.43,1.43,0,0,0,228,116.78Z" transform="translate(-4.85 -0.45)"/><path class="cls-8" d="M273.94,134.23a1.42,1.42,0,1,0-1.42-1.42,1.41,1.41,0,0,0,1.4,1.42Z" transform="translate(-4.85 -0.45)"/><line class="cls-9" x1="269.09" y1="132.36" x2="269.09" y2="105.09"/><line class="cls-10" x1="269.09" y1="132.36" x2="269.09" y2="105.09"/><path class="cls-11" d="M273.94,134.23a1.42,1.42,0,1,0-1.42-1.42,1.41,1.41,0,0,0,1.4,1.42Z" transform="translate(-4.85 -0.45)"/><path class="cls-8" d="M52,55.89a1.42,1.42,0,1,0-1.42-1.42h0A1.44,1.44,0,0,0,52,55.89Z" transform="translate(-4.85 -0.45)"/><polyline class="cls-9" points="47.12 54.02 47.12 35.93 67.02 35.93"/><polyline class="cls-10" points="47.12 54.02 47.12 35.93 67.02 35.93"/><path class="cls-11" d="M52,55.89a1.42,1.42,0,1,0-1.42-1.42h0A1.44,1.44,0,0,0,52,55.89Z" transform="translate(-4.85 -0.45)"/><path class="cls-8" d="M45.41,43.8A1.42,1.42,0,1,0,44,42.37h0A1.43,1.43,0,0,0,45.41,43.8Z" transform="translate(-4.85 -0.45)"/><polyline class="cls-9" points="40.56 41.93 40.56 20.7 53.84 20.7 53.84 9.17"/><polyline class="cls-10" points="40.56 41.93 40.56 20.7 53.84 20.7 53.84 9.17"/><path class="cls-11" d="M45.41,43.8A1.42,1.42,0,1,0,44,42.37h0A1.43,1.43,0,0,0,45.41,43.8Z" transform="translate(-4.85 -0.45)"/><path class="cls-8" d="M31,35.89a1.42,1.42,0,1,0-1.42-1.42h0A1.43,1.43,0,0,0,31,35.89Z" transform="translate(-4.85 -0.45)"/><line class="cls-9" x1="26.15" y1="34.02" x2="26.15" y2="8.84"/><line class="cls-10" x1="26.15" y1="34.02" x2="26.15" y2="8.84"/><path class="cls-11" d="M31,35.89a1.42,1.42,0,1,0-1.42-1.42h0A1.43,1.43,0,0,0,31,35.89Z" transform="translate(-4.85 -0.45)"/><path class="cls-8" d="M245.23,148.4a1.42,1.42,0,1,1-1.42,1.42h0a1.41,1.41,0,0,1,1.41-1.41Z" transform="translate(-4.85 -0.45)"/><line class="cls-9" x1="240.38" y1="149.36" x2="240.38" y2="180.92"/><line class="cls-10" x1="240.38" y1="149.36" x2="240.38" y2="180.92"/><path class="cls-11" d="M245.23,148.4a1.42,1.42,0,1,1-1.42,1.42h0a1.41,1.41,0,0,1,1.41-1.41Z" transform="translate(-4.85 -0.45)"/><path class="cls-8" d="M206.86,152.07a1.42,1.42,0,1,1-1.42,1.42h0A1.44,1.44,0,0,1,206.86,152.07Z" transform="translate(-4.85 -0.45)"/><polyline class="cls-9" points="202.01 153.04 202.01 186.69 196.63 186.69"/><polyline class="cls-10" points="202.01 153.04 202.01 186.69 196.63 186.69"/><path class="cls-11" d="M206.86,152.07a1.42,1.42,0,1,1-1.42,1.42h0A1.44,1.44,0,0,1,206.86,152.07Z" transform="translate(-4.85 -0.45)"/><path class="cls-8" d="M159,119.25a1.42,1.42,0,1,1-1.42,1.42h0A1.43,1.43,0,0,1,159,119.25Z" transform="translate(-4.85 -0.45)"/><line class="cls-9" x1="154.11" y1="120.22" x2="154.11" y2="160.33"/><line class="cls-10" x1="154.11" y1="120.22" x2="154.11" y2="160.33"/><path class="cls-11" d="M159,119.25a1.42,1.42,0,1,1-1.42,1.42h0A1.43,1.43,0,0,1,159,119.25Z" transform="translate(-4.85 -0.45)"/><path class="cls-8" d="M123.22,93.36a1.42,1.42,0,1,1-1.42,1.42h0A1.43,1.43,0,0,1,123.22,93.36Z" transform="translate(-4.85 -0.45)"/><line class="cls-9" x1="118.37" y1="94.33" x2="118.37" y2="127.21"/><line class="cls-10" x1="118.37" y1="94.33" x2="118.37" y2="127.21"/><path class="cls-11" d="M123.22,93.36a1.42,1.42,0,1,1-1.42,1.42h0A1.43,1.43,0,0,1,123.22,93.36Z" transform="translate(-4.85 -0.45)"/><path class="cls-8" d="M104.21,83.47a1.42,1.42,0,1,1-1.42,1.42h0A1.43,1.43,0,0,1,104.21,83.47Z" transform="translate(-4.85 -0.45)"/><line class="cls-9" x1="99.36" y1="84.44" x2="99.36" y2="154.47"/><line class="cls-10" x1="99.36" y1="84.44" x2="99.36" y2="154.47"/><path class="cls-11" d="M104.21,83.47a1.42,1.42,0,1,1-1.42,1.42h0A1.43,1.43,0,0,1,104.21,83.47Z" transform="translate(-4.85 -0.45)"/><path class="cls-8" d="M90.84,89.39a1.42,1.42,0,1,1-1.41,1.43v0A1.42,1.42,0,0,1,90.84,89.39Z" transform="translate(-4.85 -0.45)"/><polyline class="cls-9" points="86 90.35 86 186.79 98.77 186.79"/><polyline class="cls-10" points="86 90.35 86 186.79 98.77 186.79"/><path class="cls-11" d="M90.84,89.39a1.42,1.42,0,1,1-1.41,1.43v0A1.42,1.42,0,0,1,90.84,89.39Z" transform="translate(-4.85 -0.45)"/><path class="cls-8" d="M55,67.07a1.42,1.42,0,1,1-1.41,1.43h0A1.42,1.42,0,0,1,55,67.07Z" transform="translate(-4.85 -0.45)"/><line class="cls-9" x1="50.15" y1="68.04" x2="50.15" y2="133.17"/><line class="cls-10" x1="50.15" y1="68.04" x2="50.15" y2="133.17"/><path class="cls-11" d="M55,67.07a1.42,1.42,0,1,1-1.41,1.43h0A1.42,1.42,0,0,1,55,67.07Z" transform="translate(-4.85 -0.45)"/><path class="cls-8" d="M40.84,59.11a1.42,1.42,0,1,1-1.42,1.42h0A1.43,1.43,0,0,1,40.84,59.11Z" transform="translate(-4.85 -0.45)"/><line class="cls-9" x1="35.99" y1="60.08" x2="35.99" y2="160.17"/><line class="cls-10" x1="35.99" y1="60.08" x2="35.99" y2="160.17"/><path class="cls-11" d="M40.84,59.11a1.42,1.42,0,1,1-1.42,1.42h0A1.43,1.43,0,0,1,40.84,59.11Z" transform="translate(-4.85 -0.45)"/><path class="cls-8" d="M26.1,47.81a1.42,1.42,0,1,1-1.42-1.42h0A1.41,1.41,0,0,1,26.1,47.8Z" transform="translate(-4.85 -0.45)"/><polyline class="cls-9" points="19.84 47.36 5.96 47.36 5.96 186.68 50.17 186.68"/><polyline class="cls-10" points="19.84 47.36 5.96 47.36 5.96 186.68 50.17 186.68"/><path class="cls-11" d="M26.1,47.81a1.42,1.42,0,1,1-1.42-1.42h0A1.41,1.41,0,0,1,26.1,47.8Z" transform="translate(-4.85 -0.45)"/><path class="cls-8" d="M27.57,40.44A1.42,1.42,0,1,1,26.16,39a1.43,1.43,0,0,1,1.41,1.44Z" transform="translate(-4.85 -0.45)"/><polyline class="cls-9" points="21.32 39.99 5.96 39.99 5.96 25.46"/><polyline class="cls-10" points="21.32 39.99 5.96 39.99 5.96 25.46"/><path class="cls-11" d="M27.57,40.44A1.42,1.42,0,1,1,26.16,39a1.43,1.43,0,0,1,1.41,1.44Z" transform="translate(-4.85 -0.45)"/><rect class="cls-12" x="48.15" y="2.65" width="11.87" height="11.87" rx="2.83"/><polygon class="cls-13" points="50.42 10.28 49.8 12.68 58.38 12.68 57.76 10.28 50.42 10.28"/><polygon class="cls-13" points="51.09 4.46 49.8 9.38 58.38 9.38 57.09 4.46 51.09 4.46"/><rect class="cls-12" x="223.48" y="124.65" width="11.87" height="11.87" rx="2.83"/><polygon class="cls-13" points="225.75 132.28 225.13 134.68 233.72 134.68 233.09 132.28 225.75 132.28"/><polygon class="cls-13" points="226.41 126.46 225.13 131.38 233.72 131.38 232.43 126.46 226.41 126.46"/><rect class="cls-13" x="99.35" y="154.47" width="32.57" height="11.87" rx="2.83"/><polygon class="cls-11" points="114.2 158.11 112.75 158.11 112.91 157.42 114.36 157.42 114.2 158.11"/><polygon class="cls-11" points="113.83 159.88 111.44 159.88 111.58 159.2 113.98 159.2 113.83 159.88"/><polygon class="cls-11" points="113.45 161.66 110.11 161.66 110.25 160.97 113.61 160.97 113.45 161.66"/><polygon class="cls-11" points="113.08 163.44 108.78 163.44 108.94 162.75 113.22 162.75 113.08 163.44"/><path class="cls-14" d="M102.47,154.83a6.34,6.34,0,0,0-.83.3.28.28,0,0,1-.22,0l-1.39-1a.63.63,0,0,0-.74,0l-.9.76a.6.6,0,0,0-.15.72l.76,1.54a.22.22,0,0,1,0,.22,6.06,6.06,0,0,0-.45.78.24.24,0,0,1-.18.13l-1.73.1a.61.61,0,0,0-.55.49L95.88,160a.67.67,0,0,0,.35.66l1.58.68a.28.28,0,0,1,.14.18,6.6,6.6,0,0,0,.15.87.28.28,0,0,1,0,.22l-1.26,1.19a.62.62,0,0,0-.11.73l.59,1a.63.63,0,0,0,.69.27l1.65-.49a.31.31,0,0,1,.23,0c.21.2.44.39.67.57a.25.25,0,0,1,.09.2l-.19,1.72a.63.63,0,0,0,.38.63l1.11.4a.63.63,0,0,0,.71-.23l.94-1.43a.26.26,0,0,1,.21-.11h.88a.22.22,0,0,1,.2.09l1,1.45a.62.62,0,0,0,.7.23l1.11-.4a.63.63,0,0,0,.39-.63l-.2-1.71a.26.26,0,0,1,.1-.22,7.1,7.1,0,0,0,.67-.56.26.26,0,0,1,.21-.06l1.67.5a.63.63,0,0,0,.68-.27l.6-1a.64.64,0,0,0-.11-.73l-1.25-1.18a.28.28,0,0,1-.07-.23,6.49,6.49,0,0,0,.16-.88.26.26,0,0,1,.12-.17l1.59-.69a.61.61,0,0,0,.35-.65l-.2-1.16a.63.63,0,0,0-.56-.49l-1.71-.1a.25.25,0,0,1-.2-.14,7.3,7.3,0,0,0-.44-.77.26.26,0,0,1,0-.21l.78-1.55a.63.63,0,0,0-.15-.72l-.91-.76a.6.6,0,0,0-.74,0l-1.38,1a.24.24,0,0,1-.23,0,6.34,6.34,0,0,0-.83-.3.26.26,0,0,1-.15-.16l-.41-1.68a.62.62,0,0,0-.58-.47h-1.18a.62.62,0,0,0-.58.47l-.4,1.67a.25.25,0,0,1-.25.25Z" transform="translate(-4.85 -0.45)"/><path class="cls-15" d="M104.2,155.79a5.07,5.07,0,1,0,5.07,5.07,5.07,5.07,0,0,0-5.07-5.07Z" transform="translate(-4.85 -0.45)"/><rect class="cls-13" x="118.36" y="127.21" width="32.57" height="11.87" rx="2.83"/><polygon class="cls-11" points="133.22 130.85 131.76 130.85 131.91 130.16 133.37 130.16 133.22 130.85"/><polygon class="cls-11" points="132.84 132.63 130.44 132.63 130.59 131.94 132.99 131.94 132.84 132.63"/><polygon class="cls-11" points="132.47 134.4 129.13 134.4 129.26 133.72 132.62 133.72 132.47 134.4"/><polygon class="cls-11" points="132.09 136.18 127.8 136.18 127.94 135.49 132.24 135.49 132.09 136.18"/><path class="cls-14" d="M121.48,127.57a5.21,5.21,0,0,0-.83.31.28.28,0,0,1-.22,0l-1.39-1a.63.63,0,0,0-.74,0l-.91.76a.65.65,0,0,0-.15.73l.77,1.54a.22.22,0,0,1,0,.22,7.3,7.3,0,0,0-.44.77.24.24,0,0,1-.18.13l-1.73.1a.64.64,0,0,0-.55.49l-.21,1.17a.65.65,0,0,0,.35.65l1.58.68a.28.28,0,0,1,.14.18,6.47,6.47,0,0,0,.15.88.26.26,0,0,1,0,.21l-1.26,1.19a.64.64,0,0,0-.11.74l.59,1a.63.63,0,0,0,.69.27l1.65-.49a.24.24,0,0,1,.23.06,6,6,0,0,0,.67.56.25.25,0,0,1,.09.2l-.2,1.72a.66.66,0,0,0,.39.64l1.11.4a.65.65,0,0,0,.71-.23l.94-1.44a.26.26,0,0,1,.21-.11h.88a.26.26,0,0,1,.2.1l1,1.44a.62.62,0,0,0,.7.24l1.11-.41a.63.63,0,0,0,.39-.63l-.2-1.71a.27.27,0,0,1,.09-.21c.24-.18.46-.37.68-.57a.26.26,0,0,1,.21-.06l1.67.5a.63.63,0,0,0,.68-.27l.59-1a.64.64,0,0,0-.1-.74l-1.25-1.18a.25.25,0,0,1-.07-.23,6.49,6.49,0,0,0,.16-.88.22.22,0,0,1,.12-.16l1.59-.69a.62.62,0,0,0,.35-.65l-.2-1.17a.64.64,0,0,0-.56-.49l-1.71-.1a.28.28,0,0,1-.2-.13,6.06,6.06,0,0,0-.45-.78.23.23,0,0,1,0-.2l.78-1.55a.65.65,0,0,0-.15-.73l-.91-.76a.63.63,0,0,0-.74,0l-1.38,1a.31.31,0,0,1-.23,0,6.34,6.34,0,0,0-.83-.3.23.23,0,0,1-.15-.15l-.41-1.69a.63.63,0,0,0-.58-.46h-1.18a.63.63,0,0,0-.58.46l-.4,1.67A.24.24,0,0,1,121.48,127.57Z" transform="translate(-4.85 -0.45)"/><path class="cls-15" d="M123.21,128.53a5.07,5.07,0,1,0,5.07,5.07,5.07,5.07,0,0,0-5.07-5.07Z" transform="translate(-4.85 -0.45)"/><rect class="cls-13" x="99.35" y="180.83" width="32.57" height="11.87" rx="2.83"/><polygon class="cls-11" points="114.2 184.46 112.75 184.46 112.91 183.77 114.36 183.77 114.2 184.46"/><polygon class="cls-11" points="113.83 186.24 111.44 186.24 111.58 185.55 113.98 185.55 113.83 186.24"/><polygon class="cls-11" points="113.45 188.02 110.11 188.02 110.25 187.33 113.61 187.33 113.45 188.02"/><polygon class="cls-11" points="113.08 189.8 108.78 189.8 108.94 189.11 113.22 189.11 113.08 189.8"/><path class="cls-14" d="M102.47,181.19a6.34,6.34,0,0,0-.83.3.41.41,0,0,1-.22,0l-1.39-1a.66.66,0,0,0-.74,0l-.9.76a.64.64,0,0,0-.15.73l.76,1.54a.22.22,0,0,1,0,.22,6.06,6.06,0,0,0-.45.78.23.23,0,0,1-.18.12l-1.73.11a.61.61,0,0,0-.55.49l-.21,1.16a.65.65,0,0,0,.35.65l1.58.69a.26.26,0,0,1,.14.17,6.47,6.47,0,0,0,.15.88.26.26,0,0,1,0,.21l-1.26,1.2a.62.62,0,0,0-.11.73l.59,1a.6.6,0,0,0,.69.27l1.65-.49a.27.27,0,0,1,.23.06,6,6,0,0,0,.67.56.25.25,0,0,1,.09.2l-.19,1.73a.63.63,0,0,0,.38.63l1.11.4a.63.63,0,0,0,.71-.23l.94-1.44a.25.25,0,0,1,.21-.1h.88a.26.26,0,0,1,.2.1l1,1.45a.63.63,0,0,0,.7.23l1.11-.4a.63.63,0,0,0,.39-.63l-.2-1.71a.26.26,0,0,1,.1-.22,5.18,5.18,0,0,0,.67-.57.27.27,0,0,1,.21-.05l1.67.49a.61.61,0,0,0,.68-.27l.6-1a.65.65,0,0,0-.11-.74l-1.34-1.2a.26.26,0,0,1-.07-.22,6.49,6.49,0,0,0,.16-.88.26.26,0,0,1,.12-.17l1.59-.69a.61.61,0,0,0,.35-.65l-.2-1.16a.64.64,0,0,0-.56-.5l-1.71-.1a.28.28,0,0,1-.2-.13,7.3,7.3,0,0,0-.44-.77.26.26,0,0,1,0-.21l.78-1.55a.65.65,0,0,0-.15-.73l-.91-.76a.66.66,0,0,0-.74,0l-1.38,1a.31.31,0,0,1-.23,0,8.29,8.29,0,0,0-.83-.31.23.23,0,0,1-.15-.15l-.41-1.69a.63.63,0,0,0-.58-.46h-1.18a.63.63,0,0,0-.58.46l-.4,1.67A.27.27,0,0,1,102.47,181.19Z" transform="translate(-4.85 -0.45)"/><path class="cls-15" d="M104.2,182.14a5.08,5.08,0,1,0,5.07,5.09v0a5.07,5.07,0,0,0-5.07-5.07Z" transform="translate(-4.85 -0.45)"/><rect class="cls-13" x="215.56" y="180.83" width="32.57" height="11.87" rx="2.83"/><polygon class="cls-11" points="230.41 184.46 228.97 184.46 229.1 183.77 230.56 183.77 230.41 184.46"/><polygon class="cls-11" points="230.03 186.24 227.63 186.24 227.78 185.55 230.19 185.55 230.03 186.24"/><polygon class="cls-11" points="229.66 188.02 226.31 188.02 226.47 187.33 229.81 187.33 229.66 188.02"/><polygon class="cls-11" points="229.28 189.8 225 189.8 225.13 189.11 229.44 189.11 229.28 189.8"/><path class="cls-14" d="M218.68,181.19a6,6,0,0,0-.84.3.37.37,0,0,1-.21,0l-1.39-1a.66.66,0,0,0-.74,0l-.91.76a.64.64,0,0,0-.15.73l.77,1.54a.22.22,0,0,1,0,.22,6,6,0,0,0-.44.78.28.28,0,0,1-.18.12l-1.73.11a.63.63,0,0,0-.56.49l-.2,1.16a.61.61,0,0,0,.35.65l1.58.69a.23.23,0,0,1,.13.17,6.49,6.49,0,0,0,.16.88.23.23,0,0,1-.06.21L213,190.2a.62.62,0,0,0-.1.73l.59,1a.6.6,0,0,0,.69.27l1.64-.49a.24.24,0,0,1,.23.06,6.13,6.13,0,0,0,.68.56.25.25,0,0,1,.09.2l-.2,1.73a.63.63,0,0,0,.39.63l1.11.4a.62.62,0,0,0,.7-.23l1-1.44a.25.25,0,0,1,.21-.1h.88a.26.26,0,0,1,.2.1l1,1.45a.63.63,0,0,0,.7.23l1.11-.4a.63.63,0,0,0,.39-.63l-.2-1.71a.24.24,0,0,1,.09-.22,5.27,5.27,0,0,0,.68-.57.23.23,0,0,1,.21-.05l1.66.49a.6.6,0,0,0,.69-.27l.59-1a.64.64,0,0,0-.11-.74l-1.3-1.2a.25.25,0,0,1-.06-.22,6.47,6.47,0,0,0,.15-.88.25.25,0,0,1,.13-.17l1.59-.69a.62.62,0,0,0,.35-.65l-.2-1.16a.65.65,0,0,0-.56-.5l-1.72-.1a.26.26,0,0,1-.19-.13,5.35,5.35,0,0,0-.45-.77.26.26,0,0,1,0-.21l.77-1.55a.64.64,0,0,0-.15-.73l-.9-.76a.66.66,0,0,0-.74,0l-1.38,1a.33.33,0,0,1-.24,0,8.29,8.29,0,0,0-.83-.31A.24.24,0,0,1,222,181l-.4-1.69a.63.63,0,0,0-.58-.46h-1.18a.63.63,0,0,0-.58.46l-.4,1.67A.34.34,0,0,1,218.68,181.19Z" transform="translate(-4.85 -0.45)"/><path class="cls-15" d="M220.41,182.14a5.08,5.08,0,1,0,5.07,5.09v0a5.07,5.07,0,0,0-5.07-5.07Z" transform="translate(-4.85 -0.45)"/><rect class="cls-13" x="50.15" y="127.21" width="32.57" height="11.87" rx="2.83"/><polygon class="cls-11" points="65.02 130.85 63.55 130.85 63.7 130.16 65.16 130.16 65.02 130.85"/><polygon class="cls-11" points="64.64 132.63 62.23 132.63 62.38 131.94 64.78 131.94 64.64 132.63"/><polygon class="cls-11" points="64.27 134.4 60.91 134.4 61.05 133.72 64.41 133.72 64.27 134.4"/><polygon class="cls-11" points="63.88 136.18 59.59 136.18 59.73 135.49 64.03 135.49 63.88 136.18"/><path class="cls-14" d="M53.27,127.57a8.29,8.29,0,0,0-.83.31.26.26,0,0,1-.21,0l-1.4-1a.63.63,0,0,0-.74,0l-.9.76a.64.64,0,0,0-.15.73l.77,1.54a.28.28,0,0,1,0,.22,5.35,5.35,0,0,0-.45.77.23.23,0,0,1-.18.13l-1.73.1a.64.64,0,0,0-.55.49l-.21,1.17a.64.64,0,0,0,.36.65l1.58.68a.27.27,0,0,1,.13.18,6.49,6.49,0,0,0,.16.88.26.26,0,0,1-.06.21l-1.26,1.19a.64.64,0,0,0-.11.74l.59,1a.63.63,0,0,0,.69.27l1.65-.49a.24.24,0,0,1,.23.06,7.1,7.1,0,0,0,.67.56.26.26,0,0,1,.1.2l-.2,1.72a.65.65,0,0,0,.39.64l1.1.4a.65.65,0,0,0,.71-.23l.94-1.44a.27.27,0,0,1,.22-.11h.88a.26.26,0,0,1,.2.1l1,1.44a.62.62,0,0,0,.7.24l1.11-.41a.63.63,0,0,0,.39-.63l-.19-1.71a.22.22,0,0,1,.09-.21c.23-.18.46-.37.67-.57a.26.26,0,0,1,.21,0l1.67.49a.63.63,0,0,0,.69-.27l.59-1a.64.64,0,0,0-.11-.74l-1.25-1.18a.28.28,0,0,1-.07-.23,5.24,5.24,0,0,0,.16-.88.25.25,0,0,1,.12-.16L63,133.4a.64.64,0,0,0,.36-.65l-.21-1.17a.64.64,0,0,0-.55-.49l-1.72-.1a.28.28,0,0,1-.2-.13,7.44,7.44,0,0,0-.44-.78.23.23,0,0,1,0-.2l.78-1.55a.64.64,0,0,0-.15-.73l-.9-.76a.63.63,0,0,0-.74,0l-1.39,1a.24.24,0,0,1-.23,0,6.34,6.34,0,0,0-.83-.3.23.23,0,0,1-.15-.15l-.41-1.69a.63.63,0,0,0-.58-.46H54.41a.63.63,0,0,0-.58.46l-.4,1.67A.24.24,0,0,1,53.27,127.57Z" transform="translate(-4.85 -0.45)"/><path class="cls-15" d="M55,128.53a5.07,5.07,0,1,0,5.07,5.07A5.07,5.07,0,0,0,55,128.53Z" transform="translate(-4.85 -0.45)"/><rect class="cls-13" x="50.15" y="180.83" width="32.57" height="11.87" rx="2.83"/><polygon class="cls-11" points="65.02 184.46 63.55 184.46 63.7 183.77 65.16 183.77 65.02 184.46"/><polygon class="cls-11" points="64.64 186.24 62.23 186.24 62.38 185.55 64.78 185.55 64.64 186.24"/><polygon class="cls-11" points="64.27 188.02 60.91 188.02 61.05 187.33 64.41 187.33 64.27 188.02"/><polygon class="cls-11" points="63.88 189.8 59.59 189.8 59.73 189.11 64.03 189.11 63.88 189.8"/><path class="cls-14" d="M53.27,181.19a6.34,6.34,0,0,0-.83.3.26.26,0,0,1-.21,0l-1.4-1a.66.66,0,0,0-.74,0l-.9.76A.64.64,0,0,0,49,182l.77,1.54a.28.28,0,0,1,0,.22,6.06,6.06,0,0,0-.45.78.23.23,0,0,1-.18.12l-1.73.11a.61.61,0,0,0-.55.49l-.21,1.16a.63.63,0,0,0,.31.6l1.58.69a.25.25,0,0,1,.13.17,6.49,6.49,0,0,0,.16.88.26.26,0,0,1-.06.21l-1.26,1.2a.62.62,0,0,0-.11.73l.59,1a.6.6,0,0,0,.69.27l1.65-.49a.27.27,0,0,1,.23.06,7.1,7.1,0,0,0,.67.56.26.26,0,0,1,.1.2l-.2,1.73a.63.63,0,0,0,.39.63l1.1.4a.63.63,0,0,0,.71-.23l.94-1.44a.26.26,0,0,1,.22-.1h.88a.26.26,0,0,1,.2.1l1,1.45a.63.63,0,0,0,.7.23l1.11-.4a.63.63,0,0,0,.39-.63l-.19-1.71a.24.24,0,0,1,.09-.22,5.18,5.18,0,0,0,.67-.57.27.27,0,0,1,.21-.05l1.67.49a.6.6,0,0,0,.69-.27l.59-1a.64.64,0,0,0-.11-.74L61.17,189a.26.26,0,0,1-.07-.22,5.24,5.24,0,0,0,.16-.88.3.3,0,0,1,.12-.17L63,187a.64.64,0,0,0,.36-.65l-.21-1.16a.64.64,0,0,0-.55-.5l-1.72-.1a.28.28,0,0,1-.2-.13,7.3,7.3,0,0,0-.44-.77.26.26,0,0,1,0-.21l.78-1.55a.64.64,0,0,0-.15-.73l-.9-.76a.66.66,0,0,0-.74,0l-1.39,1a.31.31,0,0,1-.23,0,8.29,8.29,0,0,0-.83-.31.23.23,0,0,1-.15-.15l-.41-1.69a.63.63,0,0,0-.58-.46H54.41a.63.63,0,0,0-.58.46l-.4,1.67A.26.26,0,0,1,53.27,181.19Z" transform="translate(-4.85 -0.45)"/><path class="cls-15" d="M55,182.14a5.08,5.08,0,1,0,5.07,5.09v0A5.07,5.07,0,0,0,55,182.14Z" transform="translate(-4.85 -0.45)"/><rect class="cls-13" x="163.79" y="180.83" width="32.57" height="11.87" rx="2.83"/><polygon class="cls-11" points="178.65 184.46 177.19 184.46 177.34 183.77 178.79 183.77 178.65 184.46"/><polygon class="cls-11" points="178.28 186.24 175.88 186.24 176.01 185.55 178.41 185.55 178.28 186.24"/><polygon class="cls-11" points="177.9 188.02 174.56 188.02 174.69 187.33 178.04 187.33 177.9 188.02"/><polygon class="cls-11" points="177.53 189.8 173.22 189.8 173.38 189.11 177.66 189.11 177.53 189.8"/><path class="cls-14" d="M166.91,181.19a6.34,6.34,0,0,0-.83.3.41.41,0,0,1-.22,0l-1.39-1a.66.66,0,0,0-.74,0l-.9.76a.65.65,0,0,0-.16.73l.77,1.54a.22.22,0,0,1,0,.22,7.44,7.44,0,0,0-.44.78.23.23,0,0,1-.18.12l-1.73.11a.61.61,0,0,0-.55.49l-.21,1.16a.62.62,0,0,0,.35.65l1.58.69a.26.26,0,0,1,.14.17,6.47,6.47,0,0,0,.15.88.26.26,0,0,1,0,.21l-1.26,1.2a.62.62,0,0,0-.11.73l.59,1a.6.6,0,0,0,.69.27l1.65-.49a.27.27,0,0,1,.23.06,6,6,0,0,0,.67.56.25.25,0,0,1,.09.2l-.2,1.73a.66.66,0,0,0,.39.63l1.11.4a.63.63,0,0,0,.71-.23l.94-1.44a.25.25,0,0,1,.21-.1h.88a.26.26,0,0,1,.2.1l1,1.45a.63.63,0,0,0,.7.23l1.11-.4a.63.63,0,0,0,.39-.63l-.2-1.71a.31.31,0,0,1,.09-.22,5.27,5.27,0,0,0,.68-.57.27.27,0,0,1,.21-.05l1.67.49a.61.61,0,0,0,.68-.27l.6-1a.65.65,0,0,0-.11-.74l-1.35-1.2a.26.26,0,0,1-.07-.22,6.49,6.49,0,0,0,.16-.88.26.26,0,0,1,.12-.17l1.59-.69a.61.61,0,0,0,.35-.65l-.2-1.16a.64.64,0,0,0-.56-.5l-1.71-.1a.28.28,0,0,1-.2-.13,5.35,5.35,0,0,0-.45-.77.26.26,0,0,1,0-.21l.78-1.55a.65.65,0,0,0-.15-.73l-.91-.76a.66.66,0,0,0-.74,0l-1.38,1a.31.31,0,0,1-.23,0c-.27-.11-.55-.21-.83-.3a.23.23,0,0,1-.15-.15l-.41-1.69a.63.63,0,0,0-.58-.46h-1.18a.63.63,0,0,0-.58.46l-.4,1.67A.28.28,0,0,1,166.91,181.19Z" transform="translate(-4.85 -0.45)"/><path class="cls-15" d="M168.64,182.14a5.08,5.08,0,1,0,5.07,5.09v0a5.07,5.07,0,0,0-5.07-5.07Z" transform="translate(-4.85 -0.45)"/><rect class="cls-13" x="26.31" y="154.47" width="32.57" height="11.87" rx="2.83"/><polygon class="cls-11" points="41.16 158.11 39.7 158.11 39.85 157.42 41.3 157.42 41.16 158.11"/><polygon class="cls-11" points="40.78 159.88 38.38 159.88 38.53 159.2 40.94 159.2 40.78 159.88"/><polygon class="cls-11" points="40.41 161.66 37.06 161.66 37.22 160.97 40.55 160.97 40.41 161.66"/><polygon class="cls-11" points="40.03 163.44 35.74 163.44 35.88 162.75 40.19 162.75 40.03 163.44"/><path class="cls-14" d="M29.42,154.83a6.34,6.34,0,0,0-.83.3.2.2,0,0,1-.21,0l-1.4-1a.63.63,0,0,0-.74,0l-.9.76a.6.6,0,0,0-.15.72l.77,1.54a.28.28,0,0,1,0,.22,6.06,6.06,0,0,0-.45.78.25.25,0,0,1-.17.13l-1.74.1a.61.61,0,0,0-.55.49L22.83,160a.65.65,0,0,0,.36.66l1.58.68a.24.24,0,0,1,.13.18,6.64,6.64,0,0,0,.16.87.29.29,0,0,1-.06.22l-1.26,1.19a.62.62,0,0,0-.11.73l.59,1a.63.63,0,0,0,.69.27l1.65-.49a.31.31,0,0,1,.23,0c.21.2.44.39.67.57a.2.2,0,0,1,.1.2l-.2,1.72a.63.63,0,0,0,.39.63l1.1.4a.63.63,0,0,0,.71-.23l.94-1.43a.27.27,0,0,1,.22-.11h.88a.25.25,0,0,1,.2.09l.95,1.45a.63.63,0,0,0,.71.23l1.11-.4a.61.61,0,0,0,.38-.63l-.19-1.71a.26.26,0,0,1,.09-.22,6,6,0,0,0,.67-.56.29.29,0,0,1,.22-.06l1.66.5a.63.63,0,0,0,.69-.27l.59-1a.62.62,0,0,0-.11-.73l-1.25-1.18a.28.28,0,0,1-.07-.23,5.24,5.24,0,0,0,.16-.88.3.3,0,0,1,.12-.17l1.6-.69a.65.65,0,0,0,.35-.65l-.21-1.16a.61.61,0,0,0-.55-.49L37,158.2a.29.29,0,0,1-.2-.14,4.51,4.51,0,0,0-.44-.77.26.26,0,0,1,0-.21l.78-1.55a.6.6,0,0,0-.15-.72l-.9-.76a.63.63,0,0,0-.74,0l-1.38,1a.26.26,0,0,1-.24,0,6.34,6.34,0,0,0-.83-.3.26.26,0,0,1-.15-.16l-.4-1.68a.65.65,0,0,0-.58-.47h-1.2A.64.64,0,0,0,30,153l-.4,1.67A.26.26,0,0,1,29.42,154.83Z" transform="translate(-4.85 -0.45)"/><path class="cls-15" d="M31.16,155.79a5.07,5.07,0,1,0,5.06,5.08h0A5.07,5.07,0,0,0,31.16,155.79Z" transform="translate(-4.85 -0.45)"/><rect class="cls-13" x="8.57" y="2.65" width="32.57" height="11.87" rx="2.83"/><polygon class="cls-11" points="23.43 6.28 21.98 6.28 22.13 5.59 23.57 5.59 23.43 6.28"/><polygon class="cls-11" points="23.05 8.06 20.66 8.06 20.8 7.37 23.2 7.37 23.05 8.06"/><polygon class="cls-11" points="22.68 9.84 19.34 9.84 19.48 9.15 22.82 9.15 22.68 9.84"/><polygon class="cls-11" points="22.3 11.61 18.02 11.61 18.16 10.93 22.45 10.93 22.3 11.61"/><path class="cls-14" d="M11.69,3a6.34,6.34,0,0,0-.83.3.26.26,0,0,1-.21,0l-1.4-1a.66.66,0,0,0-.74,0l-.9.7a.64.64,0,0,0-.15.73L8.23,5.3a.28.28,0,0,1,0,.22,6.06,6.06,0,0,0-.45.78.23.23,0,0,1-.18.12l-1.73.11A.62.62,0,0,0,5.31,7L5.1,8.18a.64.64,0,0,0,.36.65L7,9.52a.25.25,0,0,1,.13.17,6.49,6.49,0,0,0,.16.88.26.26,0,0,1-.06.21L6,12a.62.62,0,0,0-.11.73l.59,1a.6.6,0,0,0,.69.27l1.65-.49a.27.27,0,0,1,.23.06,7.1,7.1,0,0,0,.67.56.26.26,0,0,1,.1.2l-.2,1.73a.63.63,0,0,0,.39.63l1.1.4a.63.63,0,0,0,.71-.23l.94-1.44a.26.26,0,0,1,.22-.1h.88a.26.26,0,0,1,.2.1L15,16.86a.63.63,0,0,0,.7.23l1.11-.4a.63.63,0,0,0,.39-.63L17,14.35a.24.24,0,0,1,.09-.22,5.18,5.18,0,0,0,.67-.57.27.27,0,0,1,.21-.05l1.67.49a.6.6,0,0,0,.69-.27l.59-1a.62.62,0,0,0-.11-.73l-1.25-1.19a.26.26,0,0,1-.07-.22,5.24,5.24,0,0,0,.16-.88.3.3,0,0,1,.12-.17l1.59-.69a.64.64,0,0,0,.36-.65L21.54,7A.64.64,0,0,0,21,6.5l-1.72-.1a.28.28,0,0,1-.2-.13,7.3,7.3,0,0,0-.44-.77.26.26,0,0,1,0-.21l.78-1.55A.62.62,0,0,0,19.24,3l-.9-.76a.66.66,0,0,0-.74,0l-1.39,1a.31.31,0,0,1-.23,0A6,6,0,0,0,15.15,3,.23.23,0,0,1,15,2.85l-.41-1.69A.61.61,0,0,0,14,.7H12.83a.63.63,0,0,0-.58.46l-.4,1.67A.25.25,0,0,1,11.69,3Z" transform="translate(-4.85 -0.45)"/><path class="cls-15" d="M13.42,4a5.08,5.08,0,1,0,5.07,5.09V9A5.08,5.08,0,0,0,13.42,4Z" transform="translate(-4.85 -0.45)"/><rect class="cls-13" x="124.49" y="30.06" width="32.57" height="11.88" rx="2.83"/><polygon class="cls-11" points="139.34 33.7 137.9 33.7 138.04 33.01 139.5 33.01 139.34 33.7"/><polygon class="cls-11" points="138.97 35.47 136.57 35.47 136.72 34.78 139.12 34.78 138.97 35.47"/><polygon class="cls-11" points="138.59 37.25 135.25 37.25 135.4 36.56 138.75 36.56 138.59 37.25"/><polygon class="cls-11" points="138.22 39.03 133.93 39.03 134.07 38.34 138.37 38.34 138.22 39.03"/><path class="cls-14" d="M127.61,30.42a6.34,6.34,0,0,0-.83.3.28.28,0,0,1-.22,0l-1.39-1a.63.63,0,0,0-.74,0l-.91.76a.63.63,0,0,0-.15.72l.77,1.54a.22.22,0,0,1,0,.22,6,6,0,0,0-.44.78.23.23,0,0,1-.18.12l-1.73.11a.63.63,0,0,0-.56.49l-.2,1.16a.63.63,0,0,0,.35.66L123,37a.28.28,0,0,1,.14.18,6.6,6.6,0,0,0,.15.87.28.28,0,0,1,0,.22L122,39.42a.62.62,0,0,0-.11.73l.59,1a.63.63,0,0,0,.69.27l1.65-.49a.28.28,0,0,1,.22,0c.22.2.44.39.68.57a.25.25,0,0,1,.09.2l-.2,1.72a.63.63,0,0,0,.39.63l1.11.4a.63.63,0,0,0,.71-.23l.94-1.44a.28.28,0,0,1,.21-.1h.88a.22.22,0,0,1,.2.09l1,1.45a.62.62,0,0,0,.7.23l1.11-.4a.63.63,0,0,0,.39-.63l-.2-1.71a.31.31,0,0,1,.09-.22,6.13,6.13,0,0,0,.68-.56.26.26,0,0,1,.21-.06l1.66.5a.63.63,0,0,0,.69-.27l.59-1a.62.62,0,0,0-.1-.73l-1.25-1.18a.25.25,0,0,1-.07-.23,6.49,6.49,0,0,0,.16-.88.26.26,0,0,1,.12-.17l1.59-.69a.61.61,0,0,0,.35-.65l-.2-1.16a.63.63,0,0,0-.56-.49l-1.71-.11a.22.22,0,0,1-.2-.13,5.35,5.35,0,0,0-.45-.77.26.26,0,0,1,0-.21l.78-1.55a.63.63,0,0,0-.15-.72l-.91-.76a.63.63,0,0,0-.74,0l-1.38,1a.24.24,0,0,1-.23,0,6.34,6.34,0,0,0-.83-.3.26.26,0,0,1-.15-.16l-.41-1.68a.62.62,0,0,0-.58-.47h-1.18a.62.62,0,0,0-.58.47l-.4,1.67A.27.27,0,0,1,127.61,30.42Z" transform="translate(-4.85 -0.45)"/><path class="cls-15" d="M129.34,31.38a5.07,5.07,0,1,0,5.07,5.07,5.07,5.07,0,0,0-5.07-5.07Z" transform="translate(-4.85 -0.45)"/><rect class="cls-13" x="197.92" y="26.73" width="32.57" height="11.87" rx="2.83"/><polygon class="cls-11" points="212.78 30.36 211.32 30.36 211.47 29.67 212.93 29.67 212.78 30.36"/><polygon class="cls-11" points="212.41 32.14 210 32.14 210.15 31.45 212.54 31.45 212.41 32.14"/><polygon class="cls-11" points="212.03 33.92 208.68 33.92 208.82 33.23 212.18 33.23 212.03 33.92"/><polygon class="cls-11" points="211.66 35.69 207.35 35.69 207.5 35.01 211.79 35.01 211.66 35.69"/><path class="cls-14" d="M201,27.09a6.34,6.34,0,0,0-.83.3.28.28,0,0,1-.22,0l-1.39-1a.66.66,0,0,0-.74,0l-.91.76a.65.65,0,0,0-.15.73l.77,1.54a.22.22,0,0,1,0,.22,6,6,0,0,0-.44.78.28.28,0,0,1-.18.12l-1.73.1a.65.65,0,0,0-.56.5l-.2,1.16a.61.61,0,0,0,.35.65l1.58.69a.26.26,0,0,1,.14.17,4.38,4.38,0,0,0,.15.88.26.26,0,0,1,0,.21l-1.26,1.2a.62.62,0,0,0-.11.73l.59,1a.6.6,0,0,0,.69.27l1.65-.49a.25.25,0,0,1,.22.06,7.22,7.22,0,0,0,.68.56.25.25,0,0,1,.09.2l-.2,1.73a.63.63,0,0,0,.39.63l1.11.4a.65.65,0,0,0,.71-.23l.94-1.44a.25.25,0,0,1,.21-.1h.88a.26.26,0,0,1,.2.1l1,1.45a.63.63,0,0,0,.7.23l1.11-.4a.63.63,0,0,0,.39-.63l-.2-1.71a.31.31,0,0,1,.09-.22,5.27,5.27,0,0,0,.68-.57.26.26,0,0,1,.21,0l1.66.49a.63.63,0,0,0,.69-.27l.59-1a.64.64,0,0,0-.1-.74L209,35a.23.23,0,0,1-.07-.22,8.52,8.52,0,0,0,.16-.88.21.21,0,0,1,.12-.17L210.8,33a.62.62,0,0,0,.35-.65L211,31.2a.65.65,0,0,0-.56-.5l-1.71-.1a.28.28,0,0,1-.2-.13,5.35,5.35,0,0,0-.45-.77.26.26,0,0,1,0-.21l.78-1.55a.65.65,0,0,0-.15-.73l-.91-.76a.63.63,0,0,0-.74,0l-1.38,1a.31.31,0,0,1-.23,0q-.41-.16-.84-.3a.28.28,0,0,1-.15-.15l-.4-1.69a.63.63,0,0,0-.58-.46h-1.18a.63.63,0,0,0-.58.46l-.4,1.67A.31.31,0,0,1,201,27.09Z" transform="translate(-4.85 -0.45)"/><path class="cls-15" d="M202.77,28a5.07,5.07,0,1,0,5.07,5.07A5.07,5.07,0,0,0,202.77,28Z" transform="translate(-4.85 -0.45)"/><rect class="cls-13" x="197.92" y="50.8" width="32.57" height="11.87" rx="2.83"/><polygon class="cls-11" points="212.78 54.44 211.32 54.44 211.47 53.75 212.93 53.75 212.78 54.44"/><polygon class="cls-11" points="212.41 56.22 210 56.22 210.15 55.53 212.54 55.53 212.41 56.22"/><polygon class="cls-11" points="212.03 58 208.68 58 208.82 57.31 212.18 57.31 212.03 58"/><polygon class="cls-11" points="211.66 59.77 207.35 59.77 207.5 59.08 211.79 59.08 211.66 59.77"/><path class="cls-14" d="M201,51.16a8.29,8.29,0,0,0-.83.31.28.28,0,0,1-.22,0l-1.39-1a.66.66,0,0,0-.74,0l-.91.76a.65.65,0,0,0-.15.73l.77,1.54a.22.22,0,0,1,0,.22,7.3,7.3,0,0,0-.44.77.24.24,0,0,1-.18.13l-1.73.1a.66.66,0,0,0-.56.49l-.2,1.17a.62.62,0,0,0,.35.65l1.58.68a.28.28,0,0,1,.14.18,4.38,4.38,0,0,0,.15.88.26.26,0,0,1,0,.21l-1.26,1.19a.64.64,0,0,0-.11.74l.59,1a.6.6,0,0,0,.69.27l1.65-.49a.23.23,0,0,1,.22.06,7.22,7.22,0,0,0,.68.56.25.25,0,0,1,.09.2l-.2,1.72a.66.66,0,0,0,.39.64l1.11.4a.65.65,0,0,0,.71-.23l.94-1.44a.26.26,0,0,1,.21-.11h.88a.26.26,0,0,1,.2.1l1,1.45a.63.63,0,0,0,.7.23l1.11-.4a.66.66,0,0,0,.39-.64l-.2-1.7a.31.31,0,0,1,.09-.22,5.27,5.27,0,0,0,.68-.57.26.26,0,0,1,.21,0l1.66.49a.63.63,0,0,0,.69-.27l.59-1a.64.64,0,0,0-.1-.74L208.94,59a.25.25,0,0,1-.07-.23,8.52,8.52,0,0,0,.16-.88.22.22,0,0,1,.12-.16l1.59-.69a.63.63,0,0,0,.35-.65l-.2-1.17a.66.66,0,0,0-.56-.49l-1.71-.1a.28.28,0,0,1-.2-.13,6.06,6.06,0,0,0-.45-.78.23.23,0,0,1,0-.2l.78-1.55a.65.65,0,0,0-.15-.73l-.91-.76a.63.63,0,0,0-.74,0l-1.38,1a.31.31,0,0,1-.23,0,6,6,0,0,0-.84-.3.28.28,0,0,1-.15-.15l-.4-1.69a.63.63,0,0,0-.58-.46h-1.18a.63.63,0,0,0-.58.46L201.2,51A.24.24,0,0,1,201,51.16Z" transform="translate(-4.85 -0.45)"/><path class="cls-15" d="M202.77,52.12a5.07,5.07,0,1,0,5.07,5.07,5.07,5.07,0,0,0-5.07-5.07Z" transform="translate(-4.85 -0.45)"/><rect class="cls-13" x="264.75" y="98.96" width="32.57" height="11.87" rx="2.83"/><polygon class="cls-11" points="279.61 102.6 278.15 102.6 278.31 101.91 279.75 101.91 279.61 102.6"/><polygon class="cls-11" points="279.24 104.38 276.83 104.38 276.99 103.69 279.38 103.69 279.24 104.38"/><polygon class="cls-11" points="278.86 106.15 275.51 106.15 275.65 105.47 279 105.47 278.86 106.15"/><polygon class="cls-11" points="278.49 107.93 274.19 107.93 274.33 107.24 278.63 107.24 278.49 107.93"/><path class="cls-14" d="M267.87,99.32a6.34,6.34,0,0,0-.83.3.2.2,0,0,1-.21,0l-1.4-1a.63.63,0,0,0-.74,0l-.9.76a.64.64,0,0,0-.15.73l.77,1.54a.28.28,0,0,1,0,.22,5.35,5.35,0,0,0-.45.77.24.24,0,0,1-.18.13l-1.73.1a.64.64,0,0,0-.55.49l-.21,1.17a.65.65,0,0,0,.35.65l1.58.68a.24.24,0,0,1,.14.18,6.49,6.49,0,0,0,.16.88.26.26,0,0,1-.06.21l-1.26,1.19a.64.64,0,0,0-.11.74l.59,1a.63.63,0,0,0,.69.27l1.65-.49a.24.24,0,0,1,.23.06,7.1,7.1,0,0,0,.67.56.26.26,0,0,1,.1.2l-.2,1.72a.65.65,0,0,0,.39.64l1.1.4a.65.65,0,0,0,.71-.23l.94-1.44a.27.27,0,0,1,.22-.11h.87a.28.28,0,0,1,.21.1l.95,1.44a.62.62,0,0,0,.7.24L273,113a.62.62,0,0,0,.39-.63l-.19-1.71a.22.22,0,0,1,.09-.21c.23-.18.46-.37.67-.57a.26.26,0,0,1,.21-.06l1.67.5a.63.63,0,0,0,.69-.27l.59-1a.64.64,0,0,0-.11-.74l-1.25-1.18a.28.28,0,0,1-.07-.23,5.24,5.24,0,0,0,.16-.88.22.22,0,0,1,.12-.16l1.59-.69a.65.65,0,0,0,.36-.65l-.21-1.17a.64.64,0,0,0-.55-.49l-1.72-.1a.28.28,0,0,1-.2-.13,7.44,7.44,0,0,0-.44-.78.23.23,0,0,1,0-.2l.78-1.55a.64.64,0,0,0-.15-.73l-.9-.76a.63.63,0,0,0-.74,0l-1.39,1a.24.24,0,0,1-.23,0,6.34,6.34,0,0,0-.83-.3.28.28,0,0,1-.15-.15l-.41-1.69a.63.63,0,0,0-.58-.46H269a.63.63,0,0,0-.58.46l-.4,1.67A.25.25,0,0,1,267.87,99.32Z" transform="translate(-4.85 -0.45)"/><path class="cls-15" d="M269.6,100.28a5.07,5.07,0,1,0,5.07,5.07,5.07,5.07,0,0,0-5.07-5.07Z" transform="translate(-4.85 -0.45)"/><rect class="cls-13" x="67.06" y="30.06" width="32.57" height="11.88" rx="2.83"/><polygon class="cls-11" points="81.92 33.7 80.47 33.7 80.61 33.01 82.06 33.01 81.92 33.7"/><polygon class="cls-11" points="81.55 35.47 79.14 35.47 79.28 34.78 81.69 34.78 81.55 35.47"/><polygon class="cls-11" points="81.17 37.25 77.81 37.25 77.97 36.56 81.31 36.56 81.17 37.25"/><polygon class="cls-11" points="80.8 39.03 76.5 39.03 76.64 38.34 80.94 38.34 80.8 39.03"/><path class="cls-14" d="M70.18,30.42a6.34,6.34,0,0,0-.83.3.28.28,0,0,1-.22,0l-1.39-1a.63.63,0,0,0-.74,0l-.91.76a.63.63,0,0,0-.15.72l.77,1.54a.22.22,0,0,1,0,.22,7.44,7.44,0,0,0-.44.78.23.23,0,0,1-.18.12L64.36,34a.63.63,0,0,0-.56.49l-.2,1.16a.63.63,0,0,0,.35.66l1.58.68a.28.28,0,0,1,.14.18,6.6,6.6,0,0,0,.15.87.28.28,0,0,1,0,.22L64.5,39.39a.62.62,0,0,0-.11.73l.59,1a.63.63,0,0,0,.69.27l1.65-.49a.28.28,0,0,1,.22,0c.22.2.44.39.68.57a.25.25,0,0,1,.09.2l-.2,1.72a.63.63,0,0,0,.39.63l1.11.4a.63.63,0,0,0,.71-.23l.94-1.44a.28.28,0,0,1,.21-.1h.88a.22.22,0,0,1,.2.09l1,1.45a.62.62,0,0,0,.7.23l1.11-.4a.63.63,0,0,0,.39-.63l-.2-1.71a.31.31,0,0,1,.09-.22,6.13,6.13,0,0,0,.68-.56.26.26,0,0,1,.21-.06l1.66.5a.63.63,0,0,0,.69-.27l.59-1a.62.62,0,0,0-.1-.73l-1.25-1.18A.25.25,0,0,1,78,38a8.52,8.52,0,0,0,.16-.88.24.24,0,0,1,.12-.17l1.59-.69a.61.61,0,0,0,.35-.65L80,34.43a.63.63,0,0,0-.56-.49l-1.71-.11a.22.22,0,0,1-.2-.13,5.35,5.35,0,0,0-.45-.77.26.26,0,0,1,0-.21l.78-1.55a.63.63,0,0,0-.15-.72l-.91-.76a.63.63,0,0,0-.74,0l-1.38,1a.24.24,0,0,1-.23,0,6,6,0,0,0-.84-.3.29.29,0,0,1-.15-.16l-.4-1.68a.62.62,0,0,0-.58-.47H71.32a.62.62,0,0,0-.58.47l-.4,1.67A.29.29,0,0,1,70.18,30.42Z" transform="translate(-4.85 -0.45)"/><path class="cls-15" d="M71.91,31.38A5.07,5.07,0,1,0,77,36.45a5.07,5.07,0,0,0-5.09-5.07Z" transform="translate(-4.85 -0.45)"/><rect class="cls-13" x="197.92" y="2.65" width="32.57" height="11.87" rx="2.83"/><polygon class="cls-11" points="212.78 6.28 211.32 6.28 211.47 5.59 212.93 5.59 212.78 6.28"/><polygon class="cls-11" points="212.41 8.06 210 8.06 210.15 7.37 212.54 7.37 212.41 8.06"/><polygon class="cls-11" points="212.03 9.84 208.68 9.84 208.82 9.15 212.18 9.15 212.03 9.84"/><polygon class="cls-11" points="211.66 11.61 207.35 11.61 207.5 10.93 211.79 10.93 211.66 11.61"/><path class="cls-14" d="M201,3a6.34,6.34,0,0,0-.83.3.28.28,0,0,1-.22,0l-1.39-1a.66.66,0,0,0-.74,0L197,3a.65.65,0,0,0-.15.73l.77,1.54a.22.22,0,0,1,0,.22,6,6,0,0,0-.44.78.28.28,0,0,1-.18.12l-1.73.11a.63.63,0,0,0-.56.49l-.2,1.16a.61.61,0,0,0,.35.65l1.58.69a.26.26,0,0,1,.14.17,4.38,4.38,0,0,0,.15.88.2.2,0,0,1,0,.21L195.36,12a.62.62,0,0,0-.11.73l.59,1a.6.6,0,0,0,.69.27l1.65-.49a.25.25,0,0,1,.22.06,7.22,7.22,0,0,0,.68.56.25.25,0,0,1,.09.2l-.2,1.73a.63.63,0,0,0,.39.63l1.11.4a.65.65,0,0,0,.71-.23l.94-1.44a.25.25,0,0,1,.21-.1h.88a.26.26,0,0,1,.2.1l1,1.45a.63.63,0,0,0,.7.23l1.11-.4a.63.63,0,0,0,.39-.63l-.2-1.71a.31.31,0,0,1,.09-.22,5.27,5.27,0,0,0,.68-.57.27.27,0,0,1,.21-.05L209,14a.6.6,0,0,0,.69-.27l.59-1a.62.62,0,0,0-.1-.73l-1.25-1.19a.23.23,0,0,1-.07-.22,8.52,8.52,0,0,0,.16-.88.24.24,0,0,1,.12-.17l1.59-.69a.62.62,0,0,0,.35-.65L210.89,7a.65.65,0,0,0-.56-.5l-1.71-.1a.28.28,0,0,1-.2-.13A5.35,5.35,0,0,0,208,5.5a.26.26,0,0,1,0-.21l.78-1.55A.65.65,0,0,0,208.6,3l-.91-.76a.66.66,0,0,0-.74,0l-1.38,1a.31.31,0,0,1-.23,0,7.63,7.63,0,0,0-.84-.31.28.28,0,0,1-.15-.15L204,1.1a.63.63,0,0,0-.58-.46h-1.18a.63.63,0,0,0-.58.46l-.4,1.67A.29.29,0,0,1,201,3Z" transform="translate(-4.85 -0.45)"/><path class="cls-15" d="M202.77,4a5.08,5.08,0,1,0,5.07,5.09V9A5.08,5.08,0,0,0,202.77,4Z" transform="translate(-4.85 -0.45)"/><path class="cls-12" d="M22,20H10.8a5.94,5.94,0,0,0,0,11.87H22A2.83,2.83,0,0,0,24.8,29h0V22.81A2.84,2.84,0,0,0,22,20Z" transform="translate(-4.85 -0.45)"/><path class="cls-13" d="M15.15,25.91a4.35,4.35,0,0,1-8.69.42,2.94,2.94,0,0,1,0-.42,4.43,4.43,0,0,1,.31-1.61A.46.46,0,0,1,7.34,24h0a.46.46,0,0,1,.26.6h0a3.32,3.32,0,0,0-.25,1.28,3.44,3.44,0,1,0,5-3.05.46.46,0,0,1-.12-.64.47.47,0,0,1,.54-.17A4.34,4.34,0,0,1,15.15,25.91Zm-4.35-3a.67.67,0,1,0-.67-.67.67.67,0,0,0,.67.67Zm0,3.67a.67.67,0,0,0,.67-.67h0a.68.68,0,0,0-.3-.56L7.59,22.7l2.66,3.58A.65.65,0,0,0,10.8,26.58Z" transform="translate(-4.85 -0.45)"/><path class="cls-12" d="M234.51,75.33H223.34a5.94,5.94,0,0,0,0,11.88h11.17a2.85,2.85,0,0,0,2.83-2.84v-6.2A2.85,2.85,0,0,0,234.51,75.33Z" transform="translate(-4.85 -0.45)"/><path class="cls-13" d="M227.68,81.27a4.34,4.34,0,1,1-8.68,0h0a4.23,4.23,0,0,1,.31-1.61.45.45,0,0,1,.58-.26h0a.46.46,0,0,1,.25.6,3.43,3.43,0,1,0,4.78-1.77.46.46,0,0,1-.19-.62.45.45,0,0,1,.61-.19h0A4.35,4.35,0,0,1,227.68,81.27Zm-4.34-3a.67.67,0,1,0-.67-.67h0a.67.67,0,0,0,.67.66Zm0,3.68a.67.67,0,0,0,.67-.67.68.68,0,0,0-.3-.56l-3.58-2.65,2.65,3.58a.7.7,0,0,0,.56.29Z" transform="translate(-4.85 -0.45)"/><path class="cls-12" d="M170.12,154.92H159a5.94,5.94,0,0,0-.49,11.87,4,4,0,0,0,.49,0h11.17A2.84,2.84,0,0,0,173,164v-6.21a2.86,2.86,0,0,0-2.83-2.87Z" transform="translate(-4.85 -0.45)"/><path class="cls-13" d="M163.29,160.86a4.34,4.34,0,0,1-8.68,0,4.28,4.28,0,0,1,.31-1.62.45.45,0,0,1,.84.34,3.5,3.5,0,0,0-.24,1.28,3.43,3.43,0,1,0,5-3.05.45.45,0,0,1,.42-.8A4.33,4.33,0,0,1,163.29,160.86Zm-4.34-3a.67.67,0,1,0-.67-.67h0a.66.66,0,0,0,.68.66h0Zm0,3.68a.67.67,0,0,0,.37-1.23l-3.58-2.65,2.65,3.57a.65.65,0,0,0,.61.3Z" transform="translate(-4.85 -0.45)"/><rect class="cls-16" x="48.15" y="2.65" width="11.87" height="11.87" rx="2.83"/><rect class="cls-16" x="223.48" y="124.65" width="11.87" height="11.87" rx="2.83"/><path class="cls-16" d="M133.94,154.92H110.07v-.06l-.91-.76a.6.6,0,0,0-.74,0l-1.13.84H107a2.74,2.74,0,0,0-.64.08,3.75,3.75,0,0,0-.47-.17.26.26,0,0,1-.15-.16l-.41-1.68a.62.62,0,0,0-.58-.47h-1.18a.62.62,0,0,0-.58.47l-.4,1.67a.25.25,0,0,1-.16.17,6.34,6.34,0,0,0-.83.3.28.28,0,0,1-.22,0l-1.39-1a.63.63,0,0,0-.74,0l-.9.76a.6.6,0,0,0-.15.72l.76,1.54a.22.22,0,0,1,0,.22,6.06,6.06,0,0,0-.45.78.24.24,0,0,1-.18.13l-1.73.1a.61.61,0,0,0-.55.49L95.88,160a.67.67,0,0,0,.35.66l1.58.68a.28.28,0,0,1,.14.18,6.6,6.6,0,0,0,.15.87.28.28,0,0,1,0,.22l-1.26,1.19a.62.62,0,0,0-.11.73l.59,1a.63.63,0,0,0,.69.27l1.65-.49a.31.31,0,0,1,.23,0c.21.2.44.39.67.57a.25.25,0,0,1,.09.2l-.19,1.72a.63.63,0,0,0,.38.63l1.11.4a.63.63,0,0,0,.71-.23l.94-1.43a.26.26,0,0,1,.21-.11h.88a.22.22,0,0,1,.2.09l1,1.45a.62.62,0,0,0,.7.23l1.11-.4a.63.63,0,0,0,.39-.63l-.12-1.09H134a2.83,2.83,0,0,0,2.83-2.83h0v-6.21a2.84,2.84,0,0,0-2.91-2.75Z" transform="translate(-4.85 -0.45)"/><path class="cls-16" d="M155.78,136.7v-6.2a2.85,2.85,0,0,0-2.83-2.84H129.08l-.05-.06-.91-.76a.63.63,0,0,0-.74,0l-1.13.84h-.2a2.74,2.74,0,0,0-.64.08l-.47-.17a.23.23,0,0,1-.15-.15l-.41-1.69a.63.63,0,0,0-.58-.46h-1.18a.63.63,0,0,0-.58.46l-.4,1.67a.25.25,0,0,1-.16.17,5.21,5.21,0,0,0-.83.31.28.28,0,0,1-.22,0l-1.39-1a.63.63,0,0,0-.74,0l-.91.76a.65.65,0,0,0-.15.73l.77,1.54a.22.22,0,0,1,0,.22,7.3,7.3,0,0,0-.44.77.24.24,0,0,1-.18.13l-1.73.1a.64.64,0,0,0-.55.49l-.21,1.17a.65.65,0,0,0,.35.65l1.58.68a.28.28,0,0,1,.14.18,6.47,6.47,0,0,0,.15.88.26.26,0,0,1,0,.21l-1.26,1.19a.64.64,0,0,0-.11.74l.59,1a.63.63,0,0,0,.69.27l1.65-.49a.24.24,0,0,1,.23.06,6,6,0,0,0,.67.56.25.25,0,0,1,.09.2l-.2,1.72a.66.66,0,0,0,.39.64l1.11.4a.65.65,0,0,0,.71-.23l.94-1.44a.26.26,0,0,1,.21-.11h.88a.26.26,0,0,1,.2.1l1,1.44a.62.62,0,0,0,.7.24l1.11-.41a.63.63,0,0,0,.39-.63l-.13-1.08h26A2.84,2.84,0,0,0,155.78,136.7Z" transform="translate(-4.85 -0.45)"/><path class="cls-16" d="M133.94,181.28H110.07v-.07l-.91-.76a.66.66,0,0,0-.74,0l-1.13.85H107a2.74,2.74,0,0,0-.64.08c-.16-.06-.31-.13-.47-.18a.23.23,0,0,1-.15-.15l-.41-1.69a.63.63,0,0,0-.58-.46h-1.18a.63.63,0,0,0-.58.46l-.4,1.67a.26.26,0,0,1-.16.18,6.34,6.34,0,0,0-.83.3.41.41,0,0,1-.22,0l-1.39-1a.66.66,0,0,0-.74,0l-.9.76a.64.64,0,0,0-.15.73l.76,1.54a.22.22,0,0,1,0,.22,6.06,6.06,0,0,0-.45.78.23.23,0,0,1-.18.12l-1.73.11a.61.61,0,0,0-.55.49l-.21,1.16a.65.65,0,0,0,.35.65l1.58.69a.26.26,0,0,1,.14.17,6.47,6.47,0,0,0,.15.88.26.26,0,0,1,0,.21l-1.26,1.2a.62.62,0,0,0-.11.73l.59,1a.6.6,0,0,0,.69.27l1.65-.49a.27.27,0,0,1,.23.06,6,6,0,0,0,.67.56.25.25,0,0,1,.09.2l-.19,1.73a.63.63,0,0,0,.38.63l1.11.4a.63.63,0,0,0,.71-.23l.94-1.44a.25.25,0,0,1,.21-.1h.88a.26.26,0,0,1,.2.1l1,1.45a.63.63,0,0,0,.7.23l1.11-.4a.63.63,0,0,0,.39-.63l-.12-1.09H134a2.83,2.83,0,0,0,2.83-2.83h0v-6.21a2.83,2.83,0,0,0-2.78-2.88Z" transform="translate(-4.85 -0.45)"/><path class="cls-16" d="M250.15,181.28H226.28a.08.08,0,0,0-.06-.07l-.9-.76a.66.66,0,0,0-.74,0l-1.13.85h-.21a2.72,2.72,0,0,0-.63.08c-.16-.06-.31-.13-.48-.18a.28.28,0,0,1-.13-.2l-.4-1.69a.63.63,0,0,0-.58-.46h-1.18a.63.63,0,0,0-.58.46l-.4,1.67a.35.35,0,0,1-.16.18,6,6,0,0,0-.84.3.38.38,0,0,1-.21,0l-1.39-1a.66.66,0,0,0-.74,0l-.91.76a.64.64,0,0,0-.15.73l.77,1.54a.22.22,0,0,1,0,.22,6,6,0,0,0-.44.78.28.28,0,0,1-.18.12l-1.73.11a.63.63,0,0,0-.56.49l-.2,1.16a.61.61,0,0,0,.35.65l1.58.69a.23.23,0,0,1,.13.17,6.49,6.49,0,0,0,.16.88.23.23,0,0,1-.06.21l-1.26,1.2a.62.62,0,0,0-.1.73l.59,1a.6.6,0,0,0,.69.27l1.64-.49a.24.24,0,0,1,.23.06,6.13,6.13,0,0,0,.68.56.25.25,0,0,1,.09.2l-.2,1.73a.63.63,0,0,0,.39.63l1.11.4a.62.62,0,0,0,.7-.23l.95-1.44a.25.25,0,0,1,.21-.1h.88a.26.26,0,0,1,.2.1l1,1.45a.63.63,0,0,0,.7.23l1.11-.4a.63.63,0,0,0,.39-.63l-.13-1.09h26.07a2.83,2.83,0,0,0,2.83-2.83h0v-6.21a2.83,2.83,0,0,0-2.83-2.83Z" transform="translate(-4.85 -0.45)"/><path class="cls-16" d="M84.74,127.66H60.87v-.06l-.9-.76a.63.63,0,0,0-.74,0l-1.14.84h-.2a2.74,2.74,0,0,0-.64.08l-.47-.17a.23.23,0,0,1-.15-.15l-.41-1.69a.63.63,0,0,0-.58-.46H54.41a.63.63,0,0,0-.58.46l-.4,1.67a.23.23,0,0,1-.16.17,8.29,8.29,0,0,0-.83.31.26.26,0,0,1-.21,0l-1.4-1a.63.63,0,0,0-.74,0l-.9.76a.64.64,0,0,0-.15.73l.77,1.54a.28.28,0,0,1,0,.22,5.35,5.35,0,0,0-.45.77.23.23,0,0,1-.18.13l-1.73.1a.64.64,0,0,0-.55.49l-.21,1.17a.64.64,0,0,0,.36.65l1.58.68a.27.27,0,0,1,.13.18,6.49,6.49,0,0,0,.16.88.26.26,0,0,1-.06.21L47.6,136.6a.64.64,0,0,0-.11.74l.59,1a.63.63,0,0,0,.69.27l1.65-.49a.24.24,0,0,1,.23.06,7.1,7.1,0,0,0,.67.56.26.26,0,0,1,.1.2l-.2,1.72a.65.65,0,0,0,.39.64l1.1.4a.65.65,0,0,0,.71-.23l.94-1.44a.27.27,0,0,1,.22-.11,3.09,3.09,0,0,0,.43,0h.45a.26.26,0,0,1,.2.1l1,1.44a.62.62,0,0,0,.7.24l1.11-.41a.63.63,0,0,0,.39-.63l-.12-1.08h26a2.85,2.85,0,0,0,2.84-2.84v-6.2a2.86,2.86,0,0,0-2.82-2.88Z" transform="translate(-4.85 -0.45)"/><path class="cls-16" d="M84.74,181.28H60.87v-.07l-.9-.76a.66.66,0,0,0-.74,0l-1.14.85h-.2a2.74,2.74,0,0,0-.64.08c-.16-.06-.31-.13-.47-.18a.23.23,0,0,1-.15-.15l-.41-1.69a.63.63,0,0,0-.58-.46H54.41a.63.63,0,0,0-.58.46l-.4,1.67a.26.26,0,0,1-.16.18,6.34,6.34,0,0,0-.83.3.26.26,0,0,1-.21,0l-1.4-1a.66.66,0,0,0-.74,0l-.9.76A.64.64,0,0,0,49,182l.77,1.54a.28.28,0,0,1,0,.22,6.06,6.06,0,0,0-.45.78.23.23,0,0,1-.18.12l-1.73.11a.61.61,0,0,0-.55.49l-.21,1.16A.64.64,0,0,0,47,187l1.58.69a.25.25,0,0,1,.13.17,6.49,6.49,0,0,0,.16.88.26.26,0,0,1-.06.21l-1.26,1.2a.62.62,0,0,0-.11.73l.59,1a.6.6,0,0,0,.69.27l1.65-.49a.27.27,0,0,1,.23.06,7.1,7.1,0,0,0,.67.56.26.26,0,0,1,.1.2l-.2,1.73a.63.63,0,0,0,.39.63l1.1.4a.63.63,0,0,0,.71-.23l.94-1.44a.26.26,0,0,1,.22-.1h.88a.26.26,0,0,1,.2.1l1,1.45a.63.63,0,0,0,.7.23l1.11-.4a.63.63,0,0,0,.39-.63l-.12-1.09H84.74a2.85,2.85,0,0,0,2.84-2.83v-6.21A2.84,2.84,0,0,0,84.74,181.28Z" transform="translate(-4.85 -0.45)"/><path class="cls-16" d="M198.38,181.28H174.51v-.07l-.91-.76a.66.66,0,0,0-.74,0l-1.13.85h-.2a3.39,3.39,0,0,0-.64.07l-.47-.17a.23.23,0,0,1-.15-.15l-.41-1.69a.63.63,0,0,0-.58-.46H168.1a.63.63,0,0,0-.58.46l-.4,1.67a.26.26,0,0,1-.16.18,6.34,6.34,0,0,0-.83.3.41.41,0,0,1-.22,0l-1.39-1a.66.66,0,0,0-.74,0l-.9.76a.65.65,0,0,0-.16.73l.77,1.54a.22.22,0,0,1,0,.22,7.44,7.44,0,0,0-.44.78.23.23,0,0,1-.18.12l-1.73.11a.61.61,0,0,0-.55.49l-.21,1.16a.62.62,0,0,0,.35.65l1.58.69a.26.26,0,0,1,.14.17,6.47,6.47,0,0,0,.15.88.26.26,0,0,1,0,.21l-1.26,1.2a.62.62,0,0,0-.11.73l.59,1a.6.6,0,0,0,.69.27l1.65-.49a.27.27,0,0,1,.23.06,6,6,0,0,0,.67.56.25.25,0,0,1,.09.2l-.2,1.73a.66.66,0,0,0,.39.63l1.11.4a.63.63,0,0,0,.71-.23l.94-1.44a.25.25,0,0,1,.21-.1h.88a.26.26,0,0,1,.2.1l1,1.45a.63.63,0,0,0,.7.23l1.11-.4a.63.63,0,0,0,.39-.63l-.12-1.09h26.06a2.83,2.83,0,0,0,2.83-2.83h0v-6.21a2.83,2.83,0,0,0-2.78-2.88Z" transform="translate(-4.85 -0.45)"/><path class="cls-16" d="M60.89,166.79A2.84,2.84,0,0,0,63.73,164v-6.21A2.85,2.85,0,0,0,60.89,155H37l0-.06-.9-.76a.63.63,0,0,0-.74,0l-1.14.84H34a2.74,2.74,0,0,0-.64.08,3.75,3.75,0,0,0-.47-.17.26.26,0,0,1-.15-.16l-.4-1.68a.65.65,0,0,0-.58-.47H30.57A.64.64,0,0,0,30,153l-.4,1.67a.25.25,0,0,1-.16.17,6.34,6.34,0,0,0-.83.3.2.2,0,0,1-.21,0l-1.4-1a.63.63,0,0,0-.74,0l-.9.76a.6.6,0,0,0-.15.72l.77,1.54a.28.28,0,0,1,0,.22,6.06,6.06,0,0,0-.45.78.25.25,0,0,1-.17.13l-1.74.1a.61.61,0,0,0-.55.49L22.83,160a.65.65,0,0,0,.36.66l1.58.68a.24.24,0,0,1,.13.18,6.64,6.64,0,0,0,.16.87.29.29,0,0,1-.06.22l-1.26,1.19a.62.62,0,0,0-.11.73l.59,1a.63.63,0,0,0,.69.27l1.65-.49a.31.31,0,0,1,.23,0c.21.2.44.39.67.57a.2.2,0,0,1,.1.2l-.2,1.72a.63.63,0,0,0,.39.63l1.1.4a.63.63,0,0,0,.71-.23l.94-1.43a.27.27,0,0,1,.22-.11h.88a.25.25,0,0,1,.2.09l.95,1.45a.63.63,0,0,0,.71.23l1.11-.4a.61.61,0,0,0,.38-.63l-.12-1.09Z" transform="translate(-4.85 -0.45)"/><path class="cls-16" d="M5.46,8.83,7,9.52a.25.25,0,0,1,.13.17,6.49,6.49,0,0,0,.16.88.26.26,0,0,1-.06.21L6,12a.62.62,0,0,0-.11.73l.59,1a.6.6,0,0,0,.69.27l1.65-.49a.27.27,0,0,1,.23.06,7.1,7.1,0,0,0,.67.56.26.26,0,0,1,.1.2l-.2,1.73a.63.63,0,0,0,.39.63l1.1.4a.63.63,0,0,0,.71-.23l.94-1.44a.26.26,0,0,1,.22-.1h.88a.26.26,0,0,1,.2.1L15,16.86a.63.63,0,0,0,.7.23l1.11-.4a.63.63,0,0,0,.39-.63L17.1,15H43.16A2.84,2.84,0,0,0,46,12.16V5.93A2.85,2.85,0,0,0,43.16,3.1H19.29L19.24,3l-.9-.76a.66.66,0,0,0-.74,0l-1.14.85h-.2a2.74,2.74,0,0,0-.64.08c-.16-.06-.31-.13-.47-.18A.23.23,0,0,1,15,2.85l-.41-1.69A.61.61,0,0,0,14,.7H12.83a.63.63,0,0,0-.58.46l-.4,1.67a.26.26,0,0,1-.16.18,6.34,6.34,0,0,0-.83.3.26.26,0,0,1-.21,0l-1.4-1a.66.66,0,0,0-.74,0L7.61,3a.64.64,0,0,0-.15.73L8.23,5.3a.28.28,0,0,1,0,.22,6.06,6.06,0,0,0-.45.78.23.23,0,0,1-.18.12l-1.73.11A.62.62,0,0,0,5.31,7L5.1,8.18A.64.64,0,0,0,5.46,8.83Z" transform="translate(-4.85 -0.45)"/><path class="cls-16" d="M121.37,36.25l1.58.68a.28.28,0,0,1,.14.18,6.6,6.6,0,0,0,.15.87.28.28,0,0,1,0,.22L122,39.39a.62.62,0,0,0-.11.73l.59,1a.63.63,0,0,0,.69.27l1.65-.49a.28.28,0,0,1,.22,0c.22.2.44.39.68.57a.25.25,0,0,1,.09.2l-.2,1.72A.63.63,0,0,0,126,44l1.11.4a.63.63,0,0,0,.71-.23l.94-1.44a.28.28,0,0,1,.21-.1h.88a.22.22,0,0,1,.2.09l1,1.45a.62.62,0,0,0,.7.23l1.11-.4a.62.62,0,0,0,.39-.63l-.23-1h26.07a2.83,2.83,0,0,0,2.83-2.83V33.34a2.83,2.83,0,0,0-2.83-2.83H135.21a.06.06,0,0,0-.05-.06l-.91-.76a.63.63,0,0,0-.74,0l-1.13.85h-.2a2.74,2.74,0,0,0-.64.08,3.75,3.75,0,0,0-.47-.17.26.26,0,0,1-.15-.16l-.41-1.68a.62.62,0,0,0-.58-.47h-1.18a.62.62,0,0,0-.58.47l-.4,1.67a.25.25,0,0,1-.16.17,6.34,6.34,0,0,0-.83.3.28.28,0,0,1-.22,0l-1.39-1a.63.63,0,0,0-.74,0l-.91.76a.63.63,0,0,0-.15.72l.77,1.54a.22.22,0,0,1,0,.22,6,6,0,0,0-.44.78.23.23,0,0,1-.18.12l-1.73.11a.63.63,0,0,0-.56.49l-.2,1.16A.62.62,0,0,0,121.37,36.25Z" transform="translate(-4.85 -0.45)"/><path class="cls-16" d="M194.8,32.91l1.58.69a.26.26,0,0,1,.14.17,4.38,4.38,0,0,0,.15.88.26.26,0,0,1,0,.21l-1.26,1.2a.62.62,0,0,0-.11.73l.59,1a.6.6,0,0,0,.69.27l1.65-.49a.25.25,0,0,1,.22.06,7.22,7.22,0,0,0,.68.56.25.25,0,0,1,.09.2l-.2,1.73a.63.63,0,0,0,.39.63l1.11.4a.65.65,0,0,0,.71-.23l.94-1.44a.25.25,0,0,1,.21-.1h.88a.26.26,0,0,1,.2.1l1,1.45a.63.63,0,0,0,.7.23l1.11-.4a.63.63,0,0,0,.39-.63L206.53,39H232.6a2.85,2.85,0,0,0,2.83-2.83V30a2.83,2.83,0,0,0-2.83-2.83h-24V27.1l-.91-.76a.63.63,0,0,0-.74,0l-1.13.85h-.21a3.38,3.38,0,0,0-.63.07c-.16-.05-.31-.12-.48-.17a.28.28,0,0,1-.15-.15l-.4-1.69a.63.63,0,0,0-.58-.46h-1.18a.63.63,0,0,0-.58.46l-.4,1.67a.26.26,0,0,1-.16.18,6.34,6.34,0,0,0-.83.3.28.28,0,0,1-.22,0l-1.39-1a.66.66,0,0,0-.74,0l-.91.76a.65.65,0,0,0-.15.73l.77,1.54a.22.22,0,0,1,0,.22,6,6,0,0,0-.44.78.28.28,0,0,1-.18.12l-1.73.1a.65.65,0,0,0-.56.5l-.2,1.16A.6.6,0,0,0,194.8,32.91Z" transform="translate(-4.85 -0.45)"/><path class="cls-16" d="M232.51,63.13a2.85,2.85,0,0,0,2.83-2.84v-6.2a2.85,2.85,0,0,0-2.83-2.84H208.64v-.06l-.91-.76a.63.63,0,0,0-.74,0l-1.13.84h-.21a3.4,3.4,0,0,0-.63.08c-.16-.06-.31-.12-.48-.17a.28.28,0,0,1-.15-.15l-.4-1.69a.63.63,0,0,0-.58-.46h-1.18a.63.63,0,0,0-.58.46L201.2,51a.25.25,0,0,1-.16.17,8.29,8.29,0,0,0-.83.31.28.28,0,0,1-.22,0l-1.39-1a.66.66,0,0,0-.74,0l-.91.76a.65.65,0,0,0-.15.73l.77,1.54a.22.22,0,0,1,0,.22,7.3,7.3,0,0,0-.44.77.24.24,0,0,1-.18.13l-1.73.1a.66.66,0,0,0-.56.49l-.2,1.17a.62.62,0,0,0,.35.65l1.58.68a.28.28,0,0,1,.14.18,4.38,4.38,0,0,0,.15.88.26.26,0,0,1,0,.21l-1.26,1.19a.64.64,0,0,0-.11.74l.59,1a.6.6,0,0,0,.69.27l1.65-.49a.23.23,0,0,1,.22.06,7.22,7.22,0,0,0,.68.56.25.25,0,0,1,.09.2l-.2,1.72a.66.66,0,0,0,.39.64l1.11.4a.65.65,0,0,0,.71-.23l.94-1.44a.26.26,0,0,1,.21-.11h.88a.26.26,0,0,1,.2.1l1,1.45a.63.63,0,0,0,.7.23l1.11-.4a.66.66,0,0,0,.39-.64l-.13-1.08Z" transform="translate(-4.85 -0.45)"/><path class="cls-16" d="M299.34,99.41H275.47l-.05-.06-.9-.76a.63.63,0,0,0-.74,0l-1.14.84h-.2a2.74,2.74,0,0,0-.64.08l-.47-.17a.28.28,0,0,1-.15-.15l-.41-1.69a.63.63,0,0,0-.58-.46H269a.63.63,0,0,0-.58.46l-.4,1.67a.25.25,0,0,1-.16.17,6.34,6.34,0,0,0-.83.3.2.2,0,0,1-.21,0l-1.4-1a.63.63,0,0,0-.74,0l-.9.76a.64.64,0,0,0-.15.73l.77,1.54a.28.28,0,0,1,0,.22,5.35,5.35,0,0,0-.45.77.24.24,0,0,1-.18.13l-1.73.1a.64.64,0,0,0-.55.49l-.21,1.17a.65.65,0,0,0,.35.65l1.58.68a.24.24,0,0,1,.14.18,6.49,6.49,0,0,0,.16.88.26.26,0,0,1-.06.21l-1.26,1.19a.64.64,0,0,0-.11.74l.59,1a.63.63,0,0,0,.69.27l1.65-.49a.24.24,0,0,1,.23.06,7.1,7.1,0,0,0,.67.56.26.26,0,0,1,.1.2l-.2,1.72a.65.65,0,0,0,.39.64l1.1.4a.65.65,0,0,0,.71-.23l.94-1.44a.27.27,0,0,1,.22-.11H270a.28.28,0,0,1,.21.1l.95,1.44a.62.62,0,0,0,.7.24L273,113a.62.62,0,0,0,.39-.63l-.12-1.08h26.06a2.85,2.85,0,0,0,2.84-2.84v-6.2A2.86,2.86,0,0,0,299.34,99.41Z" transform="translate(-4.85 -0.45)"/><path class="cls-16" d="M66.71,32.71a.22.22,0,0,1,0,.22,7.44,7.44,0,0,0-.44.78.23.23,0,0,1-.18.12l-1.73.11a.63.63,0,0,0-.56.49l-.2,1.16a.63.63,0,0,0,.35.66l1.58.68a.28.28,0,0,1,.14.18,6.6,6.6,0,0,0,.15.87.28.28,0,0,1,0,.22L64.5,39.39a.62.62,0,0,0-.11.73l.59,1a.63.63,0,0,0,.69.27l1.65-.49a.28.28,0,0,1,.22,0c.22.2.44.39.68.57a.25.25,0,0,1,.09.2l-.2,1.72a.63.63,0,0,0,.39.63l1.11.4a.63.63,0,0,0,.71-.23l.94-1.44a.28.28,0,0,1,.21-.1h.88a.22.22,0,0,1,.2.09l1,1.45a.62.62,0,0,0,.7.23l1.11-.4a.63.63,0,0,0,.39-.63l-.13-1.09h26.07a2.83,2.83,0,0,0,2.83-2.83h0V33.34a2.83,2.83,0,0,0-2.83-2.83H77.78v-.06l-.91-.76a.63.63,0,0,0-.74,0L75,30.51h-.2a2.74,2.74,0,0,0-.64.08,4.59,4.59,0,0,0-.48-.17.29.29,0,0,1-.15-.16l-.4-1.68a.62.62,0,0,0-.58-.47H71.32a.62.62,0,0,0-.58.47l-.4,1.67a.25.25,0,0,1-.16.17,6.34,6.34,0,0,0-.83.3.28.28,0,0,1-.22,0l-1.39-1a.63.63,0,0,0-.74,0l-.91.76a.63.63,0,0,0-.15.72Z" transform="translate(-4.85 -0.45)"/><path class="cls-16" d="M194.8,8.83l1.58.69a.26.26,0,0,1,.14.17,4.38,4.38,0,0,0,.15.88.2.2,0,0,1,0,.21L195.36,12a.62.62,0,0,0-.11.73l.59,1a.6.6,0,0,0,.69.27l1.65-.49a.25.25,0,0,1,.22.06,7.22,7.22,0,0,0,.68.56.25.25,0,0,1,.09.2l-.2,1.73a.63.63,0,0,0,.39.63l1.11.4a.65.65,0,0,0,.71-.23l.94-1.44a.25.25,0,0,1,.21-.1h.88a.26.26,0,0,1,.2.1l1,1.45a.63.63,0,0,0,.7.23l1.11-.4a.63.63,0,0,0,.39-.63L206.44,15h26.07a2.83,2.83,0,0,0,2.83-2.83h0V5.93a2.83,2.83,0,0,0-2.83-2.83H208.64V3l-.91-.76a.66.66,0,0,0-.74,0l-1.13.85h-.21a2.72,2.72,0,0,0-.63.08c-.16-.06-.31-.13-.48-.18a.28.28,0,0,1-.15-.15L204,1.18a.63.63,0,0,0-.58-.46h-1.18a.63.63,0,0,0-.58.46l-.4,1.67A.29.29,0,0,1,201,3a6.34,6.34,0,0,0-.83.3.28.28,0,0,1-.22,0l-1.39-1a.66.66,0,0,0-.74,0L197,3a.65.65,0,0,0-.15.73l.77,1.54a.22.22,0,0,1,0,.22,6,6,0,0,0-.44.78.28.28,0,0,1-.18.12l-1.73.11a.63.63,0,0,0-.56.49l-.2,1.16A.6.6,0,0,0,194.8,8.83Z" transform="translate(-4.85 -0.45)"/><path class="cls-16" d="M24.8,29V22.81A2.84,2.84,0,0,0,22,20H10.8a5.94,5.94,0,0,0,0,11.87H22A2.83,2.83,0,0,0,24.8,29Z" transform="translate(-4.85 -0.45)"/><path class="cls-16" d="M237.34,84.37v-6.2a2.85,2.85,0,0,0-2.83-2.84H223.34a5.94,5.94,0,0,0,0,11.88h11.17A2.85,2.85,0,0,0,237.34,84.37Z" transform="translate(-4.85 -0.45)"/><path class="cls-16" d="M173,164v-6.21a2.85,2.85,0,0,0-2.83-2.83H159a5.94,5.94,0,0,0-.49,11.87h11.66A2.85,2.85,0,0,0,173,164Z" transform="translate(-4.85 -0.45)"/><path class="cls-17" d="M180.49,155.38a7.67,7.67,0,0,0,1.08-.23,8.08,8.08,0,0,0,3-1.71l3.67,9.27a19.83,19.83,0,0,1-3,2.49,6.49,6.49,0,0,1-3.41,1.24,2.48,2.48,0,0,1-2.2-1.1c.57-.52,2-1.5,2.47-1.17s-.43,1.47-.43,1.47c1.29-1,1.33-1.58,1.23-1.86l-.33-.46m.21.27-4.3-9.69a8.37,8.37,0,0,0-1-.05,11.74,11.74,0,0,0-3.17.46,10.6,10.6,0,0,0-3.8,2l4.65,11.79a26.43,26.43,0,0,1,3.59-3.18,6.62,6.62,0,0,1,3.36-1.46,1.85,1.85,0,0,1,.66.13Z" transform="translate(-4.85 -0.45)"/><path class="cls-13" d="M184.6,153.44a8.08,8.08,0,0,1-3,1.71,7.67,7.67,0,0,1-1.08.23l2.4,8.4h0c.1.28.06.88-1.23,1.86,0,0,.9-1.15.43-1.47s-1.9.65-2.47,1.17a2.48,2.48,0,0,0,2.2,1.1,6.49,6.49,0,0,0,3.41-1.24,19.83,19.83,0,0,0,3-2.49Z" transform="translate(-4.85 -0.45)"/><path class="cls-11" d="M185.11,164.88a18.66,18.66,0,0,0,2.77-2.25l-1.09-2.77a15.05,15.05,0,0,1-2.76,2Z" transform="translate(-4.85 -0.45)"/><path class="cls-11" d="M185.56,156.76l-1.1-2.78a8,8,0,0,1-2.78,1.47l1.13,3.1A10,10,0,0,0,185.56,156.76Z" transform="translate(-4.85 -0.45)"/><path class="cls-11" d="M184,161.9l-1.22-3.35a7.31,7.31,0,0,1-1.3.42l1,3.56A8.11,8.11,0,0,0,184,161.9Z" transform="translate(-4.85 -0.45)"/><path class="cls-13" d="M177.51,153.85a11.74,11.74,0,0,0-3.17.46,10.6,10.6,0,0,0-3.8,2l4.65,11.79a26.43,26.43,0,0,1,3.59-3.18,6.62,6.62,0,0,1,3.36-1.46,1.93,1.93,0,0,1,.63.1l-4.3-9.69a8.37,8.37,0,0,0-1-.05Z" transform="translate(-4.85 -0.45)"/><path class="cls-11" d="M177.51,154.18a11.28,11.28,0,0,0-3,.44l1.45,3.47a12.59,12.59,0,0,1,3.61-1l-1.28-2.88C178.09,154.2,177.84,154.18,177.51,154.18Z" transform="translate(-4.85 -0.45)"/><path class="cls-11" d="M177.39,161.62l1.26,3a6.62,6.62,0,0,1,3.49-1.48h.08L181,160.29A8.11,8.11,0,0,0,177.39,161.62Z" transform="translate(-4.85 -0.45)"/><path class="cls-11" d="M175.92,158.09a14.86,14.86,0,0,0-3.56,2l1.55,3.93a31.38,31.38,0,0,1,3.48-2.37Z" transform="translate(-4.85 -0.45)"/><line class="cls-18" x1="207.68" y1="124.8" x2="172.7" y2="124.8"/><text class="cls-19" transform="translate(96.95 163.44)">4</text><text class="cls-20" transform="translate(114.68 163.44)">165</text><text class="cls-19" transform="translate(115.96 136.18)">8</text><text class="cls-20" transform="translate(133.68 136.18)">330</text><text class="cls-19" transform="translate(96.95 189.79)">5</text><text class="cls-20" transform="translate(114.68 189.79)">200</text><text class="cls-19" transform="translate(213.16 189.79)">7</text><text class="cls-20" transform="translate(230.88 189.79)">290</text><text class="cls-19" transform="translate(47.75 136.18)">8</text><text class="cls-20" transform="translate(65.48 136.18)">305</text><text class="cls-19" transform="translate(47.75 189.79)">2</text><text class="cls-20" transform="translate(67.84 189.79)">95</text><text class="cls-19" transform="translate(161.39 189.79)">2</text><text class="cls-20" transform="translate(181.48 189.79)">85</text><text class="cls-19" transform="translate(23.9 163.44)">4</text><text class="cls-20" transform="translate(41.63 163.44)">165</text><text class="cls-19" transform="translate(6.17 11.61)">4</text><text class="cls-20" transform="translate(23.9 11.61)">155</text><text class="cls-19" transform="translate(122.09 39.03)">8</text><text class="cls-20" transform="translate(139.81 39.03)">340</text><text class="cls-19" transform="translate(195.52 35.69)">3</text><text class="cls-20" transform="translate(213.24 35.69)">105</text><text class="cls-19" transform="translate(195.52 59.77)">6</text><text class="cls-20" transform="translate(213.24 59.77)">260</text><text class="cls-19" transform="translate(262.35 107.93)">8</text><text class="cls-20" transform="translate(280.08 107.93)">320</text><text class="cls-19" transform="translate(64.66 39.03)">6</text><text class="cls-20" transform="translate(82.38 39.03)">270</text><text class="cls-19" transform="translate(195.52 11.61)">3</text><text class="cls-20" transform="translate(213.24 11.61)">145</text><text class="cls-19" transform="translate(12.68 28.49)">1</text><text class="cls-19" transform="translate(225.23 83.85)">2</text><text class="cls-21" transform="translate(180.52 121.24)">Boxes</text><text class="cls-19" transform="translate(160.83 163.44)">3</text><text class="cls-22" transform="translate(104.24 99.67)">1</text><text class="cls-22" transform="translate(76.35 102)">2</text><text class="cls-22" transform="translate(27.13 71)">3</text><text class="cls-22" transform="translate(24.3 60.33)">4</text><text class="cls-22" transform="translate(26.52 44.33)">5</text><text class="cls-22" transform="translate(31.38 28.46)">6</text><text class="cls-22" transform="translate(52.52 49)">7</text><text class="cls-22" transform="translate(170.08 107)">8</text><text class="cls-22" transform="translate(181.13 84.33)">9</text><text class="cls-22" transform="translate(277.01 132)">10</text><g class="cls-23"><text class="cls-24" transform="translate(275.33 193.67)">1</text><text class="cls-22" transform="translate(278.49 193.67)">1</text></g><text class="cls-22" transform="translate(251.01 158)">12</text><text class="cls-22" transform="translate(236.84 143)">13</text><text class="cls-22" transform="translate(208.67 149.67)">14</text><text class="cls-22" transform="translate(205.17 163.33)">15</text></g></svg>