<svg id="Capa_1" data-name="Capa 1" xmlns="http://www.w3.org/2000/svg" width="297.22" height="195.12" viewBox="0 0 297.22 195.12"><defs><style>.cls-1{opacity:0.8;}.cls-10,.cls-11,.cls-12,.cls-18,.cls-19,.cls-2,.cls-3,.cls-4,.cls-5,.cls-6,.cls-7,.cls-9{fill:none;}.cls-12,.cls-2,.cls-7{stroke:#fff;}.cls-11,.cls-12,.cls-18,.cls-2,.cls-3,.cls-4,.cls-5,.cls-9{stroke-linecap:round;}.cls-11,.cls-12,.cls-18,.cls-19,.cls-2,.cls-3,.cls-4,.cls-5,.cls-6,.cls-9{stroke-linejoin:round;}.cls-2{stroke-width:8px;}.cls-3,.cls-4{stroke:#00071b;}.cls-3{stroke-width:5.4px;}.cls-4,.cls-5,.cls-6{stroke-width:2.8px;}.cls-5{stroke:#8c92a1;}.cls-6{stroke:#fff100;}.cls-7{stroke-width:1.3px;}.cls-8{fill:#ea1a4d;}.cls-10,.cls-11,.cls-18,.cls-19,.cls-9{stroke:#231f20;}.cls-9{stroke-width:0.65px;}.cls-11{stroke-width:1.5px;}.cls-12,.cls-17,.cls-18{stroke-width:0.5px;}.cls-13,.cls-17,.cls-24,.cls-25,.cls-26{fill:#fff;}.cls-14{fill:#ffca05;}.cls-15,.cls-20,.cls-21,.cls-23{fill:#231f20;}.cls-16{fill:#007dc4;}.cls-17{stroke:#007dc4;}.cls-19{stroke-width:0.25px;}.cls-20,.cls-21,.cls-22,.cls-23,.cls-24,.cls-25,.cls-26{isolation:isolate;}.cls-20,.cls-23,.cls-24{font-size:8.5px;}.cls-20,.cls-21{font-family:Helvetica;}.cls-21,.cls-25,.cls-26{font-size:7.5px;}.cls-23,.cls-24,.cls-25,.cls-26{font-family:Helvetica-Bold, Helvetica;font-weight:700;}.cls-25{letter-spacing:-0.08em;}.cls-26{letter-spacing:-0.13em;}</style></defs><g id="catalunya"><path class="cls-2" d="M48.87,113.59c-14.65,8.66-27.34,28.27-17.93,44.2,10.36,17.52,30.67,8.94,38.89,8,7.29-.87,10.71,7.69,10.71,7.69s4.19,11.6,16.64,4.24L267.63,76.77S285.46,66.46,278.15,52c-7-13.9-9.07-16-10.3-15.61-3,1-7.23,4-9.87-1-3.75-7.12-7-21-14.36-19.56-7,1.35-26.67,5.78-26.67,5.78s-9.89,2.19-8.46,13,10.91,10.1,16,8.83,7.11-.33,11.91,3.06l10.66,9s2.93,2.16,2.4,4.6c-.75,3.45-6.33,3.1-6.33,3.1-9,.06-68,0-91-.6-20.37-.64-21,16.49-21,16.49-.83,7.83-1.91,24.25-2.78,33.46a25.51,25.51,0,0,0,3.35,12.21c3.2,5.41,5.42,11-.95,14.75-6.44,4.06-17.21,10.28-19.71,11.43a26.64,26.64,0,0,1-11.16,2.62c-4.92,0-18.79-.6-29.73-1.65,0,0-8.88-.12-9.77-4.54-1.22-6,5.44-9.45,6.77-10.24,6.59-4.17,15.78-9.76,20.75-12.73l6.41-4a18.69,18.69,0,0,0,8.57-11.72c1.37-5.38.94-9.88-1.16-13.29A9.14,9.14,0,0,0,96.2,91c-3.45-1.4-7.88-.8-12.61,2,0,0-28.06,16.44-34.72,20.55h0" transform="translate(-6.26 -1.08)"/><path class="cls-3" d="M48.87,113.59c-14.65,8.66-27.34,28.27-17.93,44.2,10.36,17.52,30.67,8.94,38.89,8,7.29-.87,10.71,7.69,10.71,7.69s4.19,11.6,16.64,4.24L267.63,76.77S285.46,66.46,278.15,52c-7-13.9-9.07-16-10.3-15.61-3,1-7.23,4-9.87-1-3.75-7.12-7-21-14.36-19.56-7,1.35-26.67,5.78-26.67,5.78s-9.89,2.19-8.46,13,10.91,10.1,16,8.83,7.11-.33,11.91,3.06l10.66,9s2.93,2.16,2.4,4.6c-.75,3.45-6.33,3.1-6.33,3.1-9,.06-68,0-91-.6-20.37-.64-21,16.49-21,16.49-.83,7.83-1.91,24.25-2.78,33.46a25.51,25.51,0,0,0,3.35,12.21c3.2,5.41,5.42,11-.95,14.75-6.44,4.06-17.21,10.28-19.71,11.43a26.64,26.64,0,0,1-11.16,2.62c-4.92,0-18.79-.6-29.73-1.65,0,0-8.88-.12-9.77-4.54-1.22-6,5.44-9.45,6.77-10.24,6.59-4.17,15.78-9.76,20.75-12.73l6.41-4a18.69,18.69,0,0,0,8.57-11.72c1.37-5.38.94-9.88-1.16-13.29A9.14,9.14,0,0,0,96.2,91c-3.45-1.4-7.88-.8-12.61,2,0,0-28.06,16.44-34.72,20.55h0" transform="translate(-6.26 -1.08)"/><path class="cls-4" d="M107.91,170.4l59.25-40.5L263.4,73s10.83-6.19,10.79-13.76c0-5.36-1.2-8.17-4.09-13l-1.44-8.53" transform="translate(-6.26 -1.08)"/><path class="cls-5" d="M48.87,113.59c-14.65,8.66-27.34,28.27-17.93,44.2,10.36,17.52,30.67,8.94,38.89,8,7.29-.87,10.71,7.69,10.71,7.69s4.19,11.6,16.64,4.24L267.63,76.77S285.46,66.46,278.15,52c-7-13.9-9.07-16-10.3-15.61-3,1-7.23,4-9.87-1-3.75-7.12-7-21-14.36-19.56-7,1.35-26.67,5.78-26.67,5.78s-9.89,2.19-8.46,13,10.91,10.1,16,8.83,7.11-.33,11.91,3.06l10.66,9s2.93,2.16,2.4,4.6c-.75,3.45-6.33,3.1-6.33,3.1-9,.06-68,0-91-.6-20.37-.64-21,16.49-21,16.49-.83,7.83-1.91,24.25-2.78,33.46a25.51,25.51,0,0,0,3.35,12.21c3.2,5.41,5.42,11-.95,14.75-6.44,4.06-17.21,10.28-19.71,11.43a26.64,26.64,0,0,1-11.16,2.62c-4.92,0-18.79-.6-29.73-1.65,0,0-8.88-.12-9.77-4.54-1.22-6,5.44-9.45,6.77-10.24,6.59-4.17,15.78-9.76,20.75-12.73l6.41-4a18.69,18.69,0,0,0,8.57-11.72c1.37-5.38.94-9.88-1.16-13.29A9.14,9.14,0,0,0,96.2,91c-3.45-1.4-7.88-.8-12.61,2,0,0-28.06,16.44-34.72,20.55h0" transform="translate(-6.26 -1.08)"/><line class="cls-6" x1="90.92" y1="176.6" x2="249.53" y2="82.7"/><path class="cls-6" d="M243.1,63.08c-9,.06-68,0-91-.6" transform="translate(-6.26 -1.08)"/><rect class="cls-7" x="86.94" y="181.99" width="9.61" height="9.61" rx="2.29"/><rect class="cls-8" x="86.94" y="181.99" width="9.61" height="9.61" rx="2.29"/><rect class="cls-7" x="69.44" y="154.32" width="9.61" height="9.61" rx="2.29"/><rect class="cls-8" x="69.44" y="154.32" width="9.61" height="9.61" rx="2.29"/><rect class="cls-7" x="28.6" y="146.99" width="9.61" height="9.61" rx="2.29"/><rect class="cls-8" x="28.6" y="146.99" width="9.61" height="9.61" rx="2.29"/><rect class="cls-7" x="81.77" y="95.32" width="9.61" height="9.61" rx="2.29"/><rect class="cls-8" x="81.77" y="95.32" width="9.61" height="9.61" rx="2.29"/><rect class="cls-7" x="40.6" y="146.99" width="9.61" height="9.61" rx="2.29"/><rect class="cls-8" x="40.6" y="146.99" width="9.61" height="9.61" rx="2.29"/><rect class="cls-7" x="89.44" y="138.32" width="9.61" height="9.61" rx="2.29"/><rect class="cls-8" x="89.44" y="138.32" width="9.61" height="9.61" rx="2.29"/><rect class="cls-7" x="133.27" y="127.32" width="9.61" height="9.61" rx="2.29"/><rect class="cls-8" x="133.27" y="127.32" width="9.61" height="9.61" rx="2.29"/><rect class="cls-7" x="108.1" y="113.65" width="9.61" height="9.61" rx="2.29"/><rect class="cls-8" x="108.1" y="113.65" width="9.61" height="9.61" rx="2.29"/><rect class="cls-7" x="125.6" y="48.99" width="9.61" height="9.61" rx="2.29"/><rect class="cls-8" x="125.6" y="48.99" width="9.61" height="9.61" rx="2.29"/><rect class="cls-7" x="245.44" y="61.65" width="9.61" height="9.61" rx="2.29"/><rect class="cls-8" x="245.44" y="61.65" width="9.61" height="9.61" rx="2.29"/><rect class="cls-7" x="216.6" y="46.65" width="9.61" height="9.61" rx="2.29"/><rect class="cls-8" x="216.6" y="46.65" width="9.61" height="9.61" rx="2.29"/><rect class="cls-7" x="207.44" y="26.65" width="9.61" height="9.61" rx="2.29"/><rect class="cls-8" x="207.44" y="26.65" width="9.61" height="9.61" rx="2.29"/><rect class="cls-7" x="230.94" y="20.32" width="9.61" height="9.61" rx="2.29"/><rect class="cls-8" x="230.94" y="20.32" width="9.61" height="9.61" rx="2.29"/><rect class="cls-7" x="242.77" y="39.65" width="9.61" height="9.61" rx="2.29"/><rect class="cls-8" x="242.77" y="39.65" width="9.61" height="9.61" rx="2.29"/><rect class="cls-7" x="259.27" y="20.65" width="9.61" height="9.61" rx="2.29"/><rect class="cls-8" x="259.27" y="20.65" width="9.61" height="9.61" rx="2.29"/><rect class="cls-7" x="254.77" y="52.99" width="9.61" height="9.61" rx="2.29"/><rect class="cls-8" x="254.77" y="52.99" width="9.61" height="9.61" rx="2.29"/><polyline class="cls-9" points="187.39 109.98 187.39 98.69 164.01 98.69"/><path class="cls-10" d="M76.92,98.23a1.42,1.42,0,1,0-1.42-1.42h0a1.41,1.41,0,0,0,1.4,1.42Z" transform="translate(-6.26 -1.08)"/><line class="cls-11" x1="70.66" y1="95.73" x2="70.66" y2="59.16"/><line class="cls-12" x1="70.66" y1="95.73" x2="70.66" y2="59.16"/><path class="cls-13" d="M76.92,98.23a1.42,1.42,0,1,0-1.42-1.42h0a1.41,1.41,0,0,0,1.4,1.42Z" transform="translate(-6.26 -1.08)"/><path class="cls-10" d="M55.06,111.2a1.42,1.42,0,1,0-1.42-1.42h0a1.41,1.41,0,0,0,1.41,1.41Z" transform="translate(-6.26 -1.08)"/><polyline class="cls-11" points="48.8 108.71 48.8 74.61 36.09 74.61"/><polyline class="cls-12" points="48.8 108.71 48.8 74.61 36.09 74.61"/><path class="cls-13" d="M55.06,111.2a1.42,1.42,0,1,0-1.42-1.42h0a1.41,1.41,0,0,0,1.41,1.41Z" transform="translate(-6.26 -1.08)"/><path class="cls-10" d="M29.39,137.83A1.42,1.42,0,1,0,28,136.38v0A1.42,1.42,0,0,0,29.39,137.83Z" transform="translate(-6.26 -1.08)"/><line class="cls-11" x1="23.13" y1="135.34" x2="23.13" y2="97.23"/><line class="cls-12" x1="23.13" y1="135.34" x2="23.13" y2="97.23"/><path class="cls-13" d="M29.39,137.83A1.42,1.42,0,1,0,28,136.38v0A1.42,1.42,0,0,0,29.39,137.83Z" transform="translate(-6.26 -1.08)"/><path class="cls-10" d="M96.2,92.46A1.42,1.42,0,1,0,94.78,91a1.43,1.43,0,0,0,1.42,1.46Z" transform="translate(-6.26 -1.08)"/><line class="cls-11" x1="89.94" y1="89.96" x2="89.94" y2="59.16"/><line class="cls-12" x1="89.94" y1="89.96" x2="89.94" y2="59.16"/><path class="cls-13" d="M96.2,92.46A1.42,1.42,0,1,0,94.78,91a1.43,1.43,0,0,0,1.42,1.46Z" transform="translate(-6.26 -1.08)"/><path class="cls-10" d="M188.55,64.22a1.42,1.42,0,1,0-1.41-1.43h0A1.42,1.42,0,0,0,188.55,64.22Z" transform="translate(-6.26 -1.08)"/><line class="cls-11" x1="182.29" y1="61.72" x2="182.29" y2="46.89"/><line class="cls-12" x1="182.29" y1="61.72" x2="182.29" y2="46.89"/><path class="cls-13" d="M188.55,64.22a1.42,1.42,0,1,0-1.41-1.43h0A1.42,1.42,0,0,0,188.55,64.22Z" transform="translate(-6.26 -1.08)"/><path class="cls-10" d="M242.58,17.28a1.42,1.42,0,1,0-1.42-1.42h0A1.42,1.42,0,0,0,242.58,17.28Z" transform="translate(-6.26 -1.08)"/><polyline class="cls-11" points="236.32 14.79 236.32 8.41 188.76 8.41"/><polyline class="cls-12" points="236.32 14.79 236.32 8.41 188.76 8.41"/><path class="cls-13" d="M242.58,17.28a1.42,1.42,0,1,0-1.42-1.42h0A1.42,1.42,0,0,0,242.58,17.28Z" transform="translate(-6.26 -1.08)"/><path class="cls-10" d="M258,36.78a1.42,1.42,0,1,0-1.42-1.42A1.43,1.43,0,0,0,258,36.78Z" transform="translate(-6.26 -1.08)"/><polyline class="cls-11" points="251.72 34.28 251.72 8.41 264.43 8.41"/><polyline class="cls-12" points="251.72 34.28 251.72 8.41 264.43 8.41"/><path class="cls-13" d="M258,36.78a1.42,1.42,0,1,0-1.42-1.42A1.43,1.43,0,0,0,258,36.78Z" transform="translate(-6.26 -1.08)"/><path class="cls-10" d="M106.93,153.8a1.42,1.42,0,1,0-1.42-1.42h0A1.42,1.42,0,0,0,106.93,153.8Z" transform="translate(-6.26 -1.08)"/><line class="cls-11" x1="100.67" y1="151.31" x2="100.67" y2="129.18"/><line class="cls-12" x1="100.67" y1="151.31" x2="100.67" y2="129.18"/><path class="cls-13" d="M106.93,153.8a1.42,1.42,0,1,0-1.42-1.42h0A1.42,1.42,0,0,0,106.93,153.8Z" transform="translate(-6.26 -1.08)"/><path class="cls-10" d="M72.56,164.45a1.42,1.42,0,1,1-1.42,1.42h0a1.41,1.41,0,0,1,1.41-1.41Z" transform="translate(-6.26 -1.08)"/><line class="cls-11" x1="66.3" y1="164.78" x2="66.3" y2="186.91"/><line class="cls-12" x1="66.3" y1="164.78" x2="66.3" y2="186.91"/><path class="cls-13" d="M72.56,164.45a1.42,1.42,0,1,1-1.42,1.42h0a1.41,1.41,0,0,1,1.41-1.41Z" transform="translate(-6.26 -1.08)"/><path class="cls-10" d="M115.72,165.29a1.42,1.42,0,1,1-1.42,1.42h0A1.42,1.42,0,0,1,115.72,165.29Z" transform="translate(-6.26 -1.08)"/><line class="cls-11" x1="109.46" y1="165.62" x2="109.46" y2="187.75"/><line class="cls-12" x1="109.46" y1="165.62" x2="109.46" y2="187.75"/><path class="cls-13" d="M115.72,165.29a1.42,1.42,0,1,1-1.42,1.42h0A1.42,1.42,0,0,1,115.72,165.29Z" transform="translate(-6.26 -1.08)"/><path class="cls-10" d="M163.65,137.05a1.42,1.42,0,1,1-1.42,1.42h0A1.43,1.43,0,0,1,163.65,137.05Z" transform="translate(-6.26 -1.08)"/><polyline class="cls-11" points="157.39 137.39 157.39 186.76 170.76 186.76"/><polyline class="cls-12" points="157.39 137.39 157.39 186.76 170.76 186.76"/><path class="cls-13" d="M163.65,137.05a1.42,1.42,0,1,1-1.42,1.42h0A1.43,1.43,0,0,1,163.65,137.05Z" transform="translate(-6.26 -1.08)"/><path class="cls-10" d="M201.25,114.65a1.42,1.42,0,1,1-1.42,1.42h0A1.43,1.43,0,0,1,201.25,114.65Z" transform="translate(-6.26 -1.08)"/><line class="cls-11" x1="194.99" y1="114.99" x2="194.99" y2="149.02"/><line class="cls-12" x1="194.99" y1="114.99" x2="194.99" y2="149.02"/><path class="cls-13" d="M201.25,114.65a1.42,1.42,0,1,1-1.42,1.42h0A1.43,1.43,0,0,1,201.25,114.65Z" transform="translate(-6.26 -1.08)"/><path class="cls-10" d="M228.91,98a1.42,1.42,0,1,1-1.42,1.42h0A1.44,1.44,0,0,1,228.91,98Z" transform="translate(-6.26 -1.08)"/><line class="cls-11" x1="222.65" y1="98.36" x2="222.65" y2="129.72"/><line class="cls-12" x1="222.65" y1="98.36" x2="222.65" y2="129.72"/><path class="cls-13" d="M228.91,98a1.42,1.42,0,1,1-1.42,1.42h0A1.44,1.44,0,0,1,228.91,98Z" transform="translate(-6.26 -1.08)"/><path class="cls-10" d="M265.86,76.4a1.42,1.42,0,1,1-1.42,1.42h0A1.42,1.42,0,0,1,265.86,76.4Z" transform="translate(-6.26 -1.08)"/><polyline class="cls-11" points="259.6 76.73 259.6 148.23 244.43 148.23"/><polyline class="cls-12" points="259.6 76.73 259.6 148.23 244.43 148.23"/><path class="cls-13" d="M265.86,76.4a1.42,1.42,0,1,1-1.42,1.42h0A1.42,1.42,0,0,1,265.86,76.4Z" transform="translate(-6.26 -1.08)"/><path class="cls-10" d="M277.73,65.34a1.42,1.42,0,1,1-1.42,1.42,1.43,1.43,0,0,1,1.42-1.42Z" transform="translate(-6.26 -1.08)"/><polyline class="cls-11" points="271.47 65.68 271.47 167.89 198.09 167.89"/><polyline class="cls-12" points="271.47 65.68 271.47 167.89 198.09 167.89"/><path class="cls-13" d="M277.73,65.34a1.42,1.42,0,1,1-1.42,1.42,1.43,1.43,0,0,1,1.42-1.42Z" transform="translate(-6.26 -1.08)"/><path class="cls-10" d="M225,61.67a1.42,1.42,0,1,1-1.41,1.43h0A1.43,1.43,0,0,1,225,61.67Z" transform="translate(-6.26 -1.08)"/><line class="cls-11" x1="218.76" y1="62.01" x2="218.76" y2="75.89"/><line class="cls-12" x1="218.76" y1="62.01" x2="218.76" y2="75.89"/><path class="cls-13" d="M225,61.67a1.42,1.42,0,1,1-1.41,1.43h0A1.43,1.43,0,0,1,225,61.67Z" transform="translate(-6.26 -1.08)"/><path class="cls-10" d="M208.22,61.77a1.42,1.42,0,1,1-1.42,1.42h0A1.44,1.44,0,0,1,208.22,61.77Z" transform="translate(-6.26 -1.08)"/><line class="cls-11" x1="201.96" y1="62.11" x2="201.96" y2="75.89"/><line class="cls-12" x1="201.96" y1="62.11" x2="201.96" y2="75.89"/><path class="cls-13" d="M208.22,61.77a1.42,1.42,0,1,1-1.42,1.42h0A1.44,1.44,0,0,1,208.22,61.77Z" transform="translate(-6.26 -1.08)"/><path class="cls-10" d="M210.21,29.13a1.42,1.42,0,1,1-1.42-1.42h0A1.42,1.42,0,0,1,210.21,29.13Z" transform="translate(-6.26 -1.08)"/><line class="cls-11" x1="202.54" y1="28.05" x2="189.71" y2="28.05"/><line class="cls-12" x1="202.54" y1="28.05" x2="189.71" y2="28.05"/><path class="cls-13" d="M210.21,29.13a1.42,1.42,0,1,1-1.42-1.42h0A1.42,1.42,0,0,1,210.21,29.13Z" transform="translate(-6.26 -1.08)"/><path class="cls-10" d="M131.93,84.14a1.42,1.42,0,1,1-1.42-1.42h0A1.43,1.43,0,0,1,131.93,84.14Z" transform="translate(-6.26 -1.08)"/><line class="cls-11" x1="124.25" y1="83.06" x2="109.23" y2="83.06"/><line class="cls-12" x1="124.25" y1="83.06" x2="109.23" y2="83.06"/><path class="cls-13" d="M131.93,84.14a1.42,1.42,0,1,1-1.42-1.42h0A1.43,1.43,0,0,1,131.93,84.14Z" transform="translate(-6.26 -1.08)"/><path class="cls-10" d="M32.36,157.79a1.42,1.42,0,1,1-1.42-1.42h0A1.43,1.43,0,0,1,32.36,157.79Z" transform="translate(-6.26 -1.08)"/><polyline class="cls-11" points="24.68 156.7 8.58 156.7 8.58 186.73"/><polyline class="cls-12" points="24.68 156.7 8.58 156.7 8.58 186.73"/><path class="cls-13" d="M32.36,157.79a1.42,1.42,0,1,1-1.42-1.42h0A1.43,1.43,0,0,1,32.36,157.79Z" transform="translate(-6.26 -1.08)"/><path class="cls-10" d="M127.14,110.37a1.42,1.42,0,1,0,1.42-1.42h0A1.44,1.44,0,0,0,127.14,110.37Z" transform="translate(-6.26 -1.08)"/><line class="cls-11" x1="122.3" y1="109.29" x2="140.1" y2="109.29"/><line class="cls-12" x1="122.3" y1="109.29" x2="140.1" y2="109.29"/><path class="cls-13" d="M127.14,110.37a1.42,1.42,0,1,0,1.42-1.42h0A1.44,1.44,0,0,0,127.14,110.37Z" transform="translate(-6.26 -1.08)"/><path class="cls-10" d="M271.51,42a1.42,1.42,0,1,0,1.43-1.41h0A1.42,1.42,0,0,0,271.51,42Z" transform="translate(-6.26 -1.08)"/><polyline class="cls-11" points="266.67 40.89 291.59 40.89 291.59 187.23"/><polyline class="cls-12" points="266.67 40.89 291.59 40.89 291.59 187.23"/><path class="cls-13" d="M271.51,42a1.42,1.42,0,1,0,1.43-1.41h0A1.42,1.42,0,0,0,271.51,42Z" transform="translate(-6.26 -1.08)"/><path class="cls-10" d="M275.73,49.78a1.42,1.42,0,1,0,1.42-1.42,1.43,1.43,0,0,0-1.42,1.42Z" transform="translate(-6.26 -1.08)"/><polyline class="cls-11" points="270.89 48.7 281.52 48.7 281.52 112.23"/><polyline class="cls-12" points="270.89 48.7 281.52 48.7 281.52 112.23"/><path class="cls-13" d="M275.73,49.78a1.42,1.42,0,1,0,1.42-1.42,1.43,1.43,0,0,0-1.42,1.42Z" transform="translate(-6.26 -1.08)"/><rect class="cls-14" x="103.21" y="77.12" width="11.87" height="11.87" rx="2.83"/><polygon class="cls-15" points="105.48 84.76 104.85 87.15 113.44 87.15 112.81 84.76 105.48 84.76"/><polygon class="cls-15" points="106.15 78.94 104.85 83.86 113.44 83.86 112.15 78.94 106.15 78.94"/><rect class="cls-15" x="215.95" y="142.59" width="32.57" height="11.87" rx="2.83"/><polygon class="cls-13" points="230.8 146.23 229.34 146.23 229.49 145.54 230.94 145.54 230.8 146.23"/><polygon class="cls-13" points="230.42 148 228.02 148 228.17 147.31 230.57 147.31 230.42 148"/><polygon class="cls-13" points="230.05 149.78 226.7 149.78 226.85 149.09 230.19 149.09 230.05 149.78"/><polygon class="cls-13" points="229.67 151.56 225.38 151.56 225.52 150.87 229.82 150.87 229.67 151.56"/><path class="cls-16" d="M220.47,143.58a6.34,6.34,0,0,0-.83.3.2.2,0,0,1-.21,0l-1.4-1a.63.63,0,0,0-.74,0l-.9.75a.64.64,0,0,0-.15.73l.77,1.54a.28.28,0,0,1,0,.22,6,6,0,0,0-.44.78.25.25,0,0,1-.19.12l-1.73.11a.61.61,0,0,0-.55.49l-.21,1.16a.64.64,0,0,0,.36.65l1.58.69a.24.24,0,0,1,.13.18,6.64,6.64,0,0,0,.16.87.29.29,0,0,1-.06.22l-1.26,1.19a.62.62,0,0,0-.11.73l.59,1a.65.65,0,0,0,.69.28l1.65-.49a.31.31,0,0,1,.23,0c.21.2.44.39.67.57a.2.2,0,0,1,.1.2l-.2,1.72a.63.63,0,0,0,.39.63l1.11.4a.62.62,0,0,0,.7-.23l.95-1.44a.28.28,0,0,1,.21-.1h.88a.25.25,0,0,1,.2.09l1,1.45a.63.63,0,0,0,.71.23l1.11-.4a.61.61,0,0,0,.38-.63l-.19-1.71a.26.26,0,0,1,.09-.22,7.22,7.22,0,0,0,.68-.56.26.26,0,0,1,.21-.06l1.66.5a.63.63,0,0,0,.69-.28l.59-1a.62.62,0,0,0-.11-.73l-1.25-1.18a.28.28,0,0,1-.07-.23,5.24,5.24,0,0,0,.16-.88.3.3,0,0,1,.12-.17l1.6-.69a.65.65,0,0,0,.35-.65l-.21-1.16a.61.61,0,0,0-.55-.49l-1.72-.11a.3.3,0,0,1-.2-.13,4.51,4.51,0,0,0-.44-.77.26.26,0,0,1,0-.21l.77-1.55a.64.64,0,0,0-.15-.73l-.9-.75a.63.63,0,0,0-.74,0l-1.38,1a.26.26,0,0,1-.24,0,6.34,6.34,0,0,0-.83-.3.26.26,0,0,1-.15-.16l-.4-1.69a.63.63,0,0,0-.58-.46h-1.18a.64.64,0,0,0-.59.46l-.39,1.68A.29.29,0,0,1,220.47,143.58Z" transform="translate(-6.26 -1.08)"/><path class="cls-17" d="M222.21,144.54a5.07,5.07,0,1,0,5.06,5.08h0A5.09,5.09,0,0,0,222.21,144.54Z" transform="translate(-6.26 -1.08)"/><rect class="cls-15" x="170.6" y="142.59" width="32.57" height="11.87" rx="2.83"/><polygon class="cls-13" points="185.45 146.23 183.99 146.23 184.14 145.54 185.59 145.54 185.45 146.23"/><polygon class="cls-13" points="185.07 148 182.67 148 182.82 147.31 185.22 147.31 185.07 148"/><polygon class="cls-13" points="184.7 149.78 181.35 149.78 181.5 149.09 184.84 149.09 184.7 149.78"/><polygon class="cls-13" points="184.32 151.56 180.03 151.56 180.17 150.87 184.47 150.87 184.32 151.56"/><path class="cls-16" d="M175.12,143.58a6.34,6.34,0,0,0-.83.3.2.2,0,0,1-.21,0l-1.4-1a.63.63,0,0,0-.74,0l-.9.75a.64.64,0,0,0-.15.73l.77,1.54a.28.28,0,0,1,0,.22,6,6,0,0,0-.44.78.25.25,0,0,1-.19.12l-1.73.11a.61.61,0,0,0-.55.49l-.21,1.16a.64.64,0,0,0,.36.65l1.58.69a.24.24,0,0,1,.13.18,6.64,6.64,0,0,0,.16.87.29.29,0,0,1-.06.22l-1.26,1.19a.62.62,0,0,0-.11.73l.59,1a.63.63,0,0,0,.69.28l1.65-.49a.31.31,0,0,1,.23,0c.21.2.44.39.67.57a.2.2,0,0,1,.1.2l-.2,1.72a.63.63,0,0,0,.39.63l1.1.4a.63.63,0,0,0,.71-.23l1-1.44a.28.28,0,0,1,.21-.1h.88a.25.25,0,0,1,.2.09l.95,1.45a.63.63,0,0,0,.71.23l1.11-.4a.63.63,0,0,0,.38-.63l-.19-1.71a.26.26,0,0,1,.09-.22,6,6,0,0,0,.67-.56.29.29,0,0,1,.22-.06l1.66.5a.63.63,0,0,0,.69-.28l.59-1a.62.62,0,0,0-.11-.73L183,151.37a.28.28,0,0,1-.07-.23,5.24,5.24,0,0,0,.16-.88.3.3,0,0,1,.12-.17l1.6-.69a.65.65,0,0,0,.35-.65l-.21-1.16a.61.61,0,0,0-.55-.49l-1.7-.1a.28.28,0,0,1-.2-.13,4.51,4.51,0,0,0-.44-.77.38.38,0,0,1,0-.21l.78-1.55a.64.64,0,0,0-.15-.73l-.9-.75a.63.63,0,0,0-.74,0l-1.38,1a.26.26,0,0,1-.24,0,6.34,6.34,0,0,0-.83-.3.26.26,0,0,1-.15-.16l-.4-1.69a.63.63,0,0,0-.58-.46h-1.19a.63.63,0,0,0-.58.46l-.39,1.68A.3.3,0,0,1,175.12,143.58Z" transform="translate(-6.26 -1.08)"/><path class="cls-17" d="M176.86,144.54a5.07,5.07,0,1,0,5.06,5.08h0A5.07,5.07,0,0,0,176.86,144.54Z" transform="translate(-6.26 -1.08)"/><rect class="cls-15" x="109.24" y="180.8" width="32.57" height="11.88" rx="2.83"/><polygon class="cls-13" points="124.09 184.43 122.64 184.43 122.78 183.75 124.24 183.75 124.09 184.43"/><polygon class="cls-13" points="123.71 186.21 121.31 186.21 121.46 185.52 123.86 185.52 123.71 186.21"/><polygon class="cls-13" points="123.34 187.99 119.99 187.99 120.14 187.3 123.49 187.3 123.34 187.99"/><polygon class="cls-13" points="122.96 189.76 118.67 189.76 118.81 189.08 123.11 189.08 122.96 189.76"/><path class="cls-16" d="M113.76,181.79a6.34,6.34,0,0,0-.83.3.2.2,0,0,1-.21,0l-1.39-1a.65.65,0,0,0-.75,0l-.9.76a.64.64,0,0,0-.15.73l.77,1.54a.22.22,0,0,1,0,.22,6,6,0,0,0-.44.78.28.28,0,0,1-.18.12l-1.74.11a.62.62,0,0,0-.55.49l-.2,1.16a.61.61,0,0,0,.35.65l1.58.69a.23.23,0,0,1,.13.17,6.49,6.49,0,0,0,.16.88.23.23,0,0,1-.06.21l-1.26,1.2a.59.59,0,0,0-.1.73l.59,1a.62.62,0,0,0,.68.28l1.65-.5a.32.32,0,0,1,.23.06,6.13,6.13,0,0,0,.68.56.25.25,0,0,1,.09.2l-.2,1.73a.63.63,0,0,0,.39.63l1.11.4a.62.62,0,0,0,.7-.23l1-1.44a.28.28,0,0,1,.21-.1H116a.26.26,0,0,1,.2.1l1,1.45a.65.65,0,0,0,.71.23l1.11-.4a.63.63,0,0,0,.39-.63l-.2-1.71a.26.26,0,0,1,.09-.22,6.13,6.13,0,0,0,.68-.56.2.2,0,0,1,.21-.06l1.66.5a.63.63,0,0,0,.69-.28l.59-1a.64.64,0,0,0-.11-.74l-1.25-1.18a.25.25,0,0,1-.06-.22,6.47,6.47,0,0,0,.15-.88.3.3,0,0,1,.12-.17l1.6-.69a.65.65,0,0,0,.35-.65l-.21-1.16a.64.64,0,0,0-.55-.5l-1.72-.1a.26.26,0,0,1-.19-.13,6,6,0,0,0-.45-.77.26.26,0,0,1,0-.21l.77-1.55a.64.64,0,0,0-.15-.73l-.9-.76a.66.66,0,0,0-.74,0l-1.38,1a.33.33,0,0,1-.24,0c-.26-.11-.54-.21-.83-.3a.28.28,0,0,1-.15-.15l-.4-1.69a.63.63,0,0,0-.58-.46H115a.63.63,0,0,0-.58.46l-.4,1.68A.28.28,0,0,1,113.76,181.79Z" transform="translate(-6.26 -1.08)"/><path class="cls-17" d="M115.5,182.74a5.08,5.08,0,1,0,5.07,5.09v0A5.08,5.08,0,0,0,115.5,182.74Z" transform="translate(-6.26 -1.08)"/><rect class="cls-15" x="170.6" y="180.8" width="32.57" height="11.88" rx="2.83"/><polygon class="cls-13" points="185.45 184.43 184 184.43 184.14 183.75 185.59 183.75 185.45 184.43"/><polygon class="cls-13" points="185.07 186.21 182.67 186.21 182.82 185.52 185.22 185.52 185.07 186.21"/><polygon class="cls-13" points="184.7 187.99 181.35 187.99 181.5 187.3 184.84 187.3 184.7 187.99"/><polygon class="cls-13" points="184.32 189.76 180.03 189.76 180.17 189.08 184.47 189.08 184.32 189.76"/><path class="cls-16" d="M175.12,181.79a6.34,6.34,0,0,0-.83.3.2.2,0,0,1-.21,0l-1.39-1a.66.66,0,0,0-.74,0l-.91.76a.64.64,0,0,0-.15.73l.77,1.54a.22.22,0,0,1,0,.22,6,6,0,0,0-.44.78.28.28,0,0,1-.18.12l-1.74.11a.64.64,0,0,0-.55.49l-.2,1.16a.61.61,0,0,0,.35.65l1.58.69a.25.25,0,0,1,.13.17,6.49,6.49,0,0,0,.16.88.23.23,0,0,1-.06.21l-1.26,1.2a.64.64,0,0,0-.11.73l.59,1a.65.65,0,0,0,.69.28l1.65-.5a.32.32,0,0,1,.23.06,6.13,6.13,0,0,0,.68.56.25.25,0,0,1,.09.2l-.2,1.73a.63.63,0,0,0,.39.63l1.11.4a.62.62,0,0,0,.7-.23l1-1.44a.28.28,0,0,1,.21-.1h.88a.26.26,0,0,1,.2.1l1,1.45a.63.63,0,0,0,.7.23l1.11-.4a.63.63,0,0,0,.39-.63l-.2-1.71a.26.26,0,0,1,.09-.22,6.13,6.13,0,0,0,.68-.56.2.2,0,0,1,.21-.06l1.66.5a.63.63,0,0,0,.69-.28l.59-1a.64.64,0,0,0-.11-.74L183,189.57a.23.23,0,0,1-.06-.22,6.47,6.47,0,0,0,.15-.88.3.3,0,0,1,.12-.17l1.6-.69a.65.65,0,0,0,.35-.65L185,185.8a.64.64,0,0,0-.55-.5l-1.72-.1a.26.26,0,0,1-.19-.13,6,6,0,0,0-.45-.77.26.26,0,0,1,0-.21l.77-1.55a.64.64,0,0,0-.15-.73l-.9-.76a.66.66,0,0,0-.74,0l-1.38,1a.33.33,0,0,1-.24,0c-.27-.11-.54-.21-.83-.3a.28.28,0,0,1-.15-.15l-.4-1.69a.63.63,0,0,0-.58-.46h-1.18a.63.63,0,0,0-.58.46l-.4,1.68A.28.28,0,0,1,175.12,181.79Z" transform="translate(-6.26 -1.08)"/><path class="cls-17" d="M176.86,182.74a5.08,5.08,0,1,0,5.07,5.09v0a5.07,5.07,0,0,0-5.07-5.07Z" transform="translate(-6.26 -1.08)"/><rect class="cls-15" x="264.35" y="180.8" width="32.57" height="11.88" rx="2.83"/><polygon class="cls-13" points="279.2 184.43 277.74 184.43 277.89 183.75 279.34 183.75 279.2 184.43"/><polygon class="cls-13" points="278.82 186.21 276.42 186.21 276.57 185.52 278.97 185.52 278.82 186.21"/><polygon class="cls-13" points="278.45 187.99 275.1 187.99 275.25 187.3 278.59 187.3 278.45 187.99"/><polygon class="cls-13" points="278.07 189.76 273.78 189.76 273.92 189.08 278.22 189.08 278.07 189.76"/><path class="cls-16" d="M268.87,181.79a6.34,6.34,0,0,0-.83.3.2.2,0,0,1-.21,0l-1.4-1a.66.66,0,0,0-.74,0l-.9.76a.64.64,0,0,0-.15.73l.77,1.54a.28.28,0,0,1,0,.22,6,6,0,0,0-.44.78.28.28,0,0,1-.19.12l-1.73.11a.61.61,0,0,0-.55.49l-.21,1.16a.65.65,0,0,0,.35.65l1.58.69a.24.24,0,0,1,.14.17,6.49,6.49,0,0,0,.16.88.26.26,0,0,1-.06.21l-1.26,1.2a.62.62,0,0,0-.11.73l.59,1a.63.63,0,0,0,.69.28l1.65-.5a.32.32,0,0,1,.23.06,7.1,7.1,0,0,0,.67.56.26.26,0,0,1,.1.2l-.2,1.73a.63.63,0,0,0,.39.63l1.1.4a.63.63,0,0,0,.71-.23l1-1.44a.28.28,0,0,1,.21-.1h.88a.26.26,0,0,1,.2.1l.95,1.45a.65.65,0,0,0,.71.23l1.11-.4a.63.63,0,0,0,.38-.63l-.19-1.71a.26.26,0,0,1,.09-.22,6,6,0,0,0,.67-.56.25.25,0,0,1,.22-.06l1.66.5a.63.63,0,0,0,.69-.28l.59-1a.64.64,0,0,0-.11-.74l-1.25-1.18a.26.26,0,0,1-.07-.22,5.24,5.24,0,0,0,.16-.88.3.3,0,0,1,.12-.17l1.59-.69a.64.64,0,0,0,.36-.65l-.21-1.16a.63.63,0,0,0-.55-.5l-1.72-.1a.28.28,0,0,1-.2-.13,7.3,7.3,0,0,0-.44-.77.37.37,0,0,1,0-.21l.78-1.55a.64.64,0,0,0-.15-.73l-.9-.76a.66.66,0,0,0-.74,0l-1.38,1a.33.33,0,0,1-.24,0c-.27-.11-.54-.21-.83-.3a.23.23,0,0,1-.15-.15l-.4-1.69a.63.63,0,0,0-.58-.46H270a.63.63,0,0,0-.58.46l-.39,1.68A.29.29,0,0,1,268.87,181.79Z" transform="translate(-6.26 -1.08)"/><path class="cls-17" d="M270.61,182.74a5.08,5.08,0,1,0,5.06,5.1v0A5.07,5.07,0,0,0,270.61,182.74Z" transform="translate(-6.26 -1.08)"/><rect class="cls-14" x="275.7" y="106.23" width="11.87" height="11.87" rx="2.83"/><polygon class="cls-15" points="277.98 113.86 277.35 116.26 285.94 116.26 285.31 113.86 277.98 113.86"/><polygon class="cls-15" points="278.64 108.04 277.35 112.96 285.94 112.96 284.64 108.04 278.64 108.04"/><rect class="cls-15" x="170.6" y="161.69" width="32.57" height="11.88" rx="2.83"/><polygon class="cls-13" points="185.45 165.33 183.99 165.33 184.14 164.64 185.59 164.64 185.45 165.33"/><polygon class="cls-13" points="185.07 167.11 182.67 167.11 182.82 166.42 185.22 166.42 185.07 167.11"/><polygon class="cls-13" points="184.7 168.88 181.35 168.88 181.5 168.2 184.84 168.2 184.7 168.88"/><polygon class="cls-13" points="184.32 170.66 180.03 170.66 180.17 169.97 184.47 169.97 184.32 170.66"/><path class="cls-16" d="M175.12,162.68a6.39,6.39,0,0,0-.83.31.26.26,0,0,1-.21,0l-1.4-1a.63.63,0,0,0-.74,0l-.9.76a.64.64,0,0,0-.15.73l.77,1.53a.31.31,0,0,1,0,.23,4.51,4.51,0,0,0-.44.77.24.24,0,0,1-.18.13l-1.74.1a.64.64,0,0,0-.55.49l-.2,1.17a.62.62,0,0,0,.35.65l1.58.68a.27.27,0,0,1,.13.18,6.49,6.49,0,0,0,.16.88.26.26,0,0,1-.06.21l-1.26,1.19a.64.64,0,0,0-.11.74l.59,1a.63.63,0,0,0,.69.27l1.65-.49a.24.24,0,0,1,.23.06,7.1,7.1,0,0,0,.67.56.22.22,0,0,1,.1.2l-.2,1.72a.63.63,0,0,0,.39.64l1.1.4a.65.65,0,0,0,.71-.23l1-1.44a.26.26,0,0,1,.21-.11h.88a.26.26,0,0,1,.2.1l.95,1.45a.65.65,0,0,0,.71.23l1.11-.4a.63.63,0,0,0,.38-.64l-.19-1.7a.28.28,0,0,1,.09-.23,5.1,5.1,0,0,0,.67-.56.29.29,0,0,1,.22-.06l1.66.5a.63.63,0,0,0,.69-.27l.59-1a.64.64,0,0,0-.11-.74L183,170.47a.24.24,0,0,1-.06-.23,6.47,6.47,0,0,0,.15-.88.25.25,0,0,1,.12-.16l1.6-.69a.65.65,0,0,0,.35-.65l-.21-1.17a.64.64,0,0,0-.55-.49l-1.72-.1a.28.28,0,0,1-.2-.13,6,6,0,0,0-.44-.78.23.23,0,0,1,0-.2l.78-1.55a.64.64,0,0,0-.15-.73l-.9-.76a.63.63,0,0,0-.74,0l-1.38,1a.33.33,0,0,1-.24,0,6.34,6.34,0,0,0-.83-.3.28.28,0,0,1-.15-.15l-.4-1.69a.63.63,0,0,0-.58-.46h-1.18a.62.62,0,0,0-.59.46l-.39,1.67A.27.27,0,0,1,175.12,162.68Z" transform="translate(-6.26 -1.08)"/><path class="cls-17" d="M176.86,163.64a5.07,5.07,0,1,0,5.06,5.08h0A5.07,5.07,0,0,0,176.86,163.64Z" transform="translate(-6.26 -1.08)"/><rect class="cls-15" x="8.58" y="180.8" width="32.57" height="11.88" rx="2.83"/><polygon class="cls-13" points="23.43 184.43 21.98 184.43 22.12 183.75 23.58 183.75 23.43 184.43"/><polygon class="cls-13" points="23.06 186.21 20.65 186.21 20.8 185.52 23.2 185.52 23.06 186.21"/><polygon class="cls-13" points="22.68 187.99 19.33 187.99 19.48 187.3 22.83 187.3 22.68 187.99"/><polygon class="cls-13" points="22.31 189.76 18.01 189.76 18.15 189.08 22.45 189.08 22.31 189.76"/><path class="cls-16" d="M13.11,181.79a6,6,0,0,0-.84.3.26.26,0,0,1-.21,0l-1.39-1a.66.66,0,0,0-.74,0l-.91.76a.64.64,0,0,0-.15.73l.77,1.54a.22.22,0,0,1,0,.22,6,6,0,0,0-.44.78.28.28,0,0,1-.18.12l-1.73.11a.63.63,0,0,0-.56.49L6.52,187a.61.61,0,0,0,.35.65l1.58.69a.23.23,0,0,1,.13.17,6.49,6.49,0,0,0,.16.88.2.2,0,0,1-.06.21l-1.26,1.2a.62.62,0,0,0-.1.73l.59,1a.63.63,0,0,0,.69.28l1.65-.5a.29.29,0,0,1,.22.06,6.13,6.13,0,0,0,.68.56.25.25,0,0,1,.09.2l-.2,1.73a.63.63,0,0,0,.39.63l1.11.4a.62.62,0,0,0,.7-.23l.95-1.44a.28.28,0,0,1,.21-.1h.88a.26.26,0,0,1,.2.1l1,1.45a.63.63,0,0,0,.7.23l1.11-.4a.63.63,0,0,0,.39-.63l-.2-1.71a.26.26,0,0,1,.09-.22,6.13,6.13,0,0,0,.68-.56.2.2,0,0,1,.21-.06l1.66.5a.63.63,0,0,0,.69-.28l.59-1a.64.64,0,0,0-.11-.74L21,189.57a.25.25,0,0,1-.06-.22,6.47,6.47,0,0,0,.15-.88.31.31,0,0,1,.13-.17l1.59-.69a.62.62,0,0,0,.35-.65L23,185.8a.65.65,0,0,0-.56-.5l-1.72-.1a.26.26,0,0,1-.19-.13,5.35,5.35,0,0,0-.45-.77.26.26,0,0,1,0-.21l.77-1.55a.64.64,0,0,0-.14-.73l-.91-.76a.66.66,0,0,0-.74,0l-1.38,1a.33.33,0,0,1-.24,0c-.26-.11-.54-.21-.83-.3a.28.28,0,0,1-.15-.15l-.4-1.69a.63.63,0,0,0-.58-.46H14.25a.63.63,0,0,0-.58.46l-.4,1.68A.29.29,0,0,1,13.11,181.79Z" transform="translate(-6.26 -1.08)"/><path class="cls-17" d="M14.84,182.74a5.08,5.08,0,1,0,5.07,5.09v0a5.07,5.07,0,0,0-5.07-5.07Z" transform="translate(-6.26 -1.08)"/><rect class="cls-15" x="50.78" y="180.8" width="32.57" height="11.88" rx="2.83"/><polygon class="cls-13" points="65.63 184.43 64.18 184.43 64.33 183.75 65.78 183.75 65.63 184.43"/><polygon class="cls-13" points="65.26 186.21 62.86 186.21 63.01 185.52 65.41 185.52 65.26 186.21"/><polygon class="cls-13" points="64.88 187.99 61.54 187.99 61.68 187.3 65.03 187.3 64.88 187.99"/><polygon class="cls-13" points="64.51 189.76 60.21 189.76 60.36 189.08 64.65 189.08 64.51 189.76"/><path class="cls-16" d="M55.31,181.79a6.34,6.34,0,0,0-.83.3.28.28,0,0,1-.22,0l-1.39-1a.66.66,0,0,0-.74,0l-.9.76a.64.64,0,0,0-.15.73l.76,1.54a.22.22,0,0,1,0,.22,7.44,7.44,0,0,0-.44.78.23.23,0,0,1-.18.12l-1.73.11a.61.61,0,0,0-.55.49L48.72,187a.62.62,0,0,0,.35.65l1.58.69a.26.26,0,0,1,.14.17,6.47,6.47,0,0,0,.15.88.26.26,0,0,1,0,.21l-1.26,1.2a.62.62,0,0,0-.11.73l.59,1a.63.63,0,0,0,.69.28l1.65-.5a.32.32,0,0,1,.23.06,6,6,0,0,0,.67.56.25.25,0,0,1,.09.2l-.19,1.73a.61.61,0,0,0,.38.63l1.11.4a.63.63,0,0,0,.71-.23l.94-1.44a.28.28,0,0,1,.21-.1h.88a.26.26,0,0,1,.2.1l1,1.45a.63.63,0,0,0,.7.23l1.11-.4a.63.63,0,0,0,.39-.63l-.2-1.71a.26.26,0,0,1,.1-.22,7.1,7.1,0,0,0,.67-.56.26.26,0,0,1,.21-.06l1.67.5a.62.62,0,0,0,.68-.28l.6-1a.65.65,0,0,0-.11-.74l-1.25-1.18a.26.26,0,0,1-.07-.22,6.49,6.49,0,0,0,.16-.88.26.26,0,0,1,.12-.17l1.59-.69a.61.61,0,0,0,.35-.65l-.2-1.16a.64.64,0,0,0-.56-.5l-1.71-.1a.28.28,0,0,1-.2-.13,7.3,7.3,0,0,0-.44-.77.26.26,0,0,1,0-.21l.78-1.55a.65.65,0,0,0-.15-.73l-.91-.76a.66.66,0,0,0-.74,0l-1.38,1a.31.31,0,0,1-.23,0c-.27-.11-.55-.21-.83-.3a.23.23,0,0,1-.15-.15L58.32,180a.63.63,0,0,0-.58-.46H56.45a.63.63,0,0,0-.58.46l-.4,1.68A.26.26,0,0,1,55.31,181.79Z" transform="translate(-6.26 -1.08)"/><path class="cls-17" d="M57,182.74a5.08,5.08,0,1,0,5.07,5.09v0A5.07,5.07,0,0,0,57,182.74Z" transform="translate(-6.26 -1.08)"/><rect class="cls-15" x="8.58" y="90.8" width="32.57" height="11.88" rx="2.83"/><polygon class="cls-13" points="23.43 94.43 21.98 94.43 22.12 93.75 23.58 93.75 23.43 94.43"/><polygon class="cls-13" points="23.06 96.21 20.65 96.21 20.8 95.52 23.2 95.52 23.06 96.21"/><polygon class="cls-13" points="22.68 97.99 19.33 97.99 19.48 97.3 22.83 97.3 22.68 97.99"/><polygon class="cls-13" points="22.31 99.76 18.01 99.76 18.15 99.08 22.45 99.08 22.31 99.76"/><path class="cls-16" d="M13.11,91.79a6,6,0,0,0-.84.3.26.26,0,0,1-.21,0l-1.39-1a.66.66,0,0,0-.74,0L9,91.81a.64.64,0,0,0-.15.73l.77,1.54a.22.22,0,0,1,0,.22,6,6,0,0,0-.44.78A.28.28,0,0,1,9,95.2l-1.73.11a.63.63,0,0,0-.56.49L6.52,97a.61.61,0,0,0,.35.65l1.58.69a.23.23,0,0,1,.13.17,6.49,6.49,0,0,0,.16.88.2.2,0,0,1-.06.21l-1.26,1.2a.62.62,0,0,0-.1.73l.59,1a.63.63,0,0,0,.69.28l1.65-.5a.29.29,0,0,1,.22.06,6.13,6.13,0,0,0,.68.56.25.25,0,0,1,.09.2l-.2,1.73a.63.63,0,0,0,.39.63l1.11.4a.62.62,0,0,0,.7-.23l.95-1.44a.28.28,0,0,1,.21-.1h.88a.26.26,0,0,1,.2.1l1,1.45a.63.63,0,0,0,.7.23l1.11-.4a.63.63,0,0,0,.39-.63l-.2-1.71a.26.26,0,0,1,.09-.22,7.22,7.22,0,0,0,.68-.56.2.2,0,0,1,.21-.06l1.66.5a.65.65,0,0,0,.69-.28l.59-1a.64.64,0,0,0-.11-.74L21,99.57a.25.25,0,0,1-.06-.22,6.47,6.47,0,0,0,.15-.88.31.31,0,0,1,.13-.17l1.59-.69a.62.62,0,0,0,.35-.65L23,95.8a.65.65,0,0,0-.56-.5l-1.72-.1a.26.26,0,0,1-.19-.13A5,5,0,0,0,20,94.3a.26.26,0,0,1,0-.21l.77-1.55a.64.64,0,0,0-.14-.73l-.91-.76A.65.65,0,0,0,19,91l-1.38,1a.33.33,0,0,1-.24,0c-.26-.11-.54-.21-.83-.3a.28.28,0,0,1-.15-.15L16,89.94a.63.63,0,0,0-.58-.46H14.25a.63.63,0,0,0-.58.46l-.4,1.68A.25.25,0,0,1,13.11,91.79Z" transform="translate(-6.26 -1.08)"/><path class="cls-17" d="M14.84,92.74a5.08,5.08,0,1,0,5.07,5.09v0A5.07,5.07,0,0,0,14.84,92.74Z" transform="translate(-6.26 -1.08)"/><rect class="cls-15" x="8.58" y="68.8" width="32.57" height="11.88" rx="2.83"/><polygon class="cls-13" points="23.43 72.43 21.98 72.43 22.12 71.75 23.58 71.75 23.43 72.43"/><polygon class="cls-13" points="23.06 74.21 20.65 74.21 20.8 73.52 23.2 73.52 23.06 74.21"/><polygon class="cls-13" points="22.68 75.99 19.33 75.99 19.48 75.3 22.83 75.3 22.68 75.99"/><polygon class="cls-13" points="22.31 77.76 18.01 77.76 18.15 77.08 22.45 77.08 22.31 77.76"/><path class="cls-16" d="M13.11,69.79a6,6,0,0,0-.84.3.26.26,0,0,1-.21,0l-1.39-1a.66.66,0,0,0-.74,0L9,69.81a.64.64,0,0,0-.15.73l.77,1.54a.22.22,0,0,1,0,.22,6,6,0,0,0-.44.78A.28.28,0,0,1,9,73.2l-1.73.11a.63.63,0,0,0-.56.49L6.52,75a.61.61,0,0,0,.35.65l1.58.69a.23.23,0,0,1,.13.17,6.49,6.49,0,0,0,.16.88.2.2,0,0,1-.06.21L7.42,78.8a.62.62,0,0,0-.1.73l.59,1a.63.63,0,0,0,.69.28l1.65-.5a.29.29,0,0,1,.22.06,6.13,6.13,0,0,0,.68.56.25.25,0,0,1,.09.2L11,82.84a.63.63,0,0,0,.39.63l1.11.4a.62.62,0,0,0,.7-.23l1-1.44a.28.28,0,0,1,.21-.1h.88a.26.26,0,0,1,.2.1l1,1.45a.63.63,0,0,0,.7.23l1.11-.4a.63.63,0,0,0,.39-.63l-.2-1.71a.26.26,0,0,1,.09-.22,7.22,7.22,0,0,0,.68-.56.2.2,0,0,1,.21-.06l1.66.5a.65.65,0,0,0,.69-.28l.59-1a.64.64,0,0,0-.11-.74L21,77.57a.25.25,0,0,1-.06-.22,6.47,6.47,0,0,0,.15-.88.31.31,0,0,1,.13-.17l1.59-.69a.62.62,0,0,0,.35-.65L23,73.8a.65.65,0,0,0-.56-.5l-1.72-.1a.26.26,0,0,1-.19-.13A5,5,0,0,0,20,72.3a.26.26,0,0,1,0-.21l.77-1.55a.64.64,0,0,0-.14-.73l-.91-.76A.65.65,0,0,0,19,69l-1.38,1a.33.33,0,0,1-.24,0c-.26-.11-.54-.21-.83-.3a.28.28,0,0,1-.15-.15L16,67.94a.63.63,0,0,0-.58-.46H14.25a.63.63,0,0,0-.58.46l-.4,1.68A.25.25,0,0,1,13.11,69.79Z" transform="translate(-6.26 -1.08)"/><path class="cls-17" d="M14.84,70.74a5.08,5.08,0,1,0,5.07,5.09v0A5.07,5.07,0,0,0,14.84,70.74Z" transform="translate(-6.26 -1.08)"/><rect class="cls-15" x="87.87" y="125.48" width="32.57" height="11.88" rx="2.83"/><polygon class="cls-13" points="102.72 129.12 101.27 129.12 101.41 128.43 102.87 128.43 102.72 129.12"/><polygon class="cls-13" points="102.35 130.89 99.95 130.89 100.09 130.21 102.49 130.21 102.35 130.89"/><polygon class="cls-13" points="101.97 132.67 98.62 132.67 98.77 131.98 102.12 131.98 101.97 132.67"/><polygon class="cls-13" points="101.6 134.45 97.3 134.45 97.45 133.76 101.74 133.76 101.6 134.45"/><path class="cls-16" d="M92.4,126.47a6.34,6.34,0,0,0-.83.3.28.28,0,0,1-.22,0l-1.39-1a.63.63,0,0,0-.74,0l-.91.76a.63.63,0,0,0-.15.72l.77,1.54a.24.24,0,0,1,0,.23,4.51,4.51,0,0,0-.44.77.27.27,0,0,1-.18.13l-1.73.1a.63.63,0,0,0-.56.49l-.2,1.16a.63.63,0,0,0,.35.66l1.58.68a.28.28,0,0,1,.14.18A7.5,7.5,0,0,0,88,134a.28.28,0,0,1,0,.22l-1.26,1.19a.62.62,0,0,0-.11.73l.59,1a.63.63,0,0,0,.69.27l1.65-.49a.25.25,0,0,1,.22.05,7.59,7.59,0,0,0,.68.57.25.25,0,0,1,.09.2l-.2,1.72a.63.63,0,0,0,.39.63l1.11.4a.63.63,0,0,0,.71-.23l.94-1.44a.28.28,0,0,1,.21-.1h.88a.25.25,0,0,1,.2.09l1,1.45a.62.62,0,0,0,.7.23l1.11-.4a.63.63,0,0,0,.39-.63l-.2-1.71a.31.31,0,0,1,.09-.22,6.13,6.13,0,0,0,.68-.56.26.26,0,0,1,.21-.06l1.66.5a.63.63,0,0,0,.69-.27l.59-1a.62.62,0,0,0-.1-.73l-1.25-1.18a.25.25,0,0,1-.07-.23,8.52,8.52,0,0,0,.16-.88.24.24,0,0,1,.12-.17l1.59-.69a.61.61,0,0,0,.35-.65l-.2-1.16a.63.63,0,0,0-.56-.49l-1.71-.1a.25.25,0,0,1-.2-.14,6,6,0,0,0-.45-.77.26.26,0,0,1,0-.21l.78-1.55a.63.63,0,0,0-.15-.72l-.91-.76a.63.63,0,0,0-.74,0l-1.38,1a.24.24,0,0,1-.23,0,6,6,0,0,0-.84-.3.29.29,0,0,1-.15-.16l-.4-1.68a.63.63,0,0,0-.58-.46H93.54a.63.63,0,0,0-.58.46l-.4,1.67A.28.28,0,0,1,92.4,126.47Z" transform="translate(-6.26 -1.08)"/><path class="cls-17" d="M94.13,127.43a5.07,5.07,0,1,0,5.07,5.07h0A5.07,5.07,0,0,0,94.13,127.43Z" transform="translate(-6.26 -1.08)"/><rect class="cls-15" x="89.95" y="56.68" width="32.57" height="11.88" rx="2.83"/><polygon class="cls-13" points="104.8 60.32 103.34 60.32 103.49 59.63 104.94 59.63 104.8 60.32"/><polygon class="cls-13" points="104.42 62.1 102.02 62.1 102.17 61.41 104.57 61.41 104.42 62.1"/><polygon class="cls-13" points="104.05 63.87 100.7 63.87 100.85 63.19 104.19 63.19 104.05 63.87"/><polygon class="cls-13" points="103.67 65.65 99.38 65.65 99.52 64.96 103.82 64.96 103.67 65.65"/><path class="cls-16" d="M94.47,57.67a8.29,8.29,0,0,0-.83.31.26.26,0,0,1-.21,0L92,57a.66.66,0,0,0-.74,0l-.9.76a.64.64,0,0,0-.15.73L91,60a.28.28,0,0,1,0,.22,7.3,7.3,0,0,0-.44.77.26.26,0,0,1-.19.13l-1.73.1a.64.64,0,0,0-.55.49l-.21,1.17a.64.64,0,0,0,.36.65l1.58.68a.29.29,0,0,1,.13.18,6.49,6.49,0,0,0,.16.88.26.26,0,0,1-.06.21l-1.26,1.19a.64.64,0,0,0-.11.74l.59,1a.63.63,0,0,0,.69.27l1.65-.49a.24.24,0,0,1,.23.06,7.1,7.1,0,0,0,.67.56.26.26,0,0,1,.1.2l-.2,1.73a.63.63,0,0,0,.39.63l1.11.4a.63.63,0,0,0,.7-.23l1-1.44a.23.23,0,0,1,.21-.1h.88a.26.26,0,0,1,.2.1l1,1.45a.65.65,0,0,0,.71.23l1.11-.4a.63.63,0,0,0,.38-.63L99.81,69a.24.24,0,0,1,.09-.22,7.59,7.59,0,0,0,.68-.57.2.2,0,0,1,.21,0l1.66.49a.63.63,0,0,0,.69-.27l.59-1a.64.64,0,0,0-.11-.74l-1.25-1.18a.26.26,0,0,1-.07-.22,5.36,5.36,0,0,0,.16-.89.28.28,0,0,1,.12-.16l1.6-.69a.65.65,0,0,0,.35-.65l-.21-1.17a.64.64,0,0,0-.55-.49l-1.72-.1a.3.3,0,0,1-.2-.13,6,6,0,0,0-.44-.78.23.23,0,0,1,0-.2l.77-1.55a.64.64,0,0,0-.15-.73l-.9-.76a.63.63,0,0,0-.74,0L99,58a.33.33,0,0,1-.24,0,6.34,6.34,0,0,0-.83-.3.23.23,0,0,1-.15-.15l-.4-1.69a.63.63,0,0,0-.58-.46H95.62a.64.64,0,0,0-.59.46l-.39,1.67A.26.26,0,0,1,94.47,57.67Z" transform="translate(-6.26 -1.08)"/><path class="cls-17" d="M96.21,58.63a5.07,5.07,0,1,0,5.06,5.08h0A5.09,5.09,0,0,0,96.21,58.63Z" transform="translate(-6.26 -1.08)"/><rect class="cls-15" x="139.66" y="103.7" width="32.57" height="11.88" rx="2.83"/><polygon class="cls-13" points="154.51 107.34 153.06 107.34 153.21 106.65 154.66 106.65 154.51 107.34"/><polygon class="cls-13" points="154.14 109.12 151.74 109.12 151.88 108.43 154.28 108.43 154.14 109.12"/><polygon class="cls-13" points="153.76 110.89 150.42 110.89 150.56 110.2 153.91 110.2 153.76 110.89"/><polygon class="cls-13" points="153.39 112.67 149.09 112.67 149.24 111.98 153.53 111.98 153.39 112.67"/><path class="cls-16" d="M144.19,104.69a5.21,5.21,0,0,0-.83.31.28.28,0,0,1-.22,0l-1.39-1a.63.63,0,0,0-.74,0l-.91.76a.65.65,0,0,0-.15.73l.77,1.53a.24.24,0,0,1,0,.23,7.3,7.3,0,0,0-.44.77.24.24,0,0,1-.18.13l-1.73.1a.66.66,0,0,0-.56.49l-.2,1.17a.62.62,0,0,0,.35.65l1.58.68a.28.28,0,0,1,.14.18,6.47,6.47,0,0,0,.15.88.26.26,0,0,1,0,.21l-1.26,1.19a.64.64,0,0,0-.11.74l.59,1a.63.63,0,0,0,.69.27l1.65-.49a.24.24,0,0,1,.23.06,6,6,0,0,0,.67.56.25.25,0,0,1,.09.2l-.2,1.72a.63.63,0,0,0,.39.63l1.11.41a.65.65,0,0,0,.71-.24l.94-1.43a.26.26,0,0,1,.21-.11h.88a.26.26,0,0,1,.2.1l1,1.44a.62.62,0,0,0,.7.24l1.11-.41a.63.63,0,0,0,.39-.63l-.2-1.7a.32.32,0,0,1,.09-.23,6.13,6.13,0,0,0,.68-.56.26.26,0,0,1,.21-.06l1.66.5a.63.63,0,0,0,.69-.27l.59-1a.62.62,0,0,0-.1-.73l-1.25-1.18a.25.25,0,0,1-.07-.23,6.49,6.49,0,0,0,.16-.88.22.22,0,0,1,.12-.16l1.59-.69a.62.62,0,0,0,.35-.65l-.2-1.17a.64.64,0,0,0-.56-.49l-1.71-.1a.28.28,0,0,1-.2-.13,6.06,6.06,0,0,0-.45-.78.23.23,0,0,1,0-.2l.78-1.55a.65.65,0,0,0-.15-.73l-.91-.76a.63.63,0,0,0-.74,0l-1.38,1a.31.31,0,0,1-.23,0,6.34,6.34,0,0,0-.83-.3.23.23,0,0,1-.15-.15l-.41-1.69a.63.63,0,0,0-.58-.46h-1.18a.63.63,0,0,0-.58.46l-.4,1.67A.24.24,0,0,1,144.19,104.69Z" transform="translate(-6.26 -1.08)"/><path class="cls-17" d="M145.92,105.65a5.07,5.07,0,1,0,5.07,5.07,5.07,5.07,0,0,0-5.07-5.07Z" transform="translate(-6.26 -1.08)"/><rect class="cls-15" x="173.26" y="69.94" width="32.57" height="11.88" rx="2.83"/><polygon class="cls-13" points="188.12 73.58 186.66 73.58 186.81 72.89 188.26 72.89 188.12 73.58"/><polygon class="cls-13" points="187.74 75.35 185.34 75.35 185.49 74.67 187.89 74.67 187.74 75.35"/><polygon class="cls-13" points="187.37 77.13 184.02 77.13 184.16 76.44 187.51 76.44 187.37 77.13"/><polygon class="cls-13" points="186.99 78.91 182.7 78.91 182.84 78.22 187.14 78.22 186.99 78.91"/><path class="cls-16" d="M177.79,70.93a6.34,6.34,0,0,0-.83.3.2.2,0,0,1-.21,0l-1.4-1a.63.63,0,0,0-.74,0l-.9.76a.6.6,0,0,0-.15.72l.77,1.54a.28.28,0,0,1,0,.22,6.06,6.06,0,0,0-.45.78.24.24,0,0,1-.18.13l-1.73.1a.61.61,0,0,0-.55.49l-.21,1.16a.65.65,0,0,0,.35.65l1.58.69a.28.28,0,0,1,.14.18,6.64,6.64,0,0,0,.16.87.29.29,0,0,1-.06.22l-1.26,1.19a.62.62,0,0,0-.11.73l.59,1a.63.63,0,0,0,.69.28l1.65-.49a.31.31,0,0,1,.23,0c.21.2.44.39.67.57a.2.2,0,0,1,.09.2l-.2,1.78a.63.63,0,0,0,.39.63l1.1.4a.63.63,0,0,0,.71-.23l.94-1.44a.32.32,0,0,1,.22-.1H180a.24.24,0,0,1,.21.09l1,1.45a.62.62,0,0,0,.7.23l1.11-.4a.62.62,0,0,0,.39-.63l-.2-1.71a.27.27,0,0,1,.1-.22,6,6,0,0,0,.67-.56.26.26,0,0,1,.21-.06l1.67.5a.63.63,0,0,0,.69-.28l.59-1a.62.62,0,0,0-.11-.73l-1.25-1.18a.28.28,0,0,1-.07-.23,6.49,6.49,0,0,0,.16-.88.26.26,0,0,1,.12-.17l1.59-.69a.64.64,0,0,0,.36-.65L187.69,75a.61.61,0,0,0-.55-.49l-1.72-.1a.35.35,0,0,1-.2-.14,7.3,7.3,0,0,0-.44-.77.26.26,0,0,1,0-.21l.78-1.55a.6.6,0,0,0-.15-.72l-.9-.76a.63.63,0,0,0-.74,0l-1.39,1a.24.24,0,0,1-.23,0,6.34,6.34,0,0,0-.83-.3.26.26,0,0,1-.15-.16l-.41-1.69a.63.63,0,0,0-.58-.46H179a.63.63,0,0,0-.58.46l-.4,1.68A.25.25,0,0,1,177.79,70.93Z" transform="translate(-6.26 -1.08)"/><path class="cls-17" d="M179.52,71.89A5.07,5.07,0,1,0,184.59,77a5.07,5.07,0,0,0-5.07-5.11Z" transform="translate(-6.26 -1.08)"/><path class="cls-15" d="M273.44,3.7h26.9a2.83,2.83,0,0,1,2.83,2.83v6.21a2.83,2.83,0,0,1-2.83,2.83h-26.9a2.83,2.83,0,0,1-2.83-2.83V6.53A2.85,2.85,0,0,1,273.44,3.7Z" transform="translate(-6.26 -1.08)"/><polygon class="cls-13" points="279.2 6.25 277.74 6.25 277.89 5.57 279.34 5.57 279.2 6.25"/><polygon class="cls-13" points="278.82 8.03 276.42 8.03 276.57 7.34 278.97 7.34 278.82 8.03"/><polygon class="cls-13" points="278.45 9.81 275.1 9.81 275.24 9.12 278.59 9.12 278.45 9.81"/><polygon class="cls-13" points="278.07 11.58 273.78 11.58 273.92 10.9 278.22 10.9 278.07 11.58"/><path class="cls-16" d="M268.87,3.61a6.34,6.34,0,0,0-.83.3.2.2,0,0,1-.21,0l-1.4-1a.63.63,0,0,0-.74,0l-.9.75a.64.64,0,0,0-.15.73l.77,1.54a.28.28,0,0,1,0,.22,6.06,6.06,0,0,0-.45.78.22.22,0,0,1-.18.12L263,7.13a.61.61,0,0,0-.55.49l-.21,1.16a.65.65,0,0,0,.35.65l1.58.69a.24.24,0,0,1,.14.18,6.64,6.64,0,0,0,.16.87.29.29,0,0,1-.06.22l-1.26,1.19a.62.62,0,0,0-.11.73l.59,1a.63.63,0,0,0,.69.28L266,14.1a.27.27,0,0,1,.23.05c.21.2.44.39.67.57a.23.23,0,0,1,.1.19l-.2,1.73a.63.63,0,0,0,.39.63l1.1.4a.63.63,0,0,0,.71-.23L270,16a.32.32,0,0,1,.22-.1h.88a.25.25,0,0,1,.2.09l.95,1.45a.63.63,0,0,0,.71.23l1.1-.4a.62.62,0,0,0,.39-.63L274.21,15a.26.26,0,0,1,.09-.22,6,6,0,0,0,.67-.56.26.26,0,0,1,.21-.06l1.67.5a.63.63,0,0,0,.69-.28l.59-1a.62.62,0,0,0-.11-.73l-1.25-1.18a.28.28,0,0,1-.07-.23,5.24,5.24,0,0,0,.16-.88.3.3,0,0,1,.12-.17l1.59-.69a.64.64,0,0,0,.36-.65l-.21-1.16a.64.64,0,0,0-.55-.5L276.45,7a.28.28,0,0,1-.2-.13,7.3,7.3,0,0,0-.44-.77.26.26,0,0,1,0-.21l.78-1.55a.64.64,0,0,0-.15-.73l-.9-.75a.63.63,0,0,0-.74,0l-1.38,1a.26.26,0,0,1-.24,0,6.34,6.34,0,0,0-.83-.3.26.26,0,0,1-.15-.16l-.41-1.69a.63.63,0,0,0-.58-.46H270a.63.63,0,0,0-.58.46L269,3.44A.25.25,0,0,1,268.87,3.61Z" transform="translate(-6.26 -1.08)"/><path class="cls-17" d="M270.6,4.57a5.07,5.07,0,1,0,5.07,5.07,5.07,5.07,0,0,0-5.07-5.07Z" transform="translate(-6.26 -1.08)"/><rect class="cls-15" x="160.35" y="2.62" width="32.57" height="11.88" rx="2.83"/><polygon class="cls-13" points="175.2 6.25 173.74 6.25 173.89 5.57 175.34 5.57 175.2 6.25"/><polygon class="cls-13" points="174.82 8.03 172.42 8.03 172.57 7.34 174.97 7.34 174.82 8.03"/><polygon class="cls-13" points="174.45 9.81 171.1 9.81 171.25 9.12 174.59 9.12 174.45 9.81"/><polygon class="cls-13" points="174.07 11.58 169.78 11.58 169.92 10.9 174.22 10.9 174.07 11.58"/><path class="cls-16" d="M164.87,3.61a6.34,6.34,0,0,0-.83.3.2.2,0,0,1-.21,0l-1.4-1a.63.63,0,0,0-.74,0l-.9.75a.64.64,0,0,0-.15.73l.77,1.54a.28.28,0,0,1,0,.22,6,6,0,0,0-.44.78.25.25,0,0,1-.19.12L159,7.13a.61.61,0,0,0-.55.49l-.21,1.16a.64.64,0,0,0,.36.65l1.58.69a.24.24,0,0,1,.13.18,6.64,6.64,0,0,0,.16.87.29.29,0,0,1-.06.22l-1.26,1.19a.62.62,0,0,0-.11.73l.59,1a.63.63,0,0,0,.69.28L162,14.1a.27.27,0,0,1,.23.05c.21.2.44.39.67.57a.23.23,0,0,1,.1.19l-.2,1.73a.63.63,0,0,0,.39.63l1.1.4a.63.63,0,0,0,.71-.23L166,16a.28.28,0,0,1,.21-.1h.88a.25.25,0,0,1,.2.09l1,1.45a.63.63,0,0,0,.71.23l1.11-.4a.63.63,0,0,0,.38-.63L170.21,15a.26.26,0,0,1,.09-.22,6,6,0,0,0,.67-.56.29.29,0,0,1,.22-.06l1.66.5a.63.63,0,0,0,.69-.28l.59-1a.62.62,0,0,0-.11-.73l-1.25-1.18a.28.28,0,0,1-.07-.23,5.24,5.24,0,0,0,.16-.88.3.3,0,0,1,.12-.17l1.6-.69a.65.65,0,0,0,.35-.65l-.21-1.16a.64.64,0,0,0-.55-.5L172.45,7a.28.28,0,0,1-.2-.13,4.51,4.51,0,0,0-.44-.77.38.38,0,0,1,0-.21l.78-1.55a.64.64,0,0,0-.15-.73l-.9-.75a.63.63,0,0,0-.74,0l-1.38,1a.25.25,0,0,1-.24,0,6.34,6.34,0,0,0-.83-.3.26.26,0,0,1-.15-.16l-.4-1.69a.63.63,0,0,0-.58-.46H166a.63.63,0,0,0-.58.46L165,3.44A.31.31,0,0,1,164.87,3.61Z" transform="translate(-6.26 -1.08)"/><path class="cls-17" d="M166.61,4.57a5.07,5.07,0,1,0,5.06,5.08h0A5.07,5.07,0,0,0,166.61,4.57Z" transform="translate(-6.26 -1.08)"/><rect class="cls-15" x="160.35" y="22.15" width="32.57" height="11.88" rx="2.83"/><polygon class="cls-13" points="175.2 25.78 173.74 25.78 173.89 25.1 175.34 25.1 175.2 25.78"/><polygon class="cls-13" points="174.82 27.56 172.42 27.56 172.57 26.87 174.97 26.87 174.82 27.56"/><polygon class="cls-13" points="174.45 29.34 171.1 29.34 171.25 28.65 174.59 28.65 174.45 29.34"/><polygon class="cls-13" points="174.07 31.11 169.78 31.11 169.92 30.43 174.22 30.43 174.07 31.11"/><path class="cls-16" d="M164.87,23.14a6.34,6.34,0,0,0-.83.3.2.2,0,0,1-.21,0l-1.4-1a.66.66,0,0,0-.74,0l-.9.76a.64.64,0,0,0-.15.73l.77,1.54a.28.28,0,0,1,0,.22,6,6,0,0,0-.44.78.28.28,0,0,1-.19.12l-1.73.11a.61.61,0,0,0-.55.49l-.21,1.16a.64.64,0,0,0,.36.65l1.58.69a.25.25,0,0,1,.13.17,6.49,6.49,0,0,0,.16.88.26.26,0,0,1-.06.21l-1.26,1.2a.62.62,0,0,0-.11.73l.59,1a.63.63,0,0,0,.69.28l1.65-.5a.32.32,0,0,1,.23.06,7.1,7.1,0,0,0,.67.56.26.26,0,0,1,.1.2l-.2,1.73a.63.63,0,0,0,.39.63l1.1.4A.62.62,0,0,0,165,37l1-1.44a.28.28,0,0,1,.21-.1h.88a.26.26,0,0,1,.2.1L168.2,37a.65.65,0,0,0,.71.23l1.11-.4a.63.63,0,0,0,.38-.63l-.19-1.71a.26.26,0,0,1,.09-.22,7.1,7.1,0,0,0,.67-.56.25.25,0,0,1,.22-.06l1.66.5a.65.65,0,0,0,.69-.28l.59-1a.64.64,0,0,0-.11-.74L172.77,31a.26.26,0,0,1-.07-.22,5.24,5.24,0,0,0,.16-.88.3.3,0,0,1,.12-.17l1.6-.69a.65.65,0,0,0,.35-.65l-.21-1.16a.64.64,0,0,0-.55-.5l-1.72-.1a.28.28,0,0,1-.2-.13,4.51,4.51,0,0,0-.44-.77.38.38,0,0,1,0-.21l.78-1.55a.64.64,0,0,0-.15-.73l-.9-.76a.66.66,0,0,0-.74,0l-1.38,1a.33.33,0,0,1-.24,0c-.27-.11-.54-.21-.83-.3a.23.23,0,0,1-.15-.15l-.4-1.69a.63.63,0,0,0-.58-.46H166a.63.63,0,0,0-.58.46L165,23A.29.29,0,0,1,164.87,23.14Z" transform="translate(-6.26 -1.08)"/><path class="cls-17" d="M166.61,24.09a5.08,5.08,0,1,0,5.06,5.1v0A5.07,5.07,0,0,0,166.61,24.09Z" transform="translate(-6.26 -1.08)"/><rect class="cls-15" x="160.35" y="40.74" width="32.57" height="11.88" rx="2.83"/><polygon class="cls-13" points="175.2 44.37 173.74 44.37 173.89 43.69 175.34 43.69 175.2 44.37"/><polygon class="cls-13" points="174.82 46.15 172.42 46.15 172.57 45.47 174.97 45.47 174.82 46.15"/><polygon class="cls-13" points="174.45 47.93 171.1 47.93 171.25 47.24 174.59 47.24 174.45 47.93"/><polygon class="cls-13" points="174.07 49.71 169.78 49.71 169.92 49.02 174.22 49.02 174.07 49.71"/><path class="cls-16" d="M164.87,41.73a6.34,6.34,0,0,0-.83.3.2.2,0,0,1-.21,0l-1.4-1a.63.63,0,0,0-.74,0l-.9.76a.6.6,0,0,0-.15.72l.77,1.54a.28.28,0,0,1,0,.22A6.51,6.51,0,0,0,161,45a.29.29,0,0,1-.19.13l-1.73.1a.61.61,0,0,0-.55.49l-.21,1.16a.64.64,0,0,0,.36.65l1.58.69a.24.24,0,0,1,.13.18,6.64,6.64,0,0,0,.16.87.29.29,0,0,1-.06.22l-1.26,1.19a.62.62,0,0,0-.11.73l.59,1a.63.63,0,0,0,.69.28l1.65-.49a.31.31,0,0,1,.23,0c.21.2.44.39.67.57a.2.2,0,0,1,.1.2l-.2,1.72a.63.63,0,0,0,.39.63l1.1.4a.63.63,0,0,0,.71-.23l1-1.44a.28.28,0,0,1,.21-.1h.88a.25.25,0,0,1,.2.09l.95,1.45a.63.63,0,0,0,.71.23l1.11-.4a.63.63,0,0,0,.38-.63L170.3,53a.26.26,0,0,1,.09-.22,6,6,0,0,0,.67-.56.29.29,0,0,1,.22-.06l1.66.5a.63.63,0,0,0,.69-.28l.59-1a.62.62,0,0,0-.11-.73l-1.25-1.18a.28.28,0,0,1-.07-.23,5.24,5.24,0,0,0,.16-.88.3.3,0,0,1,.12-.17l1.6-.69a.65.65,0,0,0,.35-.65l-.21-1.16a.61.61,0,0,0-.55-.49l-1.72-.1a.35.35,0,0,1-.2-.14,5.88,5.88,0,0,0-.44-.77.26.26,0,0,1,0-.21l.78-1.55a.6.6,0,0,0-.15-.72l-.9-.76a.63.63,0,0,0-.74,0l-1.38,1a.26.26,0,0,1-.24,0,6.34,6.34,0,0,0-.83-.3.26.26,0,0,1-.15-.16l-.4-1.69a.63.63,0,0,0-.58-.46H166a.63.63,0,0,0-.58.46L165,41.56A.31.31,0,0,1,164.87,41.73Z" transform="translate(-6.26 -1.08)"/><path class="cls-17" d="M166.61,42.69a5.07,5.07,0,1,0,5.06,5.08h0A5.07,5.07,0,0,0,166.61,42.69Z" transform="translate(-6.26 -1.08)"/><path class="cls-14" d="M78.5,57.76H67.33a5.94,5.94,0,0,0,0,11.88H78.5a2.85,2.85,0,0,0,2.83-2.83V60.6A2.85,2.85,0,0,0,78.5,57.76Z" transform="translate(-6.26 -1.08)"/><path class="cls-15" d="M71.68,63.7a4.35,4.35,0,0,1-8.69.42,2.94,2.94,0,0,1,0-.42,4.43,4.43,0,0,1,.31-1.61.46.46,0,0,1,.88.26.41.41,0,0,1,0,.08,3.43,3.43,0,1,0,4.77-1.77.46.46,0,0,1-.19-.62.47.47,0,0,1,.62-.19A4.35,4.35,0,0,1,71.68,63.7Zm-4.35-3a.67.67,0,1,0-.66-.68h0a.67.67,0,0,0,.65.67Zm0,3.67a.67.67,0,0,0,.67-.65v0a.68.68,0,0,0-.3-.56l-3.58-2.65,2.66,3.58A.65.65,0,0,0,67.33,64.37Z" transform="translate(-6.26 -1.08)"/><path class="cls-14" d="M236.18,71H225a5.94,5.94,0,0,0-.49,11.87h11.65A2.84,2.84,0,0,0,239,80.06V73.85A2.84,2.84,0,0,0,236.18,71Z" transform="translate(-6.26 -1.08)"/><path class="cls-15" d="M229.36,77a4.35,4.35,0,0,1-8.69,0,4.53,4.53,0,0,1,.31-1.62.46.46,0,0,1,.62-.2.48.48,0,0,1,.23.54,3.51,3.51,0,0,0-.25,1.28,3.44,3.44,0,1,0,5-3,.45.45,0,0,1-.2-.6h0a.46.46,0,0,1,.62-.19A4.32,4.32,0,0,1,229.36,77ZM225,74a.67.67,0,1,0-.67-.67h0A.67.67,0,0,0,225,74Zm0,3.68a.67.67,0,0,0,.67-.67.66.66,0,0,0-.31-.56l-3.58-2.65,2.66,3.57a.64.64,0,0,0,.56.26Z" transform="translate(-6.26 -1.08)"/><path class="cls-14" d="M240.07,124.37H228.9a5.94,5.94,0,0,0,0,11.88h11.17a2.85,2.85,0,0,0,2.83-2.84v-6.2A2.85,2.85,0,0,0,240.07,124.37Z" transform="translate(-6.26 -1.08)"/><path class="cls-15" d="M233.25,130.31a4.35,4.35,0,0,1-8.69,0,4.53,4.53,0,0,1,.31-1.62.46.46,0,0,1,.59-.25.45.45,0,0,1,.26.58h0a3.32,3.32,0,0,0-.25,1.28,3.44,3.44,0,1,0,5-3,.45.45,0,1,1,.42-.8A4.32,4.32,0,0,1,233.25,130.31Zm-4.35-3a.67.67,0,1,0-.67-.67h0a.67.67,0,0,0,.67.66Zm0,3.68a.67.67,0,0,0,.37-1.23l-3.58-2.65,2.66,3.57a.62.62,0,0,0,.55.32Z" transform="translate(-6.26 -1.08)"/><rect class="cls-18" x="103.21" y="77.12" width="11.87" height="11.87" rx="2.83"/><path class="cls-18" d="M251.94,143.67H228.07v-.07l-.9-.75a.63.63,0,0,0-.74,0l-1.14.85H225a2.74,2.74,0,0,0-.64.08,3.75,3.75,0,0,0-.47-.17.26.26,0,0,1-.15-.16l-.4-1.69a.63.63,0,0,0-.58-.46h-1.18a.64.64,0,0,0-.59.46l-.39,1.68a.29.29,0,0,1-.17.17,6.34,6.34,0,0,0-.83.3.2.2,0,0,1-.21,0l-1.4-1a.63.63,0,0,0-.74,0l-.9.75a.64.64,0,0,0-.15.73l.77,1.54a.28.28,0,0,1,0,.22,6,6,0,0,0-.44.78.25.25,0,0,1-.19.12l-1.73.11a.61.61,0,0,0-.55.49l-.21,1.16a.64.64,0,0,0,.36.65l1.58.69a.24.24,0,0,1,.13.18,6.64,6.64,0,0,0,.16.87.29.29,0,0,1-.06.22l-1.26,1.19a.62.62,0,0,0-.11.73l.59,1a.65.65,0,0,0,.69.28l1.65-.5a.32.32,0,0,1,.23.06,7.1,7.1,0,0,0,.67.56.25.25,0,0,1,.1.21l-.2,1.72a.63.63,0,0,0,.39.63l1.11.4a.62.62,0,0,0,.7-.23l.95-1.44a.28.28,0,0,1,.21-.1h.88a.26.26,0,0,1,.2.1l1,1.45a.63.63,0,0,0,.71.23l1.11-.4a.61.61,0,0,0,.38-.63l-.12-1.09H252a2.85,2.85,0,0,0,2.84-2.83V146.5a2.84,2.84,0,0,0-2.85-2.83Z" transform="translate(-6.26 -1.08)"/><path class="cls-18" d="M168.89,149.4l1.58.69a.24.24,0,0,1,.13.18,6.64,6.64,0,0,0,.16.87.29.29,0,0,1-.06.22l-1.26,1.19a.62.62,0,0,0-.11.73l.59,1a.63.63,0,0,0,.69.28l1.65-.5a.32.32,0,0,1,.23.06,7.1,7.1,0,0,0,.67.56.25.25,0,0,1,.1.21l-.2,1.72a.63.63,0,0,0,.39.63l1.1.4a.63.63,0,0,0,.71-.23l1-1.44a.28.28,0,0,1,.21-.1h.88a.26.26,0,0,1,.2.1l.95,1.45a.63.63,0,0,0,.71.23l1.11-.4a.63.63,0,0,0,.38-.63l-.12-1.09h26.06a2.85,2.85,0,0,0,2.84-2.83v-6.2a2.85,2.85,0,0,0-2.84-2.83H182.72l-.05-.07-.9-.75a.63.63,0,0,0-.74,0l-1.14.85h-.2a2.74,2.74,0,0,0-.64.08,3.75,3.75,0,0,0-.47-.17.26.26,0,0,1-.15-.16l-.4-1.69a.63.63,0,0,0-.58-.46h-1.19a.63.63,0,0,0-.58.46l-.39,1.68a.29.29,0,0,1-.17.17,6.34,6.34,0,0,0-.83.3.2.2,0,0,1-.21,0l-1.4-1a.63.63,0,0,0-.74,0l-.9.75a.64.64,0,0,0-.15.73l.77,1.54a.28.28,0,0,1,0,.22,6,6,0,0,0-.44.78.25.25,0,0,1-.19.12l-1.73.11a.61.61,0,0,0-.55.49l-.21,1.16A.63.63,0,0,0,168.89,149.4Z" transform="translate(-6.26 -1.08)"/><path class="cls-18" d="M145.23,181.88H121.37l-.06-.07-.9-.76a.66.66,0,0,0-.74,0l-1.14.85h-.2a2.72,2.72,0,0,0-.63.08c-.16-.06-.31-.13-.48-.18a.28.28,0,0,1-.15-.15l-.4-1.69a.63.63,0,0,0-.58-.46h-1.18a.63.63,0,0,0-.58.46l-.4,1.68a.29.29,0,0,1-.17.17,6.34,6.34,0,0,0-.83.3.2.2,0,0,1-.21,0l-1.39-1a.65.65,0,0,0-.75,0l-.9.76a.64.64,0,0,0-.15.73l.77,1.54a.22.22,0,0,1,0,.22,6,6,0,0,0-.44.78.28.28,0,0,1-.18.12l-1.74.11a.62.62,0,0,0-.55.49l-.2,1.16a.61.61,0,0,0,.35.65l1.58.69a.23.23,0,0,1,.13.17,6.49,6.49,0,0,0,.16.88.23.23,0,0,1-.06.21l-1.26,1.2a.59.59,0,0,0-.1.73l.59,1a.62.62,0,0,0,.68.28l1.65-.5a.32.32,0,0,1,.23.06,6.13,6.13,0,0,0,.68.56.25.25,0,0,1,.09.2l-.2,1.73a.63.63,0,0,0,.39.63l1.11.4a.62.62,0,0,0,.7-.23l1-1.44a.28.28,0,0,1,.21-.1H116a.26.26,0,0,1,.2.1l1,1.45a.65.65,0,0,0,.71.23l1.11-.4a.63.63,0,0,0,.39-.63l-.13-1.09h26.06a2.85,2.85,0,0,0,2.84-2.83v-6.21a2.84,2.84,0,0,0-2.8-2.88Z" transform="translate(-6.26 -1.08)"/><path class="cls-18" d="M206.59,181.88H182.73l-.06-.07-.9-.76a.66.66,0,0,0-.74,0l-1.14.85h-.2a2.72,2.72,0,0,0-.63.08c-.16-.06-.31-.13-.48-.18a.28.28,0,0,1-.15-.15L178,180a.63.63,0,0,0-.58-.46h-1.18a.63.63,0,0,0-.58.46l-.4,1.68a.29.29,0,0,1-.17.17,6.34,6.34,0,0,0-.83.3.2.2,0,0,1-.21,0l-1.39-1a.66.66,0,0,0-.74,0l-.91.76a.64.64,0,0,0-.15.73l.77,1.54a.22.22,0,0,1,0,.22,6,6,0,0,0-.44.78.28.28,0,0,1-.18.12l-1.74.11a.64.64,0,0,0-.55.49l-.2,1.16a.61.61,0,0,0,.35.65l1.58.69a.25.25,0,0,1,.13.17,6.49,6.49,0,0,0,.16.88.23.23,0,0,1-.06.21l-1.26,1.2a.64.64,0,0,0-.11.73l.59,1a.65.65,0,0,0,.69.28l1.65-.5a.32.32,0,0,1,.23.06,6.13,6.13,0,0,0,.68.56.25.25,0,0,1,.09.2l-.2,1.73a.63.63,0,0,0,.39.63l1.11.4a.62.62,0,0,0,.7-.23l1-1.44a.28.28,0,0,1,.21-.1h.88a.26.26,0,0,1,.2.1l1,1.45a.63.63,0,0,0,.7.23l1.11-.4a.63.63,0,0,0,.39-.63l-.13-1.09h26.06a2.85,2.85,0,0,0,2.84-2.83v-6.21a2.84,2.84,0,0,0-2.8-2.88Z" transform="translate(-6.26 -1.08)"/><path class="cls-18" d="M300.34,181.88H276.47l-.05-.07-.9-.76a.66.66,0,0,0-.74,0l-1.14.85h-.2a2.74,2.74,0,0,0-.64.08c-.15-.06-.31-.13-.47-.18a.23.23,0,0,1-.15-.15l-.4-1.69a.63.63,0,0,0-.58-.46H270a.63.63,0,0,0-.58.46l-.39,1.68a.29.29,0,0,1-.17.17,6.34,6.34,0,0,0-.83.3.2.2,0,0,1-.21,0l-1.4-1a.66.66,0,0,0-.74,0l-.9.76a.64.64,0,0,0-.15.73l.77,1.54a.28.28,0,0,1,0,.22,6,6,0,0,0-.44.78.28.28,0,0,1-.19.12l-1.73.11a.61.61,0,0,0-.55.49l-.21,1.16a.65.65,0,0,0,.35.65l1.58.69a.24.24,0,0,1,.14.17,6.49,6.49,0,0,0,.16.88.26.26,0,0,1-.06.21l-1.26,1.2a.62.62,0,0,0-.11.73l.59,1a.63.63,0,0,0,.69.28l1.65-.5a.32.32,0,0,1,.23.06,7.1,7.1,0,0,0,.67.56.26.26,0,0,1,.1.2l-.2,1.73a.63.63,0,0,0,.39.63l1.1.4a.63.63,0,0,0,.71-.23l.95-1.44a.28.28,0,0,1,.21-.1h.88a.26.26,0,0,1,.2.1l.95,1.45a.65.65,0,0,0,.71.23l1.11-.4a.63.63,0,0,0,.38-.63l-.12-1.09h26.06a2.85,2.85,0,0,0,2.84-2.83v-6.21a2.84,2.84,0,0,0-2.8-2.88Z" transform="translate(-6.26 -1.08)"/><rect class="cls-18" x="275.7" y="106.23" width="11.87" height="11.87" rx="2.83"/><path class="cls-18" d="M206.59,162.77H182.72l-.05-.06-.9-.76a.63.63,0,0,0-.74,0l-1.14.84h-.2a2.74,2.74,0,0,0-.64.08l-.47-.17a.28.28,0,0,1-.15-.15l-.4-1.69a.63.63,0,0,0-.58-.46h-1.18a.62.62,0,0,0-.59.46l-.39,1.67a.29.29,0,0,1-.17.17,6.39,6.39,0,0,0-.83.31.26.26,0,0,1-.21,0l-1.4-1a.63.63,0,0,0-.74,0l-.9.76a.64.64,0,0,0-.15.73l.77,1.53a.31.31,0,0,1,0,.23,4.51,4.51,0,0,0-.44.77.29.29,0,0,1-.18.13l-1.74.1a.64.64,0,0,0-.55.49l-.2,1.17a.62.62,0,0,0,.35.65l1.58.68a.27.27,0,0,1,.13.18,6.49,6.49,0,0,0,.16.88.26.26,0,0,1-.06.21l-1.26,1.19a.64.64,0,0,0-.11.74l.59,1a.63.63,0,0,0,.69.27l1.65-.49a.24.24,0,0,1,.23.06,7.1,7.1,0,0,0,.67.56.22.22,0,0,1,.1.2l-.2,1.72a.63.63,0,0,0,.39.64l1.1.4a.65.65,0,0,0,.71-.23l1-1.44a.26.26,0,0,1,.21-.11h.88a.26.26,0,0,1,.2.1l.95,1.45a.65.65,0,0,0,.71.23l1.11-.4a.63.63,0,0,0,.38-.64l-.12-1.08h26.06a2.85,2.85,0,0,0,2.84-2.84v-6.2a2.86,2.86,0,0,0-2.82-2.88Z" transform="translate(-6.26 -1.08)"/><path class="cls-18" d="M44.58,181.88H20.71l-.05-.07-.91-.76a.66.66,0,0,0-.74,0l-1.13.85h-.21a2.53,2.53,0,0,0-.67.1c-.16-.06-.31-.13-.48-.18a.28.28,0,0,1-.15-.15L16,180a.63.63,0,0,0-.58-.46H14.25a.63.63,0,0,0-.58.46l-.4,1.68a.25.25,0,0,1-.16.17,6,6,0,0,0-.84.3.26.26,0,0,1-.21,0l-1.39-1a.66.66,0,0,0-.74,0l-.91.76a.64.64,0,0,0-.15.73l.77,1.54a.22.22,0,0,1,0,.22,6,6,0,0,0-.44.78.28.28,0,0,1-.18.12l-1.73.11a.63.63,0,0,0-.56.49L6.52,187a.61.61,0,0,0,.35.65l1.58.69a.23.23,0,0,1,.13.17,6.49,6.49,0,0,0,.16.88.2.2,0,0,1-.06.21l-1.26,1.2a.62.62,0,0,0-.1.73l.59,1a.63.63,0,0,0,.69.28l1.65-.5a.29.29,0,0,1,.22.06,6.13,6.13,0,0,0,.68.56.25.25,0,0,1,.09.2l-.2,1.73a.63.63,0,0,0,.39.63l1.11.4a.62.62,0,0,0,.7-.23l.95-1.44a.28.28,0,0,1,.21-.1h.88a.26.26,0,0,1,.2.1l1,1.45a.63.63,0,0,0,.7.23l1.11-.4a.63.63,0,0,0,.39-.63l-.13-1.09h26A2.85,2.85,0,0,0,47.41,191v-6.21a2.84,2.84,0,0,0-2.82-2.86Z" transform="translate(-6.26 -1.08)"/><path class="cls-18" d="M86.78,181.88H62.91v-.07l-.91-.76a.66.66,0,0,0-.74,0l-1.13.85h-.2a2.74,2.74,0,0,0-.64.08c-.16-.06-.31-.13-.47-.18a.23.23,0,0,1-.15-.15L58.26,180a.63.63,0,0,0-.58-.46H56.45a.63.63,0,0,0-.58.46l-.4,1.68a.25.25,0,0,1-.16.17,6.34,6.34,0,0,0-.83.3.28.28,0,0,1-.22,0l-1.39-1a.66.66,0,0,0-.74,0l-.9.76a.64.64,0,0,0-.15.73l.76,1.54a.22.22,0,0,1,0,.22,7.44,7.44,0,0,0-.44.78.23.23,0,0,1-.18.12l-1.73.11a.61.61,0,0,0-.55.49L48.72,187a.62.62,0,0,0,.35.65l1.58.69a.26.26,0,0,1,.14.17,6.47,6.47,0,0,0,.15.88.26.26,0,0,1,0,.21l-1.26,1.2a.62.62,0,0,0-.11.73l.59,1a.63.63,0,0,0,.69.28l1.65-.5a.32.32,0,0,1,.23.06,6,6,0,0,0,.67.56.25.25,0,0,1,.09.2l-.19,1.73a.61.61,0,0,0,.38.63l1.11.4a.63.63,0,0,0,.71-.23l.94-1.44a.28.28,0,0,1,.21-.1h.88a.26.26,0,0,1,.2.1l1,1.45a.63.63,0,0,0,.7.23l1.11-.4a.63.63,0,0,0,.39-.63l-.12-1.09h26A2.83,2.83,0,0,0,89.61,191h0v-6.21a2.83,2.83,0,0,0-2.8-2.86Z" transform="translate(-6.26 -1.08)"/><path class="cls-18" d="M44.58,91.88H20.71l-.05-.07-.91-.76A.66.66,0,0,0,19,91l-1.13.85h-.21A2.44,2.44,0,0,0,17,92c-.16-.06-.31-.13-.48-.18a.28.28,0,0,1-.15-.15L16,89.94a.63.63,0,0,0-.58-.46H14.25a.63.63,0,0,0-.58.46l-.4,1.68a.25.25,0,0,1-.16.17,6,6,0,0,0-.84.3.26.26,0,0,1-.21,0l-1.39-1a.66.66,0,0,0-.74,0L9,91.81a.64.64,0,0,0-.15.73l.77,1.54a.22.22,0,0,1,0,.22,6,6,0,0,0-.44.78A.28.28,0,0,1,9,95.2l-1.73.11a.63.63,0,0,0-.56.49L6.52,97a.61.61,0,0,0,.35.65l1.58.69a.23.23,0,0,1,.13.17,6.49,6.49,0,0,0,.16.88.2.2,0,0,1-.06.21l-1.26,1.2a.62.62,0,0,0-.1.73l.59,1a.63.63,0,0,0,.69.28l1.65-.5a.29.29,0,0,1,.22.06,6.13,6.13,0,0,0,.68.56.25.25,0,0,1,.09.2l-.2,1.73a.63.63,0,0,0,.39.63l1.11.4a.62.62,0,0,0,.7-.23l.95-1.44a.25.25,0,0,1,.21-.1h.88a.26.26,0,0,1,.2.1l1,1.45a.63.63,0,0,0,.7.23l1.11-.4a.63.63,0,0,0,.39-.63l-.13-1.09h26A2.85,2.85,0,0,0,47.41,101V94.71A2.85,2.85,0,0,0,44.58,91.88Z" transform="translate(-6.26 -1.08)"/><path class="cls-18" d="M44.58,69.88H20.71l-.05-.07-.91-.76A.66.66,0,0,0,19,69l-1.13.85h-.21A2.44,2.44,0,0,0,17,70c-.16-.06-.31-.13-.48-.18a.28.28,0,0,1-.15-.15L16,67.94a.63.63,0,0,0-.58-.46H14.25a.63.63,0,0,0-.58.46l-.4,1.68a.25.25,0,0,1-.16.17,6,6,0,0,0-.84.3.26.26,0,0,1-.21,0l-1.39-1a.66.66,0,0,0-.74,0L9,69.81a.64.64,0,0,0-.15.73l.77,1.54a.22.22,0,0,1,0,.22,6,6,0,0,0-.44.78A.28.28,0,0,1,9,73.2l-1.73.11a.63.63,0,0,0-.56.49L6.52,75a.61.61,0,0,0,.35.65l1.58.69a.23.23,0,0,1,.13.17,6.49,6.49,0,0,0,.16.88.2.2,0,0,1-.06.21L7.42,78.8a.62.62,0,0,0-.1.73l.59,1a.63.63,0,0,0,.69.28l1.65-.5a.29.29,0,0,1,.22.06,6.13,6.13,0,0,0,.68.56.25.25,0,0,1,.09.2L11,82.84a.63.63,0,0,0,.39.63l1.11.4a.62.62,0,0,0,.7-.23l1-1.44a.25.25,0,0,1,.21-.1h.88a.26.26,0,0,1,.2.1l1,1.45a.63.63,0,0,0,.7.23l1.11-.4a.63.63,0,0,0,.39-.63l-.13-1.09H44.58a2.85,2.85,0,0,0,2.83-2.83V72.71A2.85,2.85,0,0,0,44.58,69.88Z" transform="translate(-6.26 -1.08)"/><path class="cls-18" d="M123.87,138.44a2.85,2.85,0,0,0,2.83-2.84v-6.21a2.83,2.83,0,0,0-2.83-2.83H100v-.06l-.91-.76a.63.63,0,0,0-.74,0l-1.13.84H97a2.72,2.72,0,0,0-.63.08,4.59,4.59,0,0,0-.48-.17.29.29,0,0,1-.15-.16l-.4-1.69a.63.63,0,0,0-.58-.46H93.54a.63.63,0,0,0-.58.46l-.4,1.68a.25.25,0,0,1-.16.17,6.34,6.34,0,0,0-.83.3.28.28,0,0,1-.22,0l-1.39-1a.63.63,0,0,0-.74,0l-.91.76a.63.63,0,0,0-.15.72l.77,1.54a.24.24,0,0,1,0,.23,4.51,4.51,0,0,0-.44.77.27.27,0,0,1-.18.13l-1.73.1a.63.63,0,0,0-.56.49l-.2,1.16a.61.61,0,0,0,.35.65l1.58.69a.28.28,0,0,1,.14.18A6.83,6.83,0,0,0,88,134a.28.28,0,0,1,0,.22l-1.26,1.19a.62.62,0,0,0-.11.73l.59,1a.63.63,0,0,0,.69.27l1.65-.49a.25.25,0,0,1,.22.05,7.59,7.59,0,0,0,.68.57.25.25,0,0,1,.09.2l-.2,1.72a.63.63,0,0,0,.39.63l1.11.4a.63.63,0,0,0,.71-.23l.94-1.44a.28.28,0,0,1,.21-.1h.88a.25.25,0,0,1,.2.09l1,1.45a.62.62,0,0,0,.7.23l1.11-.4a.63.63,0,0,0,.39-.63l-.13-1.08Z" transform="translate(-6.26 -1.08)"/><path class="cls-18" d="M88.24,63.5l1.58.68a.29.29,0,0,1,.13.18,6.49,6.49,0,0,0,.16.88.26.26,0,0,1-.06.21l-1.26,1.19a.64.64,0,0,0-.11.74l.59,1a.63.63,0,0,0,.69.27l1.65-.49a.24.24,0,0,1,.23.06,7.1,7.1,0,0,0,.67.56.22.22,0,0,1,.1.2l-.2,1.73a.63.63,0,0,0,.39.63l1.11.4a.63.63,0,0,0,.7-.23l1-1.44a.23.23,0,0,1,.21-.1h.88a.26.26,0,0,1,.2.1l1,1.45a.65.65,0,0,0,.71.23l1.11-.4a.63.63,0,0,0,.38-.63L100,69.63H126a2.86,2.86,0,0,0,2.84-2.83V60.6A2.85,2.85,0,0,0,126,57.76h-24V57.7l-.9-.76a.63.63,0,0,0-.74,0l-1.14.84H99a3.4,3.4,0,0,0-.64.08l-.47-.17a.23.23,0,0,1-.15-.15l-.4-1.69a.63.63,0,0,0-.58-.46H95.62a.64.64,0,0,0-.59.46l-.39,1.67a.29.29,0,0,1-.17.17,8.29,8.29,0,0,0-.83.31.26.26,0,0,1-.21,0L92,57a.66.66,0,0,0-.74,0l-.9.76a.64.64,0,0,0-.15.73L91,60a.28.28,0,0,1,0,.22,7.3,7.3,0,0,0-.44.77.26.26,0,0,1-.19.13l-1.73.1a.64.64,0,0,0-.55.49l-.21,1.17A.63.63,0,0,0,88.24,63.5Z" transform="translate(-6.26 -1.08)"/><path class="cls-18" d="M175.66,116.66a2.85,2.85,0,0,0,2.83-2.84v-6.2a2.85,2.85,0,0,0-2.83-2.84H151.79v-.06l-.91-.76a.63.63,0,0,0-.74,0l-1.13.84h-.2a2.74,2.74,0,0,0-.64.08l-.47-.17a.28.28,0,0,1-.15-.15l-.41-1.69a.63.63,0,0,0-.58-.46h-1.18a.63.63,0,0,0-.58.46l-.4,1.67a.25.25,0,0,1-.16.17,6.34,6.34,0,0,0-.83.3.28.28,0,0,1-.22,0l-1.39-1a.63.63,0,0,0-.74,0l-.91.76a.65.65,0,0,0-.15.73l.77,1.53a.24.24,0,0,1,0,.23,7.3,7.3,0,0,0-.44.77.27.27,0,0,1-.18.13l-1.73.1a.66.66,0,0,0-.56.49l-.2,1.17a.62.62,0,0,0,.35.65l1.58.68a.28.28,0,0,1,.14.18,6.47,6.47,0,0,0,.15.88.26.26,0,0,1,0,.21l-1.26,1.19a.64.64,0,0,0-.11.74l.59,1a.63.63,0,0,0,.69.27l1.65-.49a.24.24,0,0,1,.23.06,6,6,0,0,0,.67.56.25.25,0,0,1,.09.2l-.2,1.72a.63.63,0,0,0,.39.63l1.11.41a.65.65,0,0,0,.71-.24l.94-1.43a.26.26,0,0,1,.21-.11h.88a.26.26,0,0,1,.2.1l1,1.44a.62.62,0,0,0,.7.24l1.11-.41a.63.63,0,0,0,.39-.63l-.13-1.08Z" transform="translate(-6.26 -1.08)"/><path class="cls-18" d="M209.26,71H185.39v-.07l-.9-.75a.63.63,0,0,0-.74,0l-1.14.85h-.2a2.74,2.74,0,0,0-.64.08,3.75,3.75,0,0,0-.47-.17.26.26,0,0,1-.15-.16l-.41-1.69a.63.63,0,0,0-.58-.46H179a.63.63,0,0,0-.58.46l-.4,1.68a.25.25,0,0,1-.16.17,6.34,6.34,0,0,0-.83.3.2.2,0,0,1-.21,0l-1.4-1a.63.63,0,0,0-.74,0l-.9.75a.64.64,0,0,0-.15.73l.77,1.54a.28.28,0,0,1,0,.22,6.06,6.06,0,0,0-.45.78.22.22,0,0,1-.18.12l-1.73.11a.61.61,0,0,0-.55.49l-.21,1.16a.65.65,0,0,0,.35.65l1.58.69a.28.28,0,0,1,.14.18,6.64,6.64,0,0,0,.16.87.29.29,0,0,1-.06.22l-1.26,1.19a.62.62,0,0,0-.11.73l.59,1a.63.63,0,0,0,.69.28l1.65-.49a.31.31,0,0,1,.23,0c.21.2.44.39.67.57a.2.2,0,0,1,.09.2L175.73,84a.63.63,0,0,0,.39.63l1.1.4a.63.63,0,0,0,.71-.23l.94-1.44a.32.32,0,0,1,.22-.1H180a.24.24,0,0,1,.21.09l1,1.45a.62.62,0,0,0,.7.23l1.11-.4a.62.62,0,0,0,.39-.63l-.12-1.09h26.06a2.83,2.83,0,0,0,2.83-2.83h0V73.85A2.83,2.83,0,0,0,209.33,71Z" transform="translate(-6.26 -1.08)"/><path class="cls-18" d="M300.34,3.7H276.47l-.05-.07-.9-.75a.63.63,0,0,0-.74,0l-1.14.85h-.2a2.74,2.74,0,0,0-.64.08,3.75,3.75,0,0,0-.47-.17.26.26,0,0,1-.15-.16l-.41-1.69a.63.63,0,0,0-.58-.46H270a.63.63,0,0,0-.58.46L269,3.44a.25.25,0,0,1-.16.17,6.34,6.34,0,0,0-.83.3.2.2,0,0,1-.21,0l-1.4-1a.63.63,0,0,0-.74,0l-.9.75a.64.64,0,0,0-.15.73l.77,1.54a.28.28,0,0,1,0,.22,6.06,6.06,0,0,0-.45.78.22.22,0,0,1-.18.12L263,7.13a.61.61,0,0,0-.55.49l-.21,1.16a.65.65,0,0,0,.35.65l1.58.69a.24.24,0,0,1,.14.18,6.64,6.64,0,0,0,.16.87.29.29,0,0,1-.06.22l-1.26,1.19a.62.62,0,0,0-.11.73l.59,1a.63.63,0,0,0,.69.28L266,14.1a.27.27,0,0,1,.23.05c.21.2.44.39.67.57a.23.23,0,0,1,.1.19l-.2,1.73a.63.63,0,0,0,.39.63l1.1.4a.63.63,0,0,0,.71-.23L270,16a.32.32,0,0,1,.22-.1h.88a.26.26,0,0,1,.2.1l.95,1.45a.65.65,0,0,0,.71.23l1.1-.4a.62.62,0,0,0,.39-.63l-.12-1.09h26.06a2.85,2.85,0,0,0,2.84-2.83V6.53a2.84,2.84,0,0,0-2.85-2.83Z" transform="translate(-6.26 -1.08)"/><path class="cls-18" d="M158.64,9.43l1.58.69a.24.24,0,0,1,.13.18,6.64,6.64,0,0,0,.16.87.29.29,0,0,1-.06.22l-1.26,1.19a.62.62,0,0,0-.11.73l.59,1a.63.63,0,0,0,.69.28L162,14.1a.27.27,0,0,1,.23.05c.21.2.44.39.67.57a.23.23,0,0,1,.1.19l-.2,1.73a.63.63,0,0,0,.39.63l1.1.4a.63.63,0,0,0,.71-.23L166,16a.28.28,0,0,1,.21-.1h.88a.26.26,0,0,1,.2.1l1,1.45a.65.65,0,0,0,.71.23l1.11-.4a.63.63,0,0,0,.38-.63l-.12-1.09h26.06a2.85,2.85,0,0,0,2.84-2.83V6.53a2.85,2.85,0,0,0-2.84-2.83H172.47l-.05-.07-.9-.75a.63.63,0,0,0-.74,0l-1.14.85h-.2a2.74,2.74,0,0,0-.64.08,3.75,3.75,0,0,0-.47-.17.26.26,0,0,1-.15-.16l-.4-1.69a.63.63,0,0,0-.58-.46H166a.63.63,0,0,0-.58.46L165,3.44a.29.29,0,0,1-.17.17,6.34,6.34,0,0,0-.83.3.2.2,0,0,1-.21,0l-1.4-1a.63.63,0,0,0-.74,0l-.9.75a.64.64,0,0,0-.15.73l.77,1.54a.28.28,0,0,1,0,.22,6,6,0,0,0-.44.78.25.25,0,0,1-.19.12L159,7.13a.61.61,0,0,0-.55.49l-.21,1.16A.63.63,0,0,0,158.64,9.43Z" transform="translate(-6.26 -1.08)"/><path class="cls-18" d="M158.64,29l1.58.69a.25.25,0,0,1,.13.17,6.49,6.49,0,0,0,.16.88.26.26,0,0,1-.06.21l-1.26,1.2a.62.62,0,0,0-.11.73l.59,1a.63.63,0,0,0,.69.28l1.65-.5a.27.27,0,0,1,.23.06,7.1,7.1,0,0,0,.67.56.26.26,0,0,1,.1.2l-.2,1.73a.63.63,0,0,0,.39.63l1.1.4A.64.64,0,0,0,165,37l1-1.44a.28.28,0,0,1,.21-.1h.88a.26.26,0,0,1,.2.1L168.2,37a.65.65,0,0,0,.71.23l1.11-.4a.63.63,0,0,0,.38-.63l-.12-1.09h26.06a2.85,2.85,0,0,0,2.84-2.83V26.06a2.85,2.85,0,0,0-2.84-2.83H172.47l-.05-.07-.9-.76a.66.66,0,0,0-.74,0l-1.14.85h-.2a2.74,2.74,0,0,0-.64.08c-.15-.06-.31-.13-.47-.18a.23.23,0,0,1-.15-.15l-.4-1.69a.63.63,0,0,0-.58-.46H166a.63.63,0,0,0-.58.46L165,23a.3.3,0,0,1-.17.18,6.34,6.34,0,0,0-.83.3.26.26,0,0,1-.21,0l-1.4-1a.66.66,0,0,0-.74,0l-.9.76a.64.64,0,0,0-.15.73l.77,1.54a.28.28,0,0,1,0,.22,6,6,0,0,0-.44.78.28.28,0,0,1-.19.12l-1.73.11a.61.61,0,0,0-.55.49l-.21,1.16A.62.62,0,0,0,158.64,29Z" transform="translate(-6.26 -1.08)"/><path class="cls-18" d="M158.64,47.55l1.58.69a.24.24,0,0,1,.13.18,6.64,6.64,0,0,0,.16.87.29.29,0,0,1-.06.22l-1.26,1.19a.62.62,0,0,0-.11.73l.59,1a.63.63,0,0,0,.69.28l1.65-.49a.31.31,0,0,1,.23,0c.21.2.44.39.67.57a.2.2,0,0,1,.1.2l-.2,1.72a.63.63,0,0,0,.39.63l1.1.4a.63.63,0,0,0,.71-.23l1-1.44a.28.28,0,0,1,.21-.1h.88a.25.25,0,0,1,.2.09l.95,1.45a.63.63,0,0,0,.71.23l1.11-.4a.63.63,0,0,0,.38-.63l-.12-1.09h26.06a2.85,2.85,0,0,0,2.84-2.83V44.65a2.85,2.85,0,0,0-2.84-2.83H172.47l-.05-.06-.9-.76a.63.63,0,0,0-.74,0l-1.14.84h-.2a2.74,2.74,0,0,0-.64.08,3.75,3.75,0,0,0-.47-.17.26.26,0,0,1-.15-.16l-.4-1.69a.63.63,0,0,0-.58-.46H166a.63.63,0,0,0-.58.46L165,41.56a.29.29,0,0,1-.17.17,6.34,6.34,0,0,0-.83.3.2.2,0,0,1-.21,0l-1.4-1a.63.63,0,0,0-.74,0l-.9.76a.6.6,0,0,0-.15.72l.77,1.54a.28.28,0,0,1,0,.22A6.24,6.24,0,0,0,161,45a.29.29,0,0,1-.19.13l-1.73.1a.61.61,0,0,0-.55.49l-.21,1.16A.63.63,0,0,0,158.64,47.55Z" transform="translate(-6.26 -1.08)"/><path class="cls-18" d="M67.33,69.64H78.5a2.85,2.85,0,0,0,2.83-2.84V60.6a2.85,2.85,0,0,0-2.83-2.84H67.33a5.94,5.94,0,0,0,0,11.88Z" transform="translate(-6.26 -1.08)"/><path class="cls-18" d="M225,82.89h11.16A2.85,2.85,0,0,0,239,80.06V73.85A2.84,2.84,0,0,0,236.18,71H225a5.94,5.94,0,0,0-.49,11.87H225Z" transform="translate(-6.26 -1.08)"/><path class="cls-18" d="M223,130.31a6,6,0,0,0,5.93,5.93H240.1a2.83,2.83,0,0,0,2.83-2.83h0V127.2a2.85,2.85,0,0,0-2.83-2.83H228.9A5.94,5.94,0,0,0,223,130.31Z" transform="translate(-6.26 -1.08)"/><path class="cls-19" d="M250.44,124.83a8.12,8.12,0,0,0,1.09-.23,8,8,0,0,0,3-1.71l3.67,9.28a19.29,19.29,0,0,1-3,2.48,6.43,6.43,0,0,1-3.4,1.24,2.48,2.48,0,0,1-2.2-1.1c.56-.52,2-1.5,2.47-1.17s-.44,1.47-.44,1.47c1.3-1,1.34-1.58,1.23-1.86l-.32-.46m.2.27-4.29-9.69a8.34,8.34,0,0,0-1,0,11.67,11.67,0,0,0-3.16.46,10.64,10.64,0,0,0-3.81,2l4.65,11.79a26.43,26.43,0,0,1,3.59-3.18,6.62,6.62,0,0,1,3.36-1.46,2,2,0,0,1,.64,0Z" transform="translate(-6.26 -1.08)"/><path class="cls-15" d="M254.55,122.89a8,8,0,0,1-3,1.71,8.12,8.12,0,0,1-1.09.23l2.4,8.4h0c.11.28.07.89-1.23,1.86,0,0,.9-1.15.44-1.47s-1.91.65-2.47,1.17a2.48,2.48,0,0,0,2.2,1.1,6.43,6.43,0,0,0,3.4-1.24,19.29,19.29,0,0,0,3-2.48Z" transform="translate(-6.26 -1.08)"/><path class="cls-13" d="M255.07,134.33a18.58,18.58,0,0,0,2.76-2.25l-1.09-2.77a13.88,13.88,0,0,1-2.76,2Z" transform="translate(-6.26 -1.08)"/><path class="cls-13" d="M255.52,126.21l-1.1-2.78a8.35,8.35,0,0,1-2.78,1.47l1.12,3.1A10.23,10.23,0,0,0,255.52,126.21Z" transform="translate(-6.26 -1.08)"/><path class="cls-13" d="M254,131.35,252.76,128a7.47,7.47,0,0,1-1.29.42l1,3.56A7.26,7.26,0,0,0,254,131.35Z" transform="translate(-6.26 -1.08)"/><path class="cls-15" d="M247.46,123.3a11.67,11.67,0,0,0-3.16.46,10.64,10.64,0,0,0-3.81,2l4.65,11.79a26.43,26.43,0,0,1,3.59-3.18,6.62,6.62,0,0,1,3.36-1.46,1.93,1.93,0,0,1,.63.1l-4.29-9.69a8.34,8.34,0,0,0-1,0Z" transform="translate(-6.26 -1.08)"/><path class="cls-13" d="M247.46,123.63a11.28,11.28,0,0,0-3,.44l1.45,3.47a12.59,12.59,0,0,1,3.61-1l-1.28-2.88C248.05,123.65,247.79,123.63,247.46,123.63Z" transform="translate(-6.26 -1.08)"/><path class="cls-13" d="M247.34,131.07l1.26,3a6.62,6.62,0,0,1,3.49-1.48h.08l-1.27-2.86A7.89,7.89,0,0,0,247.34,131.07Z" transform="translate(-6.26 -1.08)"/><path class="cls-13" d="M245.87,127.54a15.57,15.57,0,0,0-3.56,2l1.55,3.93a31.38,31.38,0,0,1,3.48-2.37Z" transform="translate(-6.26 -1.08)"/><text class="cls-20" transform="translate(163.85 95.29) scale(0.85 1)">Zona de Boxes</text><text class="cls-21" transform="translate(64.39 144.67)">Seat</text><text class="cls-21" transform="translate(31.93 132.25)">Renault</text><text class="cls-21" transform="translate(63.85 112.59)">Repsol</text><text class="cls-21" transform="translate(130.72 91)">Campsa</text><text class="cls-21" transform="translate(79.89 170.09)">Elf</text><g class="cls-22"><text class="cls-21" transform="translate(271.1 28.09)">New</text><text class="cls-21" transform="translate(271.1 36.59)">Holland</text></g><text class="cls-23" transform="translate(213.55 151.56)">6</text><text class="cls-24" transform="translate(231.27 151.56)">260</text><text class="cls-23" transform="translate(168.19 151.56)">8</text><text class="cls-24" transform="translate(185.92 151.56)">305</text><text class="cls-23" transform="translate(106.84 189.77)">8</text><text class="cls-24" transform="translate(124.56 189.77)">325</text><text class="cls-23" transform="translate(168.2 189.77)">8</text><text class="cls-24" transform="translate(185.92 189.77)">320</text><text class="cls-23" transform="translate(261.94 189.77)">3</text><text class="cls-24" transform="translate(279.67 189.77)">150</text><text class="cls-23" transform="translate(168.19 170.66)">6</text><text class="cls-24" transform="translate(185.92 170.66)">235</text><text class="cls-23" transform="translate(6.18 189.77)">6</text><text class="cls-24" transform="translate(23.9 189.77)">250</text><text class="cls-23" transform="translate(48.38 189.77)">5</text><text class="cls-24" transform="translate(66.11 189.77)">200</text><text class="cls-23" transform="translate(6.18 99.76)">7</text><text class="cls-24" transform="translate(23.9 99.76)">265</text><text class="cls-23" transform="translate(6.18 77.76)">7</text><text class="cls-24" transform="translate(23.9 77.76)">285</text><text class="cls-23" transform="translate(85.47 134.45)">6</text><text class="cls-24" transform="translate(103.19 134.45)">270</text><text class="cls-23" transform="translate(87.55 65.65)">5</text><text class="cls-24" transform="translate(105.27 65.65)">180</text><text class="cls-23" transform="translate(137.26 112.67)">5</text><text class="cls-24" transform="translate(154.99 112.67)">230</text><text class="cls-23" transform="translate(170.86 78.91)">8</text><text class="cls-24" transform="translate(188.59 78.91)">315</text><text class="cls-23" transform="translate(261.94 11.59)">3</text><text class="cls-24" transform="translate(279.67 11.59)">105</text><text class="cls-23" transform="translate(157.94 11.59)">4</text><text class="cls-24" transform="translate(175.67 11.59)">150</text><text class="cls-23" transform="translate(157.94 31.11)">4</text><text class="cls-24" transform="translate(175.67 31.11)">130</text><text class="cls-23" transform="translate(157.94 49.71)">8</text><text class="cls-24" transform="translate(175.67 49.71)">300</text><text class="cls-23" transform="translate(67.81 65.65)">1</text><text class="cls-23" transform="translate(225.49 78.91)">2</text><text class="cls-23" transform="translate(229.37 132.26)">3</text><text class="cls-25" transform="translate(89.98 189.38)">1</text><text class="cls-25" transform="translate(72.42 161.71)">2</text><text class="cls-25" transform="translate(31.53 154.38)">3</text><text class="cls-25" transform="translate(84.69 102.71)">4</text><text class="cls-25" transform="translate(43.58 154.38)">5</text><text class="cls-25" transform="translate(92.36 145.71)">6</text><text class="cls-25" transform="translate(136.25 134.71)">7</text><text class="cls-25" transform="translate(111.14 121.04)">8</text><text class="cls-25" transform="translate(128.53 56.38)">9</text><text class="cls-25" transform="translate(246.4 69.04)">10</text><g class="cls-22"><text class="cls-26" transform="translate(218.06 54.04)">1</text><text class="cls-25" transform="translate(221.22 54.04)">1</text></g><text class="cls-25" transform="translate(208.4 34.04)">12</text><text class="cls-25" transform="translate(231.91 27.71)">13</text><text class="cls-25" transform="translate(243.74 47.04)">14</text><text class="cls-25" transform="translate(260.24 28.04)">15</text><text class="cls-25" transform="translate(255.74 60.38)">16</text></g></svg>