<svg id="Capa_1" data-name="Capa 1" xmlns="http://www.w3.org/2000/svg" width="297.39" height="195.15"><defs><style>.cls-10,.cls-16,.cls-5,.cls-6,.cls-8,.cls-9{fill:none}.cls-10,.cls-6{stroke:#fff}.cls-10,.cls-16,.cls-9{stroke-linecap:round}.cls-10,.cls-16,.cls-5,.cls-9{stroke-linejoin:round}.cls-5{stroke-width:2.8px;stroke:#fff100}.cls-6{stroke-width:1.3px}.cls-7{fill:#ea1a4d}.cls-16,.cls-8,.cls-9{stroke:#231f20}.cls-9{stroke-width:1.5px}.cls-10,.cls-15,.cls-16{stroke-width:.5px}.cls-11,.cls-15,.cls-21,.cls-24{fill:#fff}.cls-12{fill:#ffca05}.cls-13,.cls-20,.cls-23{fill:#231f20}.cls-14{fill:#007dc4}.cls-15{stroke:#007dc4}.cls-20,.cls-21,.cls-22,.cls-23,.cls-24{isolation:isolate}.cls-20,.cls-21{font-size:8.5px}.cls-23{font-family:Helvetica}.cls-20,.cls-21,.cls-24{font-family:Helvetica-Bold,Helvetica;font-weight:700}.cls-23,.cls-24{font-size:7.5px}.cls-24{letter-spacing:-.08em}</style></defs><g id="monza"><path d="M237.75 173.08l-108.1-10.81c-11.54-.53-17.17-2.2-17.12-2.87a12.82 12.82 0 00-.17-4.41c-.26-.58-.76-.67-1.5-.26-.46.26-5.52 3-6.55 3.75a11.56 11.56 0 01-7.59 2c-7.84-.51-20.79-2-24.17-2.9a28.68 28.68 0 01-13.26-8 33.31 33.31 0 01-8-15.53 48.76 48.76 0 01-1-6l-4-45.91c-.45-3.82-4.73-3.79-5.48-6.6-.75-2.42 0-.31-2.75-11.22l-3.92-15.6a17.89 17.89 0 01-.81-3.83 13.1 13.1 0 01.93-7.39 9.13 9.13 0 014.65-4.49 20 20 0 015.61-1.24 94.15 94.15 0 0111.75-.68l1.64-.14 3.11.06a13.26 13.26 0 017.83 3.3c1 .93 2.53 3.35 4.59 7.24l6.2 12.5c6 12.36 10.63 20.12 13.11 23.26 5.11 6.44 17 20.25 42.75 46.75l2.25 1.6a8.76 8.76 0 005.86.87 6.12 6.12 0 015.83 1.46l5.3 4.67a9.15 9.15 0 002 1.83q1.77 1.17 7 1.44l91.87 9.13 3 .46a15.15 15.15 0 015.67 2.4 7.38 7.38 0 013.1 7 14.48 14.48 0 01-4.61 9.36s-11.6 10.14-25.02 8.8z" stroke-width="8" stroke-linejoin="round" stroke-linecap="round" stroke="#fff" fill="none"/><path d="M137.53 162.06l22.73-2.11 80.77 8s12.33 1.06 18.29-2.6" stroke-width="2.8" stroke="#00071b" stroke-linejoin="round" stroke-linecap="round" fill="none"/><path d="M237.75 173.08l-108.1-10.81c-11.54-.53-17.17-2.2-17.12-2.87a12.82 12.82 0 00-.17-4.41c-.26-.58-.76-.67-1.5-.26-.46.26-5.52 3-6.55 3.75a11.56 11.56 0 01-7.59 2c-7.84-.51-20.79-2-24.17-2.9a28.68 28.68 0 01-13.26-8 33.31 33.31 0 01-8-15.53 48.76 48.76 0 01-1-6l-4-45.91c-.45-3.82-4.73-3.79-5.48-6.6-.75-2.42 0-.31-2.75-11.22l-3.92-15.6a17.89 17.89 0 01-.81-3.83 13.1 13.1 0 01.93-7.39 9.13 9.13 0 014.65-4.49 20 20 0 015.61-1.24 94.15 94.15 0 0111.75-.68l1.64-.14 3.11.06a13.26 13.26 0 017.83 3.3c1 .93 2.53 3.35 4.59 7.24l6.2 12.5c6 12.36 10.63 20.12 13.11 23.26 5.11 6.44 17 20.25 42.75 46.75l2.25 1.6a8.76 8.76 0 005.86.87 6.12 6.12 0 015.83 1.46l5.3 4.67a9.15 9.15 0 002 1.83q1.77 1.17 7 1.44l91.87 9.13 3 .46a15.15 15.15 0 015.67 2.4 7.38 7.38 0 013.1 7 14.48 14.48 0 01-4.61 9.36s-11.6 10.14-25.02 8.8z" stroke-width="5.4" stroke="#00071b" stroke-linejoin="round" stroke-linecap="round" fill="none"/><path d="M237.75 173.08l-108.1-10.81c-11.54-.53-17.17-2.2-17.12-2.87a12.82 12.82 0 00-.17-4.41c-.26-.58-.76-.67-1.5-.26-.46.26-5.52 3-6.55 3.75a11.56 11.56 0 01-7.59 2c-7.84-.51-20.79-2-24.17-2.9a28.68 28.68 0 01-13.26-8 33.31 33.31 0 01-8-15.53 48.76 48.76 0 01-1-6l-4-45.91c-.45-3.82-4.73-3.79-5.48-6.6-.75-2.42 0-.31-2.75-11.22l-3.92-15.6a17.89 17.89 0 01-.81-3.83 13.1 13.1 0 01.93-7.39 9.13 9.13 0 014.65-4.49 20 20 0 015.61-1.24 94.15 94.15 0 0111.75-.68l1.64-.14 3.11.06a13.26 13.26 0 017.83 3.3c1 .93 2.53 3.35 4.59 7.24l6.2 12.5c6 12.36 10.63 20.12 13.11 23.26 5.11 6.44 17 20.25 42.75 46.75l2.25 1.6a8.76 8.76 0 005.86.87 6.12 6.12 0 015.83 1.46l5.3 4.67a9.15 9.15 0 002 1.83q1.77 1.17 7 1.44l91.87 9.13 3 .46a15.15 15.15 0 015.67 2.4 7.38 7.38 0 013.1 7 14.48 14.48 0 01-4.61 9.36s-11.6 10.14-25.02 8.8z" stroke="#8c92a1" stroke-width="2.8" stroke-linejoin="round" stroke-linecap="round" fill="none"/><path class="cls-5" d="M83.26 54.2l1.44 2.91c6 12.36 10.63 20.12 13.11 23.26 4.79 6 15.5 18.52 38 41.84M207.7 172.62l-73-7.3a78.11 78.11 0 01-14.37-1.71" transform="translate(-5.09 -3.05)"/><rect class="cls-6" x="104.11" y="165.02" width="9.61" height="9.61" rx="2.29"/><rect class="cls-7" x="104.11" y="165.02" width="9.61" height="9.61" rx="2.29"/><rect class="cls-6" x="102.94" y="143.35" width="9.61" height="9.61" rx="2.29"/><rect class="cls-7" x="102.94" y="143.35" width="9.61" height="9.61" rx="2.29"/><rect class="cls-6" x="52.44" y="158.02" width="9.61" height="9.61" rx="2.29"/><rect class="cls-7" x="52.44" y="158.02" width="9.61" height="9.61" rx="2.29"/><rect class="cls-6" x="50.61" y="74.24" width="9.61" height="9.61" rx="2.29"/><rect class="cls-7" x="50.61" y="74.24" width="9.61" height="9.61" rx="2.29"/><rect class="cls-6" x="28.77" y="78.68" width="9.61" height="9.61" rx="2.29"/><rect class="cls-7" x="28.77" y="78.68" width="9.61" height="9.61" rx="2.29"/><rect class="cls-6" x="38.61" y="38.35" width="9.61" height="9.61" rx="2.29"/><rect class="cls-7" x="38.61" y="38.35" width="9.61" height="9.61" rx="2.29"/><rect class="cls-6" x="74.44" y="27.35" width="9.61" height="9.61" rx="2.29"/><rect class="cls-7" x="74.44" y="27.35" width="9.61" height="9.61" rx="2.29"/><rect class="cls-6" x="125.27" y="128.02" width="9.61" height="9.61" rx="2.29"/><rect class="cls-7" x="125.27" y="128.02" width="9.61" height="9.61" rx="2.29"/><rect class="cls-6" x="152.11" y="116.02" width="9.61" height="9.61" rx="2.29"/><rect class="cls-7" x="152.11" y="116.02" width="9.61" height="9.61" rx="2.29"/><rect class="cls-6" x="154.94" y="140.35" width="9.61" height="9.61" rx="2.29"/><rect class="cls-7" x="154.94" y="140.35" width="9.61" height="9.61" rx="2.29"/><rect class="cls-6" x="250.11" y="152.02" width="9.61" height="9.61" rx="2.29"/><rect class="cls-7" x="250.11" y="152.02" width="9.61" height="9.61" rx="2.29"/><path class="cls-8" d="M121.76 108.71a1.42 1.42 0 10-1.42-1.42 1.42 1.42 0 001.42 1.42z" transform="translate(-5.09 -3.05)"/><path class="cls-9" d="M116.67 104.25V88.59h12.5"/><path class="cls-10" d="M116.67 104.25V88.59h12.5"/><path class="cls-11" d="M121.76 108.71a1.42 1.42 0 10-1.42-1.42 1.42 1.42 0 001.42 1.42z" transform="translate(-5.09 -3.05)"/><path class="cls-8" d="M140.56 128.54a1.42 1.42 0 10-1.42-1.42 1.43 1.43 0 001.42 1.42z" transform="translate(-5.09 -3.05)"/><path class="cls-9" d="M135.47 124.07V99.56h13.29V67.53h13.51"/><path class="cls-10" d="M135.47 124.07V99.56h13.29V67.53h13.51"/><path class="cls-11" d="M140.56 128.54a1.42 1.42 0 10-1.42-1.42 1.43 1.43 0 001.42 1.42z" transform="translate(-5.09 -3.05)"/><path class="cls-8" d="M154.5 132.46a1.42 1.42 0 10-1.41-1.43 1.41 1.41 0 001.41 1.41z" transform="translate(-5.09 -3.05)"/><path class="cls-9" d="M149.41 128v-18.38h12.86V88.59"/><path class="cls-10" d="M149.41 128v-18.38h12.86V88.59"/><path class="cls-11" d="M154.5 132.46a1.42 1.42 0 10-1.41-1.43 1.41 1.41 0 001.41 1.41z" transform="translate(-5.09 -3.05)"/><path class="cls-8" d="M179.23 141.3a1.42 1.42 0 10-1.42-1.42 1.42 1.42 0 001.42 1.42z" transform="translate(-5.09 -3.05)"/><path class="cls-9" d="M174.14 136.84V99.56h26.37V67.53h12.25"/><path class="cls-10" d="M174.14 136.84V99.56h26.37V67.53h12.25"/><path class="cls-11" d="M179.23 141.3a1.42 1.42 0 10-1.42-1.42 1.42 1.42 0 001.42 1.42z" transform="translate(-5.09 -3.05)"/><path class="cls-8" d="M202.9 143.65a1.42 1.42 0 10-1.42-1.42 1.41 1.41 0 001.41 1.41z" transform="translate(-5.09 -3.05)"/><path class="cls-9" d="M197.81 139.19v-29.57h15.58V88.59"/><path class="cls-10" d="M197.81 139.19v-29.57h15.58V88.59"/><path class="cls-11" d="M202.9 143.65a1.42 1.42 0 10-1.42-1.42 1.41 1.41 0 001.41 1.41z" transform="translate(-5.09 -3.05)"/><path class="cls-8" d="M226.56 146.15a1.42 1.42 0 10-1.42-1.42 1.43 1.43 0 001.42 1.42z" transform="translate(-5.09 -3.05)"/><path class="cls-9" d="M221.47 141.68V99.56h30.26V67.53h12.78"/><path class="cls-10" d="M221.47 141.68V99.56h30.26V67.53h12.78"/><path class="cls-11" d="M226.56 146.15a1.42 1.42 0 10-1.42-1.42 1.43 1.43 0 001.42 1.42z" transform="translate(-5.09 -3.05)"/><path class="cls-8" d="M250.23 148.35a1.42 1.42 0 000-2.83 1.42 1.42 0 00-.24 2.83 1 1 0 00.24 0z" transform="translate(-5.09 -3.05)"/><path class="cls-9" d="M245.14 143.89v-39.3h19.37v-16"/><path class="cls-10" d="M245.14 143.89v-39.3h19.37v-16"/><path class="cls-11" d="M250.23 148.35a1.42 1.42 0 000-2.83 1.42 1.42 0 00-.24 2.83 1 1 0 00.24 0z" transform="translate(-5.09 -3.05)"/><path class="cls-8" d="M257.56 149.23a1.42 1.42 0 10-1.42-1.42 1.43 1.43 0 001.42 1.42z" transform="translate(-5.09 -3.05)"/><path class="cls-9" d="M252.47 144.76v-35.14h39.46"/><path class="cls-10" d="M252.47 144.76v-35.14h39.46"/><path class="cls-11" d="M257.56 149.23a1.42 1.42 0 10-1.42-1.42 1.43 1.43 0 001.42 1.42z" transform="translate(-5.09 -3.05)"/><path class="cls-8" d="M39.36 41.83a1.42 1.42 0 10-1.42-1.42 1.43 1.43 0 001.42 1.42z" transform="translate(-5.09 -3.05)"/><path class="cls-9" d="M34.27 37.36V8.29"/><path class="cls-10" d="M34.27 37.36V8.29"/><path class="cls-11" d="M39.36 41.83a1.42 1.42 0 10-1.42-1.42 1.43 1.43 0 001.42 1.42z" transform="translate(-5.09 -3.05)"/><path class="cls-8" d="M53.69 35.71a1.42 1.42 0 10-1.42-1.42 1.41 1.41 0 001.41 1.41z" transform="translate(-5.09 -3.05)"/><path class="cls-9" d="M48.6 31.25V8.29h13.67"/><path class="cls-10" d="M48.6 31.25V8.29h13.67"/><path class="cls-11" d="M53.69 35.71a1.42 1.42 0 10-1.42-1.42 1.41 1.41 0 001.41 1.41z" transform="translate(-5.09 -3.05)"/><path class="cls-8" d="M61.41 35.42A1.42 1.42 0 1060 34a1.43 1.43 0 001.41 1.42z" transform="translate(-5.09 -3.05)"/><path class="cls-9" d="M56.32 30.95V20.62h35.23V8.29"/><path class="cls-10" d="M56.32 30.95V20.62h35.23V8.29"/><path class="cls-11" d="M61.41 35.42A1.42 1.42 0 1060 34a1.43 1.43 0 001.41 1.42z" transform="translate(-5.09 -3.05)"/><path class="cls-8" d="M69.32 36a1.42 1.42 0 10-1.41-1.43A1.42 1.42 0 0069.32 36z" transform="translate(-5.09 -3.05)"/><path class="cls-9" d="M64.23 31.54v-6.25h84.22v-17"/><path class="cls-10" d="M64.23 31.54v-6.25h84.22v-17"/><path class="cls-11" d="M69.32 36a1.42 1.42 0 10-1.41-1.43A1.42 1.42 0 0069.32 36z" transform="translate(-5.09 -3.05)"/><path class="cls-8" d="M184.89 171.75a1.42 1.42 0 10-1.42-1.42 1.42 1.42 0 001.42 1.42z" transform="translate(-5.09 -3.05)"/><path class="cls-9" d="M179.8 167.29v-16.41"/><path class="cls-10" d="M179.8 167.29v-16.41"/><path class="cls-11" d="M184.89 171.75a1.42 1.42 0 10-1.42-1.42 1.42 1.42 0 001.42 1.42z" transform="translate(-5.09 -3.05)"/><path class="cls-8" d="M138.89 167.15a1.42 1.42 0 10-1.42-1.42 1.42 1.42 0 001.42 1.42z" transform="translate(-5.09 -3.05)"/><path class="cls-9" d="M133.8 162.69v-16.47"/><path class="cls-10" d="M133.8 162.69v-16.47"/><path class="cls-11" d="M138.89 167.15a1.42 1.42 0 10-1.42-1.42 1.42 1.42 0 001.42 1.42z" transform="translate(-5.09 -3.05)"/><path class="cls-8" d="M227.56 173.19a1.42 1.42 0 11-1.42 1.42 1.42 1.42 0 011.42-1.42z" transform="translate(-5.09 -3.05)"/><path class="cls-9" d="M222.47 171.55v13.94"/><path class="cls-10" d="M222.47 171.55v13.94"/><path class="cls-11" d="M227.56 173.19a1.42 1.42 0 11-1.42 1.42 1.42 1.42 0 011.42-1.42z" transform="translate(-5.09 -3.05)"/><path class="cls-8" d="M247.9 174.71a1.42 1.42 0 11-1.42 1.42 1.41 1.41 0 011.4-1.42z" transform="translate(-5.09 -3.05)"/><path class="cls-9" d="M242.81 173.08v13.72h21.71"/><path class="cls-10" d="M242.81 173.08v13.72h21.71"/><path class="cls-11" d="M247.9 174.71a1.42 1.42 0 11-1.42 1.42 1.41 1.41 0 011.4-1.42z" transform="translate(-5.09 -3.05)"/><path class="cls-8" d="M121.49 162.45a1.42 1.42 0 11-1.41 1.43 1.42 1.42 0 011.41-1.43z" transform="translate(-5.09 -3.05)"/><path class="cls-9" d="M116.4 160.82v25.98h13.53"/><path class="cls-10" d="M116.4 160.82v25.98h13.53"/><path class="cls-11" d="M121.49 162.45a1.42 1.42 0 11-1.41 1.43 1.42 1.42 0 011.41-1.43z" transform="translate(-5.09 -3.05)"/><path class="cls-8" d="M98.57 162a1.42 1.42 0 11-1.42 1.42 1.41 1.41 0 011.41-1.42z" transform="translate(-5.09 -3.05)"/><path class="cls-9" d="M93.48 160.37v26.43"/><path class="cls-10" d="M93.48 160.37v26.43"/><path class="cls-11" d="M98.57 162a1.42 1.42 0 11-1.42 1.42 1.41 1.41 0 011.41-1.42z" transform="translate(-5.09 -3.05)"/><path class="cls-8" d="M71.06 156.62a1.42 1.42 0 11-1.41 1.43V158a1.44 1.44 0 011.41-1.38z" transform="translate(-5.09 -3.05)"/><path class="cls-9" d="M65.97 154.99v31.81H37.75"/><path class="cls-10" d="M65.97 154.99v31.81H37.75"/><path class="cls-11" d="M71.06 156.62a1.42 1.42 0 11-1.41 1.43V158a1.44 1.44 0 011.41-1.38z" transform="translate(-5.09 -3.05)"/><path class="cls-8" d="M127.69 112.17a1.42 1.42 0 11-1.42 1.42 1.43 1.43 0 011.42-1.42z" transform="translate(-5.09 -3.05)"/><path class="cls-9" d="M122.6 110.54v16.41h-13v13.67h-12"/><path class="cls-10" d="M122.6 110.54v16.41h-13v13.67h-12"/><path class="cls-11" d="M127.69 112.17a1.42 1.42 0 11-1.42 1.42 1.43 1.43 0 011.42-1.42z" transform="translate(-5.09 -3.05)"/><path class="cls-8" d="M95.14 78.43a1.42 1.42 0 111.42 1.42 1.41 1.41 0 01-1.41-1.41z" transform="translate(-5.09 -3.05)"/><path class="cls-9" d="M91.46 75.38h7.47v-7.82h12.23"/><path class="cls-10" d="M91.46 75.38h7.47v-7.82h12.23"/><path class="cls-11" d="M95.14 78.43a1.42 1.42 0 111.42 1.42 1.41 1.41 0 01-1.41-1.41z" transform="translate(-5.09 -3.05)"/><path class="cls-8" d="M262.12 170.52a1.42 1.42 0 012.83 0 1.42 1.42 0 01-2.83.24 1 1 0 010-.24z" transform="translate(-5.09 -3.05)"/><path class="cls-9" d="M258.44 167.47h33.49v-37.18"/><path class="cls-10" d="M258.44 167.47h33.49v-37.18"/><path class="cls-11" d="M262.12 170.52a1.42 1.42 0 012.83 0 1.42 1.42 0 01-2.83.24 1 1 0 010-.24z" transform="translate(-5.09 -3.05)"/><path class="cls-8" d="M43.86 75.53A1.42 1.42 0 1145.28 77a1.43 1.43 0 01-1.42-1.47z" transform="translate(-5.09 -3.05)"/><path class="cls-9" d="M40.19 72.48H69.9v30.66"/><path class="cls-10" d="M40.19 72.48H69.9v30.66"/><path class="cls-11" d="M43.86 75.53A1.42 1.42 0 1145.28 77a1.43 1.43 0 01-1.42-1.47z" transform="translate(-5.09 -3.05)"/><path class="cls-8" d="M50.28 88.78a1.42 1.42 0 111.42 1.42 1.43 1.43 0 01-1.42-1.42z" transform="translate(-5.09 -3.05)"/><path class="cls-9" d="M46.61 85.73h10.11v35.91h12.69"/><path class="cls-10" d="M46.61 85.73h10.11v35.91h12.69"/><path class="cls-11" d="M50.28 88.78a1.42 1.42 0 111.42 1.42 1.43 1.43 0 01-1.42-1.42z" transform="translate(-5.09 -3.05)"/><path class="cls-8" d="M54.64 106.21a1.42 1.42 0 10-1.43 1.41 1.42 1.42 0 001.43-1.41z" transform="translate(-5.09 -3.05)"/><path class="cls-9" d="M48.14 103.16h-8.21"/><path class="cls-10" d="M48.14 103.16h-8.21"/><path class="cls-11" d="M54.64 106.21a1.42 1.42 0 10-1.43 1.41 1.42 1.42 0 001.43-1.41z" transform="translate(-5.09 -3.05)"/><path class="cls-8" d="M55.46 115.57A1.42 1.42 0 1054 117a1.43 1.43 0 001.46-1.43z" transform="translate(-5.09 -3.05)"/><path class="cls-9" d="M48.95 112.52h-33.2v9.15"/><path class="cls-10" d="M48.95 112.52h-33.2v9.15"/><path class="cls-11" d="M55.46 115.57A1.42 1.42 0 1054 117a1.43 1.43 0 001.46-1.43z" transform="translate(-5.09 -3.05)"/><path class="cls-8" d="M56.65 129.27a1.42 1.42 0 10-1.42 1.42 1.44 1.44 0 001.42-1.42z" transform="translate(-5.09 -3.05)"/><path class="cls-9" d="M50.14 126.22H44.6v36.96h-6.85"/><path class="cls-10" d="M50.14 126.22H44.6v36.96h-6.85"/><path class="cls-11" d="M56.65 129.27a1.42 1.42 0 10-1.42 1.42 1.44 1.44 0 001.42-1.42z" transform="translate(-5.09 -3.05)"/><path class="cls-8" d="M77.22 44.61A1.42 1.42 0 1178.67 46a1.43 1.43 0 01-1.45-1.39z" transform="translate(-5.09 -3.05)"/><path class="cls-9" d="M73.55 41.56h18V30.62h113.8V8.29"/><path class="cls-10" d="M73.55 41.56h18V30.62h113.8V8.29"/><path class="cls-11" d="M77.22 44.61A1.42 1.42 0 1178.67 46a1.43 1.43 0 01-1.45-1.39z" transform="translate(-5.09 -3.05)"/><rect class="cls-12" x="56.32" y="2.65" width="11.87" height="11.87" rx="2.83"/><path class="cls-13" d="M58.59 10.28l-.63 2.4h8.59l-.62-2.4h-7.34zM59.25 4.46l-1.29 4.92h8.59l-1.29-4.92h-6.01z"/><rect class="cls-12" x="285.21" y="103.65" width="11.87" height="11.87" rx="2.83"/><path class="cls-13" d="M287.48 111.28l-.63 2.4h8.6l-.64-2.4h-7.33zM288.15 105.46l-1.3 4.92h8.6l-1.3-4.92h-6z"/><path class="cls-13" d="M16.65 183.88h26.9a2.83 2.83 0 012.83 2.83v6.21a2.83 2.83 0 01-2.83 2.83h-26.9a2.83 2.83 0 01-2.83-2.83v-6.21a2.85 2.85 0 012.83-2.83z" transform="translate(-5.09 -3.05)"/><path class="cls-11" d="M23.57 184.46h-1.45l.15-.68h1.45l-.15.68zM23.2 186.24h-2.4l.15-.69h2.4l-.15.69zM22.82 188.02h-3.34l.14-.69h3.35l-.15.69zM22.45 189.79h-4.29l.14-.68h4.29l-.14.68z"/><path class="cls-14" d="M12.08 183.79a6.34 6.34 0 00-.83.3.2.2 0 01-.21 0l-1.4-1a.66.66 0 00-.74 0l-.9.76a.64.64 0 00-.15.73l.77 1.54a.28.28 0 010 .22 6.06 6.06 0 00-.45.78.23.23 0 01-.18.12l-1.73.11a.61.61 0 00-.55.49L5.49 189a.65.65 0 00.35.65l1.58.69a.26.26 0 01.14.17 6.49 6.49 0 00.16.88.26.26 0 01-.06.21l-1.26 1.2a.62.62 0 00-.11.73l.59 1a.63.63 0 00.69.28l1.65-.5a.32.32 0 01.23.06 7.1 7.1 0 00.67.56.25.25 0 01.09.2l-.21 1.71a.63.63 0 00.39.63l1.1.4a.63.63 0 00.71-.23l.94-1.44a.32.32 0 01.22-.1h.87a.28.28 0 01.21.1l1 1.45a.63.63 0 00.7.23l1.11-.4a.63.63 0 00.39-.63l-.19-1.71a.24.24 0 01.09-.22 6 6 0 00.67-.56.26.26 0 01.21-.06l1.67.5a.63.63 0 00.69-.28l.59-1a.64.64 0 00-.11-.74L20 191.57a.26.26 0 01-.07-.22 6.49 6.49 0 00.16-.88.26.26 0 01.12-.17l1.59-.69a.64.64 0 00.36-.65L22 187.8a.64.64 0 00-.55-.5l-1.72-.1a.28.28 0 01-.2-.13 7.3 7.3 0 00-.44-.77.26.26 0 010-.21l.78-1.55a.64.64 0 00-.15-.73l-.9-.76a.66.66 0 00-.74 0l-1.39 1a.24.24 0 01-.23 0c-.27-.11-.54-.21-.83-.3a.23.23 0 01-.15-.15l-.48-1.66a.63.63 0 00-.58-.46h-1.2a.63.63 0 00-.58.46l-.4 1.68a.25.25 0 01-.16.17z" transform="translate(-5.09 -3.05)"/><path class="cls-15" d="M13.81 184.74a5.08 5.08 0 105.07 5.09 5.07 5.07 0 00-5.07-5.07z" transform="translate(-5.09 -3.05)"/><rect class="cls-13" x="79.39" y="180.83" width="32.57" height="11.88" rx="2.83"/><path class="cls-11" d="M94.24 184.46h-1.45l.15-.68h1.45l-.15.68zM93.87 186.24h-2.4l.14-.69h2.4l-.14.69zM93.49 188.02h-3.35l.15-.69h3.35l-.15.69zM93.12 189.79h-4.3l.15-.68h4.29l-.14.68z"/><path class="cls-14" d="M82.75 183.79a6.34 6.34 0 00-.83.3.28.28 0 01-.22 0l-1.39-1a.66.66 0 00-.74 0l-.9.76a.65.65 0 00-.16.73l.77 1.54a.22.22 0 010 .22 7.44 7.44 0 00-.44.78.28.28 0 01-.18.12l-1.73.11a.63.63 0 00-.56.49l-.2 1.16a.61.61 0 00.35.65l1.58.69a.26.26 0 01.14.17 6.47 6.47 0 00.15.88.26.26 0 010 .21l-1.26 1.2a.62.62 0 00-.11.73l.59 1a.63.63 0 00.69.28l1.65-.5a.32.32 0 01.23.06 6 6 0 00.67.56.25.25 0 01.09.2l-.2 1.73a.63.63 0 00.39.63l1.11.4a.63.63 0 00.71-.23l.94-1.44a.28.28 0 01.21-.1h.9a.26.26 0 01.2.1l1 1.45a.63.63 0 00.7.23l1.11-.4a.63.63 0 00.39-.63l-.2-1.71a.31.31 0 01.09-.22 6.13 6.13 0 00.68-.56.26.26 0 01.21-.06l1.66.5a.63.63 0 00.69-.28l.59-1a.64.64 0 00-.1-.74l-1.25-1.18a.26.26 0 01-.07-.22 6.49 6.49 0 00.16-.88.26.26 0 01.12-.17l1.59-.69a.61.61 0 00.35-.65l-.2-1.16a.65.65 0 00-.56-.5l-1.71-.1a.28.28 0 01-.2-.13 5.35 5.35 0 00-.45-.77.26.26 0 010-.21l.78-1.55a.65.65 0 00-.15-.73l-.91-.76a.66.66 0 00-.74 0l-1.38 1a.31.31 0 01-.23 0c-.27-.11-.55-.21-.83-.3a.23.23 0 01-.15-.15l-.43-1.65a.63.63 0 00-.58-.46h-1.29a.63.63 0 00-.58.46l-.4 1.68a.26.26 0 01-.16.11z" transform="translate(-5.09 -3.05)"/><path class="cls-15" d="M84.48 184.74a5.08 5.08 0 105.07 5.09 5.07 5.07 0 00-5.07-5.07z" transform="translate(-5.09 -3.05)"/><rect class="cls-13" x="129.72" y="180.83" width="32.57" height="11.88" rx="2.83"/><path class="cls-11" d="M144.58 184.46h-1.46l.15-.68h1.45l-.14.68zM144.2 186.24h-2.4l.15-.69h2.4l-.15.69zM143.83 188.02h-3.35l.15-.69h3.34l-.14.69zM143.45 189.79h-4.29l.14-.68h4.3l-.15.68z"/><path class="cls-14" d="M133.08 183.79a6.34 6.34 0 00-.83.3.2.2 0 01-.21 0l-1.4-1a.66.66 0 00-.74 0l-.9.76a.64.64 0 00-.15.73l.77 1.54a.28.28 0 010 .22 6.06 6.06 0 00-.45.78.23.23 0 01-.18.12l-1.73.11a.61.61 0 00-.55.49l-.21 1.16a.65.65 0 00.35.65l1.58.69a.24.24 0 01.14.17 6.49 6.49 0 00.16.88.26.26 0 01-.06.21l-1.26 1.2a.62.62 0 00-.11.73l.59 1a.63.63 0 00.69.28l1.65-.5a.32.32 0 01.23.06 7.1 7.1 0 00.67.56.26.26 0 01.1.2l-.2 1.73a.63.63 0 00.39.63l1.1.4a.63.63 0 00.71-.23l.94-1.44a.32.32 0 01.22-.1h.88a.26.26 0 01.2.1l.95 1.45a.65.65 0 00.71.23l1.1-.4a.62.62 0 00.39-.63l-.19-1.71a.26.26 0 01.09-.22 6 6 0 00.67-.56.26.26 0 01.21-.06l1.67.5a.63.63 0 00.69-.28l.59-1a.64.64 0 00-.11-.74l-1.24-1.23a.26.26 0 01-.07-.22 5.24 5.24 0 00.16-.88.3.3 0 01.12-.17l1.59-.69a.64.64 0 00.36-.65l-.16-1.16a.64.64 0 00-.55-.5l-1.72-.1a.28.28 0 01-.2-.13 7.3 7.3 0 00-.44-.77.26.26 0 010-.21l.78-1.55a.64.64 0 00-.15-.73l-.9-.76a.66.66 0 00-.74 0l-1.38 1a.33.33 0 01-.24 0c-.27-.11-.54-.21-.83-.3a.23.23 0 01-.15-.15l-.41-1.69a.63.63 0 00-.58-.46h-1.18a.63.63 0 00-.58.46l-.4 1.68a.26.26 0 01-.25.2z" transform="translate(-5.09 -3.05)"/><path class="cls-15" d="M134.81 184.74a5.08 5.08 0 105.07 5.09 5.07 5.07 0 00-5.07-5.07z" transform="translate(-5.09 -3.05)"/><rect class="cls-13" x="264.52" y="180.83" width="32.57" height="11.88" rx="2.83"/><path class="cls-11" d="M279.37 184.46h-1.46l.15-.68h1.45l-.14.68zM278.99 186.24h-2.4l.15-.69h2.4l-.15.69zM278.62 188.02h-3.35l.15-.69h3.34l-.14.69zM278.24 189.79h-4.29l.14-.68h4.3l-.15.68z"/><path class="cls-14" d="M267.87 183.79a6.34 6.34 0 00-.83.3.2.2 0 01-.21 0l-1.4-1a.66.66 0 00-.74 0l-.9.76a.64.64 0 00-.15.73l.77 1.54a.28.28 0 010 .22 6 6 0 00-.44.78.28.28 0 01-.19.12l-1.73.11a.61.61 0 00-.55.49l-.21 1.16a.65.65 0 00.35.65l1.58.69a.24.24 0 01.14.17 6.49 6.49 0 00.16.88.26.26 0 01-.06.21l-1.26 1.2a.62.62 0 00-.11.73l.59 1a.63.63 0 00.69.28l1.65-.5a.32.32 0 01.23.06 7.1 7.1 0 00.67.56.26.26 0 01.1.2l-.2 1.73a.63.63 0 00.39.63l1.1.4a.63.63 0 00.71-.23l1-1.44a.28.28 0 01.21-.1h.88a.26.26 0 01.2.1l.95 1.45a.65.65 0 00.71.23l1.11-.4a.63.63 0 00.38-.63l-.19-1.71a.26.26 0 01.09-.22 6 6 0 00.67-.56.25.25 0 01.22-.06l1.66.5a.63.63 0 00.69-.28l.59-1a.64.64 0 00-.11-.74l-1.25-1.18a.26.26 0 01-.07-.22 5.24 5.24 0 00.16-.88.3.3 0 01.12-.17l1.59-.69a.64.64 0 00.36-.65l-.21-1.16a.63.63 0 00-.55-.5l-1.72-.1a.28.28 0 01-.2-.13 7.3 7.3 0 00-.44-.77.37.37 0 010-.21l.78-1.55a.64.64 0 00-.15-.73l-.9-.76a.66.66 0 00-.74 0l-1.38 1a.33.33 0 01-.24 0c-.27-.11-.54-.21-.83-.3a.23.23 0 01-.15-.15l-.4-1.69a.63.63 0 00-.58-.46H269a.63.63 0 00-.58.46l-.39 1.68a.29.29 0 01-.16.15z" transform="translate(-5.09 -3.05)"/><path class="cls-15" d="M269.61 184.74a5.08 5.08 0 105.06 5.1 5.07 5.07 0 00-5.06-5.1z" transform="translate(-5.09 -3.05)"/><rect class="cls-13" x="264.52" y="124.65" width="32.57" height="11.88" rx="2.83"/><path class="cls-11" d="M279.37 128.28h-1.46l.15-.68h1.45l-.14.68zM278.99 130.06h-2.4l.15-.69h2.4l-.15.69zM278.62 131.84h-3.35l.15-.69h3.34l-.14.69zM278.24 133.61h-4.29l.14-.68h4.3l-.15.68z"/><path class="cls-14" d="M267.87 127.61a6.34 6.34 0 00-.83.3.2.2 0 01-.21 0l-1.4-1a.63.63 0 00-.74 0l-.9.75a.64.64 0 00-.15.73l.77 1.54a.28.28 0 010 .22 6 6 0 00-.44.78.25.25 0 01-.19.12l-1.73.11a.61.61 0 00-.55.49l-.21 1.16a.65.65 0 00.35.65l1.58.69a.24.24 0 01.14.18 6.64 6.64 0 00.16.87.29.29 0 01-.06.22l-1.26 1.19a.62.62 0 00-.11.73l.59 1a.63.63 0 00.69.28l1.65-.49a.31.31 0 01.23 0c.21.2.44.39.67.57a.23.23 0 01.1.19l-.2 1.73a.63.63 0 00.39.63l1.1.4a.63.63 0 00.71-.23l1-1.42a.28.28 0 01.21-.1h.88a.25.25 0 01.2.09l.95 1.45a.63.63 0 00.71.23l1.11-.4a.63.63 0 00.38-.63l-.19-1.71a.26.26 0 01.09-.22 6 6 0 00.67-.56.29.29 0 01.22-.06l1.66.5a.63.63 0 00.69-.28l.59-1a.62.62 0 00-.11-.73l-1.25-1.18a.28.28 0 01-.07-.23 5.24 5.24 0 00.16-.88.3.3 0 01.12-.17l1.59-.69a.64.64 0 00.36-.65l-.21-1.16a.64.64 0 00-.55-.5l-1.72-.1a.28.28 0 01-.2-.13 7.3 7.3 0 00-.44-.77.37.37 0 010-.21l.78-1.55a.64.64 0 00-.15-.73l-.9-.75a.63.63 0 00-.74 0l-1.38 1a.26.26 0 01-.24 0 6.34 6.34 0 00-.83-.3.26.26 0 01-.15-.16l-.4-1.69a.63.63 0 00-.58-.46H269a.63.63 0 00-.58.46l-.39 1.68a.29.29 0 01-.16.2z" transform="translate(-5.09 -3.05)"/><path class="cls-15" d="M269.61 128.57a5.07 5.07 0 105.06 5.08 5.07 5.07 0 00-5.06-5.08z" transform="translate(-5.09 -3.05)"/><rect class="cls-13" x="121.4" y="139.95" width="32.57" height="11.88" rx="2.83"/><path class="cls-11" d="M136.25 143.59h-1.45l.14-.69h1.46l-.15.69zM135.88 145.37h-2.41l.15-.69h2.4l-.14.69zM135.5 147.14h-3.35l.15-.68h3.35l-.15.68zM135.13 148.92h-4.3l.14-.69h4.3l-.14.69z"/><path class="cls-14" d="M124.75 142.91a8.29 8.29 0 00-.83.31.26.26 0 01-.21 0l-1.39-1a.63.63 0 00-.74 0l-.91.76a.64.64 0 00-.15.73l.77 1.54a.22.22 0 010 .22 4.51 4.51 0 00-.44.77.24.24 0 01-.18.13l-1.73.1a.66.66 0 00-.56.49l-.2 1.17a.62.62 0 00.35.65l1.58.68a.24.24 0 01.13.18 6.49 6.49 0 00.16.88.26.26 0 01-.06.21l-1.26 1.19a.64.64 0 00-.1.74l.59 1a.63.63 0 00.69.27l1.64-.49a.24.24 0 01.23.06 6.13 6.13 0 00.68.56.25.25 0 01.09.2l-.2 1.72a.66.66 0 00.39.64l1.11.4a.63.63 0 00.7-.23l1-1.44a.26.26 0 01.21-.11h.89a.26.26 0 01.2.1l1 1.45a.63.63 0 00.7.23l1.11-.4a.66.66 0 00.39-.64l-.2-1.7a.24.24 0 01.09-.22 5.27 5.27 0 00.68-.57.23.23 0 01.21-.05l1.66.49a.63.63 0 00.69-.27l.59-1a.64.64 0 00-.11-.74l-1.25-1.18a.27.27 0 01-.06-.23 6.47 6.47 0 00.15-.88.23.23 0 01.13-.16l1.59-.69a.63.63 0 00.35-.65l-.2-1.17a.66.66 0 00-.56-.49l-1.72-.1a.26.26 0 01-.19-.13 6.06 6.06 0 00-.45-.78.23.23 0 010-.2l.77-1.55a.64.64 0 00-.15-.73l-.9-.76a.63.63 0 00-.74 0l-1.38 1a.33.33 0 01-.24 0 6.34 6.34 0 00-.83-.3.28.28 0 01-.15-.15l-.4-1.69a.63.63 0 00-.58-.46h-1.3a.63.63 0 00-.58.46l-.4 1.67a.25.25 0 01-.17.16z" transform="translate(-5.09 -3.05)"/><path class="cls-15" d="M126.49 143.87a5.07 5.07 0 105.07 5.07 5.07 5.07 0 00-5.07-5.07z" transform="translate(-5.09 -3.05)"/><rect class="cls-13" x="172.9" y="145.15" width="32.57" height="11.88" rx="2.83"/><path class="cls-11" d="M187.75 148.78h-1.45l.14-.69h1.46l-.15.69zM187.37 150.56h-2.4l.15-.69h2.4l-.15.69zM187 152.34h-3.35l.15-.69h3.35l-.15.69zM186.62 154.11h-4.29l.14-.69h4.3l-.15.69z"/><path class="cls-14" d="M176.25 148.1a8.29 8.29 0 00-.83.31.26.26 0 01-.21 0l-1.39-1a.66.66 0 00-.74 0l-.91.76a.64.64 0 00-.15.73l.77 1.54a.22.22 0 010 .22 6 6 0 00-.44.78.28.28 0 01-.18.12l-1.74.1a.65.65 0 00-.55.5l-.2 1.16a.61.61 0 00.35.65l1.58.68a.29.29 0 01.13.18 6.49 6.49 0 00.16.88.23.23 0 01-.06.21l-1.26 1.2a.62.62 0 00-.11.73l.59 1a.63.63 0 00.69.27l1.65-.49a.24.24 0 01.23.06 6.13 6.13 0 00.68.56.25.25 0 01.09.2l-.2 1.73a.63.63 0 00.39.63l1.11.4a.63.63 0 00.7-.23l1-1.44a.23.23 0 01.21-.1h.83a.26.26 0 01.2.1l1 1.45a.65.65 0 00.71.23l1.11-.4a.64.64 0 00.39-.63l-.2-1.71a.24.24 0 01.09-.22 5.27 5.27 0 00.68-.57.2.2 0 01.21 0l1.66.49a.63.63 0 00.69-.27l.59-1a.64.64 0 00-.11-.74l-1.25-1.17a.25.25 0 01-.06-.22 6.47 6.47 0 00.15-.88.3.3 0 01.12-.17L186 154a.65.65 0 00.35-.65l-.21-1.16a.64.64 0 00-.55-.5l-1.72-.1a.26.26 0 01-.19-.13 6 6 0 00-.45-.77.26.26 0 010-.21L184 149a.64.64 0 00-.15-.73l-.9-.76a.63.63 0 00-.74 0l-1.38 1a.33.33 0 01-.24 0 6.34 6.34 0 00-.83-.3.28.28 0 01-.15-.15l-.4-1.69a.63.63 0 00-.58-.46h-1.23a.63.63 0 00-.58.46l-.4 1.67a.27.27 0 01-.17.06z" transform="translate(-5.09 -3.05)"/><path class="cls-15" d="M178 149.06a5.07 5.07 0 105.07 5.07 5.07 5.07 0 00-5.07-5.07z" transform="translate(-5.09 -3.05)"/><path class="cls-13" d="M16.65 5.7h26.9a2.83 2.83 0 012.83 2.83v6.21a2.83 2.83 0 01-2.83 2.83h-26.9a2.83 2.83 0 01-2.83-2.83V8.53a2.85 2.85 0 012.83-2.83z" transform="translate(-5.09 -3.05)"/><path class="cls-11" d="M23.57 6.28h-1.45l.15-.68h1.45l-.15.68zM23.2 8.06h-2.4l.15-.69h2.4l-.15.69zM22.82 9.84h-3.34l.14-.69h3.35l-.15.69zM22.45 11.61h-4.29l.14-.68h4.29l-.14.68z"/><path class="cls-14" d="M12.08 5.61a6.34 6.34 0 00-.83.3.2.2 0 01-.21 0l-1.4-1a.63.63 0 00-.74 0l-.9.72a.64.64 0 00-.15.73l.77 1.54a.28.28 0 010 .22 6.06 6.06 0 00-.45.78A.21.21 0 018 9l-1.73.11a.61.61 0 00-.55.49l-.21 1.16a.65.65 0 00.35.65l1.58.69a.28.28 0 01.14.18 6.64 6.64 0 00.16.87.29.29 0 01-.06.22L6.4 14.58a.62.62 0 00-.11.73l.59 1a.63.63 0 00.69.28l1.65-.49a.27.27 0 01.23 0c.21.2.44.39.67.57a.21.21 0 01.09.19l-.21 1.8a.63.63 0 00.39.63l1.1.4a.63.63 0 00.71-.23l1-1.46a.32.32 0 01.22-.1h.87a.24.24 0 01.21.09l.95 1.45a.62.62 0 00.7.23l1.11-.4a.63.63 0 00.39-.63L17.42 17a.24.24 0 01.09-.22 6 6 0 00.67-.56.26.26 0 01.21-.06l1.67.5a.63.63 0 00.69-.28l.59-1a.62.62 0 00-.11-.73L20 13.4a.28.28 0 01-.07-.23 6.49 6.49 0 00.16-.88.26.26 0 01.12-.17l1.59-.69a.64.64 0 00.36-.65L22 9.62a.64.64 0 00-.55-.5L19.66 9a.28.28 0 01-.2-.13 7.17 7.17 0 00-.46-.75.26.26 0 010-.21l.78-1.55a.64.64 0 00-.15-.73l-.9-.75a.63.63 0 00-.74 0l-1.39 1a.24.24 0 01-.23 0 6.34 6.34 0 00-.83-.3.26.26 0 01-.15-.16L15 3.76a.63.63 0 00-.58-.46h-1.2a.63.63 0 00-.58.46l-.4 1.68a.25.25 0 01-.16.17z" transform="translate(-5.09 -3.05)"/><path class="cls-15" d="M13.81 6.57a5.07 5.07 0 105.07 5.07 5.07 5.07 0 00-5.07-5.07z" transform="translate(-5.09 -3.05)"/><rect class="cls-13" x="91.55" y="2.65" width="32.57" height="11.88" rx="2.83"/><path class="cls-11" d="M106.4 6.28h-1.45l.14-.68h1.46l-.15.68zM106.02 8.06h-2.4l.15-.69h2.4l-.15.69zM105.65 9.84h-3.35l.15-.69h3.35l-.15.69zM105.27 11.61h-4.29l.14-.68h4.3l-.15.68z"/><path class="cls-14" d="M94.9 5.61a6.34 6.34 0 00-.83.3.2.2 0 01-.21 0l-1.39-1a.6.6 0 00-.74 0l-.91.75a.64.64 0 00-.15.73l.77 1.54a.22.22 0 010 .22 7 7 0 00-.44.75.23.23 0 01-.18.12l-1.73.11a.63.63 0 00-.56.49l-.2 1.16a.61.61 0 00.35.65l1.58.69a.24.24 0 01.13.18 6.64 6.64 0 00.16.87.25.25 0 01-.06.22l-1.26 1.19a.64.64 0 00-.11.73l.59 1a.65.65 0 00.69.28l1.6-.47a.27.27 0 01.23.05c.22.2.44.39.68.57a.25.25 0 01.09.19l-.2 1.73a.63.63 0 00.39.63l1.11.4a.62.62 0 00.7-.23L96 18a.28.28 0 01.21-.1h.88a.22.22 0 01.2.09l1 1.45a.62.62 0 00.7.23l1.11-.4a.63.63 0 00.39-.63l-.2-1.71a.26.26 0 01.09-.22 6.13 6.13 0 00.68-.56.26.26 0 01.21-.06l1.66.5a.63.63 0 00.69-.28l.59-1a.62.62 0 00-.11-.73l-1.3-1.18a.27.27 0 01-.06-.23 6.47 6.47 0 00.15-.88.3.3 0 01.12-.17l1.6-.69a.65.65 0 00.35-.65l-.21-1.16a.64.64 0 00-.55-.5L102.48 9a.26.26 0 01-.19-.13 5.35 5.35 0 00-.45-.77.26.26 0 010-.21l.77-1.55a.64.64 0 00-.15-.73l-.9-.75a.63.63 0 00-.74 0l-1.38 1a.25.25 0 01-.24 0 6.34 6.34 0 00-.83-.3.29.29 0 01-.15-.16l-.4-1.69a.63.63 0 00-.58-.46h-1.19a.63.63 0 00-.58.46l-.4 1.68a.3.3 0 01-.17.22z" transform="translate(-5.09 -3.05)"/><path class="cls-15" d="M96.64 6.57a5.07 5.07 0 105.07 5.07 5.07 5.07 0 00-5.07-5.07z" transform="translate(-5.09 -3.05)"/><rect class="cls-13" x="111.15" y="61.65" width="32.57" height="11.88" rx="2.83"/><path class="cls-11" d="M126.01 65.28h-1.46l.15-.68h1.45l-.14.68zM125.63 67.06h-2.4l.15-.69h2.4l-.15.69zM125.26 68.84h-3.35l.14-.69h3.35l-.14.69zM124.88 70.62h-4.29l.14-.69h4.3l-.15.69z"/><path class="cls-14" d="M114.51 64.61a6.34 6.34 0 00-.83.3.2.2 0 01-.21 0l-1.4-1a.63.63 0 00-.74 0l-.9.75a.64.64 0 00-.15.73l.77 1.54a.28.28 0 010 .22 6.06 6.06 0 00-.45.78.22.22 0 01-.18.12l-1.73.11a.61.61 0 00-.55.49l-.21 1.16a.64.64 0 00.36.65l1.58.69a.24.24 0 01.13.18 6.64 6.64 0 00.16.87.29.29 0 01-.06.22l-1.26 1.19a.62.62 0 00-.11.73l.59 1a.63.63 0 00.69.28l1.65-.49a.31.31 0 01.23 0c.21.2.44.39.67.57a.23.23 0 01.1.19l-.2 1.73a.63.63 0 00.39.63l1.1.4a.63.63 0 00.71-.23l.94-1.42a.32.32 0 01.22-.1h.88a.25.25 0 01.2.09l1 1.45a.62.62 0 00.7.23l1.11-.4a.63.63 0 00.39-.63l-.25-1.64a.24.24 0 01.09-.22 6 6 0 00.67-.56.26.26 0 01.21-.06l1.67.5a.63.63 0 00.69-.28l.59-1a.62.62 0 00-.11-.73l-1.25-1.18a.28.28 0 01-.07-.23 5.24 5.24 0 00.16-.88.3.3 0 01.12-.17l1.59-.69a.64.64 0 00.36-.65l-.21-1.16a.64.64 0 00-.55-.5l-1.72-.1a.28.28 0 01-.2-.13 4.51 4.51 0 00-.44-.77.26.26 0 010-.21l.78-1.55a.64.64 0 00-.15-.73l-.9-.75a.63.63 0 00-.74 0l-1.38 1a.26.26 0 01-.24 0 6.34 6.34 0 00-.83-.3.26.26 0 01-.15-.16l-.41-1.69a.63.63 0 00-.58-.46h-1.18a.63.63 0 00-.58.46l-.4 1.68a.24.24 0 01-.18.13z" transform="translate(-5.09 -3.05)"/><path class="cls-15" d="M116.24 65.57a5.07 5.07 0 105.07 5.07 5.07 5.07 0 00-5.07-5.07z" transform="translate(-5.09 -3.05)"/><rect class="cls-13" x="162.27" y="61.65" width="32.57" height="11.88" rx="2.83"/><path class="cls-11" d="M177.13 65.28h-1.46l.15-.68h1.45l-.14.68zM176.75 67.06h-2.4l.15-.69h2.4l-.15.69zM176.38 68.84h-3.35l.14-.69h3.35l-.14.69zM176 70.62h-4.3l.15-.69h4.29l-.14.69z"/><path class="cls-14" d="M165.63 64.61a6.34 6.34 0 00-.83.3.2.2 0 01-.21 0l-1.4-1a.63.63 0 00-.74 0l-.9.75a.64.64 0 00-.15.73l.77 1.54a.28.28 0 010 .22 6.06 6.06 0 00-.45.78.22.22 0 01-.18.12l-1.73.11a.61.61 0 00-.55.49l-.26 1.13a.65.65 0 00.35.65l1.58.69a.28.28 0 01.14.18 6.64 6.64 0 00.16.87.29.29 0 01-.06.22L160 73.58a.62.62 0 00-.11.73l.59 1a.63.63 0 00.69.28l1.65-.49a.31.31 0 01.23 0c.21.2.44.39.67.57a.23.23 0 01.1.19l-.2 1.73a.63.63 0 00.39.63l1.1.4a.63.63 0 00.71-.23l.94-1.44a.32.32 0 01.22-.1h.87a.23.23 0 01.15.15l1 1.45a.62.62 0 00.7.23l1.11-.4a.63.63 0 00.39-.63L171 76a.27.27 0 01.1-.22 7.1 7.1 0 00.67-.56.26.26 0 01.21-.06l1.67.5a.62.62 0 00.68-.28l.6-1a.62.62 0 00-.11-.73l-1.25-1.18a.28.28 0 01-.07-.23 5.24 5.24 0 00.16-.88.26.26 0 01.12-.17l1.59-.69a.64.64 0 00.36-.65l-.21-1.16a.64.64 0 00-.55-.5l-1.72-.1a.28.28 0 01-.2-.13 7.3 7.3 0 00-.44-.77.26.26 0 010-.21l.78-1.55a.64.64 0 00-.15-.73l-.9-.75a.63.63 0 00-.74 0l-1.39 1a.24.24 0 01-.23 0 6.34 6.34 0 00-.83-.3.26.26 0 01-.15-.16l-.41-1.69a.63.63 0 00-.58-.46h-1.18a.63.63 0 00-.58.46l-.4 1.68a.25.25 0 01-.22.13z" transform="translate(-5.09 -3.05)"/><path class="cls-15" d="M167.36 65.57a5.07 5.07 0 105.07 5.07 5.07 5.07 0 00-5.07-5.07z" transform="translate(-5.09 -3.05)"/><rect class="cls-13" x="213.39" y="61.65" width="32.57" height="11.88" rx="2.83"/><path class="cls-11" d="M228.25 65.28h-1.46l.15-.68h1.45l-.14.68zM227.87 67.06h-2.4l.15-.69h2.4l-.15.69zM227.5 68.84h-3.35l.14-.69h3.35l-.14.69zM227.12 70.62h-4.3l.15-.69h4.29l-.14.69z"/><path class="cls-14" d="M216.75 64.61a6.34 6.34 0 00-.83.3.2.2 0 01-.21 0l-1.4-1a.63.63 0 00-.74 0l-.9.75a.64.64 0 00-.15.73l.77 1.54a.28.28 0 010 .22 6.06 6.06 0 00-.45.78.22.22 0 01-.18.12l-1.73.11a.61.61 0 00-.55.49l-.21 1.16a.65.65 0 00.35.65l1.58.69a.24.24 0 01.14.18 6.64 6.64 0 00.16.87.29.29 0 01-.06.22l-1.26 1.19a.62.62 0 00-.11.73l.59 1a.63.63 0 00.69.28l1.65-.49a.31.31 0 01.23 0c.21.2.44.39.67.57a.23.23 0 01.1.19l-.2 1.73a.63.63 0 00.39.63l1.1.4a.63.63 0 00.71-.23l.94-1.44a.32.32 0 01.22-.1h.87a.24.24 0 01.21.09l1 1.45a.62.62 0 00.7.23l1.11-.4a.62.62 0 00.39-.63l-.2-1.71a.27.27 0 01.1-.22 6 6 0 00.67-.56.26.26 0 01.21-.06l1.67.5a.63.63 0 00.69-.28l.59-1a.62.62 0 00-.11-.73l-1.25-1.18a.28.28 0 01-.07-.23 5.24 5.24 0 00.16-.88.26.26 0 01.12-.17l1.59-.69a.64.64 0 00.36-.65l-.21-1.16a.63.63 0 00-.55-.5l-1.72-.1a.28.28 0 01-.2-.13 7.3 7.3 0 00-.44-.77.26.26 0 010-.21l.78-1.55a.64.64 0 00-.15-.73l-.9-.75a.63.63 0 00-.74 0l-1.39 1a.24.24 0 01-.23 0 6.34 6.34 0 00-.83-.3.26.26 0 01-.15-.16l-.41-1.69a.63.63 0 00-.58-.46H218a.63.63 0 00-.58.46l-.4 1.68a.25.25 0 01-.27.22z" transform="translate(-5.09 -3.05)"/><path class="cls-15" d="M218.48 65.57a5.07 5.07 0 105.07 5.07 5.07 5.07 0 00-5.07-5.07z" transform="translate(-5.09 -3.05)"/><path class="cls-13" d="M272.44 64.7h26.9a2.83 2.83 0 012.83 2.83v6.21a2.83 2.83 0 01-2.83 2.83h-26.9a2.83 2.83 0 01-2.83-2.83v-6.21a2.85 2.85 0 012.83-2.83z" transform="translate(-5.09 -3.05)"/><path class="cls-11" d="M279.36 65.28h-1.45l.15-.68h1.45l-.15.68zM278.99 67.06h-2.4l.15-.69h2.4l-.15.69zM278.61 68.84h-3.34l.14-.69h3.35l-.15.69zM278.24 70.62h-4.29l.14-.69h4.3l-.15.69z"/><path class="cls-14" d="M267.87 64.61a6.34 6.34 0 00-.83.3.2.2 0 01-.21 0l-1.4-1a.63.63 0 00-.74 0l-.9.75a.64.64 0 00-.15.73l.77 1.54a.28.28 0 010 .22 6.06 6.06 0 00-.45.78.22.22 0 01-.18.12l-1.73.11a.61.61 0 00-.55.49l-.21 1.16a.65.65 0 00.35.65l1.58.69a.24.24 0 01.14.18 6.64 6.64 0 00.16.87.29.29 0 01-.06.22l-1.26 1.19a.62.62 0 00-.11.73l.59 1a.63.63 0 00.69.28l1.65-.49a.31.31 0 01.23 0c.21.2.44.39.67.57a.23.23 0 01.1.19l-.2 1.73a.63.63 0 00.39.63l1.1.4a.63.63 0 00.71-.23L269 77a.32.32 0 01.22-.1h.87a.24.24 0 01.21.09l.95 1.45a.62.62 0 00.7.23l1.11-.4a.62.62 0 00.39-.63l-.24-1.64a.24.24 0 01.09-.22 6 6 0 00.67-.56.26.26 0 01.21-.06l1.67.5a.63.63 0 00.69-.28l.59-1a.62.62 0 00-.11-.73l-1.25-1.18a.28.28 0 01-.07-.23 5.24 5.24 0 00.16-.88.26.26 0 01.12-.17l1.59-.69a.64.64 0 00.36-.65l-.21-1.16a.64.64 0 00-.55-.5l-1.72-.1a.28.28 0 01-.2-.13 7.3 7.3 0 00-.44-.77.26.26 0 010-.21l.78-1.55a.64.64 0 00-.15-.73l-.9-.75a.63.63 0 00-.74 0l-1.39 1a.24.24 0 01-.23 0 6.34 6.34 0 00-.83-.3.26.26 0 01-.15-.16l-.41-1.69a.63.63 0 00-.58-.46H269a.63.63 0 00-.58.46l-.4 1.68a.24.24 0 01-.15.13z" transform="translate(-5.09 -3.05)"/><path class="cls-15" d="M269.6 65.57a5.07 5.07 0 105.07 5.07 5.07 5.07 0 00-5.07-5.07z" transform="translate(-5.09 -3.05)"/><rect class="cls-13" x="162.27" y="82.65" width="32.57" height="11.88" rx="2.83"/><path class="cls-11" d="M177.13 86.28h-1.46l.15-.68h1.45l-.14.68zM176.75 88.06h-2.4l.15-.69h2.4l-.15.69zM176.38 89.84h-3.35l.14-.69h3.35l-.14.69zM176 91.62h-4.3l.15-.69h4.29l-.14.69z"/><path class="cls-14" d="M165.63 85.61a6.34 6.34 0 00-.83.3.2.2 0 01-.21 0l-1.4-1a.63.63 0 00-.74 0l-.9.75a.64.64 0 00-.15.73l.77 1.54a.28.28 0 010 .22 6.06 6.06 0 00-.45.78.22.22 0 01-.18.12l-1.73.11a.61.61 0 00-.55.49l-.26 1.13a.65.65 0 00.35.65l1.58.69a.28.28 0 01.14.18 6.64 6.64 0 00.16.87.29.29 0 01-.06.22L160 94.58a.62.62 0 00-.11.73l.59 1a.63.63 0 00.69.28l1.65-.49a.31.31 0 01.23 0c.21.2.44.39.67.57a.23.23 0 01.1.19l-.2 1.73a.63.63 0 00.39.63l1.1.4a.63.63 0 00.71-.23l.94-1.44a.32.32 0 01.22-.1h.87a.23.23 0 01.15.15l1 1.45a.62.62 0 00.7.23l1.11-.4a.63.63 0 00.39-.63L171 97a.27.27 0 01.1-.22 7.1 7.1 0 00.67-.56.26.26 0 01.21-.06l1.67.5a.62.62 0 00.68-.28l.6-1a.62.62 0 00-.11-.73l-1.25-1.18a.28.28 0 01-.07-.23 5.24 5.24 0 00.16-.88.26.26 0 01.12-.17l1.59-.69a.64.64 0 00.36-.65l-.21-1.16a.64.64 0 00-.55-.5l-1.72-.1a.28.28 0 01-.2-.13 7.3 7.3 0 00-.44-.77.26.26 0 010-.21l.78-1.55a.64.64 0 00-.15-.73l-.9-.75a.63.63 0 00-.74 0l-1.39 1a.24.24 0 01-.23 0 6.34 6.34 0 00-.83-.3.26.26 0 01-.15-.16l-.41-1.69a.63.63 0 00-.58-.46h-1.18a.63.63 0 00-.58.46l-.4 1.68a.25.25 0 01-.22.13z" transform="translate(-5.09 -3.05)"/><path class="cls-15" d="M167.36 86.57a5.07 5.07 0 105.07 5.07 5.07 5.07 0 00-5.07-5.07z" transform="translate(-5.09 -3.05)"/><rect class="cls-13" x="213.39" y="82.65" width="32.57" height="11.88" rx="2.83"/><path class="cls-11" d="M228.25 86.28h-1.46l.15-.68h1.45l-.14.68zM227.87 88.06h-2.4l.15-.69h2.4l-.15.69zM227.5 89.84h-3.35l.14-.69h3.35l-.14.69zM227.12 91.62h-4.3l.15-.69h4.29l-.14.69z"/><path class="cls-14" d="M216.75 85.61a6.34 6.34 0 00-.83.3.2.2 0 01-.21 0l-1.4-1a.63.63 0 00-.74 0l-.9.75a.64.64 0 00-.15.73l.77 1.54a.28.28 0 010 .22 6.06 6.06 0 00-.45.78.22.22 0 01-.18.12l-1.73.11a.61.61 0 00-.55.49l-.21 1.16a.65.65 0 00.35.65l1.58.69a.24.24 0 01.14.18 6.64 6.64 0 00.16.87.29.29 0 01-.06.22l-1.26 1.19a.62.62 0 00-.11.73l.59 1a.63.63 0 00.69.28l1.65-.49a.31.31 0 01.23 0c.21.2.44.39.67.57a.23.23 0 01.1.19l-.2 1.73a.63.63 0 00.39.63l1.1.4a.63.63 0 00.71-.23l.94-1.44a.32.32 0 01.22-.1h.87a.24.24 0 01.21.09l1 1.45a.62.62 0 00.7.23l1.11-.4a.62.62 0 00.39-.63l-.2-1.71a.27.27 0 01.1-.22 6 6 0 00.67-.56.26.26 0 01.21-.06l1.67.5a.63.63 0 00.69-.28l.59-1a.62.62 0 00-.11-.73l-1.25-1.18a.28.28 0 01-.07-.23 5.24 5.24 0 00.16-.88.26.26 0 01.12-.17l1.59-.69a.64.64 0 00.36-.65l-.21-1.16a.63.63 0 00-.55-.5l-1.72-.1a.28.28 0 01-.2-.13 7.3 7.3 0 00-.44-.77.26.26 0 010-.21l.78-1.55a.64.64 0 00-.15-.73l-.9-.75a.63.63 0 00-.74 0l-1.39 1a.24.24 0 01-.23 0 6.34 6.34 0 00-.83-.3.26.26 0 01-.15-.16l-.41-1.69a.63.63 0 00-.58-.46H218a.63.63 0 00-.58.46l-.4 1.68a.25.25 0 01-.27.22z" transform="translate(-5.09 -3.05)"/><path class="cls-15" d="M218.48 86.57a5.07 5.07 0 105.07 5.07 5.07 5.07 0 00-5.07-5.07z" transform="translate(-5.09 -3.05)"/><path class="cls-13" d="M272.44 85.7h26.9a2.83 2.83 0 012.83 2.83v6.21a2.83 2.83 0 01-2.83 2.83h-26.9a2.83 2.83 0 01-2.83-2.83v-6.21a2.85 2.85 0 012.83-2.83z" transform="translate(-5.09 -3.05)"/><path class="cls-11" d="M279.36 86.28h-1.45l.15-.68h1.45l-.15.68zM278.99 88.06h-2.4l.15-.69h2.4l-.15.69zM278.61 89.84h-3.34l.14-.69h3.35l-.15.69zM278.24 91.62h-4.29l.14-.69h4.3l-.15.69z"/><path class="cls-14" d="M267.87 85.61a6.34 6.34 0 00-.83.3.2.2 0 01-.21 0l-1.4-1a.63.63 0 00-.74 0l-.9.75a.64.64 0 00-.15.73l.77 1.54a.28.28 0 010 .22 6.06 6.06 0 00-.45.78.22.22 0 01-.18.12l-1.73.11a.61.61 0 00-.55.49l-.21 1.16a.65.65 0 00.35.65l1.58.69a.24.24 0 01.14.18 6.64 6.64 0 00.16.87.29.29 0 01-.06.22l-1.26 1.19a.62.62 0 00-.11.73l.59 1a.63.63 0 00.69.28l1.65-.49a.31.31 0 01.23 0c.21.2.44.39.67.57a.23.23 0 01.1.19l-.2 1.73a.63.63 0 00.39.63l1.1.4a.63.63 0 00.71-.23L269 98a.32.32 0 01.22-.1h.87a.24.24 0 01.21.09l.95 1.45a.62.62 0 00.7.23l1.11-.4a.62.62 0 00.39-.63l-.24-1.64a.24.24 0 01.09-.22 6 6 0 00.67-.56.26.26 0 01.21-.06l1.67.5a.63.63 0 00.69-.28l.59-1a.62.62 0 00-.11-.73l-1.25-1.18a.28.28 0 01-.07-.23 5.24 5.24 0 00.16-.88.26.26 0 01.12-.17l1.59-.69a.64.64 0 00.36-.65l-.21-1.16a.64.64 0 00-.55-.5l-1.72-.1a.28.28 0 01-.2-.13 7.3 7.3 0 00-.44-.77.26.26 0 010-.21l.78-1.55a.64.64 0 00-.15-.73l-.9-.75a.63.63 0 00-.74 0l-1.39 1a.24.24 0 01-.23 0 6.34 6.34 0 00-.83-.3.26.26 0 01-.15-.16l-.41-1.69a.63.63 0 00-.58-.46H269a.63.63 0 00-.58.46l-.4 1.68a.24.24 0 01-.15.13z" transform="translate(-5.09 -3.05)"/><path class="cls-15" d="M269.6 86.57a5.07 5.07 0 105.07 5.07 5.07 5.07 0 00-5.07-5.07z" transform="translate(-5.09 -3.05)"/><rect class="cls-13" x="148.45" y="2.65" width="32.57" height="11.88" rx="2.83"/><path class="cls-11" d="M163.3 6.28h-1.45l.14-.68h1.46l-.15.68zM162.93 8.06h-2.4l.14-.69h2.4l-.14.69zM162.55 9.84h-3.35l.15-.69h3.35l-.15.69zM162.18 11.61h-4.3l.15-.68h4.29l-.14.68z"/><path class="cls-14" d="M151.81 5.61a6 6 0 00-.84.3.26.26 0 01-.21 0l-1.39-1a.63.63 0 00-.74 0l-.91.75a.65.65 0 00-.15.73l.77 1.54a.22.22 0 010 .22 6 6 0 00-.44.78.23.23 0 01-.18.12l-1.72.08a.63.63 0 00-.56.49l-.2 1.16a.61.61 0 00.35.65l1.58.69a.28.28 0 01.14.18 5.28 5.28 0 00.15.87.23.23 0 01-.06.22l-1.26 1.19a.65.65 0 00-.1.73l.59 1a.63.63 0 00.69.28l1.68-.49a.25.25 0 01.22 0c.22.2.44.39.68.57a.25.25 0 01.09.19l-.2 1.73a.63.63 0 00.39.63l1.11.4a.62.62 0 00.7-.23l.95-1.44a.28.28 0 01.21-.1h.85a.22.22 0 01.2.09l1 1.45a.62.62 0 00.7.23l1.11-.4a.63.63 0 00.39-.63l-.2-1.71a.26.26 0 01.09-.22 6.13 6.13 0 00.68-.56.26.26 0 01.21-.06l1.66.5a.63.63 0 00.69-.28l.59-1a.65.65 0 00-.1-.73l-1.25-1.18a.25.25 0 01-.07-.23 6.47 6.47 0 00.15-.88.31.31 0 01.13-.17l1.59-.69a.62.62 0 00.35-.65l-.2-1.16a.65.65 0 00-.56-.5L159.38 9a.26.26 0 01-.19-.13 5.35 5.35 0 00-.45-.77.26.26 0 010-.21l.77-1.55a.64.64 0 00-.14-.73l-.91-.75a.63.63 0 00-.74 0l-1.38 1a.25.25 0 01-.24 0 6.34 6.34 0 00-.83-.3.29.29 0 01-.15-.16l-.4-1.69a.63.63 0 00-.58-.46H153a.63.63 0 00-.58.46L152 5.44a.27.27 0 01-.19.17z" transform="translate(-5.09 -3.05)"/><path class="cls-15" d="M153.54 6.57a5.07 5.07 0 105.07 5.07 5.07 5.07 0 00-5.07-5.07z" transform="translate(-5.09 -3.05)"/><rect class="cls-13" x="205.35" y="2.65" width="32.57" height="11.88" rx="2.83"/><path class="cls-11" d="M220.2 6.28h-1.45l.15-.68h1.45l-.15.68zM219.83 8.06h-2.4l.14-.69h2.4l-.14.69zM219.45 9.84h-3.35l.15-.69h3.35l-.15.69zM219.08 11.61h-4.3l.15-.68h4.29l-.14.68z"/><path class="cls-14" d="M208.71 5.61a6.34 6.34 0 00-.83.3.28.28 0 01-.22 0l-1.39-1a.63.63 0 00-.74 0l-.91.75a.65.65 0 00-.15.73l.77 1.54a.22.22 0 010 .22 7.44 7.44 0 00-.44.78.23.23 0 01-.18.12l-1.73.11a.63.63 0 00-.56.49l-.2 1.16a.61.61 0 00.35.65l1.58.69a.28.28 0 01.14.18 6.6 6.6 0 00.15.87.25.25 0 010 .22L203 14.58a.62.62 0 00-.11.73l.59 1a.63.63 0 00.69.28l1.65-.49a.28.28 0 01.23 0c.21.2.44.39.67.57a.25.25 0 01.09.19l-.2 1.73a.63.63 0 00.39.63l1.11.4a.63.63 0 00.71-.23l.94-1.44a.28.28 0 01.21-.1h.88a.22.22 0 01.2.09l1 1.45a.62.62 0 00.7.23l1.11-.4a.63.63 0 00.39-.63L214 17a.31.31 0 01.09-.22 6.13 6.13 0 00.68-.56.26.26 0 01.21-.06l1.66.5a.63.63 0 00.69-.28l.59-1a.62.62 0 00-.1-.73l-1.25-1.18a.25.25 0 01-.07-.23 6.49 6.49 0 00.16-.88.24.24 0 01.12-.17l1.59-.69a.61.61 0 00.35-.65l-.2-1.16a.65.65 0 00-.56-.5L216.29 9a.28.28 0 01-.2-.13 5.35 5.35 0 00-.45-.77.26.26 0 010-.21l.78-1.55a.65.65 0 00-.15-.73l-.91-.75a.63.63 0 00-.74 0l-1.38 1a.24.24 0 01-.23 0 6.34 6.34 0 00-.83-.3.31.31 0 01-.18-.16l-.4-1.69a.64.64 0 00-.6-.41h-1.18a.63.63 0 00-.58.46l-.4 1.68a.31.31 0 01-.13.17z" transform="translate(-5.09 -3.05)"/><path class="cls-15" d="M210.44 6.57a5.07 5.07 0 105.07 5.07 5.07 5.07 0 00-5.07-5.07z" transform="translate(-5.09 -3.05)"/><path class="cls-13" d="M16.65 160.26h26.9a2.83 2.83 0 012.83 2.83v6.21a2.83 2.83 0 01-2.83 2.83h-26.9a2.83 2.83 0 01-2.83-2.83v-6.21a2.85 2.85 0 012.83-2.83z" transform="translate(-5.09 -3.05)"/><path class="cls-11" d="M23.57 160.84h-1.45l.15-.69h1.45l-.15.69zM23.2 162.62h-2.4l.15-.69h2.4l-.15.69zM22.82 164.4h-3.34l.14-.69h3.35l-.15.69zM22.45 166.17h-4.29l.14-.69h4.29l-.14.69z"/><path class="cls-14" d="M12.08 160.16a8.29 8.29 0 00-.83.31.26.26 0 01-.21 0l-1.4-1a.66.66 0 00-.74 0l-.9.76a.64.64 0 00-.15.73l.77 1.54a.28.28 0 010 .22 6.06 6.06 0 00-.45.78.23.23 0 01-.18.12l-1.73.1a.64.64 0 00-.55.5l-.21 1.16a.65.65 0 00.35.65l1.58.68a.28.28 0 01.14.18 6.49 6.49 0 00.16.88.26.26 0 01-.06.21l-1.26 1.2a.62.62 0 00-.11.73l.59 1a.6.6 0 00.69.27l1.65-.49a.24.24 0 01.23.06 7.1 7.1 0 00.67.56.25.25 0 01.09.2l-.22 1.71a.63.63 0 00.39.63l1.1.4a.65.65 0 00.71-.23l.94-1.44a.23.23 0 01.22-.1h.87a.28.28 0 01.21.1l1 1.45a.63.63 0 00.7.23l1.11-.4a.63.63 0 00.39-.63l-.19-1.71a.24.24 0 01.09-.22 5.18 5.18 0 00.67-.57.23.23 0 01.21 0l1.67.49a.63.63 0 00.69-.27l.59-1a.64.64 0 00-.11-.74L20 168a.26.26 0 01-.07-.22 6.49 6.49 0 00.16-.88.26.26 0 01.12-.17l1.59-.73a.64.64 0 00.36-.65l-.16-1.12a.64.64 0 00-.55-.5l-1.72-.1a.28.28 0 01-.2-.13 7.3 7.3 0 00-.44-.77.26.26 0 010-.21l.78-1.55a.64.64 0 00-.15-.73l-.9-.76a.63.63 0 00-.74 0l-1.39 1a.24.24 0 01-.23 0 6.34 6.34 0 00-.83-.3.23.23 0 01-.15-.15l-.48-1.71a.63.63 0 00-.58-.46h-1.2a.63.63 0 00-.58.46l-.4 1.67a.23.23 0 01-.16.17z" transform="translate(-5.09 -3.05)"/><path class="cls-15" d="M13.81 161.12a5.07 5.07 0 105.07 5.07 5.07 5.07 0 00-5.07-5.07z" transform="translate(-5.09 -3.05)"/><path class="cls-12" d="M22.59 118.75H11.42a5.94 5.94 0 100 11.88h11.17a2.85 2.85 0 002.83-2.84v-6.2a2.85 2.85 0 00-2.83-2.84z" transform="translate(-5.09 -3.05)"/><path class="cls-13" d="M15.76 124.69a4.34 4.34 0 01-8.68 0 4.28 4.28 0 01.31-1.62.46.46 0 01.59-.25.45.45 0 01.25.58 3.49 3.49 0 00-.23 1.29 3.43 3.43 0 105-3 .46.46 0 01-.19-.62.45.45 0 01.61-.19 4.31 4.31 0 012.34 3.81zm-4.34-3a.67.67 0 10-.67-.67.67.67 0 00.67.66zm0 3.68a.67.67 0 00.67-.67.68.68 0 00-.3-.56l-3.58-2.65 2.65 3.58a.7.7 0 00.56.29z" transform="translate(-5.09 -3.05)"/><path class="cls-12" d="M146 85.7h-11.18a5.94 5.94 0 10-.49 11.87 4 4 0 00.49 0H146a2.85 2.85 0 002.84-2.83v-6.21A2.85 2.85 0 00146 85.7z" transform="translate(-5.09 -3.05)"/><path class="cls-13" d="M139.16 91.64a4.35 4.35 0 01-8.69 0 4.53 4.53 0 01.31-1.62.46.46 0 01.62-.2.48.48 0 01.23.54 3.51 3.51 0 00-.25 1.28 3.44 3.44 0 105-3 .45.45 0 01-.19-.61.46.46 0 01.62-.19 4.34 4.34 0 012.35 3.8zm-4.34-3a.67.67 0 10-.67-.67.67.67 0 00.67.66zm0 3.68a.66.66 0 00.66-.68.65.65 0 00-.3-.55l-3.58-2.65 2.66 3.56a.66.66 0 00.56.31z" transform="translate(-5.09 -3.05)"/><rect class="cls-13" x="8.72" y="96.64" width="32.57" height="11.88" rx="2.83"/><path class="cls-11" d="M23.57 100.28h-1.45l.15-.69h1.45l-.15.69zM23.2 102.06h-2.4l.15-.69h2.4l-.15.69zM22.82 103.83h-3.34l.14-.69h3.35l-.15.69zM22.45 105.61h-4.29l.14-.69h4.29l-.14.69z"/><path class="cls-14" d="M12.08 99.6a6.39 6.39 0 00-.83.31.26.26 0 01-.21 0l-1.4-1a.63.63 0 00-.74 0l-.9.76a.64.64 0 00-.15.73l.77 1.53a.31.31 0 010 .23 5.35 5.35 0 00-.45.77.28.28 0 01-.17.07l-1.73.1a.64.64 0 00-.55.49l-.21 1.17a.65.65 0 00.35.65l1.58.68a.28.28 0 01.14.18 6.49 6.49 0 00.16.88.26.26 0 01-.06.21l-1.28 1.21a.64.64 0 00-.11.74l.59 1a.63.63 0 00.69.27l1.65-.49a.24.24 0 01.23.06 7.1 7.1 0 00.67.56.22.22 0 01.09.2l-.21 1.74a.63.63 0 00.39.63l1.1.41a.65.65 0 00.71-.24l.94-1.43a.27.27 0 01.22-.11h.87a.28.28 0 01.21.1l1 1.44a.64.64 0 00.7.24l1.11-.41a.63.63 0 00.39-.63l-.19-1.71a.24.24 0 01.09-.22 6 6 0 00.67-.56.26.26 0 01.21-.06l1.67.5a.63.63 0 00.69-.27l.59-1a.62.62 0 00-.11-.73L20 107.39a.28.28 0 01-.07-.23 6.49 6.49 0 00.16-.88.22.22 0 01.12-.16l1.59-.69a.65.65 0 00.36-.65l-.16-1.17a.62.62 0 00-.55-.49l-1.72-.1a.28.28 0 01-.2-.13 7.44 7.44 0 00-.44-.78.23.23 0 010-.2l.78-1.55a.64.64 0 00-.15-.73l-.9-.76a.63.63 0 00-.74 0l-1.39 1a.24.24 0 01-.23 0 6.34 6.34 0 00-.83-.3.23.23 0 01-.15-.15L15 97.76a.63.63 0 00-.58-.46h-1.2a.63.63 0 00-.58.46l-.4 1.67a.23.23 0 01-.16.17z" transform="translate(-5.09 -3.05)"/><path class="cls-15" d="M13.81 100.56a5.07 5.07 0 105.07 5.07 5.07 5.07 0 00-5.07-5.07z" transform="translate(-5.09 -3.05)"/><rect class="cls-13" x="69.9" y="115.7" width="32.57" height="11.88" rx="2.83"/><path class="cls-11" d="M84.75 119.34H83.3l.14-.69h1.45l-.14.69zM84.37 121.12h-2.4l.15-.69h2.4l-.15.69zM84 122.89h-3.35l.15-.69h3.34l-.14.69zM83.62 124.67h-4.29l.14-.69h4.3l-.15.69z"/><path class="cls-14" d="M73.25 118.66a6.34 6.34 0 00-.83.3.2.2 0 01-.21 0l-1.39-1a.6.6 0 00-.74 0l-.91.76a.64.64 0 00-.15.73l.77 1.53a.24.24 0 010 .23 4.51 4.51 0 00-.44.77.29.29 0 01-.18.13l-1.74.1a.64.64 0 00-.55.49l-.2 1.16a.63.63 0 00.35.66l1.58.68a.27.27 0 01.13.18 6.49 6.49 0 00.16.88.26.26 0 01-.06.21l-1.26 1.19a.64.64 0 00-.11.74l.59 1a.63.63 0 00.69.27l1.65-.49a.24.24 0 01.23.06 6.13 6.13 0 00.68.56.25.25 0 01.09.2l-.2 1.72a.63.63 0 00.39.63l1.11.41a.64.64 0 00.7-.24l1-1.43a.26.26 0 01.21-.11h.88a.29.29 0 01.2.09l1 1.45a.65.65 0 00.71.24l1.11-.41a.63.63 0 00.39-.63l-.2-1.72a.26.26 0 01.09-.22 6.13 6.13 0 00.68-.56.26.26 0 01.21-.06l1.66.5a.63.63 0 00.69-.27l.59-1a.62.62 0 00-.11-.73l-1.25-1.18a.27.27 0 01-.06-.23 6.47 6.47 0 00.15-.88.25.25 0 01.12-.16l1.6-.69a.67.67 0 00.35-.66l-.21-1.16a.61.61 0 00-.55-.49l-1.72-.1a.26.26 0 01-.19-.13 6.06 6.06 0 00-.45-.78.23.23 0 010-.2l.77-1.56a.6.6 0 00-.15-.72L80 118a.63.63 0 00-.74 0l-1.38 1a.26.26 0 01-.24 0 6.34 6.34 0 00-.83-.3.26.26 0 01-.15-.16l-.4-1.68a.63.63 0 00-.58-.46H74.4a.62.62 0 00-.58.46l-.4 1.67a.3.3 0 01-.17.13z" transform="translate(-5.09 -3.05)"/><path class="cls-15" d="M75 119.62a5.07 5.07 0 105.07 5.07 5.07 5.07 0 00-5.07-5.07z" transform="translate(-5.09 -3.05)"/><rect class="cls-13" x="69.9" y="134.76" width="32.57" height="11.88" rx="2.83"/><path class="cls-11" d="M84.75 138.4H83.3l.14-.69h1.45l-.14.69zM84.37 140.17h-2.4l.15-.68h2.4l-.15.68zM84 141.95h-3.35l.15-.69h3.34l-.14.69zM83.62 143.73h-4.29l.14-.69h4.3l-.15.69z"/><path class="cls-14" d="M73.25 137.72a6.34 6.34 0 00-.83.3.2.2 0 01-.21 0l-1.39-1a.6.6 0 00-.74 0l-.91.76a.64.64 0 00-.15.73l.77 1.53a.24.24 0 010 .23 4.51 4.51 0 00-.44.77.29.29 0 01-.18.13l-1.74.1a.64.64 0 00-.55.49l-.2 1.16a.63.63 0 00.35.66l1.58.68a.27.27 0 01.13.18 6.49 6.49 0 00.16.88.26.26 0 01-.06.21l-1.26 1.19a.62.62 0 00-.11.73l.59 1a.63.63 0 00.69.27l1.65-.49a.24.24 0 01.23.06 6.13 6.13 0 00.68.56.25.25 0 01.09.2l-.2 1.72a.63.63 0 00.39.63l1.11.41a.64.64 0 00.7-.24l1-1.43a.26.26 0 01.21-.11h.88a.29.29 0 01.2.09l1 1.45a.65.65 0 00.71.24l1.11-.41a.63.63 0 00.39-.63l-.2-1.71a.26.26 0 01.09-.22 6.13 6.13 0 00.68-.56.26.26 0 01.21-.06l1.66.5a.63.63 0 00.69-.27l.59-1a.62.62 0 00-.11-.73l-1.25-1.18a.27.27 0 01-.06-.23 6.47 6.47 0 00.15-.88.25.25 0 01.12-.16l1.6-.69a.67.67 0 00.35-.66l-.21-1.16a.61.61 0 00-.55-.49l-1.72-.1a.26.26 0 01-.19-.13 6.06 6.06 0 00-.45-.78.23.23 0 010-.2l.77-1.56a.6.6 0 00-.15-.72L80 137a.63.63 0 00-.74 0l-1.38 1a.26.26 0 01-.24 0 6.34 6.34 0 00-.83-.3.26.26 0 01-.15-.16l-.4-1.68a.63.63 0 00-.58-.46H74.4a.62.62 0 00-.58.46l-.4 1.67a.29.29 0 01-.17.19z" transform="translate(-5.09 -3.05)"/><path class="cls-15" d="M75 138.68a5.07 5.07 0 105.07 5.07 5.07 5.07 0 00-5.07-5.07z" transform="translate(-5.09 -3.05)"/><rect class="cls-13" x="69.9" y="96.64" width="32.57" height="11.88" rx="2.83"/><path class="cls-11" d="M84.75 100.28H83.3l.14-.69h1.45l-.14.69zM84.37 102.06h-2.4l.15-.69h2.4l-.15.69zM84 103.83h-3.35l.15-.69h3.34l-.14.69zM83.62 105.61h-4.29l.14-.69h4.3l-.15.69z"/><path class="cls-14" d="M73.25 99.6a6.39 6.39 0 00-.83.31.26.26 0 01-.21 0l-1.39-1a.6.6 0 00-.74 0l-.91.76a.64.64 0 00-.15.73l.77 1.53a.24.24 0 010 .23 4.51 4.51 0 00-.44.77.29.29 0 01-.18.13l-1.74.1a.64.64 0 00-.55.49l-.2 1.17a.62.62 0 00.35.65l1.58.68a.27.27 0 01.13.18 6.49 6.49 0 00.16.88.26.26 0 01-.06.21l-1.26 1.19a.64.64 0 00-.11.74l.59 1a.63.63 0 00.69.27l1.65-.49a.24.24 0 01.23.06 6.13 6.13 0 00.68.56.25.25 0 01.09.2l-.2 1.72a.63.63 0 00.39.63l1.11.41a.64.64 0 00.7-.24l1-1.43a.26.26 0 01.21-.11h.88a.26.26 0 01.2.1l1 1.44a.65.65 0 00.71.24l1.11-.41a.63.63 0 00.39-.63l-.2-1.67a.26.26 0 01.09-.22 6.13 6.13 0 00.68-.56.26.26 0 01.21-.06l1.66.5a.63.63 0 00.69-.27l.59-1a.62.62 0 00-.11-.73l-1.25-1.18a.27.27 0 01-.06-.23 6.47 6.47 0 00.15-.88.25.25 0 01.12-.16l1.6-.69a.65.65 0 00.35-.65l-.21-1.17a.62.62 0 00-.55-.49l-1.72-.1a.26.26 0 01-.19-.13 6.06 6.06 0 00-.45-.78.23.23 0 010-.2l.77-1.55a.64.64 0 00-.15-.73l-.9-.76a.63.63 0 00-.74 0l-1.38 1a.26.26 0 01-.24 0 6.34 6.34 0 00-.83-.3.28.28 0 01-.15-.15l-.4-1.69a.63.63 0 00-.58-.46h-1.3a.62.62 0 00-.58.46l-.4 1.67a.26.26 0 01-.17.11z" transform="translate(-5.09 -3.05)"/><path class="cls-15" d="M75 100.56a5.07 5.07 0 105.07 5.07 5.07 5.07 0 00-5.07-5.07z" transform="translate(-5.09 -3.05)"/><path class="cls-12" d="M226 183.88h-11.22a5.94 5.94 0 000 11.87H226a2.83 2.83 0 002.83-2.83v-6.21a2.83 2.83 0 00-2.83-2.83z" transform="translate(-5.09 -3.05)"/><path class="cls-13" d="M219.13 189.82a4.35 4.35 0 01-8.69 0 4.53 4.53 0 01.31-1.62.46.46 0 01.62-.2.48.48 0 01.23.54 3.32 3.32 0 00-.25 1.28 3.44 3.44 0 105-3 .45.45 0 11.42-.8 4.32 4.32 0 012.36 3.8zm-4.35-3a.67.67 0 10-.67-.67.67.67 0 00.67.66zm0 3.68a.67.67 0 00.37-1.23l-3.58-2.66 2.66 3.58a.65.65 0 00.55.3z" transform="translate(-5.09 -3.05)"/><rect class="cls-16" x="56.32" y="2.65" width="11.87" height="11.87" rx="2.83"/><rect class="cls-16" x="285.21" y="103.65" width="11.87" height="11.87" rx="2.83"/><path class="cls-16" d="M43.55 183.88H19.68l-.05-.07-.9-.76a.66.66 0 00-.74 0l-1.14.85h-.2a2.84 2.84 0 00-.65.1c-.16-.06-.31-.13-.47-.18a.23.23 0 01-.15-.15l-.38-1.73a.63.63 0 00-.58-.46h-1.2a.63.63 0 00-.58.46l-.4 1.68a.25.25 0 01-.16.17 6.34 6.34 0 00-.83.3.2.2 0 01-.21 0l-1.4-1a.66.66 0 00-.74 0l-.9.76a.64.64 0 00-.15.73l.77 1.54a.28.28 0 010 .22 6.06 6.06 0 00-.45.78.23.23 0 01-.18.12l-1.73.11a.61.61 0 00-.55.49L5.49 189a.65.65 0 00.35.65l1.58.69a.26.26 0 01.14.17 6.49 6.49 0 00.16.88.26.26 0 01-.06.21l-1.26 1.2a.62.62 0 00-.11.73l.59 1a.63.63 0 00.69.28l1.65-.5a.32.32 0 01.23.06 7.1 7.1 0 00.67.56.25.25 0 01.09.2l-.21 1.71a.63.63 0 00.39.63l1.1.4a.63.63 0 00.71-.23l.94-1.44a.32.32 0 01.22-.1h.87a.28.28 0 01.21.1l1 1.45a.63.63 0 00.7.23l1.11-.4a.63.63 0 00.39-.63l-.12-1.09h26.03a2.85 2.85 0 002.84-2.83v-6.21a2.84 2.84 0 00-2.84-2.84zM114.22 183.88H90.35v-.07l-.91-.76a.66.66 0 00-.74 0l-1.13.85h-.2a2.74 2.74 0 00-.64.08c-.16-.06-.31-.13-.47-.18a.23.23 0 01-.15-.15L85.7 182a.63.63 0 00-.58-.46h-1.23a.63.63 0 00-.58.46l-.4 1.68a.25.25 0 01-.16.17 6.34 6.34 0 00-.83.3.28.28 0 01-.22 0l-1.39-1a.66.66 0 00-.74 0l-.9.76a.65.65 0 00-.16.73l.77 1.54a.22.22 0 010 .22 7.44 7.44 0 00-.44.78.28.28 0 01-.18.12l-1.73.11a.63.63 0 00-.56.49l-.2 1.16a.61.61 0 00.35.65l1.58.69a.26.26 0 01.14.17 6.47 6.47 0 00.15.88.26.26 0 010 .21l-1.26 1.2a.62.62 0 00-.11.73l.59 1a.63.63 0 00.69.28l1.65-.5a.32.32 0 01.23.06 6 6 0 00.67.56.25.25 0 01.09.2l-.2 1.73a.63.63 0 00.39.63l1.11.4a.63.63 0 00.71-.23l.94-1.44a.28.28 0 01.21-.1h.9a.26.26 0 01.2.1l1 1.45a.63.63 0 00.7.23l1.11-.4a.63.63 0 00.39-.63l-.12-1.09h26.06a2.83 2.83 0 002.83-2.83v-6.21a2.83 2.83 0 00-2.78-2.88zM164.55 183.88h-23.87l-.05-.07-.9-.76a.66.66 0 00-.74 0l-1.14.85h-.2a2.74 2.74 0 00-.64.08c-.15-.06-.31-.13-.47-.18a.23.23 0 01-.15-.15L136 182a.63.63 0 00-.58-.46h-1.18a.63.63 0 00-.58.46l-.4 1.68a.25.25 0 01-.16.17 6.34 6.34 0 00-.83.3.2.2 0 01-.21 0l-1.4-1a.66.66 0 00-.74 0l-.9.76a.64.64 0 00-.15.73l.77 1.54a.28.28 0 010 .22 6.06 6.06 0 00-.45.78.23.23 0 01-.18.12l-1.73.11a.61.61 0 00-.55.49l-.23 1.1a.65.65 0 00.35.65l1.58.69a.24.24 0 01.14.17 6.49 6.49 0 00.16.88.26.26 0 01-.06.21l-1.26 1.2a.62.62 0 00-.11.73l.59 1a.63.63 0 00.69.28l1.65-.5a.32.32 0 01.23.06 7.1 7.1 0 00.67.56.26.26 0 01.1.2l-.2 1.73a.63.63 0 00.39.63l1.1.4a.63.63 0 00.71-.23l.94-1.44a.32.32 0 01.22-.1h.88a.26.26 0 01.2.1l.95 1.45a.65.65 0 00.71.23l1.1-.4a.62.62 0 00.39-.63l-.12-1.09h26.06a2.85 2.85 0 002.84-2.78v-6.21a2.84 2.84 0 00-2.8-2.88zM299.34 183.88h-23.87l-.05-.07-.9-.76a.66.66 0 00-.74 0l-1.14.85h-.2a2.74 2.74 0 00-.64.08c-.15-.06-.31-.13-.47-.18a.23.23 0 01-.15-.15l-.4-1.69a.63.63 0 00-.58-.46H269a.63.63 0 00-.58.46l-.39 1.68a.29.29 0 01-.17.17 6.34 6.34 0 00-.83.3.2.2 0 01-.21 0l-1.4-1a.66.66 0 00-.74 0l-.9.76a.64.64 0 00-.15.73l.77 1.54a.28.28 0 010 .22 6 6 0 00-.44.78.28.28 0 01-.19.12l-1.73.11a.61.61 0 00-.55.49l-.21 1.16a.65.65 0 00.35.65l1.58.69a.24.24 0 01.14.17 6.49 6.49 0 00.16.88.26.26 0 01-.06.21l-1.26 1.2a.62.62 0 00-.11.73l.59 1a.63.63 0 00.69.28l1.65-.5a.32.32 0 01.23.06 7.1 7.1 0 00.67.56.26.26 0 01.1.2l-.2 1.73a.63.63 0 00.39.63l1.1.4a.63.63 0 00.71-.23l.95-1.44a.28.28 0 01.21-.1h.88a.26.26 0 01.2.1l.95 1.45a.65.65 0 00.71.23l1.11-.4a.63.63 0 00.38-.63l-.12-1.09h26.06a2.85 2.85 0 002.84-2.83v-6.21a2.84 2.84 0 00-2.8-2.88zM299.34 127.7h-23.87l-.05-.07-.9-.75a.63.63 0 00-.74 0l-1.14.85h-.2a2.74 2.74 0 00-.64.08 3.75 3.75 0 00-.47-.17.26.26 0 01-.15-.16l-.4-1.69a.63.63 0 00-.58-.46H269a.63.63 0 00-.58.46l-.39 1.68a.29.29 0 01-.17.17 6.34 6.34 0 00-.83.3.2.2 0 01-.21 0l-1.4-1a.63.63 0 00-.74 0l-.9.75a.64.64 0 00-.15.73l.77 1.54a.28.28 0 010 .22 6 6 0 00-.44.78.25.25 0 01-.19.12l-1.73.11a.61.61 0 00-.55.49l-.21 1.16a.65.65 0 00.35.65l1.58.69a.24.24 0 01.14.18 6.64 6.64 0 00.16.87.29.29 0 01-.06.22l-1.26 1.19a.62.62 0 00-.11.73l.59 1a.63.63 0 00.69.28l1.65-.49a.31.31 0 01.23 0c.21.2.44.39.67.57a.23.23 0 01.1.19l-.2 1.73a.63.63 0 00.39.63l1.1.4a.63.63 0 00.71-.23l1-1.45a.28.28 0 01.21-.1h.88a.25.25 0 01.2.09l.95 1.45a.63.63 0 00.71.23l1.11-.4a.63.63 0 00.38-.63l-.12-1.09h26.06a2.85 2.85 0 002.84-2.83v-6.21a2.84 2.84 0 00-2.87-2.81zM127.13 155.32l1 1.45a.63.63 0 00.7.23l1.11-.4a.66.66 0 00.39-.64l-.13-1.08h26.06a2.85 2.85 0 002.84-2.88v-6.2a2.85 2.85 0 00-2.84-2.84h-23.9l-.06-.06-.9-.76a.63.63 0 00-.74 0l-1.13.84h-.21a2.72 2.72 0 00-.63.08c-.16-.06-.31-.12-.48-.17a.28.28 0 01-.15-.15l-.4-1.69a.63.63 0 00-.58-.46h-1.18a.63.63 0 00-.58.46l-.4 1.67a.29.29 0 01-.17.17 8.29 8.29 0 00-.83.31.26.26 0 01-.21 0l-1.39-1a.63.63 0 00-.74 0l-.91.76a.64.64 0 00-.15.73l.77 1.54a.22.22 0 010 .22 4.51 4.51 0 00-.44.77.24.24 0 01-.18.13l-1.73.1a.66.66 0 00-.56.49l-.2 1.17a.62.62 0 00.35.65l1.58.68a.24.24 0 01.13.18 6.49 6.49 0 00.16.88.26.26 0 01-.06.21l-1.26 1.19a.64.64 0 00-.1.74l.59 1a.63.63 0 00.69.27l1.64-.49a.24.24 0 01.23.06 6.13 6.13 0 00.68.56.25.25 0 01.09.2l-.2 1.72a.66.66 0 00.39.64l1.11.4a.63.63 0 00.7-.23l1-1.44a.26.26 0 01.21-.11h.89a.35.35 0 01.13.1zM207.72 160.07a2.85 2.85 0 002.84-2.83V151a2.85 2.85 0 00-2.84-2.83h-23.86l-.06-.07-.9-.76a.63.63 0 00-.74 0l-1.14.85h-.2a3.38 3.38 0 00-.63.07c-.16 0-.31-.12-.48-.17a.28.28 0 01-.15-.15l-.4-1.69a.63.63 0 00-.58-.46h-1.18a.63.63 0 00-.58.46l-.4 1.67a.29.29 0 01-.17.17 8.29 8.29 0 00-.83.31.26.26 0 01-.21 0l-1.39-1a.66.66 0 00-.74 0l-.91.76a.64.64 0 00-.15.73l.77 1.54a.22.22 0 010 .22 6 6 0 00-.44.78.28.28 0 01-.18.12l-1.74.1a.65.65 0 00-.55.5l-.2 1.16a.61.61 0 00.35.65l1.58.68a.29.29 0 01.13.18 6.49 6.49 0 00.16.88.23.23 0 01-.06.21l-1.26 1.2a.62.62 0 00-.11.73l.59 1a.63.63 0 00.69.27l1.65-.49a.24.24 0 01.23.06 6.13 6.13 0 00.68.56.25.25 0 01.09.2l-.2 1.73a.63.63 0 00.39.63l1.11.4a.63.63 0 00.7-.23l1-1.44a.23.23 0 01.21-.1h.83a.26.26 0 01.2.1l1 1.45a.65.65 0 00.71.23l1.11-.4a.64.64 0 00.39-.63l-.13-1.09zM43.55 5.7H19.68l-.05-.07-.9-.75a.63.63 0 00-.74 0l-1.14.85h-.2a2.74 2.74 0 00-.64.08 3.75 3.75 0 00-.47-.17.26.26 0 01-.15-.16L15 3.76a.63.63 0 00-.58-.46h-1.2a.63.63 0 00-.58.46l-.4 1.68a.25.25 0 01-.16.17 6.34 6.34 0 00-.83.3.2.2 0 01-.21 0l-1.4-1a.63.63 0 00-.74 0l-.9.72a.64.64 0 00-.15.73l.77 1.54a.28.28 0 010 .22 6.06 6.06 0 00-.45.78A.21.21 0 018 9l-1.73.11a.61.61 0 00-.55.49l-.21 1.16a.65.65 0 00.35.65l1.58.69a.28.28 0 01.14.18 6.64 6.64 0 00.16.87.29.29 0 01-.06.22L6.4 14.58a.62.62 0 00-.11.73l.59 1a.63.63 0 00.69.28l1.65-.49a.27.27 0 01.23 0c.21.2.44.39.67.57a.21.21 0 01.09.19l-.21 1.8a.63.63 0 00.39.63l1.1.4a.63.63 0 00.71-.23l1-1.46a.32.32 0 01.22-.1h.87a.24.24 0 01.21.09l.95 1.45a.62.62 0 00.7.23l1.11-.4a.63.63 0 00.39-.63l-.12-1.09h26.02a2.85 2.85 0 002.84-2.83V8.53a2.85 2.85 0 00-2.84-2.83zM88.67 11.43l1.58.69a.24.24 0 01.13.18 6.64 6.64 0 00.16.87.25.25 0 01-.06.22l-1.26 1.19a.64.64 0 00-.11.73l.59 1a.65.65 0 00.69.28l1.61-.47a.27.27 0 01.23.05c.22.2.44.39.68.57a.25.25 0 01.09.19l-.2 1.73a.63.63 0 00.39.63l1.11.4a.62.62 0 00.7-.23L96 18a.28.28 0 01.21-.1h.88a.22.22 0 01.2.09l1 1.45a.62.62 0 00.7.23l1.11-.4a.63.63 0 00.39-.63l-.13-1.09h26.06a2.85 2.85 0 002.84-2.83V8.53a2.85 2.85 0 00-2.84-2.83h-23.91l-.06-.07-.9-.75a.63.63 0 00-.74 0l-1.14.85h-.2a2.72 2.72 0 00-.63.08 4.59 4.59 0 00-.48-.17.29.29 0 01-.15-.16l-.4-1.69a.63.63 0 00-.58-.46h-1.18a.63.63 0 00-.58.46l-.4 1.68a.29.29 0 01-.17.17 6.34 6.34 0 00-.83.3.2.2 0 01-.21 0l-1.39-1a.6.6 0 00-.74 0l-.91.75a.64.64 0 00-.15.73L91.44 8a.22.22 0 010 .22 6.59 6.59 0 00-.44.68.23.23 0 01-.18.12l-1.73.11a.63.63 0 00-.56.49l-.2 1.16a.61.61 0 00.34.65zM118.54 78.69l1.11-.4a.63.63 0 00.39-.63l-.12-1.09H146a2.85 2.85 0 002.84-2.83v-6.21A2.85 2.85 0 00146 64.7h-23.89v-.07l-.9-.75a.63.63 0 00-.74 0l-1.14.85h-.2a2.74 2.74 0 00-.64.08 3.75 3.75 0 00-.47-.17.26.26 0 01-.15-.16l-.41-1.69a.63.63 0 00-.58-.46h-1.18a.63.63 0 00-.58.46l-.4 1.68a.25.25 0 01-.16.17 6.34 6.34 0 00-.83.3.2.2 0 01-.21 0l-1.4-1a.63.63 0 00-.74 0l-.9.75a.64.64 0 00-.15.73l.77 1.58a.28.28 0 010 .22 6.06 6.06 0 00-.45.78.22.22 0 01-.18.12l-1.73.11a.61.61 0 00-.55.49l-.19 1.12a.64.64 0 00.36.65l1.58.69a.24.24 0 01.13.18 6.64 6.64 0 00.16.87.29.29 0 01-.06.22l-1.26 1.19a.62.62 0 00-.11.73l.59 1a.63.63 0 00.69.28l1.65-.49a.31.31 0 01.23 0c.21.2.44.39.67.57a.23.23 0 01.1.19l-.2 1.73a.63.63 0 00.39.63l1.1.4a.63.63 0 00.71-.23l.94-1.44a.32.32 0 01.22-.1h.88a.25.25 0 01.2.09l1 1.45a.63.63 0 00.57.24zM173.18 64.63l-.9-.75a.63.63 0 00-.74 0l-1.14.85h-.2a2.74 2.74 0 00-.64.08 3.75 3.75 0 00-.47-.17.26.26 0 01-.15-.16l-.41-1.69a.63.63 0 00-.58-.46h-1.18a.63.63 0 00-.58.46l-.4 1.68a.25.25 0 01-.16.17 6.34 6.34 0 00-.83.3.2.2 0 01-.21 0l-1.4-1a.63.63 0 00-.74 0l-.9.75a.64.64 0 00-.15.73l.77 1.54a.28.28 0 010 .22 6.06 6.06 0 00-.45.78.22.22 0 01-.18.12l-1.73.11a.61.61 0 00-.55.49l-.26 1.1a.65.65 0 00.35.65l1.58.69a.28.28 0 01.14.18 6.64 6.64 0 00.16.87.29.29 0 01-.06.22L160 73.58a.62.62 0 00-.11.73l.59 1a.63.63 0 00.69.28l1.65-.49a.31.31 0 01.23 0c.21.2.44.39.67.57a.23.23 0 01.1.19l-.2 1.73a.63.63 0 00.39.63l1.1.4a.63.63 0 00.71-.23l.94-1.44a.32.32 0 01.22-.1h.87a.23.23 0 01.15.15l1 1.45a.62.62 0 00.7.23l1.11-.4a.63.63 0 00.39-.63l-.2-1.08h26.1a2.85 2.85 0 002.84-2.83v-6.21a2.85 2.85 0 00-2.84-2.83h-23.87zM248.22 64.7h-23.87v-.07l-.9-.75a.63.63 0 00-.74 0l-1.14.85h-.2a2.74 2.74 0 00-.64.08 3.75 3.75 0 00-.47-.17.26.26 0 01-.15-.16l-.41-1.69a.63.63 0 00-.58-.46h-1.18a.63.63 0 00-.58.46l-.4 1.68a.25.25 0 01-.16.17 6.34 6.34 0 00-.83.3.2.2 0 01-.21 0l-1.4-1a.63.63 0 00-.74 0l-.9.75a.64.64 0 00-.15.73l.77 1.54a.28.28 0 010 .22 6.06 6.06 0 00-.45.78.22.22 0 01-.18.12l-1.73.11a.61.61 0 00-.55.49l-.21 1.16a.65.65 0 00.35.65l1.58.69a.24.24 0 01.14.18 6.64 6.64 0 00.16.87.29.29 0 01-.06.22l-1.26 1.19a.62.62 0 00-.11.73l.59 1a.63.63 0 00.69.28l1.65-.49a.31.31 0 01.23 0c.21.2.44.39.67.57a.23.23 0 01.1.19l-.2 1.73a.63.63 0 00.39.63l1.1.4a.63.63 0 00.71-.23l.94-1.44a.32.32 0 01.22-.1h.89a.24.24 0 01.21.09l1 1.45a.62.62 0 00.7.23l1.11-.4a.62.62 0 00.39-.63l-.12-1.09h26.06a2.85 2.85 0 002.84-2.83v-6.2a2.83 2.83 0 00-2.85-2.83zM299.34 64.7h-23.87l-.05-.07-.9-.75a.63.63 0 00-.74 0l-1.14.85h-.2a2.74 2.74 0 00-.64.08 3.75 3.75 0 00-.47-.17.26.26 0 01-.15-.16l-.41-1.69a.63.63 0 00-.58-.46H269a.63.63 0 00-.58.46l-.4 1.68a.25.25 0 01-.16.17 6.34 6.34 0 00-.83.3.2.2 0 01-.21 0l-1.4-1a.63.63 0 00-.74 0l-.9.75a.64.64 0 00-.15.73l.77 1.58a.28.28 0 010 .22 6.06 6.06 0 00-.4.78.22.22 0 01-.18.12l-1.73.11a.61.61 0 00-.55.49l-.21 1.16a.65.65 0 00.35.65l1.58.69a.24.24 0 01.14.18 6.64 6.64 0 00.16.87.29.29 0 01-.06.22l-1.26 1.19a.62.62 0 00-.11.73l.59 1a.63.63 0 00.69.28l1.65-.49a.31.31 0 01.23 0c.21.2.44.39.67.57a.23.23 0 01.1.19l-.2 1.73a.63.63 0 00.39.63l1.1.4a.63.63 0 00.71-.23L269 77a.32.32 0 01.22-.1h.87a.24.24 0 01.21.09l.95 1.45a.62.62 0 00.7.23l1.11-.4a.62.62 0 00.39-.63l-.12-1.09h26.06a2.85 2.85 0 002.84-2.83v-6.19a2.84 2.84 0 00-2.85-2.83zM171.16 98.66l-.16-1.09h26.1a2.85 2.85 0 002.84-2.83v-6.21a2.85 2.85 0 00-2.84-2.83h-23.87v-.07l-.9-.75a.63.63 0 00-.74 0l-1.14.85h-.2a2.74 2.74 0 00-.64.08 3.75 3.75 0 00-.47-.17.26.26 0 01-.15-.16l-.41-1.69a.63.63 0 00-.58-.46h-1.18a.63.63 0 00-.58.46l-.4 1.68a.25.25 0 01-.16.17 6.34 6.34 0 00-.83.3.2.2 0 01-.21 0l-1.4-1a.63.63 0 00-.74 0l-.9.75a.64.64 0 00-.15.73l.77 1.54a.28.28 0 010 .22 6.06 6.06 0 00-.45.78.22.22 0 01-.18.12l-1.73.11a.61.61 0 00-.55.49l-.31 1.1a.65.65 0 00.35.65l1.58.69a.28.28 0 01.14.18 6.64 6.64 0 00.16.87.29.29 0 01-.06.22L160 94.58a.62.62 0 00-.11.73l.59 1a.63.63 0 00.69.28l1.65-.49a.31.31 0 01.23 0c.21.2.44.39.67.57a.23.23 0 01.1.19l-.2 1.73a.63.63 0 00.39.63l1.1.4a.63.63 0 00.71-.23l.94-1.44a.32.32 0 01.22-.1h.87a.23.23 0 01.15.15l1 1.45a.62.62 0 00.7.23l1.11-.4a.6.6 0 00.35-.62zM248.22 85.7h-23.87v-.07l-.9-.75a.63.63 0 00-.74 0l-1.14.85h-.2a2.74 2.74 0 00-.64.08 3.75 3.75 0 00-.47-.17.26.26 0 01-.15-.16l-.41-1.69a.63.63 0 00-.58-.46h-1.18a.63.63 0 00-.58.46l-.4 1.68a.25.25 0 01-.16.17 6.34 6.34 0 00-.83.3.2.2 0 01-.21 0l-1.4-1a.63.63 0 00-.74 0l-.9.75a.64.64 0 00-.15.73l.77 1.54a.28.28 0 010 .22 6.06 6.06 0 00-.45.78.22.22 0 01-.18.12l-1.73.11a.61.61 0 00-.55.49l-.21 1.16a.65.65 0 00.35.65l1.58.69a.24.24 0 01.14.18 6.64 6.64 0 00.16.87.29.29 0 01-.06.22l-1.26 1.19a.62.62 0 00-.11.73l.59 1a.63.63 0 00.69.28l1.65-.49a.31.31 0 01.23 0c.21.2.44.39.67.57a.23.23 0 01.1.19l-.2 1.73a.63.63 0 00.39.63l1.1.4a.63.63 0 00.71-.23l.94-1.44a.32.32 0 01.22-.1h.89a.24.24 0 01.21.09l1 1.45a.62.62 0 00.7.23l1.11-.4a.62.62 0 00.39-.63l-.12-1.09h26.06a2.85 2.85 0 002.84-2.83v-6.2a2.83 2.83 0 00-2.85-2.83zM299.34 85.7h-23.87l-.05-.07-.9-.75a.63.63 0 00-.74 0l-1.14.85h-.2a2.74 2.74 0 00-.64.08 3.75 3.75 0 00-.47-.17.26.26 0 01-.15-.16l-.41-1.69a.63.63 0 00-.58-.46H269a.63.63 0 00-.58.46l-.4 1.68a.25.25 0 01-.16.17 6.34 6.34 0 00-.83.3.2.2 0 01-.21 0l-1.4-1a.63.63 0 00-.74 0l-.9.75a.64.64 0 00-.15.73l.77 1.58a.28.28 0 010 .22 6.06 6.06 0 00-.4.78.22.22 0 01-.18.12l-1.73.11a.61.61 0 00-.55.49l-.21 1.16a.65.65 0 00.35.65l1.58.69a.24.24 0 01.14.18 6.64 6.64 0 00.16.87.29.29 0 01-.06.22l-1.26 1.19a.62.62 0 00-.11.73l.59 1a.63.63 0 00.69.28l1.65-.49a.31.31 0 01.23 0c.21.2.44.39.67.57a.23.23 0 01.1.19l-.2 1.73a.63.63 0 00.39.63l1.1.4a.63.63 0 00.71-.23L269 98a.32.32 0 01.22-.1h.87a.24.24 0 01.21.09l.95 1.45a.62.62 0 00.7.23l1.11-.4a.62.62 0 00.39-.63l-.12-1.09h26.06a2.85 2.85 0 002.84-2.83v-6.19a2.84 2.84 0 00-2.85-2.83zM145.57 11.43l1.58.69a.28.28 0 01.14.18 5.28 5.28 0 00.15.87.23.23 0 01-.06.22l-1.26 1.19a.65.65 0 00-.1.73l.59 1a.63.63 0 00.69.28l1.7-.49a.25.25 0 01.22 0c.22.2.44.39.68.57a.25.25 0 01.09.19l-.2 1.73a.63.63 0 00.39.63l1.11.4a.62.62 0 00.7-.23l.95-1.44a.28.28 0 01.21-.1h.85a.22.22 0 01.2.09l1 1.45a.62.62 0 00.7.23l1.11-.4a.63.63 0 00.39-.63l-.13-1.09h26.07a2.85 2.85 0 002.83-2.83V8.53a2.85 2.85 0 00-2.83-2.83h-23.93v-.07l-.91-.75a.63.63 0 00-.74 0l-1.13.85h-.21a2.72 2.72 0 00-.63.08 4.59 4.59 0 00-.48-.17.29.29 0 01-.15-.16l-.4-1.69a.63.63 0 00-.58-.46H153a.63.63 0 00-.58.46L152 5.44a.25.25 0 01-.16.17 6 6 0 00-.84.3.26.26 0 01-.21 0l-1.39-1a.63.63 0 00-.74 0l-.91.75a.65.65 0 00-.15.73l.77 1.54a.22.22 0 010 .22 6 6 0 00-.44.78.23.23 0 01-.18.12l-1.75.08a.63.63 0 00-.56.49l-.2 1.16a.6.6 0 00.33.65zM202.47 11.43l1.58.69a.28.28 0 01.14.18 6.6 6.6 0 00.15.87.25.25 0 01-.05.22L203 14.58a.62.62 0 00-.11.73l.59 1a.63.63 0 00.69.28l1.65-.49a.28.28 0 01.23 0c.21.2.44.39.67.57a.25.25 0 01.09.19l-.2 1.73a.63.63 0 00.39.63l1.11.4a.63.63 0 00.71-.23l.94-1.44a.28.28 0 01.21-.1h.88a.22.22 0 01.2.09l1 1.45a.62.62 0 00.7.23l1.11-.4a.63.63 0 00.39-.63l-.13-1.09h26.07a2.83 2.83 0 002.81-2.76V8.53a2.83 2.83 0 00-2.83-2.83h-23.86l-.05-.07-.91-.75a.63.63 0 00-.74 0l-1.13.85h-.2a2.74 2.74 0 00-.64.08 3.75 3.75 0 00-.47-.17.31.31 0 01-.16-.16l-.4-1.69a.62.62 0 00-.61-.49h-1.18a.63.63 0 00-.58.46l-.4 1.68a.25.25 0 01-.16.17 6.34 6.34 0 00-.83.3.28.28 0 01-.22 0l-1.39-1a.63.63 0 00-.74 0l-.91.75a.65.65 0 00-.15.73l.77 1.54a.22.22 0 010 .22 7.44 7.44 0 00-.44.78.23.23 0 01-.18.12l-1.73.11a.63.63 0 00-.56.49l-.2 1.16a.59.59 0 00.37.62zM43.55 160.26H19.68l-.05-.07-.9-.76a.63.63 0 00-.74 0l-1.14.85h-.2a3.39 3.39 0 00-.64.07l-.47-.17a.23.23 0 01-.15-.15l-.39-1.71a.63.63 0 00-.58-.46h-1.2a.63.63 0 00-.58.46l-.4 1.67a.23.23 0 01-.16.17 8.29 8.29 0 00-.83.31.26.26 0 01-.21 0l-1.4-1a.66.66 0 00-.74 0l-.9.76a.64.64 0 00-.15.73l.77 1.54a.28.28 0 010 .22 6.06 6.06 0 00-.45.78.23.23 0 01-.18.12l-1.73.1a.64.64 0 00-.55.5l-.21 1.16a.65.65 0 00.35.65l1.58.68a.28.28 0 01.14.18 6.49 6.49 0 00.16.88.26.26 0 01-.06.21l-1.26 1.2a.62.62 0 00-.11.73l.59 1a.6.6 0 00.69.27l1.65-.49a.24.24 0 01.23.06 7.1 7.1 0 00.67.56.25.25 0 01.09.2l-.22 1.71a.63.63 0 00.39.63l1.1.4a.65.65 0 00.71-.23l.94-1.44a.23.23 0 01.22-.1h.87a.28.28 0 01.21.1l1 1.45a.63.63 0 00.7.23l1.11-.4a.63.63 0 00.39-.63l-.12-1.09h26.03a2.85 2.85 0 002.84-2.83v-6.21a2.84 2.84 0 00-2.84-2.84zM11.42 130.63h11.17a2.85 2.85 0 002.83-2.84v-6.2a2.85 2.85 0 00-2.83-2.84H11.42a5.94 5.94 0 100 11.88zM134.82 85.7a5.94 5.94 0 10-.49 11.87 4 4 0 00.49 0H146a2.85 2.85 0 002.84-2.83v-6.21A2.85 2.85 0 00146 85.7zM43.55 99.69H19.68l-.05-.06-.9-.76a.63.63 0 00-.74 0l-1.14.84h-.2a2.74 2.74 0 00-.64.08l-.47-.17a.23.23 0 01-.15-.15L15 97.76a.63.63 0 00-.58-.46h-1.2a.63.63 0 00-.58.46l-.4 1.67a.23.23 0 01-.16.17 6.39 6.39 0 00-.83.31.26.26 0 01-.21 0l-1.4-1a.63.63 0 00-.74 0l-.9.76a.64.64 0 00-.15.73l.77 1.53a.31.31 0 010 .23 5.35 5.35 0 00-.45.77.28.28 0 01-.17.07l-1.73.1a.64.64 0 00-.55.49l-.21 1.17a.65.65 0 00.35.65l1.58.68a.28.28 0 01.14.18 6.49 6.49 0 00.16.88.26.26 0 01-.06.21l-1.28 1.21a.64.64 0 00-.11.74l.59 1a.63.63 0 00.69.27l1.65-.49a.24.24 0 01.23.06 7.1 7.1 0 00.67.56.22.22 0 01.09.2l-.21 1.74a.63.63 0 00.39.63l1.1.41a.65.65 0 00.71-.24l.94-1.43a.27.27 0 01.22-.11h.87a.28.28 0 01.21.1l1 1.44a.64.64 0 00.7.24l1.11-.41a.63.63 0 00.39-.63l-.12-1.08h26.03a2.85 2.85 0 002.84-2.84v-6.2a2.85 2.85 0 00-2.84-2.84zM107.56 127.79v-6.2a2.85 2.85 0 00-2.84-2.84H80.86l-.06-.06-.9-.76a.63.63 0 00-.74 0l-1.14.84h-.2a2.72 2.72 0 00-.63.08c-.16-.06-.31-.12-.48-.17a.26.26 0 01-.15-.16l-.4-1.68a.63.63 0 00-.58-.46H74.4a.62.62 0 00-.58.46l-.4 1.67a.29.29 0 01-.17.17 6.34 6.34 0 00-.83.3.2.2 0 01-.21 0l-1.39-1a.6.6 0 00-.74 0l-.91.76a.64.64 0 00-.15.73l.77 1.53a.24.24 0 010 .23 4.51 4.51 0 00-.44.77.29.29 0 01-.18.13l-1.74.1a.64.64 0 00-.55.49l-.2 1.16a.63.63 0 00.35.66l1.58.68a.27.27 0 01.13.18 6.49 6.49 0 00.16.88.26.26 0 01-.06.21l-1.26 1.19a.64.64 0 00-.11.74l.59 1a.63.63 0 00.69.27l1.65-.49a.24.24 0 01.23.06 6.13 6.13 0 00.68.56.25.25 0 01.09.2l-.2 1.72a.63.63 0 00.39.63l1.11.41a.64.64 0 00.7-.24l1-1.43a.26.26 0 01.21-.11h.88a.29.29 0 01.2.09l1 1.45a.65.65 0 00.71.24l1.11-.41a.63.63 0 00.39-.63l-.13-1.08h26.06a2.85 2.85 0 002.73-2.87zM77.29 151.81l1.11-.41a.63.63 0 00.39-.63l-.13-1.08h26.06a2.85 2.85 0 002.84-2.84v-6.2a2.85 2.85 0 00-2.84-2.84H80.86l-.06-.06-.9-.76a.63.63 0 00-.74 0l-1.14.84h-.2a2.72 2.72 0 00-.63.08c-.16-.06-.31-.12-.48-.17a.26.26 0 01-.15-.16l-.4-1.68a.63.63 0 00-.58-.46H74.4a.62.62 0 00-.58.46l-.4 1.67a.29.29 0 01-.17.17 6.34 6.34 0 00-.83.3.2.2 0 01-.21 0l-1.39-1a.6.6 0 00-.74 0l-.91.76a.64.64 0 00-.15.73l.77 1.53a.24.24 0 010 .23 4.51 4.51 0 00-.44.77.29.29 0 01-.18.13l-1.74.1a.64.64 0 00-.55.49l-.2 1.16a.63.63 0 00.35.66l1.58.68a.27.27 0 01.13.18 6.49 6.49 0 00.16.88.26.26 0 01-.06.21l-1.26 1.19a.62.62 0 00-.11.73l.59 1a.63.63 0 00.69.27l1.65-.49a.24.24 0 01.23.06 6.13 6.13 0 00.68.56.25.25 0 01.09.2l-.2 1.72a.63.63 0 00.39.63l1.11.41a.64.64 0 00.7-.24l1-1.43a.26.26 0 01.21-.11h.88a.29.29 0 01.2.09l1 1.45a.66.66 0 00.6.22zM72.42 99.91a.26.26 0 01-.21 0l-1.39-1a.6.6 0 00-.74 0l-.91.76a.64.64 0 00-.15.73l.77 1.53a.24.24 0 010 .23 4.51 4.51 0 00-.44.77.29.29 0 01-.18.13l-1.74.1a.64.64 0 00-.55.49l-.2 1.17a.62.62 0 00.35.65l1.58.68a.27.27 0 01.13.18 6.49 6.49 0 00.16.88.26.26 0 01-.06.21l-1.26 1.19a.64.64 0 00-.11.74l.59 1a.63.63 0 00.69.27l1.65-.49a.24.24 0 01.23.06 6.13 6.13 0 00.68.56.25.25 0 01.09.2l-.2 1.72a.63.63 0 00.39.63l1.11.41a.64.64 0 00.7-.24l1-1.43a.26.26 0 01.21-.11h.88a.26.26 0 01.2.1l1 1.44a.65.65 0 00.71.24l1.11-.41a.63.63 0 00.39-.63l-.13-1.08h26.06a2.85 2.85 0 002.84-2.84v-6.2a2.85 2.85 0 00-2.84-2.84h-24l-.06-.06-.9-.76a.63.63 0 00-.74 0l-1.16.8h-.2a2.72 2.72 0 00-.63.08c-.16-.06-.31-.12-.48-.17a.28.28 0 01-.15-.15l-.4-1.69a.63.63 0 00-.58-.46H74.4a.62.62 0 00-.58.46l-.4 1.67a.29.29 0 01-.17.17 6.39 6.39 0 00-.83.31zM226 183.88h-11.22a5.94 5.94 0 000 11.87H226a2.83 2.83 0 002.83-2.83v-6.21a2.83 2.83 0 00-2.83-2.83z" transform="translate(-5.09 -3.05)"/><path d="M231.23 181.29a6.85 6.85 0 001.09-.24 7.93 7.93 0 003-1.7l3.67 9.27a19.35 19.35 0 01-3 2.49 6.43 6.43 0 01-3.4 1.24 2.48 2.48 0 01-2.2-1.1c.56-.52 2-1.5 2.47-1.18s-.44 1.48-.44 1.48c1.3-1 1.34-1.58 1.24-1.86l-.33-.46m.2.27l-4.29-9.69a8.37 8.37 0 00-1-.05 11.29 11.29 0 00-3.16.46 10.64 10.64 0 00-3.81 2l4.64 11.82a26.43 26.43 0 013.59-3.18 6.62 6.62 0 013.36-1.46 1.8 1.8 0 01.65.1z" stroke-width=".25" stroke="#231f20" stroke-linejoin="round" fill="none"/><path class="cls-13" d="M240.43 182.4a7.93 7.93 0 01-3 1.7 6.85 6.85 0 01-1.09.24l2.41 8.4c.1.28.06.88-1.24 1.86 0 0 .9-1.15.44-1.48s-1.91.66-2.47 1.18a2.48 2.48 0 002.2 1.1 6.43 6.43 0 003.4-1.24 19.35 19.35 0 003-2.49z" transform="translate(-5.09 -3.05)"/><path class="cls-11" d="M241 193.84a19.32 19.32 0 002.77-2.25l-1.1-2.77a13.88 13.88 0 01-2.76 2zM241.4 185.72l-1.1-2.78a8.35 8.35 0 01-2.78 1.47l1.12 3.1a10.23 10.23 0 002.76-1.79zM239.86 190.86l-1.22-3.35a7.47 7.47 0 01-1.29.42l1 3.56a8.31 8.31 0 001.51-.63z" transform="translate(-5.09 -3.05)"/><path class="cls-13" d="M233.34 182.81a11.29 11.29 0 00-3.16.46 10.64 10.64 0 00-3.81 2l4.63 11.82a26.43 26.43 0 013.59-3.18 6.62 6.62 0 013.36-1.46 1.93 1.93 0 01.63.1l-4.29-9.69a8.37 8.37 0 00-1-.05z" transform="translate(-5.09 -3.05)"/><path class="cls-11" d="M233.34 183.14a11.22 11.22 0 00-3 .44l1.44 3.47a12.59 12.59 0 013.61-1l-1.28-2.88c-.18-.01-.44-.03-.77-.03zM233.22 190.58l1.26 3a6.62 6.62 0 013.52-1.48h.08l-1.27-2.87a8 8 0 00-3.59 1.35zM231.75 187.05a15.21 15.21 0 00-3.56 2l1.55 3.93a31.38 31.38 0 013.48-2.37z" transform="translate(-5.09 -3.05)"/><path stroke-width=".65" stroke="#231f20" stroke-linejoin="round" stroke-linecap="round" fill="none" d="M236.93 164.87v-4.79h-23.38"/><text transform="translate(213.39 156.69)" style="isolation:isolate" font-family="Helvetica" font-size="8.5" fill="#231f20">Boxes</text><text class="cls-20" transform="translate(6.32 189.79)">7</text><text class="cls-21" transform="translate(24.05 189.79)">295</text><text class="cls-20" transform="translate(76.99 189.79)">6</text><text class="cls-21" transform="translate(94.71 189.79)">220</text><text class="cls-20" transform="translate(127.32 189.79)">2</text><text class="cls-21" transform="translate(147.41 189.79)">90</text><text class="cls-20" transform="translate(262.11 189.79)">7</text><text class="cls-21" transform="translate(279.84 189.79)">295</text><text class="cls-20" transform="translate(262.11 133.61)">6</text><text class="cls-21" transform="translate(279.84 133.61)">270</text><text class="cls-20" transform="translate(119 148.92)">8</text><text class="cls-21" transform="translate(136.72 148.92)">350</text><text class="cls-20" transform="translate(170.5 154.11)">8</text><text class="cls-21" transform="translate(188.22 154.11)">340</text><text class="cls-20" transform="translate(6.32 11.61)">5</text><text class="cls-21" transform="translate(24.05 11.61)">200</text><text class="cls-20" transform="translate(89.15 11.61)">6</text><text class="cls-21" transform="translate(106.87 11.61)">270</text><text class="cls-20" transform="translate(108.75 70.61)">8</text><text class="cls-21" transform="translate(126.48 70.61)">305</text><text class="cls-20" transform="translate(159.87 70.61)">4</text><text class="cls-21" transform="translate(177.6 70.61)">220</text><text class="cls-20" transform="translate(210.99 70.61)">8</text><text class="cls-21" transform="translate(228.72 70.61)">310</text><text class="cls-20" transform="translate(262.11 70.61)">8</text><text class="cls-21" transform="translate(279.84 70.61)">325</text><text class="cls-20" transform="translate(159.87 91.61)">5</text><text class="cls-21" transform="translate(177.6 91.61)">240</text><text class="cls-20" transform="translate(210.99 91.61)">8</text><text class="cls-21" transform="translate(228.72 91.61)">320</text><text class="cls-20" transform="translate(262.11 91.61)">8</text><text class="cls-21" transform="translate(279.84 91.61)">340</text><text class="cls-20" transform="translate(146.05 11.61)">4</text><text class="cls-21" transform="translate(163.77 11.61)">185</text><text class="cls-20" transform="translate(202.95 11.61)">5</text><text class="cls-21" transform="translate(220.67 11.61)">230</text><text class="cls-20" transform="translate(6.32 166.17)">8</text><text class="cls-21" transform="translate(24.05 166.17)">325</text><text class="cls-20" transform="translate(13.06 124.67)">1</text><text class="cls-20" transform="translate(136.46 91.62)">2</text><text class="cls-20" transform="translate(6.32 105.61)">8</text><text class="cls-21" transform="translate(24.05 105.61)">330</text><text class="cls-20" transform="translate(67.5 124.67)">3</text><text class="cls-21" transform="translate(85.22 124.67)">130</text><text class="cls-20" transform="translate(67.5 143.73)">8</text><text class="cls-21" transform="translate(85.22 143.73)">340</text><text class="cls-20" transform="translate(67.5 105.61)">3</text><text class="cls-21" transform="translate(85.22 105.61)">150</text><text class="cls-20" transform="translate(216.42 189.8)">3</text><g class="cls-22"><text class="cls-23" transform="translate(0 28.85)">Curva di</text><text class="cls-23" transform="translate(0 37.35)">Lesmo</text></g><g class="cls-22"><text class="cls-23" transform="translate(17.75 141.76)">Curva</text><text class="cls-23" transform="translate(6.9 150.26)">Biassono</text></g><text class="cls-24" transform="translate(107.14 172.41)">1</text><text class="cls-24" transform="translate(105.92 150.74)">2</text><text class="cls-24" transform="translate(55.37 165.41)">3</text><text class="cls-24" transform="translate(53.53 81.63)">4</text><text class="cls-24" transform="translate(31.76 86.07)">5</text><text class="cls-24" transform="translate(41.53 45.74)">6</text><text class="cls-24" transform="translate(77.42 34.74)">7</text><text class="cls-24" transform="translate(128.31 135.41)">8</text><text class="cls-24" transform="translate(155.03 123.41)">9</text><text class="cls-24" transform="translate(155.91 147.74)">10</text><g class="cls-22"><text transform="translate(251.56 159.41)" style="isolation:isolate" letter-spacing="-.13em" font-size="7.5" font-family="Helvetica-Bold,Helvetica" font-weight="700" fill="#fff">1</text><text class="cls-24" transform="translate(254.72 159.41)">1</text></g></g></svg>