<svg id="Capa_1" data-name="Capa 1" xmlns="http://www.w3.org/2000/svg" width="297.02" height="194.11" viewBox="0 0 297.02 194.11"><defs><style>.cls-1,.cls-10,.cls-11,.cls-17,.cls-18,.cls-2,.cls-3,.cls-4,.cls-5,.cls-6,.cls-8,.cls-9{fill:none;}.cls-1,.cls-11,.cls-6{stroke:#fff;}.cls-1,.cls-10,.cls-11,.cls-17,.cls-2,.cls-3,.cls-4,.cls-8{stroke-linecap:round;}.cls-1,.cls-10,.cls-11,.cls-17,.cls-18,.cls-2,.cls-3,.cls-4,.cls-5,.cls-8{stroke-linejoin:round;}.cls-1{stroke-width:8px;}.cls-2,.cls-3{stroke:#00071b;}.cls-2,.cls-4,.cls-5{stroke-width:2.8px;}.cls-3{stroke-width:5.4px;}.cls-4{stroke:#8c92a1;}.cls-5{stroke:#fff100;}.cls-6{stroke-width:1.3px;}.cls-7{fill:#ea1a4d;}.cls-10,.cls-17,.cls-18,.cls-8,.cls-9{stroke:#231f20;}.cls-8{stroke-width:0.65px;}.cls-10{stroke-width:1.5px;}.cls-11,.cls-16,.cls-17{stroke-width:0.5px;}.cls-12,.cls-16,.cls-20,.cls-21,.cls-23{fill:#fff;}.cls-13{fill:#ffca05;}.cls-14,.cls-19{fill:#231f20;}.cls-15{fill:#007dc4;}.cls-16{stroke:#007dc4;}.cls-18{stroke-width:0.25px;}.cls-19,.cls-20,.cls-21,.cls-22,.cls-23{isolation:isolate;}.cls-19,.cls-20{font-size:8.5px;}.cls-19,.cls-20,.cls-21,.cls-23{font-family:Helvetica-Bold, Helvetica;font-weight:700;}.cls-21,.cls-23{font-size:7.5px;}.cls-21{letter-spacing:-0.08em;}.cls-23{letter-spacing:-0.13em;}</style></defs><g id="interlagos"><path class="cls-1" d="M121.63,29.54l115.78,38c27.15,9.41,40.12,33.31,23.65,53-2.9,3.46-5.54,6.91-2.4,11.43l6,7.55c10.76,11.72-9.85,15.92-7.84,15.51L150.38,174c-17.58,2.43-31.44-.94-48.27-6.6l-30.95-9.53a39.39,39.39,0,0,1-24.73-26.56l-6-27.24c-1.94-7.84-.6-9.57,1.91-15.74L47,78.15c3.28-7.73,6.81-11,16.48-4l28,22.06c6.55,5.53,12,18.79-2.64,32.33-8,6.62-14.8,11.79-14.8,11.79-6.59,5.18-3.41,10.77,7.41,9.23,23.7-2.58,16-9.71,30.88-16.89,17.52-9.73,21.8,7.25,13.38,15.84-7.38,7.51-5.72,13.87,9.16,13l17.72-2.45c21.26-2.75,22.64-24.56,7.2-38.12L111,80.15c-13.91-11.79-10.54-24.44-9-32.69C103.58,38.74,104.23,23.56,121.63,29.54Z" transform="translate(-5.4 -1.05)"/><path class="cls-2" d="M211.87,60.31S263.74,75,261.5,101.17c-1.54,17.94-16.8,22.28-8.38,32.87,5.36,6.73,11.4,14.13-2.69,16.66-23.51,4.2-63.34,11.34-94,16.72-5.93,1-10.29.88-13.54,1.43-13.56,2.3-23.75,3.13-47.5-4.87" transform="translate(-5.4 -1.05)"/><path class="cls-3" d="M121.63,29.54l115.78,38c27.15,9.41,40.12,33.31,23.65,53-2.9,3.46-5.54,6.91-2.4,11.43l6,7.55c10.76,11.72-9.85,15.92-7.84,15.51L150.38,174c-17.58,2.43-31.44-.94-48.27-6.6l-30.95-9.53a39.39,39.39,0,0,1-24.73-26.56l-6-27.24c-1.94-7.84-.6-9.57,1.91-15.74L47,78.15c3.28-7.73,6.81-11,16.48-4l28,22.06c6.55,5.53,12,18.79-2.64,32.33-8,6.62-14.8,11.79-14.8,11.79-6.59,5.18-3.41,10.77,7.41,9.23,23.7-2.58,16-9.71,30.88-16.89,17.52-9.73,21.8,7.25,13.38,15.84-7.38,7.51-5.72,13.87,9.16,13l17.72-2.45c21.26-2.75,22.64-24.56,7.2-38.12L111,80.15c-13.91-11.79-10.54-24.44-9-32.69C103.58,38.74,104.23,23.56,121.63,29.54Z" transform="translate(-5.4 -1.05)"/><path class="cls-4" d="M121.63,29.54l115.78,38c27.15,9.41,40.12,33.31,23.65,53-2.9,3.46-5.54,6.91-2.4,11.43l6,7.55c10.76,11.72-9.85,15.92-7.84,15.51L150.38,174c-17.58,2.43-31.44-.94-48.27-6.6l-30.95-9.53a39.39,39.39,0,0,1-24.73-26.56l-6-27.24c-1.94-7.84-.6-9.57,1.91-15.74L47,78.15c3.28-7.73,6.81-11,16.48-4l28,22.06c6.55,5.53,12,18.79-2.64,32.33-8,6.62-14.8,11.79-14.8,11.79-6.59,5.18-3.41,10.77,7.41,9.23,23.7-2.58,16-9.71,30.88-16.89,17.52-9.73,21.8,7.25,13.38,15.84-7.38,7.51-5.72,13.87,9.16,13l17.72-2.45c21.26-2.75,22.64-24.56,7.2-38.12L111,80.15c-13.91-11.79-10.54-24.44-9-32.69C103.58,38.74,104.23,23.56,121.63,29.54Z" transform="translate(-5.4 -1.05)"/><path class="cls-5" d="M256.84,154.94,150.38,174c-14.74,2-26.87,0-40.33-4.06" transform="translate(-5.4 -1.05)"/><line class="cls-5" x1="116.23" y1="28.49" x2="232.01" y2="66.45"/><rect class="cls-6" x="266.8" y="137.68" width="9.61" height="9.61" rx="2.29"/><rect class="cls-7" x="266.8" y="137.68" width="9.61" height="9.61" rx="2.29"/><rect class="cls-6" x="260.63" y="118.35" width="9.61" height="9.61" rx="2.29"/><rect class="cls-7" x="260.63" y="118.35" width="9.61" height="9.61" rx="2.29"/><rect class="cls-6" x="267.13" y="91.35" width="9.61" height="9.61" rx="2.29"/><rect class="cls-7" x="267.13" y="91.35" width="9.61" height="9.61" rx="2.29"/><rect class="cls-6" x="94.3" y="15.02" width="9.61" height="9.61" rx="2.29"/><rect class="cls-7" x="94.3" y="15.02" width="9.61" height="9.61" rx="2.29"/><rect class="cls-6" x="83.8" y="68.02" width="9.61" height="9.61" rx="2.29"/><rect class="cls-7" x="83.8" y="68.02" width="9.61" height="9.61" rx="2.29"/><rect class="cls-6" x="146.3" y="126.02" width="9.61" height="9.61" rx="2.29"/><rect class="cls-7" x="146.3" y="126.02" width="9.61" height="9.61" rx="2.29"/><rect class="cls-6" x="144.13" y="143.02" width="9.61" height="9.61" rx="2.29"/><rect class="cls-7" x="144.13" y="143.02" width="9.61" height="9.61" rx="2.29"/><rect class="cls-6" x="122.96" y="147.35" width="9.61" height="9.61" rx="2.29"/><rect class="cls-7" x="122.96" y="147.35" width="9.61" height="9.61" rx="2.29"/><rect class="cls-6" x="110.13" y="134.02" width="9.61" height="9.61" rx="2.29"/><rect class="cls-7" x="110.13" y="134.02" width="9.61" height="9.61" rx="2.29"/><rect class="cls-6" x="75.96" y="135.68" width="9.61" height="9.61" rx="2.29"/><rect class="cls-7" x="75.96" y="135.68" width="9.61" height="9.61" rx="2.29"/><rect class="cls-6" x="96.13" y="95.02" width="9.61" height="9.61" rx="2.29"/><rect class="cls-7" x="96.13" y="95.02" width="9.61" height="9.61" rx="2.29"/><rect class="cls-6" x="46.3" y="75.68" width="9.61" height="9.61" rx="2.29"/><rect class="cls-7" x="46.3" y="75.68" width="9.61" height="9.61" rx="2.29"/><rect class="cls-6" x="39.13" y="92.35" width="9.61" height="9.61" rx="2.29"/><rect class="cls-7" x="39.13" y="92.35" width="9.61" height="9.61" rx="2.29"/><rect class="cls-6" x="34.96" y="145.02" width="9.61" height="9.61" rx="2.29"/><rect class="cls-7" x="34.96" y="145.02" width="9.61" height="9.61" rx="2.29"/><rect class="cls-6" x="124.13" y="178.35" width="9.61" height="9.61" rx="2.29"/><rect class="cls-7" x="124.13" y="178.35" width="9.61" height="9.61" rx="2.29"/><line class="cls-8" x1="250.21" y1="145.86" x2="224.83" y2="145.86"/><path class="cls-9" d="M190.29,53.47a1.42,1.42,0,1,0-1.42-1.42h0A1.43,1.43,0,0,0,190.29,53.47Z" transform="translate(-5.4 -1.05)"/><line class="cls-10" x1="184.89" y1="51" x2="184.89" y2="8.59"/><line class="cls-11" x1="184.89" y1="51" x2="184.89" y2="8.59"/><path class="cls-12" d="M190.29,53.47a1.42,1.42,0,1,0-1.42-1.42h0A1.43,1.43,0,0,0,190.29,53.47Z" transform="translate(-5.4 -1.05)"/><path class="cls-9" d="M153,41.24a1.42,1.42,0,1,0-1.42-1.42h0A1.41,1.41,0,0,0,153,41.24Z" transform="translate(-5.4 -1.05)"/><polyline class="cls-10" points="147.6 38.78 147.6 28.43 162.78 28.43"/><polyline class="cls-11" points="147.6 38.78 147.6 28.43 162.78 28.43"/><path class="cls-12" d="M153,41.24a1.42,1.42,0,1,0-1.42-1.42h0A1.41,1.41,0,0,0,153,41.24Z" transform="translate(-5.4 -1.05)"/><path class="cls-9" d="M146.68,111.45a1.42,1.42,0,1,0-1.42-1.42h0A1.44,1.44,0,0,0,146.68,111.45Z" transform="translate(-5.4 -1.05)"/><polyline class="cls-10" points="141.28 108.98 141.28 89.03 165.98 89.03"/><polyline class="cls-11" points="141.28 108.98 141.28 89.03 165.98 89.03"/><path class="cls-12" d="M146.68,111.45a1.42,1.42,0,1,0-1.42-1.42h0A1.44,1.44,0,0,0,146.68,111.45Z" transform="translate(-5.4 -1.05)"/><path class="cls-9" d="M111,81.56a1.42,1.42,0,1,0-1.42-1.42h0A1.42,1.42,0,0,0,111,81.56Z" transform="translate(-5.4 -1.05)"/><polyline class="cls-10" points="105.56 79.1 105.56 71.76 119.59 71.76"/><polyline class="cls-11" points="105.56 79.1 105.56 71.76 119.59 71.76"/><path class="cls-12" d="M111,81.56a1.42,1.42,0,1,0-1.42-1.42h0A1.42,1.42,0,0,0,111,81.56Z" transform="translate(-5.4 -1.05)"/><path class="cls-9" d="M163,126a1.42,1.42,0,1,0,1.42-1.42h0A1.43,1.43,0,0,0,163,126Z" transform="translate(-5.4 -1.05)"/><polyline class="cls-10" points="159.02 124.91 165.98 124.91 165.98 111.93"/><polyline class="cls-11" points="159.02 124.91 165.98 124.91 165.98 111.93"/><path class="cls-12" d="M163,126a1.42,1.42,0,1,0,1.42-1.42h0A1.43,1.43,0,0,0,163,126Z" transform="translate(-5.4 -1.05)"/><path class="cls-9" d="M167.56,147.7a1.42,1.42,0,1,0,1.43-1.41h0a1.41,1.41,0,0,0-1.41,1.41Z" transform="translate(-5.4 -1.05)"/><polyline class="cls-10" points="163.57 146.65 172.2 146.65 172.2 139.93 185.95 139.93"/><polyline class="cls-11" points="163.57 146.65 172.2 146.65 172.2 139.93 185.95 139.93"/><path class="cls-12" d="M167.56,147.7a1.42,1.42,0,1,0,1.43-1.41h0a1.41,1.41,0,0,0-1.41,1.41Z" transform="translate(-5.4 -1.05)"/><path class="cls-9" d="M260.54,84.21A1.42,1.42,0,1,0,262,82.79a1.41,1.41,0,0,0-1.46,1.36Z" transform="translate(-5.4 -1.05)"/><polyline class="cls-10" points="256.55 83.16 264.2 83.16 264.2 66.13"/><polyline class="cls-11" points="256.55 83.16 264.2 83.16 264.2 66.13"/><path class="cls-12" d="M260.54,84.21A1.42,1.42,0,1,0,262,82.79a1.41,1.41,0,0,0-1.46,1.36Z" transform="translate(-5.4 -1.05)"/><path class="cls-9" d="M256.5,130.3a1.42,1.42,0,1,0,1.42-1.42A1.43,1.43,0,0,0,256.5,130.3Z" transform="translate(-5.4 -1.05)"/><line class="cls-10" x1="252.52" y1="129.25" x2="290.79" y2="129.25"/><line class="cls-11" x1="252.52" y1="129.25" x2="290.79" y2="129.25"/><path class="cls-12" d="M256.5,130.3a1.42,1.42,0,1,0,1.42-1.42A1.43,1.43,0,0,0,256.5,130.3Z" transform="translate(-5.4 -1.05)"/><path class="cls-9" d="M264,150.78a1.42,1.42,0,1,0,1.42-1.42h0a1.41,1.41,0,0,0-1.41,1.41Z" transform="translate(-5.4 -1.05)"/><polyline class="cls-10" points="260.01 149.73 292.19 149.73 292.19 162.83"/><polyline class="cls-11" points="260.01 149.73 292.19 149.73 292.19 162.83"/><path class="cls-12" d="M264,150.78a1.42,1.42,0,1,0,1.42-1.42h0a1.41,1.41,0,0,0-1.41,1.41Z" transform="translate(-5.4 -1.05)"/><path class="cls-9" d="M40.82,96.44A1.42,1.42,0,1,1,39.4,95a1.43,1.43,0,0,1,1.42,1.44Z" transform="translate(-5.4 -1.05)"/><polyline class="cls-10" points="34 95.39 8.6 95.39 8.6 58.83"/><polyline class="cls-11" points="34 95.39 8.6 95.39 8.6 58.83"/><path class="cls-12" d="M40.82,96.44A1.42,1.42,0,1,1,39.4,95a1.43,1.43,0,0,1,1.42,1.44Z" transform="translate(-5.4 -1.05)"/><path class="cls-9" d="M41.66,104.2a1.42,1.42,0,1,1-1.42-1.42h0A1.43,1.43,0,0,1,41.66,104.2Z" transform="translate(-5.4 -1.05)"/><line class="cls-10" x1="34.84" y1="103.15" x2="14.21" y2="103.15"/><line class="cls-11" x1="34.84" y1="103.15" x2="14.21" y2="103.15"/><path class="cls-12" d="M41.66,104.2a1.42,1.42,0,1,1-1.42-1.42h0A1.43,1.43,0,0,1,41.66,104.2Z" transform="translate(-5.4 -1.05)"/><path class="cls-9" d="M47.32,128.93a1.42,1.42,0,1,1-1.42-1.42h0A1.43,1.43,0,0,1,47.32,128.93Z" transform="translate(-5.4 -1.05)"/><polyline class="cls-10" points="40.5 127.88 26.97 127.88 26.97 162.83"/><polyline class="cls-11" points="40.5 127.88 26.97 127.88 26.97 162.83"/><path class="cls-12" d="M47.32,128.93a1.42,1.42,0,1,1-1.42-1.42h0A1.43,1.43,0,0,1,47.32,128.93Z" transform="translate(-5.4 -1.05)"/><path class="cls-9" d="M63.93,153.49a1.42,1.42,0,1,1-1.42-1.42h0A1.43,1.43,0,0,1,63.93,153.49Z" transform="translate(-5.4 -1.05)"/><polyline class="cls-10" points="57.12 152.44 46.76 152.44 46.76 185.72 36.45 185.72"/><polyline class="cls-11" points="57.12 152.44 46.76 152.44 46.76 185.72 36.45 185.72"/><path class="cls-12" d="M63.93,153.49a1.42,1.42,0,1,1-1.42-1.42h0A1.43,1.43,0,0,1,63.93,153.49Z" transform="translate(-5.4 -1.05)"/><path class="cls-9" d="M96.25,165.2a1.42,1.42,0,1,1-1.42-1.42h0A1.42,1.42,0,0,1,96.25,165.2Z" transform="translate(-5.4 -1.05)"/><polyline class="cls-10" points="89.44 164.15 59.98 164.15 59.98 185.72"/><polyline class="cls-11" points="89.44 164.15 59.98 164.15 59.98 185.72"/><path class="cls-12" d="M96.25,165.2a1.42,1.42,0,1,1-1.42-1.42h0A1.42,1.42,0,0,1,96.25,165.2Z" transform="translate(-5.4 -1.05)"/><path class="cls-9" d="M95.29,122.71a1.42,1.42,0,1,1-1.42-1.42h0A1.44,1.44,0,0,1,95.29,122.71Z" transform="translate(-5.4 -1.05)"/><polyline class="cls-10" points="88.47 121.66 78.94 121.66 78.94 111.09"/><polyline class="cls-11" points="88.47 121.66 78.94 121.66 78.94 111.09"/><path class="cls-12" d="M95.29,122.71a1.42,1.42,0,1,1-1.42-1.42h0A1.44,1.44,0,0,1,95.29,122.71Z" transform="translate(-5.4 -1.05)"/><path class="cls-9" d="M267.17,113.2a1.42,1.42,0,1,1-1.43-1.41h0a1.41,1.41,0,0,1,1.41,1.41Z" transform="translate(-5.4 -1.05)"/><line class="cls-10" x1="260.36" y1="112.15" x2="239.2" y2="112.15"/><line class="cls-11" x1="260.36" y1="112.15" x2="239.2" y2="112.15"/><path class="cls-12" d="M267.17,113.2a1.42,1.42,0,1,1-1.43-1.41h0a1.41,1.41,0,0,1,1.41,1.41Z" transform="translate(-5.4 -1.05)"/><path class="cls-9" d="M142.2,37.7a1.42,1.42,0,1,0-1.42-1.42h0A1.42,1.42,0,0,0,142.2,37.7Z" transform="translate(-5.4 -1.05)"/><line class="cls-10" x1="136.8" y1="35.24" x2="136.8" y2="14.36"/><line class="cls-11" x1="136.8" y1="35.24" x2="136.8" y2="14.36"/><path class="cls-12" d="M142.2,37.7a1.42,1.42,0,1,0-1.42-1.42h0A1.42,1.42,0,0,0,142.2,37.7Z" transform="translate(-5.4 -1.05)"/><path class="cls-9" d="M102.73,44.19a1.42,1.42,0,1,0-1.42-1.42h0a1.41,1.41,0,0,0,1.41,1.41Z" transform="translate(-5.4 -1.05)"/><polyline class="cls-10" points="97.33 41.73 97.33 35.93 87.79 35.93"/><polyline class="cls-11" points="97.33 41.73 97.33 35.93 87.79 35.93"/><path class="cls-12" d="M102.73,44.19a1.42,1.42,0,1,0-1.42-1.42h0a1.41,1.41,0,0,0,1.41,1.41Z" transform="translate(-5.4 -1.05)"/><path class="cls-9" d="M129.78,138.86a1.42,1.42,0,0,0,0-2.83,1.42,1.42,0,0,0-.24,2.83Z" transform="translate(-5.4 -1.05)"/><line class="cls-10" x1="124.38" y1="136.4" x2="124.38" y2="116.34"/><line class="cls-11" x1="124.38" y1="136.4" x2="124.38" y2="116.34"/><path class="cls-12" d="M129.78,138.86a1.42,1.42,0,0,0,0-2.83,1.42,1.42,0,0,0-.24,2.83Z" transform="translate(-5.4 -1.05)"/><path class="cls-9" d="M74.34,84.33a1.42,1.42,0,1,0-1.41-1.43v0a1.41,1.41,0,0,0,1.41,1.41Z" transform="translate(-5.4 -1.05)"/><line class="cls-10" x1="68.94" y1="81.87" x2="68.94" y2="58.82"/><line class="cls-11" x1="68.94" y1="81.87" x2="68.94" y2="58.82"/><path class="cls-12" d="M74.34,84.33a1.42,1.42,0,1,0-1.41-1.43v0a1.41,1.41,0,0,0,1.41,1.41Z" transform="translate(-5.4 -1.05)"/><path class="cls-9" d="M160.23,171a1.42,1.42,0,1,1-1.42,1.42h0a1.41,1.41,0,0,1,1.41-1.41Z" transform="translate(-5.4 -1.05)"/><line class="cls-10" x1="154.83" y1="171.33" x2="154.83" y2="185.72"/><line class="cls-11" x1="154.83" y1="171.33" x2="154.83" y2="185.72"/><path class="cls-12" d="M160.23,171a1.42,1.42,0,1,1-1.42,1.42h0a1.41,1.41,0,0,1,1.41-1.41Z" transform="translate(-5.4 -1.05)"/><path class="cls-9" d="M112.48,26.94a1.42,1.42,0,1,1-1.42,1.42h0A1.44,1.44,0,0,1,112.48,26.94Z" transform="translate(-5.4 -1.05)"/><polyline class="cls-10" points="107.08 27.31 107.08 51.71 119.59 51.71"/><polyline class="cls-11" points="107.08 27.31 107.08 51.71 119.59 51.71"/><path class="cls-12" d="M112.48,26.94a1.42,1.42,0,1,1-1.42,1.42h0A1.44,1.44,0,0,1,112.48,26.94Z" transform="translate(-5.4 -1.05)"/><path class="cls-9" d="M197.66,164.26a1.42,1.42,0,1,1-1.42,1.42h0A1.44,1.44,0,0,1,197.66,164.26Z" transform="translate(-5.4 -1.05)"/><polyline class="cls-10" points="192.26 164.63 192.26 185.72 210.01 185.72"/><polyline class="cls-11" points="192.26 164.63 192.26 185.72 210.01 185.72"/><path class="cls-12" d="M197.66,164.26a1.42,1.42,0,1,1-1.42,1.42h0A1.44,1.44,0,0,1,197.66,164.26Z" transform="translate(-5.4 -1.05)"/><path class="cls-9" d="M223,159.73a1.42,1.42,0,1,1-1.42,1.42h0a1.41,1.41,0,0,1,1.41-1.41Z" transform="translate(-5.4 -1.05)"/><polyline class="cls-10" points="217.61 160.09 217.61 173.77 264.2 173.77 264.2 185.72"/><polyline class="cls-11" points="217.61 160.09 217.61 173.77 264.2 173.77 264.2 185.72"/><path class="cls-12" d="M223,159.73a1.42,1.42,0,1,1-1.42,1.42h0a1.41,1.41,0,0,1,1.41-1.41Z" transform="translate(-5.4 -1.05)"/><path class="cls-9" d="M216.85,59.23a1.42,1.42,0,1,1-1.42,1.42h0A1.42,1.42,0,0,1,216.85,59.23Z" transform="translate(-5.4 -1.05)"/><line class="cls-10" x1="211.45" y1="59.59" x2="211.45" y2="89.03"/><line class="cls-11" x1="211.45" y1="59.59" x2="211.45" y2="89.03"/><path class="cls-12" d="M216.85,59.23a1.42,1.42,0,1,1-1.42,1.42h0A1.42,1.42,0,0,1,216.85,59.23Z" transform="translate(-5.4 -1.05)"/><path class="cls-9" d="M51.61,72.63a1.42,1.42,0,1,0-1.42-1.42h0a1.41,1.41,0,0,0,1.41,1.41Z" transform="translate(-5.4 -1.05)"/><polyline class="cls-10" points="46.21 70.17 46.21 35.93 36.45 35.93"/><polyline class="cls-11" points="46.21 70.17 46.21 35.93 36.45 35.93"/><path class="cls-12" d="M51.61,72.63a1.42,1.42,0,1,0-1.42-1.42h0a1.41,1.41,0,0,0,1.41,1.41Z" transform="translate(-5.4 -1.05)"/><rect class="cls-13" x="8.6" y="100.19" width="11.87" height="11.87" rx="2.83"/><polygon class="cls-14" points="10.87 107.82 10.24 110.22 18.84 110.22 18.21 107.82 10.87 107.82"/><polygon class="cls-14" points="11.54 102 10.24 106.92 18.84 106.92 17.54 102 11.54 102"/><rect class="cls-13" x="284.9" y="123.32" width="11.87" height="11.87" rx="2.83"/><polygon class="cls-14" points="287.17 130.95 286.54 133.35 295.14 133.35 294.5 130.95 287.17 130.95"/><polygon class="cls-14" points="287.84 125.13 286.54 130.05 295.14 130.05 293.84 125.13 287.84 125.13"/><rect class="cls-14" x="51.02" y="105.15" width="32.57" height="11.87" rx="2.83"/><polygon class="cls-12" points="65.87 108.78 64.42 108.78 64.57 108.1 66.02 108.1 65.87 108.78"/><polygon class="cls-12" points="65.5 110.56 63.1 110.56 63.24 109.87 65.64 109.87 65.5 110.56"/><polygon class="cls-12" points="65.12 112.34 61.77 112.34 61.92 111.65 65.27 111.65 65.12 112.34"/><polygon class="cls-12" points="64.75 114.12 60.45 114.12 60.6 113.43 64.89 113.43 64.75 114.12"/><path class="cls-15" d="M54.69,106.11a6.34,6.34,0,0,0-.83.3.28.28,0,0,1-.22,0l-1.39-1a.63.63,0,0,0-.74,0l-.91.76a.63.63,0,0,0-.15.72l.77,1.54a.22.22,0,0,1,0,.22,7.44,7.44,0,0,0-.44.78.27.27,0,0,1-.18.13l-1.73.1a.63.63,0,0,0-.56.49l-.2,1.16a.61.61,0,0,0,.35.65l1.58.69a.28.28,0,0,1,.14.18,6.6,6.6,0,0,0,.15.87.28.28,0,0,1,0,.22L49,115.08a.62.62,0,0,0-.11.73l.59,1a.63.63,0,0,0,.69.28l1.65-.49a.31.31,0,0,1,.23,0c.21.2.44.39.67.57a.25.25,0,0,1,.09.2l-.2,1.72a.63.63,0,0,0,.39.63l1.11.4a.63.63,0,0,0,.71-.23l.94-1.44a.28.28,0,0,1,.21-.1h.88a.22.22,0,0,1,.2.09L58,120a.62.62,0,0,0,.7.23l1.11-.4a.63.63,0,0,0,.39-.63l-.2-1.71a.31.31,0,0,1,.09-.22,6.13,6.13,0,0,0,.68-.56.26.26,0,0,1,.21-.06l1.66.5a.63.63,0,0,0,.69-.28l.59-1a.62.62,0,0,0-.1-.73L62.57,114a.25.25,0,0,1-.07-.23,6.49,6.49,0,0,0,.16-.88.26.26,0,0,1,.12-.17l1.59-.69a.61.61,0,0,0,.35-.65l-.2-1.16a.63.63,0,0,0-.56-.49l-1.71-.1a.32.32,0,0,1-.2-.14,5.35,5.35,0,0,0-.45-.77.26.26,0,0,1,0-.21l.78-1.55a.63.63,0,0,0-.15-.72l-.91-.76a.63.63,0,0,0-.74,0l-1.38,1a.24.24,0,0,1-.23,0,6.34,6.34,0,0,0-.83-.3A.32.32,0,0,1,58,106l-.41-1.69a.63.63,0,0,0-.58-.46H55.83a.63.63,0,0,0-.58.46l-.4,1.68A.28.28,0,0,1,54.69,106.11Z" transform="translate(-5.4 -1.05)"/><path class="cls-16" d="M56.42,107.07a5.07,5.07,0,1,0,5.07,5.07h0A5.07,5.07,0,0,0,56.42,107.07Z" transform="translate(-5.4 -1.05)"/><rect class="cls-14" x="8.6" y="179.79" width="32.57" height="11.87" rx="2.83"/><polygon class="cls-12" points="23.45 183.42 22 183.42 22.15 182.73 23.6 182.73 23.45 183.42"/><polygon class="cls-12" points="23.08 185.2 20.68 185.2 20.82 184.51 23.22 184.51 23.08 185.2"/><polygon class="cls-12" points="22.7 186.98 19.35 186.98 19.5 186.29 22.85 186.29 22.7 186.98"/><polygon class="cls-12" points="22.33 188.75 18.03 188.75 18.18 188.07 22.47 188.07 22.33 188.75"/><path class="cls-15" d="M12.27,180.74a8.29,8.29,0,0,0-.83.31.41.41,0,0,1-.22,0l-1.39-1a.66.66,0,0,0-.74,0l-.91.76a.65.65,0,0,0-.15.73L8.8,183a.22.22,0,0,1,0,.22,7.44,7.44,0,0,0-.44.78.28.28,0,0,1-.18.12l-1.73.1a.65.65,0,0,0-.56.5l-.2,1.16a.61.61,0,0,0,.35.65l1.58.68a.28.28,0,0,1,.14.18,6.47,6.47,0,0,0,.15.88.23.23,0,0,1,0,.21l-1.26,1.2a.62.62,0,0,0-.11.73l.59,1a.6.6,0,0,0,.69.27l1.65-.49a.27.27,0,0,1,.23.06,6,6,0,0,0,.67.56.25.25,0,0,1,.09.2l-.2,1.73a.63.63,0,0,0,.39.63l1.11.4a.63.63,0,0,0,.71-.23l.94-1.44a.25.25,0,0,1,.21-.1h.88a.26.26,0,0,1,.2.1l1,1.45a.63.63,0,0,0,.7.23l1.11-.4a.63.63,0,0,0,.39-.63l-.2-1.71a.31.31,0,0,1,.09-.22,5.27,5.27,0,0,0,.68-.57.27.27,0,0,1,.21-.05l1.66.49a.63.63,0,0,0,.69-.27l.59-1a.64.64,0,0,0-.1-.74l-1.25-1.18a.23.23,0,0,1-.07-.22,6.49,6.49,0,0,0,.16-.88.26.26,0,0,1,.12-.17l1.59-.69a.62.62,0,0,0,.35-.65l-.2-1.16a.65.65,0,0,0-.56-.5l-1.71-.1a.28.28,0,0,1-.2-.13,5.35,5.35,0,0,0-.45-.77.26.26,0,0,1,0-.21L20,181.5a.65.65,0,0,0-.15-.73l-.91-.76a.66.66,0,0,0-.74,0l-1.38,1a.31.31,0,0,1-.23,0c-.27-.11-.55-.21-.83-.3a.23.23,0,0,1-.15-.15l-.41-1.69a.63.63,0,0,0-.58-.46H13.41a.63.63,0,0,0-.58.46l-.4,1.67A.24.24,0,0,1,12.27,180.74Z" transform="translate(-5.4 -1.05)"/><path class="cls-16" d="M14,181.7a5.07,5.07,0,1,0,5.07,5.07A5.07,5.07,0,0,0,14,181.7Z" transform="translate(-5.4 -1.05)"/><rect class="cls-14" x="8.6" y="156.89" width="32.57" height="11.87" rx="2.83"/><polygon class="cls-12" points="23.45 160.52 22 160.52 22.15 159.84 23.6 159.84 23.45 160.52"/><polygon class="cls-12" points="23.08 162.3 20.68 162.3 20.82 161.61 23.22 161.61 23.08 162.3"/><polygon class="cls-12" points="22.7 164.08 19.35 164.08 19.5 163.39 22.85 163.39 22.7 164.08"/><polygon class="cls-12" points="22.33 165.85 18.03 165.85 18.18 165.17 22.47 165.17 22.33 165.85"/><path class="cls-15" d="M12.27,157.85a6.34,6.34,0,0,0-.83.3.28.28,0,0,1-.22,0l-1.39-1a.66.66,0,0,0-.74,0l-.91.76a.65.65,0,0,0-.15.73l.77,1.54a.22.22,0,0,1,0,.22,7.44,7.44,0,0,0-.44.78.28.28,0,0,1-.18.12l-1.73.11a.63.63,0,0,0-.56.49L5.68,163a.61.61,0,0,0,.35.65l1.58.69a.26.26,0,0,1,.14.17,6.47,6.47,0,0,0,.15.88.23.23,0,0,1-.05.21l-1.26,1.2a.62.62,0,0,0-.11.73l.59,1a.6.6,0,0,0,.69.27l1.65-.49a.32.32,0,0,1,.23.06,6,6,0,0,0,.67.56.25.25,0,0,1,.09.2l-.2,1.73a.63.63,0,0,0,.39.63l1.11.4a.63.63,0,0,0,.71-.23l.94-1.44a.25.25,0,0,1,.21-.1h.88a.26.26,0,0,1,.2.1l1,1.45a.62.62,0,0,0,.7.23l1.11-.4a.63.63,0,0,0,.39-.63l-.2-1.71a.31.31,0,0,1,.09-.22,6.13,6.13,0,0,0,.68-.56.26.26,0,0,1,.21-.06l1.66.49a.6.6,0,0,0,.69-.27l.59-1a.62.62,0,0,0-.1-.73l-1.25-1.19a.23.23,0,0,1-.07-.22,6.49,6.49,0,0,0,.16-.88.26.26,0,0,1,.12-.17l1.59-.69a.61.61,0,0,0,.35-.65l-.2-1.16a.65.65,0,0,0-.56-.5l-1.71-.1a.28.28,0,0,1-.2-.13,5.35,5.35,0,0,0-.45-.77.26.26,0,0,1,0-.21L20,158.6a.65.65,0,0,0-.15-.73l-.91-.76a.66.66,0,0,0-.74,0l-1.38,1a.31.31,0,0,1-.23,0,8.29,8.29,0,0,0-.83-.31.23.23,0,0,1-.15-.15L15.17,156a.63.63,0,0,0-.58-.46H13.41a.63.63,0,0,0-.58.46l-.4,1.68A.25.25,0,0,1,12.27,157.85Z" transform="translate(-5.4 -1.05)"/><path class="cls-16" d="M14,158.8a5.08,5.08,0,1,0,5.07,5.09v0A5.07,5.07,0,0,0,14,158.8Z" transform="translate(-5.4 -1.05)"/><rect class="cls-14" x="8.6" y="52.89" width="32.57" height="11.87" rx="2.83"/><polygon class="cls-12" points="23.45 56.52 22 56.52 22.15 55.84 23.6 55.84 23.45 56.52"/><polygon class="cls-12" points="23.08 58.3 20.68 58.3 20.82 57.61 23.22 57.61 23.08 58.3"/><polygon class="cls-12" points="22.7 60.08 19.35 60.08 19.5 59.39 22.85 59.39 22.7 60.08"/><polygon class="cls-12" points="22.33 61.85 18.03 61.85 18.18 61.17 22.47 61.17 22.33 61.85"/><path class="cls-15" d="M12.27,53.85a6.34,6.34,0,0,0-.83.3.28.28,0,0,1-.22,0l-1.39-1a.66.66,0,0,0-.74,0l-.91.76A.65.65,0,0,0,8,54.6l.77,1.54a.22.22,0,0,1,0,.22,7.44,7.44,0,0,0-.44.78.28.28,0,0,1-.18.12l-1.73.11a.63.63,0,0,0-.56.49L5.68,59a.61.61,0,0,0,.35.65l1.58.69a.26.26,0,0,1,.14.17,6.47,6.47,0,0,0,.15.88.23.23,0,0,1-.05.21L6.59,62.8a.62.62,0,0,0-.11.73l.59,1a.6.6,0,0,0,.69.27l1.65-.49a.32.32,0,0,1,.23.06,6,6,0,0,0,.67.56.25.25,0,0,1,.09.2l-.2,1.73a.63.63,0,0,0,.39.63l1.11.4a.63.63,0,0,0,.71-.23l.94-1.44a.25.25,0,0,1,.21-.1h.88a.26.26,0,0,1,.2.1l1,1.45a.62.62,0,0,0,.7.23l1.11-.4a.63.63,0,0,0,.39-.63l-.2-1.71a.31.31,0,0,1,.09-.22,6.13,6.13,0,0,0,.68-.56.26.26,0,0,1,.21-.06l1.66.49a.6.6,0,0,0,.69-.27l.59-1a.62.62,0,0,0-.1-.73l-1.25-1.19a.23.23,0,0,1-.07-.22,6.49,6.49,0,0,0,.16-.88.26.26,0,0,1,.12-.17L22,59.67a.61.61,0,0,0,.35-.65l-.2-1.16a.65.65,0,0,0-.56-.5l-1.71-.1a.28.28,0,0,1-.2-.13,5.35,5.35,0,0,0-.45-.77.26.26,0,0,1,0-.21L20,54.6a.65.65,0,0,0-.15-.73l-.91-.76a.66.66,0,0,0-.74,0l-1.38,1a.31.31,0,0,1-.23,0,8.29,8.29,0,0,0-.83-.31.23.23,0,0,1-.15-.15L15.17,52a.63.63,0,0,0-.58-.46H13.41a.63.63,0,0,0-.58.46l-.4,1.68A.25.25,0,0,1,12.27,53.85Z" transform="translate(-5.4 -1.05)"/><path class="cls-16" d="M14,54.8a5.08,5.08,0,1,0,5.07,5.09v0A5.07,5.07,0,0,0,14,54.8Z" transform="translate(-5.4 -1.05)"/><rect class="cls-14" x="8.6" y="29.99" width="32.57" height="11.87" rx="2.83"/><polygon class="cls-12" points="23.45 33.62 22 33.62 22.15 32.94 23.6 32.94 23.45 33.62"/><polygon class="cls-12" points="23.08 35.4 20.68 35.4 20.82 34.72 23.22 34.72 23.08 35.4"/><polygon class="cls-12" points="22.7 37.18 19.35 37.18 19.5 36.49 22.85 36.49 22.7 37.18"/><polygon class="cls-12" points="22.33 38.96 18.03 38.96 18.18 38.27 22.47 38.27 22.33 38.96"/><path class="cls-15" d="M12.27,31a6.34,6.34,0,0,0-.83.3.28.28,0,0,1-.22,0l-1.39-1a.63.63,0,0,0-.74,0l-.91.7a.64.64,0,0,0-.18.7l.77,1.54a.22.22,0,0,1,0,.22,7.44,7.44,0,0,0-.44.78.23.23,0,0,1-.18.12l-1.73.11a.63.63,0,0,0-.56.49l-.2,1.16a.61.61,0,0,0,.35.65l1.58.69a.28.28,0,0,1,.14.18,6.6,6.6,0,0,0,.15.87.25.25,0,0,1,0,.22L6.59,39.92a.62.62,0,0,0-.11.73l.59,1a.63.63,0,0,0,.69.28l1.65-.49a.31.31,0,0,1,.23,0c.21.2.44.39.67.57a.25.25,0,0,1,.09.2L10.2,44a.63.63,0,0,0,.39.63l1.11.4a.63.63,0,0,0,.71-.23l.94-1.44a.28.28,0,0,1,.21-.1h.88a.22.22,0,0,1,.2.09l1,1.45a.62.62,0,0,0,.7.23l1.11-.4A.63.63,0,0,0,17.8,44l-.2-1.71a.31.31,0,0,1,.09-.22,6.13,6.13,0,0,0,.68-.56.26.26,0,0,1,.21-.06l1.66.5a.63.63,0,0,0,.69-.28l.59-1a.62.62,0,0,0-.1-.73l-1.25-1.18a.25.25,0,0,1-.07-.23,6.49,6.49,0,0,0,.16-.88.26.26,0,0,1,.12-.17L22,36.77a.61.61,0,0,0,.35-.65L22.12,35a.63.63,0,0,0-.56-.49l-1.71-.11a.28.28,0,0,1-.2-.13,5.35,5.35,0,0,0-.45-.77.26.26,0,0,1,0-.21L20,31.7a.63.63,0,0,0-.15-.72l-.91-.76a.63.63,0,0,0-.74,0l-1.38,1a.24.24,0,0,1-.23,0,6.34,6.34,0,0,0-.83-.3.26.26,0,0,1-.15-.16l-.41-1.69a.63.63,0,0,0-.58-.46H13.41a.63.63,0,0,0-.58.46l-.4,1.68A.26.26,0,0,1,12.27,31Z" transform="translate(-5.4 -1.05)"/><path class="cls-16" d="M14,31.91A5.07,5.07,0,1,0,19.07,37,5.07,5.07,0,0,0,14,31.91Z" transform="translate(-5.4 -1.05)"/><rect class="cls-14" x="59.98" y="29.99" width="32.57" height="11.87" rx="2.83"/><polygon class="cls-12" points="74.83 33.62 73.38 33.62 73.53 32.94 74.98 32.94 74.83 33.62"/><polygon class="cls-12" points="74.46 35.4 72.06 35.4 72.21 34.72 74.61 34.72 74.46 35.4"/><polygon class="cls-12" points="74.08 37.18 70.74 37.18 70.88 36.49 74.23 36.49 74.08 37.18"/><polygon class="cls-12" points="73.71 38.96 69.41 38.96 69.56 38.27 73.85 38.27 73.71 38.96"/><path class="cls-15" d="M63.65,31a6.34,6.34,0,0,0-.83.3.2.2,0,0,1-.21,0l-1.4-1a.63.63,0,0,0-.74,0l-.9.76a.6.6,0,0,0-.15.72l.77,1.54a.22.22,0,0,1,0,.22,7.44,7.44,0,0,0-.44.78.22.22,0,0,1-.18.12l-1.73.11a.61.61,0,0,0-.55.49l-.21,1.16a.65.65,0,0,0,.35.65l1.58.69a.28.28,0,0,1,.14.18,5.13,5.13,0,0,0,.16.87.29.29,0,0,1-.06.22L58,39.92a.62.62,0,0,0-.11.73l.59,1a.63.63,0,0,0,.69.28l1.65-.49a.31.31,0,0,1,.23,0c.21.2.44.39.67.57a.2.2,0,0,1,.09.2L61.59,44a.63.63,0,0,0,.38.63l1.11.4a.63.63,0,0,0,.71-.23l.94-1.44a.32.32,0,0,1,.22-.1h.87a.22.22,0,0,1,.2.09l1,1.45a.62.62,0,0,0,.7.23l1.11-.4a.63.63,0,0,0,.39-.63L69,42.29a.27.27,0,0,1,.1-.22,7.1,7.1,0,0,0,.67-.56.26.26,0,0,1,.21-.06l1.67.5a.62.62,0,0,0,.68-.28l.6-1a.62.62,0,0,0-.11-.73l-1.25-1.18a.28.28,0,0,1-.07-.23,6.49,6.49,0,0,0,.16-.88.26.26,0,0,1,.12-.17l1.59-.69a.64.64,0,0,0,.36-.65L73.5,35a.61.61,0,0,0-.55-.49l-1.72-.11a.28.28,0,0,1-.2-.13,7.3,7.3,0,0,0-.44-.77.26.26,0,0,1,0-.21l.78-1.55A.62.62,0,0,0,71.2,31l-.91-.76a.63.63,0,0,0-.74,0l-1.38,1a.24.24,0,0,1-.23,0,6.34,6.34,0,0,0-.83-.3.26.26,0,0,1-.15-.16l-.41-1.69a.63.63,0,0,0-.58-.46H64.79a.63.63,0,0,0-.58.46l-.4,1.68A.25.25,0,0,1,63.65,31Z" transform="translate(-5.4 -1.05)"/><path class="cls-16" d="M65.38,31.91A5.07,5.07,0,1,0,70.45,37a5.07,5.07,0,0,0-5.07-5.09Z" transform="translate(-5.4 -1.05)"/><rect class="cls-14" x="59.98" y="179.79" width="32.57" height="11.87" rx="2.83"/><polygon class="cls-12" points="74.83 183.42 73.38 183.42 73.53 182.73 74.98 182.73 74.83 183.42"/><polygon class="cls-12" points="74.46 185.2 72.06 185.2 72.21 184.51 74.61 184.51 74.46 185.2"/><polygon class="cls-12" points="74.08 186.98 70.74 186.98 70.88 186.29 74.23 186.29 74.08 186.98"/><polygon class="cls-12" points="73.71 188.75 69.41 188.75 69.56 188.07 73.85 188.07 73.71 188.75"/><path class="cls-15" d="M63.65,180.74a8.29,8.29,0,0,0-.83.31.26.26,0,0,1-.21,0l-1.4-1a.66.66,0,0,0-.74,0l-.9.76a.64.64,0,0,0-.15.73l.77,1.54a.28.28,0,0,1,0,.22,7.44,7.44,0,0,0-.44.78.23.23,0,0,1-.18.12l-1.73.1a.64.64,0,0,0-.55.5L57.08,186a.65.65,0,0,0,.35.65l1.58.68a.28.28,0,0,1,.14.18,5.24,5.24,0,0,0,.16.88.26.26,0,0,1-.06.21L58,189.72a.62.62,0,0,0-.11.73l.59,1a.6.6,0,0,0,.69.27l1.65-.49a.27.27,0,0,1,.23.06,7.1,7.1,0,0,0,.67.56.25.25,0,0,1,.09.2l-.19,1.73a.63.63,0,0,0,.38.63l1.11.4a.63.63,0,0,0,.71-.23l.94-1.44A.26.26,0,0,1,65,193h.87a.26.26,0,0,1,.2.1l1,1.45a.63.63,0,0,0,.7.23l1.11-.4a.63.63,0,0,0,.39-.63l-.2-1.71a.26.26,0,0,1,.1-.22c.23-.18.46-.37.67-.57a.27.27,0,0,1,.21,0l1.67.49a.61.61,0,0,0,.68-.27l.6-1a.64.64,0,0,0-.11-.74l-1.25-1.18a.26.26,0,0,1-.07-.22,6.49,6.49,0,0,0,.16-.88.26.26,0,0,1,.12-.17l1.59-.69a.64.64,0,0,0,.36-.65l-.21-1.16a.64.64,0,0,0-.55-.5l-1.72-.1A.26.26,0,0,1,71,184a7.3,7.3,0,0,0-.44-.77.26.26,0,0,1,0-.21l.78-1.55a.65.65,0,0,0-.15-.73l-.91-.76a.66.66,0,0,0-.74,0l-1.38,1a.31.31,0,0,1-.23,0c-.27-.11-.55-.21-.83-.3a.23.23,0,0,1-.15-.15l-.41-1.69a.63.63,0,0,0-.58-.46H64.79a.63.63,0,0,0-.58.46l-.4,1.67A.24.24,0,0,1,63.65,180.74Z" transform="translate(-5.4 -1.05)"/><path class="cls-16" d="M65.38,181.7a5.07,5.07,0,1,0,5.07,5.07,5.07,5.07,0,0,0-5.07-5.07Z" transform="translate(-5.4 -1.05)"/><rect class="cls-14" x="145.1" y="179.79" width="32.57" height="11.87" rx="2.83"/><polygon class="cls-12" points="159.95 183.42 158.5 183.42 158.65 182.73 160.1 182.73 159.95 183.42"/><polygon class="cls-12" points="159.58 185.2 157.18 185.2 157.32 184.51 159.72 184.51 159.58 185.2"/><polygon class="cls-12" points="159.2 186.98 155.85 186.98 156 186.29 159.35 186.29 159.2 186.98"/><polygon class="cls-12" points="158.83 188.75 154.53 188.75 154.68 188.07 158.97 188.07 158.83 188.75"/><path class="cls-15" d="M148.77,180.74a8.29,8.29,0,0,0-.83.31.41.41,0,0,1-.22,0l-1.39-1a.66.66,0,0,0-.74,0l-.91.76a.65.65,0,0,0-.15.73l.77,1.54a.22.22,0,0,1,0,.22,7.44,7.44,0,0,0-.44.78.28.28,0,0,1-.18.12l-1.73.1a.65.65,0,0,0-.56.5l-.2,1.16a.61.61,0,0,0,.35.65l1.58.68a.28.28,0,0,1,.14.18,6.47,6.47,0,0,0,.15.88.23.23,0,0,1,0,.21l-1.26,1.2a.62.62,0,0,0-.11.73l.59,1a.6.6,0,0,0,.69.27l1.65-.49a.27.27,0,0,1,.23.06,6,6,0,0,0,.67.56.25.25,0,0,1,.09.2l-.2,1.73a.63.63,0,0,0,.39.63l1.11.4a.63.63,0,0,0,.71-.23l.94-1.44a.25.25,0,0,1,.21-.1H151a.26.26,0,0,1,.2.1l1,1.45a.63.63,0,0,0,.7.23l1.11-.4a.63.63,0,0,0,.39-.63l-.2-1.71a.31.31,0,0,1,.09-.22,5.27,5.27,0,0,0,.68-.57.27.27,0,0,1,.21-.05l1.66.49a.63.63,0,0,0,.69-.27l.59-1a.64.64,0,0,0-.1-.74l-1.25-1.18a.23.23,0,0,1-.07-.22,6.49,6.49,0,0,0,.16-.88.26.26,0,0,1,.12-.17l1.59-.69a.62.62,0,0,0,.35-.65l-.2-1.16a.65.65,0,0,0-.56-.5l-1.71-.1a.28.28,0,0,1-.2-.13,5.35,5.35,0,0,0-.45-.77.26.26,0,0,1,0-.21l.78-1.55a.65.65,0,0,0-.15-.73l-.91-.76a.66.66,0,0,0-.74,0l-1.38,1a.31.31,0,0,1-.23,0,8.22,8.22,0,0,0-.83-.3.23.23,0,0,1-.15-.15l-.41-1.69a.63.63,0,0,0-.58-.46H150a.63.63,0,0,0-.58.46l-.4,1.67A.24.24,0,0,1,148.77,180.74Z" transform="translate(-5.4 -1.05)"/><path class="cls-16" d="M150.5,181.7a5.07,5.07,0,1,0,5.07,5.07,5.07,5.07,0,0,0-5.07-5.07Z" transform="translate(-5.4 -1.05)"/><path class="cls-14" d="M272.44,180.84h26.9a2.83,2.83,0,0,1,2.83,2.83v6.2a2.83,2.83,0,0,1-2.83,2.83h-26.9a2.83,2.83,0,0,1-2.83-2.83v-6.21A2.84,2.84,0,0,1,272.44,180.84Z" transform="translate(-5.4 -1.05)"/><polygon class="cls-12" points="279.06 183.42 277.6 183.42 277.75 182.73 279.2 182.73 279.06 183.42"/><polygon class="cls-12" points="278.68 185.2 276.28 185.2 276.43 184.51 278.83 184.51 278.68 185.2"/><polygon class="cls-12" points="278.31 186.98 274.96 186.98 275.1 186.29 278.45 186.29 278.31 186.98"/><polygon class="cls-12" points="277.93 188.75 273.64 188.75 273.78 188.07 278.08 188.07 277.93 188.75"/><path class="cls-15" d="M267.87,180.74a8.29,8.29,0,0,0-.83.31.26.26,0,0,1-.21,0l-1.4-1a.66.66,0,0,0-.74,0l-.9.76a.64.64,0,0,0-.15.73l.77,1.54a.28.28,0,0,1,0,.22,6.06,6.06,0,0,0-.45.78.23.23,0,0,1-.18.12l-1.73.1a.64.64,0,0,0-.55.5l-.21,1.16a.65.65,0,0,0,.35.65l1.58.68a.28.28,0,0,1,.14.18,6.49,6.49,0,0,0,.16.88.26.26,0,0,1-.06.21l-1.26,1.2a.62.62,0,0,0-.11.73l.59,1a.6.6,0,0,0,.69.27l1.65-.49a.27.27,0,0,1,.23.06,7.1,7.1,0,0,0,.67.56.2.2,0,0,1,.09.2l-.19,1.73a.63.63,0,0,0,.39.63l1.1.4a.63.63,0,0,0,.71-.23l.94-1.44a.26.26,0,0,1,.22-.1h.88a.26.26,0,0,1,.2.1l.95,1.45a.65.65,0,0,0,.71.23l1.1-.4a.62.62,0,0,0,.39-.63l-.19-1.71a.24.24,0,0,1,.09-.22,5.18,5.18,0,0,0,.67-.57.27.27,0,0,1,.21-.05l1.67.49a.63.63,0,0,0,.69-.27l.59-1a.64.64,0,0,0-.11-.74l-1.25-1.18a.26.26,0,0,1-.07-.22,6.49,6.49,0,0,0,.16-.88.3.3,0,0,1,.12-.17l1.59-.69a.64.64,0,0,0,.36-.65l-.21-1.16a.63.63,0,0,0-.55-.5l-1.72-.1a.28.28,0,0,1-.2-.13,7.3,7.3,0,0,0-.44-.77.26.26,0,0,1,0-.21l.78-1.55a.64.64,0,0,0-.15-.73l-.9-.76a.66.66,0,0,0-.74,0l-1.38,1a.33.33,0,0,1-.24,0,6.34,6.34,0,0,0-.83-.3.23.23,0,0,1-.15-.15l-.41-1.69a.63.63,0,0,0-.58-.46H269a.63.63,0,0,0-.58.46l-.4,1.67A.23.23,0,0,1,267.87,180.74Z" transform="translate(-5.4 -1.05)"/><path class="cls-16" d="M269.6,181.7a5.07,5.07,0,1,0,5.07,5.07,5.07,5.07,0,0,0-5.07-5.07Z" transform="translate(-5.4 -1.05)"/><path class="cls-14" d="M272.44,157.94h26.9a2.83,2.83,0,0,1,2.83,2.83V167a2.83,2.83,0,0,1-2.83,2.83h-26.9A2.83,2.83,0,0,1,269.6,167h0v-6.2a2.84,2.84,0,0,1,2.82-2.86Z" transform="translate(-5.4 -1.05)"/><polygon class="cls-12" points="279.06 160.52 277.6 160.52 277.75 159.84 279.2 159.84 279.06 160.52"/><polygon class="cls-12" points="278.68 162.3 276.28 162.3 276.43 161.61 278.83 161.61 278.68 162.3"/><polygon class="cls-12" points="278.31 164.08 274.96 164.08 275.1 163.39 278.45 163.39 278.31 164.08"/><polygon class="cls-12" points="277.93 165.85 273.64 165.85 273.78 165.17 278.08 165.17 277.93 165.85"/><path class="cls-15" d="M267.87,157.85a6.34,6.34,0,0,0-.83.3.2.2,0,0,1-.21,0l-1.4-1a.66.66,0,0,0-.74,0l-.9.76a.64.64,0,0,0-.15.73l.77,1.54a.28.28,0,0,1,0,.22,6.06,6.06,0,0,0-.45.78.23.23,0,0,1-.18.12l-1.73.11a.61.61,0,0,0-.55.49l-.21,1.16a.65.65,0,0,0,.35.65l1.58.69a.26.26,0,0,1,.14.17,6.49,6.49,0,0,0,.16.88.26.26,0,0,1-.06.21l-1.26,1.2a.62.62,0,0,0-.11.73l.59,1a.6.6,0,0,0,.69.27l1.65-.49a.32.32,0,0,1,.23.06,7.1,7.1,0,0,0,.67.56.2.2,0,0,1,.09.2l-.19,1.73a.63.63,0,0,0,.39.63l1.1.4a.63.63,0,0,0,.71-.23l.94-1.44a.26.26,0,0,1,.22-.1h.88a.26.26,0,0,1,.2.1l.95,1.45a.63.63,0,0,0,.71.23l1.1-.4a.62.62,0,0,0,.39-.63l-.19-1.71a.24.24,0,0,1,.09-.22,6,6,0,0,0,.67-.56.26.26,0,0,1,.21-.06l1.67.49a.6.6,0,0,0,.69-.27l.59-1a.62.62,0,0,0-.11-.73l-1.25-1.19a.26.26,0,0,1-.07-.22,6.49,6.49,0,0,0,.16-.88.3.3,0,0,1,.12-.17l1.59-.69a.64.64,0,0,0,.36-.65l-.21-1.16a.63.63,0,0,0-.55-.5l-1.72-.1a.28.28,0,0,1-.2-.13,7.3,7.3,0,0,0-.44-.77.26.26,0,0,1,0-.21l.78-1.55a.64.64,0,0,0-.15-.73l-.9-.76a.66.66,0,0,0-.74,0l-1.38,1a.33.33,0,0,1-.24,0,8.29,8.29,0,0,0-.83-.31.23.23,0,0,1-.15-.15L270.8,156a.63.63,0,0,0-.58-.46H269a.63.63,0,0,0-.58.46l-.4,1.68A.26.26,0,0,1,267.87,157.85Z" transform="translate(-5.4 -1.05)"/><path class="cls-16" d="M269.6,158.8a5.08,5.08,0,1,0,5.07,5.09v0a5.07,5.07,0,0,0-5.07-5.07Z" transform="translate(-5.4 -1.05)"/><rect class="cls-14" x="165.98" y="105.99" width="32.57" height="11.87" rx="2.83"/><polygon class="cls-12" points="180.83 109.62 179.38 109.62 179.52 108.94 180.98 108.94 180.83 109.62"/><polygon class="cls-12" points="180.45 111.4 178.05 111.4 178.2 110.72 180.6 110.72 180.45 111.4"/><polygon class="cls-12" points="180.08 113.18 176.73 113.18 176.88 112.49 180.23 112.49 180.08 113.18"/><polygon class="cls-12" points="179.7 114.96 175.41 114.96 175.55 114.27 179.85 114.27 179.7 114.96"/><path class="cls-15" d="M169.65,107a6,6,0,0,0-.84.3.26.26,0,0,1-.21,0l-1.39-1a.63.63,0,0,0-.74,0l-.91.76a.6.6,0,0,0-.15.72l.77,1.54a.22.22,0,0,1,0,.22,6,6,0,0,0-.44.78.23.23,0,0,1-.18.12l-1.73.11a.63.63,0,0,0-.56.49l-.2,1.16a.61.61,0,0,0,.35.65l1.58.69a.23.23,0,0,1,.13.18,6.64,6.64,0,0,0,.16.87.25.25,0,0,1-.06.22L164,115.92a.62.62,0,0,0-.1.73l.59,1a.63.63,0,0,0,.69.28l1.64-.49a.27.27,0,0,1,.23,0c.22.2.44.39.68.57a.25.25,0,0,1,.09.2l-.2,1.72a.63.63,0,0,0,.39.63l1.11.4a.62.62,0,0,0,.7-.23l1-1.44a.28.28,0,0,1,.21-.1h.88a.22.22,0,0,1,.2.09l1,1.45a.62.62,0,0,0,.7.23l1.11-.4a.63.63,0,0,0,.39-.63l-.2-1.71a.26.26,0,0,1,.09-.22,6.13,6.13,0,0,0,.68-.56.26.26,0,0,1,.21-.06l1.66.5a.63.63,0,0,0,.69-.28l.59-1a.62.62,0,0,0-.11-.73l-1.25-1.18a.27.27,0,0,1-.06-.23,6.47,6.47,0,0,0,.15-.88.3.3,0,0,1,.12-.17l1.6-.69a.65.65,0,0,0,.35-.65l-.2-1.16a.63.63,0,0,0-.56-.49l-1.72-.11a.26.26,0,0,1-.19-.13,5.35,5.35,0,0,0-.45-.77.26.26,0,0,1,0-.21l.77-1.55a.6.6,0,0,0-.15-.72l-.9-.76a.63.63,0,0,0-.74,0l-1.38,1a.26.26,0,0,1-.24,0,6.34,6.34,0,0,0-.83-.3.29.29,0,0,1-.15-.16l-.4-1.69a.63.63,0,0,0-.58-.46h-1.18a.63.63,0,0,0-.58.46l-.4,1.68A.3.3,0,0,1,169.65,107Z" transform="translate(-5.4 -1.05)"/><path class="cls-16" d="M171.38,107.91a5.07,5.07,0,1,0,5.07,5.07,5.07,5.07,0,0,0-5.07-5.07Z" transform="translate(-5.4 -1.05)"/><rect class="cls-14" x="165.98" y="83.09" width="32.57" height="11.87" rx="2.83"/><polygon class="cls-12" points="180.83 86.73 179.38 86.73 179.52 86.04 180.98 86.04 180.83 86.73"/><polygon class="cls-12" points="180.45 88.5 178.05 88.5 178.2 87.82 180.6 87.82 180.45 88.5"/><polygon class="cls-12" points="180.08 90.28 176.73 90.28 176.88 89.59 180.23 89.59 180.08 90.28"/><polygon class="cls-12" points="179.7 92.06 175.41 92.06 175.55 91.37 179.85 91.37 179.7 92.06"/><path class="cls-15" d="M169.65,84.05a6,6,0,0,0-.84.3.26.26,0,0,1-.21,0l-1.39-1a.63.63,0,0,0-.74,0l-.91.76a.6.6,0,0,0-.15.72l.77,1.54a.31.31,0,0,1,0,.23,4.51,4.51,0,0,0-.44.77.29.29,0,0,1-.18.13l-1.73.1a.64.64,0,0,0-.56.49l-.2,1.16a.63.63,0,0,0,.35.66l1.58.68a.23.23,0,0,1,.13.18,6.64,6.64,0,0,0,.16.87.25.25,0,0,1-.06.22L164,93a.62.62,0,0,0-.1.73l.59,1a.63.63,0,0,0,.69.27l1.64-.49a.24.24,0,0,1,.23,0,5.27,5.27,0,0,0,.68.57.25.25,0,0,1,.09.2l-.2,1.72a.63.63,0,0,0,.39.63l1.11.41a.64.64,0,0,0,.7-.24l1-1.43a.26.26,0,0,1,.21-.11h.88a.22.22,0,0,1,.2.09l1,1.45a.64.64,0,0,0,.7.24l1.11-.41a.63.63,0,0,0,.39-.63l-.2-1.71a.26.26,0,0,1,.09-.22,6.13,6.13,0,0,0,.68-.56.26.26,0,0,1,.21-.06l1.66.5a.63.63,0,0,0,.69-.27l.59-1a.62.62,0,0,0-.11-.73l-1.25-1.18a.27.27,0,0,1-.06-.23,6.47,6.47,0,0,0,.15-.88.3.3,0,0,1,.12-.17l1.6-.69a.65.65,0,0,0,.35-.65l-.2-1.16a.63.63,0,0,0-.56-.49l-1.72-.1a.3.3,0,0,1-.19-.14,6,6,0,0,0-.45-.77.23.23,0,0,1,0-.2l.77-1.56a.6.6,0,0,0-.15-.72l-.9-.76a.63.63,0,0,0-.74,0l-1.38,1a.26.26,0,0,1-.24,0,6.34,6.34,0,0,0-.83-.3.29.29,0,0,1-.15-.16l-.4-1.68a.63.63,0,0,0-.58-.46h-1.18a.63.63,0,0,0-.58.46l-.4,1.67A.29.29,0,0,1,169.65,84.05Z" transform="translate(-5.4 -1.05)"/><path class="cls-16" d="M171.38,85a5.07,5.07,0,1,0,5.07,5.07A5.07,5.07,0,0,0,171.38,85Z" transform="translate(-5.4 -1.05)"/><path class="cls-14" d="M272.44,61.24h26.9a2.83,2.83,0,0,1,2.83,2.83v6.21a2.83,2.83,0,0,1-2.83,2.83h-26.9a2.83,2.83,0,0,1-2.83-2.83v-6.2A2.85,2.85,0,0,1,272.44,61.24Z" transform="translate(-5.4 -1.05)"/><polygon class="cls-12" points="279.06 63.83 277.6 63.83 277.75 63.14 279.2 63.14 279.06 63.83"/><polygon class="cls-12" points="278.68 65.61 276.28 65.61 276.43 64.92 278.83 64.92 278.68 65.61"/><polygon class="cls-12" points="278.31 67.38 274.96 67.38 275.1 66.69 278.45 66.69 278.31 67.38"/><polygon class="cls-12" points="277.93 69.16 273.64 69.16 273.78 68.47 278.08 68.47 277.93 69.16"/><path class="cls-15" d="M267.87,61.15a6.34,6.34,0,0,0-.83.3.2.2,0,0,1-.21,0l-1.4-1a.63.63,0,0,0-.74,0l-.9.76a.64.64,0,0,0-.15.73l.77,1.53a.31.31,0,0,1,0,.23,5.35,5.35,0,0,0-.45.77.24.24,0,0,1-.18.13l-1.73.1a.64.64,0,0,0-.55.49l-.21,1.16a.67.67,0,0,0,.35.66l1.58.68a.28.28,0,0,1,.14.18,6.49,6.49,0,0,0,.16.88.26.26,0,0,1-.06.21l-1.26,1.19a.64.64,0,0,0-.11.74l.59,1a.63.63,0,0,0,.69.27l1.65-.49a.24.24,0,0,1,.23.06,7.1,7.1,0,0,0,.67.56.2.2,0,0,1,.09.2l-.19,1.72a.65.65,0,0,0,.39.64l1.1.4A.64.64,0,0,0,268,75l.94-1.44a.27.27,0,0,1,.22-.11H270a.26.26,0,0,1,.2.1l1,1.45a.64.64,0,0,0,.71.24l1.1-.41a.62.62,0,0,0,.39-.63l-.19-1.71a.27.27,0,0,1,.09-.22,6,6,0,0,0,.67-.56.26.26,0,0,1,.21-.06l1.67.5a.63.63,0,0,0,.69-.27l.59-1a.62.62,0,0,0-.11-.73L275.77,69a.28.28,0,0,1-.07-.23,6.49,6.49,0,0,0,.16-.88.25.25,0,0,1,.12-.16l1.59-.69a.65.65,0,0,0,.36-.66l-.21-1.16a.61.61,0,0,0-.55-.49l-1.72-.1a.28.28,0,0,1-.2-.13,7.44,7.44,0,0,0-.44-.78.23.23,0,0,1,0-.2l.78-1.56a.6.6,0,0,0-.15-.72l-.9-.76a.63.63,0,0,0-.74,0l-1.38,1a.25.25,0,0,1-.24,0,6.34,6.34,0,0,0-.83-.3.26.26,0,0,1-.15-.16l-.41-1.68a.62.62,0,0,0-.58-.46H269a.63.63,0,0,0-.58.46L268,61A.24.24,0,0,1,267.87,61.15Z" transform="translate(-5.4 -1.05)"/><path class="cls-16" d="M269.6,62.11a5.07,5.07,0,1,0,5.07,5.07,5.07,5.07,0,0,0-5.07-5.07Z" transform="translate(-5.4 -1.05)"/><rect class="cls-14" x="184.89" y="2.65" width="32.57" height="11.87" rx="2.83"/><polygon class="cls-12" points="199.74 6.28 198.29 6.28 198.44 5.6 199.89 5.6 199.74 6.28"/><polygon class="cls-12" points="199.37 8.06 196.97 8.06 197.11 7.37 199.51 7.37 199.37 8.06"/><polygon class="cls-12" points="198.99 9.84 195.64 9.84 195.79 9.15 199.14 9.15 198.99 9.84"/><polygon class="cls-12" points="198.62 11.62 194.32 11.62 194.47 10.93 198.76 10.93 198.62 11.62"/><path class="cls-15" d="M188.56,3.61a6.34,6.34,0,0,0-.83.3.28.28,0,0,1-.22,0l-1.39-1a.63.63,0,0,0-.74,0l-.91.75a.65.65,0,0,0-.15.73l.77,1.54a.22.22,0,0,1,0,.22,7.44,7.44,0,0,0-.44.78.23.23,0,0,1-.18.12l-1.73.11a.63.63,0,0,0-.56.49L182,8.78a.61.61,0,0,0,.35.65l1.58.69a.28.28,0,0,1,.14.18,6.6,6.6,0,0,0,.15.87.25.25,0,0,1-.05.22l-1.26,1.19a.62.62,0,0,0-.11.73l.59,1a.63.63,0,0,0,.69.28l1.65-.49a.25.25,0,0,1,.22.05c.22.2.44.39.68.57a.25.25,0,0,1,.09.2l-.2,1.72a.63.63,0,0,0,.39.63l1.11.4a.62.62,0,0,0,.7-.23l.95-1.44a.28.28,0,0,1,.21-.1h.88a.26.26,0,0,1,.2.1l1,1.45a.62.62,0,0,0,.7.23l1.11-.4a.63.63,0,0,0,.39-.63l-.2-1.71a.31.31,0,0,1,.09-.22,6.13,6.13,0,0,0,.68-.56.26.26,0,0,1,.21-.06l1.66.5a.63.63,0,0,0,.69-.28l.59-1a.62.62,0,0,0-.1-.73l-1.25-1.18a.25.25,0,0,1-.07-.23,8.52,8.52,0,0,0,.16-.88.24.24,0,0,1,.12-.17l1.59-.69a.61.61,0,0,0,.35-.65l-.2-1.16a.63.63,0,0,0-.56-.49L196.14,7a.28.28,0,0,1-.2-.13,5.35,5.35,0,0,0-.45-.77.26.26,0,0,1,0-.21l.77-1.55a.63.63,0,0,0-.14-.73l-.91-.75a.63.63,0,0,0-.74,0l-1.38,1a.25.25,0,0,1-.24,0,6.34,6.34,0,0,0-.83-.3.29.29,0,0,1-.15-.16l-.4-1.69a.63.63,0,0,0-.58-.46H189.7a.63.63,0,0,0-.58.46l-.4,1.68A.27.27,0,0,1,188.56,3.61Z" transform="translate(-5.4 -1.05)"/><path class="cls-16" d="M190.29,4.57a5.07,5.07,0,1,0,5.07,5.07,5.07,5.07,0,0,0-5.07-5.07Z" transform="translate(-5.4 -1.05)"/><rect class="cls-14" x="119.59" y="45.77" width="32.57" height="11.87" rx="2.83"/><polygon class="cls-12" points="134.44 49.41 132.99 49.41 133.14 48.72 134.59 48.72 134.44 49.41"/><polygon class="cls-12" points="134.07 51.19 131.67 51.19 131.82 50.5 134.22 50.5 134.07 51.19"/><polygon class="cls-12" points="133.69 52.96 130.35 52.96 130.49 52.28 133.84 52.28 133.69 52.96"/><polygon class="cls-12" points="133.32 54.74 129.03 54.74 129.17 54.05 133.46 54.05 133.32 54.74"/><path class="cls-15" d="M123.26,46.73a8.29,8.29,0,0,0-.83.31.26.26,0,0,1-.21,0l-1.4-1a.63.63,0,0,0-.74,0l-.9.76a.64.64,0,0,0-.15.73L119.8,49a.28.28,0,0,1,0,.22,5.35,5.35,0,0,0-.45.77.23.23,0,0,1-.18.13l-1.73.1a.64.64,0,0,0-.55.49l-.21,1.17a.65.65,0,0,0,.35.65l1.58.68a.28.28,0,0,1,.14.18,6.49,6.49,0,0,0,.16.88.26.26,0,0,1-.06.21l-1.26,1.19a.64.64,0,0,0-.11.74l.59,1a.63.63,0,0,0,.69.27l1.65-.49a.24.24,0,0,1,.23.06,7.1,7.1,0,0,0,.67.56.26.26,0,0,1,.1.2l-.2,1.72a.65.65,0,0,0,.38.64l1.11.4a.65.65,0,0,0,.71-.23l.94-1.44a.27.27,0,0,1,.22-.11h.87a.28.28,0,0,1,.21.1l1,1.44a.62.62,0,0,0,.7.24l1.11-.41a.63.63,0,0,0,.39-.63l-.2-1.71a.25.25,0,0,1,.1-.21c.23-.18.46-.37.67-.57a.26.26,0,0,1,.21-.06l1.67.5a.61.61,0,0,0,.68-.27l.6-1a.64.64,0,0,0-.11-.74l-1.25-1.18a.28.28,0,0,1-.07-.23,5.24,5.24,0,0,0,.16-.88.22.22,0,0,1,.12-.16l1.59-.69a.65.65,0,0,0,.36-.65l-.21-1.17a.64.64,0,0,0-.55-.49l-1.72-.1a.28.28,0,0,1-.2-.13,7.44,7.44,0,0,0-.44-.78.23.23,0,0,1,0-.2l.78-1.55a.64.64,0,0,0-.15-.73L130,46a.63.63,0,0,0-.74,0l-1.39,1a.24.24,0,0,1-.23,0,6.34,6.34,0,0,0-.83-.3.23.23,0,0,1-.15-.15l-.41-1.69c-.06-.26-.32-1.06-.58-1.06H124.4c-.26,0-.52.8-.58,1.06l-.4,1.67A.24.24,0,0,1,123.26,46.73Z" transform="translate(-5.4 -1.05)"/><path class="cls-16" d="M125,47.69a5.07,5.07,0,1,0,5.07,5.07A5.07,5.07,0,0,0,125,47.69Z" transform="translate(-5.4 -1.05)"/><rect class="cls-14" x="119.59" y="2.65" width="32.57" height="11.87" rx="2.83"/><polygon class="cls-12" points="134.44 6.28 132.99 6.28 133.14 5.6 134.59 5.6 134.44 6.28"/><polygon class="cls-12" points="134.07 8.06 131.67 8.06 131.82 7.37 134.22 7.37 134.07 8.06"/><polygon class="cls-12" points="133.69 9.84 130.35 9.84 130.49 9.15 133.84 9.15 133.69 9.84"/><polygon class="cls-12" points="133.32 11.62 129.03 11.62 129.17 10.93 133.46 10.93 133.32 11.62"/><path class="cls-15" d="M123.26,3.61a6.34,6.34,0,0,0-.83.3.2.2,0,0,1-.21,0l-1.4-1a.63.63,0,0,0-.74,0l-.9.75a.64.64,0,0,0-.15.73l.77,1.54a.28.28,0,0,1,0,.22,6.06,6.06,0,0,0-.45.78.22.22,0,0,1-.18.12l-1.73.11a.61.61,0,0,0-.55.49l-.21,1.16a.65.65,0,0,0,.35.65l1.58.69a.28.28,0,0,1,.14.18,6.64,6.64,0,0,0,.16.87.29.29,0,0,1-.06.22l-1.26,1.19a.62.62,0,0,0-.11.73l.59,1a.63.63,0,0,0,.69.28l1.65-.49a.27.27,0,0,1,.23,0c.21.2.44.39.67.57a.26.26,0,0,1,.1.2l-.2,1.72a.63.63,0,0,0,.38.63l1.11.4a.63.63,0,0,0,.71-.23l.94-1.44a.32.32,0,0,1,.22-.1h.87a.28.28,0,0,1,.21.1l1,1.45a.62.62,0,0,0,.7.23l1.11-.4a.63.63,0,0,0,.39-.63l-.2-1.71a.27.27,0,0,1,.1-.22,7.1,7.1,0,0,0,.67-.56.26.26,0,0,1,.21-.06l1.67.5a.62.62,0,0,0,.68-.28l.6-1a.62.62,0,0,0-.11-.73l-1.25-1.18a.28.28,0,0,1-.07-.23,5.24,5.24,0,0,0,.16-.88.26.26,0,0,1,.12-.17L133,9.43a.64.64,0,0,0,.36-.65l-.21-1.16a.61.61,0,0,0-.55-.49L130.84,7a.28.28,0,0,1-.2-.13,7.3,7.3,0,0,0-.44-.77.26.26,0,0,1,0-.21l.8-1.53a.64.64,0,0,0-.15-.73l-.9-.75a.63.63,0,0,0-.74,0l-1.39,1a.24.24,0,0,1-.23,0,6.34,6.34,0,0,0-.83-.3.26.26,0,0,1-.15-.16l-.41-1.69a.63.63,0,0,0-.58-.46H124.4a.63.63,0,0,0-.58.46l-.4,1.68A.24.24,0,0,1,123.26,3.61Z" transform="translate(-5.4 -1.05)"/><path class="cls-16" d="M125,4.57a5.07,5.07,0,1,0,5.07,5.07A5.07,5.07,0,0,0,125,4.57Z" transform="translate(-5.4 -1.05)"/><path class="cls-14" d="M194.19,135h26.9a2.84,2.84,0,0,1,2.84,2.84V144a2.83,2.83,0,0,1-2.83,2.83H194.2a2.83,2.83,0,0,1-2.83-2.83h0v-6.21A2.84,2.84,0,0,1,194.19,135Z" transform="translate(-5.4 -1.05)"/><polygon class="cls-12" points="200.81 137.63 199.35 137.63 199.5 136.94 200.95 136.94 200.81 137.63"/><polygon class="cls-12" points="200.43 139.4 198.03 139.4 198.18 138.71 200.58 138.71 200.43 139.4"/><polygon class="cls-12" points="200.06 141.18 196.71 141.18 196.85 140.49 200.2 140.49 200.06 141.18"/><polygon class="cls-12" points="199.68 142.96 195.39 142.96 195.53 142.27 199.83 142.27 199.68 142.96"/><path class="cls-15" d="M189.62,135a6.34,6.34,0,0,0-.83.3.2.2,0,0,1-.21,0l-1.4-1a.63.63,0,0,0-.74,0l-.9.76a.6.6,0,0,0-.15.72l.77,1.54a.28.28,0,0,1,0,.22,6.06,6.06,0,0,0-.45.78.22.22,0,0,1-.18.12l-1.73.11a.61.61,0,0,0-.55.49L183,140.2a.65.65,0,0,0,.35.65l1.58.69a.28.28,0,0,1,.14.18,6.64,6.64,0,0,0,.16.87.29.29,0,0,1-.06.22L184,144a.62.62,0,0,0-.11.73l.59,1a.63.63,0,0,0,.69.28l1.65-.49a.31.31,0,0,1,.23,0c.21.2.44.39.67.57a.2.2,0,0,1,.09.2l-.19,1.72a.63.63,0,0,0,.39.63l1.1.4a.63.63,0,0,0,.71-.23l.94-1.44a.32.32,0,0,1,.22-.1h.88a.25.25,0,0,1,.2.09l1,1.45a.63.63,0,0,0,.71.23l1.1-.4a.62.62,0,0,0,.39-.63L195,146.3a.26.26,0,0,1,.09-.22,6,6,0,0,0,.67-.56.26.26,0,0,1,.21-.06l1.67.5a.63.63,0,0,0,.69-.28l.59-1a.62.62,0,0,0-.11-.73l-1.25-1.18a.28.28,0,0,1-.07-.23,6.49,6.49,0,0,0,.16-.88.3.3,0,0,1,.12-.17l1.59-.69a.64.64,0,0,0,.36-.65l-.21-1.16a.61.61,0,0,0-.55-.49l-1.72-.11a.28.28,0,0,1-.2-.13,7.3,7.3,0,0,0-.44-.77.26.26,0,0,1,0-.21l.78-1.55a.6.6,0,0,0-.15-.72l-.9-.76a.63.63,0,0,0-.74,0l-1.38,1a.26.26,0,0,1-.24,0,6.34,6.34,0,0,0-.83-.3.26.26,0,0,1-.15-.16l-.41-1.69a.63.63,0,0,0-.58-.46h-1.18a.63.63,0,0,0-.58.46l-.4,1.68A.26.26,0,0,1,189.62,135Z" transform="translate(-5.4 -1.05)"/><path class="cls-16" d="M191.35,135.91a5.07,5.07,0,1,0,5.07,5.07,5.07,5.07,0,0,0-5.07-5.07Z" transform="translate(-5.4 -1.05)"/><path class="cls-14" d="M219.69,107h26.9a2.83,2.83,0,0,1,2.83,2.83h0V116a2.83,2.83,0,0,1-2.83,2.83h-26.9a2.83,2.83,0,0,1-2.83-2.83h0v-6.21A2.85,2.85,0,0,1,219.69,107Z" transform="translate(-5.4 -1.05)"/><polygon class="cls-12" points="226.31 109.62 224.85 109.62 225 108.94 226.45 108.94 226.31 109.62"/><polygon class="cls-12" points="225.93 111.4 223.53 111.4 223.68 110.72 226.08 110.72 225.93 111.4"/><polygon class="cls-12" points="225.56 113.18 222.21 113.18 222.35 112.49 225.7 112.49 225.56 113.18"/><polygon class="cls-12" points="225.18 114.96 220.89 114.96 221.03 114.27 225.33 114.27 225.18 114.96"/><path class="cls-15" d="M215.12,107a6.34,6.34,0,0,0-.83.3.2.2,0,0,1-.21,0l-1.4-1a.63.63,0,0,0-.74,0l-.9.76a.6.6,0,0,0-.15.72l.77,1.54a.28.28,0,0,1,0,.22,6.06,6.06,0,0,0-.45.78.22.22,0,0,1-.18.12l-1.73.11a.61.61,0,0,0-.55.49l-.21,1.16a.65.65,0,0,0,.35.65l1.58.69a.28.28,0,0,1,.14.18,6.64,6.64,0,0,0,.16.87.29.29,0,0,1-.06.22L209.45,116a.62.62,0,0,0-.11.73l.59,1a.63.63,0,0,0,.69.28l1.65-.49a.27.27,0,0,1,.23,0c.21.2.44.39.67.57a.2.2,0,0,1,.09.2l-.19,1.72a.63.63,0,0,0,.39.63l1.1.4a.63.63,0,0,0,.71-.23l.94-1.44a.32.32,0,0,1,.22-.1h.88a.25.25,0,0,1,.2.09l1,1.45a.63.63,0,0,0,.71.23l1.1-.4a.62.62,0,0,0,.39-.63l-.19-1.71a.26.26,0,0,1,.09-.22,6,6,0,0,0,.67-.56.26.26,0,0,1,.21-.06l1.67.5a.63.63,0,0,0,.69-.28l.59-1a.62.62,0,0,0-.11-.73L223,114.74a.28.28,0,0,1-.07-.23,6.49,6.49,0,0,0,.16-.88.3.3,0,0,1,.12-.17l1.59-.69a.64.64,0,0,0,.36-.65L225,111a.61.61,0,0,0-.55-.49l-1.72-.11a.28.28,0,0,1-.2-.13,7.3,7.3,0,0,0-.44-.77.26.26,0,0,1,0-.21l.78-1.55a.6.6,0,0,0-.15-.72l-.9-.76a.63.63,0,0,0-.74,0l-1.38,1a.25.25,0,0,1-.24,0,6.34,6.34,0,0,0-.83-.3.26.26,0,0,1-.15-.16l-.48-1.7a.63.63,0,0,0-.58-.46h-1.18a.63.63,0,0,0-.58.46l-.4,1.68A.26.26,0,0,1,215.12,107Z" transform="translate(-5.4 -1.05)"/><path class="cls-16" d="M216.85,107.91a5.07,5.07,0,1,0,5.07,5.07,5.07,5.07,0,0,0-5.07-5.07Z" transform="translate(-5.4 -1.05)"/><rect class="cls-14" x="211.45" y="83.09" width="32.57" height="11.87" rx="2.83"/><polygon class="cls-12" points="226.31 86.73 224.85 86.73 225 86.04 226.45 86.04 226.31 86.73"/><polygon class="cls-12" points="225.93 88.5 223.53 88.5 223.68 87.82 226.08 87.82 225.93 88.5"/><polygon class="cls-12" points="225.56 90.28 222.21 90.28 222.35 89.59 225.7 89.59 225.56 90.28"/><polygon class="cls-12" points="225.18 92.06 220.89 92.06 221.03 91.37 225.33 91.37 225.18 92.06"/><path class="cls-15" d="M215.12,84.05a6.34,6.34,0,0,0-.83.3.2.2,0,0,1-.21,0l-1.4-1a.63.63,0,0,0-.74,0l-.9.76a.6.6,0,0,0-.15.72l.77,1.54a.31.31,0,0,1,0,.23,5.35,5.35,0,0,0-.45.77.24.24,0,0,1-.18.13l-1.73.1a.62.62,0,0,0-.55.49l-.21,1.16a.67.67,0,0,0,.35.66l1.58.68a.28.28,0,0,1,.14.18,6.64,6.64,0,0,0,.16.87.29.29,0,0,1-.06.22L209.44,93a.62.62,0,0,0-.11.73l.59,1a.63.63,0,0,0,.69.27l1.65-.49a.31.31,0,0,1,.23,0,5.18,5.18,0,0,0,.67.57.2.2,0,0,1,.09.2L213.06,97a.62.62,0,0,0,.39.63l1.1.41a.65.65,0,0,0,.71-.24l.94-1.43a.27.27,0,0,1,.22-.11h.88a.25.25,0,0,1,.2.09l.95,1.45a.65.65,0,0,0,.71.24l1.1-.41a.63.63,0,0,0,.39-.63l-.19-1.71a.26.26,0,0,1,.09-.22,6,6,0,0,0,.67-.56.26.26,0,0,1,.21-.06l1.67.5a.63.63,0,0,0,.69-.27l.59-1a.62.62,0,0,0-.11-.73L223,91.84a.28.28,0,0,1-.07-.23,6.49,6.49,0,0,0,.16-.88.3.3,0,0,1,.12-.17l1.59-.69a.64.64,0,0,0,.36-.65L225,88.06a.61.61,0,0,0-.55-.49l-1.72-.1a.29.29,0,0,1-.2-.14,8.46,8.46,0,0,0-.44-.77.23.23,0,0,1,0-.2l.78-1.56a.6.6,0,0,0-.15-.72l-.9-.76a.63.63,0,0,0-.74,0l-1.38,1a.26.26,0,0,1-.24,0,6.34,6.34,0,0,0-.83-.3.26.26,0,0,1-.15-.16L218,82.21a.62.62,0,0,0-.58-.46h-1.18a.63.63,0,0,0-.58.46l-.4,1.67A.24.24,0,0,1,215.12,84.05Z" transform="translate(-5.4 -1.05)"/><path class="cls-16" d="M216.85,85a5.07,5.07,0,1,0,5.07,5.07A5.07,5.07,0,0,0,216.85,85Z" transform="translate(-5.4 -1.05)"/><rect class="cls-14" x="104.77" y="110.4" width="32.57" height="11.87" rx="2.83"/><polygon class="cls-12" points="119.62 114.03 118.17 114.03 118.32 113.35 119.77 113.35 119.62 114.03"/><polygon class="cls-12" points="119.25 115.81 116.85 115.81 116.99 115.12 119.39 115.12 119.25 115.81"/><polygon class="cls-12" points="118.87 117.59 115.52 117.59 115.67 116.9 119.02 116.9 118.87 117.59"/><polygon class="cls-12" points="118.5 119.37 114.2 119.37 114.35 118.68 118.64 118.68 118.5 119.37"/><path class="cls-15" d="M108.44,111.36a6.34,6.34,0,0,0-.83.3.28.28,0,0,1-.22,0l-1.39-1a.63.63,0,0,0-.74,0l-.91.76a.63.63,0,0,0-.15.72l.77,1.54a.22.22,0,0,1,0,.22,7.44,7.44,0,0,0-.44.78.27.27,0,0,1-.18.13l-1.73.1a.63.63,0,0,0-.56.49l-.2,1.16a.61.61,0,0,0,.35.65l1.58.69a.28.28,0,0,1,.14.18,6.6,6.6,0,0,0,.15.87.28.28,0,0,1,0,.22l-1.26,1.19a.62.62,0,0,0-.11.73l.59,1a.63.63,0,0,0,.69.28l1.65-.49a.31.31,0,0,1,.23,0c.21.2.44.39.67.57a.25.25,0,0,1,.09.2l-.2,1.72a.63.63,0,0,0,.39.63l1.11.4a.63.63,0,0,0,.71-.23l.94-1.44a.28.28,0,0,1,.21-.1h.88a.22.22,0,0,1,.2.09l1,1.45a.62.62,0,0,0,.7.23l1.11-.4a.63.63,0,0,0,.39-.63l-.2-1.71a.31.31,0,0,1,.09-.22,6.13,6.13,0,0,0,.68-.56.26.26,0,0,1,.21-.06l1.66.5a.63.63,0,0,0,.69-.28l.59-1a.62.62,0,0,0-.1-.73l-1.25-1.18a.25.25,0,0,1-.07-.23,6.49,6.49,0,0,0,.16-.88.26.26,0,0,1,.12-.17l1.59-.69a.61.61,0,0,0,.35-.65l-.2-1.16a.63.63,0,0,0-.56-.49l-1.71-.1a.32.32,0,0,1-.2-.14,5.35,5.35,0,0,0-.45-.77.26.26,0,0,1,0-.21l.78-1.55a.63.63,0,0,0-.15-.72l-.91-.76a.63.63,0,0,0-.74,0l-1.38,1a.24.24,0,0,1-.23,0,6.34,6.34,0,0,0-.83-.3.26.26,0,0,1-.15-.16l-.41-1.69a.63.63,0,0,0-.58-.46h-1.18a.63.63,0,0,0-.58.46l-.4,1.68A.27.27,0,0,1,108.44,111.36Z" transform="translate(-5.4 -1.05)"/><path class="cls-16" d="M110.17,112.32a5.07,5.07,0,1,0,5.07,5.07h0A5.07,5.07,0,0,0,110.17,112.32Z" transform="translate(-5.4 -1.05)"/><path class="cls-13" d="M84.68,53.94H73.52A5.94,5.94,0,1,0,73,65.81H84.68A2.84,2.84,0,0,0,87.52,63V56.77A2.85,2.85,0,0,0,84.68,53.94Z" transform="translate(-5.4 -1.05)"/><path class="cls-14" d="M77.86,59.88a4.35,4.35,0,0,1-8.69,0,4.53,4.53,0,0,1,.31-1.62.47.47,0,0,1,.62-.2.48.48,0,0,1,.23.54,3.51,3.51,0,0,0-.25,1.28,3.44,3.44,0,1,0,5-3.05.46.46,0,0,1-.19-.61.45.45,0,0,1,.6-.2h0A4.33,4.33,0,0,1,77.86,59.88Zm-4.34-3a.67.67,0,1,0-.67-.67h0a.67.67,0,0,0,.67.66Zm0,3.68a.67.67,0,0,0,.67-.67.66.66,0,0,0-.31-.56L70.3,56.66,73,60.24a.66.66,0,0,0,.52.31Z" transform="translate(-5.4 -1.05)"/><path class="cls-13" d="M179.34,23.54H168.17a5.94,5.94,0,0,0,0,11.87h11.17a2.83,2.83,0,0,0,2.83-2.83V26.37A2.85,2.85,0,0,0,179.34,23.54Z" transform="translate(-5.4 -1.05)"/><path class="cls-14" d="M172.52,29.48a4.35,4.35,0,0,1-8.69,0,4.53,4.53,0,0,1,.31-1.62.46.46,0,0,1,.62-.2.48.48,0,0,1,.23.54,3.51,3.51,0,0,0-.25,1.28,3.44,3.44,0,1,0,5-3.05.45.45,0,0,1,.42-.8h0A4.34,4.34,0,0,1,172.52,29.48Zm-4.35-3a.67.67,0,1,0-.67-.67h0a.67.67,0,0,0,.67.66Zm0,3.68a.67.67,0,0,0,.37-1.23L165,26.27l2.66,3.57a.64.64,0,0,0,.51.31Z" transform="translate(-5.4 -1.05)"/><path class="cls-13" d="M226.58,180.84H215.41a5.94,5.94,0,0,0,0,11.87h11.17a2.83,2.83,0,0,0,2.83-2.83h0v-6.21A2.83,2.83,0,0,0,226.58,180.84Z" transform="translate(-5.4 -1.05)"/><path class="cls-14" d="M219.75,186.78a4.34,4.34,0,0,1-8.68,0,4.25,4.25,0,0,1,.31-1.62.45.45,0,0,1,.58-.26h0a.46.46,0,0,1,.25.6,3.43,3.43,0,1,0,4.78-1.77.46.46,0,0,1-.12-.64.47.47,0,0,1,.54-.17A4.32,4.32,0,0,1,219.75,186.78Zm-4.34-3a.67.67,0,1,0-.67-.67h0a.67.67,0,0,0,.67.66Zm0,3.68a.68.68,0,0,0,.67-.67.65.65,0,0,0-.3-.56l-3.58-2.66,2.65,3.58a.68.68,0,0,0,.56.3Z" transform="translate(-5.4 -1.05)"/><rect class="cls-14" x="119.59" y="65.83" width="32.57" height="11.87" rx="2.83"/><polygon class="cls-12" points="134.44 69.46 132.99 69.46 133.14 68.78 134.59 68.78 134.44 69.46"/><polygon class="cls-12" points="134.07 71.24 131.67 71.24 131.82 70.55 134.22 70.55 134.07 71.24"/><polygon class="cls-12" points="133.69 73.02 130.35 73.02 130.49 72.33 133.84 72.33 133.69 73.02"/><polygon class="cls-12" points="133.32 74.79 129.03 74.79 129.17 74.11 133.46 74.11 133.32 74.79"/><path class="cls-15" d="M123.26,66.79a6.34,6.34,0,0,0-.83.3.2.2,0,0,1-.21,0l-1.4-1a.63.63,0,0,0-.74,0l-.9.75a.64.64,0,0,0-.15.73l.77,1.54a.28.28,0,0,1,0,.22,6.06,6.06,0,0,0-.45.78.22.22,0,0,1-.18.12l-1.73.11a.61.61,0,0,0-.55.49L116.67,72a.65.65,0,0,0,.35.65l1.58.69a.28.28,0,0,1,.14.18,6.64,6.64,0,0,0,.16.87.29.29,0,0,1-.06.22l-1.26,1.19a.62.62,0,0,0-.11.73l.59,1a.63.63,0,0,0,.69.28l1.65-.49a.31.31,0,0,1,.23,0,7.1,7.1,0,0,0,.67.56.28.28,0,0,1,.1.21l-.2,1.72a.63.63,0,0,0,.38.63l1.11.4a.63.63,0,0,0,.71-.23l.94-1.44a.26.26,0,0,1,.22-.1h.87a.28.28,0,0,1,.21.1l1,1.45a.62.62,0,0,0,.7.23l1.11-.4a.63.63,0,0,0,.39-.63l-.2-1.71a.27.27,0,0,1,.1-.22,7.1,7.1,0,0,0,.67-.56.26.26,0,0,1,.21-.06l1.67.5a.62.62,0,0,0,.68-.28l.6-1a.62.62,0,0,0-.11-.73l-1.25-1.19a.26.26,0,0,1-.07-.22,5.24,5.24,0,0,0,.16-.88.26.26,0,0,1,.12-.17l1.59-.69a.64.64,0,0,0,.36-.65l-.21-1.16a.64.64,0,0,0-.55-.5l-1.72-.1a.28.28,0,0,1-.2-.13,7.3,7.3,0,0,0-.44-.77.26.26,0,0,1,0-.21l.78-1.55a.64.64,0,0,0-.15-.73l-.9-.75a.63.63,0,0,0-.74,0l-1.39,1a.31.31,0,0,1-.23,0,8.29,8.29,0,0,0-.83-.31.23.23,0,0,1-.15-.15l-.41-1.69a.63.63,0,0,0-.58-.46H124.4a.63.63,0,0,0-.58.46l-.4,1.68A.24.24,0,0,1,123.26,66.79Z" transform="translate(-5.4 -1.05)"/><path class="cls-16" d="M125,67.74a5.08,5.08,0,1,0,5.07,5.09h0A5.09,5.09,0,0,0,125,67.74Z" transform="translate(-5.4 -1.05)"/><rect class="cls-17" x="8.6" y="100.19" width="11.87" height="11.87" rx="2.83"/><rect class="cls-17" x="284.9" y="123.32" width="11.87" height="11.87" rx="2.83"/><path class="cls-17" d="M58,120a.62.62,0,0,0,.7.23l1.11-.4a.63.63,0,0,0,.39-.63l-.13-1.09H86.16A2.83,2.83,0,0,0,89,115.29V109a2.83,2.83,0,0,0-2.83-2.83H62.29v-.07l-.91-.75a.63.63,0,0,0-.74,0l-1.13.85h-.2a2.74,2.74,0,0,0-.64.08,3.75,3.75,0,0,0-.47-.17A.24.24,0,0,1,58,106l-.41-1.69a.63.63,0,0,0-.58-.46H55.83a.63.63,0,0,0-.58.46l-.4,1.68a.25.25,0,0,1-.16.17,6.34,6.34,0,0,0-.83.3.28.28,0,0,1-.22,0l-1.39-1a.63.63,0,0,0-.74,0l-.91.75a.65.65,0,0,0-.15.73l.77,1.54a.22.22,0,0,1,0,.22,7.44,7.44,0,0,0-.44.78.23.23,0,0,1-.18.12l-1.73.11a.63.63,0,0,0-.56.49l-.2,1.16a.61.61,0,0,0,.35.65l1.58.69a.28.28,0,0,1,.14.18,6.6,6.6,0,0,0,.15.87.28.28,0,0,1,0,.22L49,115.08a.62.62,0,0,0-.11.73l.59,1a.63.63,0,0,0,.69.28l1.65-.49a.31.31,0,0,1,.23,0c.21.2.44.39.67.57a.25.25,0,0,1,.09.2l-.2,1.72a.63.63,0,0,0,.39.63l1.11.4a.63.63,0,0,0,.71-.23l.94-1.44a.28.28,0,0,1,.21-.1h.88a.22.22,0,0,1,.2.09Z" transform="translate(-5.4 -1.05)"/><path class="cls-17" d="M43.74,180.84H19.87l-.05-.07-.91-.76a.63.63,0,0,0-.74,0l-1.13.85h-.2a3.39,3.39,0,0,0-.64.07l-.47-.17a.23.23,0,0,1-.15-.15l-.41-1.69a.63.63,0,0,0-.58-.46H13.41a.63.63,0,0,0-.58.46l-.4,1.67a.25.25,0,0,1-.16.17,8.29,8.29,0,0,0-.83.31.41.41,0,0,1-.22,0l-1.39-1a.66.66,0,0,0-.74,0l-.91.76a.65.65,0,0,0-.15.73L8.8,183a.22.22,0,0,1,0,.22,7.44,7.44,0,0,0-.44.78.28.28,0,0,1-.18.12l-1.73.1a.65.65,0,0,0-.56.5l-.2,1.16a.62.62,0,0,0,.35.65l1.58.68a.28.28,0,0,1,.14.18,6.47,6.47,0,0,0,.15.88.23.23,0,0,1,0,.21l-1.26,1.2a.62.62,0,0,0-.11.73l.59,1a.6.6,0,0,0,.69.27l1.65-.49a.27.27,0,0,1,.23.06,6,6,0,0,0,.67.56.25.25,0,0,1,.09.2l-.2,1.73a.63.63,0,0,0,.39.63l1.11.4a.63.63,0,0,0,.71-.23l.94-1.44a.25.25,0,0,1,.21-.1h.88a.26.26,0,0,1,.2.1l1,1.45a.63.63,0,0,0,.7.23l1.11-.4a.63.63,0,0,0,.39-.63l-.13-1.09h26a2.85,2.85,0,0,0,2.83-2.83v-6.21A2.84,2.84,0,0,0,43.74,180.84Z" transform="translate(-5.4 -1.05)"/><path class="cls-17" d="M43.74,157.94H19.87l-.05-.07-.91-.76a.66.66,0,0,0-.74,0L17,158h-.2a2.74,2.74,0,0,0-.64.08c-.16-.06-.31-.13-.47-.18a.23.23,0,0,1-.15-.15L15.17,156a.63.63,0,0,0-.58-.46H13.41a.63.63,0,0,0-.58.46l-.4,1.67a.26.26,0,0,1-.16.18,6.34,6.34,0,0,0-.83.3.28.28,0,0,1-.22,0l-1.39-1a.66.66,0,0,0-.74,0l-.91.76a.65.65,0,0,0-.15.73l.77,1.54a.22.22,0,0,1,0,.22,7.44,7.44,0,0,0-.44.78.28.28,0,0,1-.18.12l-1.73.11a.63.63,0,0,0-.56.49L5.68,163a.61.61,0,0,0,.35.65l1.58.69a.26.26,0,0,1,.14.17,6.47,6.47,0,0,0,.15.88.23.23,0,0,1-.05.21l-1.26,1.2a.62.62,0,0,0-.11.73l.59,1a.6.6,0,0,0,.69.27l1.65-.49a.32.32,0,0,1,.23.06,6,6,0,0,0,.67.56.25.25,0,0,1,.09.2l-.2,1.73a.63.63,0,0,0,.39.63l1.11.4a.63.63,0,0,0,.71-.23l.94-1.44a.25.25,0,0,1,.21-.1h.88a.26.26,0,0,1,.2.1l1,1.45a.62.62,0,0,0,.7.23l1.11-.4a.63.63,0,0,0,.39-.63l-.13-1.09h26A2.84,2.84,0,0,0,46.57,167v-6.21a2.83,2.83,0,0,0-2.81-2.85Z" transform="translate(-5.4 -1.05)"/><path class="cls-17" d="M43.74,53.94H19.87l-.05-.07-.91-.76a.66.66,0,0,0-.74,0L17,53.94h-.2a2.74,2.74,0,0,0-.64.08c-.16-.06-.31-.13-.47-.18a.23.23,0,0,1-.15-.15L15.17,52a.63.63,0,0,0-.58-.46H13.41a.63.63,0,0,0-.58.46l-.4,1.67a.26.26,0,0,1-.16.18,6.34,6.34,0,0,0-.83.3.28.28,0,0,1-.22,0l-1.39-1a.66.66,0,0,0-.74,0l-.91.76A.65.65,0,0,0,8,54.6l.77,1.54a.22.22,0,0,1,0,.22,7.44,7.44,0,0,0-.44.78.28.28,0,0,1-.18.12l-1.73.11a.63.63,0,0,0-.56.49L5.68,59a.61.61,0,0,0,.35.65l1.58.69a.26.26,0,0,1,.14.17,6.47,6.47,0,0,0,.15.88.23.23,0,0,1-.05.21L6.59,62.8a.62.62,0,0,0-.11.73l.59,1a.6.6,0,0,0,.69.27l1.65-.49a.32.32,0,0,1,.23.06,6,6,0,0,0,.67.56.25.25,0,0,1,.09.2l-.2,1.73a.63.63,0,0,0,.39.63l1.11.4a.63.63,0,0,0,.71-.23l.94-1.44a.25.25,0,0,1,.21-.1h.88a.26.26,0,0,1,.2.1l1,1.45a.62.62,0,0,0,.7.23l1.11-.4a.63.63,0,0,0,.39-.63l-.13-1.09h26A2.84,2.84,0,0,0,46.57,63V56.77A2.83,2.83,0,0,0,43.74,53.94Z" transform="translate(-5.4 -1.05)"/><path class="cls-17" d="M43.74,31H19.82l-.91-.75a.63.63,0,0,0-.74,0L17,31h-.2a2.74,2.74,0,0,0-.64.08,3.75,3.75,0,0,0-.47-.17.26.26,0,0,1-.15-.16l-.41-1.69a.63.63,0,0,0-.58-.46H13.41a.63.63,0,0,0-.58.46l-.4,1.68a.25.25,0,0,1-.16.17,6.34,6.34,0,0,0-.83.3.28.28,0,0,1-.22,0l-1.39-1a.63.63,0,0,0-.74,0L8.18,31a.68.68,0,0,0-.18.7l.77,1.54a.22.22,0,0,1,0,.22,7.44,7.44,0,0,0-.44.78.23.23,0,0,1-.18.12l-1.73.11a.63.63,0,0,0-.56.49l-.2,1.16a.61.61,0,0,0,.35.65l1.58.69a.28.28,0,0,1,.14.18,6.6,6.6,0,0,0,.15.87.25.25,0,0,1,0,.22L6.59,39.92a.62.62,0,0,0-.11.73l.59,1a.63.63,0,0,0,.69.28l1.65-.49a.31.31,0,0,1,.23,0c.21.2.44.39.67.57a.25.25,0,0,1,.09.2L10.2,44a.63.63,0,0,0,.39.63l1.11.4a.63.63,0,0,0,.71-.23l.94-1.44a.28.28,0,0,1,.21-.1h.88a.22.22,0,0,1,.2.09l1,1.45a.62.62,0,0,0,.7.23l1.11-.4A.63.63,0,0,0,17.8,44l-.13-1.09H43.74a2.83,2.83,0,0,0,2.83-2.83V33.87A2.83,2.83,0,0,0,43.78,31Z" transform="translate(-5.4 -1.05)"/><path class="cls-17" d="M95.12,31H71.25v-.07l-.91-.75a.63.63,0,0,0-.74,0L68.42,31h-.2a2.74,2.74,0,0,0-.64.08,3.75,3.75,0,0,0-.47-.17.26.26,0,0,1-.15-.16l-.41-1.69A.63.63,0,0,0,66,28.6H64.79a.63.63,0,0,0-.58.46l-.4,1.68a.25.25,0,0,1-.16.17,6.34,6.34,0,0,0-.83.3.2.2,0,0,1-.21,0l-1.4-1a.63.63,0,0,0-.74,0l-.9.75a.64.64,0,0,0-.15.73l.77,1.54a.28.28,0,0,1,0,.22,7.44,7.44,0,0,0-.44.78.22.22,0,0,1-.18.12l-1.73.11a.61.61,0,0,0-.55.49l-.21,1.16a.65.65,0,0,0,.35.65l1.58.69a.28.28,0,0,1,.14.18,5.13,5.13,0,0,0,.16.87.29.29,0,0,1-.06.22L58,39.92a.62.62,0,0,0-.11.73l.59,1a.63.63,0,0,0,.69.28l1.65-.49a.31.31,0,0,1,.23,0c.21.2.44.39.67.57a.2.2,0,0,1,.09.2L61.59,44a.63.63,0,0,0,.38.63l1.11.4a.63.63,0,0,0,.71-.23l.94-1.44a.32.32,0,0,1,.22-.1h.87a.22.22,0,0,1,.2.09l1,1.45a.62.62,0,0,0,.7.23l1.11-.4a.63.63,0,0,0,.39-.63l-.12-1.09h26A2.83,2.83,0,0,0,98,40.13V33.87A2.83,2.83,0,0,0,95.21,31Z" transform="translate(-5.4 -1.05)"/><path class="cls-17" d="M95.12,180.84H71.25v-.07l-.91-.76a.63.63,0,0,0-.74,0l-1.13.85h-.2a3.39,3.39,0,0,0-.64.07l-.47-.17a.23.23,0,0,1-.15-.15l-.41-1.69a.63.63,0,0,0-.58-.46H64.79a.63.63,0,0,0-.58.46l-.4,1.67a.23.23,0,0,1-.16.17,8.29,8.29,0,0,0-.83.31.26.26,0,0,1-.21,0l-1.4-1a.66.66,0,0,0-.74,0l-.9.76a.64.64,0,0,0-.15.73l.77,1.54a.28.28,0,0,1,0,.22,7.44,7.44,0,0,0-.44.78.23.23,0,0,1-.18.12l-1.73.1a.64.64,0,0,0-.55.5L57.08,186a.65.65,0,0,0,.35.65l1.58.68a.28.28,0,0,1,.14.18,5.24,5.24,0,0,0,.16.88.26.26,0,0,1-.06.21L58,189.72a.62.62,0,0,0-.11.73l.59,1a.6.6,0,0,0,.69.27l1.65-.49a.27.27,0,0,1,.23.06,7.1,7.1,0,0,0,.67.56.25.25,0,0,1,.09.2l-.19,1.73a.63.63,0,0,0,.38.63l1.11.4a.63.63,0,0,0,.71-.23l.94-1.44A.26.26,0,0,1,65,193h.87a.26.26,0,0,1,.2.1l1,1.45a.63.63,0,0,0,.7.23l1.11-.4a.63.63,0,0,0,.39-.63l-.12-1.09h26A2.84,2.84,0,0,0,98,189.9v-6.23a2.83,2.83,0,0,0-2.83-2.83Z" transform="translate(-5.4 -1.05)"/><path class="cls-17" d="M180.24,180.84H156.37l-.05-.07-.91-.76a.63.63,0,0,0-.74,0l-1.13.85h-.2a3.39,3.39,0,0,0-.64.07l-.47-.17a.23.23,0,0,1-.15-.15l-.41-1.69a.63.63,0,0,0-.58-.46h-1.18a.63.63,0,0,0-.58.46l-.4,1.67a.25.25,0,0,1-.16.17,8.29,8.29,0,0,0-.83.31.41.41,0,0,1-.22,0l-1.39-1a.66.66,0,0,0-.74,0l-.91.76a.65.65,0,0,0-.15.73l.77,1.54a.22.22,0,0,1,0,.22,7.44,7.44,0,0,0-.44.78.28.28,0,0,1-.18.12l-1.73.1a.65.65,0,0,0-.56.5l-.2,1.16a.62.62,0,0,0,.35.65l1.58.68a.28.28,0,0,1,.14.18,6.47,6.47,0,0,0,.15.88.23.23,0,0,1,0,.21l-1.26,1.2a.62.62,0,0,0-.11.73l.59,1a.6.6,0,0,0,.69.27l1.65-.49a.27.27,0,0,1,.23.06,6,6,0,0,0,.67.56.25.25,0,0,1,.09.2l-.2,1.73a.63.63,0,0,0,.39.63l1.11.4a.63.63,0,0,0,.71-.23l.94-1.44a.25.25,0,0,1,.21-.1H151a.26.26,0,0,1,.2.1l1,1.45a.63.63,0,0,0,.7.23l1.11-.4a.63.63,0,0,0,.39-.63l-.13-1.09h26.07a2.85,2.85,0,0,0,2.83-2.83v-6.21a2.83,2.83,0,0,0-2.78-2.88Z" transform="translate(-5.4 -1.05)"/><path class="cls-17" d="M299.34,180.84H275.47a.18.18,0,0,0-.05-.07l-.9-.76a.63.63,0,0,0-.74,0l-1.14.85h-.2a3.39,3.39,0,0,0-.64.07l-.47-.17a.23.23,0,0,1-.15-.15l-.41-1.69a.63.63,0,0,0-.58-.46H269a.63.63,0,0,0-.58.46l-.4,1.67a.23.23,0,0,1-.16.17,8.29,8.29,0,0,0-.83.31.26.26,0,0,1-.21,0l-1.4-1a.66.66,0,0,0-.74,0l-.9.76a.64.64,0,0,0-.15.73l.77,1.54a.28.28,0,0,1,0,.22,6.06,6.06,0,0,0-.45.78.23.23,0,0,1-.18.12l-1.73.1a.64.64,0,0,0-.55.5l-.21,1.16a.65.65,0,0,0,.35.65l1.58.68a.28.28,0,0,1,.14.18,6.49,6.49,0,0,0,.16.88.26.26,0,0,1-.06.21l-1.26,1.2a.62.62,0,0,0-.11.73l.59,1a.6.6,0,0,0,.69.27l1.65-.49a.27.27,0,0,1,.23.06,7.1,7.1,0,0,0,.67.56.2.2,0,0,1,.09.2l-.19,1.73a.63.63,0,0,0,.39.63l1.1.4a.63.63,0,0,0,.71-.23l.94-1.44a.26.26,0,0,1,.22-.1h.88a.26.26,0,0,1,.2.1l.95,1.45a.65.65,0,0,0,.71.23l1.1-.4a.62.62,0,0,0,.39-.63l-.12-1.09h26.06a2.85,2.85,0,0,0,2.83-2.83v-6.21a2.83,2.83,0,0,0-2.78-2.88Z" transform="translate(-5.4 -1.05)"/><path class="cls-17" d="M299.34,157.94H275.47l-.05-.07-.9-.76a.66.66,0,0,0-.74,0l-1.14.85h-.2a2.74,2.74,0,0,0-.64.08c-.15-.06-.31-.13-.47-.18a.23.23,0,0,1-.15-.15l-.41-1.69a.63.63,0,0,0-.58-.46H269a.63.63,0,0,0-.58.46l-.4,1.67a.26.26,0,0,1-.16.18,6.34,6.34,0,0,0-.83.3.26.26,0,0,1-.21,0l-1.4-1a.66.66,0,0,0-.74,0l-.9.76a.64.64,0,0,0-.15.73l.77,1.54a.28.28,0,0,1,0,.22,6.06,6.06,0,0,0-.45.78.23.23,0,0,1-.18.12l-1.73.11a.61.61,0,0,0-.55.49l-.21,1.16a.65.65,0,0,0,.35.65l1.58.69a.26.26,0,0,1,.14.17,6.49,6.49,0,0,0,.16.88.26.26,0,0,1-.06.21l-1.26,1.2a.62.62,0,0,0-.11.73l.59,1a.6.6,0,0,0,.69.27l1.65-.49a.32.32,0,0,1,.23.06,7.1,7.1,0,0,0,.67.56.2.2,0,0,1,.09.2l-.19,1.73a.63.63,0,0,0,.39.63l1.1.4a.63.63,0,0,0,.71-.23l.94-1.44a.26.26,0,0,1,.22-.1h.88a.26.26,0,0,1,.2.1l.95,1.45a.63.63,0,0,0,.71.23l1.1-.4a.62.62,0,0,0,.39-.63l-.12-1.09h26.06a2.83,2.83,0,0,0,2.83-2.83v-6.21a2.83,2.83,0,0,0-2.78-2.88Z" transform="translate(-5.4 -1.05)"/><path class="cls-17" d="M204,116.08v-6.21a2.85,2.85,0,0,0-2.83-2.83H177.25l-.06-.07-.9-.75a.63.63,0,0,0-.74,0l-1.13.85h-.21a2.72,2.72,0,0,0-.63.08,4.59,4.59,0,0,0-.48-.17.29.29,0,0,1-.15-.16l-.4-1.69a.63.63,0,0,0-.58-.46h-1.18a.63.63,0,0,0-.58.46l-.4,1.68a.3.3,0,0,1-.16.17,6,6,0,0,0-.84.3.26.26,0,0,1-.21,0l-1.39-1a.63.63,0,0,0-.74,0l-.91.75a.64.64,0,0,0-.15.73l.77,1.54a.22.22,0,0,1,0,.22,6,6,0,0,0-.44.78.23.23,0,0,1-.18.12l-1.73.11a.63.63,0,0,0-.56.49l-.2,1.16a.61.61,0,0,0,.35.65l1.58.69a.23.23,0,0,1,.13.18,6.64,6.64,0,0,0,.16.87.25.25,0,0,1-.06.22L164,115.92a.62.62,0,0,0-.1.73l.59,1a.63.63,0,0,0,.69.28l1.64-.49a.27.27,0,0,1,.23,0c.22.2.44.39.68.57a.25.25,0,0,1,.09.2l-.2,1.72a.63.63,0,0,0,.39.63l1.11.4a.62.62,0,0,0,.7-.23l1-1.44a.28.28,0,0,1,.21-.1h.88a.22.22,0,0,1,.2.09l1,1.45a.62.62,0,0,0,.7.23l1.11-.4a.63.63,0,0,0,.39-.63l-.13-1.09H201.2A2.84,2.84,0,0,0,204,116.08Z" transform="translate(-5.4 -1.05)"/><path class="cls-17" d="M204,87a2.85,2.85,0,0,0-2.83-2.83H177.25l-.06-.06-.9-.76a.63.63,0,0,0-.74,0l-1.13.84h-.21a2.72,2.72,0,0,0-.63.08,4.59,4.59,0,0,0-.48-.17.29.29,0,0,1-.15-.16l-.4-1.68a.63.63,0,0,0-.58-.46h-1.18a.63.63,0,0,0-.58.46l-.4,1.67a.3.3,0,0,1-.16.17,6,6,0,0,0-.84.3.26.26,0,0,1-.21,0l-1.39-1a.63.63,0,0,0-.74,0l-.91.76a.6.6,0,0,0-.15.72l.77,1.54a.31.31,0,0,1,0,.23,4.51,4.51,0,0,0-.44.77.29.29,0,0,1-.18.13l-1.73.1a.63.63,0,0,0-.56.49l-.2,1.16a.63.63,0,0,0,.35.66l1.58.68a.23.23,0,0,1,.13.18,6.64,6.64,0,0,0,.16.87.25.25,0,0,1-.06.22L164,93a.62.62,0,0,0-.1.73l.59,1a.63.63,0,0,0,.69.27l1.64-.49a.24.24,0,0,1,.23,0,5.27,5.27,0,0,0,.68.57.25.25,0,0,1,.09.2l-.2,1.72a.63.63,0,0,0,.39.63l1.11.41a.64.64,0,0,0,.7-.24l1-1.43a.26.26,0,0,1,.21-.11h.88a.22.22,0,0,1,.2.09l1,1.45a.64.64,0,0,0,.7.24l1.11-.41a.63.63,0,0,0,.39-.63l-.21-1h26.07A2.84,2.84,0,0,0,204,93.2V87Z" transform="translate(-5.4 -1.05)"/><path class="cls-17" d="M299.34,61.24H275.47l-.05-.06-.9-.76a.63.63,0,0,0-.74,0l-1.14.84h-.2a2.74,2.74,0,0,0-.64.08l-.47-.17a.26.26,0,0,1-.15-.16l-.41-1.68a.62.62,0,0,0-.58-.46H269a.63.63,0,0,0-.58.46L268,61a.25.25,0,0,1-.16.17,6.34,6.34,0,0,0-.83.3.2.2,0,0,1-.21,0l-1.4-1a.63.63,0,0,0-.74,0l-.9.76a.64.64,0,0,0-.15.73l.77,1.53a.31.31,0,0,1,0,.23,5.35,5.35,0,0,0-.45.77.24.24,0,0,1-.18.13l-1.73.1a.64.64,0,0,0-.55.49l-.21,1.16a.67.67,0,0,0,.35.66l1.58.68a.28.28,0,0,1,.14.18,6.49,6.49,0,0,0,.16.88.26.26,0,0,1-.06.21l-1.26,1.19a.62.62,0,0,0-.11.73l.59,1a.63.63,0,0,0,.69.27l1.65-.49a.24.24,0,0,1,.23.06,7.1,7.1,0,0,0,.67.56.2.2,0,0,1,.09.2l-.19,1.72a.65.65,0,0,0,.39.64l1.1.4A.64.64,0,0,0,268,75l.94-1.44a.27.27,0,0,1,.22-.11H270a.26.26,0,0,1,.2.1l1,1.45a.64.64,0,0,0,.71.24l1.1-.41a.62.62,0,0,0,.39-.63l-.12-1.08h26.06a2.85,2.85,0,0,0,2.83-2.84v-6.2A2.85,2.85,0,0,0,299.34,61.24Z" transform="translate(-5.4 -1.05)"/><path class="cls-17" d="M182.32,9.43l1.58.69a.28.28,0,0,1,.14.18,6.6,6.6,0,0,0,.15.87.25.25,0,0,1-.05.22l-1.26,1.19a.62.62,0,0,0-.11.73l.59,1a.63.63,0,0,0,.69.28l1.65-.49a.25.25,0,0,1,.22.05,7.22,7.22,0,0,0,.68.56.27.27,0,0,1,.09.21l-.2,1.72a.63.63,0,0,0,.39.63l1.11.4a.62.62,0,0,0,.7-.23l.95-1.44a.28.28,0,0,1,.21-.1h.88a.26.26,0,0,1,.2.1l1,1.45a.62.62,0,0,0,.7.23l1.11-.4a.63.63,0,0,0,.39-.63L194,15.57h26a2.85,2.85,0,0,0,2.83-2.83V6.53A2.85,2.85,0,0,0,220,3.7H196.16V3.63l-.91-.75a.63.63,0,0,0-.74,0l-1.13.85h-.21a2.72,2.72,0,0,0-.63.08,4.59,4.59,0,0,0-.48-.17.29.29,0,0,1-.15-.16l-.4-1.69a.63.63,0,0,0-.58-.46H189.7a.63.63,0,0,0-.58.46l-.4,1.68a.25.25,0,0,1-.16.17,6.34,6.34,0,0,0-.83.3.28.28,0,0,1-.22,0l-1.39-1a.63.63,0,0,0-.74,0l-.91.75a.65.65,0,0,0-.15.73L185.09,6a.22.22,0,0,1,0,.22,7.44,7.44,0,0,0-.44.78.23.23,0,0,1-.18.12l-1.73.11a.63.63,0,0,0-.56.49L182,8.78A.6.6,0,0,0,182.32,9.43Z" transform="translate(-5.4 -1.05)"/><path class="cls-17" d="M117,52.56l1.58.68a.28.28,0,0,1,.14.18,6.49,6.49,0,0,0,.16.88.26.26,0,0,1-.06.21l-1.26,1.19a.64.64,0,0,0-.11.74l.59,1a.63.63,0,0,0,.69.27l1.65-.49a.24.24,0,0,1,.23.06,7.1,7.1,0,0,0,.67.56.26.26,0,0,1,.1.2l-.2,1.72a.65.65,0,0,0,.38.64l1.11.4a.65.65,0,0,0,.71-.23l.94-1.44a.27.27,0,0,1,.22-.11h.87a.28.28,0,0,1,.21.1l1,1.44a.62.62,0,0,0,.7.24l1.11-.41a.63.63,0,0,0,.39-.63l-.12-1.08h26.06a2.85,2.85,0,0,0,2.84-2.84v-6.2a2.85,2.85,0,0,0-2.84-2.84h-23.9l-.05-.06-.9-.76a.63.63,0,0,0-.74,0l-1.14.84h-.2a2.74,2.74,0,0,0-.64.08l-.47-.17a.23.23,0,0,1-.15-.15l-.41-1.69c-.06-.26-.32-1.06-.58-1.06H124.4c-.26,0-.52.8-.58,1.06l-.4,1.67a.23.23,0,0,1-.16.17,6.39,6.39,0,0,0-.83.31.26.26,0,0,1-.21,0l-1.4-1a.63.63,0,0,0-.74,0l-.9.76a.64.64,0,0,0-.15.73L119.8,49a.31.31,0,0,1,0,.23,5.35,5.35,0,0,0-.45.77.24.24,0,0,1-.18.13l-1.73.1a.64.64,0,0,0-.55.49l-.21,1.17A.65.65,0,0,0,117,52.56Z" transform="translate(-5.4 -1.05)"/><path class="cls-17" d="M117,9.43l1.58.69a.28.28,0,0,1,.14.18,6.64,6.64,0,0,0,.16.87.29.29,0,0,1-.06.22l-1.26,1.19a.62.62,0,0,0-.11.73l.59,1a.63.63,0,0,0,.69.28l1.65-.49a.27.27,0,0,1,.23.05,7.1,7.1,0,0,0,.67.56.28.28,0,0,1,.1.21l-.2,1.72a.63.63,0,0,0,.38.63l1.11.4a.63.63,0,0,0,.71-.23l.94-1.44a.32.32,0,0,1,.22-.1h.87a.28.28,0,0,1,.21.1l1,1.45a.62.62,0,0,0,.7.23l1.11-.4a.63.63,0,0,0,.39-.63l-.12-1.09h26.06a2.85,2.85,0,0,0,2.84-2.83V6.53a2.85,2.85,0,0,0-2.84-2.83h-23.9l-.05-.07-.9-.75a.63.63,0,0,0-.74,0L128,3.7h-.2a2.74,2.74,0,0,0-.64.08,3.75,3.75,0,0,0-.47-.17.26.26,0,0,1-.15-.16l-.41-1.69a.63.63,0,0,0-.58-.46H124.4a.63.63,0,0,0-.58.46l-.4,1.68a.25.25,0,0,1-.16.17,6.34,6.34,0,0,0-.83.3.2.2,0,0,1-.21,0l-1.4-1a.63.63,0,0,0-.74,0l-.9.75a.64.64,0,0,0-.15.73l.77,1.54a.28.28,0,0,1,0,.22,6.06,6.06,0,0,0-.45.78.22.22,0,0,1-.18.12l-1.73.11a.61.61,0,0,0-.55.49l-.21,1.16A.64.64,0,0,0,117,9.43Z" transform="translate(-5.4 -1.05)"/><path class="cls-17" d="M221.09,146.91a2.83,2.83,0,0,0,2.83-2.83h0v-6.21a2.83,2.83,0,0,0-2.83-2.83H197.22l-.05-.07-.9-.75a.63.63,0,0,0-.74,0l-1.14.85h-.2a2.74,2.74,0,0,0-.64.08,3.75,3.75,0,0,0-.47-.17.26.26,0,0,1-.15-.16l-.41-1.69a.63.63,0,0,0-.58-.46h-1.18a.63.63,0,0,0-.58.46l-.4,1.68a.25.25,0,0,1-.16.17,6.34,6.34,0,0,0-.83.3.2.2,0,0,1-.21,0l-1.4-1a.63.63,0,0,0-.74,0l-.9.75a.64.64,0,0,0-.15.73l.77,1.54a.28.28,0,0,1,0,.22,6.06,6.06,0,0,0-.45.78.22.22,0,0,1-.18.12l-1.73.11a.61.61,0,0,0-.55.49l-.21,1.16a.65.65,0,0,0,.35.65l1.58.69a.28.28,0,0,1,.14.18,6.64,6.64,0,0,0,.16.87.29.29,0,0,1-.06.22L184,144a.62.62,0,0,0-.11.73l.59,1a.63.63,0,0,0,.69.28l1.65-.49a.31.31,0,0,1,.23,0c.21.2.44.39.67.57a.2.2,0,0,1,.09.2l-.19,1.72a.63.63,0,0,0,.39.63l1.1.4a.63.63,0,0,0,.71-.23l.94-1.44a.32.32,0,0,1,.22-.1h.88a.25.25,0,0,1,.2.09l1,1.45a.63.63,0,0,0,.71.23l1.1-.4a.62.62,0,0,0,.39-.63L195,146.9Z" transform="translate(-5.4 -1.05)"/><path class="cls-17" d="M246.59,107H222.72l-.05-.07-.9-.75a.63.63,0,0,0-.74,0l-1.14.85h-.2a2.74,2.74,0,0,0-.64.08,3.75,3.75,0,0,0-.47-.17.26.26,0,0,1-.15-.16L218,105.1a.63.63,0,0,0-.58-.46h-1.18a.63.63,0,0,0-.58.46l-.4,1.68a.25.25,0,0,1-.16.17,6.34,6.34,0,0,0-.83.3.2.2,0,0,1-.21,0l-1.4-1a.63.63,0,0,0-.74,0l-.9.75a.64.64,0,0,0-.15.73l.77,1.54a.28.28,0,0,1,0,.22,6.06,6.06,0,0,0-.45.78.22.22,0,0,1-.18.12l-1.73.11a.61.61,0,0,0-.55.49l-.21,1.16a.65.65,0,0,0,.35.65l1.58.69a.28.28,0,0,1,.14.18,6.64,6.64,0,0,0,.16.87.29.29,0,0,1-.06.22L209.43,116a.62.62,0,0,0-.11.73l.59,1a.63.63,0,0,0,.69.28l1.65-.49a.27.27,0,0,1,.23,0c.21.2.44.39.67.57a.2.2,0,0,1,.09.2l-.19,1.72a.63.63,0,0,0,.39.63l1.1.4a.63.63,0,0,0,.71-.23l.94-1.44a.32.32,0,0,1,.22-.1h.88a.25.25,0,0,1,.2.09l.95,1.45a.63.63,0,0,0,.71.23l1.1-.4a.62.62,0,0,0,.39-.63l-.12-1.09h26.06a2.83,2.83,0,0,0,2.83-2.83h0v-6.21a2.83,2.83,0,0,0-2.78-2.88Z" transform="translate(-5.4 -1.05)"/><path class="cls-17" d="M246.59,84.14H222.72l-.05-.06-.9-.76a.63.63,0,0,0-.74,0l-1.14.84h-.2a2.74,2.74,0,0,0-.64.08,3.75,3.75,0,0,0-.47-.17.26.26,0,0,1-.15-.16l-.43-1.7a.62.62,0,0,0-.58-.46h-1.18a.63.63,0,0,0-.58.46l-.4,1.67a.25.25,0,0,1-.16.17,6.34,6.34,0,0,0-.83.3.2.2,0,0,1-.21,0l-1.4-1a.63.63,0,0,0-.74,0l-.9.76a.6.6,0,0,0-.15.72l.77,1.54a.31.31,0,0,1,0,.23,5.35,5.35,0,0,0-.45.77.24.24,0,0,1-.18.13l-1.73.1a.61.61,0,0,0-.55.49l-.21,1.16a.67.67,0,0,0,.35.66l1.58.68a.28.28,0,0,1,.14.18,6.64,6.64,0,0,0,.16.87.29.29,0,0,1-.06.22L209.44,93a.62.62,0,0,0-.11.73l.59,1a.63.63,0,0,0,.69.27l1.65-.49a.31.31,0,0,1,.23,0,5.18,5.18,0,0,0,.67.57.2.2,0,0,1,.09.2L213.06,97a.62.62,0,0,0,.39.63l1.1.41a.65.65,0,0,0,.71-.24l.94-1.43a.27.27,0,0,1,.22-.11h.88a.25.25,0,0,1,.2.09l.95,1.45a.65.65,0,0,0,.71.24l1.1-.41a.63.63,0,0,0,.39-.63l-.12-1h26.06a2.83,2.83,0,0,0,2.83-2.83h0V87a2.84,2.84,0,0,0-2.82-2.86Z" transform="translate(-5.4 -1.05)"/><path class="cls-17" d="M142.74,114.28a2.83,2.83,0,0,0-2.83-2.83H116l0-.07-.91-.75a.63.63,0,0,0-.74,0l-1.13.85H113a2.74,2.74,0,0,0-.64.08,3.75,3.75,0,0,0-.47-.17.26.26,0,0,1-.15-.16l-.41-1.69a.63.63,0,0,0-.58-.46h-1.18a.63.63,0,0,0-.58.46l-.4,1.68a.25.25,0,0,1-.16.17,6.34,6.34,0,0,0-.83.3.28.28,0,0,1-.22,0l-1.39-1a.63.63,0,0,0-.74,0l-.91.75a.65.65,0,0,0-.15.73l.77,1.54a.22.22,0,0,1,0,.22,7.44,7.44,0,0,0-.44.78.23.23,0,0,1-.18.12l-1.73.11a.63.63,0,0,0-.56.49l-.2,1.16a.61.61,0,0,0,.35.65l1.58.69a.28.28,0,0,1,.14.18,6.6,6.6,0,0,0,.15.87.28.28,0,0,1,0,.22l-1.26,1.19a.62.62,0,0,0-.11.73l.59,1a.63.63,0,0,0,.69.28l1.65-.49a.31.31,0,0,1,.23,0c.21.2.44.39.67.57a.25.25,0,0,1,.09.2l-.2,1.72a.63.63,0,0,0,.39.63l1.11.4a.63.63,0,0,0,.71-.23l.94-1.44a.28.28,0,0,1,.21-.1h.88a.22.22,0,0,1,.2.09l1,1.45a.62.62,0,0,0,.7.23l1.11-.4a.63.63,0,0,0,.39-.63l-.13-1.09H140a2.83,2.83,0,0,0,2.83-2.83h0Z" transform="translate(-5.4 -1.05)"/><path class="cls-17" d="M84.68,53.94H73.52A5.94,5.94,0,1,0,73,65.81H84.68A2.84,2.84,0,0,0,87.52,63V56.77A2.85,2.85,0,0,0,84.68,53.94Z" transform="translate(-5.4 -1.05)"/><path class="cls-17" d="M179.34,23.54H168.17a5.94,5.94,0,0,0,0,11.87h11.17a2.83,2.83,0,0,0,2.83-2.83V26.37A2.85,2.85,0,0,0,179.34,23.54Z" transform="translate(-5.4 -1.05)"/><path class="cls-17" d="M226.58,180.84H215.41a5.94,5.94,0,0,0,0,11.87h11.17a2.83,2.83,0,0,0,2.83-2.83h0v-6.21A2.83,2.83,0,0,0,226.58,180.84Z" transform="translate(-5.4 -1.05)"/><path class="cls-18" d="M237,181.3a6.5,6.5,0,0,0,1.08-.24,7.93,7.93,0,0,0,3-1.7l3.67,9.27a20.44,20.44,0,0,1-3,2.49,6.48,6.48,0,0,1-3.41,1.23,2.5,2.5,0,0,1-2.2-1.09c.57-.52,2-1.51,2.48-1.18s-.44,1.48-.44,1.48c1.29-1,1.33-1.58,1.23-1.86l-.33-.46m.21.27-4.3-9.69a8.34,8.34,0,0,0-1,0,11.29,11.29,0,0,0-3.16.46,10.26,10.26,0,0,0-3.81,2l4.65,11.79a26.43,26.43,0,0,1,3.59-3.18,6.45,6.45,0,0,1,3.36-1.46,1.8,1.8,0,0,1,.61.08Z" transform="translate(-5.4 -1.05)"/><path class="cls-14" d="M241.06,179.36a7.93,7.93,0,0,1-3,1.7,6.5,6.5,0,0,1-1.08.24l2.4,8.4h0c.1.28.06.88-1.23,1.86,0,0,.9-1.15.44-1.48s-1.91.66-2.48,1.18a2.5,2.5,0,0,0,2.2,1.09,6.48,6.48,0,0,0,3.41-1.23,20.44,20.44,0,0,0,3-2.49Z" transform="translate(-5.4 -1.05)"/><path class="cls-12" d="M241.57,190.8a19.32,19.32,0,0,0,2.77-2.25l-1.09-2.77a14.72,14.72,0,0,1-2.76,2Z" transform="translate(-5.4 -1.05)"/><path class="cls-12" d="M242,182.68l-1.1-2.78a8.31,8.31,0,0,1-2.77,1.47l1.12,3.1A10.58,10.58,0,0,0,242,182.68Z" transform="translate(-5.4 -1.05)"/><path class="cls-12" d="M240.49,187.82l-1.22-3.35a7.47,7.47,0,0,1-1.29.42l1,3.56A8.31,8.31,0,0,0,240.49,187.82Z" transform="translate(-5.4 -1.05)"/><path class="cls-14" d="M234,179.77a11.29,11.29,0,0,0-3.16.46,10.26,10.26,0,0,0-3.81,2L231.68,194a26.43,26.43,0,0,1,3.59-3.18,6.45,6.45,0,0,1,3.36-1.46,1.93,1.93,0,0,1,.63.1l-4.3-9.69a8.34,8.34,0,0,0-1,0Z" transform="translate(-5.4 -1.05)"/><path class="cls-12" d="M234,180.1a10.88,10.88,0,0,0-3,.43l1.45,3.47a12.59,12.59,0,0,1,3.61-1l-1.28-2.88A6.77,6.77,0,0,0,234,180.1Z" transform="translate(-5.4 -1.05)"/><path class="cls-12" d="M233.85,187.54l1.26,3a6.62,6.62,0,0,1,3.49-1.48h.08l-1.27-2.87A8,8,0,0,0,233.85,187.54Z" transform="translate(-5.4 -1.05)"/><path class="cls-12" d="M232.38,184a15.57,15.57,0,0,0-3.56,2l1.55,3.92a32.73,32.73,0,0,1,3.48-2.36Z" transform="translate(-5.4 -1.05)"/><path class="cls-17" d="M117,72.61l1.58.69a.26.26,0,0,1,.14.17,6.49,6.49,0,0,0,.16.88.26.26,0,0,1-.06.21l-1.26,1.2a.62.62,0,0,0-.11.73l.59,1a.63.63,0,0,0,.69.28l1.65-.49a.31.31,0,0,1,.23,0,7.1,7.1,0,0,0,.67.56.28.28,0,0,1,.1.21l-.2,1.72a.63.63,0,0,0,.38.63l1.11.4a.63.63,0,0,0,.71-.23l.94-1.44a.26.26,0,0,1,.22-.1h.87a.28.28,0,0,1,.21.1l1,1.45a.62.62,0,0,0,.7.23l1.11-.4a.63.63,0,0,0,.39-.63l-.12-1.09h26.06a2.85,2.85,0,0,0,2.84-2.83V69.71a2.85,2.85,0,0,0-2.84-2.83h-23.9l-.05-.07-.9-.76a.66.66,0,0,0-.74,0L128,66.9h-.2a2.74,2.74,0,0,0-.64.08c-.16-.06-.31-.13-.47-.18a.23.23,0,0,1-.15-.15L126.16,65a.63.63,0,0,0-.58-.46H124.4a.63.63,0,0,0-.58.46l-.4,1.68a.25.25,0,0,1-.16.17,6.34,6.34,0,0,0-.83.3.2.2,0,0,1-.21,0l-1.4-1a.66.66,0,0,0-.74,0l-.9.76a.64.64,0,0,0-.15.73l.77,1.54a.28.28,0,0,1,0,.22,6.06,6.06,0,0,0-.45.78.23.23,0,0,1-.18.12l-1.73.11a.61.61,0,0,0-.55.49L116.67,72A.64.64,0,0,0,117,72.61Z" transform="translate(-5.4 -1.05)"/><text class="cls-19" transform="translate(48.62 114.12)">5</text><text class="cls-20" transform="translate(66.34 114.12)">210</text><text class="cls-19" transform="translate(6.2 188.75)">7</text><text class="cls-20" transform="translate(23.92 188.75)">285</text><text class="cls-19" transform="translate(6.2 165.85)">7</text><text class="cls-20" transform="translate(23.92 165.85)">270</text><text class="cls-19" transform="translate(6.2 61.85)">5</text><text class="cls-20" transform="translate(23.92 61.85)">230</text><text class="cls-19" transform="translate(6.2 38.96)">3</text><text class="cls-20" transform="translate(23.92 38.96)">130</text><text class="cls-19" transform="translate(57.58 38.96)">5</text><text class="cls-20" transform="translate(75.31 38.96)">210</text><text class="cls-19" transform="translate(57.58 188.75)">8</text><text class="cls-20" transform="translate(75.31 188.75)">310</text><text class="cls-19" transform="translate(142.7 188.75)">8</text><text class="cls-20" transform="translate(160.42 188.75)">330</text><text class="cls-19" transform="translate(261.8 188.75)">8</text><text class="cls-20" transform="translate(279.53 188.75)">335</text><text class="cls-19" transform="translate(261.8 165.85)">3</text><text class="cls-20" transform="translate(279.53 165.85)">130</text><text class="cls-19" transform="translate(163.58 114.96)">6</text><text class="cls-20" transform="translate(181.3 114.96)">250</text><text class="cls-19" transform="translate(163.58 92.06)">8</text><text class="cls-20" transform="translate(181.3 92.06)">300</text><text class="cls-19" transform="translate(261.8 69.16)">7</text><text class="cls-20" transform="translate(279.53 69.16)">265</text><text class="cls-19" transform="translate(182.49 11.61)">8</text><text class="cls-20" transform="translate(200.21 11.61)">315</text><text class="cls-19" transform="translate(117.19 54.74)">4</text><text class="cls-20" transform="translate(134.92 54.74)">175</text><text class="cls-19" transform="translate(117.19 11.61)">8</text><text class="cls-20" transform="translate(134.92 11.61)">335</text><text class="cls-19" transform="translate(183.55 142.96)">5</text><text class="cls-20" transform="translate(201.28 142.96)">220</text><text class="cls-19" transform="translate(209.05 114.96)">5</text><text class="cls-20" transform="translate(226.78 114.96)">220</text><text class="cls-19" transform="translate(209.05 92.06)">8</text><text class="cls-20" transform="translate(226.78 92.06)">295</text><text class="cls-19" transform="translate(102.37 119.37)">3</text><text class="cls-20" transform="translate(120.09 119.37)">120</text><text class="cls-19" transform="translate(74.85 61.86)">2</text><text class="cls-19" transform="translate(169.51 31.46)">1</text><text class="cls-19" transform="translate(216.74 188.75)">3</text><text class="cls-19" transform="translate(117.19 74.79)">7</text><text class="cls-20" transform="translate(134.92 74.79)">275</text><text class="cls-21" transform="translate(269.83 145.07)">1</text><text class="cls-21" transform="translate(263.61 125.74)">2</text><text class="cls-21" transform="translate(270.06 98.74)">3</text><text class="cls-21" transform="translate(97.22 22.41)">4</text><text class="cls-21" transform="translate(86.78 75.41)">5</text><text class="cls-21" transform="translate(149.22 133.41)">6</text><text class="cls-21" transform="translate(147.11 150.41)">7</text><text class="cls-21" transform="translate(126 154.74)">8</text><text class="cls-21" transform="translate(113.06 141.41)">9</text><text class="cls-21" transform="translate(76.93 143.07)">10</text><g class="cls-22"><text class="cls-23" transform="translate(97.59 102.41)">1</text><text class="cls-21" transform="translate(100.75 102.41)">1</text></g><text class="cls-21" transform="translate(47.26 83.07)">12</text><text class="cls-21" transform="translate(40.1 99.74)">13</text><text class="cls-21" transform="translate(35.93 152.41)">14</text><text class="cls-21" transform="translate(125.1 185.74)">15</text></g></svg>