<svg id="Capa_1" data-name="Capa 1" xmlns="http://www.w3.org/2000/svg" width="297.82" height="195.43" viewBox="0 0 297.82 195.43"><defs><style>.cls-1,.cls-10,.cls-16,.cls-17,.cls-18,.cls-2,.cls-3,.cls-4,.cls-5,.cls-6,.cls-8,.cls-9{fill:none;}.cls-1,.cls-10,.cls-6{stroke:#fff;}.cls-1,.cls-10,.cls-16,.cls-18,.cls-2,.cls-3,.cls-4,.cls-9{stroke-linecap:round;}.cls-1,.cls-10,.cls-16,.cls-17,.cls-18,.cls-2,.cls-3,.cls-4,.cls-5,.cls-9{stroke-linejoin:round;}.cls-1{stroke-width:8px;}.cls-2,.cls-3{stroke:#00071b;}.cls-2,.cls-4,.cls-5{stroke-width:2.8px;}.cls-3{stroke-width:5.4px;}.cls-4{stroke:#8c92a1;}.cls-5{stroke:#fff100;}.cls-6{stroke-width:1.3px;}.cls-7{fill:#ea1a4d;}.cls-16,.cls-17,.cls-18,.cls-8,.cls-9{stroke:#231f20;}.cls-9{stroke-width:1.5px;}.cls-10,.cls-15,.cls-16{stroke-width:0.5px;}.cls-11,.cls-15,.cls-21,.cls-23,.cls-24,.cls-25{fill:#fff;}.cls-12{fill:#ffca05;}.cls-13,.cls-19,.cls-20{fill:#231f20;}.cls-14{fill:#007dc4;}.cls-15{stroke:#007dc4;}.cls-17{stroke-width:0.25px;}.cls-18{stroke-width:0.65px;}.cls-19,.cls-20,.cls-21,.cls-22,.cls-23,.cls-24,.cls-25{isolation:isolate;}.cls-19,.cls-20,.cls-21,.cls-23{font-size:8.5px;}.cls-19{font-family:Helvetica;}.cls-20,.cls-21,.cls-23,.cls-24,.cls-25{font-family:Helvetica-Bold, Helvetica;font-weight:700;}.cls-23{letter-spacing:-0.05em;}.cls-24,.cls-25{font-size:7.5px;}.cls-24{letter-spacing:-0.08em;}.cls-25{letter-spacing:-0.13em;}</style></defs><g id="hungaroring"><path class="cls-1" d="M192,170.23h0c3-8.65,2.17-10.44,3.44-13q3.24-6.49,12.47-11.49l18.89-10.47h0q4.72-2.47,5.36-6,.5-2.67-3-9c-3.49-6.33-4.57-8.52-5.91-11.21a9.49,9.49,0,0,1-.93-5.42,4.12,4.12,0,0,1,.44-1.42c2.9-5.61,16-20.56,16.79-21.19a8,8,0,0,1,4.6-1.47,12.23,12.23,0,0,0,3-.56,4.28,4.28,0,0,0,2.12-1.93c.78-1.33,3.16-15.77,4.91-37.87.15-2.87-1.75-12.17-6.66-14.41-7.09-3.29-11.1-.49-15.72,4.13-.64.72-16.8,23.28-16.8,23.28s-2.5,3.84-8.34,3C201.9,54.53,194,55,184,57c-8.89,1.77-56.14,12.34-56.14,12.34-2.24,1.15-4.2,1.16-5.92,5.73a46.81,46.81,0,0,0-3,6.49c-1.11,2.73-2.16,5.43-3.15,8.12A24,24,0,0,1,114.2,93q-2.9,5.34-9,4.17l-.59-.15q-5.35-1.64-7.09-9a31.28,31.28,0,0,1-.39-11.73q1.14-35.12,0-40.73a36.58,36.58,0,0,0-4.71-12A26.27,26.27,0,0,0,85.59,16a11.7,11.7,0,0,0-6.71-2.63,4.63,4.63,0,0,0-4.51,2.78q-.24,8.41,0,25.8.21,15.61.41,17.44v.12l-.2,57.12-.78,51a7.53,7.53,0,0,0,.56,3.41A8.36,8.36,0,0,0,76,173.81q3,3.3,9.35,3.32c3.52,0,6.25-1,8.17-2.93a10.21,10.21,0,0,0,2.51-4.66l.36-2.61c0-5.52-.3-24.2.87-28.69,2.66-10.15,16.46-9.73,15.93,4.27-.14,3.05.65,8.1-1.12,15.29-1.3,5.23-3,10.45-3.1,13.28-.07,3.2,1.6,7.1,3.74,8.21,3.07,1.46,62.42,4.18,62.42,4.18s7.38.58,11.37-2.2S192,170.09,192,170.09" transform="translate(-4.61 -2.15)"/><path class="cls-2" d="M75.54,47.52l5.11,29.57-.73,77.29-.3,14.56.1.61a3.69,3.69,0,0,0,.64,1.34c1,1.3,2.22,1.48,4.66,1.48,3.59,0,5.83-2.35,6.84-6.9,0,0,1.49-20.89,4.5-29" transform="translate(-4.61 -2.15)"/><path class="cls-3" d="M192,170.23h0c3-8.65,2.17-10.44,3.44-13q3.24-6.49,12.47-11.49l18.89-10.47h0q4.72-2.47,5.36-6,.5-2.67-3-9c-3.49-6.33-4.57-8.52-5.91-11.21a9.49,9.49,0,0,1-.93-5.42,4.12,4.12,0,0,1,.44-1.42c2.9-5.61,16-20.56,16.79-21.19a8,8,0,0,1,4.6-1.47,12.23,12.23,0,0,0,3-.56,4.28,4.28,0,0,0,2.12-1.93c.78-1.33,3.16-15.77,4.91-37.87.15-2.87-1.75-12.17-6.66-14.41-7.09-3.29-11.1-.49-15.72,4.13-.64.72-16.8,23.28-16.8,23.28s-2.5,3.84-8.34,3C201.9,54.53,194,55,184,57c-8.89,1.77-56.14,12.34-56.14,12.34-2.24,1.15-4.2,1.16-5.92,5.73a46.81,46.81,0,0,0-3,6.49c-1.11,2.73-2.16,5.43-3.15,8.12A24,24,0,0,1,114.2,93q-2.9,5.34-9,4.17l-.59-.15q-5.35-1.64-7.09-9a31.28,31.28,0,0,1-.39-11.73q1.14-35.12,0-40.73a36.58,36.58,0,0,0-4.71-12A26.27,26.27,0,0,0,85.59,16a11.7,11.7,0,0,0-6.71-2.63,4.63,4.63,0,0,0-4.51,2.78q-.24,8.41,0,25.8.21,15.61.41,17.44v.12l-.2,57.12-.78,51a7.53,7.53,0,0,0,.56,3.41A8.36,8.36,0,0,0,76,173.81q3,3.3,9.35,3.32c3.52,0,6.25-1,8.17-2.93a10.21,10.21,0,0,0,2.51-4.66l.36-2.61c0-5.52-.3-24.2.87-28.69,2.66-10.15,16.46-9.73,15.93,4.27-.14,3.05.65,8.1-1.12,15.29-1.3,5.23-3,10.45-3.1,13.28-.07,3.2,1.6,7.1,3.74,8.21,3.07,1.46,62.42,4.18,62.42,4.18s7.38.58,11.37-2.2S192,170.09,192,170.09" transform="translate(-4.61 -2.15)"/><path class="cls-4" d="M192,170.23h0c3-8.65,2.17-10.44,3.44-13q3.24-6.49,12.47-11.49l18.89-10.47h0q4.72-2.47,5.36-6,.5-2.67-3-9c-3.49-6.33-4.57-8.52-5.91-11.21a9.49,9.49,0,0,1-.93-5.42,4.12,4.12,0,0,1,.44-1.42c2.9-5.61,16-20.56,16.79-21.19a8,8,0,0,1,4.6-1.47,12.23,12.23,0,0,0,3-.56,4.28,4.28,0,0,0,2.12-1.93c.78-1.33,3.16-15.77,4.91-37.87.15-2.87-1.75-12.17-6.66-14.41-7.09-3.29-11.1-.49-15.72,4.13-.64.72-16.8,23.28-16.8,23.28s-2.5,3.84-8.34,3C201.9,54.53,194,55,184,57c-8.89,1.77-56.14,12.34-56.14,12.34-2.24,1.15-4.2,1.16-5.92,5.73a46.81,46.81,0,0,0-3,6.49c-1.11,2.73-2.16,5.43-3.15,8.12A24,24,0,0,1,114.2,93q-2.9,5.34-9,4.17l-.59-.15q-5.35-1.64-7.09-9a31.28,31.28,0,0,1-.39-11.73q1.14-35.12,0-40.73a36.58,36.58,0,0,0-4.71-12A26.27,26.27,0,0,0,85.59,16a11.7,11.7,0,0,0-6.71-2.63,4.63,4.63,0,0,0-4.51,2.78q-.24,8.41,0,25.8.21,15.61.41,17.44v.12l-.2,57.12-.78,51a7.53,7.53,0,0,0,.56,3.41A8.36,8.36,0,0,0,76,173.81q3,3.3,9.35,3.32c3.52,0,6.25-1,8.17-2.93a10.21,10.21,0,0,0,2.51-4.66l.36-2.61c0-5.52-.3-24.2.87-28.69,2.66-10.15,16.46-9.73,15.93,4.27-.14,3.05.65,8.1-1.12,15.29-1.3,5.23-3,10.45-3.1,13.28-.07,3.2,1.6,7.1,3.74,8.21,3.07,1.46,62.42,4.18,62.42,4.18s7.38.58,11.37-2.2S192,170.09,192,170.09" transform="translate(-4.61 -2.15)"/><path class="cls-5" d="M74.25,26q0,6.74.14,16,.21,15.61.41,17.44v.12l-.2,57.12-.7,45.64" transform="translate(-4.61 -2.15)"/><path class="cls-5" d="M96.75,81a35,35,0,0,1,.37-4.69q1.14-35.12-.05-40.73a36.58,36.58,0,0,0-4.71-12A26.27,26.27,0,0,0,85.58,16c-.36-.26-.73-.51-1.09-.74" transform="translate(-4.61 -2.15)"/><rect class="cls-6" x="58.25" y="0.65" width="9.61" height="9.61" rx="2.29"/><rect class="cls-7" x="58.25" y="0.65" width="9.61" height="9.61" rx="2.29"/><rect class="cls-6" x="83.42" y="94.31" width="9.61" height="9.61" rx="2.29"/><rect class="cls-7" x="83.42" y="94.31" width="9.61" height="9.61" rx="2.29"/><rect class="cls-6" x="111.59" y="55.65" width="9.61" height="9.61" rx="2.29"/><rect class="cls-7" x="111.59" y="55.65" width="9.61" height="9.61" rx="2.29"/><rect class="cls-6" x="214.09" y="49.98" width="9.61" height="9.61" rx="2.29"/><rect class="cls-7" x="214.09" y="49.98" width="9.61" height="9.61" rx="2.29"/><rect class="cls-6" x="232.59" y="26.98" width="9.61" height="9.61" rx="2.29"/><rect class="cls-7" x="232.59" y="26.98" width="9.61" height="9.61" rx="2.29"/><rect class="cls-6" x="233.03" y="62.94" width="9.61" height="9.61" rx="2.29"/><rect class="cls-7" x="233.03" y="62.94" width="9.61" height="9.61" rx="2.29"/><rect class="cls-6" x="238.92" y="81.65" width="9.61" height="9.61" rx="2.29"/><rect class="cls-7" x="238.92" y="81.65" width="9.61" height="9.61" rx="2.29"/><rect class="cls-6" x="223.11" y="98.09" width="9.61" height="9.61" rx="2.29"/><rect class="cls-7" x="223.11" y="98.09" width="9.61" height="9.61" rx="2.29"/><rect class="cls-6" x="229.92" y="131.98" width="9.61" height="9.61" rx="2.29"/><rect class="cls-7" x="229.92" y="131.98" width="9.61" height="9.61" rx="2.29"/><rect class="cls-6" x="184.75" y="135.31" width="9.61" height="9.61" rx="2.29"/><rect class="cls-7" x="184.75" y="135.31" width="9.61" height="9.61" rx="2.29"/><rect class="cls-6" x="181.59" y="182.98" width="9.61" height="9.6" rx="2.29"/><rect class="cls-7" x="181.59" y="182.98" width="9.61" height="9.6" rx="2.29"/><rect class="cls-6" x="105.09" y="182.65" width="9.61" height="9.61" rx="2.29"/><rect class="cls-7" x="105.09" y="182.65" width="9.61" height="9.61" rx="2.29"/><rect class="cls-6" x="97.25" y="115.31" width="9.61" height="9.61" rx="2.29"/><rect class="cls-7" x="97.25" y="115.31" width="9.61" height="9.61" rx="2.29"/><rect class="cls-6" x="75.75" y="158.98" width="9.61" height="9.61" rx="2.29"/><rect class="cls-7" x="75.75" y="158.98" width="9.61" height="9.61" rx="2.29"/><path class="cls-8" d="M195.18,56.57a1.42,1.42,0,1,0-1.42-1.42h0A1.42,1.42,0,0,0,195.18,56.57Z" transform="translate(-4.61 -2.15)"/><polyline class="cls-9" points="190.57 53.01 190.57 28.63 172.55 28.63"/><polyline class="cls-10" points="190.57 53.01 190.57 28.63 172.55 28.63"/><path class="cls-11" d="M195.18,56.57a1.42,1.42,0,1,0-1.42-1.42h0A1.42,1.42,0,0,0,195.18,56.57Z" transform="translate(-4.61 -2.15)"/><path class="cls-8" d="M203.9,56.38A1.42,1.42,0,1,0,202.48,55v0A1.41,1.41,0,0,0,203.9,56.38Z" transform="translate(-4.61 -2.15)"/><line class="cls-9" x1="199.29" y1="52.82" x2="199.29" y2="9.34"/><line class="cls-10" x1="199.29" y1="52.82" x2="199.29" y2="9.34"/><path class="cls-11" d="M203.9,56.38A1.42,1.42,0,1,0,202.48,55v0A1.41,1.41,0,0,0,203.9,56.38Z" transform="translate(-4.61 -2.15)"/><path class="cls-8" d="M238.36,25.07a1.42,1.42,0,1,0-1.42-1.42h0A1.44,1.44,0,0,0,238.36,25.07Z" transform="translate(-4.61 -2.15)"/><line class="cls-9" x1="233.75" y1="21.5" x2="233.75" y2="9.34"/><line class="cls-10" x1="233.75" y1="21.5" x2="233.75" y2="9.34"/><path class="cls-11" d="M238.36,25.07a1.42,1.42,0,1,0-1.42-1.42h0A1.44,1.44,0,0,0,238.36,25.07Z" transform="translate(-4.61 -2.15)"/><path class="cls-8" d="M136,182.89a1.42,1.42,0,1,0-1.42-1.42h0A1.42,1.42,0,0,0,136,182.89Z" transform="translate(-4.61 -2.15)"/><polyline class="cls-9" points="131.37 179.32 131.37 148.53 150.81 148.53"/><polyline class="cls-10" points="131.37 179.32 131.37 148.53 150.81 148.53"/><path class="cls-11" d="M136,182.89a1.42,1.42,0,1,0-1.42-1.42h0A1.42,1.42,0,0,0,136,182.89Z" transform="translate(-4.61 -2.15)"/><path class="cls-8" d="M162.43,184.35a1.42,1.42,0,1,0-1.42-1.42h0A1.42,1.42,0,0,0,162.43,184.35Z" transform="translate(-4.61 -2.15)"/><line class="cls-9" x1="157.82" y1="180.79" x2="157.82" y2="166.85"/><line class="cls-10" x1="157.82" y1="180.79" x2="157.82" y2="166.85"/><path class="cls-11" d="M162.43,184.35a1.42,1.42,0,1,0-1.42-1.42h0A1.42,1.42,0,0,0,162.43,184.35Z" transform="translate(-4.61 -2.15)"/><path class="cls-8" d="M111.59,179.83a1.42,1.42,0,1,0-1.42-1.42h0A1.43,1.43,0,0,0,111.59,179.83Z" transform="translate(-4.61 -2.15)"/><polyline class="cls-9" points="106.98 176.26 106.98 170.57 123.35 170.57 123.35 128.68"/><polyline class="cls-10" points="106.98 176.26 106.98 170.57 123.35 170.57 123.35 128.68"/><path class="cls-11" d="M111.59,179.83a1.42,1.42,0,1,0-1.42-1.42h0A1.43,1.43,0,0,0,111.59,179.83Z" transform="translate(-4.61 -2.15)"/><path class="cls-8" d="M159.51,60.65a1.42,1.42,0,1,1-1.41,1.43v0A1.42,1.42,0,0,1,159.51,60.65Z" transform="translate(-4.61 -2.15)"/><line class="cls-9" x1="154.9" y1="59.91" x2="154.9" y2="73.85"/><line class="cls-10" x1="154.9" y1="59.91" x2="154.9" y2="73.85"/><path class="cls-11" d="M159.51,60.65a1.42,1.42,0,1,1-1.41,1.43v0A1.42,1.42,0,0,1,159.51,60.65Z" transform="translate(-4.61 -2.15)"/><path class="cls-8" d="M252.32,34.31a1.42,1.42,0,1,1,1.42,1.42h0a1.41,1.41,0,0,1-1.41-1.41Z" transform="translate(-4.61 -2.15)"/><line class="cls-9" x1="249.12" y1="32.16" x2="265.42" y2="32.16"/><line class="cls-10" x1="249.12" y1="32.16" x2="265.42" y2="32.16"/><path class="cls-11" d="M252.32,34.31a1.42,1.42,0,1,1,1.42,1.42h0a1.41,1.41,0,0,1-1.41-1.41Z" transform="translate(-4.61 -2.15)"/><path class="cls-8" d="M249.81,67.32a1.42,1.42,0,1,1,1.42,1.42h0A1.43,1.43,0,0,1,249.81,67.32Z" transform="translate(-4.61 -2.15)"/><line class="cls-9" x1="246.62" y1="65.17" x2="265.42" y2="65.17"/><line class="cls-10" x1="246.62" y1="65.17" x2="265.42" y2="65.17"/><path class="cls-11" d="M249.81,67.32a1.42,1.42,0,1,1,1.42,1.42h0A1.43,1.43,0,0,1,249.81,67.32Z" transform="translate(-4.61 -2.15)"/><path class="cls-8" d="M231,129.22a1.42,1.42,0,1,1,1.42,1.42h0A1.43,1.43,0,0,1,231,129.22Z" transform="translate(-4.61 -2.15)"/><line class="cls-9" x1="227.84" y1="127.07" x2="265.42" y2="127.07"/><line class="cls-10" x1="227.84" y1="127.07" x2="265.42" y2="127.07"/><path class="cls-11" d="M231,129.22a1.42,1.42,0,1,1,1.42,1.42h0A1.43,1.43,0,0,1,231,129.22Z" transform="translate(-4.61 -2.15)"/><path class="cls-8" d="M186.8,179.78a1.42,1.42,0,1,1,1.42,1.42h0A1.44,1.44,0,0,1,186.8,179.78Z" transform="translate(-4.61 -2.15)"/><line class="cls-9" x1="183.61" y1="177.63" x2="201.3" y2="177.63"/><line class="cls-10" x1="183.61" y1="177.63" x2="201.3" y2="177.63"/><path class="cls-11" d="M186.8,179.78a1.42,1.42,0,1,1,1.42,1.42h0A1.44,1.44,0,0,1,186.8,179.78Z" transform="translate(-4.61 -2.15)"/><path class="cls-8" d="M75.66,16.26a1.42,1.42,0,1,0-1.43,1.41h0A1.42,1.42,0,0,0,75.66,16.26Z" transform="translate(-4.61 -2.15)"/><line class="cls-9" x1="69.64" y1="14.11" x2="35.99" y2="14.11"/><line class="cls-10" x1="69.64" y1="14.11" x2="35.99" y2="14.11"/><path class="cls-11" d="M75.66,16.26a1.42,1.42,0,1,0-1.43,1.41h0A1.42,1.42,0,0,0,75.66,16.26Z" transform="translate(-4.61 -2.15)"/><path class="cls-8" d="M75.66,42.06a1.42,1.42,0,1,0-1.42,1.42h0A1.42,1.42,0,0,0,75.66,42.06Z" transform="translate(-4.61 -2.15)"/><line class="cls-9" x1="69.64" y1="39.91" x2="35.99" y2="39.91"/><line class="cls-10" x1="69.64" y1="39.91" x2="35.99" y2="39.91"/><path class="cls-11" d="M75.66,42.06a1.42,1.42,0,1,0-1.42,1.42h0A1.42,1.42,0,0,0,75.66,42.06Z" transform="translate(-4.61 -2.15)"/><path class="cls-8" d="M76.17,80.25a1.42,1.42,0,1,0-1.42,1.42h0a1.41,1.41,0,0,0,1.41-1.41Z" transform="translate(-4.61 -2.15)"/><line class="cls-9" x1="70.15" y1="78.1" x2="35.99" y2="78.1"/><line class="cls-10" x1="70.15" y1="78.1" x2="35.99" y2="78.1"/><path class="cls-11" d="M76.17,80.25a1.42,1.42,0,1,0-1.42,1.42h0a1.41,1.41,0,0,0,1.41-1.41Z" transform="translate(-4.61 -2.15)"/><path class="cls-8" d="M75.86,129.25a1.42,1.42,0,1,0-1.42,1.42h0A1.43,1.43,0,0,0,75.86,129.25Z" transform="translate(-4.61 -2.15)"/><line class="cls-9" x1="69.83" y1="127.1" x2="26.13" y2="127.1"/><line class="cls-10" x1="69.83" y1="127.1" x2="26.13" y2="127.1"/><path class="cls-11" d="M75.86,129.25a1.42,1.42,0,1,0-1.42,1.42h0A1.43,1.43,0,0,0,75.86,129.25Z" transform="translate(-4.61 -2.15)"/><path class="cls-8" d="M75.74,136.92a1.42,1.42,0,1,0-1.42,1.42h0A1.43,1.43,0,0,0,75.74,136.92Z" transform="translate(-4.61 -2.15)"/><polyline class="cls-9" points="69.71 134.77 54.65 134.77 54.65 144.2 35.99 144.2"/><polyline class="cls-10" points="69.71 134.77 54.65 134.77 54.65 144.2 35.99 144.2"/><path class="cls-11" d="M75.74,136.92a1.42,1.42,0,1,0-1.42,1.42h0A1.43,1.43,0,0,0,75.74,136.92Z" transform="translate(-4.61 -2.15)"/><path class="cls-8" d="M75.31,169.25a1.42,1.42,0,1,0-1.42,1.42h0a1.41,1.41,0,0,0,1.41-1.41Z" transform="translate(-4.61 -2.15)"/><polyline class="cls-9" points="69.29 167.1 54.65 167.1 54.65 187.06 35.99 187.06"/><polyline class="cls-10" points="69.29 167.1 54.65 167.1 54.65 187.06 35.99 187.06"/><path class="cls-11" d="M75.31,169.25a1.42,1.42,0,1,0-1.42,1.42h0a1.41,1.41,0,0,0,1.41-1.41Z" transform="translate(-4.61 -2.15)"/><path class="cls-8" d="M223.64,104.84a1.42,1.42,0,1,0-1.43,1.41h0A1.43,1.43,0,0,0,223.64,104.84Z" transform="translate(-4.61 -2.15)"/><polyline class="cls-9" points="217.61 102.69 206.23 102.69 206.23 91.28"/><polyline class="cls-10" points="217.61 102.69 206.23 102.69 206.23 91.28"/><path class="cls-11" d="M223.64,104.84a1.42,1.42,0,1,0-1.43,1.41h0A1.43,1.43,0,0,0,223.64,104.84Z" transform="translate(-4.61 -2.15)"/><path class="cls-8" d="M97.89,163.59A1.42,1.42,0,1,0,96.46,165h0A1.42,1.42,0,0,0,97.89,163.59Z" transform="translate(-4.61 -2.15)"/><polyline class="cls-9" points="91.86 161.44 85.49 161.44 85.49 119.78"/><polyline class="cls-10" points="91.86 161.44 85.49 161.44 85.49 119.78"/><path class="cls-11" d="M97.89,163.59A1.42,1.42,0,1,0,96.46,165h0A1.42,1.42,0,0,0,97.89,163.59Z" transform="translate(-4.61 -2.15)"/><path class="cls-8" d="M95.7,76.35a1.42,1.42,0,1,1,1.42,1.42h0A1.43,1.43,0,0,1,95.7,76.35Z" transform="translate(-4.61 -2.15)"/><polyline class="cls-9" points="92.51 74.2 109.46 74.2 109.46 46.96"/><polyline class="cls-10" points="92.51 74.2 109.46 74.2 109.46 46.96"/><path class="cls-11" d="M95.7,76.35a1.42,1.42,0,1,1,1.42,1.42h0A1.43,1.43,0,0,1,95.7,76.35Z" transform="translate(-4.61 -2.15)"/><path class="cls-8" d="M96.12,38.22a1.42,1.42,0,1,1,1.43,1.41h0A1.43,1.43,0,0,1,96.12,38.22Z" transform="translate(-4.61 -2.15)"/><polyline class="cls-9" points="92.93 36.07 129.3 36.07 129.3 9.34"/><polyline class="cls-10" points="92.93 36.07 129.3 36.07 129.3 9.34"/><path class="cls-11" d="M96.12,38.22a1.42,1.42,0,1,1,1.43,1.41h0A1.43,1.43,0,0,1,96.12,38.22Z" transform="translate(-4.61 -2.15)"/><path class="cls-8" d="M214.37,50.79A1.42,1.42,0,1,1,213,52.26V52.2A1.41,1.41,0,0,1,214.37,50.79Z" transform="translate(-4.61 -2.15)"/><line class="cls-9" x1="209.76" y1="50.05" x2="209.76" y2="68.38"/><line class="cls-10" x1="209.76" y1="50.05" x2="209.76" y2="68.38"/><path class="cls-11" d="M214.37,50.79A1.42,1.42,0,1,1,213,52.26V52.2A1.41,1.41,0,0,1,214.37,50.79Z" transform="translate(-4.61 -2.15)"/><path class="cls-8" d="M239.65,79.74a1.42,1.42,0,1,1-1.42,1.42h0A1.44,1.44,0,0,1,239.65,79.74Z" transform="translate(-4.61 -2.15)"/><polyline class="cls-9" points="235.04 79.01 235.04 106.36 265.42 106.36"/><polyline class="cls-10" points="235.04 79.01 235.04 106.36 265.42 106.36"/><path class="cls-11" d="M239.65,79.74a1.42,1.42,0,1,1-1.42,1.42h0A1.44,1.44,0,0,1,239.65,79.74Z" transform="translate(-4.61 -2.15)"/><path class="cls-8" d="M248.12,77.2a1.42,1.42,0,1,1-1.42,1.42h0A1.43,1.43,0,0,1,248.12,77.2Z" transform="translate(-4.61 -2.15)"/><polyline class="cls-9" points="243.51 76.47 243.51 85.67 265.42 85.67"/><polyline class="cls-10" points="243.51 76.47 243.51 85.67 265.42 85.67"/><path class="cls-11" d="M248.12,77.2a1.42,1.42,0,1,1-1.42,1.42h0A1.43,1.43,0,0,1,248.12,77.2Z" transform="translate(-4.61 -2.15)"/><path class="cls-8" d="M85.44,175.8A1.42,1.42,0,1,1,84,177.22a1.43,1.43,0,0,1,1.44-1.42Z" transform="translate(-4.61 -2.15)"/><line class="cls-9" x1="80.83" y1="175.07" x2="80.83" y2="189.78"/><line class="cls-10" x1="80.83" y1="175.07" x2="80.83" y2="189.78"/><path class="cls-11" d="M85.44,175.8A1.42,1.42,0,1,1,84,177.22a1.43,1.43,0,0,1,1.44-1.42Z" transform="translate(-4.61 -2.15)"/><path class="cls-8" d="M196.94,153.26a1.42,1.42,0,1,1-1.42,1.42h0A1.42,1.42,0,0,1,196.94,153.26Z" transform="translate(-4.61 -2.15)"/><polyline class="cls-9" points="192.33 152.52 192.33 158.2 206.9 158.2"/><polyline class="cls-10" points="192.33 152.52 192.33 158.2 206.9 158.2"/><path class="cls-11" d="M196.94,153.26a1.42,1.42,0,1,1-1.42,1.42h0A1.42,1.42,0,0,1,196.94,153.26Z" transform="translate(-4.61 -2.15)"/><path class="cls-8" d="M125.6,69.57A1.42,1.42,0,1,1,124.18,71a1.41,1.41,0,0,1,1.39-1.43Z" transform="translate(-4.61 -2.15)"/><polyline class="cls-9" points="120.99 68.84 120.99 75.76 129.3 75.76 129.3 91.79"/><polyline class="cls-10" points="120.99 68.84 120.99 75.76 129.3 75.76 129.3 91.79"/><path class="cls-11" d="M125.6,69.57A1.42,1.42,0,1,1,124.18,71a1.41,1.41,0,0,1,1.39-1.43Z" transform="translate(-4.61 -2.15)"/><rect class="cls-12" x="79.67" y="113.76" width="11.87" height="11.87" rx="2.83"/><polygon class="cls-13" points="81.94 121.39 81.31 123.79 89.91 123.79 89.28 121.39 81.94 121.39"/><polygon class="cls-13" points="82.61 115.57 81.31 120.49 89.91 120.49 88.61 115.57 82.61 115.57"/><rect class="cls-13" x="8.59" y="72.13" width="32.57" height="11.88" rx="2.83"/><polygon class="cls-11" points="23.44 75.77 21.99 75.77 22.13 75.08 23.59 75.08 23.44 75.77"/><polygon class="cls-11" points="23.06 77.55 20.66 77.55 20.81 76.86 23.21 76.86 23.06 77.55"/><polygon class="cls-11" points="22.69 79.32 19.34 79.32 19.49 78.63 22.84 78.63 22.69 79.32"/><polygon class="cls-11" points="22.31 81.1 18.02 81.1 18.16 80.41 22.46 80.41 22.31 81.1"/><path class="cls-14" d="M11.46,74.19a6.39,6.39,0,0,0-.83.31.26.26,0,0,1-.21,0L9,73.44a.6.6,0,0,0-.74,0l-.91.76a.64.64,0,0,0-.15.73L8,76.48a.24.24,0,0,1,0,.23,4.51,4.51,0,0,0-.44.77.24.24,0,0,1-.18.13l-1.74.1a.64.64,0,0,0-.55.49l-.2,1.17a.62.62,0,0,0,.35.65l1.58.68a.27.27,0,0,1,.13.18,6.49,6.49,0,0,0,.16.88A.25.25,0,0,1,7,82L5.78,83.16a.64.64,0,0,0-.11.74l.59,1a.63.63,0,0,0,.69.27L8.6,84.7a.24.24,0,0,1,.23.06,6.13,6.13,0,0,0,.68.56.25.25,0,0,1,.09.2l-.2,1.72a.65.65,0,0,0,.39.64l1.11.4a.63.63,0,0,0,.7-.23l1-1.44a.26.26,0,0,1,.21-.11h.88a.26.26,0,0,1,.2.1l.9,1.4a.65.65,0,0,0,.71.24l1.11-.41A.63.63,0,0,0,17,87.2l-.2-1.71a.27.27,0,0,1,.09-.22,6.13,6.13,0,0,0,.68-.56.26.26,0,0,1,.21-.06l1.66.5a.63.63,0,0,0,.69-.27l.59-1a.62.62,0,0,0-.11-.73L19.36,82a.27.27,0,0,1-.06-.23,6.47,6.47,0,0,0,.15-.88.25.25,0,0,1,.12-.16l1.6-.69a.65.65,0,0,0,.35-.65l-.21-1.17a.64.64,0,0,0-.55-.49L19,77.61a.26.26,0,0,1-.19-.13,6.06,6.06,0,0,0-.45-.78.23.23,0,0,1,0-.2l.8-1.5a.64.64,0,0,0-.15-.73l-.9-.76a.63.63,0,0,0-.74,0l-1.38,1a.33.33,0,0,1-.24,0,6.34,6.34,0,0,0-.83-.3.28.28,0,0,1-.15-.15l-.4-1.69a.63.63,0,0,0-.58-.46H12.61a.62.62,0,0,0-.58.46L11.63,74A.25.25,0,0,1,11.46,74.19Z" transform="translate(-4.61 -2.15)"/><path class="cls-15" d="M13.2,75.15a5.07,5.07,0,1,0,5.07,5.07h0A5.08,5.08,0,0,0,13.2,75.15Z" transform="translate(-4.61 -2.15)"/><rect class="cls-13" x="8.59" y="138.27" width="32.57" height="11.87" rx="2.83"/><polygon class="cls-11" points="23.44 141.9 21.99 141.9 22.13 141.22 23.59 141.22 23.44 141.9"/><polygon class="cls-11" points="23.06 143.68 20.66 143.68 20.81 142.99 23.21 142.99 23.06 143.68"/><polygon class="cls-11" points="22.69 145.46 19.34 145.46 19.49 144.77 22.84 144.77 22.69 145.46"/><polygon class="cls-11" points="22.31 147.23 18.02 147.23 18.16 146.55 22.46 146.55 22.31 147.23"/><path class="cls-14" d="M11.46,140.33a6.34,6.34,0,0,0-.83.3.2.2,0,0,1-.21,0l-1.39-1a.6.6,0,0,0-.74,0l-.91.75a.64.64,0,0,0-.15.73L8,142.62a.22.22,0,0,1,0,.22,6,6,0,0,0-.44.78.23.23,0,0,1-.18.12l-1.74.11a.62.62,0,0,0-.55.49l-.2,1.16a.61.61,0,0,0,.35.65l1.58.69A.24.24,0,0,1,7,147a6.64,6.64,0,0,0,.16.87.2.2,0,0,1-.06.21l-1.26,1.2a.62.62,0,0,0-.11.73l.59,1a.65.65,0,0,0,.69.28l1.65-.49a.31.31,0,0,1,.23,0,6.13,6.13,0,0,0,.68.56.27.27,0,0,1,.09.21l-.2,1.72a.63.63,0,0,0,.39.63l1.11.4a.62.62,0,0,0,.7-.23l1-1.44a.28.28,0,0,1,.21-.1h.88a.26.26,0,0,1,.2.1l.95,1.45a.63.63,0,0,0,.71.23l1.11-.4a.63.63,0,0,0,.39-.63l-.2-1.71a.26.26,0,0,1,.09-.22,6.13,6.13,0,0,0,.68-.56.26.26,0,0,1,.21-.06l1.66.5a.63.63,0,0,0,.69-.28l.59-1a.62.62,0,0,0-.11-.73l-1.25-1.19a.25.25,0,0,1-.06-.22,6.47,6.47,0,0,0,.15-.88.3.3,0,0,1,.12-.17l1.6-.69a.65.65,0,0,0,.35-.65l-.21-1.16a.64.64,0,0,0-.55-.5l-1.72-.1a.26.26,0,0,1-.19-.13,6,6,0,0,0-.45-.77.26.26,0,0,1,0-.21l.77-1.55a.64.64,0,0,0-.15-.73l-.9-.75a.63.63,0,0,0-.74,0l-1.38,1a.26.26,0,0,1-.24,0,6.34,6.34,0,0,0-.83-.3.29.29,0,0,1-.15-.16l-.4-1.69a.63.63,0,0,0-.58-.46H12.61a.63.63,0,0,0-.58.46l-.4,1.68A.29.29,0,0,1,11.46,140.33Z" transform="translate(-4.61 -2.15)"/><path class="cls-15" d="M13.2,141.29a5.07,5.07,0,1,0,5.07,5.07h0A5.09,5.09,0,0,0,13.2,141.29Z" transform="translate(-4.61 -2.15)"/><rect class="cls-13" x="8.59" y="181.13" width="32.57" height="11.88" rx="2.83"/><polygon class="cls-11" points="23.44 184.76 21.99 184.76 22.13 184.07 23.59 184.07 23.44 184.76"/><polygon class="cls-11" points="23.06 186.54 20.66 186.54 20.81 185.85 23.21 185.85 23.06 186.54"/><polygon class="cls-11" points="22.69 188.32 19.34 188.32 19.49 187.63 22.84 187.63 22.69 188.32"/><polygon class="cls-11" points="22.31 190.09 18.02 190.09 18.16 189.41 22.46 189.41 22.31 190.09"/><path class="cls-14" d="M11.46,183.18a8.29,8.29,0,0,0-.83.31.26.26,0,0,1-.21,0l-1.39-1a.66.66,0,0,0-.74,0l-.91.76a.64.64,0,0,0-.15.73l.77,1.5a.22.22,0,0,1,0,.22,6,6,0,0,0-.44.78.28.28,0,0,1-.18.12l-1.74.1a.64.64,0,0,0-.55.5l-.2,1.16a.62.62,0,0,0,.35.65l1.58.68a.29.29,0,0,1,.13.18,6.49,6.49,0,0,0,.16.88A.23.23,0,0,1,7,191l-1.26,1.2a.62.62,0,0,0-.11.73l.59,1a.63.63,0,0,0,.69.27l1.65-.49a.27.27,0,0,1,.23.06,6.13,6.13,0,0,0,.68.56.25.25,0,0,1,.09.2l-.2,1.73a.63.63,0,0,0,.39.63l1.11.4a.62.62,0,0,0,.7-.23l1-1.44a.25.25,0,0,1,.21-.1h.88a.26.26,0,0,1,.2.1l1,1.45a.65.65,0,0,0,.71.23l1.11-.4a.63.63,0,0,0,.39-.63l-.2-1.71a.24.24,0,0,1,.09-.22,5.27,5.27,0,0,0,.68-.57.23.23,0,0,1,.21-.05l1.66.49a.6.6,0,0,0,.69-.27l.59-1a.64.64,0,0,0-.11-.74L19.36,191a.25.25,0,0,1-.06-.22,6.61,6.61,0,0,0,.15-.89.28.28,0,0,1,.12-.16l1.6-.69a.65.65,0,0,0,.35-.65l-.21-1.16a.64.64,0,0,0-.55-.5L19,186.6a.26.26,0,0,1-.19-.13,6,6,0,0,0-.45-.77.26.26,0,0,1,0-.21l.77-1.55a.64.64,0,0,0-.15-.73l-.9-.76a.66.66,0,0,0-.74,0l-1.38,1a.33.33,0,0,1-.24,0,6.34,6.34,0,0,0-.83-.3.28.28,0,0,1-.15-.15l-.4-1.69a.63.63,0,0,0-.58-.46H12.61a.63.63,0,0,0-.58.46l-.4,1.67A.27.27,0,0,1,11.46,183.18Z" transform="translate(-4.61 -2.15)"/><path class="cls-15" d="M13.2,184.14a5.08,5.08,0,1,0,5.07,5.09v0A5.08,5.08,0,0,0,13.2,184.14Z" transform="translate(-4.61 -2.15)"/><rect class="cls-13" x="67.37" y="181.13" width="32.57" height="11.88" rx="2.83"/><polygon class="cls-11" points="82.22 184.76 80.77 184.76 80.91 184.07 82.36 184.07 82.22 184.76"/><polygon class="cls-11" points="81.84 186.54 79.44 186.54 79.59 185.85 81.99 185.85 81.84 186.54"/><polygon class="cls-11" points="81.47 188.32 78.12 188.32 78.27 187.63 81.61 187.63 81.47 188.32"/><polygon class="cls-11" points="81.09 190.09 76.8 190.09 76.94 189.41 81.24 189.41 81.09 190.09"/><path class="cls-14" d="M70.24,183.18a8.29,8.29,0,0,0-.83.31.26.26,0,0,1-.21,0l-1.4-1a.66.66,0,0,0-.74,0l-.9.76A.64.64,0,0,0,66,184l.77,1.54a.28.28,0,0,1,0,.22,6,6,0,0,0-.44.78.28.28,0,0,1-.18.12l-1.74.1a.64.64,0,0,0-.55.5l-.2,1.16a.62.62,0,0,0,.33.6l1.58.68a.29.29,0,0,1,.13.18,6.49,6.49,0,0,0,.16.88.26.26,0,0,1-.06.21l-1.26,1.2a.62.62,0,0,0-.11.73l.59,1a.63.63,0,0,0,.69.27l1.65-.49a.27.27,0,0,1,.23.06,6.13,6.13,0,0,0,.68.56.25.25,0,0,1,.09.2l-.2,1.73a.63.63,0,0,0,.39.63l1.11.4a.62.62,0,0,0,.7-.23l1-1.44a.25.25,0,0,1,.21-.1h.88a.26.26,0,0,1,.2.1l1,1.45a.65.65,0,0,0,.71.23l1.11-.4a.63.63,0,0,0,.39-.63l-.2-1.71a.24.24,0,0,1,.09-.22,5.27,5.27,0,0,0,.68-.57.23.23,0,0,1,.21-.05l1.66.49a.6.6,0,0,0,.69-.27l.59-1a.64.64,0,0,0-.11-.74L78.14,191a.23.23,0,0,1-.06-.22,6.61,6.61,0,0,0,.15-.89.28.28,0,0,1,.12-.16L80,189a.65.65,0,0,0,.35-.65l-.21-1.16a.64.64,0,0,0-.55-.5l-1.72-.1a.3.3,0,0,1-.2-.13,4.51,4.51,0,0,0-.44-.77.26.26,0,0,1,0-.21l.77-1.55a.64.64,0,0,0-.15-.73l-.9-.76a.66.66,0,0,0-.74,0l-1.38,1a.33.33,0,0,1-.24,0,6.34,6.34,0,0,0-.83-.3.28.28,0,0,1-.15-.15l-.4-1.69a.63.63,0,0,0-.58-.46H71.39a.64.64,0,0,0-.59.46l-.39,1.7A.28.28,0,0,1,70.24,183.18Z" transform="translate(-4.61 -2.15)"/><path class="cls-15" d="M72,184.14a5.08,5.08,0,1,0,5,5.16v-.09A5.08,5.08,0,0,0,72,184.14Z" transform="translate(-4.61 -2.15)"/><rect class="cls-13" x="8.59" y="33.99" width="32.57" height="11.87" rx="2.83"/><polygon class="cls-11" points="23.44 37.63 21.99 37.63 22.13 36.94 23.59 36.94 23.44 37.63"/><polygon class="cls-11" points="23.06 39.4 20.66 39.4 20.81 38.72 23.21 38.72 23.06 39.4"/><polygon class="cls-11" points="22.69 41.18 19.34 41.18 19.49 40.49 22.84 40.49 22.69 41.18"/><polygon class="cls-11" points="22.31 42.96 18.02 42.96 18.16 42.27 22.46 42.27 22.31 42.96"/><path class="cls-14" d="M11.46,36.05a6.34,6.34,0,0,0-.83.3.2.2,0,0,1-.21,0L9,35.3a.6.6,0,0,0-.74,0l-.91.76a.6.6,0,0,0-.15.72L8,38.34a.31.31,0,0,1,0,.23,4.51,4.51,0,0,0-.44.77.29.29,0,0,1-.18.13l-1.74.1a.62.62,0,0,0-.55.49l-.2,1.16a.61.61,0,0,0,.35.65l1.58.69a.24.24,0,0,1,.13.18,6.64,6.64,0,0,0,.16.87.25.25,0,0,1-.06.22L5.78,45a.62.62,0,0,0-.11.73l.59,1A.65.65,0,0,0,7,47l1.65-.49a.31.31,0,0,1,.23,0,5.27,5.27,0,0,0,.68.57.25.25,0,0,1,.09.2L9.4,49.1a.63.63,0,0,0,.39.63l1.11.4a.62.62,0,0,0,.7-.23l1-1.44a.28.28,0,0,1,.21-.1h.88a.25.25,0,0,1,.2.09l.95,1.45a.63.63,0,0,0,.71.23l1.11-.4A.63.63,0,0,0,17,49.1l-.2-1.71a.26.26,0,0,1,.09-.22,6.13,6.13,0,0,0,.68-.56.26.26,0,0,1,.21-.06l1.66.5a.63.63,0,0,0,.69-.27l.59-1a.62.62,0,0,0-.11-.73l-1.25-1.18a.27.27,0,0,1-.06-.23,6.47,6.47,0,0,0,.15-.88.3.3,0,0,1,.12-.17l1.6-.69a.65.65,0,0,0,.35-.65l-.21-1.16a.61.61,0,0,0-.55-.49L19,39.47a.3.3,0,0,1-.19-.14c-.14-.26-.29-.52-.45-.77a.26.26,0,0,1,0-.21l.77-1.55a.6.6,0,0,0-.15-.72l-.9-.76a.63.63,0,0,0-.74,0l-1.38,1a.26.26,0,0,1-.24,0,6.34,6.34,0,0,0-.83-.3.29.29,0,0,1-.15-.16l-.4-1.69a.62.62,0,0,0-.58-.45H12.61a.61.61,0,0,0-.58.45l-.4,1.68A.28.28,0,0,1,11.46,36.05Z" transform="translate(-4.61 -2.15)"/><path class="cls-15" d="M13.2,37a5.07,5.07,0,1,0,5.07,5.07h0A5.08,5.08,0,0,0,13.2,37Z" transform="translate(-4.61 -2.15)"/><rect class="cls-13" x="129.31" y="2.95" width="32.57" height="11.87" rx="2.83"/><polygon class="cls-11" points="144.16 6.58 142.7 6.58 142.85 5.89 144.3 5.89 144.16 6.58"/><polygon class="cls-11" points="143.78 8.36 141.38 8.36 141.53 7.67 143.93 7.67 143.78 8.36"/><polygon class="cls-11" points="143.41 10.14 140.06 10.14 140.2 9.45 143.55 9.45 143.41 10.14"/><polygon class="cls-11" points="143.03 11.91 138.74 11.91 138.88 11.23 143.18 11.23 143.03 11.91"/><path class="cls-14" d="M132.18,5a6.34,6.34,0,0,0-.83.3.26.26,0,0,1-.21,0l-1.4-1a.66.66,0,0,0-.74,0l-.9.76a.64.64,0,0,0-.15.73l.77,1.54a.28.28,0,0,1,0,.22,6.06,6.06,0,0,0-.45.78.23.23,0,0,1-.18.12l-1.73.1a.63.63,0,0,0-.55.5l-.21,1.16a.64.64,0,0,0,.36.65l1.58.69a.25.25,0,0,1,.13.17,6.49,6.49,0,0,0,.16.88.26.26,0,0,1-.06.21L126.5,14a.62.62,0,0,0-.11.73l.59,1a.6.6,0,0,0,.69.27l1.65-.49a.27.27,0,0,1,.23.06,7.1,7.1,0,0,0,.67.56.26.26,0,0,1,.1.2l-.2,1.73a.63.63,0,0,0,.39.63l1.1.4a.63.63,0,0,0,.71-.23l.94-1.44a.27.27,0,0,1,.22-.1h.88a.26.26,0,0,1,.2.1l.95,1.45a.65.65,0,0,0,.71.23l1.11-.4a.63.63,0,0,0,.38-.63l-.19-1.71a.24.24,0,0,1,.09-.22,5.18,5.18,0,0,0,.67-.57.28.28,0,0,1,.22-.05l1.66.49a.63.63,0,0,0,.69-.27l.59-1a.64.64,0,0,0-.11-.74l-1.25-1.18a.26.26,0,0,1-.07-.22,5.24,5.24,0,0,0,.16-.88.3.3,0,0,1,.12-.17l1.59-.69a.64.64,0,0,0,.36-.65L142,9a.64.64,0,0,0-.55-.5l-1.72-.1a.28.28,0,0,1-.2-.13,4.51,4.51,0,0,0-.44-.77.26.26,0,0,1,0-.21l.78-1.55a.64.64,0,0,0-.15-.73l-.9-.76a.66.66,0,0,0-.74,0l-1.38,1a.33.33,0,0,1-.24,0,6.34,6.34,0,0,0-.83-.3.23.23,0,0,1-.15-.15l-.41-1.69a.63.63,0,0,0-.58-.46h-1.18a.63.63,0,0,0-.58.46l-.4,1.67A.26.26,0,0,1,132.18,5Z" transform="translate(-4.61 -2.15)"/><path class="cls-15" d="M133.92,6A5.07,5.07,0,1,0,139,11.06V11A5.06,5.06,0,0,0,133.92,6Z" transform="translate(-4.61 -2.15)"/><rect class="cls-13" x="223.96" y="2.95" width="32.57" height="11.87" rx="2.83"/><polygon class="cls-11" points="238.81 6.58 237.36 6.58 237.51 5.89 238.96 5.89 238.81 6.58"/><polygon class="cls-11" points="238.44 8.36 236.04 8.36 236.18 7.67 238.58 7.67 238.44 8.36"/><polygon class="cls-11" points="238.06 10.14 234.71 10.14 234.86 9.45 238.21 9.45 238.06 10.14"/><polygon class="cls-11" points="237.69 11.91 233.39 11.91 233.54 11.23 237.83 11.23 237.69 11.91"/><path class="cls-14" d="M226.84,5a6.34,6.34,0,0,0-.83.3.41.41,0,0,1-.22,0l-1.39-1a.66.66,0,0,0-.74,0l-.91.76a.65.65,0,0,0-.15.73l.77,1.54a.22.22,0,0,1,0,.22,7.44,7.44,0,0,0-.44.78.28.28,0,0,1-.18.12l-1.73.1a.65.65,0,0,0-.56.5l-.2,1.16a.61.61,0,0,0,.35.65l1.58.69a.26.26,0,0,1,.14.17,6.47,6.47,0,0,0,.15.88.23.23,0,0,1,0,.21L221.16,14a.62.62,0,0,0-.11.73l.59,1a.6.6,0,0,0,.69.27l1.65-.49a.27.27,0,0,1,.23.06,6,6,0,0,0,.67.56.25.25,0,0,1,.09.2l-.2,1.73a.63.63,0,0,0,.39.63l1.11.4a.63.63,0,0,0,.71-.23l.94-1.44a.25.25,0,0,1,.21-.1H229a.26.26,0,0,1,.2.1l1,1.45a.63.63,0,0,0,.7.23l1.11-.4a.63.63,0,0,0,.39-.63l-.2-1.71a.31.31,0,0,1,.09-.22,5.27,5.27,0,0,0,.68-.57.27.27,0,0,1,.21-.05l1.66.49a.63.63,0,0,0,.69-.27l.59-1A.64.64,0,0,0,236,14l-1.25-1.18a.23.23,0,0,1-.07-.22,8.52,8.52,0,0,0,.16-.88.24.24,0,0,1,.12-.17l1.59-.69a.62.62,0,0,0,.35-.65L236.69,9a.65.65,0,0,0-.56-.5l-1.71-.1a.28.28,0,0,1-.2-.13,5.35,5.35,0,0,0-.45-.77.26.26,0,0,1,0-.21l.78-1.55A.65.65,0,0,0,234.4,5l-.91-.76a.66.66,0,0,0-.74,0l-1.38,1a.31.31,0,0,1-.23,0,6,6,0,0,0-.84-.3.28.28,0,0,1-.15-.15l-.4-1.69a.63.63,0,0,0-.58-.46H228a.63.63,0,0,0-.58.46L227,4.83A.3.3,0,0,1,226.84,5Z" transform="translate(-4.61 -2.15)"/><path class="cls-15" d="M228.57,6a5.07,5.07,0,1,0,5.07,5.07V11A5.08,5.08,0,0,0,228.57,6Z" transform="translate(-4.61 -2.15)"/><path class="cls-13" d="M272.44,28.25h26.9a2.83,2.83,0,0,1,2.83,2.83v6.21a2.83,2.83,0,0,1-2.83,2.83h-26.9a2.83,2.83,0,0,1-2.83-2.83v-6.2A2.85,2.85,0,0,1,272.44,28.25Z" transform="translate(-4.61 -2.15)"/><polygon class="cls-11" points="279.85 29.74 278.39 29.74 278.54 29.05 279.99 29.05 279.85 29.74"/><polygon class="cls-11" points="279.47 31.51 277.07 31.51 277.22 30.83 279.62 30.83 279.47 31.51"/><polygon class="cls-11" points="279.1 33.29 275.75 33.29 275.89 32.6 279.24 32.6 279.1 33.29"/><polygon class="cls-11" points="278.72 35.07 274.43 35.07 274.57 34.38 278.87 34.38 278.72 35.07"/><path class="cls-14" d="M267.87,28.16a6.34,6.34,0,0,0-.83.3.2.2,0,0,1-.21,0l-1.4-1a.63.63,0,0,0-.74,0l-.9.76a.6.6,0,0,0-.15.72l.77,1.54a.31.31,0,0,1,0,.23,5.35,5.35,0,0,0-.45.77.24.24,0,0,1-.18.13l-1.73.1a.64.64,0,0,0-.55.49l-.21,1.16a.67.67,0,0,0,.35.66l1.58.68a.24.24,0,0,1,.14.18,6.49,6.49,0,0,0,.16.88.26.26,0,0,1-.06.21l-1.26,1.19a.62.62,0,0,0-.11.73l.59,1a.63.63,0,0,0,.69.27l1.65-.49a.31.31,0,0,1,.23,0,5.18,5.18,0,0,0,.67.57.22.22,0,0,1,.1.2l-.2,1.72a.63.63,0,0,0,.39.63l1.1.41A.65.65,0,0,0,268,42l.94-1.43a.27.27,0,0,1,.22-.11H270a.25.25,0,0,1,.2.09l1,1.45a.65.65,0,0,0,.71.24l1.1-.41a.62.62,0,0,0,.39-.63l-.19-1.71a.26.26,0,0,1,.09-.22,6,6,0,0,0,.67-.56.26.26,0,0,1,.21-.06l1.67.5a.63.63,0,0,0,.69-.27l.59-1a.62.62,0,0,0-.11-.73L275.77,36a.28.28,0,0,1-.07-.23,5.24,5.24,0,0,0,.16-.88.3.3,0,0,1,.12-.17l1.59-.68a.65.65,0,0,0,.36-.66l-.21-1.16a.61.61,0,0,0-.55-.49l-1.72-.1a.28.28,0,0,1-.2-.13,7.44,7.44,0,0,0-.44-.78.23.23,0,0,1,0-.2l.78-1.56a.6.6,0,0,0-.15-.72l-.9-.76a.63.63,0,0,0-.74,0l-1.38,1a.26.26,0,0,1-.24,0,6.34,6.34,0,0,0-.83-.3.26.26,0,0,1-.15-.16l-.41-1.68a.62.62,0,0,0-.58-.46H269a.63.63,0,0,0-.58.46L268,28A.26.26,0,0,1,267.87,28.16Z" transform="translate(-4.61 -2.15)"/><path class="cls-15" d="M269.6,29.12a5.07,5.07,0,1,0,5.07,5.07,5.07,5.07,0,0,0-5.07-5.07Z" transform="translate(-4.61 -2.15)"/><path class="cls-13" d="M272.44,61.33h26.9a2.83,2.83,0,0,1,2.83,2.83v6.21a2.83,2.83,0,0,1-2.83,2.83h-26.9a2.83,2.83,0,0,1-2.83-2.83V64.16A2.85,2.85,0,0,1,272.44,61.33Z" transform="translate(-4.61 -2.15)"/><polygon class="cls-11" points="279.85 62.82 278.39 62.82 278.54 62.13 279.99 62.13 279.85 62.82"/><polygon class="cls-11" points="279.47 64.59 277.07 64.59 277.22 63.91 279.62 63.91 279.47 64.59"/><polygon class="cls-11" points="279.1 66.37 275.75 66.37 275.89 65.68 279.24 65.68 279.1 66.37"/><polygon class="cls-11" points="278.72 68.15 274.43 68.15 274.57 67.46 278.87 67.46 278.72 68.15"/><path class="cls-14" d="M267.87,61.24a6.34,6.34,0,0,0-.83.3.2.2,0,0,1-.21,0l-1.4-1a.63.63,0,0,0-.74,0l-.9.76a.6.6,0,0,0-.15.72l.77,1.54a.31.31,0,0,1,0,.23,5.35,5.35,0,0,0-.45.77.24.24,0,0,1-.18.13l-1.73.1a.61.61,0,0,0-.55.49l-.21,1.16a.65.65,0,0,0,.35.65l1.58.69a.24.24,0,0,1,.14.18,6.64,6.64,0,0,0,.16.87.29.29,0,0,1-.06.22l-1.26,1.19a.62.62,0,0,0-.11.73l.59,1a.63.63,0,0,0,.69.27l1.65-.49a.31.31,0,0,1,.23,0c.21.2.44.39.67.57a.2.2,0,0,1,.1.2l-.2,1.72a.63.63,0,0,0,.39.63l1.1.4A.63.63,0,0,0,268,75L269,73.6a.32.32,0,0,1,.22-.1h.88a.25.25,0,0,1,.2.09l.95,1.45a.63.63,0,0,0,.71.23l1.1-.4a.62.62,0,0,0,.39-.63l-.19-1.71a.26.26,0,0,1,.09-.22,6,6,0,0,0,.67-.56.26.26,0,0,1,.21-.06l1.67.5a.63.63,0,0,0,.69-.27l.59-1a.62.62,0,0,0-.11-.73L275.77,69a.28.28,0,0,1-.07-.23,5.24,5.24,0,0,0,.16-.88.3.3,0,0,1,.12-.17l1.59-.69a.64.64,0,0,0,.36-.65l-.21-1.16a.61.61,0,0,0-.55-.49l-1.72-.1a.35.35,0,0,1-.2-.14,8.46,8.46,0,0,0-.44-.77.26.26,0,0,1,0-.21l.78-1.55a.6.6,0,0,0-.15-.72l-.9-.76a.63.63,0,0,0-.74,0l-1.38,1a.26.26,0,0,1-.24,0,6.34,6.34,0,0,0-.83-.3.26.26,0,0,1-.15-.16l-.41-1.69a.63.63,0,0,0-.58-.46H269a.63.63,0,0,0-.58.46L268,61A.25.25,0,0,1,267.87,61.24Z" transform="translate(-4.61 -2.15)"/><path class="cls-15" d="M269.6,62.2a5.07,5.07,0,1,0,5.07,5.07,5.07,5.07,0,0,0-5.07-5.07Z" transform="translate(-4.61 -2.15)"/><path class="cls-13" d="M272.44,82h26.9a2.83,2.83,0,0,1,2.83,2.83V91a2.83,2.83,0,0,1-2.83,2.83h-26.9A2.83,2.83,0,0,1,269.61,91V84.86A2.84,2.84,0,0,1,272.43,82Z" transform="translate(-4.61 -2.15)"/><polygon class="cls-11" points="279.85 83.51 278.39 83.51 278.54 82.82 279.99 82.82 279.85 83.51"/><polygon class="cls-11" points="279.47 85.29 277.07 85.29 277.22 84.6 279.62 84.6 279.47 85.29"/><polygon class="cls-11" points="279.1 87.07 275.75 87.07 275.89 86.38 279.24 86.38 279.1 87.07"/><polygon class="cls-11" points="278.72 88.84 274.43 88.84 274.57 88.16 278.87 88.16 278.72 88.84"/><path class="cls-14" d="M267.87,81.93a8.29,8.29,0,0,0-.83.31.26.26,0,0,1-.21,0l-1.4-1a.66.66,0,0,0-.74,0l-.9.76a.64.64,0,0,0-.15.73l.77,1.54a.28.28,0,0,1,0,.22,6.06,6.06,0,0,0-.45.78.23.23,0,0,1-.18.12l-1.73.1a.64.64,0,0,0-.55.49l-.21,1.17a.65.65,0,0,0,.35.65l1.58.68a.28.28,0,0,1,.14.18,6.49,6.49,0,0,0,.16.88.26.26,0,0,1-.06.21l-1.26,1.19a.64.64,0,0,0-.11.74l.59,1a.6.6,0,0,0,.69.27l1.65-.49a.24.24,0,0,1,.23.06,7.1,7.1,0,0,0,.67.56.26.26,0,0,1,.1.2l-.2,1.73a.63.63,0,0,0,.39.63l1.1.4a.65.65,0,0,0,.71-.23l.94-1.44a.23.23,0,0,1,.22-.1h.88a.26.26,0,0,1,.2.1l.95,1.45a.65.65,0,0,0,.71.23l1.1-.4a.63.63,0,0,0,.39-.63l-.19-1.71a.24.24,0,0,1,.09-.22,5.18,5.18,0,0,0,.67-.57.26.26,0,0,1,.21,0l1.67.49a.63.63,0,0,0,.69-.27l.59-1A.64.64,0,0,0,277,91l-1.25-1.18a.26.26,0,0,1-.07-.22,5.36,5.36,0,0,0,.16-.89.28.28,0,0,1,.12-.16l1.59-.69a.64.64,0,0,0,.36-.65L277.73,86a.64.64,0,0,0-.55-.49l-1.72-.1a.28.28,0,0,1-.2-.13,7.44,7.44,0,0,0-.44-.78.23.23,0,0,1,0-.2l.78-1.55a.64.64,0,0,0-.15-.73l-.9-.76a.63.63,0,0,0-.74,0l-1.38,1a.33.33,0,0,1-.24,0,6.34,6.34,0,0,0-.83-.3.23.23,0,0,1-.15-.15l-.41-1.69a.63.63,0,0,0-.58-.46H269a.63.63,0,0,0-.58.46l-.4,1.67A.23.23,0,0,1,267.87,81.93Z" transform="translate(-4.61 -2.15)"/><path class="cls-15" d="M269.6,82.89A5.07,5.07,0,1,0,274.67,88a5.07,5.07,0,0,0-5.07-5.11Z" transform="translate(-4.61 -2.15)"/><path class="cls-13" d="M272.44,102.72h26.9a2.83,2.83,0,0,1,2.83,2.83v6.21a2.83,2.83,0,0,1-2.83,2.83h-26.9a2.83,2.83,0,0,1-2.83-2.83v-6.21A2.85,2.85,0,0,1,272.44,102.72Z" transform="translate(-4.61 -2.15)"/><polygon class="cls-11" points="279.85 104.21 278.39 104.21 278.54 103.52 279.99 103.52 279.85 104.21"/><polygon class="cls-11" points="279.47 105.98 277.07 105.98 277.22 105.3 279.62 105.3 279.47 105.98"/><polygon class="cls-11" points="279.1 107.76 275.75 107.76 275.89 107.07 279.24 107.07 279.1 107.76"/><polygon class="cls-11" points="278.72 109.54 274.43 109.54 274.57 108.85 278.87 108.85 278.72 109.54"/><path class="cls-14" d="M267.87,102.63a6.34,6.34,0,0,0-.83.3.2.2,0,0,1-.21,0l-1.4-1a.63.63,0,0,0-.74,0l-.9.76a.6.6,0,0,0-.15.72l.77,1.54a.31.31,0,0,1,0,.23,5.35,5.35,0,0,0-.45.77.24.24,0,0,1-.18.13l-1.73.1a.62.62,0,0,0-.55.49l-.21,1.16a.67.67,0,0,0,.35.66l1.58.68a.24.24,0,0,1,.14.18,6.49,6.49,0,0,0,.16.88.26.26,0,0,1-.06.21l-1.26,1.19a.62.62,0,0,0-.11.73l.59,1a.63.63,0,0,0,.69.27l1.65-.49a.31.31,0,0,1,.23,0c.21.2.44.39.67.57a.22.22,0,0,1,.1.2l-.2,1.72a.63.63,0,0,0,.39.63l1.1.41a.65.65,0,0,0,.71-.24L269,115a.27.27,0,0,1,.22-.11h.88a.25.25,0,0,1,.2.09l.95,1.45a.65.65,0,0,0,.71.24l1.1-.41a.62.62,0,0,0,.39-.63l-.19-1.71a.26.26,0,0,1,.09-.22,6,6,0,0,0,.67-.56.26.26,0,0,1,.21-.06l1.67.5a.63.63,0,0,0,.69-.27l.59-1a.62.62,0,0,0-.11-.73l-1.25-1.18a.28.28,0,0,1-.07-.23,5.24,5.24,0,0,0,.16-.88.3.3,0,0,1,.12-.17l1.59-.69a.64.64,0,0,0,.36-.65l-.21-1.16a.61.61,0,0,0-.55-.49l-1.72-.1a.25.25,0,0,1-.2-.14,8.46,8.46,0,0,0-.44-.77.23.23,0,0,1,0-.2l.78-1.56a.6.6,0,0,0-.15-.72l-.9-.76a.63.63,0,0,0-.74,0l-1.38,1a.26.26,0,0,1-.24,0,6.34,6.34,0,0,0-.83-.3.26.26,0,0,1-.15-.16l-.41-1.68a.61.61,0,0,0-.58-.46H269a.63.63,0,0,0-.58.46l-.4,1.67A.24.24,0,0,1,267.87,102.63Z" transform="translate(-4.61 -2.15)"/><path class="cls-15" d="M269.6,103.59a5.07,5.07,0,1,0,5.07,5.07,5.07,5.07,0,0,0-5.07-5.07Z" transform="translate(-4.61 -2.15)"/><path class="cls-13" d="M272.44,123.42h26.9a2.83,2.83,0,0,1,2.83,2.83v6.21a2.83,2.83,0,0,1-2.83,2.83h-26.9a2.83,2.83,0,0,1-2.83-2.83v-6.21A2.85,2.85,0,0,1,272.44,123.42Z" transform="translate(-4.61 -2.15)"/><polygon class="cls-11" points="279.85 124.9 278.39 124.9 278.54 124.21 279.99 124.21 279.85 124.9"/><polygon class="cls-11" points="279.47 126.68 277.07 126.68 277.22 125.99 279.62 125.99 279.47 126.68"/><polygon class="cls-11" points="279.1 128.46 275.75 128.46 275.89 127.77 279.24 127.77 279.1 128.46"/><polygon class="cls-11" points="278.72 130.23 274.43 130.23 274.57 129.55 278.87 129.55 278.72 130.23"/><path class="cls-14" d="M267.87,123.33a6.34,6.34,0,0,0-.83.3.26.26,0,0,1-.21,0l-1.4-1a.66.66,0,0,0-.74,0l-.9.76a.64.64,0,0,0-.15.73l.77,1.54a.28.28,0,0,1,0,.22,6.06,6.06,0,0,0-.45.78.23.23,0,0,1-.18.12l-1.73.1a.64.64,0,0,0-.55.5l-.21,1.16a.65.65,0,0,0,.35.65l1.58.68a.28.28,0,0,1,.14.18,6.49,6.49,0,0,0,.16.88.26.26,0,0,1-.06.21l-1.26,1.2a.62.62,0,0,0-.11.73l.59,1a.6.6,0,0,0,.69.27l1.65-.49a.24.24,0,0,1,.23.06,7.1,7.1,0,0,0,.67.56.26.26,0,0,1,.1.2l-.2,1.73a.63.63,0,0,0,.39.63l1.1.4a.63.63,0,0,0,.71-.23l.94-1.44a.26.26,0,0,1,.22-.1h.88a.26.26,0,0,1,.2.1l.95,1.45a.65.65,0,0,0,.71.23l1.1-.4a.62.62,0,0,0,.39-.63l-.19-1.71a.24.24,0,0,1,.09-.22,5.18,5.18,0,0,0,.67-.57.26.26,0,0,1,.21,0l1.67.49a.63.63,0,0,0,.69-.27l.59-1a.64.64,0,0,0-.11-.74l-1.25-1.18a.26.26,0,0,1-.07-.22,5.24,5.24,0,0,0,.16-.88.3.3,0,0,1,.12-.17l1.59-.69a.64.64,0,0,0,.36-.65l-.21-1.16a.63.63,0,0,0-.55-.5l-1.72-.1a.28.28,0,0,1-.2-.13,7.3,7.3,0,0,0-.44-.77.26.26,0,0,1,0-.21l.78-1.55a.64.64,0,0,0-.15-.73l-.9-.76a.66.66,0,0,0-.74,0l-1.38,1a.33.33,0,0,1-.24,0,6.34,6.34,0,0,0-.83-.3.23.23,0,0,1-.15-.15l-.41-1.69a.63.63,0,0,0-.58-.46H269a.63.63,0,0,0-.58.46l-.4,1.67A.28.28,0,0,1,267.87,123.33Z" transform="translate(-4.61 -2.15)"/><path class="cls-15" d="M269.6,124.28a5.07,5.07,0,1,0,5.07,5.07,5.07,5.07,0,0,0-5.07-5.07Z" transform="translate(-4.61 -2.15)"/><rect class="cls-13" x="206.98" y="152.31" width="32.57" height="11.87" rx="2.83"/><polygon class="cls-11" points="221.83 155.94 220.38 155.94 220.52 155.26 221.98 155.26 221.83 155.94"/><polygon class="cls-11" points="221.45 157.72 219.05 157.72 219.2 157.04 221.6 157.04 221.45 157.72"/><polygon class="cls-11" points="221.08 159.5 217.73 159.5 217.88 158.81 221.23 158.81 221.08 159.5"/><polygon class="cls-11" points="220.7 161.28 216.41 161.28 216.55 160.59 220.85 160.59 220.7 161.28"/><path class="cls-14" d="M209.86,154.37a6,6,0,0,0-.84.3.26.26,0,0,1-.21,0l-1.39-1a.63.63,0,0,0-.74,0l-.91.76a.6.6,0,0,0-.15.72l.77,1.54a.22.22,0,0,1,0,.22,6,6,0,0,0-.44.78.29.29,0,0,1-.18.13l-1.73.1a.63.63,0,0,0-.56.49l-.2,1.16a.61.61,0,0,0,.35.65l1.58.69a.23.23,0,0,1,.13.18,6.64,6.64,0,0,0,.16.87.23.23,0,0,1-.06.22l-1.26,1.19a.65.65,0,0,0-.1.73l.59,1a.63.63,0,0,0,.69.28l1.65-.49a.25.25,0,0,1,.22.05c.22.2.44.39.68.57a.25.25,0,0,1,.09.2l-.2,1.72a.63.63,0,0,0,.39.63l1.11.4a.62.62,0,0,0,.7-.23l.95-1.44a.28.28,0,0,1,.21-.1H212a.22.22,0,0,1,.2.09l1,1.45a.62.62,0,0,0,.7.23l1.11-.4a.63.63,0,0,0,.39-.63l-.2-1.71a.26.26,0,0,1,.09-.22,6.13,6.13,0,0,0,.68-.56.26.26,0,0,1,.21-.06l1.66.5a.63.63,0,0,0,.69-.28l.59-1a.62.62,0,0,0-.11-.73l-1.25-1.18a.27.27,0,0,1-.06-.23,6.47,6.47,0,0,0,.15-.88.31.31,0,0,1,.13-.17l1.59-.69a.62.62,0,0,0,.35-.65l-.2-1.16a.63.63,0,0,0-.56-.49l-1.72-.1a.3.3,0,0,1-.19-.14,5.35,5.35,0,0,0-.45-.77.26.26,0,0,1,0-.21l.77-1.55a.61.61,0,0,0-.14-.72l-.91-.76a.63.63,0,0,0-.74,0l-1.38,1a.25.25,0,0,1-.24,0,6.34,6.34,0,0,0-.83-.3.29.29,0,0,1-.15-.16l-.4-1.69a.63.63,0,0,0-.58-.46H211a.63.63,0,0,0-.58.46l-.4,1.68A.25.25,0,0,1,209.86,154.37Z" transform="translate(-4.61 -2.15)"/><path class="cls-15" d="M211.59,155.33a5.07,5.07,0,1,0,5.07,5.07,5.07,5.07,0,0,0-5.07-5.07Z" transform="translate(-4.61 -2.15)"/><path class="cls-13" d="M151.9,24.94h26.9a2.83,2.83,0,0,1,2.83,2.83h0V34a2.83,2.83,0,0,1-2.83,2.83H151.9A2.83,2.83,0,0,1,149.06,34h0V27.78A2.84,2.84,0,0,1,151.9,24.94Z" transform="translate(-4.61 -2.15)"/><polygon class="cls-11" points="159.3 26.43 157.85 26.43 158 25.74 159.45 25.74 159.3 26.43"/><polygon class="cls-11" points="158.93 28.21 156.53 28.21 156.67 27.52 159.08 27.52 158.93 28.21"/><polygon class="cls-11" points="158.55 29.98 155.21 29.98 155.35 29.3 158.7 29.3 158.55 29.98"/><polygon class="cls-11" points="158.18 31.76 153.88 31.76 154.03 31.07 158.32 31.07 158.18 31.76"/><path class="cls-14" d="M147.33,24.85a8.29,8.29,0,0,0-.83.31.26.26,0,0,1-.21,0l-1.4-1a.63.63,0,0,0-.74,0l-.9.76a.64.64,0,0,0-.15.73l.77,1.54a.28.28,0,0,1,0,.22,7.3,7.3,0,0,0-.44.77.23.23,0,0,1-.18.13l-1.73.1a.64.64,0,0,0-.55.49l-.23,1.1a.65.65,0,0,0,.35.65l1.58.68a.28.28,0,0,1,.14.18,6.47,6.47,0,0,0,.15.88.23.23,0,0,1-.05.21l-1.26,1.19a.64.64,0,0,0-.11.74l.59,1a.63.63,0,0,0,.69.27l1.65-.49a.24.24,0,0,1,.23.06,6,6,0,0,0,.67.56.25.25,0,0,1,.09.2l-.19,1.72a.65.65,0,0,0,.38.64l1.11.4a.65.65,0,0,0,.71-.23l.94-1.44a.26.26,0,0,1,.21-.11h.88a.26.26,0,0,1,.2.1l1,1.44a.62.62,0,0,0,.7.24l1.11-.4a.65.65,0,0,0,.39-.64l-.2-1.7a.26.26,0,0,1,.1-.22c.23-.18.46-.37.67-.57a.26.26,0,0,1,.21,0l1.67.49a.61.61,0,0,0,.68-.27l.6-1a.65.65,0,0,0-.11-.74l-1.25-1.18a.28.28,0,0,1-.07-.23,6.49,6.49,0,0,0,.16-.88.22.22,0,0,1,.12-.16l1.59-.69a.62.62,0,0,0,.35-.65l-.2-1.17a.64.64,0,0,0-.56-.49l-1.71-.1a.28.28,0,0,1-.2-.13,7.44,7.44,0,0,0-.44-.78.23.23,0,0,1,0-.2l.78-1.55a.65.65,0,0,0-.15-.73l-.91-.76a.63.63,0,0,0-.74,0l-1.38,1a.31.31,0,0,1-.23,0,6.34,6.34,0,0,0-.83-.3.23.23,0,0,1-.15-.15L150.23,23a.63.63,0,0,0-.58-.46h-1.18a.63.63,0,0,0-.58.46l-.4,1.67A.24.24,0,0,1,147.33,24.85Z" transform="translate(-4.61 -2.15)"/><path class="cls-15" d="M149.06,25.81a5.07,5.07,0,1,0,5.07,5.07,5.07,5.07,0,0,0-5.07-5.07Z" transform="translate(-4.61 -2.15)"/><rect class="cls-13" x="109.46" y="40.82" width="32.57" height="11.88" rx="2.83"/><polygon class="cls-11" points="124.31 44.45 122.86 44.45 123 43.77 124.46 43.77 124.31 44.45"/><polygon class="cls-11" points="123.93 46.23 121.53 46.23 121.68 45.54 124.08 45.54 123.93 46.23"/><polygon class="cls-11" points="123.56 48.01 120.21 48.01 120.36 47.32 123.71 47.32 123.56 48.01"/><polygon class="cls-11" points="123.19 49.79 118.89 49.79 119.03 49.1 123.33 49.1 123.19 49.79"/><path class="cls-14" d="M112.33,42.88a6.34,6.34,0,0,0-.83.3.26.26,0,0,1-.21,0l-1.39-1a.63.63,0,0,0-.74,0l-.91.75a.64.64,0,0,0-.15.73l.77,1.54a.22.22,0,0,1,0,.22,6,6,0,0,0-.44.78.23.23,0,0,1-.18.12l-1.73.11a.63.63,0,0,0-.56.49l-.2,1.16a.61.61,0,0,0,.35.65l1.58.69a.23.23,0,0,1,.13.18,6.64,6.64,0,0,0,.16.87.25.25,0,0,1-.06.22l-1.26,1.19a.62.62,0,0,0-.1.73l.59,1a.63.63,0,0,0,.69.28l1.64-.5a.32.32,0,0,1,.23.06,6.13,6.13,0,0,0,.68.56.25.25,0,0,1,.09.2l-.2,1.73a.63.63,0,0,0,.39.63l1.11.4a.62.62,0,0,0,.7-.23l1-1.44a.28.28,0,0,1,.21-.1h.88a.26.26,0,0,1,.2.1l1,1.45a.62.62,0,0,0,.7.23l1.11-.4A.63.63,0,0,0,118,56l-.2-1.71a.26.26,0,0,1,.09-.22,6.13,6.13,0,0,0,.68-.56.2.2,0,0,1,.21-.06l1.66.5a.63.63,0,0,0,.69-.28l.59-1a.62.62,0,0,0-.11-.73l-1.25-1.19a.25.25,0,0,1-.06-.22,6.47,6.47,0,0,0,.15-.88.31.31,0,0,1,.13-.17L122,48.7a.62.62,0,0,0,.35-.65l-.2-1.16a.65.65,0,0,0-.56-.5l-1.72-.1a.26.26,0,0,1-.19-.13,5.35,5.35,0,0,0-.45-.77.26.26,0,0,1,0-.21l.77-1.55a.64.64,0,0,0-.15-.73l-.9-.75a.63.63,0,0,0-.74,0l-1.38,1a.33.33,0,0,1-.24,0,8.29,8.29,0,0,0-.83-.31.28.28,0,0,1-.15-.15l-.4-1.69a.63.63,0,0,0-.58-.46h-1.18a.63.63,0,0,0-.58.46l-.4,1.68A.29.29,0,0,1,112.33,42.88Z" transform="translate(-4.61 -2.15)"/><path class="cls-15" d="M114.07,43.83a5.08,5.08,0,1,0,5.07,5.09h0A5.09,5.09,0,0,0,114.07,43.83Z" transform="translate(-4.61 -2.15)"/><rect class="cls-13" x="129.31" y="85.11" width="32.57" height="11.88" rx="2.83"/><polygon class="cls-11" points="144.16 88.75 142.7 88.75 142.85 88.06 144.3 88.06 144.16 88.75"/><polygon class="cls-11" points="143.78 90.52 141.38 90.52 141.53 89.84 143.93 89.84 143.78 90.52"/><polygon class="cls-11" points="143.41 92.3 140.06 92.3 140.2 91.61 143.55 91.61 143.41 92.3"/><polygon class="cls-11" points="143.03 94.08 138.74 94.08 138.88 93.39 143.18 93.39 143.03 94.08"/><path class="cls-14" d="M132.18,87.17a6.34,6.34,0,0,0-.83.3.2.2,0,0,1-.21,0l-1.4-1a.63.63,0,0,0-.74,0l-.9.76A.6.6,0,0,0,128,88l.77,1.54a.31.31,0,0,1,0,.23,6,6,0,0,0-.45.77.24.24,0,0,1-.18.13l-1.73.1a.61.61,0,0,0-.55.49l-.21,1.16a.66.66,0,0,0,.4.63l1.58.68a.24.24,0,0,1,.13.18,6.64,6.64,0,0,0,.16.87.29.29,0,0,1-.06.22l-1.26,1.19a.62.62,0,0,0-.11.73l.59,1a.63.63,0,0,0,.69.27l1.65-.49a.31.31,0,0,1,.23,0c.21.2.44.39.67.57a.2.2,0,0,1,.1.2l-.2,1.72a.63.63,0,0,0,.39.63l1.1.4a.63.63,0,0,0,.71-.23l.94-1.44a.32.32,0,0,1,.22-.1h.88a.25.25,0,0,1,.2.09l.95,1.45a.63.63,0,0,0,.71.23l1.11-.4a.63.63,0,0,0,.38-.63l-.19-1.71a.26.26,0,0,1,.09-.22,6,6,0,0,0,.67-.56.29.29,0,0,1,.22-.06l1.66.5a.63.63,0,0,0,.69-.27l.59-1a.62.62,0,0,0-.11-.73L140.08,95a.28.28,0,0,1-.07-.23,5.24,5.24,0,0,0,.16-.88.3.3,0,0,1,.12-.17l1.59-.69a.64.64,0,0,0,.36-.65l-.24-1.2a.61.61,0,0,0-.55-.49l-1.72-.1a.29.29,0,0,1-.2-.14,7.3,7.3,0,0,0-.44-.77.26.26,0,0,1,0-.21l.78-1.55a.6.6,0,0,0-.15-.72l-.9-.76a.63.63,0,0,0-.74,0l-1.38,1a.26.26,0,0,1-.24,0,6.34,6.34,0,0,0-.83-.3.26.26,0,0,1-.15-.16l-.41-1.68a.62.62,0,0,0-.58-.46h-1.18a.63.63,0,0,0-.58.46l-.4,1.67A.26.26,0,0,1,132.18,87.17Z" transform="translate(-4.61 -2.15)"/><path class="cls-15" d="M133.92,88.13A5.07,5.07,0,1,0,139,93.2a5.07,5.07,0,0,0-5.08-5.07Z" transform="translate(-4.61 -2.15)"/><rect class="cls-13" x="123.35" y="122.5" width="32.57" height="11.87" rx="2.83"/><polygon class="cls-11" points="138.2 126.14 136.74 126.14 136.89 125.45 138.34 125.45 138.2 126.14"/><polygon class="cls-11" points="137.82 127.92 135.42 127.92 135.57 127.23 137.97 127.23 137.82 127.92"/><polygon class="cls-11" points="137.45 129.69 134.1 129.69 134.25 129.01 137.59 129.01 137.45 129.69"/><polygon class="cls-11" points="137.07 131.47 132.78 131.47 132.92 130.78 137.22 130.78 137.07 131.47"/><path class="cls-14" d="M126.22,124.56a6.39,6.39,0,0,0-.83.31.26.26,0,0,1-.21,0l-1.4-1a.63.63,0,0,0-.74,0l-.9.76a.64.64,0,0,0-.15.73l.77,1.53a.31.31,0,0,1,0,.23,4.51,4.51,0,0,0-.44.77.29.29,0,0,1-.19.13l-1.73.1a.64.64,0,0,0-.55.49l-.21,1.17a.64.64,0,0,0,.36.65l1.58.68a.27.27,0,0,1,.13.18,6.49,6.49,0,0,0,.16.88.26.26,0,0,1-.06.21l-1.26,1.19a.64.64,0,0,0-.11.74l.59,1a.63.63,0,0,0,.69.27l1.65-.49a.24.24,0,0,1,.23.06,7.1,7.1,0,0,0,.67.56.22.22,0,0,1,.1.2l-.2,1.72a.65.65,0,0,0,.39.64l1.11.4a.62.62,0,0,0,.7-.24l1-1.43a.26.26,0,0,1,.21-.11h.88a.26.26,0,0,1,.2.1l1,1.44a.65.65,0,0,0,.71.24l1.11-.41a.61.61,0,0,0,.38-.63l-.19-1.71a.27.27,0,0,1,.09-.22,7.22,7.22,0,0,0,.68-.56.26.26,0,0,1,.21-.06l1.66.5a.63.63,0,0,0,.69-.27l.59-1a.62.62,0,0,0-.11-.73l-1.25-1.18a.28.28,0,0,1-.07-.23,5.24,5.24,0,0,0,.16-.88.25.25,0,0,1,.12-.16l1.6-.69a.65.65,0,0,0,.35-.65l-.21-1.17a.62.62,0,0,0-.55-.49l-1.72-.1a.3.3,0,0,1-.2-.13,6,6,0,0,0-.44-.78.23.23,0,0,1,0-.2l.77-1.55a.64.64,0,0,0-.15-.73l-.9-.76a.63.63,0,0,0-.74,0l-1.38,1a.26.26,0,0,1-.24,0,6.34,6.34,0,0,0-.83-.3.23.23,0,0,1-.15-.15l-.4-1.69a.63.63,0,0,0-.58-.46h-1.18a.62.62,0,0,0-.59.46l-.39,1.67A.27.27,0,0,1,126.22,124.56Z" transform="translate(-4.61 -2.15)"/><path class="cls-15" d="M128,125.52a5.07,5.07,0,1,0,5.06,5.08h0A5.09,5.09,0,0,0,128,125.52Z" transform="translate(-4.61 -2.15)"/><rect class="cls-13" x="150.81" y="142.52" width="32.57" height="11.87" rx="2.83"/><polygon class="cls-11" points="165.67 146.16 164.21 146.16 164.36 145.47 165.81 145.47 165.67 146.16"/><polygon class="cls-11" points="165.29 147.93 162.89 147.93 163.04 147.25 165.44 147.25 165.29 147.93"/><polygon class="cls-11" points="164.92 149.71 161.57 149.71 161.71 149.02 165.06 149.02 164.92 149.71"/><polygon class="cls-11" points="164.54 151.49 160.24 151.49 160.39 150.8 164.69 150.8 164.54 151.49"/><path class="cls-14" d="M153.69,144.58a6.34,6.34,0,0,0-.83.3.2.2,0,0,1-.21,0l-1.4-1a.63.63,0,0,0-.74,0l-.9.76a.6.6,0,0,0-.15.72l.77,1.54a.31.31,0,0,1,0,.23,6,6,0,0,0-.45.77.24.24,0,0,1-.18.13l-1.73.1a.61.61,0,0,0-.55.49l-.21,1.16a.65.65,0,0,0,.35.65l1.58.69a.28.28,0,0,1,.14.18,6.64,6.64,0,0,0,.16.87.29.29,0,0,1-.06.22L148,153.55a.62.62,0,0,0-.11.73l.59,1a.63.63,0,0,0,.69.27l1.65-.49a.31.31,0,0,1,.23,0c.21.2.44.39.67.57a.2.2,0,0,1,.1.2l-.2,1.72a.63.63,0,0,0,.39.63l1.1.4a.63.63,0,0,0,.71-.23l.94-1.44a.32.32,0,0,1,.22-.1h.88a.25.25,0,0,1,.2.09l1,1.45a.62.62,0,0,0,.7.23l1.11-.4a.63.63,0,0,0,.39-.63l-.19-1.71a.24.24,0,0,1,.09-.22,6,6,0,0,0,.67-.56A.26.26,0,0,1,160,155l1.67.5a.63.63,0,0,0,.69-.27l.59-1a.62.62,0,0,0-.11-.73l-1.25-1.18a.28.28,0,0,1-.07-.23,5.24,5.24,0,0,0,.16-.88.3.3,0,0,1,.12-.17l1.59-.69a.64.64,0,0,0,.36-.65l-.21-1.16a.61.61,0,0,0-.55-.49l-1.72-.1a.35.35,0,0,1-.2-.14,8.46,8.46,0,0,0-.44-.77.26.26,0,0,1,0-.21l.78-1.55a.6.6,0,0,0-.15-.72l-.9-.76a.63.63,0,0,0-.74,0l-1.39,1a.24.24,0,0,1-.23,0,6.34,6.34,0,0,0-.83-.3.26.26,0,0,1-.15-.16l-.41-1.69a.63.63,0,0,0-.58-.46h-1.18a.63.63,0,0,0-.58.46l-.4,1.68A.25.25,0,0,1,153.69,144.58Z" transform="translate(-4.61 -2.15)"/><path class="cls-15" d="M155.42,145.54a5.07,5.07,0,1,0,5.07,5.07,5.07,5.07,0,0,0-5.07-5.07Z" transform="translate(-4.61 -2.15)"/><rect class="cls-13" x="179.17" y="85.11" width="32.57" height="11.88" rx="2.83"/><polygon class="cls-11" points="194.02 88.75 192.56 88.75 192.71 88.06 194.16 88.06 194.02 88.75"/><polygon class="cls-11" points="193.64 90.52 191.24 90.52 191.39 89.84 193.79 89.84 193.64 90.52"/><polygon class="cls-11" points="193.27 92.3 189.92 92.3 190.07 91.61 193.41 91.61 193.27 92.3"/><polygon class="cls-11" points="192.89 94.08 188.6 94.08 188.74 93.39 193.04 93.39 192.89 94.08"/><path class="cls-14" d="M182,87.17a6.34,6.34,0,0,0-.83.3.2.2,0,0,1-.21,0l-1.4-1a.63.63,0,0,0-.74,0l-.9.76a.6.6,0,0,0-.15.72l.77,1.54a.31.31,0,0,1,0,.23,6,6,0,0,0-.45.77.24.24,0,0,1-.18.13l-1.73.1a.61.61,0,0,0-.55.49l-.21,1.16a.65.65,0,0,0,.36.66l1.58.68a.24.24,0,0,1,.13.18,6.64,6.64,0,0,0,.16.87.29.29,0,0,1-.06.22l-1.26,1.19a.62.62,0,0,0-.11.73l.59,1a.63.63,0,0,0,.69.27l1.65-.49a.31.31,0,0,1,.23,0c.21.2.44.39.67.57a.2.2,0,0,1,.1.2l-.2,1.72a.63.63,0,0,0,.39.63l1.1.4a.63.63,0,0,0,.71-.23l.94-1.44a.32.32,0,0,1,.22-.1h.88a.25.25,0,0,1,.2.09l1,1.45a.63.63,0,0,0,.71.23l1.11-.4a.63.63,0,0,0,.38-.63l-.19-1.71a.26.26,0,0,1,.09-.22,6,6,0,0,0,.67-.56.29.29,0,0,1,.22-.06l1.66.5a.63.63,0,0,0,.69-.27l.59-1a.62.62,0,0,0-.11-.73L189.94,95a.28.28,0,0,1-.07-.23,5.24,5.24,0,0,0,.16-.88.3.3,0,0,1,.12-.17l1.6-.69a.65.65,0,0,0,.35-.65l-.21-1.16a.61.61,0,0,0-.55-.49l-1.72-.1a.29.29,0,0,1-.2-.14,7.3,7.3,0,0,0-.44-.77.26.26,0,0,1,0-.21l.78-1.55a.6.6,0,0,0-.15-.72l-.9-.76a.63.63,0,0,0-.74,0l-1.38,1a.26.26,0,0,1-.24,0,6.34,6.34,0,0,0-.83-.3.26.26,0,0,1-.15-.16l-.4-1.68a.63.63,0,0,0-.58-.46H183.2a.63.63,0,0,0-.58.46L182.21,87A.3.3,0,0,1,182,87.17Z" transform="translate(-4.61 -2.15)"/><path class="cls-15" d="M183.78,88.13a5.07,5.07,0,1,0,5.06,5.08h0A5.07,5.07,0,0,0,183.78,88.13Z" transform="translate(-4.61 -2.15)"/><rect class="cls-13" x="201.32" y="171.88" width="32.57" height="11.87" rx="2.83"/><polygon class="cls-11" points="216.17 175.51 214.71 175.51 214.86 174.83 216.31 174.83 216.17 175.51"/><polygon class="cls-11" points="215.79 177.29 213.39 177.29 213.54 176.6 215.94 176.6 215.79 177.29"/><polygon class="cls-11" points="215.42 179.07 212.07 179.07 212.22 178.38 215.56 178.38 215.42 179.07"/><polygon class="cls-11" points="215.04 180.85 210.75 180.85 210.89 180.16 215.19 180.16 215.04 180.85"/><path class="cls-14" d="M204.19,173.94a6.34,6.34,0,0,0-.83.3.2.2,0,0,1-.21,0l-1.4-1a.63.63,0,0,0-.74,0l-.9.75a.64.64,0,0,0-.15.73l.77,1.54a.28.28,0,0,1,0,.22,6,6,0,0,0-.44.78.23.23,0,0,1-.18.12l-1.74.11a.62.62,0,0,0-.55.49l-.2,1.16a.61.61,0,0,0,.35.65l1.58.69a.24.24,0,0,1,.13.18,6.64,6.64,0,0,0,.16.87.29.29,0,0,1-.06.22l-1.26,1.19a.62.62,0,0,0-.11.73l.59,1a.63.63,0,0,0,.69.28l1.65-.49a.27.27,0,0,1,.23,0c.21.2.44.39.67.57a.2.2,0,0,1,.1.2l-.2,1.72a.63.63,0,0,0,.39.63l1.1.4a.63.63,0,0,0,.71-.23l.95-1.44a.28.28,0,0,1,.21-.1h.88a.25.25,0,0,1,.2.09l1,1.45a.63.63,0,0,0,.71.23l1.11-.4a.61.61,0,0,0,.38-.63l-.19-1.71a.26.26,0,0,1,.09-.22,6,6,0,0,0,.67-.56.29.29,0,0,1,.22-.06l1.66.5a.63.63,0,0,0,.69-.28l.59-1a.62.62,0,0,0-.11-.73l-1.25-1.18a.27.27,0,0,1-.06-.23,6.47,6.47,0,0,0,.15-.88.3.3,0,0,1,.12-.17l1.6-.69a.65.65,0,0,0,.35-.65L214,178a.64.64,0,0,0-.55-.5l-1.72-.1a.3.3,0,0,1-.2-.13,4.51,4.51,0,0,0-.44-.77.26.26,0,0,1,0-.21l.77-1.55a.64.64,0,0,0-.15-.73l-.9-.75a.63.63,0,0,0-.74,0l-1.38,1a.26.26,0,0,1-.24,0,6.34,6.34,0,0,0-.83-.3.29.29,0,0,1-.15-.16l-.4-1.69a.63.63,0,0,0-.58-.46h-1.18a.64.64,0,0,0-.59.46l-.39,1.68A.29.29,0,0,1,204.19,173.94Z" transform="translate(-4.61 -2.15)"/><path class="cls-15" d="M205.93,174.9A5.07,5.07,0,1,0,211,180a5.07,5.07,0,0,0-5.07-5.1Z" transform="translate(-4.61 -2.15)"/><rect class="cls-13" x="154.91" y="68.24" width="32.57" height="11.87" rx="2.83"/><polygon class="cls-11" points="169.76 71.87 168.31 71.87 168.45 71.18 169.91 71.18 169.76 71.87"/><polygon class="cls-11" points="169.39 73.65 166.98 73.65 167.13 72.96 169.53 72.96 169.39 73.65"/><polygon class="cls-11" points="169.01 75.43 165.66 75.43 165.81 74.74 169.16 74.74 169.01 75.43"/><polygon class="cls-11" points="168.64 77.2 164.34 77.2 164.48 76.52 168.78 76.52 168.64 77.2"/><path class="cls-14" d="M157.79,70.3a6,6,0,0,0-.84.3.38.38,0,0,1-.21,0l-1.39-1a.66.66,0,0,0-.74,0l-.91.76a.64.64,0,0,0-.15.73l.77,1.54a.22.22,0,0,1,0,.22,6,6,0,0,0-.44.78.28.28,0,0,1-.18.12l-1.73.1a.65.65,0,0,0-.56.5l-.2,1.16a.61.61,0,0,0,.35.65l1.58.69a.23.23,0,0,1,.13.17,6.49,6.49,0,0,0,.16.88.2.2,0,0,1-.06.21l-1.26,1.2a.62.62,0,0,0-.1.73l.59,1a.6.6,0,0,0,.69.27l1.64-.49a.24.24,0,0,1,.23.06,6.13,6.13,0,0,0,.68.56.25.25,0,0,1,.09.2l-.2,1.73a.63.63,0,0,0,.39.63l1.11.4a.62.62,0,0,0,.7-.23l1-1.44a.25.25,0,0,1,.21-.1H160a.26.26,0,0,1,.2.1l1,1.45a.63.63,0,0,0,.7.23L163,84a.63.63,0,0,0,.39-.63l-.2-1.71a.24.24,0,0,1,.09-.22,5.27,5.27,0,0,0,.68-.57.26.26,0,0,1,.21,0l1.66.49a.63.63,0,0,0,.69-.27l.59-1a.64.64,0,0,0-.11-.74l-1.25-1.18a.25.25,0,0,1-.06-.22,6.47,6.47,0,0,0,.15-.88.31.31,0,0,1,.13-.17l1.59-.69a.62.62,0,0,0,.35-.65l-.2-1.16a.65.65,0,0,0-.56-.5l-1.72-.1a.26.26,0,0,1-.19-.13,5.35,5.35,0,0,0-.45-.77.26.26,0,0,1,0-.21l.77-1.55a.64.64,0,0,0-.15-.73l-.9-.76a.66.66,0,0,0-.74,0l-1.38,1a.33.33,0,0,1-.24,0c-.26-.11-.54-.21-.83-.3a.28.28,0,0,1-.15-.15l-.4-1.69a.63.63,0,0,0-.58-.46H159a.63.63,0,0,0-.58.46l-.4,1.67A.32.32,0,0,1,157.79,70.3Z" transform="translate(-4.61 -2.15)"/><path class="cls-15" d="M159.52,71.25a5.07,5.07,0,1,0,5.07,5.07,5.07,5.07,0,0,0-5.07-5.07Z" transform="translate(-4.61 -2.15)"/><rect class="cls-13" x="198.98" y="61.87" width="32.57" height="11.87" rx="2.83"/><polygon class="cls-11" points="213.83 65.51 212.38 65.51 212.53 64.82 213.98 64.82 213.83 65.51"/><polygon class="cls-11" points="213.46 67.29 211.06 67.29 211.2 66.6 213.6 66.6 213.46 67.29"/><polygon class="cls-11" points="213.08 69.07 209.73 69.07 209.88 68.38 213.23 68.38 213.08 69.07"/><polygon class="cls-11" points="212.71 70.84 208.41 70.84 208.56 70.16 212.85 70.16 212.71 70.84"/><path class="cls-14" d="M201.86,63.93a8.29,8.29,0,0,0-.83.31.41.41,0,0,1-.22,0l-1.39-1a.66.66,0,0,0-.74,0l-.91.76a.65.65,0,0,0-.15.73l.77,1.54a.22.22,0,0,1,0,.22,7.44,7.44,0,0,0-.44.78.28.28,0,0,1-.18.12l-1.73.1a.66.66,0,0,0-.56.49l-.2,1.17a.62.62,0,0,0,.35.65l1.58.68a.28.28,0,0,1,.14.18,6.47,6.47,0,0,0,.15.88.23.23,0,0,1-.05.21l-1.26,1.19a.64.64,0,0,0-.11.74l.59,1a.6.6,0,0,0,.69.27l1.65-.49a.24.24,0,0,1,.23.06,6,6,0,0,0,.67.56.25.25,0,0,1,.09.2L199.8,77a.64.64,0,0,0,.39.63l1.11.4a.65.65,0,0,0,.71-.23l.94-1.44a.23.23,0,0,1,.21-.1H204a.26.26,0,0,1,.2.1l1,1.45a.63.63,0,0,0,.7.23l1.11-.4a.64.64,0,0,0,.39-.63l-.2-1.71a.31.31,0,0,1,.09-.22,5.27,5.27,0,0,0,.68-.57.26.26,0,0,1,.21,0l1.66.49a.63.63,0,0,0,.69-.27l.59-1a.64.64,0,0,0-.1-.74l-1.25-1.18a.23.23,0,0,1-.07-.22,6.63,6.63,0,0,0,.16-.89.22.22,0,0,1,.12-.16l1.59-.69a.62.62,0,0,0,.35-.65l-.2-1.17a.66.66,0,0,0-.56-.49l-1.71-.1a.28.28,0,0,1-.2-.13,6.06,6.06,0,0,0-.45-.78.23.23,0,0,1,0-.2l.78-1.55a.65.65,0,0,0-.15-.73l-.91-.76a.63.63,0,0,0-.74,0l-1.38,1a.31.31,0,0,1-.23,0c-.27-.11-.55-.21-.83-.3a.23.23,0,0,1-.15-.15l-.41-1.69a.63.63,0,0,0-.58-.46H203a.63.63,0,0,0-.58.46l-.4,1.67A.27.27,0,0,1,201.86,63.93Z" transform="translate(-4.61 -2.15)"/><path class="cls-15" d="M203.59,64.89A5.07,5.07,0,1,0,208.66,70a5.07,5.07,0,0,0-5.07-5.11Z" transform="translate(-4.61 -2.15)"/><rect class="cls-13" x="8.59" y="7.93" width="32.57" height="11.87" rx="2.83"/><polygon class="cls-11" points="23.44 11.57 21.99 11.57 22.13 10.88 23.59 10.88 23.44 11.57"/><polygon class="cls-11" points="23.06 13.35 20.66 13.35 20.81 12.66 23.21 12.66 23.06 13.35"/><polygon class="cls-11" points="22.69 15.12 19.34 15.12 19.49 14.44 22.84 14.44 22.69 15.12"/><polygon class="cls-11" points="22.31 16.9 18.02 16.9 18.16 16.21 22.46 16.21 22.31 16.9"/><path class="cls-14" d="M11.46,10a8.29,8.29,0,0,0-.83.31.26.26,0,0,1-.21,0L9,9.24a.6.6,0,0,0-.74,0L7.38,10a.64.64,0,0,0-.15.73L8,12.29a.22.22,0,0,1,0,.22,4.51,4.51,0,0,0-.44.77.24.24,0,0,1-.18.13l-1.74.1a.64.64,0,0,0-.55.49l-.2,1.17a.62.62,0,0,0,.35.65l1.58.68a.27.27,0,0,1,.13.18,6.49,6.49,0,0,0,.16.88.26.26,0,0,1-.06.21L5.78,19a.64.64,0,0,0-.11.74l.59,1A.64.64,0,0,0,7,21l1.6-.5a.24.24,0,0,1,.23.06,6.13,6.13,0,0,0,.68.56.25.25,0,0,1,.09.2L9.4,23a.65.65,0,0,0,.39.64l1.11.4a.63.63,0,0,0,.7-.23l1-1.44a.26.26,0,0,1,.21-.11h.88a.26.26,0,0,1,.2.1l.95,1.44a.65.65,0,0,0,.71.24l1.11-.41A.63.63,0,0,0,17,23l-.2-1.71a.24.24,0,0,1,.09-.21c.24-.18.46-.37.68-.57a.23.23,0,0,1,.21-.05l1.66.49a.63.63,0,0,0,.69-.27l.59-1a.64.64,0,0,0-.11-.74l-1.25-1.18a.27.27,0,0,1-.06-.23,6.47,6.47,0,0,0,.15-.88.25.25,0,0,1,.12-.16l1.6-.69a.65.65,0,0,0,.35-.65L21.31,14a.64.64,0,0,0-.55-.49L19,13.41a.26.26,0,0,1-.19-.13,6.06,6.06,0,0,0-.45-.78.23.23,0,0,1,0-.2l.77-1.55A.62.62,0,0,0,19,10l-.9-.76a.63.63,0,0,0-.74,0l-1.38,1a.33.33,0,0,1-.24,0,6.34,6.34,0,0,0-.83-.3.28.28,0,0,1-.15-.15l-.4-1.69a.63.63,0,0,0-.58-.46H12.61A.62.62,0,0,0,12,8.1l-.4,1.67A.27.27,0,0,1,11.46,10Z" transform="translate(-4.61 -2.15)"/><path class="cls-15" d="M13.2,11a5.07,5.07,0,1,0,5.07,5.07V16A5.08,5.08,0,0,0,13.2,11Z" transform="translate(-4.61 -2.15)"/><path class="cls-12" d="M205.91,5.1H194.74a5.94,5.94,0,0,0,0,11.87h11.17a2.83,2.83,0,0,0,2.83-2.83h0V7.93a2.83,2.83,0,0,0-2.83-2.83Z" transform="translate(-4.61 -2.15)"/><path class="cls-13" d="M199.08,11a4.34,4.34,0,0,1-8.68,0,4.25,4.25,0,0,1,.31-1.62.45.45,0,0,1,.58-.26h0a.46.46,0,0,1,.25.6A3.43,3.43,0,1,0,196.33,8a.46.46,0,0,1-.12-.64.47.47,0,0,1,.54-.17A4.34,4.34,0,0,1,199.08,11Zm-4.34-3a.67.67,0,1,0-.67-.67h0A.67.67,0,0,0,194.74,8Zm0,3.67a.67.67,0,0,0,.67-.66.65.65,0,0,0-.3-.56l-3.58-2.66,2.65,3.58a.68.68,0,0,0,.56.33Z" transform="translate(-4.61 -2.15)"/><path class="cls-12" d="M164.2,162.6H153a5.94,5.94,0,0,0,0,11.88h11.2a2.86,2.86,0,0,0,2.83-2.84v-6.2A2.86,2.86,0,0,0,164.2,162.6Z" transform="translate(-4.61 -2.15)"/><path class="cls-13" d="M157.37,168.54a4.34,4.34,0,1,1-8.68,0h0a4.28,4.28,0,0,1,.31-1.62.46.46,0,0,1,.59-.25.45.45,0,0,1,.25.58h0a3.5,3.5,0,0,0-.24,1.28,3.43,3.43,0,1,0,5-3,.46.46,0,0,1-.19-.62.45.45,0,0,1,.61-.19h0A4.34,4.34,0,0,1,157.37,168.54Zm-4.34-3a.67.67,0,1,0-.67-.67h0a.68.68,0,0,0,.64.66Zm0,3.68a.67.67,0,0,0,.67-.67.68.68,0,0,0-.3-.56l-3.58-2.65,2.65,3.58a.7.7,0,0,0,.53.29Z" transform="translate(-4.61 -2.15)"/><path class="cls-12" d="M22,123.31H10.8a5.94,5.94,0,0,0,0,11.88H22a2.85,2.85,0,0,0,2.83-2.84v-6.2A2.85,2.85,0,0,0,22,123.31Z" transform="translate(-4.61 -2.15)"/><path class="cls-13" d="M15.15,129.25a4.35,4.35,0,0,1-8.69.42,2.94,2.94,0,0,1,0-.42,4.53,4.53,0,0,1,.31-1.62.47.47,0,0,1,.62-.2.48.48,0,0,1,.23.54,3.32,3.32,0,0,0-.25,1.28,3.44,3.44,0,1,0,5-3,.46.46,0,0,1-.19-.62.45.45,0,0,1,.61-.19h0A4.34,4.34,0,0,1,15.15,129.25Zm-4.35-3a.67.67,0,1,0-.67-.67.67.67,0,0,0,.67.67Zm0,3.68a.67.67,0,0,0,.67-.67.68.68,0,0,0-.3-.56L7.59,126l2.66,3.58a.66.66,0,0,0,.55.34Z" transform="translate(-4.61 -2.15)"/><rect class="cls-16" x="79.67" y="113.75" width="11.87" height="11.87" rx="2.83"/><path class="cls-16" d="M42.93,74.28H19.07L19,74.22l-.9-.76a.63.63,0,0,0-.74,0l-1.14.84H16a2.72,2.72,0,0,0-.63.08c-.16-.06-.31-.12-.48-.17a.28.28,0,0,1-.15-.15l-.4-1.69a.63.63,0,0,0-.58-.46H12.61a.62.62,0,0,0-.58.46L11.63,74a.29.29,0,0,1-.17.17,6.39,6.39,0,0,0-.83.31.26.26,0,0,1-.21,0L9,73.44a.6.6,0,0,0-.74,0l-.91.76a.64.64,0,0,0-.15.73L8,76.48a.24.24,0,0,1,0,.23,4.51,4.51,0,0,0-.44.77.24.24,0,0,1-.18.13l-1.74.1a.64.64,0,0,0-.55.49l-.2,1.17a.62.62,0,0,0,.35.65l1.58.68a.27.27,0,0,1,.13.18,6.49,6.49,0,0,0,.16.88A.25.25,0,0,1,7,82L5.78,83.16a.64.64,0,0,0-.11.74l.59,1a.63.63,0,0,0,.69.27L8.6,84.7a.24.24,0,0,1,.23.06,6.13,6.13,0,0,0,.68.56.25.25,0,0,1,.09.2l-.2,1.72a.65.65,0,0,0,.39.64l1.11.4a.63.63,0,0,0,.7-.23l1-1.44a.26.26,0,0,1,.21-.11h.88a.26.26,0,0,1,.2.1l.9,1.4a.65.65,0,0,0,.71.24l1.11-.41A.63.63,0,0,0,17,87.2l-.13-1.08H42.93a2.85,2.85,0,0,0,2.84-2.84v-6.2A2.86,2.86,0,0,0,42.93,74.28Z" transform="translate(-4.61 -2.15)"/><path class="cls-16" d="M42.93,140.42H19.07l-.06-.07-.9-.75a.63.63,0,0,0-.74,0l-1.14.85H16a2.72,2.72,0,0,0-.63.08c-.16-.06-.31-.13-.48-.18a.28.28,0,0,1-.15-.15l-.4-1.69a.63.63,0,0,0-.58-.46H12.61a.63.63,0,0,0-.58.46l-.4,1.68a.29.29,0,0,1-.17.17,6.34,6.34,0,0,0-.83.3.2.2,0,0,1-.21,0l-1.39-1a.63.63,0,0,0-.74,0l-.91.75a.64.64,0,0,0-.15.73L8,142.62a.22.22,0,0,1,0,.22,6,6,0,0,0-.44.78.28.28,0,0,1-.18.12l-1.74.11a.62.62,0,0,0-.55.49l-.2,1.16a.61.61,0,0,0,.35.65l1.58.69A.24.24,0,0,1,7,147a6.64,6.64,0,0,0,.16.87.2.2,0,0,1-.06.21l-1.26,1.2a.62.62,0,0,0-.11.73l.59,1a.65.65,0,0,0,.69.28l1.65-.49a.31.31,0,0,1,.23,0,6.13,6.13,0,0,0,.68.56.27.27,0,0,1,.09.21l-.2,1.72a.63.63,0,0,0,.39.63l1.11.4a.62.62,0,0,0,.7-.23l1-1.44a.28.28,0,0,1,.21-.1h.88a.26.26,0,0,1,.2.1l.95,1.45a.63.63,0,0,0,.71.23l1.11-.4a.63.63,0,0,0,.39-.63l-.13-1.09h26a2.85,2.85,0,0,0,2.84-2.83v-6.21A2.84,2.84,0,0,0,42.93,140.42Z" transform="translate(-4.61 -2.15)"/><path class="cls-16" d="M42.93,183.27H19.07l-.06-.06-.9-.76a.63.63,0,0,0-.74,0l-1.14.84H16a3.4,3.4,0,0,0-.63.08c-.16,0-.31-.12-.48-.17a.28.28,0,0,1-.15-.15l-.4-1.69a.63.63,0,0,0-.58-.46H12.61a.63.63,0,0,0-.58.46l-.4,1.67a.29.29,0,0,1-.17.17,8.29,8.29,0,0,0-.83.31.26.26,0,0,1-.21,0l-1.39-1a.66.66,0,0,0-.74,0l-.91.76a.64.64,0,0,0-.15.73L8,185.48a.22.22,0,0,1,0,.22,6,6,0,0,0-.44.78.28.28,0,0,1-.18.12l-1.74.1a.64.64,0,0,0-.55.49l-.2,1.17a.62.62,0,0,0,.35.65l1.58.68a.29.29,0,0,1,.13.18,6.49,6.49,0,0,0,.16.88A.23.23,0,0,1,7,191l-1.26,1.2a.62.62,0,0,0-.11.73l.59,1a.63.63,0,0,0,.69.27l1.65-.49a.27.27,0,0,1,.23.06,6.13,6.13,0,0,0,.68.56.25.25,0,0,1,.09.2l-.2,1.73a.63.63,0,0,0,.39.63l1.11.4a.62.62,0,0,0,.7-.23l1-1.44a.25.25,0,0,1,.21-.1h.88a.26.26,0,0,1,.2.1l1,1.45a.65.65,0,0,0,.71.23l1.11-.4a.63.63,0,0,0,.39-.63l-.13-1.09H42.93a2.85,2.85,0,0,0,2.84-2.83v-6.21a2.86,2.86,0,0,0-2.83-2.87Z" transform="translate(-4.61 -2.15)"/><path class="cls-16" d="M101.71,183.27H77.84v-.06l-.9-.76a.63.63,0,0,0-.74,0l-1.14.84h-.2a3.4,3.4,0,0,0-.64.08c-.15,0-.3-.12-.47-.17a.28.28,0,0,1-.15-.15l-.4-1.69a.63.63,0,0,0-.58-.46H71.39a.64.64,0,0,0-.59.46L70.41,183a.29.29,0,0,1-.17.17,8.29,8.29,0,0,0-.83.31.26.26,0,0,1-.21,0l-1.4-1a.66.66,0,0,0-.74,0l-.9.76A.64.64,0,0,0,66,184l.77,1.54a.28.28,0,0,1,0,.22,6,6,0,0,0-.44.78.28.28,0,0,1-.18.12l-1.74.1a.64.64,0,0,0-.55.49l-.2,1.17A.64.64,0,0,0,64,189l1.58.68a.29.29,0,0,1,.13.18,6.49,6.49,0,0,0,.16.88.26.26,0,0,1-.06.21l-1.26,1.2a.62.62,0,0,0-.11.73l.59,1a.63.63,0,0,0,.69.27l1.65-.49a.27.27,0,0,1,.23.06,6.13,6.13,0,0,0,.68.56.25.25,0,0,1,.09.2l-.2,1.73a.63.63,0,0,0,.39.63l1.11.4a.62.62,0,0,0,.7-.23l1-1.44a.25.25,0,0,1,.21-.1h.88a.26.26,0,0,1,.2.1l1,1.45a.65.65,0,0,0,.71.23l1.11-.4a.63.63,0,0,0,.39-.63l-.13-1.09h26.06a2.85,2.85,0,0,0,2.84-2.83v-6.21a2.86,2.86,0,0,0-2.88-2.82Z" transform="translate(-4.61 -2.15)"/><path class="cls-16" d="M42.93,36.14H19.07L19,36.08l-.9-.76a.63.63,0,0,0-.74,0l-1.14.84H16a2.72,2.72,0,0,0-.63.08,4.59,4.59,0,0,0-.48-.17.29.29,0,0,1-.15-.16l-.4-1.69a.63.63,0,0,0-.58-.46H12.61a.63.63,0,0,0-.58.46l-.4,1.68a.29.29,0,0,1-.17.17,6.34,6.34,0,0,0-.83.3.2.2,0,0,1-.21,0L9,35.3a.6.6,0,0,0-.74,0l-.91.76a.6.6,0,0,0-.15.72L8,38.34a.22.22,0,0,1,0,.22,6,6,0,0,0-.44.78.29.29,0,0,1-.18.13l-1.74.1a.62.62,0,0,0-.55.49l-.2,1.16a.61.61,0,0,0,.35.65l1.58.69a.24.24,0,0,1,.13.18,6.64,6.64,0,0,0,.16.87.25.25,0,0,1-.06.22L5.78,45a.62.62,0,0,0-.11.73l.59,1A.65.65,0,0,0,7,47l1.65-.49a.31.31,0,0,1,.23,0c.22.2.44.39.68.57a.25.25,0,0,1,.09.2L9.4,49.1a.63.63,0,0,0,.39.63l1.11.4a.62.62,0,0,0,.7-.23l1-1.44a.28.28,0,0,1,.21-.1h.88a.25.25,0,0,1,.2.09l.95,1.45a.63.63,0,0,0,.71.23l1.11-.4A.63.63,0,0,0,17,49.1L16.87,48H42.93a2.85,2.85,0,0,0,2.84-2.83V39A2.84,2.84,0,0,0,43,36.14Z" transform="translate(-4.61 -2.15)"/><path class="cls-16" d="M126,10.83l1.58.69a.25.25,0,0,1,.13.17,6.49,6.49,0,0,0,.16.88.26.26,0,0,1-.06.21L126.5,14a.62.62,0,0,0-.11.73l.59,1a.6.6,0,0,0,.69.27l1.65-.49a.27.27,0,0,1,.23.06,7.1,7.1,0,0,0,.67.56.26.26,0,0,1,.1.2l-.2,1.73a.63.63,0,0,0,.39.63l1.1.4a.63.63,0,0,0,.71-.23l.94-1.44a.27.27,0,0,1,.22-.1h.88a.26.26,0,0,1,.2.1l.95,1.45a.65.65,0,0,0,.71.23l1.11-.4a.63.63,0,0,0,.38-.63L137.59,17h26.06a2.85,2.85,0,0,0,2.84-2.83V7.93a2.85,2.85,0,0,0-2.84-2.83H139.78l-.05-.1-.9-.76a.66.66,0,0,0-.74,0L137,5.1h-.2a2.74,2.74,0,0,0-.64.08c-.15-.06-.31-.13-.47-.18a.23.23,0,0,1-.15-.15l-.41-1.69a.63.63,0,0,0-.58-.46h-1.18a.63.63,0,0,0-.58.46l-.4,1.67a.26.26,0,0,1-.16.18,6.34,6.34,0,0,0-.83.3.26.26,0,0,1-.21,0l-1.4-1a.66.66,0,0,0-.74,0l-.9.76a.64.64,0,0,0-.15.73l.77,1.54a.28.28,0,0,1,0,.22,6.06,6.06,0,0,0-.45.78.23.23,0,0,1-.18.12l-1.73.1a.64.64,0,0,0-.55.5l-.21,1.16A.62.62,0,0,0,126,10.83Z" transform="translate(-4.61 -2.15)"/><path class="cls-16" d="M258.31,5.1H234.44l-.05-.1-.91-.76a.66.66,0,0,0-.74,0l-1.13.85h-.2a2.74,2.74,0,0,0-.64.08c-.16-.06-.31-.13-.48-.18a.28.28,0,0,1-.15-.15l-.4-1.69a.63.63,0,0,0-.58-.46H228a.63.63,0,0,0-.58.46L227,4.83a.26.26,0,0,1-.16.18,6.34,6.34,0,0,0-.83.3.41.41,0,0,1-.22,0l-1.39-1a.66.66,0,0,0-.74,0l-.91.76a.65.65,0,0,0-.15.73l.77,1.54a.22.22,0,0,1,0,.22,7.44,7.44,0,0,0-.44.78.28.28,0,0,1-.18.12l-1.73.1a.65.65,0,0,0-.56.5l-.2,1.16a.61.61,0,0,0,.35.65l1.58.69a.26.26,0,0,1,.14.17,6.47,6.47,0,0,0,.15.88.23.23,0,0,1,0,.21L221.16,14a.62.62,0,0,0-.11.73l.59,1a.6.6,0,0,0,.69.27l1.65-.49a.27.27,0,0,1,.23.06,6,6,0,0,0,.67.56.25.25,0,0,1,.09.2l-.2,1.73a.63.63,0,0,0,.39.63l1.11.4a.63.63,0,0,0,.71-.23l.94-1.44a.25.25,0,0,1,.21-.1H229a.26.26,0,0,1,.2.1l1,1.45a.63.63,0,0,0,.7.23l1.11-.4a.63.63,0,0,0,.39-.63L232.24,17h26.07a2.83,2.83,0,0,0,2.83-2.83V7.93A2.83,2.83,0,0,0,258.31,5.1Z" transform="translate(-4.61 -2.15)"/><path class="cls-16" d="M299.34,28.25H275.47l-.05-.06-.9-.76a.63.63,0,0,0-.74,0l-1.14.84h-.2a2.74,2.74,0,0,0-.64.08,3.75,3.75,0,0,0-.47-.17.26.26,0,0,1-.15-.16l-.41-1.68a.62.62,0,0,0-.58-.46H269a.63.63,0,0,0-.58.46L268,28a.25.25,0,0,1-.16.17,6.34,6.34,0,0,0-.83.3.2.2,0,0,1-.21,0l-1.4-1a.63.63,0,0,0-.74,0l-.9.76a.6.6,0,0,0-.15.72l.77,1.54a.31.31,0,0,1,0,.23,5.35,5.35,0,0,0-.45.77.24.24,0,0,1-.18.13l-1.73.1a.62.62,0,0,0-.55.49l-.21,1.16a.67.67,0,0,0,.35.66l1.58.68a.24.24,0,0,1,.14.18,6.49,6.49,0,0,0,.16.88.26.26,0,0,1-.06.21l-1.26,1.19a.62.62,0,0,0-.11.73l.59,1a.63.63,0,0,0,.69.27l1.65-.49a.31.31,0,0,1,.23,0c.21.2.44.39.67.57a.22.22,0,0,1,.1.2l-.2,1.72a.63.63,0,0,0,.39.63l1.1.41A.64.64,0,0,0,268,42l.94-1.43a.27.27,0,0,1,.22-.11H270a.25.25,0,0,1,.2.09l1,1.45a.65.65,0,0,0,.71.24l1.1-.41a.62.62,0,0,0,.39-.63l-.12-1.08h26.06a2.85,2.85,0,0,0,2.84-2.84v-6.2A2.86,2.86,0,0,0,299.34,28.25Z" transform="translate(-4.61 -2.15)"/><path class="cls-16" d="M299.34,61.33H275.47l-.05-.06-.9-.76a.63.63,0,0,0-.74,0l-1.14.84h-.2a2.74,2.74,0,0,0-.64.08,3.75,3.75,0,0,0-.47-.17.26.26,0,0,1-.15-.16l-.41-1.69a.63.63,0,0,0-.58-.46H269a.63.63,0,0,0-.58.46l-.4,1.68a.25.25,0,0,1-.16.17,6.34,6.34,0,0,0-.83.3.2.2,0,0,1-.21,0l-1.4-1a.63.63,0,0,0-.74,0l-.9.76a.6.6,0,0,0-.15.72l.77,1.54a.31.31,0,0,1,0,.23,5.35,5.35,0,0,0-.45.77.24.24,0,0,1-.18.13l-1.73.1a.61.61,0,0,0-.55.49l-.21,1.16a.65.65,0,0,0,.35.65l1.58.69a.24.24,0,0,1,.14.18,6.64,6.64,0,0,0,.16.87.29.29,0,0,1-.06.22l-1.26,1.19a.62.62,0,0,0-.11.73l.59,1a.63.63,0,0,0,.69.27l1.65-.49a.31.31,0,0,1,.23,0c.21.2.44.39.67.57a.2.2,0,0,1,.1.2l-.2,1.72a.63.63,0,0,0,.39.63l1.1.4a.63.63,0,0,0,.71-.23l.94-1.44a.32.32,0,0,1,.22-.1h.88a.25.25,0,0,1,.2.09l.95,1.45a.63.63,0,0,0,.71.23l1.1-.4a.62.62,0,0,0,.39-.63l-.12-1.09h26.06a2.85,2.85,0,0,0,2.84-2.83V64.16A2.85,2.85,0,0,0,299.34,61.33Z" transform="translate(-4.61 -2.15)"/><path class="cls-16" d="M299.34,82H275.47l-.05-.06-.9-.76a.63.63,0,0,0-.74,0l-1.14.84h-.2a3.4,3.4,0,0,0-.64.08l-.47-.17a.23.23,0,0,1-.15-.15l-.41-1.69a.63.63,0,0,0-.58-.46H269a.63.63,0,0,0-.58.46l-.4,1.67a.23.23,0,0,1-.16.17,8.29,8.29,0,0,0-.83.31.26.26,0,0,1-.21,0l-1.4-1a.66.66,0,0,0-.74,0l-.9.76a.64.64,0,0,0-.15.73l.77,1.54a.28.28,0,0,1,0,.22,6.06,6.06,0,0,0-.45.78.23.23,0,0,1-.18.12l-1.73.1a.64.64,0,0,0-.55.49l-.21,1.17a.65.65,0,0,0,.35.65l1.58.68a.28.28,0,0,1,.14.18,6.49,6.49,0,0,0,.16.88.26.26,0,0,1-.06.21l-1.26,1.19a.64.64,0,0,0-.11.74l.59,1a.6.6,0,0,0,.69.27l1.65-.49a.24.24,0,0,1,.23.06,7.1,7.1,0,0,0,.67.56.26.26,0,0,1,.1.2l-.2,1.73a.63.63,0,0,0,.39.63l1.1.4a.65.65,0,0,0,.71-.23l.94-1.44a.23.23,0,0,1,.22-.1h.88a.26.26,0,0,1,.2.1l.95,1.45a.65.65,0,0,0,.71.23l1.1-.4a.63.63,0,0,0,.39-.63l-.12-1.09h26.06a2.85,2.85,0,0,0,2.84-2.84v-6.2A2.86,2.86,0,0,0,299.37,82Z" transform="translate(-4.61 -2.15)"/><path class="cls-16" d="M299.34,102.72H275.47l-.05-.06-.9-.76a.63.63,0,0,0-.74,0l-1.14.84h-.2a2.74,2.74,0,0,0-.64.08,3.75,3.75,0,0,0-.47-.17.26.26,0,0,1-.15-.16l-.41-1.68a.62.62,0,0,0-.58-.46H269a.63.63,0,0,0-.58.46l-.4,1.67a.25.25,0,0,1-.16.17,6.34,6.34,0,0,0-.83.3.2.2,0,0,1-.21,0l-1.4-1a.63.63,0,0,0-.74,0l-.9.76a.6.6,0,0,0-.15.72l.77,1.54a.31.31,0,0,1,0,.23,5.35,5.35,0,0,0-.45.77.24.24,0,0,1-.18.13l-1.73.1a.62.62,0,0,0-.55.49l-.21,1.16a.67.67,0,0,0,.35.66l1.58.68a.24.24,0,0,1,.14.18,6.64,6.64,0,0,0,.16.87.29.29,0,0,1-.06.22l-1.26,1.19a.62.62,0,0,0-.11.73l.59,1a.63.63,0,0,0,.69.27l1.65-.49a.31.31,0,0,1,.23,0c.21.2.44.39.67.57a.22.22,0,0,1,.1.2l-.2,1.72a.63.63,0,0,0,.39.63l1.1.41a.65.65,0,0,0,.71-.24L269,115a.27.27,0,0,1,.22-.11h.88a.25.25,0,0,1,.2.09l.95,1.45a.65.65,0,0,0,.71.24l1.1-.41a.62.62,0,0,0,.39-.63l-.12-1.08h26.06a2.85,2.85,0,0,0,2.84-2.84v-6.2A2.86,2.86,0,0,0,299.34,102.72Z" transform="translate(-4.61 -2.15)"/><path class="cls-16" d="M299.34,123.42H275.47a.18.18,0,0,0-.05-.07l-.9-.76a.66.66,0,0,0-.74,0l-1.14.85h-.2a3.39,3.39,0,0,0-.64.07l-.47-.17a.23.23,0,0,1-.15-.15l-.41-1.69a.63.63,0,0,0-.58-.46H269a.63.63,0,0,0-.58.46l-.4,1.67a.23.23,0,0,1-.16.17,8.29,8.29,0,0,0-.83.31.26.26,0,0,1-.21,0l-1.4-1a.66.66,0,0,0-.74,0l-.9.76a.64.64,0,0,0-.15.73l.77,1.54a.28.28,0,0,1,0,.22,6.06,6.06,0,0,0-.45.78.23.23,0,0,1-.18.12l-1.73.1a.64.64,0,0,0-.55.5l-.21,1.16a.65.65,0,0,0,.35.65l1.58.68a.28.28,0,0,1,.14.18,6.49,6.49,0,0,0,.16.88.26.26,0,0,1-.06.21l-1.26,1.2a.62.62,0,0,0-.11.73l.59,1a.6.6,0,0,0,.69.27l1.65-.49a.24.24,0,0,1,.23.06,7.1,7.1,0,0,0,.67.56.26.26,0,0,1,.1.2l-.2,1.73a.63.63,0,0,0,.39.63l1.1.4a.65.65,0,0,0,.71-.23l.94-1.44a.26.26,0,0,1,.22-.1h.88a.26.26,0,0,1,.2.1l.95,1.45a.65.65,0,0,0,.71.23l1.1-.4a.62.62,0,0,0,.39-.63l-.12-1.09h26.06a2.85,2.85,0,0,0,2.84-2.83V126.3a2.84,2.84,0,0,0-2.8-2.88Z" transform="translate(-4.61 -2.15)"/><path class="cls-16" d="M241.33,154.46H217.46l-.05-.07-.91-.75a.63.63,0,0,0-.74,0l-1.13.85h-.21a2.72,2.72,0,0,0-.63.08,4.59,4.59,0,0,0-.48-.17.29.29,0,0,1-.15-.16l-.4-1.69a.63.63,0,0,0-.58-.46H211a.63.63,0,0,0-.58.46l-.4,1.68a.25.25,0,0,1-.16.17,6,6,0,0,0-.84.3.26.26,0,0,1-.21,0l-1.39-1a.63.63,0,0,0-.74,0l-.91.75a.64.64,0,0,0-.15.73l.77,1.54a.22.22,0,0,1,0,.22,6,6,0,0,0-.44.78.23.23,0,0,1-.18.12L204,158a.63.63,0,0,0-.56.49l-.2,1.16a.61.61,0,0,0,.35.65l1.58.69a.23.23,0,0,1,.13.18,6.64,6.64,0,0,0,.16.87.23.23,0,0,1-.06.22l-1.26,1.19a.65.65,0,0,0-.1.73l.59,1a.63.63,0,0,0,.69.28l1.65-.49a.25.25,0,0,1,.22.05c.22.2.44.39.68.57a.25.25,0,0,1,.09.2l-.2,1.72a.63.63,0,0,0,.39.63l1.11.4a.62.62,0,0,0,.7-.23l.95-1.44a.28.28,0,0,1,.21-.1H212a.22.22,0,0,1,.2.09l1,1.45a.62.62,0,0,0,.7.23l1.11-.4a.63.63,0,0,0,.39-.63l-.13-1.09h26.07a2.85,2.85,0,0,0,2.83-2.83v-6.21a2.84,2.84,0,0,0-2.81-2.87Z" transform="translate(-4.61 -2.15)"/><path class="cls-16" d="M154.88,24.88l-.91-.76a.63.63,0,0,0-.74,0L152.1,25h-.2a2.74,2.74,0,0,0-.64.08l-.47-.17a.23.23,0,0,1-.15-.15L150.23,23a.63.63,0,0,0-.58-.46h-1.18a.63.63,0,0,0-.58.46l-.4,1.67a.23.23,0,0,1-.16.17,6.39,6.39,0,0,0-.83.31.26.26,0,0,1-.21,0l-1.4-1a.63.63,0,0,0-.74,0l-.9.76a.64.64,0,0,0-.15.73l.77,1.53a.24.24,0,0,1,0,.23,7.3,7.3,0,0,0-.44.77.23.23,0,0,1-.18.13l-1.73.1a.64.64,0,0,0-.55.49L140.74,30a.65.65,0,0,0,.35.65l1.58.68a.28.28,0,0,1,.14.18,6.47,6.47,0,0,0,.15.88.23.23,0,0,1-.05.21l-1.26,1.19a.64.64,0,0,0-.11.74l.59,1a.63.63,0,0,0,.69.27l1.65-.49a.24.24,0,0,1,.23.06,6,6,0,0,0,.67.56.25.25,0,0,1,.09.2l-.19,1.72a.65.65,0,0,0,.38.64l1.11.4a.65.65,0,0,0,.71-.23l.94-1.44a.26.26,0,0,1,.21-.11h.88a.26.26,0,0,1,.2.1l1,1.44a.62.62,0,0,0,.7.24l1.11-.41a.63.63,0,0,0,.39-.63l-.12-1.08h26A2.83,2.83,0,0,0,181.63,34V27.8A2.85,2.85,0,0,0,178.8,25H154.93Z" transform="translate(-4.61 -2.15)"/><path class="cls-16" d="M143.8,54.84A2.84,2.84,0,0,0,146.64,52V45.8A2.84,2.84,0,0,0,143.8,43H119.94l-.06-.07-.9-.75a.63.63,0,0,0-.74,0l-1.13.85h-.21a2.72,2.72,0,0,0-.63.08c-.16-.06-.31-.13-.48-.18a.28.28,0,0,1-.15-.15l-.4-1.69a.63.63,0,0,0-.58-.46h-1.18a.63.63,0,0,0-.58.46l-.4,1.68a.29.29,0,0,1-.17.17,6.34,6.34,0,0,0-.83.3.26.26,0,0,1-.21,0l-1.39-1a.63.63,0,0,0-.74,0l-.91.75a.64.64,0,0,0-.15.73l.77,1.54a.22.22,0,0,1,0,.22,6,6,0,0,0-.44.78.23.23,0,0,1-.18.12l-1.73.11A.63.63,0,0,0,106,47l-.2,1.16a.61.61,0,0,0,.35.65l1.58.69a.23.23,0,0,1,.13.18,6.64,6.64,0,0,0,.16.87.25.25,0,0,1-.06.22l-1.26,1.19a.62.62,0,0,0-.1.73l.59,1a.63.63,0,0,0,.69.28l1.64-.5a.32.32,0,0,1,.23.06,6.13,6.13,0,0,0,.68.56.25.25,0,0,1,.09.2l-.2,1.73a.63.63,0,0,0,.39.63l1.11.4a.62.62,0,0,0,.7-.23l1-1.44a.28.28,0,0,1,.21-.1h.88a.26.26,0,0,1,.2.1l1,1.45a.62.62,0,0,0,.7.23l1.11-.4A.63.63,0,0,0,118,56l-.13-1.09Z" transform="translate(-4.61 -2.15)"/><path class="cls-16" d="M166.49,96.3V90.09a2.85,2.85,0,0,0-2.84-2.83H139.78l-.05-.06-.9-.76a.63.63,0,0,0-.74,0l-1.14.84h-.2a2.74,2.74,0,0,0-.64.08,3.75,3.75,0,0,0-.47-.17.26.26,0,0,1-.15-.16l-.41-1.69a.63.63,0,0,0-.58-.46h-1.18a.63.63,0,0,0-.58.46l-.4,1.68a.25.25,0,0,1-.16.17,6.34,6.34,0,0,0-.83.3.2.2,0,0,1-.21,0l-1.4-1a.63.63,0,0,0-.74,0l-.9.76A.6.6,0,0,0,128,88l.77,1.54a.28.28,0,0,1,0,.22,6.06,6.06,0,0,0-.45.78.24.24,0,0,1-.18.13l-1.73.1a.61.61,0,0,0-.55.49l-.21,1.16a.63.63,0,0,0,.4.61l1.58.69a.24.24,0,0,1,.13.18,6.64,6.64,0,0,0,.16.87.29.29,0,0,1-.06.22l-1.26,1.19a.62.62,0,0,0-.11.73l.59,1a.63.63,0,0,0,.69.28l1.65-.49a.31.31,0,0,1,.23,0c.21.2.44.39.67.57a.2.2,0,0,1,.1.2l-.2,1.72a.63.63,0,0,0,.39.63l1.1.4a.63.63,0,0,0,.71-.23l.94-1.44a.32.32,0,0,1,.22-.1h.88a.25.25,0,0,1,.2.09l.95,1.45a.63.63,0,0,0,.71.23l1.11-.4a.63.63,0,0,0,.38-.63l-.12-1.09H163.7A2.85,2.85,0,0,0,166.49,96.3Z" transform="translate(-4.61 -2.15)"/><path class="cls-16" d="M157.69,136.53a2.85,2.85,0,0,0,2.84-2.84v-6.2a2.85,2.85,0,0,0-2.84-2.84H133.82v-.06l-.9-.76a.63.63,0,0,0-.74,0l-1.14.84h-.2a2.74,2.74,0,0,0-.64.08l-.47-.17a.26.26,0,0,1-.15-.16l-.4-1.68a.63.63,0,0,0-.58-.46h-1.18a.62.62,0,0,0-.59.46l-.39,1.67a.29.29,0,0,1-.17.17,6.34,6.34,0,0,0-.83.3.2.2,0,0,1-.21,0l-1.4-1a.63.63,0,0,0-.74,0l-.9.76a.64.64,0,0,0-.15.73l.77,1.53a.31.31,0,0,1,0,.23,4.51,4.51,0,0,0-.44.77.29.29,0,0,1-.19.13l-1.73.1a.64.64,0,0,0-.55.49l-.21,1.16a.65.65,0,0,0,.36.66l1.58.68a.27.27,0,0,1,.13.18,6.49,6.49,0,0,0,.16.88.26.26,0,0,1-.06.21l-1.26,1.19a.64.64,0,0,0-.11.74l.59,1a.63.63,0,0,0,.69.27l1.65-.49a.24.24,0,0,1,.23.06,7.1,7.1,0,0,0,.67.56.22.22,0,0,1,.1.2l-.2,1.72a.63.63,0,0,0,.39.63l1.11.41a.64.64,0,0,0,.7-.24l1-1.43a.26.26,0,0,1,.21-.11h.88a.26.26,0,0,1,.2.1l1,1.44a.65.65,0,0,0,.71.24l1.11-.41a.61.61,0,0,0,.38-.63l-.12-1.08Z" transform="translate(-4.61 -2.15)"/><path class="cls-16" d="M185.16,144.67H161.29v-.06l-.9-.76a.63.63,0,0,0-.74,0l-1.14.84h-.2a2.74,2.74,0,0,0-.64.08,3.75,3.75,0,0,0-.47-.17.26.26,0,0,1-.15-.16l-.41-1.69a.63.63,0,0,0-.58-.46h-1.18a.63.63,0,0,0-.58.46l-.4,1.68a.25.25,0,0,1-.16.17,6.34,6.34,0,0,0-.83.3.2.2,0,0,1-.21,0l-1.4-1a.63.63,0,0,0-.74,0l-.9.76a.6.6,0,0,0-.15.72l.77,1.54a.31.31,0,0,1,0,.23,6,6,0,0,0-.45.77.24.24,0,0,1-.18.13l-1.73.1a.61.61,0,0,0-.55.49l-.21,1.16a.65.65,0,0,0,.35.65l1.58.69a.28.28,0,0,1,.14.18,6.64,6.64,0,0,0,.16.87.29.29,0,0,1-.06.22L148,153.55a.62.62,0,0,0-.11.73l.59,1a.63.63,0,0,0,.69.27l1.65-.49a.31.31,0,0,1,.23,0c.21.2.44.39.67.57a.2.2,0,0,1,.1.2l-.2,1.72a.63.63,0,0,0,.39.63l1.1.4a.63.63,0,0,0,.71-.23l.94-1.44a.32.32,0,0,1,.22-.1h.88a.25.25,0,0,1,.2.09l1,1.45a.62.62,0,0,0,.7.23l1.11-.4a.63.63,0,0,0,.39-.63l-.12-1.09H185.2a2.85,2.85,0,0,0,2.84-2.83V147.5a2.84,2.84,0,0,0-2.85-2.83Z" transform="translate(-4.61 -2.15)"/><path class="cls-16" d="M216.35,96.3V90.09a2.85,2.85,0,0,0-2.84-2.83H189.64V87.2l-.9-.76a.63.63,0,0,0-.74,0l-1.14.84h-.2a2.74,2.74,0,0,0-.64.08,3.75,3.75,0,0,0-.47-.17.26.26,0,0,1-.15-.16l-.4-1.69a.64.64,0,0,0-.58-.46h-1.19a.63.63,0,0,0-.58.46L182.21,87a.29.29,0,0,1-.17.17,6.34,6.34,0,0,0-.83.3.2.2,0,0,1-.21,0l-1.4-1a.63.63,0,0,0-.74,0l-.9.76a.6.6,0,0,0-.15.72l.77,1.54a.28.28,0,0,1,0,.22,6.06,6.06,0,0,0-.45.78.24.24,0,0,1-.18.13l-1.73.1a.61.61,0,0,0-.55.49l-.21,1.16a.64.64,0,0,0,.36.65l1.58.69a.24.24,0,0,1,.13.18,6.64,6.64,0,0,0,.16.87.29.29,0,0,1-.06.22l-1.26,1.19a.62.62,0,0,0-.11.73l.59,1a.63.63,0,0,0,.69.28l1.65-.49a.31.31,0,0,1,.23,0c.21.2.44.39.67.57a.2.2,0,0,1,.1.2l-.2,1.72a.63.63,0,0,0,.39.63l1.1.4a.63.63,0,0,0,.71-.23l.94-1.44a.32.32,0,0,1,.22-.1h.88a.25.25,0,0,1,.2.09l1,1.45a.63.63,0,0,0,.71.23l1.11-.4a.63.63,0,0,0,.38-.63l-.12-1.09h26.06A2.84,2.84,0,0,0,216.35,96.3Z" transform="translate(-4.61 -2.15)"/><path class="cls-16" d="M235.66,174H211.79v-.07l-.9-.75a.63.63,0,0,0-.74,0L209,174h-.2a2.74,2.74,0,0,0-.64.08c-.15-.06-.31-.13-.47-.18a.28.28,0,0,1-.15-.15l-.4-1.69a.63.63,0,0,0-.58-.46h-1.18a.64.64,0,0,0-.59.46l-.39,1.68a.29.29,0,0,1-.17.17,6.34,6.34,0,0,0-.83.3.2.2,0,0,1-.21,0l-1.4-1a.63.63,0,0,0-.74,0l-.9.75a.64.64,0,0,0-.15.73l.77,1.54a.28.28,0,0,1,0,.22,6,6,0,0,0-.44.78.23.23,0,0,1-.18.12l-1.74.11a.62.62,0,0,0-.55.49l-.2,1.16a.61.61,0,0,0,.35.65l1.58.69a.24.24,0,0,1,.13.18,6.64,6.64,0,0,0,.16.87.29.29,0,0,1-.06.22l-1.26,1.19a.62.62,0,0,0-.11.73l.59,1a.63.63,0,0,0,.69.28l1.65-.5a.32.32,0,0,1,.23.06,7.1,7.1,0,0,0,.67.56.25.25,0,0,1,.1.21l-.2,1.72a.63.63,0,0,0,.39.63l1.1.4a.63.63,0,0,0,.71-.23l1-1.44a.28.28,0,0,1,.21-.1h.88a.26.26,0,0,1,.2.1l1,1.45a.63.63,0,0,0,.71.23l1.11-.4a.61.61,0,0,0,.38-.63l-.12-1.09h26.06a2.85,2.85,0,0,0,2.84-2.83v-6.21a2.83,2.83,0,0,0-2.83-2.85Z" transform="translate(-4.61 -2.15)"/><path class="cls-16" d="M192.09,79.43V73.22a2.85,2.85,0,0,0-2.84-2.83H165.39l-.06-.07-.9-.76a.66.66,0,0,0-.74,0l-1.13.85h-.21a2.72,2.72,0,0,0-.63.08c-.16-.06-.31-.13-.48-.18a.28.28,0,0,1-.15-.15l-.4-1.69a.63.63,0,0,0-.58-.46h-1.18a.63.63,0,0,0-.58.46l-.4,1.67a.35.35,0,0,1-.16.18,6,6,0,0,0-.84.3.38.38,0,0,1-.21,0l-1.39-1a.66.66,0,0,0-.74,0l-.91.76a.64.64,0,0,0-.15.73l.77,1.54a.22.22,0,0,1,0,.22,6,6,0,0,0-.44.78.28.28,0,0,1-.18.12l-1.73.1a.65.65,0,0,0-.56.5l-.2,1.16a.61.61,0,0,0,.35.65l1.58.69a.23.23,0,0,1,.13.17,6.49,6.49,0,0,0,.16.88.2.2,0,0,1-.06.21l-1.26,1.2a.62.62,0,0,0-.1.73l.59,1a.6.6,0,0,0,.69.27l1.64-.49a.24.24,0,0,1,.23.06,6.13,6.13,0,0,0,.68.56.25.25,0,0,1,.09.2l-.2,1.73a.63.63,0,0,0,.39.63l1.11.4a.62.62,0,0,0,.7-.23l1-1.44a.25.25,0,0,1,.21-.1H160a.26.26,0,0,1,.2.1l1,1.45a.63.63,0,0,0,.7.23L163,84a.63.63,0,0,0,.39-.63l-.13-1.09h26.06A2.84,2.84,0,0,0,192.09,79.43Z" transform="translate(-4.61 -2.15)"/><path class="cls-16" d="M206.43,64a3.4,3.4,0,0,0-.64.08l-.47-.17a.23.23,0,0,1-.15-.15l-.41-1.69a.63.63,0,0,0-.58-.46H203a.63.63,0,0,0-.58.46l-.4,1.67a.25.25,0,0,1-.16.17,8.29,8.29,0,0,0-.83.31.41.41,0,0,1-.22,0l-1.39-1a.66.66,0,0,0-.74,0l-.91.76a.65.65,0,0,0-.15.73l.77,1.54a.22.22,0,0,1,0,.22,7.44,7.44,0,0,0-.44.78.28.28,0,0,1-.18.12l-1.73.1a.66.66,0,0,0-.56.49l-.2,1.17a.62.62,0,0,0,.35.65l1.58.68a.28.28,0,0,1,.14.18,6.47,6.47,0,0,0,.15.88.23.23,0,0,1-.05.21l-1.26,1.19a.64.64,0,0,0-.11.74l.59,1a.6.6,0,0,0,.69.27l1.65-.49a.24.24,0,0,1,.23.06,6,6,0,0,0,.67.56.25.25,0,0,1,.09.2L199.8,77a.64.64,0,0,0,.39.63l1.11.4a.65.65,0,0,0,.71-.23l.94-1.44a.23.23,0,0,1,.21-.1H204a.26.26,0,0,1,.2.1l1,1.45a.63.63,0,0,0,.7.23l1.11-.4a.64.64,0,0,0,.39-.63l-.13-1.09h26.07a2.85,2.85,0,0,0,2.83-2.84v-6.2A2.84,2.84,0,0,0,233.4,64H209.46l-.05-.06-.91-.76a.63.63,0,0,0-.74,0l-1.13.84Z" transform="translate(-4.61 -2.15)"/><path class="cls-16" d="M42.93,10.08H19.07L19,10l-.9-.76a.63.63,0,0,0-.74,0l-1.14.84H16a2.72,2.72,0,0,0-.63.08c-.16-.06-.31-.12-.48-.17a.28.28,0,0,1-.15-.15l-.4-1.69a.63.63,0,0,0-.58-.46H12.61a.62.62,0,0,0-.58.46l-.4,1.67a.29.29,0,0,1-.17.17,6.39,6.39,0,0,0-.83.31.26.26,0,0,1-.21,0L9,9.24a.6.6,0,0,0-.74,0L7.38,10a.64.64,0,0,0-.15.73L8,12.28a.24.24,0,0,1,0,.23,4.51,4.51,0,0,0-.44.77.29.29,0,0,1-.18.13l-1.74.1a.64.64,0,0,0-.55.49l-.2,1.17a.62.62,0,0,0,.35.65l1.58.68a.27.27,0,0,1,.13.18,6.49,6.49,0,0,0,.16.88.26.26,0,0,1-.06.21L5.78,19a.64.64,0,0,0-.11.74l.59,1A.64.64,0,0,0,7,21l1.6-.5a.24.24,0,0,1,.23.06,6.13,6.13,0,0,0,.68.56.25.25,0,0,1,.09.2L9.4,23a.65.65,0,0,0,.39.64l1.11.4a.63.63,0,0,0,.7-.23l1-1.44a.26.26,0,0,1,.21-.11h.88a.26.26,0,0,1,.2.1l.95,1.44a.65.65,0,0,0,.71.24l1.11-.41A.63.63,0,0,0,17,23l-.13-1H42.93a2.85,2.85,0,0,0,2.84-2.84V13A2.86,2.86,0,0,0,43,10.08Z" transform="translate(-4.61 -2.15)"/><path class="cls-16" d="M194.74,17h11.17a2.83,2.83,0,0,0,2.83-2.83h0V7.93a2.83,2.83,0,0,0-2.83-2.83H194.74a5.94,5.94,0,0,0,0,11.87Z" transform="translate(-4.61 -2.15)"/><path class="cls-16" d="M164.2,162.6H153a5.94,5.94,0,0,0,0,11.88h11.2a2.86,2.86,0,0,0,2.83-2.84v-6.2A2.86,2.86,0,0,0,164.2,162.6Z" transform="translate(-4.61 -2.15)"/><path class="cls-16" d="M10.8,135.19H22a2.85,2.85,0,0,0,2.83-2.84v-6.2A2.85,2.85,0,0,0,22,123.31H10.8a5.94,5.94,0,0,0,0,11.88Z" transform="translate(-4.61 -2.15)"/><path class="cls-17" d="M32.34,123.78a6.5,6.5,0,0,0,1.08-.24,7.82,7.82,0,0,0,3-1.71l3.67,9.28a19.77,19.77,0,0,1-3,2.48,6.43,6.43,0,0,1-3.4,1.24,2.48,2.48,0,0,1-2.2-1.09c.56-.52,2-1.51,2.47-1.18s-.44,1.48-.44,1.48c1.3-1,1.34-1.58,1.24-1.87l-.33-.46m.2.27-4.29-9.68a8.34,8.34,0,0,0-1,0,11.28,11.28,0,0,0-3.16.45,10.64,10.64,0,0,0-3.81,2L27,136.53a26.5,26.5,0,0,1,3.59-3.19A6.61,6.61,0,0,1,34,131.88a1.9,1.9,0,0,1,.62.12Z" transform="translate(-4.61 -2.15)"/><path class="cls-13" d="M36.45,121.83a7.82,7.82,0,0,1-3,1.71,6.5,6.5,0,0,1-1.08.24l2.41,8.39h0c.1.29.06.89-1.24,1.87,0,0,.9-1.15.44-1.48s-1.91.66-2.47,1.18a2.48,2.48,0,0,0,2.2,1.09,6.43,6.43,0,0,0,3.4-1.24,19.77,19.77,0,0,0,3-2.48Z" transform="translate(-4.61 -2.15)"/><path class="cls-11" d="M37,133.28A19.27,19.27,0,0,0,39.74,131l-1.1-2.76a14.29,14.29,0,0,1-2.76,2Z" transform="translate(-4.61 -2.15)"/><path class="cls-11" d="M37.42,125.16l-1.1-2.78a8.45,8.45,0,0,1-2.78,1.47l1.12,3.09A10.19,10.19,0,0,0,37.42,125.16Z" transform="translate(-4.61 -2.15)"/><path class="cls-11" d="M35.88,130.29l-1.22-3.35a7.2,7.2,0,0,1-1.29.42l1,3.57A8.35,8.35,0,0,0,35.88,130.29Z" transform="translate(-4.61 -2.15)"/><path class="cls-13" d="M29.36,122.25a11.28,11.28,0,0,0-3.16.45,10.64,10.64,0,0,0-3.81,2L27,136.53a26.5,26.5,0,0,1,3.59-3.19A6.61,6.61,0,0,1,34,131.88a1.93,1.93,0,0,1,.63.1l-4.29-9.68a8.34,8.34,0,0,0-1,0Z" transform="translate(-4.61 -2.15)"/><path class="cls-11" d="M29.36,122.57a11.22,11.22,0,0,0-3,.44l1.44,3.47a11.9,11.9,0,0,1,3.61-1L30.1,122.6C30,122.59,29.69,122.57,29.36,122.57Z" transform="translate(-4.61 -2.15)"/><path class="cls-11" d="M29.24,130l1.26,3a6.64,6.64,0,0,1,3.5-1.45h.08l-1.27-2.87A8.06,8.06,0,0,0,29.24,130Z" transform="translate(-4.61 -2.15)"/><path class="cls-11" d="M27.77,126.48a15.79,15.79,0,0,0-3.56,2l1.55,3.93A30.8,30.8,0,0,1,29.24,130Z" transform="translate(-4.61 -2.15)"/><line class="cls-18" x1="121.15" y1="110.71" x2="77.38" y2="110.71"/><text class="cls-19" transform="translate(94.48 107.32)">Boxes</text><text class="cls-20" transform="translate(6.19 81.1)">7</text><text class="cls-21" transform="translate(23.91 81.1)">305</text><text class="cls-20" transform="translate(6.19 147.23)">6</text><text class="cls-21" transform="translate(23.91 147.23)">265</text><text class="cls-20" transform="translate(6.19 190.09)">5</text><text class="cls-21" transform="translate(23.91 190.09)">215</text><text class="cls-20" transform="translate(64.96 190.09)">4</text><text class="cls-21" transform="translate(82.69 190.09)">140</text><text class="cls-20" transform="translate(6.19 42.96)">8</text><text class="cls-21" transform="translate(23.91 42.96)">315</text><text class="cls-20" transform="translate(126.9 11.91)">6</text><text class="cls-21" transform="translate(144.63 11.91)">250</text><text class="cls-20" transform="translate(221.56 11.91)">4</text><text class="cls-21" transform="translate(239.28 11.91)">170</text><text class="cls-20" transform="translate(262.59 35.07)">4</text><text class="cls-21" transform="translate(280.32 35.07)">180</text><text class="cls-20" transform="translate(262.59 68.15)">6</text><text class="cls-21" transform="translate(280.32 68.15)">255</text><text class="cls-20" transform="translate(262.59 88.84)">3</text><g class="cls-22"><text class="cls-23" transform="translate(280.55 88.84)">1</text><text class="cls-21" transform="translate(284.81 88.84)">15</text></g><text class="cls-20" transform="translate(262.59 109.54)">3</text><text class="cls-21" transform="translate(280.32 109.54)">130</text><text class="cls-20" transform="translate(262.59 130.23)">4</text><text class="cls-21" transform="translate(280.32 130.23)">150</text><text class="cls-20" transform="translate(204.58 161.28)">6</text><text class="cls-21" transform="translate(222.3 161.28)">250</text><text class="cls-20" transform="translate(142.05 31.76)">7</text><text class="cls-21" transform="translate(159.78 31.76)">295</text><text class="cls-20" transform="translate(107.06 49.79)">7</text><text class="cls-21" transform="translate(124.78 49.79)">285</text><text class="cls-20" transform="translate(126.9 94.08)">6</text><text class="cls-21" transform="translate(144.63 94.08)">240</text><text class="cls-20" transform="translate(120.94 131.47)">3</text><text class="cls-21" transform="translate(138.67 131.47)">130</text><text class="cls-20" transform="translate(148.41 151.49)">7</text><text class="cls-21" transform="translate(166.14 151.49)">280</text><text class="cls-20" transform="translate(176.76 94.08)">5</text><text class="cls-21" transform="translate(194.49 94.08)">185</text><text class="cls-20" transform="translate(198.91 180.85)">6</text><text class="cls-21" transform="translate(216.64 180.85)">230</text><text class="cls-20" transform="translate(152.51 77.2)">7</text><text class="cls-21" transform="translate(170.23 77.2)">280</text><text class="cls-20" transform="translate(196.58 70.84)">5</text><text class="cls-21" transform="translate(214.31 70.84)">250</text><text class="cls-20" transform="translate(6.19 16.9)">3</text><g class="cls-22"><text class="cls-23" transform="translate(24.14 16.9)">1</text><text class="cls-21" transform="translate(28.4 16.9)">10</text></g><text class="cls-20" transform="translate(196.86 11.92)">1</text><text class="cls-20" transform="translate(155.15 169.42)">2</text><text class="cls-20" transform="translate(12.92 130.13)">3</text><text class="cls-24" transform="translate(61.29 8.04)">1</text><text class="cls-24" transform="translate(86.4 101.7)">2</text><text class="cls-24" transform="translate(114.51 63.04)">3</text><text class="cls-24" transform="translate(217.01 57.37)">4</text><text class="cls-24" transform="translate(235.57 34.37)">5</text><text class="cls-24" transform="translate(235.95 70.33)">6</text><text class="cls-24" transform="translate(241.9 89.04)">7</text><text class="cls-24" transform="translate(226.15 105.48)">8</text><text class="cls-24" transform="translate(232.85 139.37)">9</text><text class="cls-24" transform="translate(185.72 142.7)">10</text><g class="cls-22"><text class="cls-25" transform="translate(183.04 190.37)">1</text><text class="cls-24" transform="translate(186.2 190.37)">1</text></g><text class="cls-24" transform="translate(106.05 190.04)">12</text><text class="cls-24" transform="translate(98.22 122.7)">13</text><text class="cls-24" transform="translate(76.72 166.37)">14</text></g></svg>