<svg id="Capa_1" data-name="Capa 1" xmlns="http://www.w3.org/2000/svg" width="308.53" height="199.98" viewBox="0 0 308.53 199.98"><defs><style>.cls-1,.cls-17,.cls-22,.cls-24,.cls-26{fill:#fff;}.cls-2{fill:#dbdcdd;fill-rule:evenodd;}.cls-3{opacity:0.8;}.cls-11,.cls-12,.cls-13,.cls-18,.cls-19,.cls-20,.cls-4,.cls-5,.cls-6,.cls-7,.cls-8,.cls-9{fill:none;}.cls-13,.cls-4,.cls-9{stroke:#fff;}.cls-12,.cls-13,.cls-18,.cls-20,.cls-4,.cls-5,.cls-6,.cls-7{stroke-linecap:round;}.cls-12,.cls-13,.cls-18,.cls-19,.cls-20,.cls-4,.cls-5,.cls-6,.cls-7,.cls-8{stroke-linejoin:round;}.cls-4{stroke-width:8px;}.cls-5,.cls-6{stroke:#00071b;}.cls-5,.cls-7,.cls-8{stroke-width:2.8px;}.cls-6{stroke-width:5.4px;}.cls-7{stroke:#8c92a1;}.cls-8{stroke:#fff100;}.cls-9{stroke-width:1.3px;}.cls-10{fill:#ea1a4d;}.cls-11,.cls-12,.cls-18,.cls-19,.cls-20{stroke:#231f20;}.cls-12{stroke-width:1.5px;}.cls-13,.cls-17,.cls-18{stroke-width:0.5px;}.cls-14{fill:#ffca05;}.cls-15,.cls-21,.cls-23{fill:#231f20;}.cls-16{fill:#007dc4;}.cls-17{stroke:#007dc4;}.cls-19{stroke-width:0.25px;}.cls-20{stroke-width:0.65px;}.cls-21,.cls-22,.cls-23,.cls-24,.cls-25,.cls-26{isolation:isolate;}.cls-21,.cls-22,.cls-23{font-size:8.5px;}.cls-21,.cls-22,.cls-24,.cls-26{font-family:Helvetica-Bold, Helvetica;font-weight:700;}.cls-23{font-family:Helvetica-Oblique, Helvetica;font-style:oblique;}.cls-24,.cls-26{font-size:7.5px;}.cls-24{letter-spacing:-0.08em;}.cls-26{letter-spacing:-0.13em;}</style></defs><rect class="cls-1" width="308.53" height="199.98"/><g id="yas_marina" data-name="yas marina"><path class="cls-2" d="M110.06,27.42H268.77l.55-.07,1.24.2c1.19.46,1.8,1.61,1.82,3.45q.06,4.44-7.36,4.94a31,31,0,0,1-5.19-.08l-2.53-.28a6.65,6.65,0,0,0-3.34-.26c-1.91.4-2.48,2.06-1.72,5,.59,2.18.18,3.75-1.21,4.69a12.32,12.32,0,0,1-2.69,1.29l-3.76,1.52L223.77,57.4a51.47,51.47,0,0,1-7.9,2.22,55.58,55.58,0,0,1-15,1.2q-8.4-.59-13.69,4.7-5.48,5.43-5.06,14.72.4,8.7-.76,11.64a6.32,6.32,0,0,1-1.67,2.35L177.1,96q-2.47,1.75-12.09,7.64l-9.11,5.52a7.39,7.39,0,0,1-3.2,1.51q-3.6.73-5.68-3-3.32-6-33.45-66.41a3,3,0,0,0-1.07-1.52q-1.65-1.23-4.53.16l-3.58,1.69h-.16l-15,15.89a6.37,6.37,0,0,0-1.74,2,4.7,4.7,0,0,0-.06,5q2.23,4,14,27.83l1.49,7.68-.18,1.06a3.94,3.94,0,0,1-2.53,1.85L87.59,107l-1.1-.08c-.88-.4-1.65-1.45-2.33-3.16A67.91,67.91,0,0,0,80.88,97l-2.06-3.72a1.3,1.3,0,0,0-.7-.82c-.73-.35-1.76,0-3.11.91q-3.21,2.31-12,7.18l-1.42,1.24a10.09,10.09,0,0,0-2.18,4.55q-1,4.45-3.94,15.63v1.37a9.94,9.94,0,0,0,.93,3.42L73,159.18l.28.46a2.57,2.57,0,0,1,.34,1.11c.1,1.17-.67,2.1-2.29,2.78q-3.9,1.62-15.61,5.55H54.49a3.44,3.44,0,0,1-2.2-2.09,6.39,6.39,0,0,0-2.2-2.83,4.09,4.09,0,0,0-2.88-.49l-4.23.41a2,2,0,0,1-1.49-.15c-.94-.51-1.29-1.76-1.07-3.76L44,128.3c.18-1.43.54-3.4,1.09-5.93a136.32,136.32,0,0,1,4.56-15.75q4.62-13,12.67-35.34A52.72,52.72,0,0,1,68.63,59q9-13.29,22-18.69l.46-.13a1.94,1.94,0,0,0,.89-.63c.74-.9.71-2.32-.09-4.28l-1.67-3.81L90,31.19a2.9,2.9,0,0,1-.29-1.85c.22-1.23,1.33-1.87,3.34-1.91Q97.9,27.34,110.06,27.42Z" transform="translate(-0.45)"/><path class="cls-4" d="M110.06,27.42H268.77l.55-.07,1.24.2c1.19.46,1.8,1.61,1.82,3.45q.06,4.44-7.36,4.94a31,31,0,0,1-5.19-.08l-2.53-.28a6.65,6.65,0,0,0-3.34-.26c-1.91.4-2.48,2.06-1.72,5,.59,2.18.18,3.75-1.21,4.69a12.32,12.32,0,0,1-2.69,1.29l-3.76,1.52L223.77,57.4a51.47,51.47,0,0,1-7.9,2.22,55.58,55.58,0,0,1-15,1.2q-8.4-.59-13.69,4.7-5.48,5.43-5.06,14.72.4,8.7-.76,11.64a6.32,6.32,0,0,1-1.67,2.35L177.1,96q-2.47,1.75-12.09,7.64l-9.11,5.52a7.39,7.39,0,0,1-3.2,1.51q-3.6.73-5.68-3-3.32-6-33.45-66.41a3,3,0,0,0-1.07-1.52q-1.65-1.23-4.53.16l-3.58,1.69h-.16l-15,15.89a6.37,6.37,0,0,0-1.74,2,4.7,4.7,0,0,0-.06,5q2.23,4,14,27.83l1.49,7.68-.18,1.06a3.94,3.94,0,0,1-2.53,1.85L87.59,107l-1.1-.08c-.88-.4-1.65-1.45-2.33-3.16A67.91,67.91,0,0,0,80.88,97l-2.06-3.72a1.3,1.3,0,0,0-.7-.82c-.73-.35-1.76,0-3.11.91q-3.21,2.31-12,7.18l-1.42,1.24a10.09,10.09,0,0,0-2.18,4.55q-1,4.45-3.94,15.63v1.37a9.94,9.94,0,0,0,.93,3.42L73,159.18l.28.46a2.57,2.57,0,0,1,.34,1.11c.1,1.17-.67,2.1-2.29,2.78q-3.9,1.62-15.61,5.55H54.49a3.44,3.44,0,0,1-2.2-2.09,6.39,6.39,0,0,0-2.2-2.83,4.09,4.09,0,0,0-2.88-.49l-4.23.41a2,2,0,0,1-1.49-.15c-.94-.51-1.29-1.76-1.07-3.76L44,128.3c.18-1.43.54-3.4,1.09-5.93a136.32,136.32,0,0,1,4.56-15.75q4.62-13,12.67-35.34A52.72,52.72,0,0,1,68.63,59q9-13.29,22-18.69l.46-.13a1.94,1.94,0,0,0,.89-.63c.74-.9.71-2.32-.09-4.28l-1.67-3.81L90,31.19a2.9,2.9,0,0,1-.29-1.85c.22-1.23,1.33-1.87,3.34-1.91Q97.9,27.34,110.06,27.42Z" transform="translate(-0.45)"/><path class="cls-5" d="M184.53,66.31a40.39,40.39,0,0,0-7.42,15.22c-2.16,8.06-.63,9.87-8.2,14.49l-15.19,9.21s-1.74.92-2.15,3.93c-.29,2-1.09,4.29-3.21,5.24-1.79.81-3.37.47-4.33-1.42L110.12,45.69s-1.59-3.54-6.92-.88" transform="translate(-0.45)"/><path class="cls-6" d="M110.06,27.42H268.77l.55-.07,1.24.2c1.19.46,1.8,1.61,1.82,3.45q.06,4.44-7.36,4.94a31,31,0,0,1-5.19-.08l-2.53-.28a6.65,6.65,0,0,0-3.34-.26c-1.91.4-2.48,2.06-1.72,5,.59,2.18.18,3.75-1.21,4.69a12.32,12.32,0,0,1-2.69,1.29l-3.76,1.52L223.77,57.4a51.47,51.47,0,0,1-7.9,2.22,55.58,55.58,0,0,1-15,1.2q-8.4-.59-13.69,4.7-5.48,5.43-5.06,14.72.4,8.7-.76,11.64a6.32,6.32,0,0,1-1.67,2.35L177.1,96q-2.47,1.75-12.09,7.64l-9.11,5.52a7.39,7.39,0,0,1-3.2,1.51q-3.6.73-5.68-3-3.32-6-33.45-66.41a3,3,0,0,0-1.07-1.52q-1.65-1.23-4.53.16l-3.58,1.69h-.16l-15,15.89a6.37,6.37,0,0,0-1.74,2,4.7,4.7,0,0,0-.06,5q2.23,4,14,27.83l1.49,7.68-.18,1.06a3.94,3.94,0,0,1-2.53,1.85L87.59,107l-1.1-.08c-.88-.4-1.65-1.45-2.33-3.16A67.91,67.91,0,0,0,80.88,97l-2.06-3.72a1.3,1.3,0,0,0-.7-.82c-.73-.35-1.76,0-3.11.91q-3.21,2.31-12,7.18l-1.42,1.24a10.09,10.09,0,0,0-2.18,4.55q-1,4.45-3.94,15.63v1.37a9.94,9.94,0,0,0,.93,3.42L73,159.18l.28.46a2.57,2.57,0,0,1,.34,1.11c.1,1.17-.67,2.1-2.29,2.78q-3.9,1.62-15.61,5.55H54.49a3.44,3.44,0,0,1-2.2-2.09,6.39,6.39,0,0,0-2.2-2.83,4.09,4.09,0,0,0-2.88-.49l-4.23.41a2,2,0,0,1-1.49-.15c-.94-.51-1.29-1.76-1.07-3.76L44,128.3c.18-1.43.54-3.4,1.09-5.93a136.32,136.32,0,0,1,4.56-15.75q4.62-13,12.67-35.34A52.72,52.72,0,0,1,68.63,59q9-13.29,22-18.69l.46-.13a1.94,1.94,0,0,0,.89-.63c.74-.9.71-2.32-.09-4.28l-1.67-3.81L90,31.19a2.9,2.9,0,0,1-.29-1.85c.22-1.23,1.33-1.87,3.34-1.91Q97.9,27.34,110.06,27.42Z" transform="translate(-0.45)"/><path class="cls-7" d="M110.06,27.42H268.77l.55-.07,1.24.2c1.19.46,1.8,1.61,1.82,3.45q.06,4.44-7.36,4.94a31,31,0,0,1-5.19-.08l-2.53-.28a6.65,6.65,0,0,0-3.34-.26c-1.91.4-2.48,2.06-1.72,5,.59,2.18.18,3.75-1.21,4.69a12.32,12.32,0,0,1-2.69,1.29l-3.76,1.52L223.77,57.4a51.47,51.47,0,0,1-7.9,2.22,55.58,55.58,0,0,1-15,1.2q-8.4-.59-13.69,4.7-5.48,5.43-5.06,14.72.4,8.7-.76,11.64a6.32,6.32,0,0,1-1.67,2.35L177.1,96q-2.47,1.75-12.09,7.64l-9.11,5.52a7.39,7.39,0,0,1-3.2,1.51q-3.6.73-5.68-3-3.32-6-33.45-66.41a3,3,0,0,0-1.07-1.52q-1.65-1.23-4.53.16l-3.58,1.69h-.16l-15,15.89a6.37,6.37,0,0,0-1.74,2,4.7,4.7,0,0,0-.06,5q2.23,4,14,27.83l1.49,7.68-.18,1.06a3.94,3.94,0,0,1-2.53,1.85L87.59,107l-1.1-.08c-.88-.4-1.65-1.45-2.33-3.16A67.91,67.91,0,0,0,80.88,97l-2.06-3.72a1.3,1.3,0,0,0-.7-.82c-.73-.35-1.76,0-3.11.91q-3.21,2.31-12,7.18l-1.42,1.24a10.09,10.09,0,0,0-2.18,4.55q-1,4.45-3.94,15.63v1.37a9.94,9.94,0,0,0,.93,3.42L73,159.18l.28.46a2.57,2.57,0,0,1,.34,1.11c.1,1.17-.67,2.1-2.29,2.78q-3.9,1.62-15.61,5.55H54.49a3.44,3.44,0,0,1-2.2-2.09,6.39,6.39,0,0,0-2.2-2.83,4.09,4.09,0,0,0-2.88-.49l-4.23.41a2,2,0,0,1-1.49-.15c-.94-.51-1.29-1.76-1.07-3.76L44,128.3c.18-1.43.54-3.4,1.09-5.93a136.32,136.32,0,0,1,4.56-15.75q4.62-13,12.67-35.34A52.72,52.72,0,0,1,68.63,59q9-13.29,22-18.69l.46-.13a1.94,1.94,0,0,0,.89-.63c.74-.9.71-2.32-.09-4.28l-1.67-3.81L90,31.19a2.9,2.9,0,0,1-.29-1.85c.22-1.23,1.33-1.87,3.34-1.91Q97.9,27.34,110.06,27.42Z" transform="translate(-0.45)"/><path class="cls-8" d="M40.76,156.63l3.17-28.37c.18-1.43.54-3.4,1.09-5.93a136.32,136.32,0,0,1,4.56-15.75q4.62-13,12.67-35.34A52.81,52.81,0,0,1,68.63,59,59.72,59.72,0,0,1,73,53.24" transform="translate(-0.45)"/><path class="cls-8" d="M97.37,27.39h127" transform="translate(-0.45)"/><rect class="cls-9" x="147.41" y="93.4" width="9.61" height="9.61" rx="2.29"/><rect class="cls-10" x="147.41" y="93.4" width="9.61" height="9.61" rx="2.29"/><rect class="cls-9" x="186.91" y="82.73" width="9.61" height="9.61" rx="2.29"/><rect class="cls-10" x="186.91" y="82.73" width="9.61" height="9.61" rx="2.29"/><rect class="cls-9" x="192.08" y="65.07" width="9.61" height="9.61" rx="2.29"/><rect class="cls-10" x="192.08" y="65.07" width="9.61" height="9.61" rx="2.29"/><rect class="cls-9" x="207.25" y="47.07" width="9.61" height="9.61" rx="2.29"/><rect class="cls-10" x="207.25" y="47.07" width="9.61" height="9.61" rx="2.29"/><rect class="cls-9" x="250.75" y="48.07" width="9.61" height="9.61" rx="2.29"/><rect class="cls-10" x="250.75" y="48.07" width="9.61" height="9.61" rx="2.29"/><rect class="cls-9" x="237.91" y="32.73" width="9.61" height="9.61" rx="2.29"/><rect class="cls-10" x="237.91" y="32.73" width="9.61" height="9.61" rx="2.29"/><rect class="cls-9" x="276.08" y="32.73" width="9.61" height="9.61" rx="2.29"/><rect class="cls-10" x="276.08" y="32.73" width="9.61" height="9.61" rx="2.29"/><rect class="cls-9" x="75.91" y="20.73" width="9.61" height="9.61" rx="2.29"/><rect class="cls-10" x="75.91" y="20.73" width="9.61" height="9.61" rx="2.29"/><rect class="cls-9" x="96.41" y="32.73" width="9.61" height="9.61" rx="2.29"/><rect class="cls-10" x="96.41" y="32.73" width="9.61" height="9.61" rx="2.29"/><rect class="cls-9" x="48.58" y="57.4" width="9.61" height="9.61" rx="2.29"/><rect class="cls-10" x="48.58" y="57.4" width="9.61" height="9.61" rx="2.29"/><rect class="cls-9" x="27.08" y="165.73" width="9.61" height="9.61" rx="2.29"/><rect class="cls-10" x="27.08" y="165.73" width="9.61" height="9.61" rx="2.29"/><rect class="cls-9" x="49.25" y="151.07" width="9.61" height="9.61" rx="2.29"/><rect class="cls-10" x="49.25" y="151.07" width="9.61" height="9.61" rx="2.29"/><rect class="cls-9" x="57.41" y="173.07" width="9.61" height="9.61" rx="2.29"/><rect class="cls-10" x="57.41" y="173.07" width="9.61" height="9.61" rx="2.29"/><rect class="cls-9" x="74.58" y="165.4" width="9.61" height="9.61" rx="2.29"/><rect class="cls-10" x="74.58" y="165.4" width="9.61" height="9.61" rx="2.29"/><rect class="cls-9" x="60.08" y="118.07" width="9.61" height="9.61" rx="2.29"/><rect class="cls-10" x="60.08" y="118.07" width="9.61" height="9.61" rx="2.29"/><rect class="cls-9" x="56.91" y="85.4" width="9.61" height="9.61" rx="2.29"/><rect class="cls-10" x="56.91" y="85.4" width="9.61" height="9.61" rx="2.29"/><rect class="cls-9" x="73.75" y="79.4" width="9.61" height="9.61" rx="2.29"/><rect class="cls-10" x="73.75" y="79.4" width="9.61" height="9.61" rx="2.29"/><rect class="cls-9" x="83.91" y="111.73" width="9.61" height="9.61" rx="2.29"/><rect class="cls-10" x="83.91" y="111.73" width="9.61" height="9.61" rx="2.29"/><rect class="cls-9" x="103.75" y="104.73" width="9.61" height="9.61" rx="2.29"/><rect class="cls-10" x="103.75" y="104.73" width="9.61" height="9.61" rx="2.29"/><rect class="cls-9" x="92.58" y="58.4" width="9.61" height="9.61" rx="2.29"/><rect class="cls-10" x="92.58" y="58.4" width="9.61" height="9.61" rx="2.29"/><rect class="cls-9" x="116.75" y="31.73" width="9.61" height="9.61" rx="2.29"/><rect class="cls-10" x="116.75" y="31.73" width="9.61" height="9.61" rx="2.29"/><path class="cls-11" d="M94.59,28.69a1.42,1.42,0,1,0-1.41-1.43v0a1.41,1.41,0,0,0,1.41,1.41Z" transform="translate(-0.45)"/><polyline class="cls-12" points="94.14 27.28 94.14 21.16 89.06 21.16 89.06 10.64"/><polyline class="cls-13" points="94.14 27.28 94.14 21.16 89.06 21.16 89.06 10.64"/><path class="cls-1" d="M94.59,28.69a1.42,1.42,0,1,0-1.41-1.43v0a1.41,1.41,0,0,0,1.41,1.41Z" transform="translate(-0.45)"/><path class="cls-11" d="M40.6,161.49a1.42,1.42,0,1,1-1.42,1.42h0A1.44,1.44,0,0,1,40.6,161.49Z" transform="translate(-0.45)"/><line class="cls-12" x1="40.15" y1="162.91" x2="40.15" y2="187.97"/><line class="cls-13" x1="40.15" y1="162.91" x2="40.15" y2="187.97"/><path class="cls-1" d="M40.6,161.49a1.42,1.42,0,1,1-1.42,1.42h0A1.44,1.44,0,0,1,40.6,161.49Z" transform="translate(-0.45)"/><path class="cls-11" d="M54.44,167.77A1.42,1.42,0,1,1,53,169.18a1.43,1.43,0,0,1,1.44-1.41Z" transform="translate(-0.45)"/><polyline class="cls-12" points="53.99 169.18 53.99 187.64 81.56 187.64"/><polyline class="cls-13" points="53.99 169.18 53.99 187.64 81.56 187.64"/><path class="cls-1" d="M54.44,167.77A1.42,1.42,0,1,1,53,169.18a1.43,1.43,0,0,1,1.44-1.41Z" transform="translate(-0.45)"/><path class="cls-11" d="M188.36,62.92a1.42,1.42,0,1,1-1.42,1.42h0A1.42,1.42,0,0,1,188.36,62.92Z" transform="translate(-0.45)"/><polyline class="cls-12" points="187.91 64.33 187.91 77.3 209.92 77.3 209.92 89.72"/><polyline class="cls-13" points="187.91 64.33 187.91 77.3 209.92 77.3 209.92 89.72"/><path class="cls-1" d="M188.36,62.92a1.42,1.42,0,1,1-1.42,1.42h0A1.42,1.42,0,0,1,188.36,62.92Z" transform="translate(-0.45)"/><path class="cls-11" d="M270.81,29.57A1.42,1.42,0,1,1,272.22,31a1.41,1.41,0,0,1-1.41-1.41Z" transform="translate(-0.45)"/><polyline class="cls-12" points="271.77 29.57 296.7 29.57 296.7 10.64"/><polyline class="cls-13" points="271.77 29.57 296.7 29.57 296.7 10.64"/><path class="cls-1" d="M270.81,29.57A1.42,1.42,0,1,1,272.22,31a1.41,1.41,0,0,1-1.41-1.41Z" transform="translate(-0.45)"/><path class="cls-11" d="M136.85,90.55A1.42,1.42,0,1,1,138.27,92a1.43,1.43,0,0,1-1.42-1.45Z" transform="translate(-0.45)"/><polyline class="cls-12" points="137.82 90.55 155.99 90.55 155.99 64.39"/><polyline class="cls-13" points="137.82 90.55 155.99 90.55 155.99 64.39"/><path class="cls-1" d="M136.85,90.55A1.42,1.42,0,1,1,138.27,92a1.43,1.43,0,0,1-1.42-1.45Z" transform="translate(-0.45)"/><path class="cls-11" d="M145.61,107.66a1.42,1.42,0,1,1,1.42,1.42h0A1.42,1.42,0,0,1,145.61,107.66Z" transform="translate(-0.45)"/><polyline class="cls-12" points="146.57 107.66 180.4 107.66 180.4 147.54 202.66 147.54"/><polyline class="cls-13" points="146.57 107.66 180.4 107.66 180.4 147.54 202.66 147.54"/><path class="cls-1" d="M145.61,107.66a1.42,1.42,0,1,1,1.42,1.42h0A1.42,1.42,0,0,1,145.61,107.66Z" transform="translate(-0.45)"/><path class="cls-11" d="M178.37,94.15a1.42,1.42,0,1,1,1.42,1.42h0A1.43,1.43,0,0,1,178.37,94.15Z" transform="translate(-0.45)"/><polyline class="cls-12" points="179.34 94.15 188.29 94.15 188.29 124.86 202.66 124.86"/><polyline class="cls-13" points="179.34 94.15 188.29 94.15 188.29 124.86 202.66 124.86"/><path class="cls-1" d="M178.37,94.15a1.42,1.42,0,1,1,1.42,1.42h0A1.43,1.43,0,0,1,178.37,94.15Z" transform="translate(-0.45)"/><path class="cls-11" d="M90.92,73.64a1.42,1.42,0,1,1,1.43,1.41h0A1.42,1.42,0,0,1,90.92,73.64Z" transform="translate(-0.45)"/><polyline class="cls-12" points="91.89 73.64 121.24 73.64 121.24 124.86 139.49 124.86"/><polyline class="cls-13" points="91.89 73.64 121.24 73.64 121.24 124.86 139.49 124.86"/><path class="cls-1" d="M90.92,73.64a1.42,1.42,0,1,1,1.43,1.41h0A1.42,1.42,0,0,1,90.92,73.64Z" transform="translate(-0.45)"/><path class="cls-11" d="M101.34,101a1.42,1.42,0,1,1,1.42,1.42h0A1.43,1.43,0,0,1,101.34,101Z" transform="translate(-0.45)"/><polyline class="cls-12" points="102.31 100.97 117.14 100.97 117.14 147.54 139.49 147.54"/><polyline class="cls-13" points="102.31 100.97 117.14 100.97 117.14 147.54 139.49 147.54"/><path class="cls-1" d="M101.34,101a1.42,1.42,0,1,1,1.42,1.42h0A1.43,1.43,0,0,1,101.34,101Z" transform="translate(-0.45)"/><path class="cls-11" d="M72,162.08a1.42,1.42,0,1,1,1.42,1.42h0A1.41,1.41,0,0,1,72,162.09Z" transform="translate(-0.45)"/><polyline class="cls-12" points="72.94 162.08 139.49 162.08 139.49 187.64"/><polyline class="cls-13" points="72.94 162.08 139.49 162.08 139.49 187.64"/><path class="cls-1" d="M72,162.08a1.42,1.42,0,1,1,1.42,1.42h0A1.41,1.41,0,0,1,72,162.09Z" transform="translate(-0.45)"/><path class="cls-11" d="M62.17,75a1.42,1.42,0,1,0-1.42,1.42h0A1.43,1.43,0,0,0,62.17,75Z" transform="translate(-0.45)"/><polyline class="cls-12" points="60.31 74.96 13.14 74.96 13.14 10.64"/><polyline class="cls-13" points="60.31 74.96 13.14 74.96 13.14 10.64"/><path class="cls-1" d="M62.17,75a1.42,1.42,0,1,0-1.42,1.42h0A1.43,1.43,0,0,0,62.17,75Z" transform="translate(-0.45)"/><path class="cls-11" d="M84.52,44.31a1.42,1.42,0,1,0-1.42,1.42h0A1.42,1.42,0,0,0,84.52,44.31Z" transform="translate(-0.45)"/><line class="cls-12" x1="82.66" y1="44.31" x2="24.54" y2="44.31"/><line class="cls-13" x1="82.66" y1="44.31" x2="24.54" y2="44.31"/><path class="cls-1" d="M84.52,44.31a1.42,1.42,0,1,0-1.42,1.42h0A1.42,1.42,0,0,0,84.52,44.31Z" transform="translate(-0.45)"/><path class="cls-11" d="M44.66,133.15a1.42,1.42,0,1,0-1.42,1.42h0A1.44,1.44,0,0,0,44.66,133.15Z" transform="translate(-0.45)"/><polyline class="cls-12" points="42.79 133.15 13.14 133.15 13.14 89.72"/><polyline class="cls-13" points="42.79 133.15 13.14 133.15 13.14 89.72"/><path class="cls-1" d="M44.66,133.15a1.42,1.42,0,1,0-1.42,1.42h0A1.44,1.44,0,0,0,44.66,133.15Z" transform="translate(-0.45)"/><path class="cls-11" d="M43.55,143.06a1.42,1.42,0,1,0-1.43,1.41h0a1.41,1.41,0,0,0,1.41-1.41Z" transform="translate(-0.45)"/><polyline class="cls-12" points="41.69 143.06 34.45 143.06 34.45 147.54 25.1 147.54"/><polyline class="cls-13" points="41.69 143.06 34.45 143.06 34.45 147.54 25.1 147.54"/><path class="cls-1" d="M43.55,143.06a1.42,1.42,0,1,0-1.43,1.41h0a1.41,1.41,0,0,0,1.41-1.41Z" transform="translate(-0.45)"/><path class="cls-11" d="M93.37,39.56A1.42,1.42,0,1,0,92,41h0A1.43,1.43,0,0,0,93.37,39.56Z" transform="translate(-0.45)"/><polyline class="cls-12" points="91.5 39.56 64.75 39.56 64.75 28.96"/><polyline class="cls-13" points="91.5 39.56 64.75 39.56 64.75 28.96"/><path class="cls-1" d="M93.37,39.56A1.42,1.42,0,1,0,92,41h0A1.43,1.43,0,0,0,93.37,39.56Z" transform="translate(-0.45)"/><path class="cls-11" d="M121.69,58.78a1.42,1.42,0,1,0-1.41-1.43h0A1.43,1.43,0,0,0,121.69,58.78Z" transform="translate(-0.45)"/><polyline class="cls-12" points="121.24 57.36 121.24 43.39 142.74 43.39"/><polyline class="cls-13" points="121.24 57.36 121.24 43.39 142.74 43.39"/><path class="cls-1" d="M121.69,58.78a1.42,1.42,0,1,0-1.41-1.43h0A1.43,1.43,0,0,0,121.69,58.78Z" transform="translate(-0.45)"/><path class="cls-11" d="M235,50.73a1.42,1.42,0,1,1-1.42,1.42h0A1.42,1.42,0,0,1,235,50.73Z" transform="translate(-0.45)"/><polyline class="cls-12" points="234.56 52.15 234.56 72.84 257.36 72.84"/><polyline class="cls-13" points="234.56 52.15 234.56 72.84 257.36 72.84"/><path class="cls-1" d="M235,50.73a1.42,1.42,0,1,1-1.42,1.42h0A1.42,1.42,0,0,1,235,50.73Z" transform="translate(-0.45)"/><path class="cls-11" d="M262.53,34.55A1.42,1.42,0,1,1,261.11,36a1.43,1.43,0,0,1,1.42-1.45Z" transform="translate(-0.45)"/><polyline class="cls-12" points="262.07 35.97 262.07 46.5 295.41 46.5 295.41 64.39"/><polyline class="cls-13" points="262.07 35.97 262.07 46.5 295.41 46.5 295.41 64.39"/><path class="cls-1" d="M262.53,34.55A1.42,1.42,0,1,1,261.11,36a1.43,1.43,0,0,1,1.42-1.45Z" transform="translate(-0.45)"/><path class="cls-11" d="M68.36,96.23a1.42,1.42,0,1,1-1.42,1.42h0a1.41,1.41,0,0,1,1.4-1.42Z" transform="translate(-0.45)"/><polyline class="cls-12" points="67.91 97.65 67.91 109.23 80.65 109.23 80.65 135.2"/><polyline class="cls-13" points="67.91 97.65 67.91 109.23 80.65 109.23 80.65 135.2"/><path class="cls-1" d="M68.36,96.23a1.42,1.42,0,1,1-1.42,1.42h0a1.41,1.41,0,0,1,1.4-1.42Z" transform="translate(-0.45)"/><path class="cls-11" d="M118.61,28.69a1.42,1.42,0,1,0-1.42-1.42h0A1.42,1.42,0,0,0,118.61,28.69Z" transform="translate(-0.45)"/><line class="cls-12" x1="118.16" y1="27.28" x2="118.16" y2="10.64"/><line class="cls-13" x1="118.16" y1="27.28" x2="118.16" y2="10.64"/><path class="cls-1" d="M118.61,28.69a1.42,1.42,0,1,0-1.42-1.42h0A1.42,1.42,0,0,0,118.61,28.69Z" transform="translate(-0.45)"/><path class="cls-11" d="M174,28.69a1.42,1.42,0,1,0-1.41-1.43v0A1.42,1.42,0,0,0,174,28.69Z" transform="translate(-0.45)"/><line class="cls-12" x1="173.53" y1="27.28" x2="173.53" y2="10.64"/><line class="cls-13" x1="173.53" y1="27.28" x2="173.53" y2="10.64"/><path class="cls-1" d="M174,28.69a1.42,1.42,0,1,0-1.41-1.43v0A1.42,1.42,0,0,0,174,28.69Z" transform="translate(-0.45)"/><path class="cls-11" d="M217.88,28.69a1.42,1.42,0,1,0-1.42-1.42h0a1.41,1.41,0,0,0,1.41,1.41Z" transform="translate(-0.45)"/><polyline class="cls-12" points="217.43 27.28 217.43 21.25 204.24 21.25 204.24 10.64"/><polyline class="cls-13" points="217.43 27.28 217.43 21.25 204.24 21.25 204.24 10.64"/><path class="cls-1" d="M217.88,28.69a1.42,1.42,0,1,0-1.42-1.42h0a1.41,1.41,0,0,0,1.41,1.41Z" transform="translate(-0.45)"/><rect class="cls-14" x="289.85" y="58.45" width="11.87" height="11.87" rx="2.83"/><polygon class="cls-15" points="292.12 66.09 291.49 68.49 300.09 68.49 299.45 66.09 292.12 66.09"/><polygon class="cls-15" points="292.79 60.27 291.49 65.19 300.09 65.19 298.79 60.27 292.79 60.27"/><path class="cls-15" d="M213.2,83.78h26.9a2.83,2.83,0,0,1,2.83,2.83h0v6.21a2.84,2.84,0,0,1-2.84,2.84H213.2a2.83,2.83,0,0,1-2.83-2.83h0V86.62a2.83,2.83,0,0,1,2.82-2.84Z" transform="translate(-0.45)"/><polygon class="cls-1" points="224.77 87.42 223.32 87.42 223.46 86.73 224.92 86.73 224.77 87.42"/><polygon class="cls-1" points="224.39 89.2 221.99 89.2 222.14 88.51 224.54 88.51 224.39 89.2"/><polygon class="cls-1" points="224.02 90.97 220.67 90.97 220.82 90.29 224.17 90.29 224.02 90.97"/><polygon class="cls-1" points="223.64 92.75 219.35 92.75 219.49 92.06 223.79 92.06 223.64 92.75"/><path class="cls-16" d="M208.63,83.69a8.29,8.29,0,0,0-.83.31.26.26,0,0,1-.21,0l-1.39-1a.66.66,0,0,0-.74,0l-.91.76a.64.64,0,0,0-.15.73l.77,1.54a.22.22,0,0,1,0,.22,7.3,7.3,0,0,0-.44.77.24.24,0,0,1-.18.13l-1.74.1a.64.64,0,0,0-.55.49l-.2,1.17a.62.62,0,0,0,.35.65l1.58.68a.29.29,0,0,1,.13.18,6.49,6.49,0,0,0,.16.88.23.23,0,0,1-.06.21L203,92.66a.64.64,0,0,0-.11.74l.59,1a.63.63,0,0,0,.69.27l1.65-.49a.24.24,0,0,1,.23.06,6.13,6.13,0,0,0,.68.56.25.25,0,0,1,.09.2l-.2,1.73a.63.63,0,0,0,.39.63l1.11.4a.63.63,0,0,0,.7-.23l1-1.44A.23.23,0,0,1,210,96h.88a.26.26,0,0,1,.2.1l1,1.45a.65.65,0,0,0,.71.23l1.11-.4a.64.64,0,0,0,.39-.63L214,95a.24.24,0,0,1,.09-.22,5.27,5.27,0,0,0,.68-.57.2.2,0,0,1,.21,0l1.66.49a.63.63,0,0,0,.69-.27l.59-1a.64.64,0,0,0-.11-.74l-1.25-1.18a.25.25,0,0,1-.06-.22,6.61,6.61,0,0,0,.15-.89.25.25,0,0,1,.12-.16l1.6-.69a.65.65,0,0,0,.35-.65l-.21-1.17a.64.64,0,0,0-.55-.49l-1.72-.1A.27.27,0,0,1,216,87a6.06,6.06,0,0,0-.45-.78.23.23,0,0,1,0-.2l.77-1.55a.64.64,0,0,0-.15-.73l-.9-.76a.63.63,0,0,0-.74,0l-1.38,1a.33.33,0,0,1-.24,0,6.34,6.34,0,0,0-.83-.3.28.28,0,0,1-.15-.15l-.4-1.69a.63.63,0,0,0-.58-.46h-1.18a.63.63,0,0,0-.58.46l-.4,1.67A.26.26,0,0,1,208.63,83.69Z" transform="translate(-0.45)"/><path class="cls-17" d="M210.37,84.65a5.07,5.07,0,1,0,5.07,5.07A5.07,5.07,0,0,0,210.37,84.65Z" transform="translate(-0.45)"/><rect class="cls-15" x="202.66" y="118.93" width="32.57" height="11.87" rx="2.83"/><polygon class="cls-1" points="217.51 122.56 216.05 122.56 216.2 121.88 217.65 121.88 217.51 122.56"/><polygon class="cls-1" points="217.13 124.34 214.73 124.34 214.88 123.65 217.28 123.65 217.13 124.34"/><polygon class="cls-1" points="216.76 126.12 213.41 126.12 213.56 125.43 216.9 125.43 216.76 126.12"/><polygon class="cls-1" points="216.38 127.89 212.09 127.89 212.23 127.21 216.53 127.21 216.38 127.89"/><path class="cls-16" d="M201.37,118.84a6.34,6.34,0,0,0-.83.3.2.2,0,0,1-.21,0l-1.4-1a.63.63,0,0,0-.74,0l-.9.75a.64.64,0,0,0-.15.73l.77,1.54a.28.28,0,0,1,0,.22,6,6,0,0,0-.44.78.28.28,0,0,1-.18.12l-1.74.11a.62.62,0,0,0-.55.49l-.2,1.16a.61.61,0,0,0,.35.65l1.58.69a.24.24,0,0,1,.13.18,6.64,6.64,0,0,0,.16.87.26.26,0,0,1-.06.21l-1.26,1.2a.62.62,0,0,0-.11.73l.59,1a.65.65,0,0,0,.69.28l1.65-.5a.32.32,0,0,1,.23.06,6.13,6.13,0,0,0,.68.56.25.25,0,0,1,.09.2l-.2,1.73a.63.63,0,0,0,.39.63l1.11.4a.62.62,0,0,0,.7-.23l1-1.44a.28.28,0,0,1,.21-.1h.88a.26.26,0,0,1,.2.1l.95,1.45a.65.65,0,0,0,.71.23l1.11-.4a.63.63,0,0,0,.39-.63l-.2-1.71a.26.26,0,0,1,.09-.22,7.22,7.22,0,0,0,.68-.56.2.2,0,0,1,.21-.06l1.66.5a.63.63,0,0,0,.69-.28l.59-1a.62.62,0,0,0-.11-.73l-1.25-1.19a.23.23,0,0,1-.06-.22,6.47,6.47,0,0,0,.15-.88.3.3,0,0,1,.12-.17l1.6-.69a.65.65,0,0,0,.35-.65l-.21-1.16a.63.63,0,0,0-.55-.5l-1.72-.1a.3.3,0,0,1-.2-.13,4.51,4.51,0,0,0-.44-.77.26.26,0,0,1,0-.21l.77-1.55a.64.64,0,0,0-.15-.73l-.9-.75a.63.63,0,0,0-.74,0l-1.38,1a.33.33,0,0,1-.24,0,8.29,8.29,0,0,0-.83-.31.28.28,0,0,1-.15-.15l-.4-1.69a.63.63,0,0,0-.58-.46h-1.18a.64.64,0,0,0-.59.46l-.39,1.68A.31.31,0,0,1,201.37,118.84Z" transform="translate(-0.45)"/><path class="cls-17" d="M203.11,119.79a5.08,5.08,0,1,0,5.06,5.1v0A5.09,5.09,0,0,0,203.11,119.79Z" transform="translate(-0.45)"/><rect class="cls-15" x="202.66" y="141.6" width="32.57" height="11.87" rx="2.83"/><polygon class="cls-1" points="217.51 145.24 216.05 145.24 216.2 144.55 217.65 144.55 217.51 145.24"/><polygon class="cls-1" points="217.13 147.02 214.73 147.02 214.88 146.33 217.28 146.33 217.13 147.02"/><polygon class="cls-1" points="216.76 148.79 213.41 148.79 213.56 148.11 216.9 148.11 216.76 148.79"/><polygon class="cls-1" points="216.38 150.57 212.09 150.57 212.23 149.88 216.53 149.88 216.38 150.57"/><path class="cls-16" d="M201.37,141.51a8.29,8.29,0,0,0-.83.31.26.26,0,0,1-.21,0l-1.4-1a.63.63,0,0,0-.74,0l-.9.76a.64.64,0,0,0-.15.73l.77,1.54a.28.28,0,0,1,0,.22,4.51,4.51,0,0,0-.44.77.24.24,0,0,1-.18.13l-1.74.1a.64.64,0,0,0-.55.49l-.2,1.17a.62.62,0,0,0,.35.65l1.58.68a.27.27,0,0,1,.13.18,6.49,6.49,0,0,0,.16.88.26.26,0,0,1-.06.21l-1.26,1.19a.64.64,0,0,0-.11.74l.59,1a.63.63,0,0,0,.69.27l1.65-.49a.24.24,0,0,1,.23.06,6.13,6.13,0,0,0,.68.56.25.25,0,0,1,.09.2l-.2,1.72a.63.63,0,0,0,.39.64l1.11.4a.63.63,0,0,0,.7-.23l1-1.44a.26.26,0,0,1,.21-.11h.88a.26.26,0,0,1,.2.1l.95,1.44a.65.65,0,0,0,.71.24l1.11-.41a.63.63,0,0,0,.39-.63l-.2-1.7a.24.24,0,0,1,.09-.22,7.59,7.59,0,0,0,.68-.57.2.2,0,0,1,.21,0l1.66.49a.63.63,0,0,0,.69-.27l.59-1a.64.64,0,0,0-.11-.74l-1.25-1.18a.24.24,0,0,1-.06-.23,6.47,6.47,0,0,0,.15-.88.25.25,0,0,1,.12-.16l1.6-.69a.65.65,0,0,0,.35-.65l-.21-1.17a.64.64,0,0,0-.55-.49L209,145a.3.3,0,0,1-.2-.13,6,6,0,0,0-.44-.78.23.23,0,0,1,0-.2l.77-1.55a.64.64,0,0,0-.15-.73l-.9-.76a.63.63,0,0,0-.74,0l-1.38,1a.33.33,0,0,1-.24,0,6.34,6.34,0,0,0-.83-.3.28.28,0,0,1-.15-.15l-.4-1.69a.63.63,0,0,0-.58-.46h-1.18a.62.62,0,0,0-.59.46l-.39,1.67A.25.25,0,0,1,201.37,141.51Z" transform="translate(-0.45)"/><path class="cls-17" d="M203.11,142.47a5.07,5.07,0,1,0,5.06,5.08h0A5.09,5.09,0,0,0,203.11,142.47Z" transform="translate(-0.45)"/><rect class="cls-15" x="139.49" y="141.6" width="32.57" height="11.87" rx="2.83"/><polygon class="cls-1" points="154.34 145.24 152.88 145.24 153.03 144.55 154.48 144.55 154.34 145.24"/><polygon class="cls-1" points="153.96 147.02 151.56 147.02 151.71 146.33 154.11 146.33 153.96 147.02"/><polygon class="cls-1" points="153.59 148.79 150.24 148.79 150.39 148.11 153.73 148.11 153.59 148.79"/><polygon class="cls-1" points="153.21 150.57 148.92 150.57 149.06 149.88 153.36 149.88 153.21 150.57"/><path class="cls-16" d="M138.2,141.51a8.29,8.29,0,0,0-.83.31.26.26,0,0,1-.21,0l-1.4-1a.63.63,0,0,0-.74,0l-.9.76a.64.64,0,0,0-.15.73l.77,1.54a.28.28,0,0,1,0,.22,4.51,4.51,0,0,0-.44.77.26.26,0,0,1-.19.13l-1.73.1a.64.64,0,0,0-.55.49l-.21,1.17a.64.64,0,0,0,.36.65l1.58.68a.27.27,0,0,1,.13.18,6.49,6.49,0,0,0,.16.88.26.26,0,0,1-.06.21l-1.26,1.19a.64.64,0,0,0-.11.74l.59,1a.63.63,0,0,0,.69.27l1.65-.49a.24.24,0,0,1,.23.06,7.1,7.1,0,0,0,.67.56.22.22,0,0,1,.1.2l-.2,1.72a.63.63,0,0,0,.39.64l1.1.4a.65.65,0,0,0,.71-.23l1-1.44a.26.26,0,0,1,.21-.11h.88a.26.26,0,0,1,.2.1l.95,1.44a.65.65,0,0,0,.71.24l1.11-.41a.63.63,0,0,0,.38-.63l-.19-1.7a.24.24,0,0,1,.09-.22,5.18,5.18,0,0,0,.67-.57.28.28,0,0,1,.22,0l1.66.49a.63.63,0,0,0,.69-.27l.59-1a.64.64,0,0,0-.11-.74l-1.25-1.18a.28.28,0,0,1-.07-.23,5.24,5.24,0,0,0,.16-.88.25.25,0,0,1,.12-.16l1.6-.69a.65.65,0,0,0,.35-.65l-.21-1.17a.64.64,0,0,0-.55-.49l-1.72-.1a.28.28,0,0,1-.2-.13,6,6,0,0,0-.44-.78.23.23,0,0,1,0-.2l.78-1.55a.64.64,0,0,0-.15-.73l-.9-.76a.63.63,0,0,0-.74,0l-1.38,1a.33.33,0,0,1-.24,0,6.34,6.34,0,0,0-.83-.3.23.23,0,0,1-.15-.15l-.4-1.69a.63.63,0,0,0-.58-.46h-1.19a.63.63,0,0,0-.58.46l-.39,1.67A.24.24,0,0,1,138.2,141.51Z" transform="translate(-0.45)"/><path class="cls-17" d="M139.94,142.47a5.07,5.07,0,1,0,5.06,5.08h0A5.07,5.07,0,0,0,139.94,142.47Z" transform="translate(-0.45)"/><rect class="cls-15" x="80.65" y="129.26" width="32.57" height="11.87" rx="2.83"/><polygon class="cls-1" points="95.5 132.9 94.05 132.9 94.19 132.21 95.64 132.21 95.5 132.9"/><polygon class="cls-1" points="95.12 134.67 92.72 134.67 92.87 133.99 95.27 133.99 95.12 134.67"/><polygon class="cls-1" points="94.75 136.45 91.4 136.45 91.55 135.76 94.89 135.76 94.75 136.45"/><polygon class="cls-1" points="94.37 138.23 90.08 138.23 90.22 137.54 94.52 137.54 94.37 138.23"/><path class="cls-16" d="M79.36,129.17a6.34,6.34,0,0,0-.83.3.2.2,0,0,1-.21,0l-1.39-1a.6.6,0,0,0-.74,0l-.91.76a.6.6,0,0,0-.15.72l.77,1.54a.31.31,0,0,1,0,.23,4.51,4.51,0,0,0-.44.77.29.29,0,0,1-.18.13l-1.74.1a.64.64,0,0,0-.55.49l-.2,1.16a.63.63,0,0,0,.35.66l1.58.68a.24.24,0,0,1,.13.18,6.49,6.49,0,0,0,.16.88A.26.26,0,0,1,75,137l-1.26,1.19a.62.62,0,0,0-.11.73l.59,1a.65.65,0,0,0,.69.27l1.65-.49a.31.31,0,0,1,.23,0,5.27,5.27,0,0,0,.68.57.25.25,0,0,1,.09.2l-.2,1.72a.63.63,0,0,0,.39.63l1.11.41a.64.64,0,0,0,.7-.24l1-1.43a.26.26,0,0,1,.21-.11h.88a.25.25,0,0,1,.2.09l1,1.45a.65.65,0,0,0,.71.24l1.11-.41a.63.63,0,0,0,.39-.63l-.2-1.71a.26.26,0,0,1,.09-.22,6.13,6.13,0,0,0,.68-.56.26.26,0,0,1,.21-.06l1.66.5a.63.63,0,0,0,.69-.27l.59-1a.62.62,0,0,0-.11-.73L87.26,137a.27.27,0,0,1-.06-.23,6.47,6.47,0,0,0,.15-.88.3.3,0,0,1,.12-.17l1.6-.69a.65.65,0,0,0,.35-.65l-.21-1.16a.61.61,0,0,0-.55-.49l-1.72-.1a.25.25,0,0,1-.19-.14c-.14-.26-.29-.52-.45-.77a.23.23,0,0,1,0-.2l.77-1.56a.6.6,0,0,0-.15-.72l-.9-.76a.63.63,0,0,0-.74,0l-1.38,1a.26.26,0,0,1-.24,0,6.34,6.34,0,0,0-.83-.3.29.29,0,0,1-.15-.16l-.4-1.68a.63.63,0,0,0-.58-.46H80.51a.62.62,0,0,0-.58.46l-.4,1.67A.3.3,0,0,1,79.36,129.17Z" transform="translate(-0.45)"/><path class="cls-17" d="M81.1,130.13a5.07,5.07,0,1,0,5.07,5.07A5.07,5.07,0,0,0,81.1,130.13Z" transform="translate(-0.45)"/><rect class="cls-15" x="139.49" y="118.93" width="32.57" height="11.87" rx="2.83"/><polygon class="cls-1" points="154.34 122.56 152.89 122.56 153.03 121.88 154.49 121.88 154.34 122.56"/><polygon class="cls-1" points="153.96 124.34 151.56 124.34 151.71 123.65 154.11 123.65 153.96 124.34"/><polygon class="cls-1" points="153.59 126.12 150.24 126.12 150.39 125.43 153.74 125.43 153.59 126.12"/><polygon class="cls-1" points="153.21 127.89 148.92 127.89 149.06 127.21 153.36 127.21 153.21 127.89"/><path class="cls-16" d="M138.2,118.84a6.34,6.34,0,0,0-.83.3.2.2,0,0,1-.21,0l-1.4-1a.63.63,0,0,0-.74,0l-.9.75a.64.64,0,0,0-.15.73l.77,1.54a.28.28,0,0,1,0,.22,6,6,0,0,0-.44.78.28.28,0,0,1-.18.12l-1.74.11a.62.62,0,0,0-.55.49l-.2,1.16a.61.61,0,0,0,.35.65l1.58.69a.24.24,0,0,1,.13.18,6.64,6.64,0,0,0,.16.87.26.26,0,0,1-.06.21l-1.26,1.2a.62.62,0,0,0-.11.73l.59,1a.65.65,0,0,0,.69.28l1.65-.5a.32.32,0,0,1,.23.06,6.13,6.13,0,0,0,.68.56.25.25,0,0,1,.09.2l-.2,1.73a.63.63,0,0,0,.39.63l1.11.4a.62.62,0,0,0,.7-.23l1-1.44a.28.28,0,0,1,.21-.1h.88a.26.26,0,0,1,.2.1l.95,1.45a.65.65,0,0,0,.71.23l1.11-.4a.63.63,0,0,0,.39-.63l-.2-1.71a.26.26,0,0,1,.09-.22,7.22,7.22,0,0,0,.68-.56.2.2,0,0,1,.21-.06l1.66.5a.63.63,0,0,0,.69-.28l.59-1a.62.62,0,0,0-.11-.73l-1.25-1.19a.23.23,0,0,1-.06-.22,6.47,6.47,0,0,0,.15-.88.3.3,0,0,1,.12-.17l1.6-.69a.65.65,0,0,0,.35-.65l-.21-1.16a.63.63,0,0,0-.55-.5l-1.72-.1a.3.3,0,0,1-.2-.13,4.51,4.51,0,0,0-.44-.77.26.26,0,0,1,0-.21l.77-1.55a.64.64,0,0,0-.15-.73l-.9-.75a.63.63,0,0,0-.74,0l-1.38,1a.33.33,0,0,1-.24,0,8.29,8.29,0,0,0-.83-.31.28.28,0,0,1-.15-.15l-.4-1.69a.63.63,0,0,0-.58-.46h-1.18a.64.64,0,0,0-.59.46l-.39,1.68A.3.3,0,0,1,138.2,118.84Z" transform="translate(-0.45)"/><path class="cls-17" d="M139.94,119.79a5.08,5.08,0,1,0,5.06,5.1v0A5.09,5.09,0,0,0,139.94,119.79Z" transform="translate(-0.45)"/><rect class="cls-15" x="13.14" y="181.71" width="32.57" height="11.87" rx="2.83"/><polygon class="cls-1" points="27.99 185.34 26.54 185.34 26.69 184.65 28.14 184.65 27.99 185.34"/><polygon class="cls-1" points="27.62 187.12 25.22 187.12 25.36 186.43 27.76 186.43 27.62 187.12"/><polygon class="cls-1" points="27.24 188.9 23.9 188.9 24.04 188.21 27.39 188.21 27.24 188.9"/><polygon class="cls-1" points="26.87 190.67 22.57 190.67 22.72 189.99 27.01 189.99 26.87 190.67"/><path class="cls-16" d="M11.86,181.61a8.29,8.29,0,0,0-.83.31.41.41,0,0,1-.22,0l-1.39-1a.66.66,0,0,0-.74,0l-.9.76a.65.65,0,0,0-.16.73L8.39,184a.22.22,0,0,1,0,.22A7.44,7.44,0,0,0,8,185a.23.23,0,0,1-.18.12l-1.73.1a.64.64,0,0,0-.55.5l-.21,1.16a.62.62,0,0,0,.35.65l1.58.68a.28.28,0,0,1,.14.18,6.47,6.47,0,0,0,.15.88.26.26,0,0,1,0,.21l-1.26,1.2a.62.62,0,0,0-.11.73l.59,1a.6.6,0,0,0,.69.27L9,192.12a.24.24,0,0,1,.23.06,6,6,0,0,0,.67.56.25.25,0,0,1,.09.2l-.2,1.73a.64.64,0,0,0,.39.63l1.11.4a.65.65,0,0,0,.71-.23l.94-1.44a.23.23,0,0,1,.21-.1H14a.26.26,0,0,1,.2.1l1,1.45a.63.63,0,0,0,.7.23l1.11-.4a.63.63,0,0,0,.39-.63l-.2-1.71a.26.26,0,0,1,.1-.22c.23-.18.46-.37.67-.57a.26.26,0,0,1,.21,0l1.66.49a.63.63,0,0,0,.69-.27l.6-1a.65.65,0,0,0-.11-.74l-1.25-1.18a.26.26,0,0,1-.07-.22,6.49,6.49,0,0,0,.16-.88.26.26,0,0,1,.12-.17l1.59-.69a.62.62,0,0,0,.35-.65l-.2-1.16a.64.64,0,0,0-.56-.5l-1.71-.1a.28.28,0,0,1-.2-.13,5.35,5.35,0,0,0-.45-.77.26.26,0,0,1,0-.21l.78-1.55a.65.65,0,0,0-.15-.73l-.91-.76a.63.63,0,0,0-.74,0l-1.38,1a.31.31,0,0,1-.23,0c-.27-.11-.55-.21-.83-.3a.23.23,0,0,1-.15-.15l-.41-1.69a.63.63,0,0,0-.58-.46H13a.63.63,0,0,0-.58.46l-.4,1.67A.22.22,0,0,1,11.86,181.61Z" transform="translate(-0.45)"/><path class="cls-17" d="M13.59,182.57a5.07,5.07,0,1,0,5.07,5.07,5.07,5.07,0,0,0-5.07-5.07Z" transform="translate(-0.45)"/><rect class="cls-15" x="13.14" y="83.78" width="32.57" height="11.87" rx="2.83"/><polygon class="cls-1" points="27.99 87.42 26.54 87.42 26.69 86.73 28.14 86.73 27.99 87.42"/><polygon class="cls-1" points="27.62 89.2 25.22 89.2 25.36 88.51 27.76 88.51 27.62 89.2"/><polygon class="cls-1" points="27.24 90.97 23.89 90.97 24.04 90.29 27.39 90.29 27.24 90.97"/><polygon class="cls-1" points="26.87 92.75 22.57 92.75 22.72 92.06 27.01 92.06 26.87 92.75"/><path class="cls-16" d="M11.86,83.69A6.8,6.8,0,0,0,11,84a.41.41,0,0,1-.22,0L9.39,83a.66.66,0,0,0-.74,0l-.91.76a.65.65,0,0,0-.15.73L8.39,86a.22.22,0,0,1,0,.22A8.46,8.46,0,0,0,8,87a.24.24,0,0,1-.18.13L6,87.21a.66.66,0,0,0-.56.49l-.2,1.17a.62.62,0,0,0,.35.65l1.58.68a.28.28,0,0,1,.14.18,6.47,6.47,0,0,0,.15.88.26.26,0,0,1,0,.21L6.18,92.66a.64.64,0,0,0-.11.74l.59,1a.63.63,0,0,0,.69.27L9,94.2a.24.24,0,0,1,.23.06,6,6,0,0,0,.67.56A.25.25,0,0,1,10,95l-.2,1.73a.64.64,0,0,0,.39.63l1.11.4a.65.65,0,0,0,.71-.23L13,96.09a.23.23,0,0,1,.21-.1H14a.26.26,0,0,1,.2.1l1,1.45a.63.63,0,0,0,.7.23l1.11-.4a.64.64,0,0,0,.39-.63L17.19,95a.31.31,0,0,1,.09-.22,5.27,5.27,0,0,0,.68-.57.26.26,0,0,1,.21,0l1.66.49a.63.63,0,0,0,.69-.27l.59-1a.64.64,0,0,0-.1-.74l-1.25-1.18a.23.23,0,0,1-.07-.22,6.63,6.63,0,0,0,.16-.89.22.22,0,0,1,.12-.16l1.59-.69a.62.62,0,0,0,.35-.65l-.2-1.17a.66.66,0,0,0-.56-.49l-1.71-.1a.28.28,0,0,1-.2-.13,6.06,6.06,0,0,0-.45-.78.23.23,0,0,1,0-.2l.78-1.55a.65.65,0,0,0-.15-.73L18.5,83a.63.63,0,0,0-.74,0l-1.38,1a.31.31,0,0,1-.23,0,6.34,6.34,0,0,0-.83-.3.23.23,0,0,1-.15-.15l-.41-1.69a.63.63,0,0,0-.58-.46H13a.63.63,0,0,0-.58.46L12,83.52A.24.24,0,0,1,11.86,83.69Z" transform="translate(-0.45)"/><path class="cls-17" d="M13.59,84.65a5.07,5.07,0,1,0,5.07,5.07h0A5.07,5.07,0,0,0,13.59,84.65Z" transform="translate(-0.45)"/><rect class="cls-15" x="13.14" y="4.7" width="32.57" height="11.87" rx="2.83"/><polygon class="cls-1" points="27.99 8.34 26.54 8.34 26.69 7.65 28.14 7.65 27.99 8.34"/><polygon class="cls-1" points="27.62 10.11 25.22 10.11 25.36 9.42 27.76 9.42 27.62 10.11"/><polygon class="cls-1" points="27.24 11.89 23.9 11.89 24.04 11.2 27.39 11.2 27.24 11.89"/><polygon class="cls-1" points="26.87 13.67 22.57 13.67 22.72 12.98 27.01 12.98 26.87 13.67"/><path class="cls-16" d="M11.86,4.61a6.34,6.34,0,0,0-.83.3.28.28,0,0,1-.22,0l-1.39-1a.63.63,0,0,0-.74,0l-.9.75a.65.65,0,0,0-.16.73L8.39,6.9a.22.22,0,0,1,0,.22A7.44,7.44,0,0,0,8,7.9a.23.23,0,0,1-.19.1L6,8.13a.61.61,0,0,0-.55.49L5.27,9.78a.62.62,0,0,0,.35.65l1.58.69a.28.28,0,0,1,.14.18,6.6,6.6,0,0,0,.15.87.28.28,0,0,1,0,.22L6.18,13.58a.62.62,0,0,0-.11.73l.59,1a.63.63,0,0,0,.69.28L9,15.12a.28.28,0,0,1,.23.05c.21.2.44.39.67.57a.25.25,0,0,1,.09.2l-.2,1.72a.63.63,0,0,0,.39.63l1.11.4a.63.63,0,0,0,.71-.23L12.94,17a.28.28,0,0,1,.21-.1H14a.22.22,0,0,1,.2.09l1,1.45a.62.62,0,0,0,.7.23l1.11-.4a.63.63,0,0,0,.39-.63L17.19,16a.27.27,0,0,1,.1-.22,7.1,7.1,0,0,0,.67-.56.26.26,0,0,1,.21-.06l1.66.5a.63.63,0,0,0,.69-.28l.6-1a.64.64,0,0,0-.11-.73L19.76,12.4a.28.28,0,0,1-.07-.23,6.49,6.49,0,0,0,.16-.88.26.26,0,0,1,.12-.17l1.59-.69a.61.61,0,0,0,.35-.65l-.2-1.16a.63.63,0,0,0-.56-.49L19.44,8a.28.28,0,0,1-.2-.13,5.35,5.35,0,0,0-.45-.77.26.26,0,0,1,0-.21l.78-1.55a.65.65,0,0,0-.15-.73l-.91-.75a.63.63,0,0,0-.74,0l-1.38,1a.24.24,0,0,1-.23,0,6.34,6.34,0,0,0-.83-.3.26.26,0,0,1-.15-.16l-.41-1.69a.63.63,0,0,0-.58-.46H13a.63.63,0,0,0-.58.46L12,4.44A.24.24,0,0,1,11.86,4.61Z" transform="translate(-0.45)"/><path class="cls-17" d="M13.59,5.57a5.07,5.07,0,1,0,5.07,5.07h0A5.07,5.07,0,0,0,13.59,5.57Z" transform="translate(-0.45)"/><rect class="cls-15" x="60.92" y="4.7" width="32.57" height="11.87" rx="2.83"/><polygon class="cls-1" points="75.77 8.34 74.32 8.34 74.46 7.65 75.91 7.65 75.77 8.34"/><polygon class="cls-1" points="75.39 10.11 72.99 10.11 73.14 9.42 75.54 9.42 75.39 10.11"/><polygon class="cls-1" points="75.02 11.89 71.67 11.89 71.82 11.2 75.16 11.2 75.02 11.89"/><polygon class="cls-1" points="74.64 13.67 70.35 13.67 70.49 12.98 74.79 12.98 74.64 13.67"/><path class="cls-16" d="M59.63,4.61a6.34,6.34,0,0,0-.83.3.2.2,0,0,1-.21,0l-1.39-1a.6.6,0,0,0-.74,0l-.91.75a.64.64,0,0,0-.15.73l.77,1.54a.22.22,0,0,1,0,.22,6,6,0,0,0-.44.78.23.23,0,0,1-.18.12l-1.74.11a.61.61,0,0,0-.55.49L53,9.78a.64.64,0,0,0,.36.65l1.58.69a.24.24,0,0,1,.13.18,6.64,6.64,0,0,0,.16.87.25.25,0,0,1-.06.22L54,13.58a.62.62,0,0,0-.11.73l.59,1a.65.65,0,0,0,.69.28l1.65-.49a.27.27,0,0,1,.23.05c.22.2.44.39.68.57a.25.25,0,0,1,.09.2l-.2,1.72a.63.63,0,0,0,.39.63l1.11.4a.62.62,0,0,0,.7-.23l.9-1.44a.28.28,0,0,1,.21-.1h.88A.23.23,0,0,1,62,17l1,1.45a.63.63,0,0,0,.71.23l1.11-.4a.63.63,0,0,0,.39-.63L65,16a.26.26,0,0,1,.09-.22,6.13,6.13,0,0,0,.68-.56.26.26,0,0,1,.21-.06l1.66.5a.63.63,0,0,0,.69-.28l.59-1a.62.62,0,0,0-.11-.73L67.53,12.4a.28.28,0,0,1-.07-.23,5.24,5.24,0,0,0,.16-.88.3.3,0,0,1,.12-.17l1.6-.69a.65.65,0,0,0,.35-.65l-.21-1.16a.61.61,0,0,0-.55-.49L67.21,8A.26.26,0,0,1,67,7.89a6,6,0,0,0-.45-.77.26.26,0,0,1,0-.21l.77-1.55a.64.64,0,0,0-.15-.73l-.9-.75a.63.63,0,0,0-.74,0l-1.38,1a.25.25,0,0,1-.24,0,6.34,6.34,0,0,0-.83-.3.26.26,0,0,1-.15-.16l-.4-1.69A.64.64,0,0,0,62,2.3H60.78a.63.63,0,0,0-.58.46l-.4,1.68A.29.29,0,0,1,59.63,4.61Z" transform="translate(-0.45)"/><path class="cls-17" d="M61.37,5.57a5.07,5.07,0,1,0,5.07,5.07A5.07,5.07,0,0,0,61.37,5.57Z" transform="translate(-0.45)"/><rect class="cls-15" x="108.69" y="4.7" width="32.57" height="11.87" rx="2.83"/><polygon class="cls-1" points="123.54 8.34 122.09 8.34 122.24 7.65 123.69 7.65 123.54 8.34"/><polygon class="cls-1" points="123.17 10.11 120.77 10.11 120.91 9.42 123.31 9.42 123.17 10.11"/><polygon class="cls-1" points="122.79 11.89 119.44 11.89 119.59 11.2 122.94 11.2 122.79 11.89"/><polygon class="cls-1" points="122.42 13.67 118.12 13.67 118.27 12.98 122.56 12.98 122.42 13.67"/><path class="cls-16" d="M107.41,4.61a6.34,6.34,0,0,0-.83.3.28.28,0,0,1-.22,0l-1.39-1a.63.63,0,0,0-.74,0l-.91.75a.65.65,0,0,0-.15.73l.77,1.54a.22.22,0,0,1,0,.22,7.44,7.44,0,0,0-.44.78.23.23,0,0,1-.18.12l-1.73.11a.63.63,0,0,0-.56.49l-.2,1.16a.61.61,0,0,0,.35.65l1.58.69a.28.28,0,0,1,.14.18,6.6,6.6,0,0,0,.15.87.25.25,0,0,1,0,.22l-1.26,1.19a.62.62,0,0,0-.11.73l.59,1a.63.63,0,0,0,.69.28l1.65-.49a.28.28,0,0,1,.23,0c.21.2.44.39.67.57a.25.25,0,0,1,.09.2l-.2,1.72a.63.63,0,0,0,.39.63l1.11.4a.63.63,0,0,0,.71-.23L108.5,17a.28.28,0,0,1,.21-.1h.88a.22.22,0,0,1,.2.09l1,1.45a.62.62,0,0,0,.7.23l1.11-.4a.63.63,0,0,0,.39-.63l-.2-1.71a.31.31,0,0,1,.09-.22,6.13,6.13,0,0,0,.68-.56.26.26,0,0,1,.21-.06l1.66.5a.63.63,0,0,0,.69-.28l.59-1a.62.62,0,0,0-.1-.73l-1.25-1.18a.25.25,0,0,1-.07-.23,6.49,6.49,0,0,0,.16-.88.26.26,0,0,1,.12-.17l1.59-.69a.61.61,0,0,0,.35-.65l-.2-1.16a.63.63,0,0,0-.56-.49L115,8a.28.28,0,0,1-.2-.13,5.35,5.35,0,0,0-.45-.77.26.26,0,0,1,0-.21l.78-1.55a.65.65,0,0,0-.15-.73l-.91-.75a.63.63,0,0,0-.74,0l-1.38,1a.24.24,0,0,1-.23,0,6.34,6.34,0,0,0-.83-.3.31.31,0,0,1-.16-.16l-.4-1.69a.63.63,0,0,0-.58-.46h-1.18a.63.63,0,0,0-.58.46l-.4,1.68A.26.26,0,0,1,107.41,4.61Z" transform="translate(-0.45)"/><path class="cls-17" d="M109.14,5.57a5.07,5.07,0,1,0,5.07,5.07h0A5.07,5.07,0,0,0,109.14,5.57Z" transform="translate(-0.45)"/><rect class="cls-15" x="156.47" y="4.7" width="32.57" height="11.87" rx="2.83"/><polygon class="cls-1" points="171.32 8.34 169.86 8.34 170.01 7.65 171.46 7.65 171.32 8.34"/><polygon class="cls-1" points="170.94 10.11 168.54 10.11 168.69 9.42 171.09 9.42 170.94 10.11"/><polygon class="cls-1" points="170.57 11.89 167.22 11.89 167.36 11.2 170.71 11.2 170.57 11.89"/><polygon class="cls-1" points="170.19 13.67 165.9 13.67 166.04 12.98 170.34 12.98 170.19 13.67"/><path class="cls-16" d="M155.18,4.61a6.34,6.34,0,0,0-.83.3.2.2,0,0,1-.21,0l-1.4-1a.63.63,0,0,0-.74,0l-.9.75a.64.64,0,0,0-.15.73l.77,1.54a.28.28,0,0,1,0,.22,6.06,6.06,0,0,0-.45.78.22.22,0,0,1-.18.12l-1.73.11a.61.61,0,0,0-.55.49l-.21,1.16a.64.64,0,0,0,.36.65l1.58.69a.24.24,0,0,1,.13.18,6.64,6.64,0,0,0,.16.87.29.29,0,0,1-.06.22l-1.26,1.19a.62.62,0,0,0-.11.73l.59,1a.63.63,0,0,0,.69.28l1.65-.49a.27.27,0,0,1,.23,0c.21.2.44.39.67.57a.2.2,0,0,1,.1.2l-.2,1.72a.63.63,0,0,0,.39.63l1.1.4a.63.63,0,0,0,.71-.23l.94-1.44a.32.32,0,0,1,.22-.1h.88a.25.25,0,0,1,.2.09l1,1.45a.63.63,0,0,0,.71.23l1.11-.4a.63.63,0,0,0,.38-.63l-.2-1.67a.26.26,0,0,1,.09-.22,6,6,0,0,0,.67-.56.29.29,0,0,1,.22-.06l1.66.5a.63.63,0,0,0,.69-.28l.59-1a.62.62,0,0,0-.11-.73l-1.25-1.18a.28.28,0,0,1-.07-.23,5.24,5.24,0,0,0,.16-.88.3.3,0,0,1,.12-.17l1.59-.69a.64.64,0,0,0,.36-.65L165,8.62a.61.61,0,0,0-.55-.49L162.76,8a.28.28,0,0,1-.2-.13,4.51,4.51,0,0,0-.44-.77.26.26,0,0,1,0-.21l.78-1.55a.64.64,0,0,0-.15-.73l-.9-.75a.63.63,0,0,0-.74,0l-1.38,1a.25.25,0,0,1-.24,0,6.34,6.34,0,0,0-.83-.3.26.26,0,0,1-.15-.16l-.41-1.69a.63.63,0,0,0-.58-.46h-1.18a.63.63,0,0,0-.58.46l-.4,1.68A.26.26,0,0,1,155.18,4.61Z" transform="translate(-0.45)"/><path class="cls-17" d="M156.92,5.57A5.07,5.07,0,1,0,162,10.64a5.07,5.07,0,0,0-5.08-5.07Z" transform="translate(-0.45)"/><rect class="cls-15" x="139.48" y="58.45" width="32.57" height="11.87" rx="2.83"/><polygon class="cls-1" points="154.34 62.09 152.88 62.09 153.03 61.4 154.48 61.4 154.34 62.09"/><polygon class="cls-1" points="153.96 63.87 151.56 63.87 151.71 63.18 154.11 63.18 153.96 63.87"/><polygon class="cls-1" points="153.59 65.64 150.24 65.64 150.39 64.96 153.73 64.96 153.59 65.64"/><polygon class="cls-1" points="153.21 67.42 148.92 67.42 149.06 66.73 153.36 66.73 153.21 67.42"/><path class="cls-16" d="M138.2,58.36a8.29,8.29,0,0,0-.83.31.26.26,0,0,1-.21,0l-1.4-1a.66.66,0,0,0-.74,0l-.9.76a.64.64,0,0,0-.15.73l.77,1.54a.28.28,0,0,1,0,.22c-.16.25-.31.51-.45.77a.23.23,0,0,1-.18.13l-1.73.1a.64.64,0,0,0-.55.49l-.21,1.17a.65.65,0,0,0,.35.65l1.58.68a.28.28,0,0,1,.14.18,6.49,6.49,0,0,0,.16.88.26.26,0,0,1-.06.21l-1.26,1.19a.64.64,0,0,0-.11.74l.59,1a.63.63,0,0,0,.69.27l1.65-.49a.24.24,0,0,1,.23.06,7.1,7.1,0,0,0,.67.56.26.26,0,0,1,.1.2l-.2,1.73a.63.63,0,0,0,.39.63l1.1.4a.65.65,0,0,0,.71-.23l.94-1.44a.27.27,0,0,1,.22-.11,3.09,3.09,0,0,0,.43,0h.45a.26.26,0,0,1,.2.1l.95,1.45a.65.65,0,0,0,.71.23l1.1-.4a.63.63,0,0,0,.39-.63l-.19-1.71a.24.24,0,0,1,.09-.22,5.18,5.18,0,0,0,.67-.57.26.26,0,0,1,.21,0l1.67.49a.63.63,0,0,0,.69-.27l.59-1a.64.64,0,0,0-.11-.74l-1.25-1.18A.28.28,0,0,1,146,66a5.24,5.24,0,0,0,.16-.88.25.25,0,0,1,.12-.16l1.59-.69a.64.64,0,0,0,.36-.65l-.21-1.17a.64.64,0,0,0-.55-.49l-1.72-.1a.28.28,0,0,1-.2-.13,7.44,7.44,0,0,0-.44-.78.23.23,0,0,1,0-.2l.78-1.55a.64.64,0,0,0-.15-.73l-.9-.76a.63.63,0,0,0-.74,0l-1.38,1a.33.33,0,0,1-.24,0,6.34,6.34,0,0,0-.83-.3.23.23,0,0,1-.15-.15l-.41-1.69a.63.63,0,0,0-.58-.46h-1.18a.63.63,0,0,0-.58.46l-.4,1.67A.21.21,0,0,1,138.2,58.36Z" transform="translate(-0.45)"/><path class="cls-17" d="M139.93,59.32A5.07,5.07,0,1,0,145,64.39a5.07,5.07,0,0,0-5.07-5.07Z" transform="translate(-0.45)"/><rect class="cls-15" x="204.24" y="4.7" width="32.57" height="11.87" rx="2.83"/><polygon class="cls-1" points="219.09 8.34 217.64 8.34 217.78 7.65 219.24 7.65 219.09 8.34"/><polygon class="cls-1" points="218.72 10.11 216.32 10.11 216.46 9.42 218.86 9.42 218.72 10.11"/><polygon class="cls-1" points="218.34 11.89 214.99 11.89 215.14 11.2 218.49 11.2 218.34 11.89"/><polygon class="cls-1" points="217.97 13.67 213.67 13.67 213.82 12.98 218.11 12.98 217.97 13.67"/><path class="cls-16" d="M203,4.61a6,6,0,0,0-.84.3.26.26,0,0,1-.21,0l-1.39-1a.63.63,0,0,0-.74,0l-.91.75a.65.65,0,0,0-.15.73l.77,1.54a.22.22,0,0,1,0,.22,6,6,0,0,0-.44.78.23.23,0,0,1-.18.12l-1.73.11a.63.63,0,0,0-.56.49l-.2,1.16a.61.61,0,0,0,.35.65l1.58.69a.28.28,0,0,1,.14.18,5.28,5.28,0,0,0,.15.87.25.25,0,0,1,0,.22l-1.26,1.19a.62.62,0,0,0-.11.73l.59,1a.63.63,0,0,0,.69.28l1.65-.49a.25.25,0,0,1,.22,0c.22.2.44.39.68.57a.25.25,0,0,1,.09.2l-.2,1.72a.63.63,0,0,0,.39.63l1.11.4a.62.62,0,0,0,.7-.23L204,17a.28.28,0,0,1,.21-.1h.88a.22.22,0,0,1,.2.09l1,1.45a.62.62,0,0,0,.7.23l1.11-.4a.63.63,0,0,0,.39-.63l-.2-1.71a.31.31,0,0,1,.09-.22,6.13,6.13,0,0,0,.68-.56.26.26,0,0,1,.21-.06l1.66.5a.63.63,0,0,0,.69-.28l.59-1a.65.65,0,0,0-.1-.73l-1.25-1.18a.25.25,0,0,1-.07-.23,8.52,8.52,0,0,0,.16-.88.24.24,0,0,1,.12-.17l1.59-.69a.62.62,0,0,0,.35-.65l-.2-1.16a.63.63,0,0,0-.56-.49L210.54,8a.28.28,0,0,1-.2-.13,5.35,5.35,0,0,0-.45-.77.26.26,0,0,1,0-.21l.78-1.55a.65.65,0,0,0-.15-.73l-.91-.75a.63.63,0,0,0-.74,0l-1.38,1a.24.24,0,0,1-.23,0,6,6,0,0,0-.84-.3.29.29,0,0,1-.15-.16l-.4-1.69a.63.63,0,0,0-.58-.46H204.1a.63.63,0,0,0-.58.46l-.4,1.68A.27.27,0,0,1,203,4.61Z" transform="translate(-0.45)"/><path class="cls-17" d="M204.69,5.57a5.07,5.07,0,1,0,5.07,5.07,5.07,5.07,0,0,0-5.07-5.07Z" transform="translate(-0.45)"/><path class="cls-15" d="M272.44,4.7h26.9a2.83,2.83,0,0,1,2.83,2.83v6.21a2.83,2.83,0,0,1-2.83,2.83h-26.9a2.83,2.83,0,0,1-2.83-2.83V7.53A2.85,2.85,0,0,1,272.44,4.7Z" transform="translate(-0.45)"/><polygon class="cls-1" points="284.01 8.34 282.55 8.34 282.7 7.65 284.15 7.65 284.01 8.34"/><polygon class="cls-1" points="283.63 10.11 281.23 10.11 281.38 9.42 283.78 9.42 283.63 10.11"/><polygon class="cls-1" points="283.26 11.89 279.91 11.89 280.05 11.2 283.4 11.2 283.26 11.89"/><polygon class="cls-1" points="282.88 13.67 278.59 13.67 278.73 12.98 283.03 12.98 282.88 13.67"/><path class="cls-16" d="M267.87,4.61a6.34,6.34,0,0,0-.83.3.2.2,0,0,1-.21,0l-1.4-1a.63.63,0,0,0-.74,0l-.9.75a.64.64,0,0,0-.15.73l.77,1.54a.28.28,0,0,1,0,.22,6.06,6.06,0,0,0-.45.78.22.22,0,0,1-.18.12L262,8.13a.61.61,0,0,0-.55.49l-.21,1.16a.65.65,0,0,0,.35.65l1.58.69a.24.24,0,0,1,.14.18,6.64,6.64,0,0,0,.16.87.29.29,0,0,1-.06.22l-1.26,1.19a.62.62,0,0,0-.11.73l.59,1a.63.63,0,0,0,.69.28L265,15.1a.27.27,0,0,1,.23.05c.21.2.44.39.67.57a.2.2,0,0,1,.1.2l-.2,1.72a.63.63,0,0,0,.39.63l1.1.4a.63.63,0,0,0,.71-.23L269,17a.32.32,0,0,1,.22-.1h.88a.25.25,0,0,1,.2.09l.95,1.45a.63.63,0,0,0,.71.23l1.1-.4a.62.62,0,0,0,.39-.63L273.21,16a.26.26,0,0,1,.09-.22,6,6,0,0,0,.67-.56.26.26,0,0,1,.21-.06l1.67.5a.63.63,0,0,0,.69-.28l.59-1a.62.62,0,0,0-.11-.73l-1.25-1.18a.28.28,0,0,1-.07-.23,5.24,5.24,0,0,0,.16-.88.3.3,0,0,1,.12-.17l1.59-.69a.64.64,0,0,0,.36-.65l-.21-1.16a.61.61,0,0,0-.55-.49L275.45,8a.28.28,0,0,1-.2-.13,7.3,7.3,0,0,0-.44-.77.26.26,0,0,1,0-.21l.78-1.55a.64.64,0,0,0-.15-.73l-.9-.75a.63.63,0,0,0-.74,0l-1.38,1a.26.26,0,0,1-.24,0,6.34,6.34,0,0,0-.83-.3.26.26,0,0,1-.15-.16l-.41-1.69a.63.63,0,0,0-.58-.46H269a.63.63,0,0,0-.58.46L268,4.44A.25.25,0,0,1,267.87,4.61Z" transform="translate(-0.45)"/><path class="cls-17" d="M269.6,5.57a5.07,5.07,0,1,0,5.07,5.07,5.07,5.07,0,0,0-5.07-5.07Z" transform="translate(-0.45)"/><rect class="cls-15" x="37.01" y="23.02" width="32.57" height="11.87" rx="2.83"/><polygon class="cls-1" points="51.86 26.66 50.41 26.66 50.56 25.97 52.01 25.97 51.86 26.66"/><polygon class="cls-1" points="51.49 28.43 49.09 28.43 49.23 27.75 51.63 27.75 51.49 28.43"/><polygon class="cls-1" points="51.11 30.21 47.77 30.21 47.91 29.52 51.26 29.52 51.11 30.21"/><polygon class="cls-1" points="50.74 31.99 46.44 31.99 46.59 31.3 50.88 31.3 50.74 31.99"/><path class="cls-16" d="M35.73,22.93a6.34,6.34,0,0,0-.83.3.28.28,0,0,1-.22,0l-1.39-1a.63.63,0,0,0-.74,0l-.91.76a.63.63,0,0,0-.15.72l.77,1.54a.22.22,0,0,1,0,.22,7.44,7.44,0,0,0-.44.78.27.27,0,0,1-.18.13l-1.73.1a.63.63,0,0,0-.56.49l-.2,1.16a.61.61,0,0,0,.35.65l1.58.69a.28.28,0,0,1,.14.18,6.6,6.6,0,0,0,.15.87.25.25,0,0,1-.05.22L30.05,31.9a.62.62,0,0,0-.11.73l.59,1a.63.63,0,0,0,.69.28l1.65-.49a.28.28,0,0,1,.23,0c.21.2.44.39.67.57a.25.25,0,0,1,.09.2L33.66,36a.63.63,0,0,0,.39.63l1.11.4a.62.62,0,0,0,.7-.23l1-1.44a.28.28,0,0,1,.21-.1H38a.22.22,0,0,1,.2.09l1,1.45a.62.62,0,0,0,.7.23l1.11-.4a.63.63,0,0,0,.39-.63l-.2-1.71a.31.31,0,0,1,.09-.22,6.13,6.13,0,0,0,.68-.56.26.26,0,0,1,.21-.06l1.66.5a.63.63,0,0,0,.69-.28l.59-1a.62.62,0,0,0-.1-.73l-1.25-1.18a.28.28,0,0,1-.07-.23,6.49,6.49,0,0,0,.16-.88.26.26,0,0,1,.12-.17l1.59-.69a.61.61,0,0,0,.35-.65L45.67,27a.63.63,0,0,0-.56-.49l-1.71-.1a.32.32,0,0,1-.2-.14,6,6,0,0,0-.45-.77.26.26,0,0,1,0-.21l.78-1.55a.63.63,0,0,0-.15-.72l-.91-.76a.63.63,0,0,0-.74,0l-1.38,1a.24.24,0,0,1-.23,0,6.34,6.34,0,0,0-.83-.3.26.26,0,0,1-.15-.16l-.41-1.69a.63.63,0,0,0-.58-.46H36.87a.63.63,0,0,0-.58.46l-.4,1.68A.31.31,0,0,1,35.73,22.93Z" transform="translate(-0.45)"/><path class="cls-17" d="M37.46,23.89A5.07,5.07,0,1,0,42.53,29a5.07,5.07,0,0,0-5.07-5.11Z" transform="translate(-0.45)"/><rect class="cls-15" x="81.56" y="181.71" width="32.57" height="11.87" rx="2.83"/><polygon class="cls-1" points="96.41 185.34 94.96 185.34 95.11 184.65 96.56 184.65 96.41 185.34"/><polygon class="cls-1" points="96.04 187.12 93.64 187.12 93.78 186.43 96.19 186.43 96.04 187.12"/><polygon class="cls-1" points="95.66 188.9 92.32 188.9 92.46 188.21 95.81 188.21 95.66 188.9"/><polygon class="cls-1" points="95.29 190.67 90.99 190.67 91.14 189.99 95.43 189.99 95.29 190.67"/><path class="cls-16" d="M80.28,181.61a8.29,8.29,0,0,0-.83.31.26.26,0,0,1-.21,0l-1.4-1a.66.66,0,0,0-.74,0l-.9.76a.64.64,0,0,0-.15.73l.77,1.54a.28.28,0,0,1,0,.22,6.06,6.06,0,0,0-.45.78.23.23,0,0,1-.18.12l-1.73.1a.63.63,0,0,0-.55.5l-.21,1.16a.65.65,0,0,0,.35.65l1.58.68a.28.28,0,0,1,.14.18,5.24,5.24,0,0,0,.16.88.26.26,0,0,1-.06.21l-1.26,1.2a.62.62,0,0,0-.11.73l.59,1a.6.6,0,0,0,.69.27l1.65-.49a.24.24,0,0,1,.23.06,6,6,0,0,0,.67.56.26.26,0,0,1,.1.2l-.2,1.73a.63.63,0,0,0,.38.63l1.11.4a.65.65,0,0,0,.71-.23l.94-1.44a.23.23,0,0,1,.22-.1h.85a.28.28,0,0,1,.21.1l1,1.45a.63.63,0,0,0,.7.23l1.11-.4a.63.63,0,0,0,.39-.63l-.2-1.71a.26.26,0,0,1,.1-.22c.23-.18.46-.37.67-.57a.26.26,0,0,1,.21,0l1.67.49a.61.61,0,0,0,.68-.27l.6-1a.64.64,0,0,0-.11-.74l-1.25-1.18a.26.26,0,0,1-.07-.22,6.49,6.49,0,0,0,.16-.88.26.26,0,0,1,.12-.17l1.59-.69a.62.62,0,0,0,.35-.65l-.2-1.16a.64.64,0,0,0-.55-.5l-1.72-.1a.28.28,0,0,1-.2-.13,7.3,7.3,0,0,0-.44-.77.26.26,0,0,1,0-.21l.78-1.55a.65.65,0,0,0-.15-.73L87,181a.63.63,0,0,0-.74,0l-1.38,1a.24.24,0,0,1-.23,0,8.22,8.22,0,0,0-.83-.3.23.23,0,0,1-.15-.15l-.41-1.69a.63.63,0,0,0-.58-.46H81.42a.63.63,0,0,0-.58.46l-.4,1.67A.25.25,0,0,1,80.28,181.61Z" transform="translate(-0.45)"/><path class="cls-17" d="M82,182.57a5.07,5.07,0,1,0,5.07,5.07A5.07,5.07,0,0,0,82,182.57Z" transform="translate(-0.45)"/><rect class="cls-15" x="139.49" y="181.71" width="32.57" height="11.87" rx="2.83"/><polygon class="cls-1" points="154.34 185.34 152.89 185.34 153.03 184.65 154.49 184.65 154.34 185.34"/><polygon class="cls-1" points="153.96 187.12 151.56 187.12 151.71 186.43 154.11 186.43 153.96 187.12"/><polygon class="cls-1" points="153.59 188.9 150.24 188.9 150.39 188.21 153.74 188.21 153.59 188.9"/><polygon class="cls-1" points="153.21 190.67 148.92 190.67 149.06 189.99 153.36 189.99 153.21 190.67"/><path class="cls-16" d="M138.2,181.61a8.29,8.29,0,0,0-.83.31.26.26,0,0,1-.21,0l-1.4-1a.66.66,0,0,0-.74,0l-.9.76a.64.64,0,0,0-.15.73l.77,1.54a.28.28,0,0,1,0,.22,6,6,0,0,0-.44.78.28.28,0,0,1-.19.12l-1.73.1a.64.64,0,0,0-.55.5l-.21,1.16a.64.64,0,0,0,.36.65l1.58.68a.29.29,0,0,1,.13.18,6.49,6.49,0,0,0,.16.88.26.26,0,0,1-.06.21l-1.26,1.2a.62.62,0,0,0-.11.73l.59,1a.63.63,0,0,0,.69.27l1.65-.49a.24.24,0,0,1,.23.06,6.13,6.13,0,0,0,.68.56.25.25,0,0,1,.09.2l-.2,1.73a.63.63,0,0,0,.39.63l1.11.4a.63.63,0,0,0,.7-.23l1-1.44a.23.23,0,0,1,.21-.1h.88a.26.26,0,0,1,.2.1l.95,1.45a.65.65,0,0,0,.71.23l1.11-.4a.66.66,0,0,0,.39-.63l-.2-1.71a.24.24,0,0,1,.09-.22,7.59,7.59,0,0,0,.68-.57.2.2,0,0,1,.21,0l1.66.49a.63.63,0,0,0,.69-.27l.59-1a.64.64,0,0,0-.11-.74l-1.25-1.18a.26.26,0,0,1-.07-.22,5.24,5.24,0,0,0,.16-.88.3.3,0,0,1,.12-.17l1.6-.69a.65.65,0,0,0,.35-.65l-.21-1.16a.64.64,0,0,0-.55-.5l-1.72-.1a.3.3,0,0,1-.2-.13,4.51,4.51,0,0,0-.44-.77.26.26,0,0,1,0-.21l.77-1.55a.64.64,0,0,0-.15-.73l-.9-.76a.63.63,0,0,0-.74,0l-1.38,1a.33.33,0,0,1-.24,0,6.34,6.34,0,0,0-.83-.3.23.23,0,0,1-.15-.15l-.4-1.69a.63.63,0,0,0-.58-.46h-1.19a.63.63,0,0,0-.58.46l-.39,1.67A.26.26,0,0,1,138.2,181.61Z" transform="translate(-0.45)"/><path class="cls-17" d="M139.94,182.57a5.07,5.07,0,1,0,5.06,5.08h0A5.09,5.09,0,0,0,139.94,182.57Z" transform="translate(-0.45)"/><path class="cls-14" d="M27.67,141.6H16.5a5.94,5.94,0,0,0,0,11.88H27.67a2.85,2.85,0,0,0,2.83-2.84v-6.2A2.85,2.85,0,0,0,27.67,141.6Z" transform="translate(-0.45)"/><path class="cls-15" d="M20.84,147.54a4.34,4.34,0,0,1-8.68,0h0a4.23,4.23,0,0,1,.31-1.61.45.45,0,1,1,.84.33h0a3.5,3.5,0,0,0-.24,1.28,3.43,3.43,0,1,0,5-3,.46.46,0,0,1-.19-.62.45.45,0,0,1,.61-.19h0A4.34,4.34,0,0,1,20.84,147.54Zm-4.34-3a.67.67,0,1,0-.67-.67h0a.67.67,0,0,0,.67.66Zm0,3.68a.67.67,0,0,0,.67-.67.68.68,0,0,0-.3-.56l-3.58-2.65,2.65,3.58a.7.7,0,0,0,.56.29Z" transform="translate(-0.45)"/><path class="cls-14" d="M269,66.9H257.81a5.94,5.94,0,0,0,0,11.88H269a2.85,2.85,0,0,0,2.83-2.84v-6.2A2.85,2.85,0,0,0,269,66.9Z" transform="translate(-0.45)"/><path class="cls-15" d="M262.16,72.84a4.35,4.35,0,0,1-8.69.42,2.94,2.94,0,0,1,0-.42,4.43,4.43,0,0,1,.31-1.61.46.46,0,1,1,.85.34h0a3.23,3.23,0,0,0-.25,1.27,3.44,3.44,0,1,0,5-3,.46.46,0,0,1-.19-.62.47.47,0,0,1,.62-.19A4.34,4.34,0,0,1,262.16,72.84Zm-4.35-3a.67.67,0,1,0-.67-.67.67.67,0,0,0,.67.67Zm0,3.67a.67.67,0,0,0,.67-.67h0a.68.68,0,0,0-.3-.56l-3.58-2.65,2.66,3.58A.65.65,0,0,0,257.81,73.51Z" transform="translate(-0.45)"/><path class="cls-14" d="M154.35,37.46H143.19a5.94,5.94,0,0,0-.49,11.87,4,4,0,0,0,.49,0h11.16a2.85,2.85,0,0,0,2.84-2.83V40.29A2.85,2.85,0,0,0,154.35,37.46Z" transform="translate(-0.45)"/><path class="cls-15" d="M147.53,43.39a4.34,4.34,0,1,1-8.68,0h0a4.23,4.23,0,0,1,.31-1.61.45.45,0,0,1,.58-.26h0a.46.46,0,0,1,.25.6,3.43,3.43,0,1,0,4.78-1.77.44.44,0,0,1-.2-.59v0a.45.45,0,0,1,.6-.2h0A4.35,4.35,0,0,1,147.53,43.39Zm-4.34-3a.67.67,0,1,0-.67-.67h0A.67.67,0,0,0,143.19,40.39Zm0,3.67a.67.67,0,0,0,.67-.67.63.63,0,0,0-.31-.55L140,40.18l2.65,3.58A.68.68,0,0,0,143.19,44.06Z" transform="translate(-0.45)"/><rect class="cls-14" x="18.18" y="38.37" width="11.87" height="11.87" rx="2.83"/><polygon class="cls-15" points="20.45 46 19.82 48.4 28.41 48.4 27.78 46 20.45 46"/><polygon class="cls-15" points="21.11 40.18 19.82 45.1 28.41 45.1 27.12 40.18 21.11 40.18"/><rect class="cls-18" x="289.85" y="58.45" width="11.87" height="11.87" rx="2.83"/><path class="cls-18" d="M240.1,83.78H216.24l-.06-.06-.9-.76a.63.63,0,0,0-.74,0l-1.14.84h-.2a3.4,3.4,0,0,0-.63.08c-.16-.06-.31-.12-.48-.17a.28.28,0,0,1-.15-.15l-.4-1.69a.63.63,0,0,0-.58-.46h-1.18a.63.63,0,0,0-.58.46l-.4,1.67a.29.29,0,0,1-.17.17,8.29,8.29,0,0,0-.83.31.26.26,0,0,1-.21,0l-1.39-1a.66.66,0,0,0-.74,0l-.91.76a.64.64,0,0,0-.15.73l.77,1.54a.22.22,0,0,1,0,.22,7.3,7.3,0,0,0-.44.77.24.24,0,0,1-.18.13l-1.74.1a.64.64,0,0,0-.55.49l-.2,1.17a.62.62,0,0,0,.35.65l1.58.68a.29.29,0,0,1,.13.18,6.49,6.49,0,0,0,.16.88.23.23,0,0,1-.06.21L203,92.66a.64.64,0,0,0-.11.74l.59,1a.63.63,0,0,0,.69.27l1.65-.49a.24.24,0,0,1,.23.06,6.13,6.13,0,0,0,.68.56.25.25,0,0,1,.09.2l-.2,1.73a.63.63,0,0,0,.39.63l1.11.4a.63.63,0,0,0,.7-.23l1-1.44A.23.23,0,0,1,210,96h.88a.26.26,0,0,1,.2.1l1,1.45a.65.65,0,0,0,.71.23l1.11-.4a.64.64,0,0,0,.39-.63L214,95.66h26.1a2.85,2.85,0,0,0,2.84-2.84v-6.2A2.85,2.85,0,0,0,240.1,83.78Z" transform="translate(-0.45)"/><path class="cls-18" d="M232.84,118.93H209l-.05-.07-.9-.76a.66.66,0,0,0-.74,0l-1.14.85H206a2.74,2.74,0,0,0-.64.08c-.15-.06-.3-.13-.47-.18a.28.28,0,0,1-.15-.15l-.4-1.69a.63.63,0,0,0-.58-.46h-1.18a.64.64,0,0,0-.59.46l-.39,1.68a.29.29,0,0,1-.17.17,6.34,6.34,0,0,0-.83.3.2.2,0,0,1-.21,0l-1.4-1a.66.66,0,0,0-.74,0l-.9.76a.64.64,0,0,0-.15.73l.77,1.54a.28.28,0,0,1,0,.22,6,6,0,0,0-.44.78.28.28,0,0,1-.18.12l-1.74.11a.62.62,0,0,0-.55.49l-.2,1.16a.61.61,0,0,0,.35.65l1.58.69a.25.25,0,0,1,.13.17,6.49,6.49,0,0,0,.16.88.26.26,0,0,1-.06.21l-1.26,1.2a.62.62,0,0,0-.11.73l.59,1a.65.65,0,0,0,.69.28l1.65-.5a.32.32,0,0,1,.23.06,6.13,6.13,0,0,0,.68.56.25.25,0,0,1,.09.2l-.2,1.73a.63.63,0,0,0,.39.63l1.11.4a.62.62,0,0,0,.7-.23l1-1.44a.25.25,0,0,1,.21-.1h.88a.26.26,0,0,1,.2.1l.95,1.45a.65.65,0,0,0,.71.23l1.11-.4a.63.63,0,0,0,.39-.63l-.13-1.09h26.06a2.85,2.85,0,0,0,2.84-2.83v-6.21a2.84,2.84,0,0,0-2.8-2.88Z" transform="translate(-0.45)"/><path class="cls-18" d="M232.84,141.6H209l-.05-.06-.9-.76a.63.63,0,0,0-.74,0l-1.14.84H206a2.74,2.74,0,0,0-.64.08c-.15-.06-.3-.12-.47-.17a.28.28,0,0,1-.15-.15l-.4-1.69a.63.63,0,0,0-.58-.46h-1.18a.62.62,0,0,0-.59.46l-.39,1.67a.29.29,0,0,1-.17.17,6.39,6.39,0,0,0-.83.31.26.26,0,0,1-.21,0l-1.4-1a.63.63,0,0,0-.74,0l-.9.76a.64.64,0,0,0-.15.73l.77,1.53a.31.31,0,0,1,0,.23,4.51,4.51,0,0,0-.44.77.24.24,0,0,1-.18.13l-1.74.1a.64.64,0,0,0-.55.49l-.2,1.17a.62.62,0,0,0,.35.65l1.58.68a.27.27,0,0,1,.13.18,6.49,6.49,0,0,0,.16.88.26.26,0,0,1-.06.21l-1.26,1.19a.64.64,0,0,0-.11.74l.59,1a.63.63,0,0,0,.69.27l1.65-.49a.24.24,0,0,1,.23.06,6.13,6.13,0,0,0,.68.56.25.25,0,0,1,.09.2l-.2,1.72a.65.65,0,0,0,.39.64l1.11.4a.63.63,0,0,0,.7-.23l1-1.44a.26.26,0,0,1,.21-.11h.88a.26.26,0,0,1,.2.1l.95,1.44a.65.65,0,0,0,.71.24l1.11-.41a.63.63,0,0,0,.39-.63l-.13-1.08h26.06a2.85,2.85,0,0,0,2.84-2.84v-6.2A2.85,2.85,0,0,0,233,141.6Z" transform="translate(-0.45)"/><path class="cls-18" d="M169.67,141.6H145.8l-.05-.06-.9-.76a.63.63,0,0,0-.74,0l-1.14.84h-.2a2.74,2.74,0,0,0-.64.08l-.47-.17a.23.23,0,0,1-.15-.15l-.4-1.69a.63.63,0,0,0-.58-.46h-1.19a.63.63,0,0,0-.58.46l-.39,1.67a.29.29,0,0,1-.17.17,6.39,6.39,0,0,0-.83.31.26.26,0,0,1-.21,0l-1.4-1a.63.63,0,0,0-.74,0l-.9.76a.64.64,0,0,0-.15.73l.77,1.53a.31.31,0,0,1,0,.23,4.51,4.51,0,0,0-.44.77.26.26,0,0,1-.19.13l-1.73.1a.64.64,0,0,0-.55.49l-.21,1.17a.64.64,0,0,0,.36.65l1.58.68a.27.27,0,0,1,.13.18,6.49,6.49,0,0,0,.16.88.26.26,0,0,1-.06.21l-1.26,1.19a.64.64,0,0,0-.11.74l.59,1a.63.63,0,0,0,.69.27l1.65-.49a.24.24,0,0,1,.23.06,7.1,7.1,0,0,0,.67.56.22.22,0,0,1,.1.2l-.2,1.72a.65.65,0,0,0,.39.64l1.1.4a.65.65,0,0,0,.71-.23l1-1.44a.26.26,0,0,1,.21-.11h.88a.26.26,0,0,1,.2.1l.95,1.44a.65.65,0,0,0,.71.24l1.11-.41a.63.63,0,0,0,.38-.63l-.12-1.08h26.06a2.85,2.85,0,0,0,2.84-2.84v-6.2a2.86,2.86,0,0,0-2.82-2.88Z" transform="translate(-0.45)"/><path class="cls-18" d="M110.83,129.26H87l-.06-.06-.9-.76a.63.63,0,0,0-.74,0l-1.14.84H84a2.72,2.72,0,0,0-.63.08,4.59,4.59,0,0,0-.48-.17.29.29,0,0,1-.15-.16l-.4-1.68a.63.63,0,0,0-.58-.46H80.51a.62.62,0,0,0-.58.46l-.4,1.67a.29.29,0,0,1-.17.17,6.34,6.34,0,0,0-.83.3.2.2,0,0,1-.21,0l-1.39-1a.6.6,0,0,0-.74,0l-.91.76a.6.6,0,0,0-.15.72l.77,1.54a.31.31,0,0,1,0,.23,4.51,4.51,0,0,0-.44.77.29.29,0,0,1-.18.13l-1.74.1a.62.62,0,0,0-.55.49l-.2,1.16a.63.63,0,0,0,.35.66l1.58.68a.24.24,0,0,1,.13.18,6.64,6.64,0,0,0,.16.87A.25.25,0,0,1,75,137l-1.26,1.19a.62.62,0,0,0-.11.73l.59,1a.65.65,0,0,0,.69.27l1.65-.49a.31.31,0,0,1,.23,0,5.27,5.27,0,0,0,.68.57.25.25,0,0,1,.09.2l-.2,1.72a.63.63,0,0,0,.39.63l1.11.41a.64.64,0,0,0,.7-.24l1-1.43a.26.26,0,0,1,.21-.11h.88a.25.25,0,0,1,.2.09l1,1.45a.65.65,0,0,0,.71.24l1.11-.41a.63.63,0,0,0,.39-.63l-.13-1.09h26.06a2.85,2.85,0,0,0,2.84-2.83v-6.21a2.85,2.85,0,0,0-2.9-2.8Z" transform="translate(-0.45)"/><path class="cls-18" d="M169.67,118.93H145.8l-.05-.07-.9-.76a.66.66,0,0,0-.74,0L143,119h-.2a2.74,2.74,0,0,0-.64.08c-.15-.06-.3-.13-.47-.18a.28.28,0,0,1-.15-.15l-.4-1.69a.63.63,0,0,0-.58-.46h-1.18a.64.64,0,0,0-.59.46l-.39,1.68a.29.29,0,0,1-.17.17,6.34,6.34,0,0,0-.83.3.2.2,0,0,1-.21,0l-1.4-1a.66.66,0,0,0-.74,0l-.9.76a.64.64,0,0,0-.15.73l.77,1.54a.28.28,0,0,1,0,.22,6,6,0,0,0-.44.78.28.28,0,0,1-.18.12l-1.74.11a.62.62,0,0,0-.55.49l-.2,1.16a.61.61,0,0,0,.35.65l1.58.69a.25.25,0,0,1,.13.17,6.49,6.49,0,0,0,.16.88.26.26,0,0,1-.06.21l-1.26,1.2a.62.62,0,0,0-.11.73l.59,1a.65.65,0,0,0,.69.28l1.65-.5a.32.32,0,0,1,.23.06,6.13,6.13,0,0,0,.68.56.25.25,0,0,1,.09.2l-.2,1.73a.63.63,0,0,0,.39.63l1.11.4a.62.62,0,0,0,.7-.23l1-1.44a.25.25,0,0,1,.21-.1h.88a.26.26,0,0,1,.2.1l.95,1.45a.65.65,0,0,0,.71.23l1.11-.4a.63.63,0,0,0,.39-.63l-.13-1.09h26.06a2.85,2.85,0,0,0,2.84-2.83v-6.21a2.84,2.84,0,0,0-2.8-2.88Z" transform="translate(-0.45)"/><path class="cls-18" d="M43.33,181.71H19.46l-.05-.07-.91-.76a.63.63,0,0,0-.74,0l-1.13.85h-.2a3.39,3.39,0,0,0-.64.07l-.47-.17a.23.23,0,0,1-.15-.15l-.41-1.69a.63.63,0,0,0-.58-.46H13a.63.63,0,0,0-.58.46l-.4,1.67a.23.23,0,0,1-.16.17,8.29,8.29,0,0,0-.83.31.41.41,0,0,1-.22,0l-1.39-1a.66.66,0,0,0-.74,0l-.9.76a.65.65,0,0,0-.16.73L8.39,184a.22.22,0,0,1,0,.22A7.44,7.44,0,0,0,8,185a.23.23,0,0,1-.18.12l-1.73.1a.64.64,0,0,0-.55.5l-.21,1.16a.62.62,0,0,0,.35.65l1.58.68a.28.28,0,0,1,.14.18,6.47,6.47,0,0,0,.15.88.26.26,0,0,1,0,.21l-1.26,1.2a.62.62,0,0,0-.11.73l.59,1a.6.6,0,0,0,.69.27L9,192.12a.24.24,0,0,1,.23.06,6,6,0,0,0,.67.56.25.25,0,0,1,.09.2l-.2,1.73a.64.64,0,0,0,.39.63l1.11.4a.65.65,0,0,0,.71-.23l.94-1.44a.23.23,0,0,1,.21-.1H14a.26.26,0,0,1,.2.1l1,1.45a.63.63,0,0,0,.7.23l1.11-.4a.63.63,0,0,0,.39-.63l-.12-1.09h26a2.85,2.85,0,0,0,2.83-2.83v-6.21a2.83,2.83,0,0,0-2.82-2.84Z" transform="translate(-0.45)"/><path class="cls-18" d="M43.33,83.78H19.46l-.05-.06L18.5,83a.63.63,0,0,0-.74,0l-1.13.84h-.2a3.4,3.4,0,0,0-.64.08l-.47-.17a.23.23,0,0,1-.15-.15l-.41-1.69a.63.63,0,0,0-.58-.46H13a.63.63,0,0,0-.58.46L12,83.52a.25.25,0,0,1-.16.17A6,6,0,0,0,11,84a.41.41,0,0,1-.22,0L9.39,83a.66.66,0,0,0-.74,0l-.91.76a.65.65,0,0,0-.15.73L8.39,86a.22.22,0,0,1,0,.22A8.46,8.46,0,0,0,8,87a.24.24,0,0,1-.18.13L6,87.21a.66.66,0,0,0-.56.49l-.2,1.17a.62.62,0,0,0,.35.65l1.58.68a.28.28,0,0,1,.14.18,6.47,6.47,0,0,0,.15.88.26.26,0,0,1,0,.21L6.18,92.66a.64.64,0,0,0-.11.74l.59,1a.63.63,0,0,0,.69.27L9,94.2a.24.24,0,0,1,.23.06,6,6,0,0,0,.67.56A.25.25,0,0,1,10,95l-.2,1.73a.64.64,0,0,0,.39.63l1.11.4a.65.65,0,0,0,.71-.23L13,96.09a.23.23,0,0,1,.21-.1H14a.26.26,0,0,1,.2.1l1,1.45a.63.63,0,0,0,.7.23l1.11-.4a.64.64,0,0,0,.39-.63l-.13-1.09H43.33a2.85,2.85,0,0,0,2.83-2.84v-6.2A2.85,2.85,0,0,0,43.33,83.78Z" transform="translate(-0.45)"/><path class="cls-18" d="M5.62,10.43l1.58.69a.28.28,0,0,1,.14.18,6.6,6.6,0,0,0,.15.87.28.28,0,0,1,0,.22L6.18,13.58a.62.62,0,0,0-.11.73l.59,1a.63.63,0,0,0,.69.28L9,15.12a.28.28,0,0,1,.23.05c.21.2.44.39.67.57a.25.25,0,0,1,.09.2l-.2,1.72a.63.63,0,0,0,.39.63l1.11.4a.63.63,0,0,0,.71-.23L12.94,17a.28.28,0,0,1,.21-.1H14a.22.22,0,0,1,.2.09l1,1.45a.62.62,0,0,0,.7.23l1.11-.4a.63.63,0,0,0,.39-.63l-.12-1.09h26a2.83,2.83,0,0,0,2.83-2.83h0V7.53A2.83,2.83,0,0,0,43.33,4.7H19.46l-.05-.07-.91-.75a.63.63,0,0,0-.74,0l-1.13.85h-.2a2.74,2.74,0,0,0-.64.08,3.75,3.75,0,0,0-.47-.17.26.26,0,0,1-.15-.16l-.41-1.69a.63.63,0,0,0-.58-.46H13a.63.63,0,0,0-.58.46L12,4.44a.25.25,0,0,1-.16.17,6.34,6.34,0,0,0-.83.3.28.28,0,0,1-.22,0l-1.39-1a.63.63,0,0,0-.74,0l-.9.75a.65.65,0,0,0-.16.73L8.39,6.9a.22.22,0,0,1,0,.22A7.44,7.44,0,0,0,8,7.9a.23.23,0,0,1-.19.1L6,8.13a.61.61,0,0,0-.55.49L5.27,9.78A.62.62,0,0,0,5.62,10.43Z" transform="translate(-0.45)"/><path class="cls-18" d="M53.4,10.43l1.58.69a.24.24,0,0,1,.13.18,6.64,6.64,0,0,0,.16.87.25.25,0,0,1-.06.22L54,13.58a.62.62,0,0,0-.11.73l.59,1a.65.65,0,0,0,.69.28l1.65-.49a.27.27,0,0,1,.23.05c.22.2.44.39.68.57a.25.25,0,0,1,.09.2l-.2,1.72a.63.63,0,0,0,.39.63l1.11.4a.62.62,0,0,0,.7-.23l.9-1.44a.28.28,0,0,1,.21-.1h.88A.23.23,0,0,1,62,17l1,1.45a.63.63,0,0,0,.71.23l1.11-.4a.63.63,0,0,0,.39-.63L65,16.57H91.1a2.85,2.85,0,0,0,2.84-2.83V7.53A2.85,2.85,0,0,0,91.1,4.7H67.24l-.06-.07-.9-.75a.63.63,0,0,0-.74,0L64.4,4.7h-.2a2.72,2.72,0,0,0-.63.08,4.59,4.59,0,0,0-.48-.17.26.26,0,0,1-.15-.16l-.4-1.69A.63.63,0,0,0,62,2.3H60.78a.63.63,0,0,0-.58.46l-.4,1.68a.29.29,0,0,1-.17.17,6.34,6.34,0,0,0-.83.3.2.2,0,0,1-.21,0l-1.39-1a.6.6,0,0,0-.74,0l-.91.75a.64.64,0,0,0-.15.73l.77,1.54a.22.22,0,0,1,0,.22,6,6,0,0,0-.44.78.23.23,0,0,1-.18.12l-1.74.11a.61.61,0,0,0-.55.49L53,9.78A.63.63,0,0,0,53.4,10.43Z" transform="translate(-0.45)"/><path class="cls-18" d="M138.88,16.57a2.83,2.83,0,0,0,2.83-2.83h0V7.53a2.83,2.83,0,0,0-2.83-2.83H115V4.63l-.91-.75a.63.63,0,0,0-.74,0l-1.13.85H112a2.74,2.74,0,0,0-.64.08,3.75,3.75,0,0,0-.47-.17.31.31,0,0,1-.16-.16l-.4-1.69a.63.63,0,0,0-.58-.46h-1.18a.63.63,0,0,0-.58.46l-.4,1.68a.25.25,0,0,1-.16.17,6.34,6.34,0,0,0-.83.3.28.28,0,0,1-.22,0l-1.39-1a.63.63,0,0,0-.74,0l-.91.75a.65.65,0,0,0-.15.73L104,7a.22.22,0,0,1,0,.22,7.44,7.44,0,0,0-.44.78.23.23,0,0,1-.18.12l-1.73.11a.63.63,0,0,0-.56.49l-.2,1.16a.61.61,0,0,0,.35.65l1.58.69a.28.28,0,0,1,.14.18,6.6,6.6,0,0,0,.15.87.25.25,0,0,1,0,.22l-1.26,1.19a.62.62,0,0,0-.11.73l.59,1a.63.63,0,0,0,.69.28l1.65-.49a.28.28,0,0,1,.23.05c.21.2.44.39.67.57a.25.25,0,0,1,.09.2l-.2,1.72a.63.63,0,0,0,.39.63l1.11.4a.63.63,0,0,0,.71-.23l.94-1.44a.28.28,0,0,1,.21-.1h.88a.22.22,0,0,1,.2.09l1,1.45a.62.62,0,0,0,.7.23l1.11-.4a.63.63,0,0,0,.39-.63l-.13-1.09Z" transform="translate(-0.45)"/><path class="cls-18" d="M186.65,4.7H162.78l-.05-.07-.9-.75a.63.63,0,0,0-.74,0L160,4.7h-.2a2.74,2.74,0,0,0-.64.08,3.75,3.75,0,0,0-.47-.17.26.26,0,0,1-.15-.16l-.41-1.69a.63.63,0,0,0-.58-.46h-1.18a.63.63,0,0,0-.58.46l-.4,1.68a.25.25,0,0,1-.16.17,6.34,6.34,0,0,0-.83.3.2.2,0,0,1-.21,0l-1.4-1a.63.63,0,0,0-.74,0l-.9.75a.64.64,0,0,0-.15.73l.77,1.54a.28.28,0,0,1,0,.22,6.06,6.06,0,0,0-.45.78.22.22,0,0,1-.18.12l-1.73.11a.61.61,0,0,0-.55.49l-.21,1.16a.64.64,0,0,0,.36.65l1.58.69a.24.24,0,0,1,.13.18,6.64,6.64,0,0,0,.16.87.29.29,0,0,1-.06.22l-1.26,1.19a.62.62,0,0,0-.11.73l.59,1a.63.63,0,0,0,.69.28l1.65-.49a.27.27,0,0,1,.23,0c.21.2.44.39.67.57a.2.2,0,0,1,.1.2l-.2,1.72a.63.63,0,0,0,.39.63l1.1.4a.63.63,0,0,0,.71-.23l.94-1.44a.32.32,0,0,1,.22-.1h.88a.25.25,0,0,1,.2.09l.95,1.45a.63.63,0,0,0,.71.23l1.11-.4a.63.63,0,0,0,.38-.63l-.12-1.09h26.06a2.85,2.85,0,0,0,2.84-2.83V7.53A2.84,2.84,0,0,0,186.7,4.7Z" transform="translate(-0.45)"/><path class="cls-18" d="M132,64.19l1.58.68a.28.28,0,0,1,.14.18,6.49,6.49,0,0,0,.16.88.26.26,0,0,1-.06.21l-1.26,1.19a.64.64,0,0,0-.11.74l.59,1a.63.63,0,0,0,.69.27l1.65-.49a.24.24,0,0,1,.23.06,7.1,7.1,0,0,0,.67.56.26.26,0,0,1,.1.2l-.2,1.73a.63.63,0,0,0,.39.63l1.1.4a.65.65,0,0,0,.71-.23l.94-1.44a.27.27,0,0,1,.22-.11h.88a.26.26,0,0,1,.2.1l.95,1.45a.65.65,0,0,0,.71.23l1.1-.4a.63.63,0,0,0,.39-.63l-.12-1.09h26.06a2.85,2.85,0,0,0,2.84-2.84v-6.2a2.85,2.85,0,0,0-2.84-2.84H145.8l-.05-.06-.9-.76a.63.63,0,0,0-.74,0l-1.14.84h-.2a3.4,3.4,0,0,0-.64.08l-.47-.17a.23.23,0,0,1-.15-.15l-.41-1.69a.63.63,0,0,0-.58-.46h-1.18a.63.63,0,0,0-.58.46l-.4,1.67a.23.23,0,0,1-.16.17,8.29,8.29,0,0,0-.83.31.26.26,0,0,1-.21,0l-1.4-1a.66.66,0,0,0-.74,0l-.9.76a.64.64,0,0,0-.15.73l.77,1.54a.28.28,0,0,1,0,.22c-.16.25-.31.51-.45.77a.23.23,0,0,1-.18.13l-1.73.1a.64.64,0,0,0-.55.49l-.21,1.17A.65.65,0,0,0,132,64.19Z" transform="translate(-0.45)"/><path class="cls-18" d="M234.43,4.7H210.56l-.05-.07-.91-.75a.63.63,0,0,0-.74,0l-1.13.85h-.21a2.72,2.72,0,0,0-.63.08,4.59,4.59,0,0,0-.48-.17.29.29,0,0,1-.15-.16l-.4-1.69a.63.63,0,0,0-.58-.46H204.1a.63.63,0,0,0-.58.46l-.4,1.68a.25.25,0,0,1-.16.17,6,6,0,0,0-.84.3.26.26,0,0,1-.21,0l-1.39-1a.63.63,0,0,0-.74,0l-.91.75a.65.65,0,0,0-.15.73L199.49,7a.22.22,0,0,1,0,.22,6,6,0,0,0-.44.78.23.23,0,0,1-.18.12l-1.73.11a.63.63,0,0,0-.56.49l-.2,1.16a.61.61,0,0,0,.35.65l1.58.69a.28.28,0,0,1,.14.18,5.28,5.28,0,0,0,.15.87.25.25,0,0,1,0,.22l-1.26,1.19a.62.62,0,0,0-.11.73l.59,1a.63.63,0,0,0,.69.28l1.65-.49a.25.25,0,0,1,.22.05c.22.2.44.39.68.57a.25.25,0,0,1,.09.2l-.2,1.72a.63.63,0,0,0,.39.63l1.11.4a.62.62,0,0,0,.7-.23L204,17a.28.28,0,0,1,.21-.1h.88a.22.22,0,0,1,.2.09l1,1.45a.62.62,0,0,0,.7.23l1.11-.4a.63.63,0,0,0,.39-.63l-.13-1.09h26.07a2.83,2.83,0,0,0,2.83-2.83h0V7.53a2.83,2.83,0,0,0-2.83-2.83Z" transform="translate(-0.45)"/><path class="cls-18" d="M299.34,4.7H275.47l-.05-.07-.9-.75a.63.63,0,0,0-.74,0l-1.14.85h-.2a2.74,2.74,0,0,0-.64.08,3.75,3.75,0,0,0-.47-.17.26.26,0,0,1-.15-.16l-.41-1.69a.63.63,0,0,0-.58-.46H269a.63.63,0,0,0-.58.46L268,4.44a.25.25,0,0,1-.16.17,6.34,6.34,0,0,0-.83.3.2.2,0,0,1-.21,0l-1.4-1a.63.63,0,0,0-.74,0l-.9.75a.64.64,0,0,0-.15.73l.77,1.54a.28.28,0,0,1,0,.22,6.06,6.06,0,0,0-.45.78.22.22,0,0,1-.18.12L262,8.13a.61.61,0,0,0-.55.49l-.21,1.16a.65.65,0,0,0,.35.65l1.58.69a.24.24,0,0,1,.14.18,6.64,6.64,0,0,0,.16.87.29.29,0,0,1-.06.22l-1.26,1.19a.62.62,0,0,0-.11.73l.59,1a.63.63,0,0,0,.69.28L265,15.1a.27.27,0,0,1,.23.05c.21.2.44.39.67.57a.2.2,0,0,1,.1.2l-.2,1.72a.63.63,0,0,0,.39.63l1.1.4a.63.63,0,0,0,.71-.23L269,17a.32.32,0,0,1,.22-.1h.88a.25.25,0,0,1,.2.09l.95,1.45a.63.63,0,0,0,.71.23l1.1-.4a.62.62,0,0,0,.39-.63l-.12-1.09h26.06a2.85,2.85,0,0,0,2.84-2.83V7.53a2.84,2.84,0,0,0-2.85-2.83Z" transform="translate(-0.45)"/><path class="cls-18" d="M67.2,34.89A2.83,2.83,0,0,0,70,32.06V25.85A2.83,2.83,0,0,0,67.2,23H43.33v-.06l-.91-.76a.63.63,0,0,0-.74,0L40.5,23h-.2a2.74,2.74,0,0,0-.64.08,3.75,3.75,0,0,0-.47-.17.26.26,0,0,1-.15-.16l-.41-1.69a.63.63,0,0,0-.58-.46H36.87a.63.63,0,0,0-.58.46l-.4,1.68a.25.25,0,0,1-.16.17,6.34,6.34,0,0,0-.83.3.28.28,0,0,1-.22,0l-1.39-1a.63.63,0,0,0-.74,0l-.91.76a.63.63,0,0,0-.15.72l.77,1.54a.22.22,0,0,1,0,.22,7.44,7.44,0,0,0-.44.78.23.23,0,0,1-.18.12l-1.73.11a.63.63,0,0,0-.56.49l-.2,1.16a.61.61,0,0,0,.35.65l1.58.69a.28.28,0,0,1,.14.18,6.6,6.6,0,0,0,.15.87.25.25,0,0,1-.05.22L30.05,31.9a.62.62,0,0,0-.11.73l.59,1a.63.63,0,0,0,.69.28l1.65-.49a.28.28,0,0,1,.23,0c.21.2.44.39.67.57a.25.25,0,0,1,.09.2L33.66,36a.63.63,0,0,0,.39.63l1.11.4a.62.62,0,0,0,.7-.23l1-1.44a.28.28,0,0,1,.21-.1H38a.22.22,0,0,1,.2.09l1,1.45a.62.62,0,0,0,.7.23l1.11-.4a.63.63,0,0,0,.39-.63l-.12-1.09Z" transform="translate(-0.45)"/><path class="cls-18" d="M111.75,181.71H87.88v-.07l-.91-.76a.63.63,0,0,0-.74,0l-1.13.85h-.2a3.39,3.39,0,0,0-.64.07l-.47-.17a.23.23,0,0,1-.15-.15l-.41-1.69a.63.63,0,0,0-.58-.46H81.42a.63.63,0,0,0-.58.46l-.4,1.67a.23.23,0,0,1-.16.17,8.29,8.29,0,0,0-.83.31.26.26,0,0,1-.21,0l-1.4-1a.66.66,0,0,0-.74,0l-.9.76a.64.64,0,0,0-.15.73l.77,1.54a.28.28,0,0,1,0,.22,6.06,6.06,0,0,0-.45.78.23.23,0,0,1-.18.12l-1.73.1a.63.63,0,0,0-.55.5l-.21,1.16a.65.65,0,0,0,.35.65l1.58.68a.28.28,0,0,1,.14.18,5.24,5.24,0,0,0,.16.88.26.26,0,0,1-.06.21l-1.26,1.2a.62.62,0,0,0-.11.73l.59,1a.6.6,0,0,0,.69.27l1.65-.49a.24.24,0,0,1,.23.06,6,6,0,0,0,.67.56.26.26,0,0,1,.1.2l-.2,1.73a.63.63,0,0,0,.38.63l1.11.4a.65.65,0,0,0,.71-.23l.94-1.44a.23.23,0,0,1,.22-.1h.85a.28.28,0,0,1,.21.1l1,1.45a.63.63,0,0,0,.7.23l1.11-.4a.63.63,0,0,0,.39-.63l-.12-1.09h26.06a2.85,2.85,0,0,0,2.83-2.83v-6.21a2.83,2.83,0,0,0-2.78-2.88Z" transform="translate(-0.45)"/><path class="cls-18" d="M169.67,181.71H145.8a.18.18,0,0,0-.05-.07l-.9-.76a.63.63,0,0,0-.74,0l-1.14.85h-.2a3.39,3.39,0,0,0-.64.07c-.15-.05-.3-.12-.47-.17a.23.23,0,0,1-.15-.15l-.4-1.69a.63.63,0,0,0-.58-.46h-1.19a.63.63,0,0,0-.58.46l-.39,1.67a.29.29,0,0,1-.17.17,8.29,8.29,0,0,0-.83.31.26.26,0,0,1-.21,0l-1.4-1a.66.66,0,0,0-.74,0l-.9.76a.64.64,0,0,0-.15.73l.77,1.54a.28.28,0,0,1,0,.22,6,6,0,0,0-.44.78.28.28,0,0,1-.19.12l-1.73.1a.64.64,0,0,0-.55.5l-.21,1.16a.64.64,0,0,0,.36.65l1.58.68a.29.29,0,0,1,.13.18,6.49,6.49,0,0,0,.16.88.26.26,0,0,1-.06.21l-1.26,1.2a.62.62,0,0,0-.11.73l.59,1a.63.63,0,0,0,.69.27l1.65-.49a.24.24,0,0,1,.23.06,6.13,6.13,0,0,0,.68.56.25.25,0,0,1,.09.2l-.2,1.73a.63.63,0,0,0,.39.63l1.11.4a.63.63,0,0,0,.7-.23l1-1.44a.23.23,0,0,1,.21-.1h.88a.26.26,0,0,1,.2.1l.95,1.45a.65.65,0,0,0,.71.23l1.11-.4a.66.66,0,0,0,.39-.63l-.13-1.09h26.06a2.86,2.86,0,0,0,2.84-2.83v-6.21a2.84,2.84,0,0,0-2.8-2.88Z" transform="translate(-0.45)"/><path class="cls-18" d="M27.67,141.6H16.5a5.94,5.94,0,0,0,0,11.88H27.67a2.85,2.85,0,0,0,2.83-2.84v-6.2A2.85,2.85,0,0,0,27.67,141.6Z" transform="translate(-0.45)"/><path class="cls-18" d="M269,66.9H257.81a5.94,5.94,0,0,0,0,11.88H269a2.85,2.85,0,0,0,2.83-2.84v-6.2A2.85,2.85,0,0,0,269,66.9Z" transform="translate(-0.45)"/><path class="cls-18" d="M154.35,37.46H143.19a5.94,5.94,0,0,0-.49,11.87,4,4,0,0,0,.49,0h11.16a2.85,2.85,0,0,0,2.84-2.83V40.29A2.85,2.85,0,0,0,154.35,37.46Z" transform="translate(-0.45)"/><path class="cls-19" d="M164.73,37.92a6.5,6.5,0,0,0,1.08-.24,7.93,7.93,0,0,0,3-1.7l3.67,9.27a20.44,20.44,0,0,1-3,2.49A6.44,6.44,0,0,1,166.06,49a2.5,2.5,0,0,1-2.2-1.09c.57-.52,2-1.51,2.47-1.18s-.44,1.48-.44,1.48c1.3-1,1.34-1.58,1.24-1.86l-.33-.46m.21.27-4.3-9.69a8.34,8.34,0,0,0-1,0,11.36,11.36,0,0,0-3.17.46,10.22,10.22,0,0,0-3.8,2l4.65,11.79A25.72,25.72,0,0,1,163,47.49,6.52,6.52,0,0,1,166.38,46a1.91,1.91,0,0,1,.62.13Z" transform="translate(-0.45)"/><path class="cls-15" d="M168.84,36a7.93,7.93,0,0,1-3,1.7,6.5,6.5,0,0,1-1.08.24l2.4,8.4h0c.1.28.06.88-1.24,1.86,0,0,.91-1.15.44-1.48s-1.9.66-2.47,1.18a2.5,2.5,0,0,0,2.2,1.09,6.48,6.48,0,0,0,3.41-1.23,20.44,20.44,0,0,0,3-2.49Z" transform="translate(-0.45)"/><path class="cls-1" d="M169.35,47.42a20,20,0,0,0,2.77-2.25L171,42.4a14.72,14.72,0,0,1-2.76,2Z" transform="translate(-0.45)"/><path class="cls-1" d="M169.8,39.3l-1.1-2.78A8.2,8.2,0,0,1,165.92,38l1.13,3.1A10.62,10.62,0,0,0,169.8,39.3Z" transform="translate(-0.45)"/><path class="cls-1" d="M168.27,44.43l-1.22-3.34a7.31,7.31,0,0,1-1.3.42l1,3.56A8.15,8.15,0,0,0,168.27,44.43Z" transform="translate(-0.45)"/><path class="cls-15" d="M161.75,36.39a11.36,11.36,0,0,0-3.17.46,10.22,10.22,0,0,0-3.8,2l4.65,11.79A26,26,0,0,1,163,47.49,6.52,6.52,0,0,1,166.38,46a1.93,1.93,0,0,1,.63.1l-4.3-9.69a8.34,8.34,0,0,0-1,0Z" transform="translate(-0.45)"/><path class="cls-1" d="M161.75,36.72a10.88,10.88,0,0,0-3,.43l1.45,3.47a12.28,12.28,0,0,1,3.61-1l-1.28-2.88A6.77,6.77,0,0,0,161.75,36.72Z" transform="translate(-0.45)"/><path class="cls-1" d="M161.63,44.16l1.25,3a6.65,6.65,0,0,1,3.5-1.48h.08l-1.27-2.87A8,8,0,0,0,161.63,44.16Z" transform="translate(-0.45)"/><path class="cls-1" d="M160.16,40.62a15.57,15.57,0,0,0-3.56,2l1.54,3.93a31.87,31.87,0,0,1,3.49-2.36Z" transform="translate(-0.45)"/><rect class="cls-18" x="18.18" y="38.37" width="11.87" height="11.87" rx="2.83"/><polyline class="cls-20" points="206.4 44.59 179.19 44.59 179.19 68.72"/><text class="cls-21" transform="translate(207.52 92.75)">7</text><text class="cls-22" transform="translate(225.24 92.75)">275</text><text class="cls-21" transform="translate(200.25 127.89)">6</text><text class="cls-22" transform="translate(217.98 127.89)">260</text><text class="cls-21" transform="translate(200.25 150.57)">4</text><text class="cls-22" transform="translate(217.98 150.57)">175</text><text class="cls-21" transform="translate(137.08 150.57)">3</text><text class="cls-22" transform="translate(154.81 150.57)">135</text><text class="cls-21" transform="translate(78.25 138.23)">7</text><text class="cls-22" transform="translate(95.97 138.23)">275</text><text class="cls-21" transform="translate(137.08 127.89)">6</text><text class="cls-22" transform="translate(154.81 127.89)">255</text><text class="cls-21" transform="translate(10.74 190.67)">3</text><text class="cls-22" transform="translate(28.47 190.67)">105</text><text class="cls-21" transform="translate(10.74 92.75)">8</text><text class="cls-22" transform="translate(28.46 92.75)">325</text><text class="cls-21" transform="translate(10.74 13.67)">7</text><text class="cls-22" transform="translate(28.47 13.67)">275</text><text class="cls-21" transform="translate(58.51 13.67)">2</text><text class="cls-22" transform="translate(78.6 13.67)">95</text><text class="cls-21" transform="translate(106.29 13.67)">8</text><text class="cls-22" transform="translate(124.01 13.67)">330</text><text class="cls-21" transform="translate(154.06 13.67)">8</text><text class="cls-22" transform="translate(171.79 13.67)">315</text><text class="cls-21" transform="translate(137.08 67.42)">8</text><text class="cls-22" transform="translate(154.81 67.42)">295</text><text class="cls-21" transform="translate(201.84 13.67)">7</text><text class="cls-22" transform="translate(219.56 13.67)">290</text><text class="cls-21" transform="translate(266.75 13.67)">2</text><text class="cls-22" transform="translate(286.84 13.67)">70</text><text class="cls-21" transform="translate(34.61 31.99)">3</text><text class="cls-22" transform="translate(52.33 31.99)">100</text><text class="cls-21" transform="translate(79.16 190.67)">3</text><text class="cls-22" transform="translate(96.89 190.67)">120</text><text class="cls-21" transform="translate(137.08 190.67)">3</text><text class="cls-22" transform="translate(154.81 190.67)">125</text><text class="cls-21" transform="translate(22.78 150.57)">2</text><text class="cls-21" transform="translate(264.1 75.87)">1</text><text class="cls-21" transform="translate(149.47 46.42)">3</text><text class="cls-23" transform="translate(179.04 40.87) scale(0.96 1)">Zona de Boxes</text><text class="cls-24" transform="translate(150.45 100.79)">1</text><text class="cls-24" transform="translate(189.89 90.12)">2</text><text class="cls-24" transform="translate(195 72.46)">3</text><text class="cls-24" transform="translate(210.17 54.46)">4</text><text class="cls-24" transform="translate(253.73 55.46)">5</text><text class="cls-24" transform="translate(240.84 40.12)">6</text><text class="cls-24" transform="translate(279.06 40.12)">7</text><text class="cls-24" transform="translate(78.95 28.12)">8</text><text class="cls-24" transform="translate(99.34 40.12)">9</text><text class="cls-24" transform="translate(49.55 64.79)">10</text><g class="cls-25"><text class="cls-26" transform="translate(28.54 173.12)">1</text><text class="cls-24" transform="translate(31.7 173.12)">1</text></g><text class="cls-24" transform="translate(50.21 158.46)">12</text><text class="cls-24" transform="translate(58.38 180.46)">13</text><text class="cls-24" transform="translate(75.55 172.79)">14</text><text class="cls-24" transform="translate(61.05 125.46)">15</text><text class="cls-24" transform="translate(57.88 92.79)">16</text><text class="cls-24" transform="translate(74.72 86.79)">17</text><text class="cls-24" transform="translate(84.88 119.12)">18</text><text class="cls-24" transform="translate(104.72 112.12)">19</text><text class="cls-24" transform="translate(93.72 65.79)">20</text><text class="cls-24" transform="translate(118.17 39.12)">21</text></g></svg>