<?xml version="1.0" encoding="UTF-8"?>
<svg width="464px" height="300px" viewBox="0 0 464 300" version="1.1" xmlns="http://www.w3.org/2000/svg" xmlns:xlink="http://www.w3.org/1999/xlink">
    <!-- Generator: Sketch 63.1 (92452) - https://sketch.com -->
    <title>imola</title>
    <desc>Created with Sketch.</desc>
    <g id="imola" stroke="none" stroke-width="1" fill="none" fill-rule="evenodd">
        <g id="Group-2" transform="translate(26.000000, 29.000000)">
            <path d="M155.442789,191.879864 C166.279442,192.517314 199.426852,200.804166 208.351155,200.804166 C217.033818,200.804166 224.065549,201.528509 230.343187,200.804166 C255.203745,197.935641 268.271474,196.66074 293.362763,190.181285 C296.059021,189.485016 299.454425,186.412262 300.114288,184.621205 C300.937112,182.387825 300.022502,179.403558 301.067445,177.313671 C302.246534,174.955491 304.435088,172.656437 306.786384,171.277011 C312.378059,167.996562 319.455388,164.858095 324.89636,161.42169 C327.504264,159.774592 330.017355,156.222391 331.060319,153.314127 C347.634024,107.098987 350.625641,100.817527 360.784507,72.4694573 C361.745804,69.7869839 360.296299,66.7272326 359.83135,63.8910477 C359.237237,60.2669489 357.747547,56.6644565 357.607318,53.0886063 C357.535735,51.2632357 357.827436,48.8866172 359.195914,47.6873855 C380.143984,29.3300628 380.143984,29.3300628 397.313122,13.6894541 C399.177869,11.9907208 399.512676,9.54319112 399.696006,7.09879909 C399.830381,5.30693933 398.697536,3.3836214 397.551401,1.93586682 C396.685329,0.841871598 393.498698,-0.189155365 392.070763,0.0295560597 C365.163904,4.15077996 355.602151,6.70058076 326.802674,10.838031 C322.864339,11.4038282 310.916371,11.4934748 306.837211,11.1627322 C295.044382,10.2065569 285.274394,7.96324212 273.723496,6.71674331 C270.553418,6.37464929 266.237775,6.12125646 264.19193,8.30533614 C258.400711,14.4878541 255.393004,26.6792772 252.443375,35.0037871 C250.627222,40.1293776 252.067547,46.3484055 253.081833,51.8428851 C255.794687,66.5386748 262.617511,85.0621234 261.97796,89.6323162 C261.309058,94.4122525 255.409437,103.942484 251.497262,109.884884 C250.53215,111.350837 247.448526,112.534815 244.812634,111.433075 C242.176743,110.331338 238.539239,108.03733 235.925013,108.06001 C199.745578,108.373888 172.335219,110.604963 139.035847,111.882697 C137.681642,111.934659 137.72799,109.369406 136.811815,108.38779 C136.2453,107.78081 135.396743,106.901193 134.587783,107.116915 C122.687987,110.290194 114.008526,114.110939 100.279174,120.148421 C86.549823,126.185903 86.5981672,127.497394 75.8148209,136.66779 C62.5257606,147.969102 51.9962868,162.92556 38.0062743,174.800093 C31.7774501,180.087035 14.2691377,187.070464 3.05719829,192.592351 C0.938571998,193.635774 -0.558438361,196.858621 0.199738532,198.946729 C2.68524929,205.792119 6.06675686,212.572979 9.72929391,218.323554 C10.8881433,220.143073 15.5944329,221.368164 17.6752859,220.551612 C40.3830278,211.64082 62.0768713,201.696641 84.0483664,194.74839 C86.8589446,193.859574 106.764306,193.054273 116.877052,192.517314 C118.731719,192.418837 149.19324,191.512243 155.442789,191.879864 Z" id="track" fill="#D7D8D6"></path>
            <path d="M155.442789,191.879864 C166.279442,192.517314 199.426852,200.804166 208.351155,200.804166 C217.033818,200.804166 224.065549,201.528509 230.343187,200.804166 C255.203745,197.935641 268.271474,196.66074 293.362763,190.181285 C296.059021,189.485016 299.454425,186.412262 300.114288,184.621205 C300.937112,182.387825 300.022502,179.403558 301.067445,177.313671 C302.246534,174.955491 304.435088,172.656437 306.786384,171.277011 C312.378059,167.996562 319.455388,164.858095 324.89636,161.42169 C327.504264,159.774592 330.017355,156.222391 331.060319,153.314127 C347.634024,107.098987 350.625641,100.817527 360.784507,72.4694573 C361.745804,69.7869839 360.296299,66.7272326 359.83135,63.8910477 C359.237237,60.2669489 357.747547,56.6644565 357.607318,53.0886063 C357.535735,51.2632357 357.827436,48.8866172 359.195914,47.6873855 C380.143984,29.3300628 380.143984,29.3300628 397.313122,13.6894541 C399.177869,11.9907208 399.512676,9.54319112 399.696006,7.09879909 C399.830381,5.30693933 398.697536,3.3836214 397.551401,1.93586682 C396.685329,0.841871598 393.498698,-0.189155365 392.070763,0.0295560597 C365.163904,4.15077996 355.602151,6.70058076 326.802674,10.838031 C322.864339,11.4038282 310.916371,11.4934748 306.837211,11.1627322 C295.044382,10.2065569 285.274394,7.96324212 273.723496,6.71674331 C270.553418,6.37464929 266.237775,6.12125646 264.19193,8.30533614 C258.400711,14.4878541 255.393004,26.6792772 252.443375,35.0037871 C250.627222,40.1293776 252.067547,46.3484055 253.081833,51.8428851 C255.794687,66.5386748 262.617511,85.0621234 261.97796,89.6323162 C261.309058,94.4122525 255.409437,103.942484 251.497262,109.884884 C250.53215,111.350837 247.448526,112.534815 244.812634,111.433075 C242.176743,110.331338 238.539239,108.03733 235.925013,108.06001 C199.745578,108.373888 172.335219,110.604963 139.035847,111.882697 C137.681642,111.934659 137.72799,109.369406 136.811815,108.38779 C136.2453,107.78081 135.396743,106.901193 134.587783,107.116915 C122.687987,110.290194 114.008526,114.110939 100.279174,120.148421 C86.549823,126.185903 86.5981672,127.497394 75.8148209,136.66779 C62.5257606,147.969102 51.9962868,162.92556 38.0062743,174.800093 C31.7774501,180.087035 14.2691377,187.070464 3.05719829,192.592351 C0.938571998,193.635774 -0.558438361,196.858621 0.199738532,198.946729 C2.68524929,205.792119 6.06675686,212.572979 9.72929391,218.323554 C10.8881433,220.143073 15.5944329,221.368164 17.6752859,220.551612 C40.3830278,211.64082 62.0768713,201.696641 84.0483664,194.74839 C86.8589446,193.859574 106.764306,193.054273 116.877052,192.517314 C118.731719,192.418837 149.19324,191.512243 155.442789,191.879864 Z" id="track" stroke="#FFFFFF" stroke-width="14" stroke-linejoin="round"></path>
            <polyline id="Path" stroke="#0C0D15" stroke-width="4" points="63.1900853 205.824701 77.0705633 203.912351 117.548651 202.63745 146.552635 202 161.532715 204.549801 182.426283 207.583381 211.857143 202.823039"></polyline>
            <path d="M155.442789,191.879864 C166.279442,192.517314 199.426852,200.804166 208.351155,200.804166 C217.033818,200.804166 224.065549,201.528509 230.343187,200.804166 C255.203745,197.935641 268.271474,196.66074 293.362763,190.181285 C296.059021,189.485016 299.454425,186.412262 300.114288,184.621205 C300.937112,182.387825 300.022502,179.403558 301.067445,177.313671 C302.246534,174.955491 304.435088,172.656437 306.786384,171.277011 C312.378059,167.996562 319.455388,164.858095 324.89636,161.42169 C327.504264,159.774592 330.017355,156.222391 331.060319,153.314127 C347.634024,107.098987 350.625641,100.817527 360.784507,72.4694573 C361.745804,69.7869839 360.296299,66.7272326 359.83135,63.8910477 C359.237237,60.2669489 357.747547,56.6644565 357.607318,53.0886063 C357.535735,51.2632357 357.827436,48.8866172 359.195914,47.6873855 C380.143984,29.3300628 380.143984,29.3300628 397.313122,13.6894541 C399.177869,11.9907208 399.512676,9.54319112 399.696006,7.09879909 C399.830381,5.30693933 398.697536,3.3836214 397.551401,1.93586682 C396.685329,0.841871598 393.498698,-0.189155365 392.070763,0.0295560597 C365.163904,4.15077996 355.602151,6.70058076 326.802674,10.838031 C322.864339,11.4038282 310.916371,11.4934748 306.837211,11.1627322 C295.044382,10.2065569 285.274394,7.96324212 273.723496,6.71674331 C270.553418,6.37464929 266.237775,6.12125646 264.19193,8.30533614 C258.400711,14.4878541 255.393004,26.6792772 252.443375,35.0037871 C250.627222,40.1293776 252.067547,46.3484055 253.081833,51.8428851 C255.794687,66.5386748 262.617511,85.0621234 261.97796,89.6323162 C261.309058,94.4122525 255.409437,103.942484 251.497262,109.884884 C250.53215,111.350837 247.448526,112.534815 244.812634,111.433075 C242.176743,110.331338 238.539239,108.03733 235.925013,108.06001 C199.745578,108.373888 172.335219,110.604963 139.035847,111.882697 C137.681642,111.934659 137.72799,109.369406 136.811815,108.38779 C136.2453,107.78081 135.396743,106.901193 134.587783,107.116915 C122.687987,110.290194 114.008526,114.110939 100.279174,120.148421 C86.549823,126.185903 86.5981672,127.497394 75.8148209,136.66779 C62.5257606,147.969102 51.9962868,162.92556 38.0062743,174.800093 C31.7774501,180.087035 14.2691377,187.070464 3.05719829,192.592351 C0.938571998,193.635774 -0.558438361,196.858621 0.199738532,198.946729 C2.68524929,205.792119 6.06675686,212.572979 9.72929391,218.323554 C10.8881433,220.143073 15.5944329,221.368164 17.6752859,220.551612 C40.3830278,211.64082 62.0768713,201.696641 84.0483664,194.74839 C86.8589446,193.859574 106.764306,193.054273 116.877052,192.517314 C118.731719,192.418837 149.19324,191.512243 155.442789,191.879864 Z" id="track" stroke="#0C0D15" stroke-width="10" stroke-linejoin="round"></path>
            <path d="M155.442789,191.879864 C166.279442,192.517314 199.426852,200.804166 208.351155,200.804166 C217.033818,200.804166 224.065549,201.528509 230.343187,200.804166 C255.203745,197.935641 268.271474,196.66074 293.362763,190.181285 C296.059021,189.485016 299.454425,186.412262 300.114288,184.621205 C300.937112,182.387825 300.022502,179.403558 301.067445,177.313671 C302.246534,174.955491 304.435088,172.656437 306.786384,171.277011 C312.378059,167.996562 319.455388,164.858095 324.89636,161.42169 C327.504264,159.774592 330.017355,156.222391 331.060319,153.314127 C347.634024,107.098987 350.625641,100.817527 360.784507,72.4694573 C361.745804,69.7869839 360.296299,66.7272326 359.83135,63.8910477 C359.237237,60.2669489 357.747547,56.6644565 357.607318,53.0886063 C357.535735,51.2632357 357.827436,48.8866172 359.195914,47.6873855 C380.143984,29.3300628 380.143984,29.3300628 397.313122,13.6894541 C399.177869,11.9907208 399.512676,9.54319112 399.696006,7.09879909 C399.830381,5.30693933 398.697536,3.3836214 397.551401,1.93586682 C396.685329,0.841871598 393.498698,-0.189155365 392.070763,0.0295560597 C365.163904,4.15077996 355.602151,6.70058076 326.802674,10.838031 C322.864339,11.4038282 310.916371,11.4934748 306.837211,11.1627322 C295.044382,10.2065569 285.274394,7.96324212 273.723496,6.71674331 C270.553418,6.37464929 266.237775,6.12125646 264.19193,8.30533614 C258.400711,14.4878541 255.393004,26.6792772 252.443375,35.0037871 C250.627222,40.1293776 252.067547,46.3484055 253.081833,51.8428851 C255.794687,66.5386748 262.617511,85.0621234 261.97796,89.6323162 C261.309058,94.4122525 255.409437,103.942484 251.497262,109.884884 C250.53215,111.350837 247.448526,112.534815 244.812634,111.433075 C242.176743,110.331338 238.539239,108.03733 235.925013,108.06001 C199.745578,108.373888 172.335219,110.604963 139.035847,111.882697 C137.681642,111.934659 137.72799,109.369406 136.811815,108.38779 C136.2453,107.78081 135.396743,106.901193 134.587783,107.116915 C122.687987,110.290194 114.008526,114.110939 100.279174,120.148421 C86.549823,126.185903 86.5981672,127.497394 75.8148209,136.66779 C62.5257606,147.969102 51.9962868,162.92556 38.0062743,174.800093 C31.7774501,180.087035 14.2691377,187.070464 3.05719829,192.592351 C0.938571998,193.635774 -0.558438361,196.858621 0.199738532,198.946729 C2.68524929,205.792119 6.06675686,212.572979 9.72929391,218.323554 C10.8881433,220.143073 15.5944329,221.368164 17.6752859,220.551612 C40.3830278,211.64082 62.0768713,201.696641 84.0483664,194.74839 C86.8589446,193.859574 106.764306,193.054273 116.877052,192.517314 C118.731719,192.418837 149.19324,191.512243 155.442789,191.879864 Z" id="track" stroke="#848993" stroke-width="6" stroke-linejoin="round"></path>
        </g>
        <g id="Group-3" transform="translate(169.000000, 216.000000)" fill-rule="nonzero">
            <g id="bandera_cuadros" transform="translate(0.000000, 39.125984)">
                <path d="M17.4976953,17.9956785 L0.501314134,17.9956785 C0.224841887,17.9956785 0,17.7725021 0,17.4960298 L0,0.499648638 C0,0.223176392 0.224841887,0 0.501314134,0 L17.4976953,0 C17.7741676,0 17.997344,0.223176392 17.997344,0.499648638 L17.997344,17.4960298 C17.9956785,17.7725021 17.7741676,17.9956785 17.4976953,17.9956785 Z M0.999297279,16.9963812 L16.9947157,16.9963812 L16.9947157,1.00096277 L0.999297279,1.00096277 L0.999297279,16.9963812 Z" id="Shape" fill="#222222"></path>
                <g id="Group-2" transform="translate(0.818061, 13.088977)">
                    <rect id="Rectangle" fill="#222222" x="4.09030544" y="0" width="4.09030544" height="4.09030544"></rect>
                    <rect id="Rectangle" fill="#FFFFFF" x="0" y="0" width="4.09030544" height="4.09030544"></rect>
                    <rect id="Rectangle" fill="#222222" x="12.2709163" y="0" width="4.09030544" height="4.09030544"></rect>
                    <rect id="Rectangle" fill="#FFFFFF" x="8.18061089" y="0" width="4.09030544" height="4.09030544"></rect>
                </g>
                <g id="Group" transform="translate(0.818061, 0.818061)">
                    <rect id="Rectangle" fill="#222222" x="0" y="0" width="4.09030544" height="4.09030544"></rect>
                    <rect id="Rectangle" fill="#FFFFFF" x="4.09030544" y="0" width="4.09030544" height="4.09030544"></rect>
                    <rect id="Rectangle" fill="#222222" x="8.18061089" y="0" width="4.09030544" height="4.09030544"></rect>
                    <rect id="Rectangle" fill="#FFFFFF" x="12.2709163" y="0" width="4.09030544" height="4.09030544"></rect>
                </g>
                <g id="Group-2" transform="translate(0.818061, 4.908367)">
                    <rect id="Rectangle" fill="#222222" x="4.09030544" y="0" width="4.09030544" height="4.09030544"></rect>
                    <rect id="Rectangle" fill="#FFFFFF" x="0" y="0" width="4.09030544" height="4.09030544"></rect>
                    <rect id="Rectangle" fill="#222222" x="12.2709163" y="0" width="4.09030544" height="4.09030544"></rect>
                    <rect id="Rectangle" fill="#FFFFFF" x="8.18061089" y="0" width="4.09030544" height="4.09030544"></rect>
                </g>
                <g id="Group" transform="translate(0.818061, 8.998672)">
                    <rect id="Rectangle" fill="#222222" x="0" y="0" width="4.09030544" height="4.09030544"></rect>
                    <rect id="Rectangle" fill="#FFFFFF" x="4.09030544" y="0" width="4.09030544" height="4.09030544"></rect>
                    <rect id="Rectangle" fill="#222222" x="8.18061089" y="0" width="4.09030544" height="4.09030544"></rect>
                    <rect id="Rectangle" fill="#FFFFFF" x="12.2709163" y="0" width="4.09030544" height="4.09030544"></rect>
                </g>
            </g>
            <path d="M9.00128,40 C8.445582,40 8,39.8151197 8,39.5845503 L8,0.415449715 C8,0.185942451 8.445582,0 9.00128,0 C9.554416,0 10,0.185942451 10,0.415449715 L10,39.5845503 C9.997438,39.8151197 9.551856,40 9.00128,40 Z" id="Shape" fill="#424242"></path>
        </g>
        <g id="curva" transform="translate(232.000000, 235.000000)">
            <g id="Group-6" transform="translate(1.000000, 2.000000)">
                <rect id="Rectangle" stroke="#FFFFFF" stroke-width="2" fill="#EA1A4D" fill-rule="nonzero" x="0" y="-1" width="22" height="22" rx="4.58"></rect>
                <text id="1" fill="#FFFFFF" font-family="Helvetica-Bold, Helvetica" font-size="13" font-weight="bold">
                    <tspan x="7.306" y="14.78">1</tspan>
                </text>
            </g>
        </g>
        <g id="curva" transform="translate(322.000000, 220.000000)">
            <g id="Group-6" transform="translate(1.000000, 2.000000)">
                <rect id="Rectangle" stroke="#FFFFFF" stroke-width="2" fill="#EA1A4D" fill-rule="nonzero" x="0" y="-1" width="22" height="22" rx="4.58"></rect>
                <text id="1" fill="#FFFFFF" font-family="Helvetica-Bold, Helvetica" font-size="13" font-weight="bold">
                    <tspan x="7.306" y="14.78">2</tspan>
                </text>
            </g>
        </g>
        <g id="curva" transform="translate(304.000000, 174.000000)">
            <g id="Group-6" transform="translate(1.000000, 2.000000)">
                <rect id="Rectangle" stroke="#FFFFFF" stroke-width="2" fill="#EA1A4D" fill-rule="nonzero" x="0" y="-1" width="22" height="22" rx="4.58"></rect>
                <text id="1" fill="#FFFFFF" font-family="Helvetica-Bold, Helvetica" font-size="13" font-weight="bold">
                    <tspan x="7.306" y="14.78">3</tspan>
                </text>
            </g>
        </g>
        <g id="curva" transform="translate(358.000000, 187.000000)">
            <g id="Group-6" transform="translate(1.000000, 2.000000)">
                <rect id="Rectangle" stroke="#FFFFFF" stroke-width="2" fill="#EA1A4D" fill-rule="nonzero" x="0" y="-1" width="22" height="22" rx="4.58"></rect>
                <text id="1" fill="#FFFFFF" font-family="Helvetica-Bold, Helvetica" font-size="13" font-weight="bold">
                    <tspan x="7.306" y="14.78">4</tspan>
                </text>
            </g>
        </g>
        <g id="curva" transform="translate(392.000000, 92.000000)">
            <g id="Group-6" transform="translate(1.000000, 2.000000)">
                <rect id="Rectangle" stroke="#FFFFFF" stroke-width="2" fill="#EA1A4D" fill-rule="nonzero" x="0" y="-1" width="22" height="22" rx="4.58"></rect>
                <text id="1" fill="#FFFFFF" font-family="Helvetica-Bold, Helvetica" font-size="13" font-weight="bold">
                    <tspan x="7.306" y="14.78">5</tspan>
                </text>
            </g>
        </g>
        <g id="curva" transform="translate(351.000000, 61.000000)">
            <g id="Group-6" transform="translate(1.000000, 2.000000)">
                <rect id="Rectangle" stroke="#FFFFFF" stroke-width="2" fill="#EA1A4D" fill-rule="nonzero" x="0" y="-1" width="22" height="22" rx="4.58"></rect>
                <text id="1" fill="#FFFFFF" font-family="Helvetica-Bold, Helvetica" font-size="13" font-weight="bold">
                    <tspan x="7.306" y="14.78">6</tspan>
                </text>
            </g>
        </g>
        <g id="curva" transform="translate(433.000000, 21.000000)">
            <g id="Group-6" transform="translate(1.000000, 2.000000)">
                <rect id="Rectangle" stroke="#FFFFFF" stroke-width="2" fill="#EA1A4D" fill-rule="nonzero" x="0" y="-1" width="22" height="22" rx="4.58"></rect>
                <text id="1" fill="#FFFFFF" font-family="Helvetica-Bold, Helvetica" font-size="13" font-weight="bold">
                    <tspan x="7.306" y="14.78">7</tspan>
                </text>
            </g>
        </g>
        <g id="curva" transform="translate(278.000000, 6.000000)">
            <g id="Group-6" transform="translate(1.000000, 2.000000)">
                <rect id="Rectangle" stroke="#FFFFFF" stroke-width="2" fill="#EA1A4D" fill-rule="nonzero" x="0" y="-1" width="22" height="22" rx="4.58"></rect>
                <text id="1" fill="#FFFFFF" font-family="Helvetica-Bold, Helvetica" font-size="13" font-weight="bold">
                    <tspan x="7.306" y="14.78">9</tspan>
                </text>
            </g>
        </g>
        <g id="curva" transform="translate(247.000000, 54.000000)">
            <g id="Group-6" transform="translate(1.000000, 2.000000)">
                <rect id="Rectangle" stroke="#FFFFFF" stroke-width="2" fill="#EA1A4D" fill-rule="nonzero" x="0" y="-1" width="22" height="22" rx="4.58"></rect>
                <text id="1" fill="#FFFFFF" font-family="Helvetica-Bold, Helvetica" font-size="13" font-weight="bold">
                    <tspan x="3.692" y="14.78">10</tspan>
                </text>
            </g>
        </g>
        <g id="curva" transform="translate(297.000000, 106.000000)">
            <g id="Group-6" transform="translate(1.000000, 2.000000)">
                <rect id="Rectangle" stroke="#FFFFFF" stroke-width="2" fill="#EA1A4D" fill-rule="nonzero" x="0" y="-1" width="22" height="22" rx="4.58"></rect>
                <text id="1" fill="#FFFFFF" font-family="Helvetica-Bold, Helvetica" font-size="13" font-weight="bold">
                    <tspan x="3.692" y="14.78">11</tspan>
                </text>
            </g>
        </g>
        <g id="curva" transform="translate(265.000000, 149.000000)">
            <g id="Group-6" transform="translate(1.000000, 2.000000)">
                <rect id="Rectangle" stroke="#FFFFFF" stroke-width="2" fill="#EA1A4D" fill-rule="nonzero" x="0" y="-1" width="22" height="22" rx="4.58"></rect>
                <text id="1" fill="#FFFFFF" font-family="Helvetica-Bold, Helvetica" font-size="13" font-weight="bold">
                    <tspan x="3.692" y="14.78">12</tspan>
                </text>
            </g>
        </g>
        <g id="curva" transform="translate(248.000000, 107.000000)">
            <g id="Group-6" transform="translate(1.000000, 2.000000)">
                <rect id="Rectangle" stroke="#FFFFFF" stroke-width="2" fill="#EA1A4D" fill-rule="nonzero" x="0" y="-1" width="22" height="22" rx="4.58"></rect>
                <text id="1" fill="#FFFFFF" font-family="Helvetica-Bold, Helvetica" font-size="13" font-weight="bold">
                    <tspan x="3.692" y="14.78">13</tspan>
                </text>
            </g>
        </g>
        <g id="curva" transform="translate(157.000000, 149.000000)">
            <g id="Group-6" transform="translate(1.000000, 2.000000)">
                <rect id="Rectangle" stroke="#FFFFFF" stroke-width="2" fill="#EA1A4D" fill-rule="nonzero" x="0" y="-1" width="22" height="22" rx="4.58"></rect>
                <text id="1" fill="#FFFFFF" font-family="Helvetica-Bold, Helvetica" font-size="13" font-weight="bold">
                    <tspan x="3.692" y="14.78">14</tspan>
                </text>
            </g>
        </g>
        <g id="curva" transform="translate(149.000000, 106.000000)">
            <g id="Group-6" transform="translate(1.000000, 2.000000)">
                <rect id="Rectangle" stroke="#FFFFFF" stroke-width="2" fill="#EA1A4D" fill-rule="nonzero" x="0" y="-1" width="22" height="22" rx="4.58"></rect>
                <text id="1" fill="#FFFFFF" font-family="Helvetica-Bold, Helvetica" font-size="13" font-weight="bold">
                    <tspan x="3.692" y="14.78">15</tspan>
                </text>
            </g>
        </g>
        <g id="curva" transform="translate(42.000000, 175.000000)">
            <g id="Group-6" transform="translate(1.000000, 2.000000)">
                <rect id="Rectangle" stroke="#FFFFFF" stroke-width="2" fill="#EA1A4D" fill-rule="nonzero" x="0" y="-1" width="22" height="22" rx="4.58"></rect>
                <text id="1" fill="#FFFFFF" font-family="Helvetica-Bold, Helvetica" font-size="13" font-weight="bold">
                    <tspan x="3.692" y="14.78">17</tspan>
                </text>
            </g>
        </g>
        <g id="curva" transform="translate(84.000000, 132.000000)">
            <g id="Group-6" transform="translate(1.000000, 2.000000)">
                <rect id="Rectangle" stroke="#FFFFFF" stroke-width="2" fill="#EA1A4D" fill-rule="nonzero" x="0" y="-1" width="22" height="22" rx="4.58"></rect>
                <text id="1" fill="#FFFFFF" font-family="Helvetica-Bold, Helvetica" font-size="13" font-weight="bold">
                    <tspan x="3.692" y="14.78">16</tspan>
                </text>
            </g>
        </g>
        <g id="curva" transform="translate(1.000000, 197.000000)">
            <g id="Group-6" transform="translate(1.000000, 2.000000)">
                <rect id="Rectangle" stroke="#FFFFFF" stroke-width="2" fill="#EA1A4D" fill-rule="nonzero" x="0" y="-1" width="22" height="22" rx="4.58"></rect>
                <text id="1" fill="#FFFFFF" font-family="Helvetica-Bold, Helvetica" font-size="13" font-weight="bold">
                    <tspan x="3.692" y="14.78">18</tspan>
                </text>
            </g>
        </g>
        <g id="curva" transform="translate(28.000000, 255.000000)">
            <g id="Group-6" transform="translate(1.000000, 2.000000)">
                <rect id="Rectangle" stroke="#FFFFFF" stroke-width="2" fill="#EA1A4D" fill-rule="nonzero" x="0" y="-1" width="22" height="22" rx="4.58"></rect>
                <text id="1" fill="#FFFFFF" font-family="Helvetica-Bold, Helvetica" font-size="13" font-weight="bold">
                    <tspan x="3.692" y="14.78">19</tspan>
                </text>
            </g>
        </g>
        <g id="curva" transform="translate(99.000000, 191.000000)">
            <g id="Group-6" transform="translate(1.000000, 2.000000)">
                <rect id="Rectangle" stroke="#FFFFFF" stroke-width="2" fill="#EA1A4D" fill-rule="nonzero" x="0" y="-1" width="22" height="22" rx="4.58"></rect>
                <text id="1" fill="#FFFFFF" font-family="Helvetica-Bold, Helvetica" font-size="13" font-weight="bold">
                    <tspan x="3.692" y="14.78">20</tspan>
                </text>
            </g>
        </g>
        <g id="curva" transform="translate(176.000000, 189.000000)">
            <g id="Group-6" transform="translate(1.000000, 2.000000)">
                <rect id="Rectangle" stroke="#FFFFFF" stroke-width="2" fill="#EA1A4D" fill-rule="nonzero" x="0" y="-1" width="22" height="22" rx="4.58"></rect>
                <text id="1" fill="#FFFFFF" font-family="Helvetica-Bold, Helvetica" font-size="13" font-weight="bold">
                    <tspan x="3.692" y="14.78">21</tspan>
                </text>
            </g>
        </g>
        <g id="curva" transform="translate(335.000000, 9.000000)">
            <g id="Group-6" transform="translate(1.000000, 2.000000)">
                <rect id="Rectangle" stroke="#FFFFFF" stroke-width="2" fill="#EA1A4D" fill-rule="nonzero" x="0" y="-1" width="22" height="22" rx="4.58"></rect>
                <text id="1" fill="#FFFFFF" font-family="Helvetica-Bold, Helvetica" font-size="13" font-weight="bold">
                    <tspan x="7.306" y="14.78">8</tspan>
                </text>
            </g>
        </g>
    </g>
</svg>