<svg id="Capa_1" data-name="Capa 1" xmlns="http://www.w3.org/2000/svg" width="297.61" height="206.65"><defs><style>.cls-10,.cls-11,.cls-16,.cls-5,.cls-6,.cls-9{fill:none}.cls-11,.cls-6{stroke:#fff}.cls-10,.cls-11,.cls-16{stroke-linecap:round}.cls-10,.cls-11,.cls-16,.cls-5{stroke-linejoin:round}.cls-5{stroke-width:2.8px;stroke:#fff100}.cls-6{stroke-width:1.3px}.cls-7{fill:#ea1a4d}.cls-20,.cls-8{fill:#231f20}.cls-10,.cls-16,.cls-9{stroke:#231f20}.cls-10{stroke-width:1.5px}.cls-11,.cls-14,.cls-16{stroke-width:.5px}.cls-12,.cls-14,.cls-21,.cls-22{fill:#fff}.cls-13{fill:#007dc4}.cls-14{stroke:#007dc4}.cls-15{fill:#ffca05}.cls-20,.cls-21,.cls-22{isolation:isolate}.cls-20,.cls-21{font-size:8.5px}.cls-20,.cls-21,.cls-22{font-family:Helvetica-Bold,Helvetica;font-weight:700}.cls-22{font-size:7.5px;letter-spacing:-.08em}</style></defs><g id="shakir"><path d="M180.21 37.29q-3.88 7.76-6.12 13.22l-4.55 11.84a24.52 24.52 0 00-1.45 6.14 14.31 14.31 0 001.21 8.13 12.7 12.7 0 004 4.28c1 .71 3.18 2.06 6.63 4.07a57.34 57.34 0 009.52 4.38l11 3.84a27.32 27.32 0 0110.91 8 32.77 32.77 0 014.84 6.85s3.61 6.87 2 14.37c-1.49 7.07-6.25 8.3-8.43 8.3H108.39l-11.87-.87q-12-1.29-12.86-3.3c-.49-1.23-.07-2.9 1.24-5a49.25 49.25 0 014.77-6 14.17 14.17 0 015.88-4.13 14.79 14.79 0 015.48-.8l5.36.52 39 5.18 4.42.46a9.45 9.45 0 005.23-1.19 4.37 4.37 0 002.14-3.1 3.22 3.22 0 00-1.38-3.34l-23.78-16.68a58 58 0 01-4.9-3.63 20.77 20.77 0 01-5.29-6.35 6.85 6.85 0 01-.15-4.49c.14-.65.73-2.58 1.75-5.79a33.44 33.44 0 001.5-6.4 11.88 11.88 0 00-.93-6.31 12.91 12.91 0 00-3.67-4.77 19.37 19.37 0 00-4.53-2.37 46.24 46.24 0 01-5.48-2.56 29.08 29.08 0 01-6.49-5.25q-2-2.17-9.56-10.56l-7.14-8a30.17 30.17 0 00-5-4.51c-1.14-.8-3.08-2-5.83-3.54a4.9 4.9 0 00-3.47-.78c-1.14.28-1.87 1.22-2.17 2.82q-.81 4.25-7.57 49.11l-6.64 44a23.94 23.94 0 00-.46 6.09 11.23 11.23 0 00.52 2.69l5.08 16.57a7.35 7.35 0 01-.54 5.57 17.54 17.54 0 01-2 2.69c-.21.27-2.27 2-6.18 5q-6.42 5.1-6.89 5.51c-.47.41-3.47 2.74-2.06 5.27a6.14 6.14 0 006 3h194.07l1.27-.09a15.57 15.57 0 0011.13-6.63c1.95-2.86 3-4.53 3.25-5a5.42 5.42 0 00.11-4.27L201.53 35.01s-3-6.32-9.82-6.32c-7.79 0-11.5 8.6-11.5 8.6z" stroke-width="8" stroke-linejoin="round" stroke-linecap="round" stroke="#fff" fill="none"/><path d="M180.21 37.29q-3.88 7.76-6.12 13.22l-4.55 11.84a24.52 24.52 0 00-1.45 6.14 14.31 14.31 0 001.21 8.13 12.7 12.7 0 004 4.28c1 .71 3.18 2.06 6.63 4.07a57.34 57.34 0 009.52 4.38l11 3.84a27.32 27.32 0 0110.91 8 32.77 32.77 0 014.84 6.85s3.61 6.87 2 14.37c-1.49 7.07-6.25 8.3-8.43 8.3H108.39l-11.87-.87q-12-1.29-12.86-3.3c-.49-1.23-.07-2.9 1.24-5a49.25 49.25 0 014.77-6 14.17 14.17 0 015.88-4.13 14.79 14.79 0 015.48-.8l5.36.52 39 5.18 4.42.46a9.45 9.45 0 005.23-1.19 4.37 4.37 0 002.14-3.1 3.22 3.22 0 00-1.38-3.34l-23.78-16.68a58 58 0 01-4.9-3.63 20.77 20.77 0 01-5.29-6.35 6.85 6.85 0 01-.15-4.49c.14-.65.73-2.58 1.75-5.79a33.44 33.44 0 001.5-6.4 11.88 11.88 0 00-.93-6.31 12.91 12.91 0 00-3.67-4.77 19.37 19.37 0 00-4.53-2.37 46.24 46.24 0 01-5.48-2.56 29.08 29.08 0 01-6.49-5.25q-2-2.17-9.56-10.56l-7.14-8a30.17 30.17 0 00-5-4.51c-1.14-.8-3.08-2-5.83-3.54a4.9 4.9 0 00-3.47-.78c-1.14.28-1.87 1.22-2.17 2.82q-.81 4.25-7.57 49.11l-6.64 44a23.94 23.94 0 00-.46 6.09 11.23 11.23 0 00.52 2.69l5.08 16.57a7.35 7.35 0 01-.54 5.57 17.54 17.54 0 01-2 2.69c-.21.27-2.27 2-6.18 5q-6.42 5.1-6.89 5.51c-.47.41-3.47 2.74-2.06 5.27a6.14 6.14 0 006 3h194.07l1.27-.09a15.57 15.57 0 0011.13-6.63c1.95-2.86 3-4.53 3.25-5a5.42 5.42 0 00.11-4.27L201.53 35.01s-3-6.32-9.82-6.32c-7.79 0-11.5 8.6-11.5 8.6z" stroke-width="5.4" stroke="#00071b" stroke-linejoin="round" stroke-linecap="round" fill="none"/><path stroke-width="2.8" stroke="#00071b" stroke-linejoin="round" stroke-linecap="round" fill="none" d="M56.24 164.66l14.71-4.67h12.29l6.25-1.24 111.93.18 6.5 1.23h9.97l11.73 4.69"/><path d="M180.21 37.29q-3.88 7.76-6.12 13.22l-4.55 11.84a24.52 24.52 0 00-1.45 6.14 14.31 14.31 0 001.21 8.13 12.7 12.7 0 004 4.28c1 .71 3.18 2.06 6.63 4.07a57.34 57.34 0 009.52 4.38l11 3.84a27.32 27.32 0 0110.91 8 32.77 32.77 0 014.84 6.85s3.61 6.87 2 14.37c-1.49 7.07-6.25 8.3-8.43 8.3H108.39l-11.87-.87q-12-1.29-12.86-3.3c-.49-1.23-.07-2.9 1.24-5a49.25 49.25 0 014.77-6 14.17 14.17 0 015.88-4.13 14.79 14.79 0 015.48-.8l5.36.52 39 5.18 4.42.46a9.45 9.45 0 005.23-1.19 4.37 4.37 0 002.14-3.1 3.22 3.22 0 00-1.38-3.34l-23.78-16.68a58 58 0 01-4.9-3.63 20.77 20.77 0 01-5.29-6.35 6.85 6.85 0 01-.15-4.49c.14-.65.73-2.58 1.75-5.79a33.44 33.44 0 001.5-6.4 11.88 11.88 0 00-.93-6.31 12.91 12.91 0 00-3.67-4.77 19.37 19.37 0 00-4.53-2.37 46.24 46.24 0 01-5.48-2.56 29.08 29.08 0 01-6.49-5.25q-2-2.17-9.56-10.56l-7.14-8a30.17 30.17 0 00-5-4.51c-1.14-.8-3.08-2-5.83-3.54a4.9 4.9 0 00-3.47-.78c-1.14.28-1.87 1.22-2.17 2.82q-.81 4.25-7.57 49.11l-6.64 44a23.94 23.94 0 00-.46 6.09 11.23 11.23 0 00.52 2.69l5.08 16.57a7.35 7.35 0 01-.54 5.57 17.54 17.54 0 01-2 2.69c-.21.27-2.27 2-6.18 5q-6.42 5.1-6.89 5.51c-.47.41-3.47 2.74-2.06 5.27a6.14 6.14 0 006 3h194.07l1.27-.09a15.57 15.57 0 0011.13-6.63c1.95-2.86 3-4.53 3.25-5a5.42 5.42 0 00.11-4.27L201.53 35.01s-3-6.32-9.82-6.32c-7.79 0-11.5 8.6-11.5 8.6z" stroke="#8c92a1" stroke-width="2.8" stroke-linejoin="round" stroke-linecap="round" fill="none"/><path class="cls-5" d="M75.2 24.68q-1.41 8.58-7.2 47.05l-6.64 44M197.73 133.32H113.3l-11.87-.87-1-.11" transform="translate(-4.91 -2.65)"/><path class="cls-5" d="M75.5 165.49h134.65"/><rect class="cls-6" x="29.1" y="160.32" width="9.61" height="9.61" rx="2.29"/><rect class="cls-7" x="29.1" y="160.32" width="9.61" height="9.61" rx="2.29"/><rect class="cls-6" x="44.71" y="128.04" width="9.61" height="9.61" rx="2.29"/><rect class="cls-7" x="44.71" y="128.04" width="9.61" height="9.61" rx="2.29"/><rect class="cls-6" x="61" y="112.66" width="9.61" height="9.61" rx="2.29"/><rect class="cls-7" x="61" y="112.66" width="9.61" height="9.61" rx="2.29"/><rect class="cls-6" x="73.5" y="26.32" width="9.61" height="9.61" rx="2.29"/><rect class="cls-7" x="73.5" y="26.32" width="9.61" height="9.61" rx="2.29"/><rect class="cls-6" x="89.43" y="44.32" width="9.61" height="9.61" rx="2.29"/><rect class="cls-7" x="89.43" y="44.32" width="9.61" height="9.61" rx="2.29"/><rect class="cls-6" x="129.5" y="54.66" width="9.61" height="9.61" rx="2.29"/><rect class="cls-7" x="129.5" y="54.66" width="9.61" height="9.61" rx="2.29"/><rect class="cls-6" x="113.33" y="89.99" width="9.61" height="9.61" rx="2.29"/><rect class="cls-7" x="113.33" y="89.99" width="9.61" height="9.61" rx="2.29"/><rect class="cls-6" x="157.76" y="96.32" width="9.61" height="9.61" rx="2.29"/><rect class="cls-7" x="157.76" y="96.32" width="9.61" height="9.61" rx="2.29"/><rect class="cls-6" x="95.56" y="115.72" width="9.61" height="9.61" rx="2.29"/><rect class="cls-7" x="95.56" y="115.72" width="9.61" height="9.61" rx="2.29"/><rect class="cls-6" x="73.83" y="130.99" width="9.61" height="9.61" rx="2.29"/><rect class="cls-7" x="73.83" y="130.99" width="9.61" height="9.61" rx="2.29"/><rect class="cls-6" x="222.6" y="123.9" width="9.61" height="9.61" rx="2.29"/><rect class="cls-7" x="222.6" y="123.9" width="9.61" height="9.61" rx="2.29"/><rect class="cls-6" x="173.16" y="64.31" width="9.61" height="9.61" rx="2.29"/><rect class="cls-7" x="173.16" y="64.31" width="9.61" height="9.61" rx="2.29"/><rect class="cls-6" x="186.89" y="34.15" width="9.61" height="9.61" rx="2.29"/><rect class="cls-7" x="186.89" y="34.15" width="9.61" height="9.61" rx="2.29"/><rect class="cls-6" x="264.88" y="146.32" width="9.61" height="9.61" rx="2.29"/><rect class="cls-7" x="264.88" y="146.32" width="9.61" height="9.61" rx="2.29"/><rect class="cls-6" x="240" y="151.07" width="9.61" height="9.61" rx="2.29"/><rect class="cls-7" x="240" y="151.07" width="9.61" height="9.61" rx="2.29"/><path class="cls-8" d="M12.77 161.5l-.63 2.4h8.6l-.63-2.4h-7.34zM13.44 155.68l-1.3 4.92h8.6l-1.3-4.92h-6z"/><path class="cls-9" d="M80.41 166.87A1.42 1.42 0 1179 168.3a1.42 1.42 0 011.41-1.43z" transform="translate(-4.91 -2.65)"/><path class="cls-10" d="M75.5 165.64v12.72"/><path class="cls-11" d="M75.5 165.64v12.72"/><path class="cls-12" d="M80.41 166.87A1.42 1.42 0 1179 168.3a1.42 1.42 0 011.41-1.43z" transform="translate(-4.91 -2.65)"/><path class="cls-9" d="M54.82 166.87a1.42 1.42 0 11-1.42 1.42 1.41 1.41 0 011.4-1.42z" transform="translate(-4.91 -2.65)"/><path class="cls-10" d="M49.9 165.64v12.72H35.82"/><path class="cls-11" d="M49.9 165.64v12.72H35.82"/><path class="cls-12" d="M54.82 166.87a1.42 1.42 0 11-1.42 1.42 1.41 1.41 0 011.4-1.42z" transform="translate(-4.91 -2.65)"/><path class="cls-9" d="M60.44 169.56a1.42 1.42 0 10-1.44-1.42 1.43 1.43 0 001.44 1.42z" transform="translate(-4.91 -2.65)"/><path class="cls-10" d="M55.53 165.49v-8.51H16.22"/><path class="cls-11" d="M55.53 165.49v-8.51H16.22"/><path class="cls-12" d="M60.44 169.56a1.42 1.42 0 10-1.44-1.42 1.43 1.43 0 001.44 1.42z" transform="translate(-4.91 -2.65)"/><path class="cls-9" d="M144.27 132a1.42 1.42 0 11-1.41 1.43 1.43 1.43 0 011.41-1.43z" transform="translate(-4.91 -2.65)"/><path class="cls-10" d="M139.36 129.9v16.89"/><path class="cls-11" d="M139.36 129.9v16.89"/><path class="cls-12" d="M144.27 132a1.42 1.42 0 11-1.41 1.43 1.43 1.43 0 011.41-1.43z" transform="translate(-4.91 -2.65)"/><path class="cls-9" d="M197.74 132a1.42 1.42 0 11-1.42 1.42 1.43 1.43 0 011.42-1.42z" transform="translate(-4.91 -2.65)"/><path class="cls-10" d="M192.83 129.9v16.89"/><path class="cls-11" d="M192.83 129.9v16.89"/><path class="cls-12" d="M197.74 132a1.42 1.42 0 11-1.42 1.42 1.43 1.43 0 011.42-1.42z" transform="translate(-4.91 -2.65)"/><path class="cls-9" d="M105.11 44.48a1.42 1.42 0 10-1.41-1.43 1.42 1.42 0 001.41 1.43z" transform="translate(-4.91 -2.65)"/><path class="cls-10" d="M100.2 40.42V12.96"/><path class="cls-11" d="M100.2 40.42V12.96"/><path class="cls-12" d="M105.11 44.48a1.42 1.42 0 10-1.41-1.43 1.42 1.42 0 001.41 1.43z" transform="translate(-4.91 -2.65)"/><path class="cls-9" d="M110.79 50.6a1.42 1.42 0 10-1.42-1.42 1.43 1.43 0 001.42 1.42z" transform="translate(-4.91 -2.65)"/><path class="cls-10" d="M105.88 46.53V23.99h12.34"/><path class="cls-11" d="M105.88 46.53V23.99h12.34"/><path class="cls-12" d="M110.79 50.6a1.42 1.42 0 10-1.42-1.42 1.43 1.43 0 001.42 1.42z" transform="translate(-4.91 -2.65)"/><path class="cls-9" d="M115.47 115.7a1.42 1.42 0 10-1.41-1.43 1.41 1.41 0 001.41 1.41z" transform="translate(-4.91 -2.65)"/><path class="cls-10" d="M110.56 111.64V80.36"/><path class="cls-11" d="M110.56 111.64V80.36"/><path class="cls-12" d="M115.47 115.7a1.42 1.42 0 10-1.41-1.43 1.41 1.41 0 001.41 1.41z" transform="translate(-4.91 -2.65)"/><path class="cls-9" d="M107.65 114.79a1.42 1.42 0 10-1.42-1.42 1.41 1.41 0 001.41 1.41z" transform="translate(-4.91 -2.65)"/><path class="cls-10" d="M102.74 110.73v-12.7H90.82"/><path class="cls-11" d="M102.74 110.73v-12.7H90.82"/><path class="cls-12" d="M107.65 114.79a1.42 1.42 0 10-1.42-1.42 1.41 1.41 0 001.41 1.41z" transform="translate(-4.91 -2.65)"/><path class="cls-9" d="M149.46 105.3a1.42 1.42 0 10-1.42-1.42 1.41 1.41 0 001.41 1.41z" transform="translate(-4.91 -2.65)"/><path class="cls-10" d="M144.55 101.24V80.13"/><path class="cls-11" d="M144.55 101.24V80.13"/><path class="cls-12" d="M149.46 105.3a1.42 1.42 0 10-1.42-1.42 1.41 1.41 0 001.41 1.41z" transform="translate(-4.91 -2.65)"/><path class="cls-9" d="M253.59 131.82a1.42 1.42 0 10-1.42-1.42 1.41 1.41 0 001.4 1.42z" transform="translate(-4.91 -2.65)"/><path class="cls-10" d="M248.68 127.76v-6.27h15.81"/><path class="cls-11" d="M248.68 127.76v-6.27h15.81"/><path class="cls-12" d="M253.59 131.82a1.42 1.42 0 10-1.42-1.42 1.41 1.41 0 001.4 1.42z" transform="translate(-4.91 -2.65)"/><path class="cls-9" d="M187.18 38a1.42 1.42 0 10-1.42-1.42 1.41 1.41 0 001.4 1.42z" transform="translate(-4.91 -2.65)"/><path class="cls-10" d="M182.27 33.92V12.96"/><path class="cls-11" d="M182.27 33.92V12.96"/><path class="cls-12" d="M187.18 38a1.42 1.42 0 10-1.42-1.42 1.41 1.41 0 001.4 1.42z" transform="translate(-4.91 -2.65)"/><path class="cls-9" d="M181.47 48.91a1.42 1.42 0 10-1.42-1.42 1.42 1.42 0 001.42 1.42z" transform="translate(-4.91 -2.65)"/><path class="cls-10" d="M176.56 44.85V23.99h-12.27"/><path class="cls-11" d="M176.56 44.85V23.99h-12.27"/><path class="cls-12" d="M181.47 48.91a1.42 1.42 0 10-1.42-1.42 1.42 1.42 0 001.42 1.42z" transform="translate(-4.91 -2.65)"/><path class="cls-9" d="M76.61 24.68a1.42 1.42 0 10-1.42 1.42 1.41 1.41 0 001.41-1.41z" transform="translate(-4.91 -2.65)"/><path class="cls-10" d="M70.29 22.03H35.82"/><path class="cls-11" d="M70.29 22.03H35.82"/><path class="cls-12" d="M76.61 24.68a1.42 1.42 0 10-1.42 1.42 1.41 1.41 0 001.41-1.41z" transform="translate(-4.91 -2.65)"/><path class="cls-9" d="M73.25 46.38a1.42 1.42 0 10-1.42 1.42 1.43 1.43 0 001.42-1.42z" transform="translate(-4.91 -2.65)"/><path class="cls-10" d="M66.92 43.73h-31.1"/><path class="cls-11" d="M66.92 43.73h-31.1"/><path class="cls-12" d="M73.25 46.38a1.42 1.42 0 10-1.42 1.42 1.43 1.43 0 001.42-1.42z" transform="translate(-4.91 -2.65)"/><path class="cls-9" d="M66.64 90.1a1.42 1.42 0 10-1.43 1.41 1.42 1.42 0 001.43-1.41z" transform="translate(-4.91 -2.65)"/><path class="cls-10" d="M60.31 87.45H35.82"/><path class="cls-11" d="M60.31 87.45H35.82"/><path class="cls-12" d="M66.64 90.1a1.42 1.42 0 10-1.43 1.41 1.42 1.42 0 001.43-1.41z" transform="translate(-4.91 -2.65)"/><path class="cls-9" d="M172.82 79.27a1.42 1.42 0 111.42 1.42 1.41 1.41 0 01-1.41-1.41z" transform="translate(-4.91 -2.65)"/><path class="cls-10" d="M169.32 76.63h22.75v-15.2"/><path class="cls-11" d="M169.32 76.63h22.75v-15.2"/><path class="cls-12" d="M172.82 79.27a1.42 1.42 0 111.42 1.42 1.41 1.41 0 01-1.41-1.41z" transform="translate(-4.91 -2.65)"/><path class="cls-9" d="M206.43 40.15a1.42 1.42 0 111.42 1.42 1.43 1.43 0 01-1.42-1.42z" transform="translate(-4.91 -2.65)"/><path class="cls-10" d="M202.94 37.5h30.75v32.78h30.8"/><path class="cls-11" d="M202.94 37.5h30.75v32.78h30.8"/><path class="cls-12" d="M206.43 40.15a1.42 1.42 0 111.42 1.42 1.43 1.43 0 01-1.42-1.42z" transform="translate(-4.91 -2.65)"/><path class="cls-9" d="M230.07 86.93a1.42 1.42 0 111.42 1.42 1.43 1.43 0 01-1.42-1.42z" transform="translate(-4.91 -2.65)"/><path class="cls-10" d="M226.58 84.28h22.09v11.45h15.82"/><path class="cls-11" d="M226.58 84.28h22.09v11.45h15.82"/><path class="cls-12" d="M230.07 86.93a1.42 1.42 0 111.42 1.42 1.43 1.43 0 01-1.42-1.42z" transform="translate(-4.91 -2.65)"/><path class="cls-9" d="M257.72 141a1.42 1.42 0 111.42 1.42 1.43 1.43 0 01-1.42-1.42z" transform="translate(-4.91 -2.65)"/><path class="cls-10" d="M254.23 138.39h37.59"/><path class="cls-11" d="M254.23 138.39h37.59"/><path class="cls-12" d="M257.72 141a1.42 1.42 0 111.42 1.42 1.43 1.43 0 01-1.42-1.42z" transform="translate(-4.91 -2.65)"/><path class="cls-9" d="M62.19 119a1.42 1.42 0 10-1.42 1.42 1.41 1.41 0 001.42-1.42z" transform="translate(-4.91 -2.65)"/><path class="cls-10" d="M55.87 116.39H35.82"/><path class="cls-11" d="M55.87 116.39H35.82"/><path class="cls-12" d="M62.19 119a1.42 1.42 0 10-1.42 1.42 1.41 1.41 0 001.42-1.42z" transform="translate(-4.91 -2.65)"/><path class="cls-9" d="M68.17 142.3a1.42 1.42 0 10-1.42 1.42 1.42 1.42 0 001.42-1.42z" transform="translate(-4.91 -2.65)"/><path class="cls-10" d="M61.85 139.65h-26.6"/><path class="cls-11" d="M61.85 139.65h-26.6"/><path class="cls-12" d="M68.17 142.3a1.42 1.42 0 10-1.42 1.42 1.42 1.42 0 001.42-1.42z" transform="translate(-4.91 -2.65)"/><path class="cls-9" d="M130.73 63.57a1.42 1.42 0 10-1.42 1.43 1.43 1.43 0 001.42-1.43z" transform="translate(-4.91 -2.65)"/><path class="cls-10" d="M124.4 60.92h-18.7"/><path class="cls-11" d="M124.4 60.92h-18.7"/><path class="cls-12" d="M130.73 63.57a1.42 1.42 0 10-1.42 1.43 1.43 1.43 0 001.42-1.43z" transform="translate(-4.91 -2.65)"/><path class="cls-9" d="M179.67 55.05a1.42 1.42 0 10-1.42 1.42 1.41 1.41 0 001.41-1.41z" transform="translate(-4.91 -2.65)"/><path class="cls-10" d="M173.35 52.4h-14.86v-8.04"/><path class="cls-11" d="M173.35 52.4h-14.86v-8.04"/><path class="cls-12" d="M179.67 55.05a1.42 1.42 0 10-1.42 1.42 1.41 1.41 0 001.41-1.41z" transform="translate(-4.91 -2.65)"/><path class="cls-9" d="M217.6 103.8a1.42 1.42 0 10-1.43 1.41 1.43 1.43 0 001.43-1.41z" transform="translate(-4.91 -2.65)"/><path class="cls-10" d="M211.27 101.15h-10.12v12.49"/><path class="cls-11" d="M211.27 101.15h-10.12v12.49"/><path class="cls-12" d="M217.6 103.8a1.42 1.42 0 10-1.43 1.41 1.43 1.43 0 001.43-1.41z" transform="translate(-4.91 -2.65)"/><path class="cls-9" d="M264.86 149.78a1.42 1.42 0 10-1.42 1.42 1.43 1.43 0 001.42-1.42z" transform="translate(-4.91 -2.65)"/><path class="cls-10" d="M258.53 147.13h-27.6"/><path class="cls-11" d="M258.53 147.13h-27.6"/><path class="cls-12" d="M264.86 149.78a1.42 1.42 0 10-1.42 1.42 1.43 1.43 0 001.42-1.42z" transform="translate(-4.91 -2.65)"/><path class="cls-9" d="M149.93 166.73a1.42 1.42 0 11-1.41 1.43 1.41 1.41 0 011.41-1.41z" transform="translate(-4.91 -2.65)"/><path class="cls-10" d="M145.02 165.49v12.87"/><path class="cls-11" d="M145.02 165.49v12.87"/><path class="cls-12" d="M149.93 166.73a1.42 1.42 0 11-1.41 1.43 1.41 1.41 0 011.41-1.41z" transform="translate(-4.91 -2.65)"/><path class="cls-9" d="M193.6 166.87a1.42 1.42 0 11-1.41 1.43 1.41 1.41 0 011.4-1.42z" transform="translate(-4.91 -2.65)"/><path class="cls-10" d="M188.69 165.64v12.72"/><path class="cls-11" d="M188.69 165.64v12.72"/><path class="cls-12" d="M193.6 166.87a1.42 1.42 0 11-1.41 1.43 1.41 1.41 0 011.4-1.42z" transform="translate(-4.91 -2.65)"/><path class="cls-9" d="M238.6 166.73a1.42 1.42 0 11-1.42 1.42 1.41 1.41 0 011.41-1.41z" transform="translate(-4.91 -2.65)"/><path class="cls-10" d="M233.69 165.49v20.87"/><path class="cls-11" d="M233.69 165.49v20.87"/><path class="cls-12" d="M238.6 166.73a1.42 1.42 0 11-1.42 1.42 1.41 1.41 0 011.41-1.41z" transform="translate(-4.91 -2.65)"/><path class="cls-9" d="M253.37 166.09a1.42 1.42 0 11-1.37 1.47v-.06a1.41 1.41 0 011.37-1.41z" transform="translate(-4.91 -2.65)"/><path class="cls-10" d="M248.46 164.85v4.51h16.03"/><path class="cls-11" d="M248.46 164.85v4.51h16.03"/><path class="cls-12" d="M253.37 166.09a1.42 1.42 0 11-1.37 1.47v-.06a1.41 1.41 0 011.37-1.41z" transform="translate(-4.91 -2.65)"/><rect class="cls-8" x="8.57" y="172.42" width="32.57" height="11.87" rx="2.83"/><path class="cls-12" d="M23.43 176.06h-1.46l.15-.69h1.45l-.14.69zM23.05 177.84h-2.4l.15-.69h2.4l-.15.69zM22.68 179.61h-3.35l.14-.68h3.35l-.14.68zM22.3 181.39H18l.15-.69h4.29l-.14.69z"/><path class="cls-13" d="M11.75 175a8.29 8.29 0 00-.83.31.26.26 0 01-.21 0l-1.4-1a.63.63 0 00-.74 0l-.9.76a.64.64 0 00-.15.73l.77 1.53a.31.31 0 010 .23 5.35 5.35 0 00-.45.77.23.23 0 01-.18.13l-1.73.1a.64.64 0 00-.55.49l-.21 1.17a.65.65 0 00.35.65l1.58.68a.28.28 0 01.14.18 6.49 6.49 0 00.16.88.26.26 0 01-.06.21L6.07 184a.64.64 0 00-.11.74l.59 1a.63.63 0 00.69.27l1.65-.49a.24.24 0 01.23.06 7.1 7.1 0 00.67.56.26.26 0 01.1.2l-.2 1.66a.65.65 0 00.39.64l1.1.4a.65.65 0 00.71-.23l.94-1.44a.27.27 0 01.22-.11 3.09 3.09 0 00.43 0h.44a.28.28 0 01.21.1l.95 1.44a.62.62 0 00.7.24l1.11-.41a.63.63 0 00.39-.63l-.2-1.71a.25.25 0 01.1-.21c.23-.18.46-.37.67-.57a.26.26 0 01.21-.06l1.67.5a.61.61 0 00.68-.27l.6-1a.64.64 0 00-.11-.74l-1.25-1.18a.28.28 0 01-.07-.23 5.24 5.24 0 00.16-.88.22.22 0 01.12-.16l1.59-.69a.65.65 0 00.36-.65L21.6 179a.64.64 0 00-.55-.49l-1.72-.1a.28.28 0 01-.2-.13 7.44 7.44 0 00-.44-.78.23.23 0 010-.2l.78-1.55a.64.64 0 00-.15-.73l-.9-.76a.63.63 0 00-.74 0l-1.39 1a.24.24 0 01-.23 0 6.34 6.34 0 00-.83-.3.23.23 0 01-.15-.15l-.41-1.69a.63.63 0 00-.58-.46h-1.2a.63.63 0 00-.58.46l-.4 1.67a.23.23 0 01-.16.21z" transform="translate(-4.91 -2.65)"/><path class="cls-14" d="M13.48 175.94a5.07 5.07 0 105.07 5.06 5.07 5.07 0 00-5.07-5.06z" transform="translate(-4.91 -2.65)"/><rect class="cls-8" x="8.57" y="134.09" width="32.57" height="11.87" rx="2.83"/><path class="cls-12" d="M23.43 137.73h-1.46l.15-.69h1.45l-.14.69zM23.05 139.5h-2.4l.15-.68h2.4l-.15.68zM22.68 141.28h-3.35l.14-.69h3.35l-.14.69zM22.3 143.06H18l.15-.69h4.29l-.14.69z"/><path class="cls-13" d="M11.75 136.65a6.34 6.34 0 00-.83.3.2.2 0 01-.21 0l-1.4-1a.63.63 0 00-.74 0l-.9.76a.6.6 0 00-.15.72l.77 1.57a.31.31 0 010 .23 5.35 5.35 0 00-.45.77.24.24 0 01-.18.13l-1.73.1a.61.61 0 00-.55.49l-.21 1.16a.67.67 0 00.35.66l1.58.68a.28.28 0 01.14.18 6.64 6.64 0 00.16.87.29.29 0 01-.06.22l-1.26 1.19a.62.62 0 00-.11.73l.59 1a.63.63 0 00.69.27l1.65-.49a.27.27 0 01.23.05 5.18 5.18 0 00.67.57.26.26 0 01.1.2l-.2 1.72a.63.63 0 00.39.63l1.1.41a.65.65 0 00.71-.24l.94-1.43a.27.27 0 01.22-.11h.87a.24.24 0 01.21.09l.95 1.45a.64.64 0 00.7.24l1.11-.41a.63.63 0 00.39-.63l-.2-1.71a.26.26 0 01.1-.22 7.1 7.1 0 00.67-.56.26.26 0 01.21-.06l1.67.5a.61.61 0 00.68-.27l.6-1a.62.62 0 00-.11-.73l-1.25-1.18a.28.28 0 01-.07-.23 5.24 5.24 0 00.16-.88.26.26 0 01.12-.17l1.59-.69a.64.64 0 00.36-.65l-.21-1.16a.61.61 0 00-.55-.49l-1.72-.1a.29.29 0 01-.2-.14 8.46 8.46 0 00-.44-.77.26.26 0 010-.21l.78-1.55a.6.6 0 00-.15-.72l-.9-.76a.63.63 0 00-.74 0l-1.39 1a.24.24 0 01-.23 0 6.34 6.34 0 00-.83-.3.26.26 0 01-.15-.16l-.41-1.68a.63.63 0 00-.58-.46h-1.21a.63.63 0 00-.58.46l-.4 1.67a.25.25 0 01-.16.14z" transform="translate(-4.91 -2.65)"/><path class="cls-14" d="M13.48 137.61a5.07 5.07 0 105.07 5.07 5.07 5.07 0 00-5.07-5.07z" transform="translate(-4.91 -2.65)"/><rect class="cls-8" x="8.57" y="110.42" width="32.57" height="11.87" rx="2.83"/><path class="cls-12" d="M23.43 114.06h-1.46l.15-.69h1.45l-.14.69zM23.05 115.84h-2.4l.15-.69h2.4l-.15.69zM22.68 117.61h-3.35l.14-.68h3.35l-.14.68zM22.3 119.39H18l.15-.69h4.29l-.14.69z"/><path class="cls-13" d="M11.75 113a8.29 8.29 0 00-.83.31.26.26 0 01-.21 0l-1.4-1a.66.66 0 00-.74 0l-.9.76a.64.64 0 00-.15.73l.77 1.54a.28.28 0 010 .22 6 6 0 00-.45.77.23.23 0 01-.18.13l-1.73.1a.64.64 0 00-.55.49l-.21 1.17a.65.65 0 00.35.65l1.58.68a.28.28 0 01.14.18 6.49 6.49 0 00.16.88.26.26 0 01-.06.21L6.07 122a.64.64 0 00-.11.74l.59 1a.63.63 0 00.69.27l1.65-.49a.24.24 0 01.23.06 7.1 7.1 0 00.67.56.26.26 0 01.1.2l-.2 1.66a.65.65 0 00.39.64l1.1.4a.65.65 0 00.71-.23l.94-1.44a.27.27 0 01.22-.11h.87a.28.28 0 01.21.1l.95 1.44a.62.62 0 00.7.24l1.11-.41a.63.63 0 00.39-.63l-.2-1.71a.25.25 0 01.1-.21c.23-.18.46-.37.67-.57a.26.26 0 01.21-.06l1.67.5a.61.61 0 00.68-.27l.6-1a.64.64 0 00-.11-.74l-1.25-1.18a.28.28 0 01-.07-.23 5.24 5.24 0 00.16-.88.22.22 0 01.12-.16l1.59-.69a.64.64 0 00.36-.65L21.6 117a.64.64 0 00-.55-.49l-1.72-.1a.28.28 0 01-.2-.13 7.44 7.44 0 00-.44-.78.23.23 0 010-.2l.78-1.55a.64.64 0 00-.15-.73l-.9-.76a.63.63 0 00-.74 0l-1.39 1a.24.24 0 01-.23 0 6.34 6.34 0 00-.83-.3.23.23 0 01-.15-.15l-.41-1.69a.63.63 0 00-.58-.46h-1.2a.63.63 0 00-.58.46l-.4 1.67a.23.23 0 01-.16.21z" transform="translate(-4.91 -2.65)"/><path class="cls-14" d="M13.48 113.94a5.07 5.07 0 105.07 5.06 5.07 5.07 0 00-5.07-5.06z" transform="translate(-4.91 -2.65)"/><rect class="cls-8" x="8.57" y="81.84" width="32.57" height="11.87" rx="2.83"/><path class="cls-12" d="M23.43 85.47h-1.46l.15-.68h1.45l-.14.68zM23.05 87.25h-2.4l.15-.69h2.4l-.15.69zM22.68 89.03h-3.35l.14-.69h3.35l-.14.69zM22.3 90.8H18l.15-.68h4.29l-.14.68z"/><path class="cls-13" d="M11.75 84.4a6.34 6.34 0 00-.83.3.2.2 0 01-.21 0l-1.4-1a.66.66 0 00-.74 0l-.9.76a.64.64 0 00-.15.73l.77 1.54a.28.28 0 010 .22 6.06 6.06 0 00-.45.78.23.23 0 01-.18.12L5.93 88a.61.61 0 00-.55.49l-.21 1.16a.65.65 0 00.35.65l1.58.7a.26.26 0 01.14.17 6.49 6.49 0 00.16.83.26.26 0 01-.06.21l-1.26 1.2a.61.61 0 00-.08.69l.59 1a.6.6 0 00.69.27l1.65-.49a.27.27 0 01.23.06 7.1 7.1 0 00.67.56.26.26 0 01.1.2l-.2 1.73a.63.63 0 00.39.63l1.1.4a.63.63 0 00.71-.23l.94-1.44a.26.26 0 01.22-.1H14a.28.28 0 01.21.1l.95 1.45a.63.63 0 00.7.23l1.11-.4a.63.63 0 00.39-.63l-.2-1.71a.26.26 0 01.1-.22 5.18 5.18 0 00.67-.57.26.26 0 01.21 0l1.67.49a.59.59 0 00.68-.27l.6-1a.64.64 0 00-.11-.74l-1.25-1.18a.26.26 0 01-.07-.22 5.24 5.24 0 00.16-.88.26.26 0 01.08-.14l1.59-.69a.64.64 0 00.36-.65l-.21-1.16a.64.64 0 00-.55-.5l-1.72-.1a.28.28 0 01-.2-.13 7.3 7.3 0 00-.44-.77.26.26 0 010-.21l.78-1.55a.64.64 0 00-.15-.73l-.9-.76a.66.66 0 00-.74 0l-1.39 1a.24.24 0 01-.23 0c-.27-.11-.54-.21-.83-.3a.23.23 0 01-.15-.15l-.41-1.69a.63.63 0 00-.58-.46h-1.24a.63.63 0 00-.58.46l-.4 1.68a.25.25 0 01-.16.11z" transform="translate(-4.91 -2.65)"/><path class="cls-14" d="M13.48 85.35a5.08 5.08 0 105.07 5.09 5.07 5.07 0 00-5.07-5.09z" transform="translate(-4.91 -2.65)"/><rect class="cls-8" x="78.05" y="55.62" width="32.57" height="11.87" rx="2.83"/><path class="cls-12" d="M92.9 59.26h-1.45l.15-.69h1.45l-.15.69zM92.53 61.04h-2.4l.15-.69h2.4l-.15.69zM92.15 62.82h-3.34l.14-.69h3.35l-.15.69zM91.78 64.59h-4.3l.15-.68h4.29l-.14.68z"/><path class="cls-13" d="M81.23 58.18a8.29 8.29 0 00-.83.31.26.26 0 01-.21 0l-1.4-1a.66.66 0 00-.74 0l-.9.76A.64.64 0 0077 59l.77 1.54a.28.28 0 010 .22 6.06 6.06 0 00-.45.78.23.23 0 01-.18.12l-1.73.1a.64.64 0 00-.55.49l-.21 1.17A.65.65 0 0075 64l1.58.68a.29.29 0 01.13.18 6.49 6.49 0 00.16.88.26.26 0 01-.06.21l-1.26 1.19a.64.64 0 00-.11.74l.59 1a.6.6 0 00.69.27l1.65-.49a.24.24 0 01.23.06 7.1 7.1 0 00.67.56.26.26 0 01.1.2l-.2 1.73a.63.63 0 00.39.63l1.1.4a.63.63 0 00.71-.23l.94-1.44a.26.26 0 01.22-.1h.88a.26.26 0 01.2.1l1 1.45a.63.63 0 00.7.23l1.11-.4a.63.63 0 00.39-.63l-.19-1.71a.24.24 0 01.09-.22 5.18 5.18 0 00.67-.57.26.26 0 01.21 0l1.67.49a.63.63 0 00.69-.27l.59-1a.64.64 0 00-.11-.74l-1.3-1.2a.26.26 0 01-.07-.22 5.36 5.36 0 00.16-.89.28.28 0 01.12-.16l1.59-.73a.64.64 0 00.36-.65l-.21-1.17a.64.64 0 00-.55-.49l-1.72-.1a.28.28 0 01-.2-.13 7.44 7.44 0 00-.44-.78.23.23 0 010-.2l.83-1.55a.64.64 0 00-.15-.73l-.9-.76a.63.63 0 00-.74 0l-1.39 1a.24.24 0 01-.23 0 6.34 6.34 0 00-.83-.3.23.23 0 01-.15-.15l-.41-1.69a.63.63 0 00-.58-.46h-1.2a.63.63 0 00-.58.46l-.4 1.7a.24.24 0 01-.21.18z" transform="translate(-4.91 -2.65)"/><path class="cls-14" d="M83 59.14a5.07 5.07 0 105 5.14v-.07a5.08 5.08 0 00-5-5.07z" transform="translate(-4.91 -2.65)"/><rect class="cls-8" x="130.72" y="35.9" width="32.57" height="11.87" rx="2.83"/><path class="cls-12" d="M145.57 39.53h-1.45l.15-.69h1.45l-.15.69zM145.2 41.31h-2.4l.14-.69h2.4l-.14.69zM144.82 43.09h-3.34l.14-.69h3.35l-.15.69zM144.45 44.86h-4.3l.15-.68h4.29l-.14.68z"/><path class="cls-13" d="M133.9 38.45a8.29 8.29 0 00-.83.31.41.41 0 01-.22 0l-1.39-1a.66.66 0 00-.74 0l-.9.76a.65.65 0 00-.16.73l.77 1.54a.22.22 0 010 .22 7.44 7.44 0 00-.44.78.28.28 0 01-.18.12l-1.73.1a.65.65 0 00-.56.5l-.2 1.16a.61.61 0 00.35.65l1.58.68a.28.28 0 01.14.18 6.47 6.47 0 00.15.88.23.23 0 010 .21l-1.26 1.2a.62.62 0 00-.11.73l.59 1a.6.6 0 00.69.27L131 49a.24.24 0 01.23.06 6 6 0 00.67.56.25.25 0 01.09.2l-.2 1.73a.63.63 0 00.39.63l1.11.4a.65.65 0 00.71-.23l.94-1.44a.25.25 0 01.21-.1h.85a.26.26 0 01.2.1l1 1.45a.63.63 0 00.7.23l1.11-.4a.63.63 0 00.39-.63l-.2-1.71a.26.26 0 01.1-.22 8 8 0 00.7-.63.26.26 0 01.21 0l1.66.49a.63.63 0 00.69-.27l.6-1a.65.65 0 00-.11-.74l-1.25-1.18a.26.26 0 01-.07-.22 6.49 6.49 0 00.16-.88.23.23 0 01.11-.2l1.59-.69a.62.62 0 00.35-.65l-.2-1.16a.65.65 0 00-.56-.5l-1.71-.1a.28.28 0 01-.2-.13 5.35 5.35 0 00-.45-.77.26.26 0 010-.21l.78-1.55a.65.65 0 00-.15-.73l-.91-.76a.66.66 0 00-.74 0l-1.38 1a.31.31 0 01-.23 0c-.27-.11-.55-.21-.83-.3a.23.23 0 01-.15-.15l-.41-1.69a.63.63 0 00-.58-.46H135a.63.63 0 00-.58.46l-.4 1.67a.24.24 0 01-.12.17z" transform="translate(-4.91 -2.65)"/><path class="cls-14" d="M135.63 39.41a5.07 5.07 0 105.07 5.07 5.07 5.07 0 00-5.07-5.07z" transform="translate(-4.91 -2.65)"/><rect class="cls-8" x="173.06" y="108.23" width="32.57" height="11.87" rx="2.83"/><path class="cls-12" d="M187.91 111.87h-1.46l.15-.69h1.45l-.14.69zM187.53 113.64h-2.4l.15-.68h2.4l-.15.68zM187.16 115.42h-3.35l.15-.69h3.34l-.14.69zM186.78 117.2h-4.29l.14-.69h4.3l-.15.69z"/><path class="cls-13" d="M176.23 110.79a6.34 6.34 0 00-.83.3.2.2 0 01-.21 0l-1.4-1a.63.63 0 00-.74 0l-.9.76a.6.6 0 00-.15.72l.77 1.54a.28.28 0 010 .22 6 6 0 00-.44.78.23.23 0 01-.18.12l-1.74.11a.62.62 0 00-.55.49l-.2 1.16a.61.61 0 00.35.65l1.58.69a.24.24 0 01.13.18 6.64 6.64 0 00.16.87.29.29 0 01-.06.22l-1.26 1.19a.62.62 0 00-.11.73l.59 1a.63.63 0 00.69.27l1.65-.49a.31.31 0 01.23 0c.21.2.44.39.67.57a.2.2 0 01.1.2l-.2 1.72a.63.63 0 00.39.63l1.1.4a.63.63 0 00.71-.23l1-1.44a.28.28 0 01.21-.1h.88a.25.25 0 01.2.09l.95 1.45a.63.63 0 00.71.23l1.11-.4a.61.61 0 00.38-.63l-.19-1.71a.26.26 0 01.09-.22 6 6 0 00.67-.56.29.29 0 01.22-.06l1.66.5a.63.63 0 00.69-.27l.59-1a.62.62 0 00-.11-.73l-1.25-1.18a.27.27 0 01-.06-.23 6.47 6.47 0 00.15-.88.3.3 0 01.12-.17l1.6-.69a.65.65 0 00.35-.65l-.21-1.16a.61.61 0 00-.55-.49l-1.72-.11a.3.3 0 01-.2-.13 4.51 4.51 0 00-.44-.77.26.26 0 010-.21l.77-1.55a.6.6 0 00-.15-.72l-.9-.76a.63.63 0 00-.74 0l-1.38 1a.25.25 0 01-.24 0 6.34 6.34 0 00-.83-.3.29.29 0 01-.15-.16l-.4-1.69a.63.63 0 00-.58-.46h-1.23a.64.64 0 00-.59.46l-.39 1.68a.28.28 0 01-.19.22z" transform="translate(-4.91 -2.65)"/><path class="cls-14" d="M178 111.75a5.07 5.07 0 105.06 5.08 5.07 5.07 0 00-5.06-5.08z" transform="translate(-4.91 -2.65)"/><rect class="cls-8" x="8.57" y="37.84" width="32.57" height="11.87" rx="2.83"/><path class="cls-12" d="M23.43 41.47h-1.46l.15-.68h1.45l-.14.68zM23.05 43.25h-2.4l.15-.69h2.4l-.15.69zM22.68 45.03h-3.35l.14-.69h3.35l-.14.69zM22.3 46.8H18l.15-.68h4.29l-.14.68z"/><path class="cls-13" d="M11.75 40.4a6.34 6.34 0 00-.83.3.2.2 0 01-.21 0l-1.4-1a.66.66 0 00-.74 0l-.9.76a.64.64 0 00-.15.73l.77 1.54a.28.28 0 010 .22 6.06 6.06 0 00-.45.78.23.23 0 01-.18.12L5.93 44a.61.61 0 00-.55.49l-.21 1.16a.65.65 0 00.35.65l1.58.7a.26.26 0 01.14.17 6.49 6.49 0 00.16.83.26.26 0 01-.06.21l-1.26 1.2a.61.61 0 00-.08.69l.59 1a.6.6 0 00.69.27l1.65-.49a.27.27 0 01.23.06 7.1 7.1 0 00.67.56.26.26 0 01.1.2l-.2 1.73a.63.63 0 00.39.63l1.1.4a.63.63 0 00.71-.23l.94-1.44a.26.26 0 01.22-.1H14a.28.28 0 01.21.1l.95 1.45a.63.63 0 00.7.23l1.11-.4a.63.63 0 00.39-.63l-.2-1.71a.26.26 0 01.1-.22 5.18 5.18 0 00.67-.57.27.27 0 01.21 0l1.67.49a.59.59 0 00.68-.27l.6-1a.64.64 0 00-.11-.74l-1.25-1.18a.26.26 0 01-.07-.22 5.24 5.24 0 00.16-.88.26.26 0 01.12-.17l1.59-.69a.64.64 0 00.36-.65l-.21-1.16a.64.64 0 00-.55-.5l-1.72-.1a.28.28 0 01-.2-.13 7.3 7.3 0 00-.44-.77.26.26 0 010-.21l.78-1.55a.64.64 0 00-.15-.73l-.9-.76a.66.66 0 00-.74 0l-1.39 1a.24.24 0 01-.23 0c-.27-.11-.54-.21-.83-.3a.23.23 0 01-.15-.15l-.41-1.69a.63.63 0 00-.58-.46h-1.28a.63.63 0 00-.58.46l-.4 1.68a.26.26 0 01-.16.14z" transform="translate(-4.91 -2.65)"/><path class="cls-14" d="M13.48 41.35a5.08 5.08 0 105.07 5.09 5.07 5.07 0 00-5.07-5.09z" transform="translate(-4.91 -2.65)"/><rect class="cls-8" x="8.57" y="16.17" width="32.57" height="11.87" rx="2.83"/><path class="cls-12" d="M23.43 19.81h-1.46l.15-.69h1.45l-.14.69zM23.05 21.58h-2.4l.15-.68h2.4l-.15.68zM22.68 23.36h-3.35l.14-.69h3.35l-.14.69zM22.3 25.14H18l.15-.69h4.29l-.14.69z"/><path class="cls-13" d="M11.75 18.73a6.34 6.34 0 00-.83.3.2.2 0 01-.21 0l-1.4-1a.63.63 0 00-.74 0l-.9.76a.6.6 0 00-.15.72L8.29 21a.31.31 0 010 .23 5.35 5.35 0 00-.45.77.24.24 0 01-.18.13l-1.73.1a.61.61 0 00-.55.49l-.22 1.18a.67.67 0 00.35.66l1.58.68a.28.28 0 01.14.18 6.64 6.64 0 00.16.87.29.29 0 01-.06.22L6.07 27.7a.62.62 0 00-.11.73l.59 1a.63.63 0 00.69.27l1.65-.49a.27.27 0 01.23.05c.21.2.44.39.67.57a.26.26 0 01.1.2l-.2 1.72a.63.63 0 00.39.63l1.1.41a.65.65 0 00.71-.24l.94-1.43a.27.27 0 01.22-.11h.87a.24.24 0 01.21.09l.95 1.45a.64.64 0 00.7.24l1.11-.41a.63.63 0 00.39-.63l-.2-1.75a.27.27 0 01.1-.22 7.1 7.1 0 00.67-.56.26.26 0 01.21-.06l1.67.5a.61.61 0 00.68-.27l.6-1a.62.62 0 00-.11-.73l-1.25-1.18a.28.28 0 01-.07-.23 5.24 5.24 0 00.16-.88.26.26 0 01.12-.17l1.59-.69a.64.64 0 00.36-.65l-.21-1.16a.61.61 0 00-.55-.49l-1.72-.1a.29.29 0 01-.2-.14 8.46 8.46 0 00-.44-.77.26.26 0 010-.21l.78-1.55a.6.6 0 00-.15-.72L18.4 18a.63.63 0 00-.74 0l-1.39 1a.23.23 0 01-.27 0 6.34 6.34 0 00-.83-.3.26.26 0 01-.15-.16l-.41-1.68a.63.63 0 00-.61-.46h-1.11a.63.63 0 00-.58.46l-.4 1.67a.24.24 0 01-.16.2z" transform="translate(-4.91 -2.65)"/><path class="cls-14" d="M13.48 19.69a5.07 5.07 0 105.07 5.07 5.07 5.07 0 00-5.07-5.07z" transform="translate(-4.91 -2.65)"/><rect class="cls-8" x="100.2" y="2.62" width="32.57" height="11.87" rx="2.83"/><path class="cls-12" d="M115.06 6.26h-1.46l.15-.69h1.45l-.14.69zM114.68 8.03h-2.4l.15-.68h2.4l-.15.68zM114.31 9.81h-3.35l.14-.69h3.35l-.14.69zM113.93 11.59h-4.29l.14-.69h4.29l-.14.69z"/><path class="cls-13" d="M103.38 5.18a6.34 6.34 0 00-.83.3.2.2 0 01-.21 0l-1.4-1a.63.63 0 00-.74 0l-.9.76a.6.6 0 00-.15.72l.77 1.54a.31.31 0 010 .23 5.35 5.35 0 00-.45.77.24.24 0 01-.18.13l-1.73.1a.62.62 0 00-.55.49l-.21 1.16a.67.67 0 00.35.66l1.58.68a.28.28 0 01.14.18 6.64 6.64 0 00.16.87.31.31 0 01-.03.23l-1.3 1.15a.62.62 0 00-.11.73l.59 1a.63.63 0 00.69.27l1.65-.49a.27.27 0 01.23.05c.21.2.44.39.67.57a.22.22 0 01.09.2l-.19 1.72a.63.63 0 00.38.63l1.11.41a.65.65 0 00.71-.24l.94-1.43a.27.27 0 01.22-.11h.87a.22.22 0 01.2.09l1 1.45a.64.64 0 00.7.24l1.11-.41a.63.63 0 00.39-.63l-.2-1.71a.27.27 0 01.1-.22 7.1 7.1 0 00.67-.56.26.26 0 01.21-.06l1.67.5a.61.61 0 00.68-.27l.6-1a.62.62 0 00-.11-.73L111.28 13a.28.28 0 01-.07-.23 6.49 6.49 0 00.16-.88.26.26 0 01.12-.17l1.59-.69a.64.64 0 00.36-.65l-.21-1.16a.61.61 0 00-.55-.49L111 8.6a.25.25 0 01-.2-.14 8.46 8.46 0 00-.44-.77.26.26 0 010-.21l.78-1.55a.6.6 0 00-.15-.72l-.9-.76a.63.63 0 00-.74 0l-1.39 1a.24.24 0 01-.23 0 6.34 6.34 0 00-.83-.3.26.26 0 01-.15-.16l-.41-1.68a.63.63 0 00-.58-.46h-1.18a.63.63 0 00-.58.46L103.54 5a.26.26 0 01-.16.18z" transform="translate(-4.91 -2.65)"/><path class="cls-14" d="M105.11 6.14a5.07 5.07 0 105.07 5.07 5.07 5.07 0 00-5.07-5.07z" transform="translate(-4.91 -2.65)"/><rect class="cls-8" x="182.27" y="2.62" width="32.57" height="11.87" rx="2.83"/><path class="cls-12" d="M197.12 6.26h-1.46l.15-.69h1.46l-.15.69zM196.74 8.03h-2.4l.15-.68h2.4l-.15.68zM196.37 9.81h-3.35l.15-.69h3.35l-.15.69zM195.99 11.59h-4.29l.14-.69h4.3l-.15.69z"/><path class="cls-13" d="M185.44 5.18a6.34 6.34 0 00-.83.3.2.2 0 01-.21 0l-1.4-1a.63.63 0 00-.74 0l-.9.76a.6.6 0 00-.15.72l.79 1.51a.31.31 0 010 .23 4.51 4.51 0 00-.44.77.29.29 0 01-.19.13l-1.73.1a.62.62 0 00-.55.49l-.21 1.16a.65.65 0 00.36.66l1.58.68a.24.24 0 01.13.18 6.64 6.64 0 00.16.87.29.29 0 01-.11.26l-1.26 1.19a.62.62 0 00-.11.73l.59 1a.65.65 0 00.69.27l1.65-.49a.27.27 0 01.23.05c.22.2.44.39.68.57a.25.25 0 01.09.2l-.2 1.72a.62.62 0 00.39.63l1.11.41a.64.64 0 00.7-.24l.95-1.43a.26.26 0 01.21-.11h.88a.25.25 0 01.2.09l1 1.45a.65.65 0 00.71.24l1.11-.41a.66.66 0 00.39-.63l-.2-1.71a.26.26 0 01.09-.22 7.22 7.22 0 00.68-.56.26.26 0 01.21-.06l1.66.5a.63.63 0 00.69-.27l.59-1a.62.62 0 00-.11-.73L193.34 13a.28.28 0 01-.07-.23 5.24 5.24 0 00.16-.88.3.3 0 01.12-.17l1.6-.69a.65.65 0 00.35-.65l-.21-1.16a.61.61 0 00-.55-.49L193 8.6a.3.3 0 01-.19-.14c-.14-.26-.29-.52-.45-.77a.26.26 0 010-.21l.77-1.55a.6.6 0 00-.15-.72l-.9-.76a.63.63 0 00-.74 0l-1.38 1a.25.25 0 01-.24 0 6.34 6.34 0 00-.83-.3.26.26 0 01-.15-.16l-.4-1.68a.63.63 0 00-.58-.46h-1.19a.63.63 0 00-.58.46L185.61 5a.3.3 0 01-.17.18z" transform="translate(-4.91 -2.65)"/><path class="cls-14" d="M187.18 6.14a5.07 5.07 0 105.07 5.07 5.07 5.07 0 00-5.07-5.07z" transform="translate(-4.91 -2.65)"/><rect class="cls-8" x="62.91" y="172.42" width="32.57" height="11.87" rx="2.83"/><path class="cls-12" d="M77.77 176.06h-1.46l.15-.69h1.45l-.14.69zM77.39 177.84h-2.4l.15-.69h2.4l-.15.69zM77.02 179.61h-3.35l.14-.68h3.35l-.14.68zM76.64 181.39h-4.29l.14-.69h4.29l-.14.69z"/><path class="cls-13" d="M66.09 175a8.29 8.29 0 00-.83.31.26.26 0 01-.21 0l-1.4-1a.63.63 0 00-.74 0L62 175a.64.64 0 00-.15.73l.77 1.53a.31.31 0 010 .23 5.35 5.35 0 00-.45.77.23.23 0 01-.18.13l-1.73.1a.64.64 0 00-.55.49l-.21 1.17a.65.65 0 00.35.65l1.58.68a.28.28 0 01.14.18 6.49 6.49 0 00.16.88.26.26 0 01-.06.21L60.41 184a.64.64 0 00-.11.74l.59 1a.63.63 0 00.69.27l1.65-.49a.24.24 0 01.23.06 7.1 7.1 0 00.67.56.22.22 0 01.1.2L64 188a.65.65 0 00.39.64l1.1.4a.65.65 0 00.71-.23l.94-1.44a.27.27 0 01.22-.11 3.09 3.09 0 00.43 0h.45a.26.26 0 01.2.1l1 1.44a.62.62 0 00.7.24l1.11-.41a.63.63 0 00.39-.63l-.19-1.71a.22.22 0 01.09-.21c.23-.18.46-.37.67-.57a.26.26 0 01.21-.06l1.67.5a.63.63 0 00.69-.27l.59-1a.64.64 0 00-.11-.74L74 182.77a.28.28 0 01-.07-.23 5.24 5.24 0 00.16-.88.25.25 0 01.12-.16l1.59-.69a.65.65 0 00.36-.65l-.22-1.16a.64.64 0 00-.55-.49l-1.72-.1a.28.28 0 01-.2-.13 7.44 7.44 0 00-.44-.78.23.23 0 010-.2l.78-1.55a.64.64 0 00-.15-.73l-.9-.76a.63.63 0 00-.74 0l-1.38 1a.33.33 0 01-.24 0 6.34 6.34 0 00-.83-.3.23.23 0 01-.15-.15l-.42-1.67a.62.62 0 00-.58-.46h-1.19a.63.63 0 00-.58.46l-.4 1.67a.22.22 0 01-.16.19z" transform="translate(-4.91 -2.65)"/><path class="cls-14" d="M67.82 175.94a5.07 5.07 0 105.07 5.06 5.07 5.07 0 00-5.07-5.06z" transform="translate(-4.91 -2.65)"/><rect class="cls-8" x="117.25" y="172.42" width="32.57" height="11.87" rx="2.83"/><path class="cls-12" d="M132.11 176.06h-1.46l.15-.69h1.45l-.14.69zM131.73 177.84h-2.4l.15-.69h2.4l-.15.69zM131.36 179.61h-3.35l.14-.68h3.35l-.14.68zM130.98 181.39h-4.29l.14-.69h4.3l-.15.69z"/><path class="cls-13" d="M120.43 175a8.29 8.29 0 00-.83.31.26.26 0 01-.21 0l-1.4-1a.63.63 0 00-.74 0l-.9.76a.64.64 0 00-.15.73l.77 1.53a.31.31 0 010 .23 6 6 0 00-.45.77.23.23 0 01-.18.13l-1.73.1a.64.64 0 00-.55.49l-.21 1.17a.64.64 0 00.36.65l1.58.68a.27.27 0 01.13.18 6.49 6.49 0 00.16.88.26.26 0 01-.06.21l-1.27 1.18a.64.64 0 00-.11.74l.59 1a.63.63 0 00.69.27l1.65-.49a.24.24 0 01.23.06 7.1 7.1 0 00.67.56.22.22 0 01.1.2l-.2 1.72a.65.65 0 00.39.64l1.1.4a.65.65 0 00.71-.23l.94-1.44a.27.27 0 01.22-.11 3.09 3.09 0 00.43 0h.45a.26.26 0 01.2.1l1 1.44a.65.65 0 00.71.24l1.11-.41a.63.63 0 00.37-.69l-.19-1.71a.24.24 0 01.09-.21c.23-.18.46-.37.67-.57a.29.29 0 01.22-.06l1.66.5a.63.63 0 00.69-.27l.59-1a.64.64 0 00-.11-.74l-1.25-1.18a.28.28 0 01-.07-.23 5.24 5.24 0 00.16-.88.25.25 0 01.12-.16l1.59-.69a.65.65 0 00.36-.65l-.21-1.17a.64.64 0 00-.55-.49l-1.72-.1a.28.28 0 01-.2-.13 6 6 0 00-.44-.78.23.23 0 010-.2l.78-1.55a.62.62 0 00-.19-.73l-.9-.76a.63.63 0 00-.74 0l-1.38 1a.33.33 0 01-.24 0 6.34 6.34 0 00-.83-.3.23.23 0 01-.15-.15l-.41-1.69a.62.62 0 00-.58-.46h-1.18a.63.63 0 00-.58.46l-.4 1.67a.23.23 0 01-.18.23z" transform="translate(-4.91 -2.65)"/><path class="cls-14" d="M122.16 175.94a5.07 5.07 0 105.07 5.07 5.07 5.07 0 00-5.07-5.07z" transform="translate(-4.91 -2.65)"/><rect class="cls-8" x="112.39" y="140.15" width="32.57" height="11.87" rx="2.83"/><path class="cls-12" d="M127.24 143.79h-1.45l.14-.69h1.46l-.15.69zM126.87 145.57h-2.4l.14-.69h2.4l-.14.69zM126.49 147.34h-3.35l.15-.68h3.35l-.15.68zM126.12 149.12h-4.3l.15-.69h4.29l-.14.69z"/><path class="cls-13" d="M115.57 142.71a8.29 8.29 0 00-.83.31.28.28 0 01-.22 0l-1.39-1a.66.66 0 00-.74 0l-.91.76a.65.65 0 00-.15.73l.77 1.54a.22.22 0 010 .22 5.88 5.88 0 00-.44.77.24.24 0 01-.18.13l-1.73.1a.66.66 0 00-.56.49l-.2 1.17a.62.62 0 00.35.65l1.58.68a.28.28 0 01.14.18 6.47 6.47 0 00.15.88.26.26 0 010 .21l-1.21 1.19a.64.64 0 00-.11.74l.59 1a.63.63 0 00.69.27l1.65-.49a.23.23 0 01.22.06 7.22 7.22 0 00.68.56.25.25 0 01.09.2l-.2 1.72a.66.66 0 00.39.64l1.11.4a.63.63 0 00.7-.23l1-1.44a.26.26 0 01.19-.15 3.23 3.23 0 00.44 0h.44a.26.26 0 01.2.1l1 1.44a.62.62 0 00.7.24l1.11-.41a.63.63 0 00.39-.63l-.2-1.71a.27.27 0 01.09-.21c.24-.18.46-.37.68-.57a.26.26 0 01.21-.06l1.66.5a.63.63 0 00.69-.27l.59-1a.64.64 0 00-.1-.74l-1.25-1.18a.25.25 0 01-.07-.23 8.52 8.52 0 00.16-.88.2.2 0 01.12-.16l1.59-.69a.63.63 0 00.35-.65l-.2-1.17a.66.66 0 00-.56-.49l-1.71-.1a.28.28 0 01-.2-.13 6.06 6.06 0 00-.45-.78.23.23 0 010-.2l.78-1.55a.65.65 0 00-.15-.73l-.91-.76a.63.63 0 00-.74 0l-1.38 1a.31.31 0 01-.23 0 6 6 0 00-.84-.3.28.28 0 01-.15-.15l-.4-1.69a.63.63 0 00-.58-.46h-1.18a.63.63 0 00-.58.46l-.4 1.67a.25.25 0 01-.31.16z" transform="translate(-4.91 -2.65)"/><path class="cls-14" d="M117.3 143.67a5.07 5.07 0 105.07 5.07 5.07 5.07 0 00-5.07-5.07z" transform="translate(-4.91 -2.65)"/><rect class="cls-8" x="162.72" y="140.15" width="32.57" height="11.87" rx="2.83"/><path class="cls-12" d="M177.58 143.79h-1.46l.15-.69h1.45l-.14.69zM177.2 145.57h-2.4l.15-.69h2.4l-.15.69zM176.83 147.34h-3.35l.14-.68h3.35l-.14.68zM176.45 149.12h-4.3l.15-.69h4.29l-.14.69z"/><path class="cls-13" d="M165.9 142.71a8.29 8.29 0 00-.83.31.26.26 0 01-.21 0l-1.4-1a.66.66 0 00-.74 0l-.9.76a.64.64 0 00-.15.73l.77 1.54a.28.28 0 010 .22 7.3 7.3 0 00-.44.77.23.23 0 01-.18.13l-1.73.1a.64.64 0 00-.55.49l-.21 1.17a.65.65 0 00.35.65l1.58.68a.28.28 0 01.14.18 6.49 6.49 0 00.16.88.26.26 0 01-.06.21l-1.26 1.19a.64.64 0 00-.11.74l.59 1a.63.63 0 00.69.27l1.65-.49a.24.24 0 01.23.06 7.1 7.1 0 00.67.56.22.22 0 01.09.2l-.19 1.72a.65.65 0 00.39.64l1.1.4a.65.65 0 00.71-.23l.94-1.44a.27.27 0 01.22-.11 3.09 3.09 0 00.43 0h.45a.23.23 0 01.19.1l1 1.44a.62.62 0 00.7.24l1.11-.41a.63.63 0 00.39-.63l-.19-1.71a.22.22 0 01.09-.21c.23-.18.46-.37.67-.57a.26.26 0 01.21-.06l1.67.5a.63.63 0 00.69-.27l.59-1a.64.64 0 00-.11-.74l-1.25-1.18a.28.28 0 01-.07-.23 6.49 6.49 0 00.16-.88.25.25 0 01.12-.16l1.59-.69a.64.64 0 00.36-.65l-.21-1.17a.64.64 0 00-.55-.49l-1.72-.1a.28.28 0 01-.2-.13 7.44 7.44 0 00-.44-.78.23.23 0 010-.2l.78-1.55a.64.64 0 00-.15-.73l-.9-.76a.63.63 0 00-.74 0l-1.39 1a.31.31 0 01-.23 0 6.34 6.34 0 00-.83-.3.23.23 0 01-.15-.15l-.41-1.69a.63.63 0 00-.58-.46H167a.63.63 0 00-.58.46l-.4 1.67a.22.22 0 01-.12.16z" transform="translate(-4.91 -2.65)"/><path class="cls-14" d="M167.63 143.67a5.07 5.07 0 105.07 5.07 5.07 5.07 0 00-5.07-5.07z" transform="translate(-4.91 -2.65)"/><rect class="cls-8" x="213.06" y="140.15" width="32.57" height="11.87" rx="2.83"/><path class="cls-12" d="M227.91 143.79h-1.46l.15-.69h1.45l-.14.69zM227.53 145.57h-2.4l.15-.69h2.4l-.15.69zM227.16 147.34h-3.35l.15-.68h3.34l-.14.68zM226.78 149.12h-4.29l.14-.69h4.3l-.15.69z"/><path class="cls-13" d="M216.23 142.71a8.29 8.29 0 00-.83.31.26.26 0 01-.21 0l-1.4-1a.66.66 0 00-.74 0l-.9.76a.64.64 0 00-.15.73l.77 1.54a.28.28 0 010 .22 5.88 5.88 0 00-.44.77.24.24 0 01-.18.13l-1.74.1a.64.64 0 00-.55.49l-.2 1.17a.62.62 0 00.35.65l1.58.68a.29.29 0 01.13.18 6.49 6.49 0 00.16.88.26.26 0 01-.06.21l-1.26 1.19a.64.64 0 00-.11.74l.59 1a.63.63 0 00.69.27l1.65-.49a.24.24 0 01.23.06 7.1 7.1 0 00.67.56.22.22 0 01.1.2l-.2 1.72a.65.65 0 00.39.64l1.1.4a.65.65 0 00.71-.23l1-1.44a.26.26 0 01.21-.11 3.23 3.23 0 00.44 0h.44a.26.26 0 01.2.1l.95 1.44a.65.65 0 00.71.24l1.11-.41a.61.61 0 00.38-.63l-.19-1.71a.24.24 0 01.09-.21c.23-.18.46-.37.67-.57a.29.29 0 01.22-.06l1.66.5a.63.63 0 00.69-.27l.59-1a.64.64 0 00-.11-.74l-1.25-1.18a.27.27 0 01-.06-.23 6.47 6.47 0 00.15-.88.25.25 0 01.12-.16l1.6-.69a.65.65 0 00.35-.65l-.21-1.17a.64.64 0 00-.55-.49l-1.72-.1a.3.3 0 01-.2-.13 6 6 0 00-.44-.78.23.23 0 010-.2l.77-1.55a.64.64 0 00-.15-.73l-.9-.76a.63.63 0 00-.74 0l-1.38 1a.33.33 0 01-.24 0 6.34 6.34 0 00-.83-.3.28.28 0 01-.15-.15l-.4-1.69a.63.63 0 00-.58-.46h-1.23a.64.64 0 00-.59.46l-.39 1.67a.26.26 0 01-.19.16z" transform="translate(-4.91 -2.65)"/><path class="cls-14" d="M218 143.67a5.07 5.07 0 105.06 5.08 5.07 5.07 0 00-5.06-5.08z" transform="translate(-4.91 -2.65)"/><rect class="cls-8" x="233.69" y="180.42" width="32.57" height="11.88" rx="2.83"/><path class="cls-12" d="M248.54 184.06h-1.45l.15-.69h1.45l-.15.69zM248.17 185.84h-2.4l.14-.69h2.4l-.14.69zM247.79 187.61h-3.35l.15-.69h3.35l-.15.69zM247.42 189.39h-4.3l.15-.69h4.29l-.14.69z"/><path class="cls-13" d="M236.87 183a8.29 8.29 0 00-.83.31.28.28 0 01-.22 0l-1.39-1a.63.63 0 00-.74 0l-.91.76a.65.65 0 00-.15.73l.77 1.53a.24.24 0 010 .23 7.3 7.3 0 00-.44.77.24.24 0 01-.18.13l-1.73.1a.66.66 0 00-.56.49l-.2 1.17a.62.62 0 00.35.65l1.58.68a.28.28 0 01.14.18 6.47 6.47 0 00.15.88.23.23 0 010 .21l-1.32 1.18a.64.64 0 00-.11.74l.59 1a.6.6 0 00.69.27l1.65-.49a.24.24 0 01.23.06 6 6 0 00.67.56.25.25 0 01.09.2l-.2 1.72a.66.66 0 00.39.64l1.11.4a.63.63 0 00.7-.23l.95-1.44a.26.26 0 01.21-.11 3.23 3.23 0 00.44 0h.4a.26.26 0 01.2.1l1 1.45a.63.63 0 00.7.23l1.11-.4a.66.66 0 00.39-.64l-.2-1.7a.31.31 0 01.09-.22 5.27 5.27 0 00.68-.57.26.26 0 01.21 0l1.66.49a.63.63 0 00.69-.27l.59-1a.64.64 0 00-.1-.74l-1.25-1.18a.25.25 0 01-.07-.23 6.49 6.49 0 00.16-.88.2.2 0 01.12-.16l1.59-.69a.62.62 0 00.35-.65l-.2-1.17a.66.66 0 00-.56-.49l-1.71-.1a.28.28 0 01-.2-.13 6.06 6.06 0 00-.45-.78.23.23 0 010-.2l.78-1.55a.65.65 0 00-.15-.73l-.91-.76a.63.63 0 00-.74 0l-1.38 1a.31.31 0 01-.23 0 6.34 6.34 0 00-.83-.3.26.26 0 01-.16-.15l-.4-1.69a.63.63 0 00-.58-.46H238a.63.63 0 00-.58.46l-.4 1.67a.26.26 0 01-.15.12z" transform="translate(-4.91 -2.65)"/><path class="cls-14" d="M238.6 183.94a5.07 5.07 0 105.07 5.07 5.07 5.07 0 00-5.07-5.07z" transform="translate(-4.91 -2.65)"/><rect class="cls-8" x="264.74" y="163.06" width="32.57" height="11.87" rx="2.83"/><path class="cls-12" d="M279.59 166.69h-1.45l.14-.68h1.45l-.14.68zM279.21 168.47h-2.4l.15-.69h2.4l-.15.69zM278.84 170.25h-3.35l.15-.69h3.34l-.14.69zM278.46 172.03h-4.29l.14-.69h4.3l-.15.69z"/><path class="cls-13" d="M267.91 165.62a6.34 6.34 0 00-.83.3.2.2 0 01-.21 0l-1.39-1a.63.63 0 00-.74 0l-.91.75a.64.64 0 00-.15.73l.77 1.54a.22.22 0 010 .22 6 6 0 00-.44.78.23.23 0 01-.18.12l-1.74.11a.64.64 0 00-.55.49l-.2 1.16a.61.61 0 00.35.65l1.58.69a.23.23 0 01.13.18 6.64 6.64 0 00.16.87.25.25 0 01-.06.22l-1.26 1.19a.62.62 0 00-.1.73l.59 1a.63.63 0 00.69.28l1.64-.49a.27.27 0 01.23.05 6.13 6.13 0 00.68.56.27.27 0 01.09.21l-.2 1.72a.63.63 0 00.39.63l1.11.4a.62.62 0 00.7-.23L269 178a.28.28 0 01.21-.1h.88a.26.26 0 01.2.1l1 1.45a.62.62 0 00.7.23l1.11-.4a.63.63 0 00.39-.63l-.2-1.71a.26.26 0 01.09-.22 6.13 6.13 0 00.68-.56.26.26 0 01.21-.06l1.66.5a.63.63 0 00.69-.28l.59-1a.62.62 0 00-.11-.73l-1.25-1.19a.25.25 0 01-.06-.22 6.47 6.47 0 00.15-.88.3.3 0 01.12-.17l1.6-.69a.65.65 0 00.35-.65l-.21-1.16a.64.64 0 00-.55-.5l-1.72-.1a.26.26 0 01-.19-.13 6 6 0 00-.45-.77.26.26 0 010-.21l.77-1.55a.64.64 0 00-.15-.73l-.9-.75a.63.63 0 00-.74 0l-1.38 1a.33.33 0 01-.24 0 8.29 8.29 0 00-.83-.31.28.28 0 01-.15-.15l-.4-1.69a.63.63 0 00-.58-.46h-1.18a.63.63 0 00-.58.46l-.4 1.68a.3.3 0 01-.22.2z" transform="translate(-4.91 -2.65)"/><path class="cls-14" d="M269.65 166.57a5.08 5.08 0 105.07 5.09 5.09 5.09 0 00-5.07-5.09z" transform="translate(-4.91 -2.65)"/><path class="cls-8" d="M272.48 118.37h26.9a2.84 2.84 0 012.84 2.84v6.21a2.83 2.83 0 01-2.83 2.83h-26.9a2.83 2.83 0 01-2.83-2.83v-6.21a2.83 2.83 0 012.82-2.84z" transform="translate(-4.91 -2.65)"/><path class="cls-12" d="M279.59 119.36h-1.45l.14-.69h1.45l-.14.69zM279.21 121.14h-2.4l.15-.69h2.4l-.15.69zM278.84 122.91h-3.35l.15-.68h3.34l-.14.68zM278.46 124.69h-4.29l.14-.69h4.3l-.15.69z"/><path class="cls-13" d="M267.91 118.28a8.29 8.29 0 00-.83.31.26.26 0 01-.21 0l-1.39-1a.66.66 0 00-.74 0l-.91.76a.64.64 0 00-.15.73l.77 1.54a.22.22 0 010 .22 5.88 5.88 0 00-.44.77.24.24 0 01-.18.13l-1.74.1a.64.64 0 00-.55.49l-.2 1.17a.62.62 0 00.35.65l1.58.68a.24.24 0 01.13.18 6.49 6.49 0 00.16.88.26.26 0 01-.06.21l-1.26 1.19a.64.64 0 00-.1.74l.59 1a.63.63 0 00.69.27l1.64-.49a.24.24 0 01.23.06 6.13 6.13 0 00.68.56.25.25 0 01.09.2l-.2 1.72a.66.66 0 00.39.64l1.11.4a.63.63 0 00.7-.23l.95-1.44a.26.26 0 01.21-.11h.88a.26.26 0 01.2.1l1 1.45a.63.63 0 00.7.23l1.11-.4a.66.66 0 00.39-.64l-.2-1.7a.24.24 0 01.09-.22 5.27 5.27 0 00.68-.57.23.23 0 01.21-.05l1.66.49a.63.63 0 00.69-.27l.59-1a.64.64 0 00-.11-.74l-1.25-1.18a.27.27 0 01-.06-.23 6.47 6.47 0 00.2-.88.25.25 0 01.12-.16l1.6-.69a.65.65 0 00.35-.65l-.21-1.17a.64.64 0 00-.55-.49l-1.72-.1a.26.26 0 01-.19-.13 6.06 6.06 0 00-.45-.78.23.23 0 010-.2l.77-1.55a.64.64 0 00-.15-.73l-.9-.76a.63.63 0 00-.74 0l-1.38 1a.33.33 0 01-.24 0 6.34 6.34 0 00-.83-.3.28.28 0 01-.15-.15l-.4-1.69a.63.63 0 00-.58-.46h-1.18a.63.63 0 00-.58.46l-.4 1.67a.26.26 0 01-.28.16z" transform="translate(-4.91 -2.65)"/><path class="cls-14" d="M269.65 119.24a5.07 5.07 0 105.07 5.07 5.07 5.07 0 00-5.07-5.07z" transform="translate(-4.91 -2.65)"/><path class="cls-8" d="M272.48 92.75h26.9a2.83 2.83 0 012.83 2.83v6.21a2.83 2.83 0 01-2.83 2.83h-26.9a2.83 2.83 0 01-2.83-2.83v-6.21a2.85 2.85 0 012.83-2.83z" transform="translate(-4.91 -2.65)"/><path class="cls-12" d="M279.59 93.73h-1.45l.14-.69h1.45l-.14.69zM279.21 95.51h-2.4l.15-.69h2.4l-.15.69zM278.84 97.29h-3.35l.15-.69h3.34l-.14.69zM278.46 99.06h-4.29l.14-.68h4.3l-.15.68z"/><path class="cls-13" d="M267.91 92.65a8.29 8.29 0 00-.83.31.26.26 0 01-.21 0l-1.39-1a.66.66 0 00-.74 0l-.91.76a.64.64 0 00-.15.73l.77 1.54a.22.22 0 010 .22 6.18 6.18 0 00-.45.79.28.28 0 01-.18.12l-1.74.1a.65.65 0 00-.55.5l-.2 1.16a.61.61 0 00.35.65l1.58.68a.24.24 0 01.13.18 6.49 6.49 0 00.16.88.23.23 0 01-.06.21l-1.26 1.2a.62.62 0 00-.1.73l.59 1a.6.6 0 00.69.27l1.64-.49a.24.24 0 01.23.06 6.13 6.13 0 00.68.56.25.25 0 01.09.2l-.2 1.73a.63.63 0 00.39.63l1.11.4a.62.62 0 00.7-.23l.95-1.44a.25.25 0 01.21-.1h.88a.26.26 0 01.2.1l1 1.45a.63.63 0 00.7.23l1.11-.4a.63.63 0 00.39-.63l-.2-1.71a.24.24 0 01.09-.22 5.27 5.27 0 00.68-.57.26.26 0 01.21 0l1.66.49a.6.6 0 00.69-.27l.59-1a.64.64 0 00-.11-.74l-1.25-1.18a.25.25 0 01-.06-.22 6.47 6.47 0 00.15-.88.3.3 0 01.12-.17l1.6-.69a.65.65 0 00.35-.65l-.21-1.16a.63.63 0 00-.55-.5l-1.72-.1a.26.26 0 01-.19-.13 6 6 0 00-.45-.77.26.26 0 010-.21l.77-1.55a.64.64 0 00-.15-.73l-.9-.76a.66.66 0 00-.74 0l-1.38 1a.33.33 0 01-.24 0 6.34 6.34 0 00-.83-.3.28.28 0 01-.15-.15l-.4-1.69a.63.63 0 00-.58-.46h-1.18a.63.63 0 00-.58.46l-.4 1.67a.26.26 0 01-.22.09z" transform="translate(-4.91 -2.65)"/><path class="cls-14" d="M269.65 93.61a5.08 5.08 0 105.07 5.09 5.07 5.07 0 00-5.07-5.07z" transform="translate(-4.91 -2.65)"/><rect class="cls-8" x="264.74" y="64.43" width="32.57" height="11.87" rx="2.83"/><path class="cls-12" d="M279.59 68.06h-1.45l.14-.68h1.45l-.14.68zM279.21 69.84h-2.4l.15-.69h2.4l-.15.69zM278.84 71.62h-3.35l.15-.69h3.34l-.14.69zM278.46 73.39h-4.29l.14-.68h4.3l-.15.68z"/><path class="cls-13" d="M267.91 67a8.29 8.29 0 00-.83.31.26.26 0 01-.21 0l-1.39-1a.66.66 0 00-.74 0l-.91.76a.64.64 0 00-.15.73l.77 1.54a.22.22 0 010 .22 6 6 0 00-.44.78.28.28 0 01-.18.12l-1.74.1a.65.65 0 00-.55.5l-.2 1.16a.61.61 0 00.35.65l1.58.68a.24.24 0 01.13.18 6.49 6.49 0 00.16.88.23.23 0 01-.06.21L262.23 76a.62.62 0 00-.1.73l.59 1a.6.6 0 00.69.27l1.64-.49a.24.24 0 01.23.06 6.13 6.13 0 00.68.56.25.25 0 01.09.2l-.2 1.73a.63.63 0 00.39.63l1.11.4a.62.62 0 00.7-.23l.95-1.46a.25.25 0 01.21-.1h.88a.26.26 0 01.2.1l1 1.45a.63.63 0 00.7.23l1.11-.4a.63.63 0 00.39-.63l-.2-1.71a.24.24 0 01.09-.22 5.27 5.27 0 00.68-.57.23.23 0 01.21 0l1.66.49a.6.6 0 00.69-.27l.59-1a.64.64 0 00-.11-.74l-1.25-1.18a.25.25 0 01-.06-.22 6.47 6.47 0 00.15-.88.3.3 0 01.12-.17l1.6-.69a.65.65 0 00.35-.65l-.25-1.24a.64.64 0 00-.55-.5l-1.72-.1a.26.26 0 01-.19-.13 6 6 0 00-.45-.77.26.26 0 010-.21l.77-1.55a.64.64 0 00-.15-.73l-.9-.76a.66.66 0 00-.74 0l-1.38 1a.33.33 0 01-.24 0 6.34 6.34 0 00-.83-.3.28.28 0 01-.15-.15l-.4-1.69a.63.63 0 00-.58-.46h-1.18a.63.63 0 00-.58.46l-.4 1.67a.26.26 0 01-.18.22z" transform="translate(-4.91 -2.65)"/><path class="cls-14" d="M269.65 67.94a5.08 5.08 0 105.07 5.06 5.07 5.07 0 00-5.07-5.06z" transform="translate(-4.91 -2.65)"/><rect class="cls-8" x="192.07" y="55.63" width="32.57" height="11.87" rx="2.83"/><path class="cls-12" d="M206.92 59.26h-1.45l.15-.69h1.45l-.15.69zM206.55 61.04h-2.4l.14-.69h2.4l-.14.69zM206.17 62.82h-3.34l.14-.69h3.35l-.15.69zM205.8 64.59h-4.3l.15-.68h4.29l-.14.68z"/><path class="cls-13" d="M195.25 58.19a6.34 6.34 0 00-.83.3.41.41 0 01-.22 0l-1.39-1a.66.66 0 00-.74 0l-.91.76a.65.65 0 00-.16.75l.77 1.54a.22.22 0 010 .22 7.44 7.44 0 00-.44.78.28.28 0 01-.18.12l-1.73.1a.65.65 0 00-.56.5l-.2 1.16a.61.61 0 00.33.6l1.58.68a.28.28 0 01.14.18 6.47 6.47 0 00.15.88.26.26 0 010 .21l-1.26 1.2a.62.62 0 00-.11.73l.59 1a.6.6 0 00.69.27l1.65-.49a.24.24 0 01.23.06 6 6 0 00.67.56.25.25 0 01.09.2l-.2 1.73a.63.63 0 00.39.63l1.11.4a.63.63 0 00.71-.23l.94-1.44a.25.25 0 01.21-.1h.88a.26.26 0 01.2.1l1 1.45a.63.63 0 00.7.23l1.11-.4a.63.63 0 00.39-.63l-.2-1.71a.31.31 0 01.09-.22 5.27 5.27 0 00.68-.57.26.26 0 01.21 0l1.66.49a.63.63 0 00.69-.27l.59-1a.64.64 0 00-.1-.74L203.15 66a.26.26 0 01-.07-.22 6.49 6.49 0 00.16-.88.26.26 0 01.12-.17L205 64a.62.62 0 00.35-.65l-.2-1.16a.65.65 0 00-.56-.5l-1.71-.1a.28.28 0 01-.2-.13 5.35 5.35 0 00-.45-.77.26.26 0 010-.21l.78-1.55a.65.65 0 00-.15-.73l-.91-.76a.66.66 0 00-.74 0l-1.38 1a.31.31 0 01-.23 0c-.27-.11-.55-.21-.83-.3a.23.23 0 01-.15-.15l-.41-1.69a.63.63 0 00-.58-.46h-1.18a.63.63 0 00-.58.46l-.4 1.67a.28.28 0 01-.22.22z" transform="translate(-4.91 -2.65)"/><path class="cls-14" d="M197 59.14a5.07 5.07 0 105.07 5.07 5.07 5.07 0 00-5.07-5.07z" transform="translate(-4.91 -2.65)"/><rect class="cls-8" x="132.91" y="74.19" width="32.57" height="11.87" rx="2.83"/><path class="cls-12" d="M147.76 77.83h-1.45l.14-.69h1.45l-.14.69zM147.38 79.61h-2.4l.15-.69h2.4l-.15.69zM147.01 81.38h-3.35l.15-.69h3.34l-.14.69zM146.63 83.16h-4.29l.14-.69h4.3l-.15.69z"/><path class="cls-13" d="M136.08 76.75a6.39 6.39 0 00-.83.31.26.26 0 01-.21 0l-1.39-1a.6.6 0 00-.74 0l-.91.76a.64.64 0 00-.15.73l.77 1.53a.24.24 0 010 .23 4.51 4.51 0 00-.44.77.29.29 0 01-.18.13l-1.74.1a.64.64 0 00-.55.49l-.2 1.17a.62.62 0 00.35.65l1.58.68a.27.27 0 01.13.18 6.49 6.49 0 00.16.88.26.26 0 01-.06.21l-1.26 1.19a.64.64 0 00-.11.74l.59 1a.63.63 0 00.69.27l1.65-.49a.24.24 0 01.23.06 6.13 6.13 0 00.68.56.25.25 0 01.09.2l-.23 1.7a.65.65 0 00.39.64l1.11.4a.63.63 0 00.7-.23l1-1.44a.26.26 0 01.21-.11h.88a.26.26 0 01.2.1l.95 1.44a.65.65 0 00.71.24l1.11-.41a.63.63 0 00.39-.63l-.2-1.71a.24.24 0 01.09-.21c.24-.18.46-.37.68-.57a.26.26 0 01.21-.06l1.66.5a.63.63 0 00.69-.27l.59-1a.62.62 0 00-.11-.73L144 84.54a.28.28 0 01-.07-.23 5.24 5.24 0 00.16-.88.25.25 0 01.12-.16l1.6-.69a.65.65 0 00.35-.65l-.16-1.17a.62.62 0 00-.55-.49l-1.72-.1a.26.26 0 01-.19-.13 6.06 6.06 0 00-.45-.78.23.23 0 010-.2l.77-1.55a.64.64 0 00-.15-.73l-.9-.76a.63.63 0 00-.74 0l-1.38 1a.26.26 0 01-.24 0 6.34 6.34 0 00-.83-.3.23.23 0 01-.15-.15l-.4-1.69a.63.63 0 00-.58-.46h-1.18a.62.62 0 00-.58.46l-.4 1.67a.26.26 0 01-.25.2z" transform="translate(-4.91 -2.65)"/><path class="cls-14" d="M137.82 77.71a5.07 5.07 0 105.07 5.07 5.07 5.07 0 00-5.07-5.07z" transform="translate(-4.91 -2.65)"/><path class="cls-15" d="M134.85 20.71h-11.17a5.94 5.94 0 000 11.87h11.17a2.83 2.83 0 002.83-2.83v-6.21a2.83 2.83 0 00-2.83-2.83z" transform="translate(-4.91 -2.65)"/><path class="cls-8" d="M128 26.65a4.35 4.35 0 01-8.69 0 4.53 4.53 0 01.31-1.62.46.46 0 01.62-.2.48.48 0 01.23.54 3.32 3.32 0 00-.25 1.28 3.44 3.44 0 105-3 .45.45 0 11.42-.8 4.32 4.32 0 012.36 3.8zm-4.35-3A.67.67 0 10123 23a.67.67 0 00.68.64zm0 3.68a.67.67 0 00.35-1.23l-3.58-2.65 2.71 3.55a.63.63 0 00.55.32z" transform="translate(-4.91 -2.65)"/><path class="cls-15" d="M171.65 20.71h-11.17a5.94 5.94 0 000 11.87h11.17a2.83 2.83 0 002.83-2.83v-6.21a2.83 2.83 0 00-2.83-2.83z" transform="translate(-4.91 -2.65)"/><path class="cls-8" d="M164.83 26.65a4.35 4.35 0 01-8.69 0 4.53 4.53 0 01.31-1.62.46.46 0 01.62-.2.48.48 0 01.23.54 3.32 3.32 0 00-.25 1.28 3.43 3.43 0 105-3 .45.45 0 01.42-.8 4.32 4.32 0 012.36 3.8zm-4.35-3a.67.67 0 10-.67-.67.67.67 0 00.67.66zm0 3.68a.67.67 0 00.37-1.23l-3.58-2.65 2.65 3.55a.65.65 0 00.56.32z" transform="translate(-4.91 -2.65)"/><path class="cls-15" d="M191.87 175.07H180.7a5.94 5.94 0 000 11.88h11.17a2.85 2.85 0 002.83-2.84v-6.2a2.85 2.85 0 00-2.83-2.84z" transform="translate(-4.91 -2.65)"/><path class="cls-8" d="M185.05 181a4.35 4.35 0 11-8.7.05 4.5 4.5 0 01.32-1.66.46.46 0 11.89.22.49.49 0 010 .11 3.51 3.51 0 00-.25 1.28 3.44 3.44 0 105-3 .46.46 0 01-.19-.62.45.45 0 01.61-.19 4.34 4.34 0 012.32 3.81zm-4.35-3a.67.67 0 10-.66-.68.67.67 0 00.66.68zm0 3.68a.67.67 0 00.67-.67.68.68 0 00-.3-.56l-3.58-2.65 2.66 3.58a.65.65 0 00.55.3z" transform="translate(-4.91 -2.65)"/><rect class="cls-15" x="285.43" y="132.46" width="11.87" height="11.87" rx="2.83"/><rect class="cls-15" x="10.5" y="153.86" width="11.87" height="11.87" rx="2.83"/><path class="cls-8" d="M287.71 140.09l-.63 2.4h8.59l-.63-2.4h-7.33zM288.37 134.27l-1.29 4.92h8.59l-1.3-4.92h-6z"/><rect class="cls-15" x="85.1" y="91.74" width="11.87" height="11.87" rx="2.83"/><path class="cls-8" d="M87.37 99.38l-.63 2.39h8.6l-.64-2.39h-7.33zM88.03 93.56l-1.29 4.92h8.6l-1.3-4.92h-6.01z"/><rect class="cls-8" x="82.84" y="74.19" width="32.57" height="11.87" rx="2.83"/><path class="cls-12" d="M97.7 77.83h-1.46l.15-.69h1.45l-.14.69zM97.32 79.6h-2.4l.15-.68h2.4l-.15.68zM96.95 81.38H93.6l.14-.69h3.35l-.14.69zM96.57 83.16h-4.29l.14-.69h4.3l-.15.69z"/><path class="cls-13" d="M86 76.75a6.39 6.39 0 00-.83.31A.27.27 0 0185 77l-1.4-1a.63.63 0 00-.74 0l-.9.76a.64.64 0 00-.15.73l.75 1.51a.31.31 0 010 .23 5.35 5.35 0 00-.45.77.24.24 0 01-.18.13l-1.73.1a.64.64 0 00-.55.49l-.21 1.17a.65.65 0 00.35.65l1.58.68a.28.28 0 01.14.18 6.49 6.49 0 00.16.88.26.26 0 01-.06.21l-1.26 1.19a.64.64 0 00-.11.74l.59 1a.63.63 0 00.69.27l1.65-.49a.24.24 0 01.23.06 7.1 7.1 0 00.67.56.26.26 0 01.1.2L84 89.8a.65.65 0 00.39.64l1.1.4a.65.65 0 00.71-.23l.94-1.44a.27.27 0 01.22-.11h.88a.26.26 0 01.2.1l1 1.44a.62.62 0 00.7.24l1.11-.41a.63.63 0 00.39-.63l-.19-1.71a.24.24 0 01.09-.22 6 6 0 00.67-.56.26.26 0 01.21-.06l1.67.5a.63.63 0 00.69-.27l.59-1a.62.62 0 00-.11-.73L94 84.57a.28.28 0 01-.07-.23 6.49 6.49 0 00.16-.88.25.25 0 01.12-.16l1.59-.69a.65.65 0 00.36-.65l-.21-1.17a.62.62 0 00-.55-.49l-1.72-.1a.28.28 0 01-.2-.13 7.44 7.44 0 00-.44-.78.23.23 0 010-.2l.78-1.55a.64.64 0 00-.15-.73l-.9-.76a.63.63 0 00-.74 0l-1.39 1a.24.24 0 01-.23 0 6.34 6.34 0 00-.83-.3.23.23 0 01-.15-.15L89 74.91a.62.62 0 00-.58-.46h-1.26a.63.63 0 00-.58.46l-.4 1.67a.23.23 0 01-.18.17z" transform="translate(-4.91 -2.65)"/><path class="cls-14" d="M87.75 77.71a5.07 5.07 0 105.07 5.07 5.07 5.07 0 00-5.07-5.07z" transform="translate(-4.91 -2.65)"/><path class="cls-16" d="M43.22 175.07H19.35l-.05-.07-.9-.76a.63.63 0 00-.74 0l-1.14.84h-.2a2.74 2.74 0 00-.64.08l-.47-.17a.23.23 0 01-.15-.15l-.41-1.69a.63.63 0 00-.58-.46h-1.18a.63.63 0 00-.58.46l-.4 1.67a.23.23 0 01-.16.17 8.29 8.29 0 00-.83.31.26.26 0 01-.21 0l-1.4-1a.63.63 0 00-.74 0l-.9.76a.64.64 0 00-.15.73l.77 1.53a.31.31 0 010 .23 5.35 5.35 0 00-.45.77.23.23 0 01-.18.13l-1.73.1a.64.64 0 00-.55.49l-.21 1.17a.65.65 0 00.35.65l1.58.68a.28.28 0 01.14.18 6.49 6.49 0 00.16.88.26.26 0 01-.06.21L6.07 184a.64.64 0 00-.11.74l.59 1a.63.63 0 00.69.27l1.65-.49a.24.24 0 01.23.06 7.1 7.1 0 00.67.56.26.26 0 01.1.2l-.2 1.66a.65.65 0 00.39.64l1.1.4a.65.65 0 00.71-.23l.94-1.44a.27.27 0 01.22-.11 3.09 3.09 0 00.43 0h.44a.28.28 0 01.21.1l.95 1.44a.62.62 0 00.7.24l1.11-.41a.63.63 0 00.39-.63l-.12-1h26.06a2.85 2.85 0 002.84-2.84V178a2.86 2.86 0 00-2.81-2.89zM43.22 136.74H19.35a.06.06 0 00-.05-.06l-.9-.76a.63.63 0 00-.74 0l-1.14.84h-.2a2.74 2.74 0 00-.64.08 3.75 3.75 0 00-.47-.17.26.26 0 01-.15-.16l-.41-1.68a.63.63 0 00-.58-.46h-1.18a.63.63 0 00-.58.46l-.4 1.67a.25.25 0 01-.16.17 6.34 6.34 0 00-.83.3.2.2 0 01-.21 0l-1.4-1a.63.63 0 00-.74 0l-.9.76a.6.6 0 00-.15.72l.77 1.55a.31.31 0 010 .23 5.35 5.35 0 00-.45.77.24.24 0 01-.18.13l-1.73.1a.61.61 0 00-.55.49l-.21 1.16a.67.67 0 00.35.66l1.58.68a.28.28 0 01.14.18 6.64 6.64 0 00.16.87.29.29 0 01-.06.22l-1.26 1.19a.62.62 0 00-.11.73l.59 1a.63.63 0 00.69.27l1.65-.49a.27.27 0 01.23 0 5.18 5.18 0 00.67.57.26.26 0 01.1.2l-.2 1.72a.63.63 0 00.39.63l1.1.41a.65.65 0 00.71-.24l.94-1.43a.27.27 0 01.22-.11h.87a.24.24 0 01.21.09l.95 1.45a.64.64 0 00.7.24l1.11-.41a.63.63 0 00.39-.63l-.12-1.09h26.05a2.85 2.85 0 002.84-2.83v-6.21a2.85 2.85 0 00-2.84-2.81zM43.22 113.07H19.35l-.05-.07-.9-.76a.63.63 0 00-.74 0l-1.14.84h-.2a3.4 3.4 0 00-.64.08l-.47-.17a.23.23 0 01-.15-.15l-.41-1.69a.63.63 0 00-.58-.46h-1.18a.63.63 0 00-.58.46l-.4 1.67a.23.23 0 01-.16.17 8.29 8.29 0 00-.83.31.26.26 0 01-.21 0l-1.4-1a.66.66 0 00-.74 0l-.9.76a.64.64 0 00-.15.73l.77 1.54a.28.28 0 010 .22 6 6 0 00-.45.77.23.23 0 01-.18.13l-1.73.1a.64.64 0 00-.55.49l-.21 1.17a.65.65 0 00.35.65l1.58.68a.28.28 0 01.14.18 6.49 6.49 0 00.16.88.26.26 0 01-.06.21L6.07 122a.64.64 0 00-.11.74l.59 1a.63.63 0 00.69.27l1.65-.49a.24.24 0 01.23.06 7.1 7.1 0 00.67.56.26.26 0 01.1.2l-.2 1.66a.65.65 0 00.39.64l1.1.4a.65.65 0 00.71-.23l.94-1.44a.27.27 0 01.22-.11h.87a.28.28 0 01.21.1l.95 1.44a.62.62 0 00.7.24l1.11-.41a.63.63 0 00.39-.63l-.12-1h26.06a2.85 2.85 0 002.84-2.84V116a2.86 2.86 0 00-2.81-2.89zM43.22 84.49H19.35l-.05-.07-.9-.76a.66.66 0 00-.74 0l-1.14.85h-.2a2.74 2.74 0 00-.64.08c-.16-.06-.31-.13-.47-.18a.23.23 0 01-.15-.15l-.41-1.69a.63.63 0 00-.58-.46h-1.18a.63.63 0 00-.58.46l-.4 1.68a.25.25 0 01-.16.17 6.34 6.34 0 00-.83.3.2.2 0 01-.21 0l-1.4-1a.66.66 0 00-.74 0l-.9.76a.64.64 0 00-.15.73l.77 1.54a.28.28 0 010 .22 6.06 6.06 0 00-.45.78.23.23 0 01-.18.12L5.93 88a.61.61 0 00-.55.49l-.21 1.16a.65.65 0 00.35.65l1.58.7a.26.26 0 01.14.17 6.49 6.49 0 00.16.83.26.26 0 01-.06.21l-1.26 1.2a.61.61 0 00-.08.69l.59 1a.6.6 0 00.69.27l1.65-.49a.27.27 0 01.23.06 7.1 7.1 0 00.67.56.26.26 0 01.1.2l-.2 1.73a.63.63 0 00.39.63l1.1.4a.63.63 0 00.71-.23l.94-1.44a.26.26 0 01.22-.1H14a.28.28 0 01.21.1l.95 1.45a.63.63 0 00.7.23l1.11-.4a.63.63 0 00.39-.63l-.12-1.09h26a2.85 2.85 0 002.84-2.83v-6.2a2.85 2.85 0 00-2.86-2.83zM75 64l1.58.68a.29.29 0 01.13.18 6.49 6.49 0 00.16.88.26.26 0 01-.06.21l-1.26 1.19a.64.64 0 00-.11.74l.59 1a.6.6 0 00.69.27l1.65-.49a.24.24 0 01.23.06 7.1 7.1 0 00.67.56.26.26 0 01.1.2l-.2 1.73a.63.63 0 00.39.63l1.1.4a.63.63 0 00.71-.23l.94-1.44a.26.26 0 01.22-.1h.88a.26.26 0 01.2.1l1 1.45a.63.63 0 00.7.23l1.11-.4a.63.63 0 00.39-.63l-.12-1.09h26a2.86 2.86 0 002.84-2.83v-6.19a2.85 2.85 0 00-2.84-2.84H88.83v-.06l-.9-.76a.63.63 0 00-.74 0l-1.19.82h-.2a3.4 3.4 0 00-.64.08l-.47-.17a.23.23 0 01-.15-.15l-.41-1.69a.63.63 0 00-.58-.46h-1.18a.63.63 0 00-.58.46l-.4 1.66a.23.23 0 01-.16.17 8.29 8.29 0 00-.83.31.26.26 0 01-.21 0l-1.4-1a.66.66 0 00-.74 0l-.9.76A.64.64 0 0077 59l.77 1.54a.28.28 0 010 .22 6.06 6.06 0 00-.45.78.23.23 0 01-.18.12l-1.73.1a.64.64 0 00-.55.49l-.21 1.17A.64.64 0 0075 64zM137.21 38.3l-.41-1.69a.63.63 0 00-.58-.46H135a.63.63 0 00-.58.46l-.4 1.67a.23.23 0 01-.16.17 8.29 8.29 0 00-.83.31.41.41 0 01-.22 0l-1.39-1a.66.66 0 00-.74 0l-.9.76a.65.65 0 00-.16.73l.77 1.54a.22.22 0 010 .22 7.44 7.44 0 00-.44.78.28.28 0 01-.18.12L128 42a.65.65 0 00-.56.5l-.2 1.16a.61.61 0 00.35.65l1.58.68a.28.28 0 01.14.18 6.47 6.47 0 00.15.88.23.23 0 01-.05.21l-1.26 1.2a.62.62 0 00-.11.73l.59 1a.6.6 0 00.69.27L131 49a.24.24 0 01.23.06 6 6 0 00.67.56.25.25 0 01.09.2l-.2 1.73a.63.63 0 00.39.63l1.11.4a.65.65 0 00.71-.23l.94-1.44a.25.25 0 01.21-.1h.85a.26.26 0 01.2.1l1 1.45a.63.63 0 00.7.23l1.11-.4a.63.63 0 00.39-.63l-.13-1.09h26.07a2.85 2.85 0 002.83-2.84v-6.2a2.83 2.83 0 00-2.83-2.83H141.5l-.05-.07-.91-.76a.66.66 0 00-.74 0l-1.13.85h-.2a3.39 3.39 0 00-.64.07l-.47-.17a.23.23 0 01-.15-.22zM210.54 119.92v-6.21a2.85 2.85 0 00-2.84-2.83h-23.87l-.05-.06-.9-.76a.63.63 0 00-.74 0l-1.14.85h-.2a2.74 2.74 0 00-.64.08 3.75 3.75 0 00-.47-.17.29.29 0 01-.15-.16l-.4-1.69a.63.63 0 00-.58-.46h-1.18a.64.64 0 00-.59.46l-.39 1.68a.29.29 0 01-.17.17 6.34 6.34 0 00-.83.3.2.2 0 01-.21 0l-1.4-1a.63.63 0 00-.74 0l-.9.76a.6.6 0 00-.15.72l.77 1.54a.28.28 0 010 .22 6 6 0 00-.44.78.23.23 0 01-.18.12l-1.74.11a.62.62 0 00-.55.49l-.2 1.16a.61.61 0 00.35.65l1.58.69a.24.24 0 01.13.18 6.64 6.64 0 00.16.87.29.29 0 01-.06.22l-1.26 1.19a.62.62 0 00-.11.73l.59 1a.63.63 0 00.69.27l1.65-.49a.31.31 0 01.23 0c.21.2.44.39.67.57a.2.2 0 01.1.2l-.2 1.72a.63.63 0 00.39.63l1.1.4a.63.63 0 00.71-.23l1-1.44a.28.28 0 01.21-.1h.88a.25.25 0 01.2.09l.95 1.45a.63.63 0 00.71.23l1.11-.4a.61.61 0 00.38-.63l-.12-1.09h26a2.84 2.84 0 002.84-2.81zM43.22 40.49H19.35l-.05-.07-.9-.76a.66.66 0 00-.74 0l-1.14.85h-.2a2.74 2.74 0 00-.64.08c-.16-.06-.31-.13-.47-.18a.23.23 0 01-.15-.15l-.41-1.69a.63.63 0 00-.58-.46h-1.18a.63.63 0 00-.58.46l-.4 1.68a.25.25 0 01-.16.17 6.34 6.34 0 00-.83.3.2.2 0 01-.21 0l-1.4-1a.66.66 0 00-.74 0l-.9.76a.64.64 0 00-.15.73l.77 1.54a.28.28 0 010 .22 6.06 6.06 0 00-.45.78.23.23 0 01-.18.12L5.93 44a.61.61 0 00-.55.49l-.21 1.16a.65.65 0 00.35.65l1.58.7a.26.26 0 01.14.17 6.49 6.49 0 00.16.83.26.26 0 01-.06.21l-1.26 1.2a.61.61 0 00-.08.69l.59 1a.6.6 0 00.69.27l1.65-.49a.27.27 0 01.23.06 7.1 7.1 0 00.67.56.26.26 0 01.1.2l-.2 1.73a.63.63 0 00.39.63l1.1.4a.63.63 0 00.71-.23l.94-1.44a.26.26 0 01.22-.1H14a.28.28 0 01.21.1l.95 1.45a.63.63 0 00.7.23l1.11-.4a.63.63 0 00.39-.63l-.12-1.09h26a2.85 2.85 0 002.84-2.83v-6.2a2.85 2.85 0 00-2.86-2.83zM43.22 18.82H19.35a.06.06 0 00-.05-.06l-.9-.76a.63.63 0 00-.74 0l-1.14.84h-.2a2.74 2.74 0 00-.64.08 3.75 3.75 0 00-.47-.17.26.26 0 01-.15-.16l-.41-1.68a.63.63 0 00-.58-.46h-1.18a.63.63 0 00-.58.46l-.4 1.67a.25.25 0 01-.16.17 6.34 6.34 0 00-.83.3.2.2 0 01-.21 0l-1.4-1a.63.63 0 00-.74 0l-.9.76a.6.6 0 00-.15.72L8.29 21a.31.31 0 010 .23 5.35 5.35 0 00-.45.77.24.24 0 01-.18.13l-1.73.1a.61.61 0 00-.55.49l-.22 1.18a.67.67 0 00.35.66l1.58.68a.28.28 0 01.14.18 6.64 6.64 0 00.16.87.29.29 0 01-.06.22L6.07 27.7a.62.62 0 00-.11.73l.59 1a.63.63 0 00.69.27l1.65-.49a.27.27 0 01.23.05c.21.2.44.39.67.57a.26.26 0 01.1.2l-.2 1.72a.63.63 0 00.39.63l1.1.41a.65.65 0 00.71-.24l.94-1.43a.27.27 0 01.22-.11h.87a.24.24 0 01.21.09l.95 1.45a.64.64 0 00.7.24l1.11-.41a.63.63 0 00.39-.63l-.12-1.09h26.06a2.85 2.85 0 002.84-2.83v-6.18a2.86 2.86 0 00-2.84-2.83zM97.14 11l1.58.68a.28.28 0 01.14.18 6.64 6.64 0 00.16.87.29.29 0 01-.02.27l-1.3 1.15a.62.62 0 00-.11.73l.59 1a.63.63 0 00.69.27l1.65-.49a.27.27 0 01.23.05c.21.2.44.39.67.57a.22.22 0 01.09.2l-.19 1.72a.63.63 0 00.38.63l1.11.41a.65.65 0 00.71-.24l.94-1.43a.27.27 0 01.22-.11h.87a.22.22 0 01.2.09l1 1.45a.64.64 0 00.7.24l1.11-.41a.63.63 0 00.39-.63l-.12-1.09h26.06a2.83 2.83 0 002.83-2.83V8.11a2.85 2.85 0 00-2.83-2.84H111v-.06l-.9-.76a.63.63 0 00-.74 0l-1.14.84H108a2.74 2.74 0 00-.64.08 3.75 3.75 0 00-.47-.17.26.26 0 01-.15-.16l-.41-1.68a.63.63 0 00-.58-.46h-1.18a.63.63 0 00-.58.46L103.54 5a.25.25 0 01-.16.17 6.34 6.34 0 00-.83.3.2.2 0 01-.21 0l-1.4-1a.63.63 0 00-.74 0l-.9.76a.6.6 0 00-.15.72l.77 1.54a.31.31 0 010 .23 5.35 5.35 0 00-.45.77.24.24 0 01-.18.13l-1.73.1a.62.62 0 00-.55.49l-.21 1.16a.65.65 0 00.34.63zM179.21 11l1.58.68a.24.24 0 01.13.18 6.64 6.64 0 00.16.87.3.3 0 01-.08.27l-1.26 1.19a.62.62 0 00-.11.73l.59 1a.65.65 0 00.69.27l1.65-.49a.27.27 0 01.23.05c.22.2.44.39.68.57a.25.25 0 01.09.2l-.2 1.72a.62.62 0 00.39.63l1.11.41a.64.64 0 00.7-.24l.95-1.43a.26.26 0 01.21-.11h.88a.25.25 0 01.2.09l1 1.45a.65.65 0 00.71.24l1.11-.41a.66.66 0 00.39-.63l-.13-1.09h26.06a2.85 2.85 0 002.84-2.83V8.11a2.85 2.85 0 00-2.84-2.84H193v-.06l-.9-.76a.63.63 0 00-.74 0l-1.14.84H190a2.74 2.74 0 00-.64.08 2.64 2.64 0 00-.47-.17.26.26 0 01-.15-.16l-.4-1.68a.63.63 0 00-.58-.46h-1.19a.63.63 0 00-.58.46L185.61 5a.29.29 0 01-.17.17 6.34 6.34 0 00-.83.3.2.2 0 01-.21 0l-1.4-1a.63.63 0 00-.74 0l-.9.76a.6.6 0 00-.15.72l.79 1.52a.31.31 0 010 .23 4.51 4.51 0 00-.44.77.29.29 0 01-.19.13l-1.73.1a.62.62 0 00-.55.49l-.21 1.16a.66.66 0 00.33.65zM97.56 175.07H73.69V175l-.9-.76a.63.63 0 00-.74 0l-1.14.84h-.2a2.74 2.74 0 00-.64.08l-.47-.16a.23.23 0 01-.15-.15l-.45-1.71a.62.62 0 00-.58-.46h-1.19a.63.63 0 00-.58.46l-.4 1.67a.23.23 0 01-.16.17 8.29 8.29 0 00-.83.31.26.26 0 01-.21 0l-1.4-1a.63.63 0 00-.74 0L62 175a.64.64 0 00-.15.73l.77 1.53a.31.31 0 010 .23 5.35 5.35 0 00-.45.77.23.23 0 01-.18.13l-1.73.1a.64.64 0 00-.55.49l-.21 1.17a.65.65 0 00.35.65l1.58.68a.28.28 0 01.14.18 6.49 6.49 0 00.16.88.26.26 0 01-.06.21L60.41 184a.64.64 0 00-.11.74l.59 1a.63.63 0 00.69.27l1.65-.49a.24.24 0 01.23.06 7.1 7.1 0 00.67.56.22.22 0 01.1.2L64 188a.65.65 0 00.39.64l1.1.4a.65.65 0 00.71-.23l.94-1.44a.27.27 0 01.22-.11 3.09 3.09 0 00.43 0h.45a.26.26 0 01.2.1l1 1.44a.62.62 0 00.7.24l1.11-.41a.63.63 0 00.39-.63l-.14-1h26.06a2.85 2.85 0 002.84-2.84V178a2.86 2.86 0 00-2.81-2.89zM151.9 175.07H128V175l-.9-.76a.63.63 0 00-.74 0l-1.14.84H125a2.74 2.74 0 00-.64.08l-.47-.17a.23.23 0 01-.15-.15l-.41-1.69a.62.62 0 00-.58-.46h-1.18a.63.63 0 00-.58.46l-.4 1.67a.23.23 0 01-.16.17 8.29 8.29 0 00-.83.31.26.26 0 01-.21 0l-1.4-1a.63.63 0 00-.74 0l-.9.76a.64.64 0 00-.15.73l.77 1.53a.31.31 0 010 .23 6 6 0 00-.45.77.23.23 0 01-.18.13l-1.73.1a.64.64 0 00-.55.49l-.21 1.17a.64.64 0 00.36.65l1.58.68a.27.27 0 01.13.18 6.49 6.49 0 00.16.88.26.26 0 01-.06.21l-1.27 1.19a.64.64 0 00-.11.74l.59 1a.63.63 0 00.69.27l1.65-.49a.24.24 0 01.23.06 7.1 7.1 0 00.67.56.22.22 0 01.1.2l-.2 1.72a.65.65 0 00.39.64l1.1.4a.65.65 0 00.71-.23l.94-1.44a.27.27 0 01.22-.11 3.09 3.09 0 00.43 0h.45a.26.26 0 01.2.1l1 1.44a.65.65 0 00.71.24l1.11-.41a.63.63 0 00.37-.69l-.12-1.08h26a2.85 2.85 0 002.84-2.84v-6.2a2.86 2.86 0 00-2.82-2.81zM115 156.8a.63.63 0 00.7-.23l1-1.44a.26.26 0 01.21-.11h.88a.26.26 0 01.2.1l1 1.44a.62.62 0 00.7.24l1.11-.41a.63.63 0 00.39-.63l-.13-1.08H147a2.85 2.85 0 002.83-2.84v-6.2a2.85 2.85 0 00-2.83-2.84h-23.83v-.06l-.91-.76a.63.63 0 00-.74 0l-1.13.84h-.21a3.4 3.4 0 00-.63.08c-.16-.06-.31-.12-.48-.17a.28.28 0 01-.15-.15l-.4-1.69a.63.63 0 00-.58-.46h-1.18a.63.63 0 00-.58.46l-.4 1.67a.25.25 0 01-.16.17 8.29 8.29 0 00-.83.31.28.28 0 01-.22 0l-1.39-1a.66.66 0 00-.74 0l-.91.76a.65.65 0 00-.15.73l.77 1.54a.22.22 0 010 .22 5.88 5.88 0 00-.44.77.24.24 0 01-.18.13l-1.73.1a.66.66 0 00-.56.49L109 148a.62.62 0 00.35.65l1.58.68a.28.28 0 01.14.18 6.47 6.47 0 00.15.88.26.26 0 010 .21l-1.22 1.14a.64.64 0 00-.11.74l.59 1a.63.63 0 00.69.27l1.65-.49a.23.23 0 01.22.06 7.22 7.22 0 00.68.56.25.25 0 01.09.2l-.2 1.72a.66.66 0 00.39.64zM197.37 142.8H173.5l-.05-.06-.9-.76a.63.63 0 00-.74 0l-1.14.84h-.2a3.4 3.4 0 00-.64.08l-.47-.17a.23.23 0 01-.15-.15l-.41-1.69a.63.63 0 00-.58-.46H167a.63.63 0 00-.58.46l-.4 1.67a.23.23 0 01-.16.17 8.29 8.29 0 00-.83.31.26.26 0 01-.21 0l-1.4-1a.66.66 0 00-.74 0l-.9.76a.64.64 0 00-.15.73l.77 1.54a.28.28 0 010 .22 7.3 7.3 0 00-.44.77.23.23 0 01-.18.13l-1.73.1a.64.64 0 00-.55.49l-.21 1.17a.65.65 0 00.35.65l1.58.68a.28.28 0 01.14.18 6.49 6.49 0 00.16.88.26.26 0 01-.06.21l-1.26 1.19a.64.64 0 00-.11.74l.59 1a.63.63 0 00.69.27l1.65-.49a.24.24 0 01.23.06 7.1 7.1 0 00.67.56.22.22 0 01.09.2l-.19 1.72a.65.65 0 00.39.64l1.1.4a.65.65 0 00.71-.23l.94-1.44a.27.27 0 01.22-.11h.88a.23.23 0 01.19.1l1 1.44a.62.62 0 00.7.24l1.11-.41a.62.62 0 00.39-.63l-.12-1.08h26.06a2.85 2.85 0 002.83-2.84v-6.2a2.84 2.84 0 00-2.8-2.88zM247.7 154.68a2.85 2.85 0 002.84-2.84v-6.2a2.85 2.85 0 00-2.84-2.84h-23.87l-.05-.06-.9-.76a.63.63 0 00-.74 0l-1.14.84h-.2a3.4 3.4 0 00-.64.08l-.47-.17a.28.28 0 01-.15-.15l-.4-1.69a.63.63 0 00-.58-.46h-1.18a.64.64 0 00-.59.46l-.39 1.67a.29.29 0 01-.17.17 8.29 8.29 0 00-.83.31.26.26 0 01-.21 0l-1.4-1a.66.66 0 00-.74 0l-.9.76a.64.64 0 00-.15.73l.77 1.54a.28.28 0 010 .22 5.88 5.88 0 00-.44.77.24.24 0 01-.18.13l-1.74.1a.64.64 0 00-.55.49l-.2 1.17a.62.62 0 00.35.65l1.58.68a.29.29 0 01.13.18 6.49 6.49 0 00.16.88.26.26 0 01-.06.21l-1.26 1.19a.64.64 0 00-.11.74l.59 1a.63.63 0 00.69.27l1.65-.49a.24.24 0 01.23.06 7.1 7.1 0 00.67.56.22.22 0 01.1.2l-.2 1.72a.65.65 0 00.39.64l1.1.4a.65.65 0 00.71-.23l1-1.44a.26.26 0 01.21-.11h.88a.26.26 0 01.2.1l.95 1.44a.65.65 0 00.71.24l1.11-.41a.61.61 0 00.38-.63l-.12-1.08zM268.34 183.07h-23.87l-.05-.06-.91-.76a.63.63 0 00-.74 0l-1.13.84h-.2a2.74 2.74 0 00-.64.08l-.47-.17a.26.26 0 01-.16-.15l-.4-1.69a.63.63 0 00-.58-.46H238a.63.63 0 00-.58.46l-.4 1.67a.25.25 0 01-.16.17 8.29 8.29 0 00-.83.31.28.28 0 01-.22 0l-1.39-1a.63.63 0 00-.74 0l-.91.76a.65.65 0 00-.15.73l.77 1.53a.24.24 0 010 .23 7.3 7.3 0 00-.44.77.24.24 0 01-.18.13l-1.73.1a.66.66 0 00-.56.49l-.2 1.17a.62.62 0 00.35.65l1.58.68a.28.28 0 01.14.18 6.47 6.47 0 00.15.88.23.23 0 01-.05.21l-1.26 1.18a.64.64 0 00-.11.74l.59 1a.6.6 0 00.69.27l1.65-.49a.24.24 0 01.23.06 6 6 0 00.67.56.25.25 0 01.09.2l-.2 1.72a.66.66 0 00.39.64l1.11.4a.63.63 0 00.7-.23l.95-1.44a.26.26 0 01.21-.11 3.23 3.23 0 00.44 0h.4a.26.26 0 01.2.1l1 1.45a.63.63 0 00.7.23l1.11-.4a.66.66 0 00.39-.64l-.13-1.08h26.07a2.85 2.85 0 002.83-2.84v-6.2a2.84 2.84 0 00-2.81-2.87zM299.38 165.71h-23.86l-.06-.07-.9-.75a.63.63 0 00-.74 0l-1.14.85h-.2a2.72 2.72 0 00-.63.08c-.16-.06-.31-.13-.48-.18a.28.28 0 01-.15-.15l-.4-1.69a.63.63 0 00-.58-.46h-1.18a.63.63 0 00-.58.46l-.4 1.68a.29.29 0 01-.17.17 6.34 6.34 0 00-.83.3.2.2 0 01-.21 0l-1.39-1a.63.63 0 00-.74 0l-.91.75a.64.64 0 00-.15.73l.77 1.54a.22.22 0 010 .22 6 6 0 00-.44.78.23.23 0 01-.18.12l-1.74.11a.64.64 0 00-.55.49l-.2 1.16a.61.61 0 00.35.65l1.58.69a.23.23 0 01.13.18 6.64 6.64 0 00.16.87.25.25 0 01-.06.22l-1.26 1.19a.62.62 0 00-.1.73l.59 1a.63.63 0 00.69.28l1.64-.49a.27.27 0 01.23.05 6.13 6.13 0 00.68.56.27.27 0 01.09.21l-.2 1.72a.63.63 0 00.39.63l1.11.4a.62.62 0 00.7-.23L269 178a.28.28 0 01.21-.1h.88a.26.26 0 01.2.1l1 1.45a.62.62 0 00.7.23l1.11-.4a.63.63 0 00.39-.63l-.13-1.09h26.06a2.85 2.85 0 002.84-2.83v-6.21a2.84 2.84 0 00-2.87-2.81zM299.38 118.37h-23.86l-.06-.06-.9-.76a.63.63 0 00-.74 0l-1.14.84h-.2a2.72 2.72 0 00-.63.08c-.16-.06-.31-.12-.48-.17a.28.28 0 01-.15-.15l-.4-1.69a.63.63 0 00-.58-.46h-1.18a.63.63 0 00-.58.46l-.4 1.67a.29.29 0 01-.17.17 8.29 8.29 0 00-.83.31.26.26 0 01-.21 0l-1.39-1a.66.66 0 00-.74 0l-.91.76a.64.64 0 00-.15.73l.77 1.54a.22.22 0 010 .22 5.88 5.88 0 00-.44.77.24.24 0 01-.18.13l-1.74.1a.64.64 0 00-.55.49l-.2 1.17a.62.62 0 00.35.65l1.58.68a.24.24 0 01.13.18 6.49 6.49 0 00.16.88.26.26 0 01-.06.21l-1.26 1.19a.64.64 0 00-.1.74l.59 1a.63.63 0 00.69.27l1.64-.49a.24.24 0 01.23.06 6.13 6.13 0 00.68.56.25.25 0 01.09.2l-.2 1.72a.66.66 0 00.39.64l1.11.4a.63.63 0 00.7-.23l.95-1.44a.26.26 0 01.21-.11h.88a.26.26 0 01.2.1l1 1.45a.63.63 0 00.7.23l1.11-.4a.66.66 0 00.39-.64l-.13-1.08h26.06a2.85 2.85 0 002.84-2.84v-6.2a2.86 2.86 0 00-2.82-2.88zM299.38 92.75h-23.86l-.06-.07-.9-.76a.66.66 0 00-.74 0l-1.14.85h-.2a3.38 3.38 0 00-.63.07c-.16 0-.31-.12-.48-.17a.28.28 0 01-.15-.15l-.4-1.69a.63.63 0 00-.58-.46h-1.18a.63.63 0 00-.58.46l-.4 1.67a.29.29 0 01-.17.17 8.29 8.29 0 00-.83.31.26.26 0 01-.21 0l-1.39-1a.66.66 0 00-.74 0l-.91.76a.64.64 0 00-.15.73l.77 1.54a.22.22 0 010 .22 6 6 0 00-.45.77.28.28 0 01-.18.12l-1.74.1a.65.65 0 00-.55.5l-.2 1.16a.61.61 0 00.35.65l1.58.68a.24.24 0 01.13.18 6.49 6.49 0 00.16.88.23.23 0 01-.06.21l-1.26 1.2a.62.62 0 00-.1.73l.59 1a.6.6 0 00.69.27l1.64-.49a.24.24 0 01.23.06 6.13 6.13 0 00.68.56.25.25 0 01.09.2l-.2 1.73a.63.63 0 00.39.63l1.11.4a.62.62 0 00.7-.23l.95-1.44a.25.25 0 01.21-.1h.88a.26.26 0 01.2.1l1 1.45a.63.63 0 00.7.23l1.11-.4a.63.63 0 00.39-.63l-.13-1.09h26.06a2.85 2.85 0 002.84-2.83v-6.25a2.84 2.84 0 00-2.85-2.83zM299.38 67.08h-23.86l-.06-.07-.9-.76a.66.66 0 00-.74 0l-1.14.85h-.2a3.38 3.38 0 00-.63.07c-.16 0-.31-.12-.48-.17a.28.28 0 01-.15-.15l-.4-1.69a.63.63 0 00-.58-.46h-1.18a.63.63 0 00-.58.46l-.4 1.67a.29.29 0 01-.17.17 8.29 8.29 0 00-.83.31.26.26 0 01-.21 0l-1.39-1a.66.66 0 00-.74 0l-.91.76a.64.64 0 00-.15.73l.77 1.54a.22.22 0 010 .22 6 6 0 00-.44.78.28.28 0 01-.18.12l-1.74.1a.65.65 0 00-.55.5l-.2 1.16a.61.61 0 00.35.65l1.58.68a.24.24 0 01.13.18 6.49 6.49 0 00.16.88.23.23 0 01-.06.21L262.23 76a.62.62 0 00-.1.73l.59 1a.6.6 0 00.69.27l1.64-.49a.24.24 0 01.23.06 6.13 6.13 0 00.68.56.25.25 0 01.09.2l-.2 1.73a.63.63 0 00.39.63l1.11.4a.62.62 0 00.7-.23l.95-1.46a.25.25 0 01.21-.1h.88a.26.26 0 01.2.1l1 1.45a.63.63 0 00.7.23l1.11-.4a.63.63 0 00.39-.63l-.17-1h26.06a2.85 2.85 0 002.84-2.83v-6.31a2.85 2.85 0 00-2.84-2.83zM202.8 58.21l-.91-.76a.66.66 0 00-.74 0l-1.15.85h-.2a2.74 2.74 0 00-.64.08c-.16-.06-.31-.13-.47-.18a.23.23 0 01-.15-.15l-.41-1.69a.63.63 0 00-.58-.46h-1.18a.63.63 0 00-.58.46l-.4 1.67a.26.26 0 01-.16.18 6.34 6.34 0 00-.83.3.41.41 0 01-.22 0l-1.39-1a.66.66 0 00-.74 0l-.91.76a.65.65 0 00-.14.73l.77 1.54a.22.22 0 010 .22 7.44 7.44 0 00-.44.78.28.28 0 01-.18.12l-1.73.1a.65.65 0 00-.56.5l-.2 1.16a.61.61 0 00.34.58l1.58.68a.28.28 0 01.14.18 6.47 6.47 0 00.15.88.26.26 0 010 .21l-1.26 1.2a.62.62 0 00-.11.73l.59 1a.6.6 0 00.69.27l1.65-.49a.24.24 0 01.23.06 6 6 0 00.67.56.25.25 0 01.09.2l-.2 1.73a.63.63 0 00.39.63l1.11.4a.63.63 0 00.71-.23l.94-1.44a.25.25 0 01.21-.1h.88a.26.26 0 01.2.1l1 1.45a.63.63 0 00.7.23l1.11-.4a.63.63 0 00.39-.63l-.13-1.09h26.07a2.85 2.85 0 002.83-2.83v-6.19a2.83 2.83 0 00-2.83-2.83h-24zM170.39 85.88v-6.2a2.85 2.85 0 00-2.84-2.84h-23.86l-.06-.06-.9-.76a.63.63 0 00-.74 0l-1.14.84h-.2a2.72 2.72 0 00-.63.08c-.16-.06-.31-.12-.48-.17a.23.23 0 01-.15-.15l-.4-1.69a.63.63 0 00-.58-.46h-1.18a.62.62 0 00-.58.46l-.4 1.67a.29.29 0 01-.17.17 6.39 6.39 0 00-.83.31.26.26 0 01-.21 0l-1.39-1a.6.6 0 00-.74 0l-.91.76a.64.64 0 00-.15.73l.77 1.53a.24.24 0 010 .23 4.51 4.51 0 00-.44.77.29.29 0 01-.18.13l-1.74.1a.64.64 0 00-.55.49l-.2 1.17a.62.62 0 00.35.65l1.58.68a.27.27 0 01.13.18 6.49 6.49 0 00.16.88.26.26 0 01-.06.21l-1.26 1.19a.64.64 0 00-.11.74l.59 1a.63.63 0 00.69.27l1.65-.49a.24.24 0 01.23.06 6.13 6.13 0 00.68.56.25.25 0 01.09.2L134 89.8a.65.65 0 00.39.64l1.11.4a.63.63 0 00.7-.23l1-1.44a.26.26 0 01.21-.11h.88a.26.26 0 01.2.1l.95 1.44a.65.65 0 00.71.24l1.11-.41a.63.63 0 00.39-.63l-.13-1.08h26.06a2.86 2.86 0 002.86-2.84zM134.85 32.58a2.83 2.83 0 002.83-2.83v-6.21a2.83 2.83 0 00-2.83-2.83h-11.17a5.94 5.94 0 000 11.87zM160.48 32.58h11.17a2.83 2.83 0 002.83-2.83v-6.21a2.83 2.83 0 00-2.83-2.83h-11.17a5.94 5.94 0 000 11.87zM191.87 175.07H180.7a5.94 5.94 0 000 11.88h11.17a2.85 2.85 0 002.83-2.84v-6.2a2.85 2.85 0 00-2.83-2.84z" transform="translate(-4.91 -2.65)"/><path d="M197.33 172.89a6.85 6.85 0 001.09-.24 8 8 0 003-1.71l3.66 9.28a20.44 20.44 0 01-3 2.49 6.42 6.42 0 01-3.4 1.23 2.48 2.48 0 01-2.2-1.09c.56-.52 2-1.51 2.47-1.18s-.44 1.48-.44 1.48c1.3-1 1.34-1.58 1.24-1.86l-.33-.47m.2.27l-4.29-9.68a8.37 8.37 0 00-1-.05 11.28 11.28 0 00-3.16.45 10.64 10.64 0 00-3.81 2l4.65 11.8a27.2 27.2 0 013.59-3.19 6.62 6.62 0 013.36-1.46 2.09 2.09 0 01.65.13z" stroke-width=".25" stroke="#231f20" stroke-linejoin="round" fill="none"/><path class="cls-8" d="M206.36 173.59a8 8 0 01-3 1.71 6.85 6.85 0 01-1.09.24l2.41 8.4c.1.28.06.88-1.24 1.86 0 0 .9-1.15.44-1.48s-1.91.66-2.47 1.18a2.48 2.48 0 002.2 1.09 6.42 6.42 0 003.4-1.23 20.44 20.44 0 003-2.49z" transform="translate(-4.91 -2.65)"/><path class="cls-12" d="M206.87 185a19.39 19.39 0 002.77-2.26l-1.1-2.76a14.29 14.29 0 01-2.76 2zM207.32 176.92l-1.1-2.78a8.45 8.45 0 01-2.78 1.47l1.12 3.09a10.19 10.19 0 002.76-1.78zM205.78 182.05l-1.22-3.35a7.2 7.2 0 01-1.29.42l1 3.57a8.35 8.35 0 001.51-.64z" transform="translate(-4.91 -2.65)"/><path class="cls-8" d="M199.26 174a11.28 11.28 0 00-3.16.45 10.64 10.64 0 00-3.81 2l4.65 11.8a27.2 27.2 0 013.59-3.19 6.62 6.62 0 013.36-1.46 1.93 1.93 0 01.63.1l-4.29-9.7a8.37 8.37 0 00-1-.05z" transform="translate(-4.91 -2.65)"/><path class="cls-12" d="M199.26 174.33a11.22 11.22 0 00-3 .44l1.44 3.47a12.59 12.59 0 013.61-1l-1.31-2.88c-.15-.01-.41-.03-.74-.03zM199.14 181.78l1.26 3a6.61 6.61 0 013.49-1.47h.11l-1.27-2.87a8 8 0 00-3.59 1.34zM197.67 178.24a16.18 16.18 0 00-3.56 2l1.55 3.93a32.73 32.73 0 013.48-2.36z" transform="translate(-4.91 -2.65)"/><rect class="cls-16" x="285.43" y="132.46" width="11.87" height="11.87" rx="2.83"/><rect class="cls-16" x="10.5" y="153.86" width="11.87" height="11.87" rx="2.83"/><rect class="cls-16" x="85.1" y="91.74" width="11.87" height="11.87" rx="2.83"/><path class="cls-16" d="M120.33 85.88v-6.2a2.85 2.85 0 00-2.84-2.84H93.62l-.05-.06-.9-.76a.63.63 0 00-.74 0l-1.14.84h-.2a2.74 2.74 0 00-.64.08l-.47-.17a.23.23 0 01-.15-.15l-.41-1.69a.62.62 0 00-.58-.46h-1.18a.63.63 0 00-.58.46l-.4 1.67a.23.23 0 01-.16.17 6.39 6.39 0 00-.83.31A.27.27 0 0185 77l-1.4-1a.63.63 0 00-.74 0l-.9.76a.64.64 0 00-.15.73l.75 1.51a.31.31 0 010 .23 5.35 5.35 0 00-.45.77.24.24 0 01-.18.13l-1.73.1a.64.64 0 00-.55.49l-.21 1.17a.65.65 0 00.35.65l1.58.68a.28.28 0 01.14.18 6.49 6.49 0 00.16.88.26.26 0 01-.06.21l-1.26 1.19a.64.64 0 00-.11.74l.59 1a.63.63 0 00.69.27l1.65-.49a.24.24 0 01.23.06 7.1 7.1 0 00.67.56.26.26 0 01.1.2L84 89.8a.65.65 0 00.39.64l1.1.4a.65.65 0 00.71-.23l.94-1.44a.27.27 0 01.22-.11h.88a.26.26 0 01.2.1l1 1.44a.62.62 0 00.7.24l1.11-.41a.63.63 0 00.39-.63l-.12-1.08h26.06a2.86 2.86 0 002.75-2.84z" transform="translate(-4.91 -2.65)"/><path stroke-width=".65" stroke="#231f20" stroke-linejoin="round" stroke-linecap="round" fill="none" d="M95.15 157.63v-3.47H67.77"/><path class="cls-8" d="M13.37 155.27l-1.29 4.92h8.59l-1.3-4.92h-6zM287.71 140.09l-.63 2.4h8.59l-.63-2.4h-7.33zM12.71 160.96l-.63 2.39h8.59l-.63-2.39h-7.33z"/><text transform="translate(67.61 150.76)" style="isolation:isolate" font-family="Helvetica" font-size="8.5" fill="#231f20">Z. Boxes</text><text class="cls-20" transform="translate(6.17 181.39)">2</text><text class="cls-21" transform="translate(26.26 181.39)">90</text><text class="cls-20" transform="translate(6.17 143.06)">4</text><text class="cls-21" transform="translate(23.9 143.06)">180</text><text class="cls-20" transform="translate(6.17 119.39)">6</text><text class="cls-21" transform="translate(23.9 119.39)">250</text><text class="cls-20" transform="translate(6.17 90.8)">7</text><text class="cls-21" transform="translate(23.9 90.8)">285</text><text class="cls-20" transform="translate(75.65 64.59)">5</text><text class="cls-21" transform="translate(93.38 64.59)">210</text><text class="cls-20" transform="translate(128.32 44.86)">7</text><text class="cls-21" transform="translate(146.04 44.86)">275</text><text class="cls-20" transform="translate(170.65 117.2)">5</text><text class="cls-21" transform="translate(188.38 117.2)">235</text><text class="cls-20" transform="translate(6.17 46.8)">8</text><text class="cls-21" transform="translate(23.9 46.8)">295</text><text class="cls-20" transform="translate(6.17 25.14)">4</text><text class="cls-21" transform="translate(23.9 25.14)">140</text><text class="cls-20" transform="translate(97.8 11.59)">6</text><text class="cls-21" transform="translate(115.53 11.59)">250</text><text class="cls-20" transform="translate(179.86 11.59)">4</text><text class="cls-21" transform="translate(197.59 11.59)">150</text><text class="cls-20" transform="translate(60.51 181.39)">8</text><text class="cls-21" transform="translate(78.24 181.39)">325</text><text class="cls-20" transform="translate(114.85 181.39)">8</text><text class="cls-21" transform="translate(132.58 181.39)">315</text><text class="cls-20" transform="translate(109.99 149.12)">6</text><text class="cls-21" transform="translate(127.71 149.12)">270</text><text class="cls-20" transform="translate(160.32 149.12)">8</text><text class="cls-21" transform="translate(178.05 149.12)">315</text><text class="cls-20" transform="translate(210.65 149.12)">4</text><text class="cls-21" transform="translate(228.38 149.12)">140</text><text class="cls-20" transform="translate(231.29 189.39)">6</text><text class="cls-21" transform="translate(249.01 189.39)">250</text><text class="cls-20" transform="translate(262.34 172.03)">5</text><text class="cls-21" transform="translate(280.06 172.03)">220</text><text class="cls-20" transform="translate(262.34 124.69)">8</text><text class="cls-21" transform="translate(280.06 124.69)">305</text><text class="cls-20" transform="translate(262.34 99.06)">7</text><text class="cls-21" transform="translate(280.06 99.06)">280</text><text class="cls-20" transform="translate(262.34 73.39)">4</text><text class="cls-21" transform="translate(280.06 73.39)">200</text><text class="cls-20" transform="translate(189.67 64.59)">7</text><text class="cls-21" transform="translate(207.39 64.59)">270</text><text class="cls-20" transform="translate(130.51 83.16)">6</text><text class="cls-21" transform="translate(148.23 83.16)">265</text><text class="cls-20" transform="translate(125.51 27.03)">1</text><text class="cls-20" transform="translate(162.3 27.03)">2</text><text class="cls-20" transform="translate(182.53 181.39)">3</text><text class="cls-20" transform="translate(80.44 83.16)">6</text><text class="cls-21" transform="translate(98.17 83.16)">265</text><text class="cls-22" transform="translate(32.06 168.03)">1</text><text class="cls-22" transform="translate(47.61 135.74)">2</text><text class="cls-22" transform="translate(63.84 120.36)">3</text><text class="cls-22" transform="translate(76.34 34.03)">4</text><text class="cls-22" transform="translate(92.33 52.03)">5</text><text class="cls-22" transform="translate(132.34 62.36)">6</text><text class="cls-22" transform="translate(116.23 97.69)">7</text><text class="cls-22" transform="translate(160.72 104.03)">8</text><text class="cls-22" transform="translate(98.4 123.42)">9</text><text class="cls-22" transform="translate(74.72 138.7)">10</text><g style="isolation:isolate"><text transform="translate(223.98 131.61)" style="isolation:isolate" letter-spacing="-.13em" font-size="7.5" font-family="Helvetica-Bold,Helvetica" font-weight="700" fill="#fff">1</text><text class="cls-22" transform="translate(227.14 131.61)">1</text></g><text class="cls-22" transform="translate(174.05 72.01)">12</text><text class="cls-22" transform="translate(187.78 41.85)">13</text><text class="cls-22" transform="translate(265.77 154.03)">14</text><text class="cls-22" transform="translate(240.89 158.78)">15</text></g><text transform="translate(3.8 199.92)" style="isolation:isolate" font-size="14" letter-spacing="-.02em" font-family="Helvetica-Bold,Helvetica" font-weight="700" fill="#fff" id="montecarlo">7</text></svg>