<svg id="Capa_1" data-name="Capa 1" xmlns="http://www.w3.org/2000/svg" width="297.74" height="196.4" viewBox="0 0 297.74 196.4"><defs><style>.cls-1,.cls-10,.cls-11,.cls-17,.cls-18,.cls-2,.cls-3,.cls-4,.cls-5,.cls-6,.cls-8,.cls-9{fill:none;}.cls-1,.cls-11,.cls-6{stroke:#fff;}.cls-1,.cls-10,.cls-11,.cls-17,.cls-2,.cls-3,.cls-4,.cls-8{stroke-linecap:round;}.cls-1,.cls-10,.cls-11,.cls-17,.cls-18,.cls-2,.cls-3,.cls-4,.cls-5,.cls-8{stroke-linejoin:round;}.cls-1{stroke-width:8px;}.cls-2,.cls-3{stroke:#00071b;}.cls-2,.cls-4,.cls-5{stroke-width:2.8px;}.cls-3{stroke-width:5.4px;}.cls-4{stroke:#8c92a1;}.cls-5{stroke:#fff100;}.cls-6{stroke-width:1.3px;}.cls-7{fill:#ea1a4d;}.cls-10,.cls-17,.cls-18,.cls-8,.cls-9{stroke:#231f20;}.cls-8{stroke-width:0.65px;}.cls-10{stroke-width:1.5px;}.cls-11,.cls-16,.cls-17{stroke-width:0.5px;}.cls-12,.cls-16,.cls-20,.cls-25{fill:#fff;}.cls-13{fill:#ffca05;}.cls-14,.cls-19,.cls-21,.cls-22,.cls-24{fill:#231f20;}.cls-15{fill:#007dc4;}.cls-16{stroke:#007dc4;}.cls-18{stroke-width:0.25px;}.cls-19,.cls-20,.cls-21,.cls-22,.cls-23,.cls-24,.cls-25{isolation:isolate;}.cls-19,.cls-20,.cls-21{font-size:8.5px;}.cls-19,.cls-20,.cls-25{font-family:Helvetica-Bold, Helvetica;font-weight:700;}.cls-21,.cls-22,.cls-24{font-family:Helvetica;}.cls-22,.cls-24,.cls-25{font-size:7.5px;}.cls-24{letter-spacing:-0.02em;}.cls-25{letter-spacing:-0.08em;}</style></defs><g id="red_bull_ring" data-name="red bull ring"><path class="cls-1" d="M60.32,180.44c-3,.71-5.37,2-6.86.36-1.85-2,1.19-6.46,1.19-6.46A260.37,260.37,0,0,1,96.08,121.1c28.76-28,34.71-43.21,38.4-49.24,3.28-5.34,5.83-10.75,11.6-8.17,4.07,1.82,7.75,8.62,6.75,24.24S136,117.44,129,123.69s-11.15,22.35-2.85,29,29.19,4.31,38.52,3.68c9.56-.65,17.38-9.42,12.15-22.92a36.52,36.52,0,0,1-.1-26.7c.91-2.49,35.83-58.1,38.69-62.93s5.9-10.82,10.75-14.45c5.18-3.89,20.43,1.87,32.65,4.92,9.32,2.34,7,14.26-.75,41.26-6.58,22.91-26.33,83.08-29.05,93.23,0,0-1.61,7.22-8,6.48-7.25-.84-43.54,1.63-49.24,1.81-16.06.52-50.53-6.22-64.78-6.22S67.33,178.76,60.32,180.44Z" transform="translate(-4.74 -3.05)"/><path class="cls-2" d="M231.29,28.36l18.65,12.77s4.9,3.18,4.92,8.39,1.09,10.72-.42,15.06-31.68,101-31.68,101-2.52,7.87-9.39,8.12" transform="translate(-4.74 -3.05)"/><path class="cls-3" d="M60.32,180.44c-3,.71-5.37,2-6.86.36-1.85-2,1.19-6.46,1.19-6.46A260.37,260.37,0,0,1,96.08,121.1c28.76-28,34.71-43.21,38.4-49.24,3.28-5.34,5.83-10.75,11.6-8.17,4.07,1.82,7.75,8.62,6.75,24.24S136,117.44,129,123.69s-11.15,22.35-2.85,29,29.19,4.31,38.52,3.68c9.56-.65,17.38-9.42,12.15-22.92a36.52,36.52,0,0,1-.1-26.7c.91-2.49,35.83-58.1,38.69-62.93s5.9-10.82,10.75-14.45c5.18-3.89,20.43,1.87,32.65,4.92,9.32,2.34,7,14.26-.75,41.26-6.58,22.91-26.33,83.08-29.05,93.23,0,0-1.61,7.22-8,6.48-7.25-.84-43.54,1.63-49.24,1.81-16.06.52-50.53-6.22-64.78-6.22S67.33,178.76,60.32,180.44Z" transform="translate(-4.74 -3.05)"/><path class="cls-4" d="M60.32,180.44c-3,.71-5.37,2-6.86.36-1.85-2,1.19-6.46,1.19-6.46A260.37,260.37,0,0,1,96.08,121.1c28.76-28,34.71-43.21,38.4-49.24,3.28-5.34,5.83-10.75,11.6-8.17,4.07,1.82,7.75,8.62,6.75,24.24S136,117.44,129,123.69s-11.15,22.35-2.85,29,29.19,4.31,38.52,3.68c9.56-.65,17.38-9.42,12.15-22.92a36.52,36.52,0,0,1-.1-26.7c.91-2.49,35.83-58.1,38.69-62.93s5.9-10.82,10.75-14.45c5.18-3.89,20.43,1.87,32.65,4.92,9.32,2.34,7,14.26-.75,41.26-6.58,22.91-26.33,83.08-29.05,93.23,0,0-1.61,7.22-8,6.48-7.25-.84-43.54,1.63-49.24,1.81-16.06.52-50.53-6.22-64.78-6.22S67.33,178.76,60.32,180.44Z" transform="translate(-4.74 -3.05)"/><path class="cls-5" d="M56.26,171.58A263.57,263.57,0,0,1,96.08,121.1c28.76-28,34.71-43.21,38.4-49.24,1.62-2.63,3.05-5.28,4.79-7" transform="translate(-4.74 -3.05)"/><path class="cls-5" d="M209.7,175.2c-13.56.4-33.82,1.74-38,1.87-16.06.52-50.53-6.22-64.78-6.22-11.77,0-31.15,5.4-41.48,8.23" transform="translate(-4.74 -3.05)"/><path class="cls-5" d="M262.75,58c-1.16,5-2.76,10.76-4.69,17.51-6.58,22.91-26.33,83.08-29.05,93.23" transform="translate(-4.74 -3.05)"/><rect class="cls-6" x="226.79" y="170.35" width="9.61" height="9.61" rx="2.29"/><rect class="cls-7" x="226.79" y="170.35" width="9.61" height="9.61" rx="2.29"/><rect class="cls-6" x="97.62" y="173.02" width="9.61" height="9.61" rx="2.29"/><rect class="cls-7" x="97.62" y="173.02" width="9.61" height="9.61" rx="2.29"/><rect class="cls-6" x="40.85" y="183.1" width="9.61" height="9.6" rx="2.29"/><rect class="cls-7" x="40.85" y="183.1" width="9.61" height="9.6" rx="2.29"/><rect class="cls-6" x="133.96" y="67.68" width="9.61" height="9.61" rx="2.29"/><rect class="cls-7" x="133.96" y="67.68" width="9.61" height="9.61" rx="2.29"/><rect class="cls-6" x="130.12" y="89.35" width="9.61" height="9.61" rx="2.29"/><rect class="cls-7" x="130.12" y="89.35" width="9.61" height="9.61" rx="2.29"/><rect class="cls-6" x="121.62" y="135.35" width="9.61" height="9.61" rx="2.29"/><rect class="cls-7" x="121.62" y="135.35" width="9.61" height="9.61" rx="2.29"/><rect class="cls-6" x="158.46" y="135.35" width="9.61" height="9.61" rx="2.29"/><rect class="cls-7" x="158.46" y="135.35" width="9.61" height="9.61" rx="2.29"/><rect class="cls-6" x="154.96" y="112.02" width="9.61" height="9.61" rx="2.29"/><rect class="cls-7" x="154.96" y="112.02" width="9.61" height="9.61" rx="2.29"/><rect class="cls-6" x="209.46" y="14.35" width="9.61" height="9.61" rx="2.29"/><rect class="cls-7" x="209.46" y="14.35" width="9.61" height="9.61" rx="2.29"/><rect class="cls-6" x="262.29" y="22.68" width="9.61" height="9.61" rx="2.29"/><rect class="cls-7" x="262.29" y="22.68" width="9.61" height="9.61" rx="2.29"/><line class="cls-8" x1="245.48" y1="66.97" x2="210.1" y2="66.97"/><path class="cls-9" d="M212.28,50.34a1.42,1.42,0,1,0-1.42-1.42h0A1.43,1.43,0,0,0,212.28,50.34Z" transform="translate(-4.74 -3.05)"/><polyline class="cls-10" points="207.54 45.87 207.54 28.15 189.28 28.15"/><polyline class="cls-11" points="207.54 45.87 207.54 28.15 189.28 28.15"/><path class="cls-12" d="M212.28,50.34a1.42,1.42,0,1,0-1.42-1.42h0A1.43,1.43,0,0,0,212.28,50.34Z" transform="translate(-4.74 -3.05)"/><path class="cls-9" d="M226.16,30.64a1.42,1.42,0,1,0-1.42-1.42h0A1.42,1.42,0,0,0,226.16,30.64Z" transform="translate(-4.74 -3.05)"/><polyline class="cls-10" points="221.42 26.18 221.42 8.74 189.28 8.74"/><polyline class="cls-11" points="221.42 26.18 221.42 8.74 189.28 8.74"/><path class="cls-12" d="M226.16,30.64a1.42,1.42,0,1,0-1.42-1.42h0A1.42,1.42,0,0,0,226.16,30.64Z" transform="translate(-4.74 -3.05)"/><path class="cls-9" d="M242.23,31.07a1.42,1.42,0,1,0-1.42-1.42h0A1.44,1.44,0,0,0,242.23,31.07Z" transform="translate(-4.74 -3.05)"/><line class="cls-10" x1="237.49" y1="26.6" x2="237.49" y2="8.84"/><line class="cls-11" x1="237.49" y1="26.6" x2="237.49" y2="8.84"/><path class="cls-12" d="M242.23,31.07a1.42,1.42,0,1,0-1.42-1.42h0A1.44,1.44,0,0,0,242.23,31.07Z" transform="translate(-4.74 -3.05)"/><path class="cls-9" d="M152.62,77.71a1.42,1.42,0,1,0-1.41-1.43v0a1.41,1.41,0,0,0,1.41,1.41Z" transform="translate(-4.74 -3.05)"/><polyline class="cls-10" points="147.88 73.25 147.88 8.74 122.97 8.74"/><polyline class="cls-11" points="147.88 73.25 147.88 8.74 122.97 8.74"/><path class="cls-12" d="M152.62,77.71a1.42,1.42,0,1,0-1.41-1.43v0a1.41,1.41,0,0,0,1.41,1.41Z" transform="translate(-4.74 -3.05)"/><path class="cls-9" d="M140.06,65.47a1.42,1.42,0,1,0-1.42-1.42h0A1.44,1.44,0,0,0,140.06,65.47Z" transform="translate(-4.74 -3.05)"/><polyline class="cls-10" points="135.32 61 135.32 28.08 122.97 28.08"/><polyline class="cls-11" points="135.32 61 135.32 28.08 122.97 28.08"/><path class="cls-12" d="M140.06,65.47a1.42,1.42,0,1,0-1.42-1.42h0A1.44,1.44,0,0,0,140.06,65.47Z" transform="translate(-4.74 -3.05)"/><path class="cls-9" d="M127.7,85.07a1.42,1.42,0,1,0-1.42-1.42h0A1.42,1.42,0,0,0,127.7,85.07Z" transform="translate(-4.74 -3.05)"/><line class="cls-10" x1="122.96" y1="80.61" x2="122.96" y2="48.24"/><line class="cls-11" x1="122.96" y1="80.61" x2="122.96" y2="48.24"/><path class="cls-12" d="M127.7,85.07a1.42,1.42,0,1,0-1.42-1.42h0A1.42,1.42,0,0,0,127.7,85.07Z" transform="translate(-4.74 -3.05)"/><path class="cls-9" d="M75.6,144.5a1.42,1.42,0,1,0-1.42-1.42h0a1.41,1.41,0,0,0,1.41,1.41Z" transform="translate(-4.74 -3.05)"/><polyline class="cls-10" points="70.86 140.04 70.86 123.37 36.01 123.37"/><polyline class="cls-11" points="70.86 140.04 70.86 123.37 36.01 123.37"/><path class="cls-12" d="M75.6,144.5a1.42,1.42,0,1,0-1.42-1.42h0a1.41,1.41,0,0,0,1.41,1.41Z" transform="translate(-4.74 -3.05)"/><path class="cls-9" d="M149.89,158.7a1.42,1.42,0,1,0-1.42-1.42h0A1.44,1.44,0,0,0,149.89,158.7Z" transform="translate(-4.74 -3.05)"/><line class="cls-10" x1="145.15" y1="154.23" x2="145.15" y2="137.81"/><line class="cls-11" x1="145.15" y1="154.23" x2="145.15" y2="137.81"/><path class="cls-12" d="M149.89,158.7a1.42,1.42,0,1,0-1.42-1.42h0A1.44,1.44,0,0,0,149.89,158.7Z" transform="translate(-4.74 -3.05)"/><path class="cls-9" d="M157.43,175a1.42,1.42,0,1,1-1.41,1.43v0a1.41,1.41,0,0,1,1.41-1.41Z" transform="translate(-4.74 -3.05)"/><line class="cls-10" x1="152.69" y1="173.32" x2="152.69" y2="187.17"/><line class="cls-11" x1="152.69" y1="173.32" x2="152.69" y2="187.17"/><path class="cls-12" d="M157.43,175a1.42,1.42,0,1,1-1.41,1.43v0a1.41,1.41,0,0,1,1.41-1.41Z" transform="translate(-4.74 -3.05)"/><path class="cls-9" d="M199.55,174.18a1.42,1.42,0,1,1-1.41,1.43h0A1.42,1.42,0,0,1,199.55,174.18Z" transform="translate(-4.74 -3.05)"/><line class="cls-10" x1="194.81" y1="172.55" x2="194.81" y2="187.17"/><line class="cls-11" x1="194.81" y1="172.55" x2="194.81" y2="187.17"/><path class="cls-12" d="M199.55,174.18a1.42,1.42,0,1,1-1.41,1.43h0A1.42,1.42,0,0,1,199.55,174.18Z" transform="translate(-4.74 -3.05)"/><path class="cls-9" d="M87.36,173.47a1.42,1.42,0,1,1-1.42,1.42h0A1.43,1.43,0,0,1,87.36,173.47Z" transform="translate(-4.74 -3.05)"/><line class="cls-10" x1="82.62" y1="171.84" x2="82.62" y2="187.17"/><line class="cls-11" x1="82.62" y1="171.84" x2="82.62" y2="187.17"/><path class="cls-12" d="M87.36,173.47a1.42,1.42,0,1,1-1.42,1.42h0A1.43,1.43,0,0,1,87.36,173.47Z" transform="translate(-4.74 -3.05)"/><path class="cls-9" d="M67.74,177.11a1.42,1.42,0,1,1-1.41,1.43v0a1.41,1.41,0,0,1,1.41-1.41Z" transform="translate(-4.74 -3.05)"/><line class="cls-10" x1="63" y1="175.47" x2="63" y2="187.17"/><line class="cls-11" x1="63" y1="175.47" x2="63" y2="187.17"/><path class="cls-12" d="M67.74,177.11a1.42,1.42,0,1,1-1.41,1.43v0a1.41,1.41,0,0,1,1.41-1.41Z" transform="translate(-4.74 -3.05)"/><path class="cls-9" d="M227,170.61a1.42,1.42,0,1,1,1.45,1.39h0A1.43,1.43,0,0,1,227,170.61Z" transform="translate(-4.74 -3.05)"/><line class="cls-10" x1="223.66" y1="167.56" x2="264.62" y2="167.56"/><line class="cls-11" x1="223.66" y1="167.56" x2="264.62" y2="167.56"/><path class="cls-12" d="M227,170.61a1.42,1.42,0,1,1,1.45,1.39h0A1.43,1.43,0,0,1,227,170.61Z" transform="translate(-4.74 -3.05)"/><path class="cls-9" d="M234.22,147.7a1.42,1.42,0,1,1,1.42,1.42h0A1.44,1.44,0,0,1,234.22,147.7Z" transform="translate(-4.74 -3.05)"/><line class="cls-10" x1="230.9" y1="144.65" x2="252.59" y2="144.65"/><line class="cls-11" x1="230.9" y1="144.65" x2="252.59" y2="144.65"/><path class="cls-12" d="M234.22,147.7a1.42,1.42,0,1,1,1.42,1.42h0A1.44,1.44,0,0,1,234.22,147.7Z" transform="translate(-4.74 -3.05)"/><path class="cls-9" d="M247.92,104.07a1.42,1.42,0,1,1,1.43,1.41h0A1.42,1.42,0,0,1,247.92,104.07Z" transform="translate(-4.74 -3.05)"/><line class="cls-10" x1="244.6" y1="101.02" x2="264.62" y2="101.02"/><line class="cls-11" x1="244.6" y1="101.02" x2="264.62" y2="101.02"/><path class="cls-12" d="M247.92,104.07a1.42,1.42,0,1,1,1.43,1.41h0A1.42,1.42,0,0,1,247.92,104.07Z" transform="translate(-4.74 -3.05)"/><path class="cls-9" d="M242.41,121.49a1.42,1.42,0,1,1,1.42,1.42h0A1.43,1.43,0,0,1,242.41,121.49Z" transform="translate(-4.74 -3.05)"/><line class="cls-10" x1="239.09" y1="118.44" x2="264.92" y2="118.44"/><line class="cls-11" x1="239.09" y1="118.44" x2="264.92" y2="118.44"/><path class="cls-12" d="M242.41,121.49a1.42,1.42,0,1,1,1.42,1.42h0A1.43,1.43,0,0,1,242.41,121.49Z" transform="translate(-4.74 -3.05)"/><path class="cls-9" d="M263.06,40a1.42,1.42,0,1,1,1.42,1.42A1.43,1.43,0,0,1,263.06,40Z" transform="translate(-4.74 -3.05)"/><polyline class="cls-10" points="259.74 36.97 282.62 36.97 282.62 9.17"/><polyline class="cls-11" points="259.74 36.97 282.62 36.97 282.62 9.17"/><path class="cls-12" d="M263.06,40a1.42,1.42,0,1,1,1.42,1.42A1.43,1.43,0,0,1,263.06,40Z" transform="translate(-4.74 -3.05)"/><path class="cls-9" d="M182.64,94.32a1.42,1.42,0,1,1,1.42,1.42h0a1.41,1.41,0,0,1-1.41-1.41Z" transform="translate(-4.74 -3.05)"/><line class="cls-10" x1="179.31" y1="91.27" x2="200.56" y2="91.27"/><line class="cls-11" x1="179.31" y1="91.27" x2="200.56" y2="91.27"/><path class="cls-12" d="M182.64,94.32a1.42,1.42,0,1,1,1.42,1.42h0a1.41,1.41,0,0,1-1.41-1.41Z" transform="translate(-4.74 -3.05)"/><path class="cls-9" d="M173.59,126.8a1.42,1.42,0,1,1,1.42,1.42h0A1.43,1.43,0,0,1,173.59,126.8Z" transform="translate(-4.74 -3.05)"/><line class="cls-10" x1="170.27" y1="123.75" x2="190.28" y2="123.75"/><line class="cls-11" x1="170.27" y1="123.75" x2="190.28" y2="123.75"/><path class="cls-12" d="M173.59,126.8a1.42,1.42,0,1,1,1.42,1.42h0A1.43,1.43,0,0,1,173.59,126.8Z" transform="translate(-4.74 -3.05)"/><path class="cls-9" d="M143.6,107.1a1.42,1.42,0,1,1,1.42,1.42h0a1.41,1.41,0,0,1-1.41-1.41Z" transform="translate(-4.74 -3.05)"/><polyline class="cls-10" points="140.27 104.05 162.08 104.05 162.08 47.17"/><polyline class="cls-11" points="140.27 104.05 162.08 104.05 162.08 47.17"/><path class="cls-12" d="M143.6,107.1a1.42,1.42,0,1,1,1.42,1.42h0a1.41,1.41,0,0,1-1.41-1.41Z" transform="translate(-4.74 -3.05)"/><path class="cls-9" d="M175.58,148.46a1.42,1.42,0,1,1,1.42,1.42h0A1.43,1.43,0,0,1,175.58,148.46Z" transform="translate(-4.74 -3.05)"/><polyline class="cls-10" points="172.26 145.41 179.58 145.41 179.58 158.67"/><polyline class="cls-11" points="172.26 145.41 179.58 145.41 179.58 158.67"/><path class="cls-12" d="M175.58,148.46a1.42,1.42,0,1,1,1.42,1.42h0A1.43,1.43,0,0,1,175.58,148.46Z" transform="translate(-4.74 -3.05)"/><path class="cls-9" d="M54.74,180.8a1.42,1.42,0,1,0-1.42,1.42h0A1.44,1.44,0,0,0,54.74,180.8Z" transform="translate(-4.74 -3.05)"/><polyline class="cls-10" points="48.58 177.75 36.01 177.75 36.01 161.51"/><polyline class="cls-11" points="48.58 177.75 36.01 177.75 36.01 161.51"/><path class="cls-12" d="M54.74,180.8a1.42,1.42,0,1,0-1.42,1.42h0A1.44,1.44,0,0,0,54.74,180.8Z" transform="translate(-4.74 -3.05)"/><path class="cls-9" d="M105.57,113a1.42,1.42,0,1,0-1.42,1.42h0A1.43,1.43,0,0,0,105.57,113Z" transform="translate(-4.74 -3.05)"/><polyline class="cls-10" points="99.41 109.92 70.86 109.92 70.86 104.01 36.01 104.01"/><polyline class="cls-11" points="99.41 109.92 70.86 109.92 70.86 104.01 36.01 104.01"/><path class="cls-12" d="M105.57,113a1.42,1.42,0,1,0-1.42,1.42h0A1.43,1.43,0,0,0,105.57,113Z" transform="translate(-4.74 -3.05)"/><path class="cls-9" d="M122.92,143.78a1.42,1.42,0,1,0-1.42,1.42h0A1.43,1.43,0,0,0,122.92,143.78Z" transform="translate(-4.74 -3.05)"/><polyline class="cls-10" points="116.76 140.73 106.6 140.73 106.6 154.09"/><polyline class="cls-11" points="116.76 140.73 106.6 140.73 106.6 154.09"/><path class="cls-12" d="M122.92,143.78a1.42,1.42,0,1,0-1.42,1.42h0A1.43,1.43,0,0,0,122.92,143.78Z" transform="translate(-4.74 -3.05)"/><path class="cls-13" d="M239,5.7h6.21A2.83,2.83,0,0,1,248,8.53v6.21a2.83,2.83,0,0,1-2.83,2.83H239a2.83,2.83,0,0,1-2.83-2.83h0V8.53A2.85,2.85,0,0,1,239,5.7Z" transform="translate(-4.74 -3.05)"/><polygon class="cls-14" points="233.68 10.28 233.05 12.68 241.64 12.68 241.01 10.28 233.68 10.28"/><polygon class="cls-14" points="234.34 4.46 233.05 9.38 241.64 9.38 240.35 4.46 234.34 4.46"/><rect class="cls-13" x="57.07" y="180.83" width="11.87" height="11.87" rx="2.83"/><polygon class="cls-14" points="59.34 188.46 58.71 190.86 67.31 190.86 66.68 188.46 59.34 188.46"/><polygon class="cls-14" points="60.01 182.64 58.71 187.56 67.31 187.56 66.01 182.64 60.01 182.64"/><rect class="cls-14" x="8.53" y="117.59" width="32.57" height="11.87" rx="2.83"/><polygon class="cls-12" points="23.38 121.23 21.93 121.23 22.07 120.54 23.53 120.54 23.38 121.23"/><polygon class="cls-12" points="23.01 123.01 20.61 123.01 20.75 122.32 23.15 122.32 23.01 123.01"/><polygon class="cls-12" points="22.63 124.78 19.28 124.78 19.43 124.1 22.78 124.1 22.63 124.78"/><polygon class="cls-12" points="22.26 126.56 17.96 126.56 18.11 125.87 22.4 125.87 22.26 126.56"/><path class="cls-15" d="M11.54,120.55a8.29,8.29,0,0,0-.83.31.28.28,0,0,1-.22,0l-1.39-1a.66.66,0,0,0-.74,0l-.91.76a.65.65,0,0,0-.15.73l.77,1.54a.22.22,0,0,1,0,.22,5.88,5.88,0,0,0-.44.77.24.24,0,0,1-.18.13l-1.73.1a.66.66,0,0,0-.56.49L5,125.73a.62.62,0,0,0,.35.65l1.58.68a.24.24,0,0,1,.13.18,6.49,6.49,0,0,0,.16.88.26.26,0,0,1,0,.21L6,129.52a.64.64,0,0,0-.11.74l.59,1a.63.63,0,0,0,.69.27L8.78,131a.23.23,0,0,1,.22.06,7.22,7.22,0,0,0,.68.56.25.25,0,0,1,.09.2l-.2,1.72a.66.66,0,0,0,.39.64l1.11.4a.63.63,0,0,0,.7-.23l1-1.44a.26.26,0,0,1,.21-.11h.88a.26.26,0,0,1,.2.1l1,1.45a.63.63,0,0,0,.7.23l1.11-.4a.66.66,0,0,0,.39-.64l-.2-1.7a.24.24,0,0,1,.09-.22,5.27,5.27,0,0,0,.68-.57A.23.23,0,0,1,18,131l1.66.49a.63.63,0,0,0,.69-.27l.59-1a.64.64,0,0,0-.1-.74l-1.26-1.18a.27.27,0,0,1-.06-.23,8.52,8.52,0,0,0,.16-.88.2.2,0,0,1,.12-.16l1.59-.69a.63.63,0,0,0,.35-.65l-.2-1.17a.66.66,0,0,0-.56-.49l-1.71-.1a.28.28,0,0,1-.2-.13,6.06,6.06,0,0,0-.45-.78.23.23,0,0,1,0-.2l.78-1.55a.65.65,0,0,0-.15-.73l-.91-.76a.63.63,0,0,0-.74,0l-1.38,1a.31.31,0,0,1-.23,0,6,6,0,0,0-.84-.3.28.28,0,0,1-.15-.15l-.4-1.69a.63.63,0,0,0-.58-.46H12.68a.63.63,0,0,0-.58.46l-.4,1.67A.24.24,0,0,1,11.54,120.55Z" transform="translate(-4.74 -3.05)"/><path class="cls-16" d="M13.27,121.51a5.07,5.07,0,1,0,5.07,5.07h0A5.07,5.07,0,0,0,13.27,121.51Z" transform="translate(-4.74 -3.05)"/><rect class="cls-14" x="8.53" y="98.17" width="32.57" height="11.87" rx="2.83"/><polygon class="cls-12" points="23.38 101.8 21.93 101.8 22.07 101.12 23.53 101.12 23.38 101.8"/><polygon class="cls-12" points="23.01 103.58 20.61 103.58 20.75 102.89 23.15 102.89 23.01 103.58"/><polygon class="cls-12" points="22.63 105.36 19.28 105.36 19.43 104.67 22.78 104.67 22.63 105.36"/><polygon class="cls-12" points="22.26 107.13 17.96 107.13 18.11 106.45 22.4 106.45 22.26 107.13"/><path class="cls-15" d="M11.54,101.13a6.34,6.34,0,0,0-.83.3.22.22,0,0,1-.22,0l-1.39-1a.66.66,0,0,0-.74,0l-.91.76a.65.65,0,0,0-.15.73l.77,1.54a.22.22,0,0,1,0,.22,6,6,0,0,0-.44.78.28.28,0,0,1-.18.12l-1.73.11a.63.63,0,0,0-.56.49L5,106.3a.61.61,0,0,0,.35.65l1.58.69a.23.23,0,0,1,.13.17,6.49,6.49,0,0,0,.16.88.2.2,0,0,1,0,.21L6,110.1a.62.62,0,0,0-.11.73l.59,1a.63.63,0,0,0,.69.28l1.65-.5a.29.29,0,0,1,.22.06,7.22,7.22,0,0,0,.68.56.25.25,0,0,1,.09.2l-.2,1.73a.63.63,0,0,0,.39.63l1.11.4a.62.62,0,0,0,.7-.23l1-1.44a.25.25,0,0,1,.21-.1h.88a.26.26,0,0,1,.2.1L15,115a.63.63,0,0,0,.7.23l1.11-.4a.63.63,0,0,0,.39-.63l-.2-1.71a.26.26,0,0,1,.09-.22,6.13,6.13,0,0,0,.68-.56.26.26,0,0,1,.21-.06l1.66.5a.63.63,0,0,0,.69-.28l.59-1a.62.62,0,0,0-.1-.73l-1.26-1.19a.25.25,0,0,1-.06-.22,8.52,8.52,0,0,0,.16-.88.24.24,0,0,1,.12-.17l1.59-.69a.62.62,0,0,0,.35-.65l-.2-1.16a.65.65,0,0,0-.56-.5l-1.71-.1a.28.28,0,0,1-.2-.13,5.35,5.35,0,0,0-.45-.77.26.26,0,0,1,0-.21l.78-1.55a.65.65,0,0,0-.15-.73l-.91-.76a.66.66,0,0,0-.74,0l-1.38,1a.31.31,0,0,1-.23,0,7.63,7.63,0,0,0-.84-.31.28.28,0,0,1-.15-.15l-.4-1.69a.63.63,0,0,0-.58-.46H12.68a.63.63,0,0,0-.58.46L11.7,101A.26.26,0,0,1,11.54,101.13Z" transform="translate(-4.74 -3.05)"/><path class="cls-16" d="M13.27,102.08a5.08,5.08,0,1,0,5.07,5.09v0A5.07,5.07,0,0,0,13.27,102.08Z" transform="translate(-4.74 -3.05)"/><rect class="cls-14" x="79.01" y="148.29" width="32.57" height="11.87" rx="2.83"/><polygon class="cls-12" points="93.86 151.93 92.41 151.93 92.56 151.24 94.01 151.24 93.86 151.93"/><polygon class="cls-12" points="93.49 153.71 91.09 153.71 91.24 153.02 93.64 153.02 93.49 153.71"/><polygon class="cls-12" points="93.11 155.48 89.77 155.48 89.91 154.8 93.26 154.8 93.11 155.48"/><polygon class="cls-12" points="92.74 157.26 88.45 157.26 88.59 156.57 92.88 156.57 92.74 157.26"/><path class="cls-15" d="M82,151.25a8.29,8.29,0,0,0-.83.31.41.41,0,0,1-.22,0l-1.39-1a.66.66,0,0,0-.74,0l-.9.76a.64.64,0,0,0-.15.73l.77,1.54a.28.28,0,0,1,0,.22,7.3,7.3,0,0,0-.44.77.23.23,0,0,1-.18.13l-1.73.1a.64.64,0,0,0-.55.49l-.21,1.17a.63.63,0,0,0,.35.65l1.58.68a.28.28,0,0,1,.14.18,5.24,5.24,0,0,0,.16.88.26.26,0,0,1-.06.21l-1.26,1.19a.64.64,0,0,0-.11.74l.59,1a.63.63,0,0,0,.69.27l1.65-.49a.24.24,0,0,1,.23.06,7.1,7.1,0,0,0,.67.56.25.25,0,0,1,.09.2L80,164.31a.63.63,0,0,0,.38.63l1.11.4a.65.65,0,0,0,.71-.23l.94-1.44a.27.27,0,0,1,.22-.11h.87a.26.26,0,0,1,.2.1l1,1.45a.63.63,0,0,0,.7.23l1.11-.4a.63.63,0,0,0,.39-.63l-.2-1.71a.26.26,0,0,1,.1-.22c.23-.18.46-.37.67-.57a.23.23,0,0,1,.21-.05l1.67.49a.61.61,0,0,0,.68-.27l.6-1a.64.64,0,0,0-.11-.74L89.92,159a.28.28,0,0,1-.07-.23,6.49,6.49,0,0,0,.16-.88.22.22,0,0,1,.12-.16l1.59-.69a.64.64,0,0,0,.36-.65l-.21-1.17a.64.64,0,0,0-.55-.49l-1.72-.1a.28.28,0,0,1-.2-.13,7.44,7.44,0,0,0-.44-.78.23.23,0,0,1,0-.2l.78-1.55a.65.65,0,0,0-.15-.73l-.91-.76a.63.63,0,0,0-.74,0l-1.38,1a.31.31,0,0,1-.23,0,6.34,6.34,0,0,0-.83-.3.23.23,0,0,1-.15-.15l-.41-1.69a.63.63,0,0,0-.58-.46h-1.2a.63.63,0,0,0-.58.46l-.4,1.67A.23.23,0,0,1,82,151.25Z" transform="translate(-4.74 -3.05)"/><path class="cls-16" d="M83.75,152.21a5.07,5.07,0,1,0,5.07,5.07,5.07,5.07,0,0,0-5.07-5.07Z" transform="translate(-4.74 -3.05)"/><rect class="cls-14" x="179.58" y="152.68" width="32.57" height="11.87" rx="2.83"/><polygon class="cls-12" points="194.44 156.32 192.98 156.32 193.13 155.63 194.58 155.63 194.44 156.32"/><polygon class="cls-12" points="194.06 158.09 191.66 158.09 191.8 157.41 194.2 157.41 194.06 158.09"/><polygon class="cls-12" points="193.69 159.87 190.34 159.87 190.48 159.18 193.83 159.18 193.69 159.87"/><polygon class="cls-12" points="193.31 161.65 189.01 161.65 189.16 160.96 193.45 160.96 193.31 161.65"/><path class="cls-15" d="M182.59,155.64a6.34,6.34,0,0,0-.83.3.28.28,0,0,1-.22,0l-1.39-1a.63.63,0,0,0-.74,0l-.9.76a.6.6,0,0,0-.15.72l.77,1.54a.31.31,0,0,1,0,.23,5.35,5.35,0,0,0-.45.77.24.24,0,0,1-.18.13l-1.73.1a.61.61,0,0,0-.55.49l-.21,1.16a.67.67,0,0,0,.35.66l1.58.68a.28.28,0,0,1,.14.18,6.64,6.64,0,0,0,.16.87.29.29,0,0,1-.06.22l-1.26,1.19a.62.62,0,0,0-.11.73l.59,1a.63.63,0,0,0,.69.27l1.65-.49a.31.31,0,0,1,.23,0c.21.2.44.39.67.57a.2.2,0,0,1,.09.2l-.19,1.72a.63.63,0,0,0,.38.63l1.11.4a.63.63,0,0,0,.71-.23l.94-1.43a.27.27,0,0,1,.22-.11h.87a.2.2,0,0,1,.2.09l1,1.45a.62.62,0,0,0,.7.23l1.11-.4a.62.62,0,0,0,.39-.63l-.2-1.71a.27.27,0,0,1,.1-.22,7.1,7.1,0,0,0,.67-.56.26.26,0,0,1,.21-.06l1.67.5a.61.61,0,0,0,.68-.27l.6-1a.62.62,0,0,0-.11-.73l-1.25-1.18a.28.28,0,0,1-.07-.23,6.49,6.49,0,0,0,.16-.88.26.26,0,0,1,.12-.17l1.59-.69a.61.61,0,0,0,.35-.65l-.2-1.16a.62.62,0,0,0-.55-.49l-1.72-.1a.25.25,0,0,1-.2-.14,8.46,8.46,0,0,0-.44-.77.26.26,0,0,1,0-.21l.78-1.55a.6.6,0,0,0-.15-.72l-.91-.76a.59.59,0,0,0-.73,0l-1.39,1a.24.24,0,0,1-.23,0,6.34,6.34,0,0,0-.83-.3.26.26,0,0,1-.15-.16l-.41-1.68a.63.63,0,0,0-.58-.46H183.8a.63.63,0,0,0-.58.46l-.4,1.67A.25.25,0,0,1,182.59,155.64Z" transform="translate(-4.74 -3.05)"/><path class="cls-16" d="M184.32,156.6a5.07,5.07,0,1,0,5.07,5.07,5.07,5.07,0,0,0-5.07-5.07Z" transform="translate(-4.74 -3.05)"/><rect class="cls-14" x="123.73" y="180.83" width="32.57" height="11.88" rx="2.83"/><polygon class="cls-12" points="138.58 184.46 137.13 184.46 137.28 183.78 138.73 183.78 138.58 184.46"/><polygon class="cls-12" points="138.21 186.24 135.81 186.24 135.95 185.55 138.35 185.55 138.21 186.24"/><polygon class="cls-12" points="137.83 188.02 134.48 188.02 134.63 187.33 137.98 187.33 137.83 188.02"/><polygon class="cls-12" points="137.46 189.79 133.16 189.79 133.31 189.11 137.6 189.11 137.46 189.79"/><path class="cls-15" d="M126.74,183.79a6.34,6.34,0,0,0-.83.3.28.28,0,0,1-.22,0l-1.39-1a.63.63,0,0,0-.74,0l-.91.75a.65.65,0,0,0-.15.73l.77,1.54a.22.22,0,0,1,0,.22,7.44,7.44,0,0,0-.44.78.23.23,0,0,1-.18.12l-1.73.11a.61.61,0,0,0-.55.49l-.21,1.16a.62.62,0,0,0,.35.65l1.58.69a.26.26,0,0,1,.14.17,6.47,6.47,0,0,0,.15.88.25.25,0,0,1,0,.22l-1.26,1.19a.62.62,0,0,0-.11.73l.59,1a.63.63,0,0,0,.69.28l1.65-.5a.32.32,0,0,1,.23.06,6,6,0,0,0,.67.56.25.25,0,0,1,.09.2l-.2,1.73a.63.63,0,0,0,.39.63l1.11.4a.63.63,0,0,0,.71-.23l.94-1.44a.28.28,0,0,1,.21-.1h.88a.26.26,0,0,1,.2.1l1,1.45a.63.63,0,0,0,.7.23l1.11-.4a.63.63,0,0,0,.39-.63l-.2-1.71a.26.26,0,0,1,.1-.22,7.1,7.1,0,0,0,.67-.56.26.26,0,0,1,.21-.06l1.66.5a.63.63,0,0,0,.69-.28l.59-1a.64.64,0,0,0-.1-.74l-1.25-1.17a.25.25,0,0,1-.07-.23,6.49,6.49,0,0,0,.16-.88.26.26,0,0,1,.12-.17l1.59-.69a.61.61,0,0,0,.35-.65l-.2-1.16a.65.65,0,0,0-.56-.5l-1.71-.1a.28.28,0,0,1-.2-.13,5.35,5.35,0,0,0-.45-.77.26.26,0,0,1,0-.21l.78-1.55a.65.65,0,0,0-.15-.73l-.91-.75a.63.63,0,0,0-.74,0l-1.38,1a.31.31,0,0,1-.23,0,8.29,8.29,0,0,0-.83-.31.26.26,0,0,1-.16-.15l-.4-1.69a.63.63,0,0,0-.58-.46h-1.18a.63.63,0,0,0-.58.46l-.4,1.68A.27.27,0,0,1,126.74,183.79Z" transform="translate(-4.74 -3.05)"/><path class="cls-16" d="M128.47,184.74a5.08,5.08,0,1,0,5.07,5.09v0a5.07,5.07,0,0,0-5.07-5.07Z" transform="translate(-4.74 -3.05)"/><rect class="cls-14" x="194.81" y="180.83" width="32.57" height="11.88" rx="2.83"/><polygon class="cls-12" points="209.67 184.46 208.21 184.46 208.36 183.78 209.81 183.78 209.67 184.46"/><polygon class="cls-12" points="209.29 186.24 206.89 186.24 207.04 185.55 209.44 185.55 209.29 186.24"/><polygon class="cls-12" points="208.92 188.02 205.57 188.02 205.71 187.33 209.06 187.33 208.92 188.02"/><polygon class="cls-12" points="208.54 189.79 204.24 189.79 204.39 189.11 208.69 189.11 208.54 189.79"/><path class="cls-15" d="M197.82,183.79a6.34,6.34,0,0,0-.83.3.2.2,0,0,1-.21,0l-1.4-1a.63.63,0,0,0-.74,0l-.9.75a.64.64,0,0,0-.15.73l.77,1.54a.28.28,0,0,1,0,.22,6.06,6.06,0,0,0-.45.78.23.23,0,0,1-.18.12l-1.73.11a.61.61,0,0,0-.55.49l-.21,1.16a.65.65,0,0,0,.35.65l1.58.69a.26.26,0,0,1,.14.17,6.49,6.49,0,0,0,.16.88.29.29,0,0,1-.06.22l-1.26,1.19a.62.62,0,0,0-.11.73l.59,1a.63.63,0,0,0,.69.28l1.65-.5a.32.32,0,0,1,.23.06,7.1,7.1,0,0,0,.67.56.26.26,0,0,1,.1.2l-.2,1.73a.63.63,0,0,0,.38.63l1.11.4a.63.63,0,0,0,.71-.23l.94-1.44a.32.32,0,0,1,.22-.1H200a.26.26,0,0,1,.2.1l1,1.45a.65.65,0,0,0,.71.23l1.1-.4a.62.62,0,0,0,.39-.63l-.2-1.71a.26.26,0,0,1,.1-.22,7.1,7.1,0,0,0,.67-.56.26.26,0,0,1,.21-.06l1.67.5a.63.63,0,0,0,.69-.28l.59-1a.64.64,0,0,0-.11-.74l-1.25-1.17a.28.28,0,0,1-.07-.23,6.49,6.49,0,0,0,.16-.88.3.3,0,0,1,.12-.17l1.59-.69a.61.61,0,0,0,.35-.65l-.2-1.16a.64.64,0,0,0-.55-.5l-1.72-.1a.28.28,0,0,1-.2-.13,7.3,7.3,0,0,0-.44-.77.26.26,0,0,1,0-.21l.78-1.55a.64.64,0,0,0-.15-.73l-.91-.75a.62.62,0,0,0-.73,0l-1.39,1a.31.31,0,0,1-.23,0,8.29,8.29,0,0,0-.83-.31.23.23,0,0,1-.15-.15L200.8,182a.63.63,0,0,0-.58-.46H199a.63.63,0,0,0-.58.46l-.4,1.68A.24.24,0,0,1,197.82,183.79Z" transform="translate(-4.74 -3.05)"/><path class="cls-16" d="M199.55,184.74a5.08,5.08,0,1,0,5.07,5.09v0a5.07,5.07,0,0,0-5.07-5.07Z" transform="translate(-4.74 -3.05)"/><rect class="cls-14" x="8.53" y="156.45" width="32.57" height="11.87" rx="2.83"/><polygon class="cls-12" points="23.38 160.08 21.93 160.08 22.07 159.39 23.53 159.39 23.38 160.08"/><polygon class="cls-12" points="23.01 161.86 20.61 161.86 20.75 161.17 23.15 161.17 23.01 161.86"/><polygon class="cls-12" points="22.63 163.64 19.28 163.64 19.43 162.95 22.78 162.95 22.63 163.64"/><polygon class="cls-12" points="22.26 165.41 17.96 165.41 18.11 164.73 22.4 164.73 22.26 165.41"/><path class="cls-15" d="M11.54,159.41a6.34,6.34,0,0,0-.83.3.28.28,0,0,1-.22,0l-1.39-1a.66.66,0,0,0-.74,0l-.91.76a.65.65,0,0,0-.15.73l.77,1.54a.22.22,0,0,1,0,.22,6,6,0,0,0-.44.78.28.28,0,0,1-.18.12L5.72,163a.63.63,0,0,0-.56.49L5,164.58a.61.61,0,0,0,.35.65l1.58.69a.23.23,0,0,1,.13.17,6.49,6.49,0,0,0,.16.88.26.26,0,0,1,0,.21L6,168.38a.62.62,0,0,0-.11.73l.59,1a.6.6,0,0,0,.69.27l1.65-.49A.25.25,0,0,1,9,170a7.22,7.22,0,0,0,.68.56.25.25,0,0,1,.09.2l-.2,1.73a.63.63,0,0,0,.39.63l1.11.4a.62.62,0,0,0,.7-.23l1-1.44a.25.25,0,0,1,.21-.1h.88a.26.26,0,0,1,.2.1l1,1.45a.63.63,0,0,0,.7.23l1.11-.4a.63.63,0,0,0,.39-.63l-.2-1.71a.24.24,0,0,1,.09-.22,7.22,7.22,0,0,0,.68-.56.26.26,0,0,1,.21-.06l1.66.49a.63.63,0,0,0,.69-.27l.59-1a.64.64,0,0,0-.1-.74l-1.26-1.18a.25.25,0,0,1-.06-.22,8.52,8.52,0,0,0,.16-.88.24.24,0,0,1,.12-.17l1.59-.69a.62.62,0,0,0,.35-.65l-.2-1.16a.65.65,0,0,0-.56-.5l-1.71-.1a.28.28,0,0,1-.2-.13,5.35,5.35,0,0,0-.45-.77.26.26,0,0,1,0-.21l.78-1.55a.65.65,0,0,0-.15-.73l-.91-.76a.66.66,0,0,0-.74,0l-1.38,1a.31.31,0,0,1-.23,0q-.4-.17-.84-.3a.28.28,0,0,1-.15-.15l-.4-1.69a.63.63,0,0,0-.58-.46H12.68a.63.63,0,0,0-.58.46l-.4,1.67A.29.29,0,0,1,11.54,159.41Z" transform="translate(-4.74 -3.05)"/><path class="cls-16" d="M13.27,160.36a5.08,5.08,0,1,0,5.07,5.09v0a5.07,5.07,0,0,0-5.07-5.07Z" transform="translate(-4.74 -3.05)"/><rect class="cls-14" x="95.2" y="41.5" width="32.57" height="11.87" rx="2.83"/><polygon class="cls-12" points="110.05 45.14 108.59 45.14 108.74 44.45 110.19 44.45 110.05 45.14"/><polygon class="cls-12" points="109.67 46.92 107.27 46.92 107.42 46.23 109.82 46.23 109.67 46.92"/><polygon class="cls-12" points="109.3 48.69 105.95 48.69 106.09 48 109.44 48 109.3 48.69"/><polygon class="cls-12" points="108.92 50.47 104.63 50.47 104.77 49.78 109.07 49.78 108.92 50.47"/><path class="cls-15" d="M98.2,44.46a6.34,6.34,0,0,0-.83.3.2.2,0,0,1-.21,0l-1.4-1a.63.63,0,0,0-.74,0l-.9.76a.64.64,0,0,0-.15.73l.77,1.53a.31.31,0,0,1,0,.23,4.51,4.51,0,0,0-.44.77.29.29,0,0,1-.19.13l-1.73.1a.64.64,0,0,0-.55.49l-.21,1.16a.65.65,0,0,0,.36.66l1.58.68a.27.27,0,0,1,.13.18,6.49,6.49,0,0,0,.16.88.26.26,0,0,1-.06.21l-1.26,1.19a.62.62,0,0,0-.11.73l.59,1a.63.63,0,0,0,.69.27L95.34,55a.27.27,0,0,1,.23,0,5.27,5.27,0,0,0,.68.57.25.25,0,0,1,.09.2l-.2,1.72a.63.63,0,0,0,.39.63l1.11.41a.64.64,0,0,0,.7-.24l1-1.43a.26.26,0,0,1,.21-.11h.88a.29.29,0,0,1,.2.09l1,1.45a.65.65,0,0,0,.71.24l1.1-.41a.64.64,0,0,0,.4-.63l-.2-1.71a.26.26,0,0,1,.09-.22,6,6,0,0,0,.67-.56.29.29,0,0,1,.22-.06l1.66.5a.63.63,0,0,0,.69-.27l.59-1a.62.62,0,0,0-.11-.73l-1.25-1.18A.29.29,0,0,1,106,52a5.24,5.24,0,0,0,.16-.88.3.3,0,0,1,.12-.17l1.6-.68a.67.67,0,0,0,.35-.66L108,48.45a.61.61,0,0,0-.55-.49l-1.72-.1a.3.3,0,0,1-.2-.13,6,6,0,0,0-.44-.78.18.18,0,0,1,0-.2l.77-1.56a.6.6,0,0,0-.15-.72l-.9-.76a.63.63,0,0,0-.74,0l-1.38,1a.25.25,0,0,1-.24,0,6.34,6.34,0,0,0-.83-.3.26.26,0,0,1-.15-.16l-.4-1.68a.63.63,0,0,0-.58-.46H99.34a.63.63,0,0,0-.58.46l-.4,1.67A.27.27,0,0,1,98.2,44.46Z" transform="translate(-4.74 -3.05)"/><path class="cls-16" d="M99.93,45.42A5.07,5.07,0,1,0,105,50.49,5.07,5.07,0,0,0,99.93,45.42Z" transform="translate(-4.74 -3.05)"/><rect class="cls-14" x="162.08" y="41.5" width="32.57" height="11.87" rx="2.83"/><polygon class="cls-12" points="176.93 45.14 175.48 45.14 175.62 44.45 177.08 44.45 176.93 45.14"/><polygon class="cls-12" points="176.56 46.92 174.16 46.92 174.3 46.23 176.7 46.23 176.56 46.92"/><polygon class="cls-12" points="176.18 48.69 172.83 48.69 172.98 48 176.33 48 176.18 48.69"/><polygon class="cls-12" points="175.8 50.47 171.51 50.47 171.66 49.78 175.95 49.78 175.8 50.47"/><path class="cls-15" d="M165.09,44.46a6.34,6.34,0,0,0-.83.3.22.22,0,0,1-.22,0l-1.39-1a.63.63,0,0,0-.74,0l-.91.76a.65.65,0,0,0-.15.73l.77,1.53a.24.24,0,0,1,0,.23,4.51,4.51,0,0,0-.44.77.29.29,0,0,1-.18.13l-1.73.1a.66.66,0,0,0-.56.49l-.2,1.16a.63.63,0,0,0,.35.66l1.58.68a.24.24,0,0,1,.13.18,6.49,6.49,0,0,0,.16.88.27.27,0,0,1,0,.21l-1.26,1.19a.62.62,0,0,0-.11.73l.59,1a.63.63,0,0,0,.69.27l1.65-.49a.28.28,0,0,1,.23.05,5.18,5.18,0,0,0,.67.57.25.25,0,0,1,.09.2l-.2,1.72a.63.63,0,0,0,.39.63l1.11.41a.64.64,0,0,0,.7-.24l1-1.43a.26.26,0,0,1,.21-.11h.88a.25.25,0,0,1,.2.09l1,1.45a.64.64,0,0,0,.7.24l1.11-.41a.63.63,0,0,0,.39-.63l-.2-1.71a.26.26,0,0,1,.09-.22,6.13,6.13,0,0,0,.68-.56.26.26,0,0,1,.21-.06l1.66.5a.63.63,0,0,0,.69-.27l.59-1a.62.62,0,0,0-.1-.73L173,52.25a.27.27,0,0,1-.06-.23,8.52,8.52,0,0,0,.16-.88.24.24,0,0,1,.12-.17l1.59-.68a.63.63,0,0,0,.35-.66l-.2-1.16a.63.63,0,0,0-.56-.49l-1.71-.1a.28.28,0,0,1-.2-.13A6,6,0,0,0,172,47a.23.23,0,0,1,0-.2l.78-1.56a.66.66,0,0,0-.15-.72l-.91-.76a.63.63,0,0,0-.74,0l-1.38,1a.25.25,0,0,1-.24,0,6.34,6.34,0,0,0-.83-.3.26.26,0,0,1-.15-.16l-.4-1.68a.63.63,0,0,0-.58-.46h-1.18a.63.63,0,0,0-.58.46l-.4,1.67A.26.26,0,0,1,165.09,44.46Z" transform="translate(-4.74 -3.05)"/><path class="cls-16" d="M166.82,45.42a5.07,5.07,0,1,0,5.07,5.07,5.07,5.07,0,0,0-5.07-5.07Z" transform="translate(-4.74 -3.05)"/><rect class="cls-14" x="200.56" y="85.46" width="32.57" height="11.88" rx="2.83"/><polygon class="cls-12" points="215.41 89.09 213.96 89.09 214.1 88.41 215.56 88.41 215.41 89.09"/><polygon class="cls-12" points="215.04 90.87 212.64 90.87 212.78 90.18 215.18 90.18 215.04 90.87"/><polygon class="cls-12" points="214.66 92.65 211.31 92.65 211.46 91.96 214.81 91.96 214.66 92.65"/><polygon class="cls-12" points="214.29 94.43 209.99 94.43 210.14 93.74 214.43 93.74 214.29 94.43"/><path class="cls-15" d="M203.57,88.42a6.34,6.34,0,0,0-.83.3.28.28,0,0,1-.22,0l-1.39-1a.63.63,0,0,0-.74,0l-.91.76a.63.63,0,0,0-.15.72l.77,1.54a.22.22,0,0,1,0,.22,6,6,0,0,0-.44.78.23.23,0,0,1-.18.12l-1.73.11a.63.63,0,0,0-.56.49l-.2,1.16a.61.61,0,0,0,.35.65l1.58.69a.28.28,0,0,1,.14.18,6.6,6.6,0,0,0,.15.87.28.28,0,0,1,0,.22L198,97.42a.62.62,0,0,0-.11.73l.59,1a.63.63,0,0,0,.69.28l1.65-.49a.31.31,0,0,1,.23,0c.21.2.44.39.67.57a.25.25,0,0,1,.09.2l-.2,1.72a.63.63,0,0,0,.39.63l1.11.4a.63.63,0,0,0,.71-.23l.94-1.44a.28.28,0,0,1,.21-.1h.88a.22.22,0,0,1,.2.09l1,1.45a.62.62,0,0,0,.7.23l1.11-.4a.63.63,0,0,0,.39-.63l-.2-1.71a.27.27,0,0,1,.1-.22,7.1,7.1,0,0,0,.67-.56.26.26,0,0,1,.21-.06l1.66.5a.63.63,0,0,0,.69-.28l.59-1a.62.62,0,0,0-.1-.73l-1.25-1.18a.25.25,0,0,1-.07-.23,6.49,6.49,0,0,0,.16-.88.26.26,0,0,1,.12-.17l1.59-.69a.61.61,0,0,0,.35-.65l-.2-1.16a.63.63,0,0,0-.56-.49l-1.71-.11a.28.28,0,0,1-.2-.13,5.35,5.35,0,0,0-.45-.77.26.26,0,0,1,0-.21l.78-1.55a.63.63,0,0,0-.15-.72l-.91-.76a.63.63,0,0,0-.74,0l-1.38,1a.24.24,0,0,1-.23,0,6.34,6.34,0,0,0-.83-.3.31.31,0,0,1-.16-.16l-.4-1.69a.63.63,0,0,0-.58-.46h-1.18a.63.63,0,0,0-.58.46l-.4,1.68A.26.26,0,0,1,203.57,88.42Z" transform="translate(-4.74 -3.05)"/><path class="cls-16" d="M205.3,89.38a5.07,5.07,0,1,0,5.07,5.07,5.07,5.07,0,0,0-5.07-5.07Z" transform="translate(-4.74 -3.05)"/><rect class="cls-14" x="190.44" y="117.93" width="32.57" height="11.87" rx="2.83"/><polygon class="cls-12" points="205.29 121.57 203.83 121.57 203.98 120.88 205.43 120.88 205.29 121.57"/><polygon class="cls-12" points="204.91 123.34 202.51 123.34 202.66 122.66 205.06 122.66 204.91 123.34"/><polygon class="cls-12" points="204.54 125.12 201.19 125.12 201.33 124.43 204.68 124.43 204.54 125.12"/><polygon class="cls-12" points="204.16 126.9 199.86 126.9 200.01 126.21 204.31 126.21 204.16 126.9"/><path class="cls-15" d="M193.44,120.89a6.34,6.34,0,0,0-.83.3.2.2,0,0,1-.21,0l-1.4-1a.63.63,0,0,0-.74,0l-.9.76a.64.64,0,0,0-.15.73l.77,1.53a.31.31,0,0,1,0,.23,4.51,4.51,0,0,0-.44.77.29.29,0,0,1-.19.13l-1.73.1a.64.64,0,0,0-.55.49l-.21,1.16a.65.65,0,0,0,.36.66l1.58.68a.27.27,0,0,1,.13.18,6.49,6.49,0,0,0,.16.88.26.26,0,0,1-.06.21l-1.26,1.19a.62.62,0,0,0-.11.73l.59,1a.63.63,0,0,0,.69.27l1.65-.49a.31.31,0,0,1,.23,0,5.18,5.18,0,0,0,.67.57.26.26,0,0,1,.1.2l-.2,1.72a.63.63,0,0,0,.39.63l1.1.41a.65.65,0,0,0,.71-.24l.95-1.43a.26.26,0,0,1,.21-.11h.88a.29.29,0,0,1,.2.09l1,1.45a.65.65,0,0,0,.71.24l1.1-.41a.62.62,0,0,0,.39-.63l-.19-1.71a.24.24,0,0,1,.09-.22,6,6,0,0,0,.67-.56.29.29,0,0,1,.22-.06l1.66.5a.63.63,0,0,0,.69-.27l.59-1a.62.62,0,0,0-.11-.73l-1.25-1.18a.28.28,0,0,1-.07-.23,5.24,5.24,0,0,0,.16-.88.25.25,0,0,1,.12-.16l1.59-.69a.65.65,0,0,0,.36-.66l-.21-1.16a.61.61,0,0,0-.55-.49l-1.72-.1a.3.3,0,0,1-.2-.13,7.44,7.44,0,0,0-.44-.78.18.18,0,0,1,0-.2l.77-1.56a.6.6,0,0,0-.15-.72l-.9-.76a.63.63,0,0,0-.74,0l-1.39,1a.24.24,0,0,1-.23,0,6.34,6.34,0,0,0-.83-.3.26.26,0,0,1-.15-.16l-.4-1.68a.63.63,0,0,0-.58-.46h-1.19a.63.63,0,0,0-.58.46l-.4,1.67A.25.25,0,0,1,193.44,120.89Z" transform="translate(-4.74 -3.05)"/><path class="cls-16" d="M195.17,121.85a5.07,5.07,0,1,0,5.07,5.07,5.07,5.07,0,0,0-5.07-5.07Z" transform="translate(-4.74 -3.05)"/><path class="cls-14" d="M272.44,98.24h26.9a2.83,2.83,0,0,1,2.83,2.83v6.21a2.83,2.83,0,0,1-2.83,2.83h-26.9a2.83,2.83,0,0,1-2.83-2.83v-6.21A2.85,2.85,0,0,1,272.44,98.24Z" transform="translate(-4.74 -3.05)"/><polygon class="cls-12" points="279.71 98.83 278.26 98.83 278.41 98.14 279.86 98.14 279.71 98.83"/><polygon class="cls-12" points="279.34 100.61 276.94 100.61 277.09 99.92 279.49 99.92 279.34 100.61"/><polygon class="cls-12" points="278.96 102.39 275.62 102.39 275.76 101.7 279.11 101.7 278.96 102.39"/><polygon class="cls-12" points="278.59 104.16 274.3 104.16 274.44 103.48 278.74 103.48 278.59 104.16"/><path class="cls-15" d="M267.87,98.15a8.29,8.29,0,0,0-.83.31.26.26,0,0,1-.21,0l-1.4-1a.66.66,0,0,0-.74,0l-.9.76a.64.64,0,0,0-.15.73l.77,1.54a.28.28,0,0,1,0,.22,6.06,6.06,0,0,0-.45.78.23.23,0,0,1-.18.12l-1.73.1a.64.64,0,0,0-.55.49l-.21,1.17a.65.65,0,0,0,.35.65l1.58.68a.28.28,0,0,1,.14.18,6.49,6.49,0,0,0,.16.88.26.26,0,0,1-.06.21l-1.26,1.19a.64.64,0,0,0-.11.74l.59,1a.6.6,0,0,0,.69.27l1.65-.49a.24.24,0,0,1,.23.06,7.1,7.1,0,0,0,.67.56.26.26,0,0,1,.1.2l-.2,1.73a.63.63,0,0,0,.39.63l1.1.4A.64.64,0,0,0,268,112l.94-1.44a.23.23,0,0,1,.22-.1H270a.28.28,0,0,1,.21.1l.95,1.45a.63.63,0,0,0,.7.23l1.11-.4a.63.63,0,0,0,.39-.63l-.19-1.71a.24.24,0,0,1,.09-.22,5.18,5.18,0,0,0,.67-.57.26.26,0,0,1,.21,0l1.67.49a.63.63,0,0,0,.69-.27l.59-1a.64.64,0,0,0-.11-.74L275.76,106a.26.26,0,0,1-.07-.22,5.36,5.36,0,0,0,.16-.89.22.22,0,0,1,.12-.16l1.59-.69a.64.64,0,0,0,.36-.65l-.21-1.17a.64.64,0,0,0-.55-.49l-1.72-.1a.28.28,0,0,1-.2-.13,7.44,7.44,0,0,0-.44-.78.23.23,0,0,1,0-.2l.78-1.55a.64.64,0,0,0-.15-.73l-.9-.76a.63.63,0,0,0-.74,0l-1.39,1a.24.24,0,0,1-.23,0,6.34,6.34,0,0,0-.83-.3.23.23,0,0,1-.15-.15l-.41-1.69a.63.63,0,0,0-.58-.46H269a.63.63,0,0,0-.58.46L268,98A.24.24,0,0,1,267.87,98.15Z" transform="translate(-4.74 -3.05)"/><path class="cls-16" d="M269.6,99.11a5.07,5.07,0,1,0,5.07,5.07,5.07,5.07,0,0,0-5.07-5.07Z" transform="translate(-4.74 -3.05)"/><rect class="cls-14" x="252.83" y="138.83" width="32.57" height="11.87" rx="2.83"/><rect class="cls-13" x="285.41" y="138.83" width="11.88" height="11.87" rx="2.83"/><polygon class="cls-14" points="287.68 146.46 287.05 148.86 295.64 148.86 295.01 146.46 287.68 146.46"/><polygon class="cls-14" points="288.34 140.64 287.05 145.56 295.64 145.56 294.34 140.64 288.34 140.64"/><polygon class="cls-12" points="267.69 142.46 266.23 142.46 266.38 141.78 267.83 141.78 267.69 142.46"/><polygon class="cls-12" points="267.31 144.24 264.91 144.24 265.06 143.55 267.46 143.55 267.31 144.24"/><polygon class="cls-12" points="266.94 146.02 263.59 146.02 263.73 145.33 267.08 145.33 266.94 146.02"/><polygon class="cls-12" points="266.56 147.8 262.26 147.8 262.41 147.11 266.7 147.11 266.56 147.8"/><path class="cls-15" d="M255.84,141.79a6.34,6.34,0,0,0-.83.3.2.2,0,0,1-.21,0l-1.4-1a.63.63,0,0,0-.74,0l-.9.75a.64.64,0,0,0-.15.73l.77,1.54a.28.28,0,0,1,0,.22,6.06,6.06,0,0,0-.45.78.22.22,0,0,1-.18.12l-1.73.11a.61.61,0,0,0-.55.49l-.21,1.16a.65.65,0,0,0,.35.65l1.58.69a.28.28,0,0,1,.14.18,6.64,6.64,0,0,0,.16.87.29.29,0,0,1-.06.22l-1.26,1.19a.62.62,0,0,0-.11.73l.59,1a.63.63,0,0,0,.69.28l1.65-.5a.32.32,0,0,1,.23.06,7.1,7.1,0,0,0,.67.56.28.28,0,0,1,.1.21l-.2,1.72a.63.63,0,0,0,.39.63l1.1.4a.63.63,0,0,0,.71-.23l.94-1.44a.32.32,0,0,1,.22-.1H258a.28.28,0,0,1,.21.1l.95,1.45a.62.62,0,0,0,.7.23l1.11-.4a.62.62,0,0,0,.39-.63l-.2-1.71a.26.26,0,0,1,.1-.22,7.1,7.1,0,0,0,.67-.56.26.26,0,0,1,.21-.06l1.67.5a.62.62,0,0,0,.68-.28l.6-1a.62.62,0,0,0-.11-.73l-1.25-1.18a.28.28,0,0,1-.07-.23,5.24,5.24,0,0,0,.16-.88.26.26,0,0,1,.12-.17l1.59-.69a.64.64,0,0,0,.36-.65l-.21-1.16a.63.63,0,0,0-.55-.5l-1.72-.1a.28.28,0,0,1-.2-.13,7.3,7.3,0,0,0-.44-.77.26.26,0,0,1,0-.21l.78-1.55a.64.64,0,0,0-.15-.73l-.9-.75a.63.63,0,0,0-.74,0l-1.39,1a.24.24,0,0,1-.23,0,6.34,6.34,0,0,0-.83-.3.26.26,0,0,1-.15-.16l-.41-1.69a.63.63,0,0,0-.58-.46H257a.63.63,0,0,0-.58.46l-.4,1.68A.26.26,0,0,1,255.84,141.79Z" transform="translate(-4.74 -3.05)"/><path class="cls-16" d="M257.57,142.74a5.08,5.08,0,1,0,5.07,5.09h0A5.09,5.09,0,0,0,257.57,142.74Z" transform="translate(-4.74 -3.05)"/><path class="cls-14" d="M272.44,164.8h26.9a2.83,2.83,0,0,1,2.83,2.83v6.21a2.83,2.83,0,0,1-2.83,2.83h-26.9a2.83,2.83,0,0,1-2.83-2.83v-6.21A2.85,2.85,0,0,1,272.44,164.8Z" transform="translate(-4.74 -3.05)"/><polygon class="cls-12" points="279.71 165.38 278.26 165.38 278.41 164.7 279.86 164.7 279.71 165.38"/><polygon class="cls-12" points="279.34 167.16 276.94 167.16 277.09 166.47 279.49 166.47 279.34 167.16"/><polygon class="cls-12" points="278.96 168.94 275.62 168.94 275.76 168.25 279.11 168.25 278.96 168.94"/><polygon class="cls-12" points="278.59 170.71 274.3 170.71 274.44 170.03 278.74 170.03 278.59 170.71"/><path class="cls-15" d="M267.87,164.71a6.34,6.34,0,0,0-.83.3.2.2,0,0,1-.21,0l-1.4-1a.66.66,0,0,0-.74,0l-.9.76a.64.64,0,0,0-.15.73l.77,1.54a.28.28,0,0,1,0,.22,6.06,6.06,0,0,0-.45.78.23.23,0,0,1-.18.12l-1.73.11a.61.61,0,0,0-.55.49l-.21,1.16a.65.65,0,0,0,.35.65l1.58.69a.24.24,0,0,1,.14.17,6.49,6.49,0,0,0,.16.88.26.26,0,0,1-.06.21l-1.26,1.2a.62.62,0,0,0-.11.73l.59,1a.63.63,0,0,0,.69.28l1.65-.5a.32.32,0,0,1,.23.06,7.1,7.1,0,0,0,.67.56.26.26,0,0,1,.1.2l-.2,1.73a.63.63,0,0,0,.39.63l1.1.4a.63.63,0,0,0,.71-.23l.94-1.44a.32.32,0,0,1,.22-.1h.87a.28.28,0,0,1,.21.1l.95,1.45a.63.63,0,0,0,.7.23l1.11-.4a.62.62,0,0,0,.39-.63l-.19-1.71a.24.24,0,0,1,.09-.22,6,6,0,0,0,.67-.56.26.26,0,0,1,.21-.06l1.67.5a.63.63,0,0,0,.69-.28l.59-1a.62.62,0,0,0-.11-.73l-1.25-1.19a.26.26,0,0,1-.07-.22,5.24,5.24,0,0,0,.16-.88.26.26,0,0,1,.12-.17l1.59-.69a.64.64,0,0,0,.36-.65l-.21-1.16a.63.63,0,0,0-.55-.5l-1.72-.1a.28.28,0,0,1-.2-.13,7.3,7.3,0,0,0-.44-.77.26.26,0,0,1,0-.21l.78-1.55a.64.64,0,0,0-.15-.73l-.9-.76a.66.66,0,0,0-.74,0l-1.39,1a.31.31,0,0,1-.23,0,8.29,8.29,0,0,0-.83-.31.23.23,0,0,1-.15-.15l-.41-1.69a.63.63,0,0,0-.58-.46H269a.63.63,0,0,0-.58.46l-.4,1.68A.26.26,0,0,1,267.87,164.71Z" transform="translate(-4.74 -3.05)"/><path class="cls-16" d="M269.6,165.66a5.08,5.08,0,1,0,5.07,5.09v0a5.07,5.07,0,0,0-5.07-5.07Z" transform="translate(-4.74 -3.05)"/><rect class="cls-14" x="95.2" y="22.07" width="32.57" height="11.87" rx="2.83"/><polygon class="cls-12" points="110.05 25.71 108.59 25.71 108.74 25.02 110.19 25.02 110.05 25.71"/><polygon class="cls-12" points="109.67 27.49 107.27 27.49 107.42 26.8 109.82 26.8 109.67 27.49"/><polygon class="cls-12" points="109.3 29.26 105.95 29.26 106.09 28.58 109.44 28.58 109.3 29.26"/><polygon class="cls-12" points="108.92 31.04 104.63 31.04 104.77 30.35 109.07 30.35 108.92 31.04"/><path class="cls-15" d="M98.2,25a8.29,8.29,0,0,0-.83.31.26.26,0,0,1-.21,0l-1.4-1a.66.66,0,0,0-.74,0l-.9.76a.64.64,0,0,0-.15.73l.77,1.54a.28.28,0,0,1,0,.22,7.3,7.3,0,0,0-.44.77.26.26,0,0,1-.19.13l-1.73.1a.64.64,0,0,0-.55.49l-.21,1.17a.64.64,0,0,0,.36.65l1.58.68a.29.29,0,0,1,.13.18,6.49,6.49,0,0,0,.16.88.26.26,0,0,1-.06.21L92.52,34a.64.64,0,0,0-.11.74l.59,1a.63.63,0,0,0,.69.27l1.65-.49a.24.24,0,0,1,.23.06,6.13,6.13,0,0,0,.68.56.25.25,0,0,1,.09.2l-.2,1.73a.63.63,0,0,0,.39.63l1.11.4a.63.63,0,0,0,.7-.23l1-1.44a.23.23,0,0,1,.21-.1h.88a.26.26,0,0,1,.2.1l1,1.45a.65.65,0,0,0,.71.23l1.1-.4a.66.66,0,0,0,.4-.63l-.2-1.71a.24.24,0,0,1,.09-.22,5.18,5.18,0,0,0,.67-.57.25.25,0,0,1,.22,0l1.66.49a.63.63,0,0,0,.69-.27l.59-1a.64.64,0,0,0-.11-.74l-1.25-1.18a.26.26,0,0,1-.07-.22,5.36,5.36,0,0,0,.16-.89.25.25,0,0,1,.12-.16l1.6-.69a.65.65,0,0,0,.35-.65L108.05,29a.64.64,0,0,0-.55-.49l-1.72-.1a.3.3,0,0,1-.2-.13,6,6,0,0,0-.44-.78.18.18,0,0,1,0-.2l.77-1.55a.64.64,0,0,0-.15-.73l-.9-.76a.63.63,0,0,0-.74,0l-1.38,1a.33.33,0,0,1-.24,0,6.34,6.34,0,0,0-.83-.3.23.23,0,0,1-.15-.15l-.4-1.69a.63.63,0,0,0-.58-.46h-1.2a.63.63,0,0,0-.58.46l-.4,1.67A.23.23,0,0,1,98.2,25Z" transform="translate(-4.74 -3.05)"/><path class="cls-16" d="M99.93,26A5.07,5.07,0,1,0,105,31.07h0A5.09,5.09,0,0,0,99.93,26Z" transform="translate(-4.74 -3.05)"/><rect class="cls-14" x="95.2" y="2.65" width="32.57" height="11.87" rx="2.83"/><polygon class="cls-12" points="110.05 6.28 108.59 6.28 108.74 5.6 110.19 5.6 110.05 6.28"/><polygon class="cls-12" points="109.67 8.06 107.27 8.06 107.42 7.37 109.82 7.37 109.67 8.06"/><polygon class="cls-12" points="109.3 9.84 105.95 9.84 106.09 9.15 109.44 9.15 109.3 9.84"/><polygon class="cls-12" points="108.92 11.61 104.63 11.61 104.77 10.93 109.07 10.93 108.92 11.61"/><path class="cls-15" d="M98.2,5.61a6.34,6.34,0,0,0-.83.3.2.2,0,0,1-.21,0l-1.4-1a.63.63,0,0,0-.74,0l-.9.75a.64.64,0,0,0-.15.73l.77,1.54a.28.28,0,0,1,0,.22,6,6,0,0,0-.44.78.25.25,0,0,1-.2.07l-1.73.11a.61.61,0,0,0-.55.49l-.21,1.16a.64.64,0,0,0,.36.65l1.58.69a.24.24,0,0,1,.13.18,6.64,6.64,0,0,0,.16.87.29.29,0,0,1-.06.22l-1.26,1.19a.62.62,0,0,0-.11.73l.59,1a.63.63,0,0,0,.69.28l1.65-.49a.27.27,0,0,1,.23.05c.22.2.44.39.68.57a.25.25,0,0,1,.09.2l-.2,1.72a.63.63,0,0,0,.39.63l1.11.4a.62.62,0,0,0,.7-.23l1-1.44a.28.28,0,0,1,.21-.1h.88a.26.26,0,0,1,.2.1l1,1.45a.63.63,0,0,0,.71.23l1.1-.4a.64.64,0,0,0,.4-.63l-.2-1.71a.26.26,0,0,1,.09-.22,6,6,0,0,0,.67-.56.29.29,0,0,1,.22-.06l1.66.5a.63.63,0,0,0,.69-.28l.59-1a.62.62,0,0,0-.11-.73L106.1,13.4a.28.28,0,0,1-.07-.23,5.24,5.24,0,0,0,.16-.88.3.3,0,0,1,.12-.17l1.6-.69a.65.65,0,0,0,.35-.65l-.21-1.16a.64.64,0,0,0-.55-.5L105.78,9a.3.3,0,0,1-.2-.13,4.51,4.51,0,0,0-.44-.77.2.2,0,0,1,0-.21l.77-1.55a.64.64,0,0,0-.15-.73l-.9-.75a.63.63,0,0,0-.74,0l-1.38,1a.25.25,0,0,1-.24,0,6.34,6.34,0,0,0-.83-.3.26.26,0,0,1-.15-.16l-.4-1.69a.63.63,0,0,0-.58-.46h-1.2a.63.63,0,0,0-.58.46l-.4,1.68A.27.27,0,0,1,98.2,5.61Z" transform="translate(-4.74 -3.05)"/><path class="cls-16" d="M99.93,6.57A5.07,5.07,0,1,0,105,11.64h0A5.08,5.08,0,0,0,99.93,6.57Z" transform="translate(-4.74 -3.05)"/><rect class="cls-14" x="162.08" y="2.65" width="32.57" height="11.87" rx="2.83"/><polygon class="cls-12" points="176.93 6.28 175.48 6.28 175.62 5.6 177.08 5.6 176.93 6.28"/><polygon class="cls-12" points="176.55 8.06 174.16 8.06 174.3 7.37 176.7 7.37 176.55 8.06"/><polygon class="cls-12" points="176.18 9.84 172.83 9.84 172.98 9.15 176.33 9.15 176.18 9.84"/><polygon class="cls-12" points="175.8 11.61 171.51 11.61 171.66 10.93 175.95 10.93 175.8 11.61"/><path class="cls-15" d="M165.09,5.61a6,6,0,0,0-.84.3.26.26,0,0,1-.21,0l-1.39-1a.63.63,0,0,0-.74,0l-.91.75a.64.64,0,0,0-.15.73l.77,1.54a.22.22,0,0,1,0,.22,6,6,0,0,0-.44.78A.24.24,0,0,1,161,9l-1.73.11a.63.63,0,0,0-.56.49l-.2,1.16a.61.61,0,0,0,.35.65l1.58.69a.23.23,0,0,1,.13.18,6.64,6.64,0,0,0,.16.87.25.25,0,0,1-.06.22l-1.26,1.19a.62.62,0,0,0-.1.73l.59,1a.63.63,0,0,0,.69.28l1.64-.49a.27.27,0,0,1,.23.05c.22.2.44.39.68.57a.25.25,0,0,1,.09.2l-.2,1.72a.63.63,0,0,0,.39.63l1.11.4a.62.62,0,0,0,.7-.23l1-1.44a.28.28,0,0,1,.21-.1h.88a.26.26,0,0,1,.2.1l1,1.45a.62.62,0,0,0,.7.23l1.11-.4a.63.63,0,0,0,.39-.63l-.2-1.71a.26.26,0,0,1,.09-.22,6.13,6.13,0,0,0,.68-.56.26.26,0,0,1,.21-.06l1.66.5a.63.63,0,0,0,.69-.28l.59-1a.62.62,0,0,0-.11-.73L173,13.4a.27.27,0,0,1-.06-.23,6.47,6.47,0,0,0,.15-.88.31.31,0,0,1,.13-.17l1.59-.69a.62.62,0,0,0,.35-.65L175,9.62a.65.65,0,0,0-.56-.5L172.66,9a.26.26,0,0,1-.19-.13A5.35,5.35,0,0,0,172,8.1a.26.26,0,0,1,0-.21l.78-1.55a.65.65,0,0,0-.16-.73l-.9-.75a.63.63,0,0,0-.74,0l-1.38,1a.25.25,0,0,1-.24,0,6.34,6.34,0,0,0-.83-.3.29.29,0,0,1-.15-.16L168,3.76a.63.63,0,0,0-.58-.46h-1.18a.63.63,0,0,0-.58.46l-.4,1.68A.29.29,0,0,1,165.09,5.61Z" transform="translate(-4.74 -3.05)"/><path class="cls-16" d="M166.82,6.57a5.07,5.07,0,1,0,5.07,5.07,5.07,5.07,0,0,0-5.07-5.07Z" transform="translate(-4.74 -3.05)"/><path class="cls-14" d="M272.44,5.7h26.9a2.84,2.84,0,0,1,2.84,2.84v6.21a2.83,2.83,0,0,1-2.83,2.83h-26.9a2.83,2.83,0,0,1-2.83-2.83V8.53A2.84,2.84,0,0,1,272.44,5.7Z" transform="translate(-4.74 -3.05)"/><polygon class="cls-12" points="279.71 6.28 278.26 6.28 278.41 5.6 279.86 5.6 279.71 6.28"/><polygon class="cls-12" points="279.34 8.06 276.94 8.06 277.09 7.37 279.49 7.37 279.34 8.06"/><polygon class="cls-12" points="278.96 9.84 275.62 9.84 275.76 9.15 279.11 9.15 278.96 9.84"/><polygon class="cls-12" points="278.59 11.61 274.3 11.61 274.44 10.93 278.74 10.93 278.59 11.61"/><path class="cls-15" d="M267.87,5.61a6.34,6.34,0,0,0-.83.3.2.2,0,0,1-.21,0l-1.4-1a.63.63,0,0,0-.74,0l-.9.75a.64.64,0,0,0-.15.73l.77,1.54a.28.28,0,0,1,0,.22,6.06,6.06,0,0,0-.45.78.22.22,0,0,1-.18.12L262,9.13a.61.61,0,0,0-.55.49l-.21,1.16a.65.65,0,0,0,.35.65l1.58.69a.24.24,0,0,1,.14.18,6.64,6.64,0,0,0,.16.87.29.29,0,0,1-.06.22l-1.26,1.19a.62.62,0,0,0-.11.73l.59,1a.63.63,0,0,0,.69.28L265,16.1a.27.27,0,0,1,.23,0c.21.2.44.39.67.57a.26.26,0,0,1,.1.2l-.2,1.72a.63.63,0,0,0,.39.63l1.1.4a.63.63,0,0,0,.71-.23L269,18a.32.32,0,0,1,.22-.1h.87a.28.28,0,0,1,.21.1l.95,1.45a.62.62,0,0,0,.7.23l1.11-.4a.62.62,0,0,0,.39-.63L273.21,17a.24.24,0,0,1,.09-.22,6,6,0,0,0,.67-.56.26.26,0,0,1,.21-.06l1.67.5a.63.63,0,0,0,.69-.28l.59-1a.62.62,0,0,0-.11-.73l-1.25-1.18a.28.28,0,0,1-.07-.23,5.24,5.24,0,0,0,.16-.88.26.26,0,0,1,.12-.17l1.59-.69a.64.64,0,0,0,.36-.65l-.21-1.16a.64.64,0,0,0-.55-.5L275.45,9a.28.28,0,0,1-.2-.13,7.3,7.3,0,0,0-.44-.77.26.26,0,0,1,0-.21l.78-1.55a.64.64,0,0,0-.15-.73l-.9-.75a.63.63,0,0,0-.74,0l-1.39,1a.24.24,0,0,1-.23,0,6.34,6.34,0,0,0-.83-.3.26.26,0,0,1-.15-.16l-.41-1.69a.63.63,0,0,0-.58-.46H269a.63.63,0,0,0-.58.46L268,5.44A.25.25,0,0,1,267.87,5.61Z" transform="translate(-4.74 -3.05)"/><path class="cls-16" d="M269.6,6.57a5.07,5.07,0,1,0,5.07,5.07,5.07,5.07,0,0,0-5.07-5.07Z" transform="translate(-4.74 -3.05)"/><rect class="cls-14" x="162.08" y="22.07" width="32.57" height="11.87" rx="2.83"/><polygon class="cls-12" points="176.93 25.71 175.48 25.71 175.62 25.02 177.08 25.02 176.93 25.71"/><polygon class="cls-12" points="176.55 27.49 174.16 27.49 174.3 26.8 176.7 26.8 176.55 27.49"/><polygon class="cls-12" points="176.18 29.26 172.83 29.26 172.98 28.58 176.33 28.58 176.18 29.26"/><polygon class="cls-12" points="175.8 31.04 171.51 31.04 171.66 30.35 175.95 30.35 175.8 31.04"/><path class="cls-15" d="M165.09,25a7.63,7.63,0,0,0-.84.31.38.38,0,0,1-.21,0l-1.39-1a.66.66,0,0,0-.74,0l-.91.76a.64.64,0,0,0-.15.73l.77,1.54a.22.22,0,0,1,0,.22,7.3,7.3,0,0,0-.44.77.24.24,0,0,1-.18.13l-1.73.1a.66.66,0,0,0-.56.49l-.2,1.17a.62.62,0,0,0,.35.65l1.58.68a.24.24,0,0,1,.13.18,6.49,6.49,0,0,0,.16.88.23.23,0,0,1-.06.21L159.4,34a.64.64,0,0,0-.1.74l.59,1a.63.63,0,0,0,.69.27l1.64-.49a.24.24,0,0,1,.23.06,6.13,6.13,0,0,0,.68.56.25.25,0,0,1,.09.2l-.2,1.73a.64.64,0,0,0,.39.63l1.11.4a.63.63,0,0,0,.7-.23l.95-1.44a.23.23,0,0,1,.21-.1h.88a.26.26,0,0,1,.2.1l1,1.45a.63.63,0,0,0,.7.23l1.11-.4a.64.64,0,0,0,.39-.63l-.2-1.71a.24.24,0,0,1,.09-.22,5.27,5.27,0,0,0,.68-.57.23.23,0,0,1,.21,0l1.66.49a.63.63,0,0,0,.69-.27l.59-1a.64.64,0,0,0-.11-.74L173,32.82a.25.25,0,0,1-.06-.22,6.61,6.61,0,0,0,.15-.89.23.23,0,0,1,.13-.16l1.59-.69a.63.63,0,0,0,.35-.65L175,29a.66.66,0,0,0-.56-.49l-1.72-.1a.26.26,0,0,1-.19-.13,6.06,6.06,0,0,0-.45-.78.23.23,0,0,1,0-.2l.78-1.55a.65.65,0,0,0-.16-.73l-.9-.76a.63.63,0,0,0-.74,0l-1.38,1a.33.33,0,0,1-.24,0,6.34,6.34,0,0,0-.83-.3.28.28,0,0,1-.15-.15l-.4-1.69a.63.63,0,0,0-.58-.46h-1.18a.63.63,0,0,0-.58.46l-.4,1.67A.27.27,0,0,1,165.09,25Z" transform="translate(-4.74 -3.05)"/><path class="cls-16" d="M166.82,26a5.07,5.07,0,1,0,5.07,5.07A5.07,5.07,0,0,0,166.82,26Z" transform="translate(-4.74 -3.05)"/><path class="cls-13" d="M280.77,115.56H269.6a5.94,5.94,0,0,0,0,11.87h11.17a2.83,2.83,0,0,0,2.83-2.83v-6.21a2.83,2.83,0,0,0-2.83-2.83Z" transform="translate(-4.74 -3.05)"/><path class="cls-14" d="M274,121.5a4.35,4.35,0,0,1-8.69,0,4.53,4.53,0,0,1,.31-1.62.46.46,0,0,1,.62-.2.48.48,0,0,1,.23.54,3.32,3.32,0,0,0-.25,1.28,3.44,3.44,0,1,0,5-3,.45.45,0,1,1,.42-.8A4.32,4.32,0,0,1,274,121.5Zm-4.35-3a.67.67,0,1,0-.67-.67.67.67,0,0,0,.67.67Zm0,3.68A.67.67,0,0,0,270,121l-3.58-2.66,2.65,3.58a.7.7,0,0,0,.51.3Z" transform="translate(-4.74 -3.05)"/><path class="cls-13" d="M98.52,183.88H87.35a5.94,5.94,0,0,0,0,11.87H98.52a2.83,2.83,0,0,0,2.83-2.83h0v-6.21A2.83,2.83,0,0,0,98.52,183.88Z" transform="translate(-4.74 -3.05)"/><path class="cls-14" d="M91.69,189.82a4.34,4.34,0,0,1-8.68,0,4.25,4.25,0,0,1,.31-1.62.45.45,0,0,1,.84.34,3.43,3.43,0,0,0,6.38,2.52,3.3,3.3,0,0,0,.24-1.24,3.42,3.42,0,0,0-1.84-3,.45.45,0,0,1-.19-.61h0a.44.44,0,0,1,.59-.2h0A4.32,4.32,0,0,1,91.69,189.82Zm-4.34-3a.67.67,0,1,0-.67-.67h0a.67.67,0,0,0,.67.66Zm0,3.68a.67.67,0,0,0,.37-1.23l-3.58-2.66,2.65,3.58a.68.68,0,0,0,.56.3Z" transform="translate(-4.74 -3.05)"/><path class="cls-13" d="M156.06,134.65H144.9a5.94,5.94,0,0,0,0,11.88h11.16a2.85,2.85,0,0,0,2.84-2.84v-6.2A2.85,2.85,0,0,0,156.06,134.65Z" transform="translate(-4.74 -3.05)"/><path class="cls-14" d="M149.24,140.59a4.35,4.35,0,0,1-8.69,0,4.53,4.53,0,0,1,.31-1.62.47.47,0,0,1,.6-.25.46.46,0,0,1,.25.59,3.51,3.51,0,0,0-.25,1.28,3.44,3.44,0,1,0,5-3,.47.47,0,0,1-.2-.62.46.46,0,0,1,.62-.19A4.34,4.34,0,0,1,149.24,140.59Zm-4.34-3a.67.67,0,1,0-.67-.67h0a.67.67,0,0,0,.67.66Zm0,3.68a.67.67,0,0,0,.67-.67.66.66,0,0,0-.31-.56l-3.58-2.65,2.66,3.57a.65.65,0,0,0,.56.3Z" transform="translate(-4.74 -3.05)"/><path class="cls-17" d="M239,5.7h6.21A2.84,2.84,0,0,1,248,8.53v6.21a2.83,2.83,0,0,1-2.83,2.83H239a2.83,2.83,0,0,1-2.83-2.83h0V8.53A2.83,2.83,0,0,1,239,5.7Z" transform="translate(-4.74 -3.05)"/><rect class="cls-17" x="57.07" y="180.83" width="11.87" height="11.87" rx="2.83"/><path class="cls-17" d="M43,120.64H19.14l-.05-.06-.91-.76a.63.63,0,0,0-.74,0l-1.13.84H16.1a2.72,2.72,0,0,0-.63.08c-.16-.06-.31-.12-.48-.17a.28.28,0,0,1-.15-.15l-.4-1.69a.63.63,0,0,0-.58-.46H12.68a.63.63,0,0,0-.58.46l-.4,1.67a.25.25,0,0,1-.16.17,8.29,8.29,0,0,0-.83.31.28.28,0,0,1-.22,0l-1.39-1a.66.66,0,0,0-.74,0l-.91.76a.65.65,0,0,0-.15.73l.77,1.54a.22.22,0,0,1,0,.22,5.88,5.88,0,0,0-.44.77.24.24,0,0,1-.18.13l-1.73.1a.66.66,0,0,0-.56.49L5,125.73a.62.62,0,0,0,.35.65l1.58.68a.24.24,0,0,1,.13.18,6.49,6.49,0,0,0,.16.88.26.26,0,0,1,0,.21L6,129.52a.64.64,0,0,0-.11.74l.59,1a.63.63,0,0,0,.69.27L8.78,131a.23.23,0,0,1,.22.06,7.22,7.22,0,0,0,.68.56.25.25,0,0,1,.09.2l-.2,1.72a.66.66,0,0,0,.39.64l1.11.4a.63.63,0,0,0,.7-.23l1-1.44a.26.26,0,0,1,.21-.11h.88a.26.26,0,0,1,.2.1l1,1.45a.63.63,0,0,0,.7.23l1.11-.4a.66.66,0,0,0,.39-.64l-.13-1.08H43a2.85,2.85,0,0,0,2.83-2.84v-6.2A2.84,2.84,0,0,0,43,120.64Z" transform="translate(-4.74 -3.05)"/><path class="cls-17" d="M43,101.22H19.14l-.05-.07-.91-.76a.66.66,0,0,0-.74,0l-1.13.85H16.1a2.72,2.72,0,0,0-.63.08c-.16-.06-.31-.13-.48-.18a.28.28,0,0,1-.15-.15l-.4-1.69a.63.63,0,0,0-.58-.46H12.68a.63.63,0,0,0-.58.46l-.4,1.7a.26.26,0,0,1-.16.18,6.34,6.34,0,0,0-.83.3.28.28,0,0,1-.22,0l-1.39-1a.66.66,0,0,0-.74,0l-.91.76a.65.65,0,0,0-.15.73l.77,1.54a.22.22,0,0,1,0,.22,6,6,0,0,0-.44.78.28.28,0,0,1-.18.12l-1.73.11a.63.63,0,0,0-.56.49L5,106.3a.61.61,0,0,0,.35.65l1.58.69a.23.23,0,0,1,.13.17,6.49,6.49,0,0,0,.16.88.26.26,0,0,1,0,.21L6,110.1a.62.62,0,0,0-.11.73l.59,1a.6.6,0,0,0,.69.27l1.65-.49a.29.29,0,0,1,.22.06,7.22,7.22,0,0,0,.68.56.25.25,0,0,1,.09.2l-.2,1.73a.63.63,0,0,0,.39.63l1.11.4a.62.62,0,0,0,.7-.23l1-1.44a.25.25,0,0,1,.21-.1h.88a.26.26,0,0,1,.2.1L15,115a.63.63,0,0,0,.7.23l1.11-.4a.63.63,0,0,0,.39-.63l-.13-1.09H43a2.83,2.83,0,0,0,2.83-2.83h0V104A2.83,2.83,0,0,0,43,101.22Z" transform="translate(-4.74 -3.05)"/><path class="cls-17" d="M113.49,151.34H89.62l-.05-.06-.91-.76a.63.63,0,0,0-.74,0l-1.13.84h-.2a2.74,2.74,0,0,0-.64.08l-.47-.17a.23.23,0,0,1-.15-.15l-.41-1.69a.63.63,0,0,0-.58-.46H83.16a.63.63,0,0,0-.58.46l-.4,1.67a.23.23,0,0,1-.16.17,8.29,8.29,0,0,0-.83.31.41.41,0,0,1-.22,0l-1.39-1a.66.66,0,0,0-.74,0l-.9.76a.64.64,0,0,0-.15.73l.77,1.54a.28.28,0,0,1,0,.22,7.3,7.3,0,0,0-.44.77.23.23,0,0,1-.18.13l-1.73.1a.64.64,0,0,0-.55.49l-.21,1.17a.63.63,0,0,0,.35.65l1.58.68a.28.28,0,0,1,.14.18,5.24,5.24,0,0,0,.16.88.26.26,0,0,1-.06.21l-1.26,1.19a.64.64,0,0,0-.11.74l.59,1a.63.63,0,0,0,.69.27l1.65-.49a.24.24,0,0,1,.23.06,7.1,7.1,0,0,0,.67.56.22.22,0,0,1,.09.2L80,164.3a.65.65,0,0,0,.38.64l1.11.4a.65.65,0,0,0,.71-.23l.94-1.44a.27.27,0,0,1,.22-.11h.87a.26.26,0,0,1,.2.1l1,1.45a.63.63,0,0,0,.7.23l1.11-.4a.65.65,0,0,0,.39-.64l-.12-1.08h26.06a2.85,2.85,0,0,0,2.84-2.84v-6.2a2.86,2.86,0,0,0-2.86-2.84Z" transform="translate(-4.74 -3.05)"/><path class="cls-17" d="M214.06,167.6a2.83,2.83,0,0,0,2.83-2.83h0v-6.21a2.83,2.83,0,0,0-2.83-2.83H190.19l-.05-.06-.91-.76a.59.59,0,0,0-.73,0l-1.14.84h-.2a2.74,2.74,0,0,0-.64.08,3.75,3.75,0,0,0-.47-.17.26.26,0,0,1-.15-.16l-.41-1.69a.63.63,0,0,0-.58-.46h-1.18a.63.63,0,0,0-.58.46l-.4,1.68a.25.25,0,0,1-.16.17,6.34,6.34,0,0,0-.83.3.28.28,0,0,1-.22,0l-1.39-1a.63.63,0,0,0-.74,0l-.9.76a.6.6,0,0,0-.15.72l.77,1.54a.31.31,0,0,1,0,.23,5.35,5.35,0,0,0-.45.77.24.24,0,0,1-.18.13l-1.73.1a.61.61,0,0,0-.55.49l-.21,1.16a.65.65,0,0,0,.35.65l1.58.69a.28.28,0,0,1,.14.18,6.64,6.64,0,0,0,.16.87.29.29,0,0,1-.06.22l-1.26,1.19a.62.62,0,0,0-.11.73l.59,1a.63.63,0,0,0,.69.27l1.65-.49a.31.31,0,0,1,.23,0c.21.2.44.39.67.57a.2.2,0,0,1,.09.2l-.19,1.72a.63.63,0,0,0,.38.63l1.11.4a.63.63,0,0,0,.71-.23l.94-1.44a.32.32,0,0,1,.22-.1h.87a.2.2,0,0,1,.2.09l1,1.45a.62.62,0,0,0,.7.23l1.11-.4a.62.62,0,0,0,.39-.63L188,167.6Z" transform="translate(-4.74 -3.05)"/><path class="cls-17" d="M158.21,183.88H134.34l-.05-.07-.91-.76a.66.66,0,0,0-.74,0l-1.13.85h-.2a2.74,2.74,0,0,0-.64.08c-.16-.06-.31-.13-.47-.18a.26.26,0,0,1-.16-.15l-.4-1.69a.63.63,0,0,0-.58-.46h-1.18a.63.63,0,0,0-.58.46l-.4,1.68a.25.25,0,0,1-.16.17,6.34,6.34,0,0,0-.83.3.28.28,0,0,1-.22,0l-1.39-1a.66.66,0,0,0-.74,0l-.91.76a.65.65,0,0,0-.15.73l.77,1.54a.22.22,0,0,1,0,.22,7.44,7.44,0,0,0-.44.78.23.23,0,0,1-.18.12l-1.73.11a.61.61,0,0,0-.55.49l-.21,1.16a.62.62,0,0,0,.35.65l1.58.69a.26.26,0,0,1,.14.17,6.47,6.47,0,0,0,.15.88.25.25,0,0,1,0,.22l-1.26,1.19a.62.62,0,0,0-.11.73l.59,1a.63.63,0,0,0,.69.28l1.65-.5a.32.32,0,0,1,.23.06,6,6,0,0,0,.67.56.25.25,0,0,1,.09.2l-.2,1.73a.63.63,0,0,0,.39.63l1.11.4a.63.63,0,0,0,.71-.23l.94-1.44a.28.28,0,0,1,.21-.1h.88a.26.26,0,0,1,.2.1l1,1.45a.63.63,0,0,0,.7.23l1.11-.4a.63.63,0,0,0,.39-.63l-.13-1.09h26.07a2.83,2.83,0,0,0,2.83-2.83h0v-6.21a2.83,2.83,0,0,0-2.78-2.88Z" transform="translate(-4.74 -3.05)"/><path class="cls-17" d="M229.29,183.88H205.42v-.07l-.91-.76a.62.62,0,0,0-.73,0l-1.14.85h-.2a2.74,2.74,0,0,0-.64.08c-.15-.06-.31-.13-.47-.18a.23.23,0,0,1-.15-.15l-.41-1.69a.63.63,0,0,0-.58-.46H199a.63.63,0,0,0-.58.46l-.4,1.68a.25.25,0,0,1-.16.17,6.34,6.34,0,0,0-.83.3.2.2,0,0,1-.21,0l-1.4-1a.66.66,0,0,0-.74,0l-.9.76a.64.64,0,0,0-.15.73l.77,1.54a.28.28,0,0,1,0,.22,6.06,6.06,0,0,0-.45.78.23.23,0,0,1-.18.12l-1.73.11a.61.61,0,0,0-.55.49l-.21,1.16a.65.65,0,0,0,.35.65l1.58.69a.26.26,0,0,1,.14.17,6.49,6.49,0,0,0,.16.88.29.29,0,0,1-.06.22l-1.26,1.19a.62.62,0,0,0-.11.73l.59,1a.63.63,0,0,0,.69.28l1.65-.5a.32.32,0,0,1,.23.06,7.1,7.1,0,0,0,.67.56.26.26,0,0,1,.1.2l-.2,1.73a.63.63,0,0,0,.38.63l1.11.4a.63.63,0,0,0,.71-.23l.94-1.44a.32.32,0,0,1,.22-.1h.88a.26.26,0,0,1,.2.1l1,1.45a.65.65,0,0,0,.71.23l1.1-.4a.62.62,0,0,0,.39-.63l-.12-1.09h26.06a2.85,2.85,0,0,0,2.84-2.83v-6.21a2.84,2.84,0,0,0-2.8-2.88Z" transform="translate(-4.74 -3.05)"/><path class="cls-17" d="M43,159.5H19.14l-.05-.07-.91-.76a.66.66,0,0,0-.74,0l-1.13.85H16.1a2.72,2.72,0,0,0-.63.08c-.16-.06-.31-.13-.48-.18a.28.28,0,0,1-.15-.15l-.4-1.69a.63.63,0,0,0-.58-.46H12.68a.63.63,0,0,0-.58.46l-.4,1.67a.26.26,0,0,1-.16.18,6.34,6.34,0,0,0-.83.3.28.28,0,0,1-.22,0l-1.39-1a.66.66,0,0,0-.74,0l-.91.76a.65.65,0,0,0-.15.73l.77,1.54a.22.22,0,0,1,0,.22,6,6,0,0,0-.44.78.28.28,0,0,1-.18.12l-1.73.1a.65.65,0,0,0-.56.5L5,164.58a.61.61,0,0,0,.35.65l1.58.68a.24.24,0,0,1,.13.18,6.49,6.49,0,0,0,.16.88.26.26,0,0,1,0,.21L6,168.38a.62.62,0,0,0-.11.73l.59,1a.6.6,0,0,0,.69.27l1.65-.49A.23.23,0,0,1,9,170a7.22,7.22,0,0,0,.68.56.25.25,0,0,1,.09.2l-.2,1.73a.63.63,0,0,0,.39.63l1.11.4a.62.62,0,0,0,.7-.23l1-1.44a.25.25,0,0,1,.21-.1h.88a.26.26,0,0,1,.2.1l1,1.45a.63.63,0,0,0,.7.23l1.11-.4a.63.63,0,0,0,.39-.63l-.13-1.09H43a2.83,2.83,0,0,0,2.83-2.83h0v-6.21A2.83,2.83,0,0,0,43,159.5Z" transform="translate(-4.74 -3.05)"/><path class="cls-17" d="M92,50.29l1.58.68a.24.24,0,0,1,.13.18,6.49,6.49,0,0,0,.16.88.26.26,0,0,1-.06.21l-1.26,1.19a.62.62,0,0,0-.11.73l.59,1a.63.63,0,0,0,.69.27L95.34,55a.27.27,0,0,1,.23,0,5.27,5.27,0,0,0,.68.57.25.25,0,0,1,.09.2l-.2,1.72a.63.63,0,0,0,.39.63l1.11.41a.64.64,0,0,0,.7-.24l1-1.43a.26.26,0,0,1,.21-.11h.88a.25.25,0,0,1,.2.09l1,1.45a.65.65,0,0,0,.71.24l1.1-.41a.64.64,0,0,0,.4-.63l-.13-1.08h26.06a2.85,2.85,0,0,0,2.84-2.84v-6.2a2.85,2.85,0,0,0-2.84-2.84h-24v-.06l-.9-.76a.63.63,0,0,0-.74,0L103,44.6h-.2a2.74,2.74,0,0,0-.64.08c-.15-.06-.3-.12-.47-.17a.26.26,0,0,1-.15-.16l-.4-1.68a.63.63,0,0,0-.58-.46H99.34a.63.63,0,0,0-.58.46l-.4,1.67a.25.25,0,0,1-.16.17,6.34,6.34,0,0,0-.83.3.2.2,0,0,1-.21,0l-1.4-1a.63.63,0,0,0-.74,0l-.9.76a.6.6,0,0,0-.15.72l.77,1.54a.31.31,0,0,1,0,.23,4.51,4.51,0,0,0-.44.77.29.29,0,0,1-.19.13l-1.73.1a.62.62,0,0,0-.55.49l-.21,1.16A.64.64,0,0,0,92,50.29Z" transform="translate(-4.74 -3.05)"/><path class="cls-17" d="M196.56,56.43a2.85,2.85,0,0,0,2.83-2.84v-6.2a2.85,2.85,0,0,0-2.83-2.84H172.69l-.05-.06-.91-.76a.63.63,0,0,0-.74,0l-1.13.84h-.2a2.74,2.74,0,0,0-.64.08c-.16-.06-.31-.12-.48-.17a.29.29,0,0,1-.15-.16l-.4-1.68a.63.63,0,0,0-.58-.46h-1.18a.63.63,0,0,0-.58.46l-.4,1.67a.25.25,0,0,1-.16.17,6.34,6.34,0,0,0-.83.3.22.22,0,0,1-.22,0l-1.39-1a.63.63,0,0,0-.74,0l-.91.76a.63.63,0,0,0-.15.72l.77,1.54a.24.24,0,0,1,0,.23,4.51,4.51,0,0,0-.44.77.29.29,0,0,1-.18.13l-1.73.1a.64.64,0,0,0-.56.49l-.2,1.16a.63.63,0,0,0,.35.66l1.58.68a.23.23,0,0,1,.13.18,6.49,6.49,0,0,0,.16.88.27.27,0,0,1,0,.21l-1.26,1.19a.62.62,0,0,0-.11.73l.59,1a.63.63,0,0,0,.69.27l1.65-.49a.28.28,0,0,1,.23,0,5.18,5.18,0,0,0,.67.57.25.25,0,0,1,.09.2l-.2,1.72a.63.63,0,0,0,.39.63l1.11.41a.64.64,0,0,0,.7-.24l1-1.43a.26.26,0,0,1,.21-.11h.88a.25.25,0,0,1,.2.09l1,1.45a.64.64,0,0,0,.7.24l1.11-.41a.63.63,0,0,0,.39-.63l-.13-1.08Z" transform="translate(-4.74 -3.05)"/><path class="cls-17" d="M235,88.51H211.17v-.06l-.91-.76a.63.63,0,0,0-.74,0l-1.13.85h-.2a2.74,2.74,0,0,0-.64.08,3.75,3.75,0,0,0-.47-.17.31.31,0,0,1-.16-.16l-.4-1.69a.63.63,0,0,0-.58-.46h-1.18a.63.63,0,0,0-.58.46l-.4,1.68a.25.25,0,0,1-.16.17,6.34,6.34,0,0,0-.83.3.28.28,0,0,1-.22,0l-1.39-1a.63.63,0,0,0-.74,0l-.91.76a.63.63,0,0,0-.15.72l.77,1.54a.22.22,0,0,1,0,.22,6,6,0,0,0-.44.78.23.23,0,0,1-.18.12L197.8,92a.63.63,0,0,0-.56.49l-.2,1.16a.61.61,0,0,0,.35.65L199,95a.28.28,0,0,1,.14.18,6.6,6.6,0,0,0,.15.87.28.28,0,0,1,0,.22L198,97.45a.62.62,0,0,0-.11.73l.59,1a.63.63,0,0,0,.69.28l1.65-.49a.31.31,0,0,1,.23,0c.21.2.44.39.67.57a.25.25,0,0,1,.09.2l-.2,1.72a.63.63,0,0,0,.39.63l1.11.4a.63.63,0,0,0,.71-.23l.94-1.44a.28.28,0,0,1,.21-.1h.88a.22.22,0,0,1,.2.09l1,1.45a.62.62,0,0,0,.7.23l1.11-.4a.63.63,0,0,0,.39-.63l-.13-1.09H235a2.83,2.83,0,0,0,2.83-2.83h0v-6.2A2.83,2.83,0,0,0,235,88.51Z" transform="translate(-4.74 -3.05)"/><path class="cls-17" d="M227.75,130v-6.2a2.85,2.85,0,0,0-2.84-2.84H201v-.06l-.9-.76a.63.63,0,0,0-.74,0l-1.14.84H198a2.74,2.74,0,0,0-.64.08l-.47-.17a.26.26,0,0,1-.15-.16l-.4-1.68a.63.63,0,0,0-.58-.46h-1.19a.63.63,0,0,0-.58.46l-.4,1.67a.25.25,0,0,1-.16.17,6.34,6.34,0,0,0-.83.3.2.2,0,0,1-.21,0l-1.4-1a.63.63,0,0,0-.74,0l-.9.76a.64.64,0,0,0-.15.73l.77,1.53a.31.31,0,0,1,0,.23,4.51,4.51,0,0,0-.44.77.29.29,0,0,1-.19.13l-1.73.1a.64.64,0,0,0-.55.49l-.21,1.16a.65.65,0,0,0,.36.66l1.58.68a.27.27,0,0,1,.13.18,6.49,6.49,0,0,0,.16.88.26.26,0,0,1-.06.21l-1.26,1.19a.62.62,0,0,0-.11.73l.59,1a.63.63,0,0,0,.69.27l1.65-.49a.31.31,0,0,1,.23,0,5.18,5.18,0,0,0,.67.57.26.26,0,0,1,.1.2l-.2,1.72a.63.63,0,0,0,.39.63l1.1.41a.65.65,0,0,0,.71-.24l.95-1.43a.26.26,0,0,1,.21-.11h.88a.29.29,0,0,1,.2.09l1,1.45a.65.65,0,0,0,.71.24l1.1-.41a.62.62,0,0,0,.39-.63l-.12-1.08H225A2.84,2.84,0,0,0,227.75,130Z" transform="translate(-4.74 -3.05)"/><path class="cls-17" d="M299.34,98.24H275.47l-.05-.06-.9-.76a.63.63,0,0,0-.74,0l-1.14.84h-.2a3.4,3.4,0,0,0-.64.08l-.47-.17a.23.23,0,0,1-.15-.15l-.41-1.69a.63.63,0,0,0-.58-.46H269a.63.63,0,0,0-.58.46L268,98a.23.23,0,0,1-.16.17,8.29,8.29,0,0,0-.83.31.26.26,0,0,1-.21,0l-1.4-1a.66.66,0,0,0-.74,0l-.9.76a.64.64,0,0,0-.15.73l.77,1.54a.28.28,0,0,1,0,.22,6,6,0,0,0-.45.77.23.23,0,0,1-.18.13l-1.73.1a.64.64,0,0,0-.55.49l-.21,1.17a.65.65,0,0,0,.35.65l1.58.68a.28.28,0,0,1,.14.18,6.49,6.49,0,0,0,.16.88.26.26,0,0,1-.06.21l-1.26,1.19a.64.64,0,0,0-.11.74l.59,1a.63.63,0,0,0,.69.27l1.65-.49a.24.24,0,0,1,.23.06,7.1,7.1,0,0,0,.67.56.26.26,0,0,1,.1.2l-.2,1.73a.63.63,0,0,0,.39.63l1.1.4A.64.64,0,0,0,268,112l.94-1.44a.23.23,0,0,1,.22-.1H270a.28.28,0,0,1,.21.1l.95,1.45a.63.63,0,0,0,.7.23l1.11-.4a.63.63,0,0,0,.39-.63l-.12-1.09h26.06a2.86,2.86,0,0,0,2.84-2.83v-6.21A2.86,2.86,0,0,0,299.34,98.24Z" transform="translate(-4.74 -3.05)"/><rect class="cls-17" x="285.41" y="138.83" width="11.88" height="11.87" rx="2.83"/><path class="cls-17" d="M261.25,153.75h26.06a2.85,2.85,0,0,0,2.84-2.83v-6.21a2.85,2.85,0,0,0-2.84-2.83H263.44l-.05-.07-.9-.75a.63.63,0,0,0-.74,0l-1.14.85h-.2a2.74,2.74,0,0,0-.64.08,3.75,3.75,0,0,0-.47-.17.26.26,0,0,1-.15-.16l-.41-1.69a.63.63,0,0,0-.58-.46H257a.63.63,0,0,0-.58.46l-.4,1.68a.25.25,0,0,1-.16.17,6.34,6.34,0,0,0-.83.3.2.2,0,0,1-.21,0l-1.4-1a.63.63,0,0,0-.74,0l-.9.75a.64.64,0,0,0-.15.73l.77,1.54a.28.28,0,0,1,0,.22,6.06,6.06,0,0,0-.45.78.22.22,0,0,1-.18.12l-1.73.11a.61.61,0,0,0-.55.49l-.21,1.16a.65.65,0,0,0,.35.65l1.58.69a.28.28,0,0,1,.14.18,6.64,6.64,0,0,0,.16.87.29.29,0,0,1-.06.22l-1.26,1.19a.62.62,0,0,0-.11.73l.59,1a.63.63,0,0,0,.69.28l1.65-.5a.32.32,0,0,1,.23.06,7.1,7.1,0,0,0,.67.56.28.28,0,0,1,.1.21l-.2,1.72a.63.63,0,0,0,.39.63l1.1.4a.63.63,0,0,0,.71-.23l.94-1.44a.32.32,0,0,1,.22-.1H258a.28.28,0,0,1,.21.1l.95,1.45a.62.62,0,0,0,.7.23l1.11-.4a.62.62,0,0,0,.39-.63Z" transform="translate(-4.74 -3.05)"/><path class="cls-17" d="M299.34,164.8H275.47l-.05-.07-.9-.76a.66.66,0,0,0-.74,0l-1.14.85h-.2a3.39,3.39,0,0,0-.64.07l-.47-.17a.23.23,0,0,1-.15-.15l-.41-1.69a.63.63,0,0,0-.58-.46H269a.63.63,0,0,0-.58.46l-.4,1.68a.25.25,0,0,1-.16.17,6.34,6.34,0,0,0-.83.3.2.2,0,0,1-.21,0l-1.4-1a.66.66,0,0,0-.74,0l-.9.76a.64.64,0,0,0-.15.73l.77,1.54a.28.28,0,0,1,0,.22,6.06,6.06,0,0,0-.45.78.23.23,0,0,1-.18.12l-1.73.11a.61.61,0,0,0-.55.49l-.21,1.16a.65.65,0,0,0,.35.65l1.58.69a.24.24,0,0,1,.14.17,6.49,6.49,0,0,0,.16.88.26.26,0,0,1-.06.21l-1.26,1.2a.62.62,0,0,0-.11.73l.59,1a.6.6,0,0,0,.69.27l1.65-.49a.32.32,0,0,1,.23.06,7.1,7.1,0,0,0,.67.56.26.26,0,0,1,.1.2l-.2,1.73a.63.63,0,0,0,.39.63l1.1.4a.63.63,0,0,0,.71-.23l.94-1.44a.26.26,0,0,1,.22-.1H270a.28.28,0,0,1,.21.1l.95,1.45a.63.63,0,0,0,.7.23l1.11-.4a.62.62,0,0,0,.39-.63l-.12-1.09h26.06a2.85,2.85,0,0,0,2.84-2.83v-6.21a2.84,2.84,0,0,0-2.8-2.88Z" transform="translate(-4.74 -3.05)"/><path class="cls-17" d="M92,30.86l1.58.68a.29.29,0,0,1,.13.18,6.49,6.49,0,0,0,.16.88.26.26,0,0,1-.06.21L92.52,34a.64.64,0,0,0-.11.74l.59,1a.63.63,0,0,0,.69.27l1.65-.49a.24.24,0,0,1,.23.06,6.13,6.13,0,0,0,.68.56.25.25,0,0,1,.09.2l-.2,1.72a.63.63,0,0,0,.39.64l1.11.4a.63.63,0,0,0,.7-.23l1-1.44a.26.26,0,0,1,.21-.11h.88a.26.26,0,0,1,.2.1l1,1.45a.65.65,0,0,0,.71.23l1.1-.4a.67.67,0,0,0,.4-.64L103.61,37h26.06a2.85,2.85,0,0,0,2.84-2.84V28a2.85,2.85,0,0,0-2.84-2.84H105.8V25.1l-.9-.76a.63.63,0,0,0-.74,0l-1.14.84h-.2a3.4,3.4,0,0,0-.64.08c-.15-.06-.3-.12-.47-.17a.23.23,0,0,1-.15-.15l-.4-1.69a.63.63,0,0,0-.58-.46H99.34a.63.63,0,0,0-.58.46l-.4,1.67a.23.23,0,0,1-.16.17,8.29,8.29,0,0,0-.83.31.26.26,0,0,1-.21,0l-1.4-1a.66.66,0,0,0-.74,0l-.9.76a.64.64,0,0,0-.15.73l.77,1.54a.28.28,0,0,1,0,.22,5.88,5.88,0,0,0-.44.77.26.26,0,0,1-.19.13l-1.73.1a.64.64,0,0,0-.55.49l-.21,1.17A.64.64,0,0,0,92,30.86Z" transform="translate(-4.74 -3.05)"/><path class="cls-17" d="M92,11.43l1.58.69a.24.24,0,0,1,.13.18,6.64,6.64,0,0,0,.16.87.29.29,0,0,1-.06.22l-1.26,1.19a.62.62,0,0,0-.11.73l.59,1a.63.63,0,0,0,.69.28l1.65-.49a.27.27,0,0,1,.23,0c.22.2.44.39.68.57a.25.25,0,0,1,.09.2l-.2,1.72a.63.63,0,0,0,.39.63l1.11.4a.62.62,0,0,0,.7-.23l1-1.44a.28.28,0,0,1,.21-.1h.88a.26.26,0,0,1,.2.1l1,1.45a.63.63,0,0,0,.71.23l1.1-.4a.64.64,0,0,0,.4-.63l-.13-1.09H129.8a2.85,2.85,0,0,0,2.84-2.83V8.53A2.85,2.85,0,0,0,129.8,5.7h-24V5.63l-.9-.75a.63.63,0,0,0-.74,0L103,5.7h-.2a2.74,2.74,0,0,0-.64.08,2.64,2.64,0,0,0-.47-.17.26.26,0,0,1-.15-.16l-.4-1.69a.63.63,0,0,0-.58-.46H99.34a.63.63,0,0,0-.58.46l-.4,1.68a.25.25,0,0,1-.16.17,6.34,6.34,0,0,0-.83.3.2.2,0,0,1-.21,0l-1.4-1a.63.63,0,0,0-.74,0l-.9.75a.64.64,0,0,0-.15.73l.77,1.54a.28.28,0,0,1,0,.22,6,6,0,0,0-.44.78.25.25,0,0,1-.2.07l-1.73.11a.61.61,0,0,0-.55.49l-.21,1.16A.63.63,0,0,0,92,11.43Z" transform="translate(-4.74 -3.05)"/><path class="cls-17" d="M158.85,11.43l1.58.69a.23.23,0,0,1,.13.18,6.64,6.64,0,0,0,.16.87.25.25,0,0,1-.06.22l-1.26,1.19a.62.62,0,0,0-.1.73l.59,1a.63.63,0,0,0,.69.28l1.64-.49a.27.27,0,0,1,.23,0c.22.2.44.39.68.57a.25.25,0,0,1,.09.2l-.2,1.72a.63.63,0,0,0,.39.63l1.11.4a.62.62,0,0,0,.7-.23l.95-1.44a.28.28,0,0,1,.21-.1h.88a.26.26,0,0,1,.2.1l1,1.45a.62.62,0,0,0,.7.23l1.11-.4a.63.63,0,0,0,.39-.63l-.13-1.09H196.6a2.83,2.83,0,0,0,2.83-2.83h0V8.53A2.83,2.83,0,0,0,196.6,5.7H172.69l-.06-.07-.9-.75a.63.63,0,0,0-.74,0l-1.13.85h-.21a2.72,2.72,0,0,0-.63.08,4.59,4.59,0,0,0-.48-.17.29.29,0,0,1-.15-.16L168,3.76a.63.63,0,0,0-.58-.46h-1.18a.63.63,0,0,0-.58.46l-.4,1.68a.3.3,0,0,1-.16.17,6,6,0,0,0-.84.3.26.26,0,0,1-.21,0l-1.39-1a.63.63,0,0,0-.74,0l-.91.75a.64.64,0,0,0-.15.73l.77,1.54a.22.22,0,0,1,0,.22,6,6,0,0,0-.44.78A.26.26,0,0,1,161,9l-1.73.11a.63.63,0,0,0-.56.49l-.2,1.16A.62.62,0,0,0,158.85,11.43Z" transform="translate(-4.74 -3.05)"/><path class="cls-17" d="M299.34,5.7H275.47l-.05-.07-.9-.75a.63.63,0,0,0-.74,0l-1.14.85h-.2a2.74,2.74,0,0,0-.64.08,3.75,3.75,0,0,0-.47-.17.26.26,0,0,1-.15-.16l-.41-1.69a.63.63,0,0,0-.58-.46H269a.63.63,0,0,0-.58.46L268,5.44a.25.25,0,0,1-.16.17,6.34,6.34,0,0,0-.83.3.2.2,0,0,1-.21,0l-1.4-1a.63.63,0,0,0-.74,0l-.9.75a.64.64,0,0,0-.15.73l.77,1.54a.28.28,0,0,1,0,.22,6.06,6.06,0,0,0-.45.78.22.22,0,0,1-.18.12L262,9.13a.61.61,0,0,0-.55.49l-.21,1.16a.65.65,0,0,0,.35.65l1.58.69a.24.24,0,0,1,.14.18,6.64,6.64,0,0,0,.16.87.29.29,0,0,1-.06.22l-1.26,1.19a.62.62,0,0,0-.11.73l.59,1a.63.63,0,0,0,.69.28L265,16.1a.27.27,0,0,1,.23,0c.21.2.44.39.67.57a.26.26,0,0,1,.1.2l-.2,1.72a.63.63,0,0,0,.39.63l1.1.4a.63.63,0,0,0,.71-.23L269,18a.32.32,0,0,1,.22-.1h.87a.28.28,0,0,1,.21.1l.95,1.45a.62.62,0,0,0,.7.23l1.11-.4a.62.62,0,0,0,.39-.63l-.12-1.09h26.06a2.85,2.85,0,0,0,2.84-2.83V8.53a2.84,2.84,0,0,0-2.85-2.83Z" transform="translate(-4.74 -3.05)"/><path class="cls-17" d="M158.85,30.86l1.58.68a.24.24,0,0,1,.13.18,6.49,6.49,0,0,0,.16.88.26.26,0,0,1-.06.21L159.4,34a.64.64,0,0,0-.1.74l.59,1a.63.63,0,0,0,.69.27l1.64-.49a.24.24,0,0,1,.23.06,6.13,6.13,0,0,0,.68.56.25.25,0,0,1,.09.2l-.2,1.72a.66.66,0,0,0,.39.64l1.11.4a.63.63,0,0,0,.7-.23l.95-1.44a.26.26,0,0,1,.21-.11h.88a.26.26,0,0,1,.2.1l1,1.45a.63.63,0,0,0,.7.23l1.11-.4a.66.66,0,0,0,.39-.64L170.49,37h26.07a2.85,2.85,0,0,0,2.83-2.84V28a2.85,2.85,0,0,0-2.83-2.84H172.69l-.06-.06-.9-.76a.63.63,0,0,0-.74,0l-1.13.84h-.21a3.4,3.4,0,0,0-.63.08c-.16-.06-.31-.12-.48-.17a.28.28,0,0,1-.15-.15l-.4-1.69a.63.63,0,0,0-.58-.46h-1.18a.63.63,0,0,0-.58.46l-.4,1.67a.25.25,0,0,1-.16.17,7.63,7.63,0,0,0-.84.31.38.38,0,0,1-.21,0l-1.39-1a.66.66,0,0,0-.74,0l-.91.76a.64.64,0,0,0-.15.73l.77,1.54a.22.22,0,0,1,0,.22,5.88,5.88,0,0,0-.44.77.24.24,0,0,1-.18.13l-1.73.1a.66.66,0,0,0-.56.49l-.2,1.17A.62.62,0,0,0,158.85,30.86Z" transform="translate(-4.74 -3.05)"/><path class="cls-17" d="M269.6,127.43h11.17a2.83,2.83,0,0,0,2.83-2.83v-6.21a2.83,2.83,0,0,0-2.83-2.83H269.6a5.94,5.94,0,0,0,0,11.87Z" transform="translate(-4.74 -3.05)"/><path class="cls-18" d="M291.14,116a6.5,6.5,0,0,0,1.08-.24,7.93,7.93,0,0,0,3-1.7l3.67,9.27a19.35,19.35,0,0,1-3,2.49,6.43,6.43,0,0,1-3.4,1.24,2.48,2.48,0,0,1-2.2-1.1c.56-.52,2-1.5,2.47-1.18s-.44,1.48-.44,1.48c1.3-1,1.34-1.58,1.23-1.86l-.33-.46m.21.27-4.3-9.69a8.37,8.37,0,0,0-1,0A11.1,11.1,0,0,0,285,115a10.64,10.64,0,0,0-3.81,2l4.65,11.79a26.43,26.43,0,0,1,3.59-3.18,6.62,6.62,0,0,1,3.36-1.46,1.91,1.91,0,0,1,.63.08Z" transform="translate(-4.74 -3.05)"/><path class="cls-14" d="M295.25,114.08a7.93,7.93,0,0,1-3,1.7,6.5,6.5,0,0,1-1.08.24l2.4,8.4h0c.11.28.07.88-1.23,1.86,0,0,.9-1.15.44-1.48s-1.91.66-2.47,1.18a2.48,2.48,0,0,0,2.2,1.1,6.43,6.43,0,0,0,3.4-1.24,19.35,19.35,0,0,0,3-2.49Z" transform="translate(-4.74 -3.05)"/><path class="cls-12" d="M295.77,125.52a20,20,0,0,0,2.77-2.25l-1.1-2.77a13.88,13.88,0,0,1-2.76,2Z" transform="translate(-4.74 -3.05)"/><path class="cls-12" d="M296.21,117.4l-1.09-2.78a8.35,8.35,0,0,1-2.78,1.47l1.12,3.1A10,10,0,0,0,296.21,117.4Z" transform="translate(-4.74 -3.05)"/><path class="cls-12" d="M294.68,122.54l-1.22-3.35a7.47,7.47,0,0,1-1.29.42l1,3.56A8.31,8.31,0,0,0,294.68,122.54Z" transform="translate(-4.74 -3.05)"/><path class="cls-14" d="M288.16,114.49A11.29,11.29,0,0,0,285,115a10.64,10.64,0,0,0-3.81,2l4.65,11.79a26.43,26.43,0,0,1,3.59-3.18,6.62,6.62,0,0,1,3.36-1.46,1.93,1.93,0,0,1,.63.1l-4.3-9.69a6.7,6.7,0,0,0-1,0Z" transform="translate(-4.74 -3.05)"/><path class="cls-12" d="M288.16,114.82a10.88,10.88,0,0,0-3,.43l1.45,3.47a12.59,12.59,0,0,1,3.61-1l-1.28-2.88A6.77,6.77,0,0,0,288.16,114.82Z" transform="translate(-4.74 -3.05)"/><path class="cls-12" d="M288,122.26l1.26,3a6.62,6.62,0,0,1,3.49-1.48h.08l-1.27-2.87A8,8,0,0,0,288,122.26Z" transform="translate(-4.74 -3.05)"/><path class="cls-12" d="M286.57,118.72a15.57,15.57,0,0,0-3.56,2l1.55,3.92a32.73,32.73,0,0,1,3.48-2.36Z" transform="translate(-4.74 -3.05)"/><path class="cls-17" d="M98.52,183.88H87.35a5.94,5.94,0,0,0,0,11.87H98.52a2.83,2.83,0,0,0,2.83-2.83h0v-6.21A2.83,2.83,0,0,0,98.52,183.88Z" transform="translate(-4.74 -3.05)"/><path class="cls-17" d="M144.9,146.53h11.16a2.85,2.85,0,0,0,2.84-2.84v-6.2a2.85,2.85,0,0,0-2.84-2.84H144.9a5.94,5.94,0,0,0,0,11.88Z" transform="translate(-4.74 -3.05)"/><text class="cls-19" transform="translate(6.13 126.56)">6</text><text class="cls-20" transform="translate(23.85 126.56)">260</text><text class="cls-19" transform="translate(6.13 107.14)">7</text><text class="cls-20" transform="translate(23.85 107.14)">290</text><text class="cls-19" transform="translate(76.61 157.26)">5</text><text class="cls-20" transform="translate(94.34 157.26)">195</text><text class="cls-19" transform="translate(177.18 161.65)">6</text><text class="cls-20" transform="translate(194.91 161.65)">230</text><text class="cls-19" transform="translate(121.33 189.8)">7</text><text class="cls-20" transform="translate(139.05 189.8)">290</text><text class="cls-19" transform="translate(192.41 189.8)">5</text><text class="cls-20" transform="translate(210.14 189.8)">225</text><text class="cls-19" transform="translate(6.13 165.42)">2</text><text class="cls-20" transform="translate(26.22 165.42)">90</text><text class="cls-19" transform="translate(92.79 50.47)">8</text><text class="cls-20" transform="translate(110.52 50.47)">330</text><text class="cls-19" transform="translate(159.68 50.47)">7</text><text class="cls-20" transform="translate(177.4 50.47)">270</text><text class="cls-21" transform="translate(209.94 63.57)">Z. Boxes</text><text class="cls-19" transform="translate(198.16 94.43)">7</text><text class="cls-20" transform="translate(215.88 94.43)">290</text><text class="cls-19" transform="translate(188.03 126.9)">6</text><text class="cls-20" transform="translate(205.76 126.9)">260</text><text class="cls-19" transform="translate(262.46 104.16)">8</text><text class="cls-20" transform="translate(280.19 104.16)">315</text><text class="cls-19" transform="translate(250.43 147.8)">8</text><text class="cls-20" transform="translate(268.16 147.8)">335</text><text class="cls-19" transform="translate(262.46 170.72)">4</text><text class="cls-20" transform="translate(280.19 170.72)">140</text><text class="cls-19" transform="translate(92.79 31.04)">3</text><text class="cls-20" transform="translate(110.52 31.04)">120</text><text class="cls-19" transform="translate(92.79 11.62)">4</text><text class="cls-20" transform="translate(110.52 11.62)">175</text><text class="cls-19" transform="translate(159.68 11.62)">6</text><text class="cls-20" transform="translate(177.4 11.62)">240</text><text class="cls-19" transform="translate(262.46 11.62)">5</text><text class="cls-20" transform="translate(280.19 11.62)">200</text><text class="cls-19" transform="translate(159.68 31.04)">8</text><text class="cls-20" transform="translate(177.4 31.04)">315</text><text class="cls-19" transform="translate(89.34 189.8)">1</text><text class="cls-19" transform="translate(146.89 140.57)">2</text><text class="cls-19" transform="translate(271.59 121.48)">3</text><text class="cls-22" transform="translate(216.81 44.79)">Rindt</text><text class="cls-22" transform="translate(78.78 64.94)">Schlossgold</text><text class="cls-22" transform="translate(91.95 135.96)">Pirelli</text><g class="cls-23"><text class="cls-24" transform="translate(179.64 140.96)">W</text><text class="cls-22" transform="translate(186.59 140.96)">urth Kurve</text></g><g class="cls-23"><text class="cls-22" transform="translate(237.98 184.29)">Castrol</text><text class="cls-22" transform="translate(237.98 192.79)">Edge</text></g><text class="cls-22" transform="translate(12.8 187.71)">Remus</text><text class="cls-25" transform="translate(229.83 177.74)">1</text><text class="cls-25" transform="translate(100.6 180.41)">2</text><text class="cls-25" transform="translate(43.78 190.49)">3</text><text class="cls-25" transform="translate(136.88 75.07)">4</text><text class="cls-25" transform="translate(133.11 96.74)">5</text><text class="cls-25" transform="translate(124.55 142.74)">6</text><text class="cls-25" transform="translate(161.44 142.74)">7</text><text class="cls-25" transform="translate(158 119.41)">8</text><text class="cls-25" transform="translate(212.38 21.74)">9</text><text class="cls-25" transform="translate(263.26 30.07)">10</text></g></svg>