<svg id="Capa_1" data-name="Capa 1" xmlns="http://www.w3.org/2000/svg" width="297.48" height="195.13"><defs><style>.cls-10,.cls-16,.cls-5,.cls-6,.cls-8,.cls-9{fill:none}.cls-10,.cls-6{stroke:#fff}.cls-10,.cls-16,.cls-9{stroke-linecap:round}.cls-10,.cls-16,.cls-5,.cls-9{stroke-linejoin:round}.cls-5{stroke-width:2.8px;stroke:#fff100}.cls-6{stroke-width:1.3px}.cls-7{fill:#ea1a4d}.cls-16,.cls-8,.cls-9{stroke:#231f20}.cls-9{stroke-width:1.5px}.cls-10,.cls-14,.cls-16{stroke-width:.5px}.cls-11,.cls-14,.cls-21,.cls-26{fill:#fff}.cls-12,.cls-20{fill:#231f20}.cls-13{fill:#007dc4}.cls-14{stroke:#007dc4}.cls-15{fill:#ffca05}.cls-20,.cls-21,.cls-22,.cls-24,.cls-26{isolation:isolate}.cls-20,.cls-21{font-size:8.5px}.cls-20,.cls-21,.cls-24,.cls-26{font-family:Helvetica-Bold,Helvetica;font-weight:700}.cls-24,.cls-26{font-size:7.5px}.cls-24{fill:#ec174c}.cls-24,.cls-26{letter-spacing:-.08em}</style></defs><g id="hermanos_rodriguez" data-name="hermanos rodriguez"><path id="path2406-4" d="M238.13 168.37c-19.16-.65-36.12-.19-44.73-.32-47.75-.74-95.27 1-143-.23-5.6-.73-7.62-2.77-7.33-8.6.77-3.68 1.19-6.89-3.39-9.64-2.18-1.58-3.71-4.23-2.47-10.4l2-9.77c.53-2.51 2.67-7.2 3.42-8.94l32.21-71.16c1.17-2.62 1.82-5.24-.43-6.36l-4.71-2.18c-1.92-.77-3.63-3.06-1.71-5.56l10.49-10.7c2.78-2 7.17-.65 7.17 3.6v40.52c0 4.36.53 9.49 5 10.8l5.81 2.52a13.55 13.55 0 015.67 4.91l4.17 6.22a10.46 10.46 0 008.56 4.37l15.52-.11q7.5.49 10 5.24l2 4.36a15 15 0 007.7 7.86l16.16 4.58a57.09 57.09 0 0013.59 2.41l48.58.76c2.78.11 5 1.64 5.24 4.15l4.18 20.62c.64 3.06 3.25 4.5 4.81 1.31 1.18-2.4 2.89-4.26 4.92-4.15l6.85.77a10.11 10.11 0 004.17-.11l5-.33c1.71-.33 3.7.65 3.52 2.73-.72 9.92-3.56 20.83-28.97 20.83z" stroke-width="8" stroke-linejoin="round" stroke-linecap="round" stroke="#fff" fill="none"/><path id="path3189" d="M119.38 166.95c22.36 0 49.71-4.45 57.95-4.32 16.72.2 37.71-.06 54.44.06a23.43 23.43 0 005.9-.55 24.18 24.18 0 017.58-.66l6.41.13a8.52 8.52 0 005-1.86c1.72-1.25 4.66-2.91 8.75-11.66" stroke-width="2.8" stroke="#00071b" stroke-linejoin="round" stroke-linecap="round" fill="none"/><path id="path2406-5" d="M238.13 168.37c-19.16-.65-36.12-.19-44.73-.32-47.75-.74-95.27 1-143-.23-5.6-.73-7.62-2.77-7.33-8.6.77-3.68 1.19-6.89-3.39-9.64-2.18-1.58-3.71-4.23-2.47-10.4l2-9.77c.53-2.51 2.67-7.2 3.42-8.94l32.21-71.16c1.17-2.62 1.82-5.24-.43-6.36l-4.71-2.18c-1.92-.77-3.63-3.06-1.71-5.56l10.49-10.7c2.78-2 7.17-.65 7.17 3.6v40.52c0 4.36.53 9.49 5 10.8l5.81 2.52a13.55 13.55 0 015.67 4.91l4.17 6.22a10.46 10.46 0 008.56 4.37l15.52-.11q7.5.49 10 5.24l2 4.36a15 15 0 007.7 7.86l16.16 4.58a57.09 57.09 0 0013.59 2.41l48.58.76c2.78.11 5 1.64 5.24 4.15l4.18 20.62c.64 3.06 3.25 4.5 4.81 1.31 1.18-2.4 2.89-4.26 4.92-4.15l6.85.77a10.11 10.11 0 004.17-.11l5-.33c1.71-.33 3.7.65 3.52 2.73-.72 9.92-3.56 20.83-28.97 20.83z" stroke-width="5.4" stroke="#00071b" stroke-linejoin="round" stroke-linecap="round" fill="none"/><path id="path2406-6" d="M238.13 168.37c-19.16-.65-36.12-.19-44.73-.32-47.75-.74-95.27 1-143-.23-5.6-.73-7.62-2.77-7.33-8.6.77-3.68 1.19-6.89-3.39-9.64-2.18-1.58-3.71-4.23-2.47-10.4l2-9.77c.53-2.51 2.67-7.2 3.42-8.94l32.21-71.16c1.17-2.62 1.82-5.24-.43-6.36l-4.71-2.18c-1.92-.77-3.63-3.06-1.71-5.56l10.49-10.7c2.78-2 7.17-.65 7.17 3.6v40.52c0 4.36.53 9.49 5 10.8l5.81 2.52a13.55 13.55 0 015.67 4.91l4.17 6.22a10.46 10.46 0 008.56 4.37l15.52-.11q7.5.49 10 5.24l2 4.36a15 15 0 007.7 7.86l16.16 4.58a57.09 57.09 0 0013.59 2.41l48.58.76c2.78.11 5 1.64 5.24 4.15l4.18 20.62c.64 3.06 3.25 4.5 4.81 1.31 1.18-2.4 2.89-4.26 4.92-4.15l6.85.77a10.11 10.11 0 004.17-.11l5-.33c1.71-.33 3.7.65 3.52 2.73-.72 9.92-3.56 20.83-28.97 20.83z" stroke="#8c92a1" stroke-width="2.8" stroke-linejoin="round" stroke-linecap="round" fill="none"/><path id="path2406-7" class="cls-5" d="M43.15 135.67l1.05-5.21c.53-2.51 2.67-7.2 3.42-8.94l32.21-71.16" transform="translate(-4.99 -1.05)"/><path id="path2406-8" class="cls-5" d="M214 169.07c-6.47 0-11.86.08-15.64 0-47.75-.74-95.27 1-143-.23" transform="translate(-4.99 -1.05)"/><path id="path2406-9" class="cls-5" d="M163.72 118.27l7.6 2.15a57.09 57.09 0 0013.59 2.41l48.58.76" transform="translate(-4.99 -1.05)"/><rect class="cls-6" x="47.46" y="154.02" width="9.61" height="9.61" rx="2.29"/><rect class="cls-7" x="47.46" y="154.02" width="9.61" height="9.61" rx="2.29"/><rect class="cls-6" x="41.21" y="137.18" width="9.61" height="9.61" rx="2.29"/><rect class="cls-7" x="41.21" y="137.18" width="9.61" height="9.61" rx="2.29"/><rect class="cls-6" x="23.71" y="143.93" width="9.61" height="9.61" rx="2.29"/><rect class="cls-7" x="23.71" y="143.93" width="9.61" height="9.61" rx="2.29"/><rect class="cls-6" x="58.21" y="47.18" width="9.61" height="9.61" rx="2.29"/><rect class="cls-7" x="58.21" y="47.18" width="9.61" height="9.61" rx="2.29"/><rect class="cls-6" x="54.71" y="26.43" width="9.61" height="9.61" rx="2.29"/><rect class="cls-7" x="54.71" y="26.43" width="9.61" height="9.61" rx="2.29"/><rect class="cls-6" x="73.71" y="30.68" width="9.61" height="9.61" rx="2.29"/><rect class="cls-7" x="73.71" y="30.68" width="9.61" height="9.61" rx="2.29"/><rect class="cls-6" x="89.96" y="66.43" width="9.61" height="9.61" rx="2.29"/><rect class="cls-7" x="89.96" y="66.43" width="9.61" height="9.61" rx="2.29"/><rect class="cls-6" x="88.96" y="85.68" width="9.61" height="9.61" rx="2.29"/><rect class="cls-7" x="88.96" y="85.68" width="9.61" height="9.61" rx="2.29"/><rect class="cls-6" x="110.71" y="83.43" width="9.61" height="9.61" rx="2.29"/><rect class="cls-7" x="110.71" y="83.43" width="9.61" height="9.61" rx="2.29"/><rect class="cls-6" x="126.46" y="101.68" width="9.61" height="9.61" rx="2.29"/><rect class="cls-7" x="126.46" y="101.68" width="9.61" height="9.61" rx="2.29"/><rect class="cls-6" x="136.71" y="116.68" width="9.61" height="9.61" rx="2.29"/><rect class="cls-7" x="136.71" y="116.68" width="9.61" height="9.61" rx="2.29"/><rect class="cls-6" x="220.71" y="126.68" width="9.61" height="9.61" rx="2.29"/><rect class="cls-7" x="220.71" y="126.68" width="9.61" height="9.61" rx="2.29"/><rect class="cls-6" x="230.21" y="152.68" width="9.61" height="9.61" rx="2.29"/><rect class="cls-7" x="230.21" y="152.68" width="9.61" height="9.61" rx="2.29"/><rect class="cls-6" x="246.21" y="149.18" width="9.61" height="9.61" rx="2.29"/><rect class="cls-7" x="246.21" y="149.18" width="9.61" height="9.61" rx="2.29"/><rect class="cls-6" x="253.71" y="131.68" width="9.61" height="9.61" rx="2.29"/><rect class="cls-7" x="253.71" y="131.68" width="9.61" height="9.61" rx="2.29"/><rect class="cls-6" x="269.71" y="134.18" width="9.61" height="9.61" rx="2.29"/><rect class="cls-7" x="269.71" y="134.18" width="9.61" height="9.61" rx="2.29"/><rect class="cls-6" x="260.21" y="166.93" width="9.61" height="9.61" rx="2.29"/><rect class="cls-7" x="260.21" y="166.93" width="9.61" height="9.61" rx="2.29"/><path class="cls-8" d="M152.53 115.74a1.42 1.42 0 10-1.41-1.43 1.42 1.42 0 001.41 1.43z" transform="translate(-4.99 -1.05)"/><path class="cls-9" d="M147.54 113.27V85.35h19.18v-24.1"/><path class="cls-10" d="M147.54 113.27V85.35h19.18v-24.1"/><path class="cls-11" d="M152.53 115.74a1.42 1.42 0 10-1.41-1.43 1.42 1.42 0 001.41 1.43z" transform="translate(-4.99 -1.05)"/><path class="cls-8" d="M194.08 124.39a1.42 1.42 0 10-1.42-1.42 1.43 1.43 0 001.42 1.42z" transform="translate(-4.99 -1.05)"/><path class="cls-9" d="M189.09 121.92v-18.35"/><path class="cls-10" d="M189.09 121.92v-18.35"/><path class="cls-11" d="M194.08 124.39a1.42 1.42 0 10-1.42-1.42 1.43 1.43 0 001.42 1.42z" transform="translate(-4.99 -1.05)"/><path class="cls-8" d="M216.47 124.74a1.42 1.42 0 10-1.42-1.42 1.44 1.44 0 001.42 1.42z" transform="translate(-4.99 -1.05)"/><path class="cls-9" d="M211.48 122.27V84.53"/><path class="cls-10" d="M211.48 122.27V84.53"/><path class="cls-11" d="M216.47 124.74a1.42 1.42 0 10-1.42-1.42 1.44 1.44 0 001.42 1.42z" transform="translate(-4.99 -1.05)"/><path class="cls-8" d="M235.81 125.33a1.42 1.42 0 10-1.42-1.42 1.42 1.42 0 001.42 1.42z" transform="translate(-4.99 -1.05)"/><path class="cls-9" d="M230.82 122.87V60.92"/><path class="cls-10" d="M230.82 122.87V60.92"/><path class="cls-11" d="M235.81 125.33a1.42 1.42 0 10-1.42-1.42 1.42 1.42 0 001.42 1.42z" transform="translate(-4.99 -1.05)"/><path class="cls-8" d="M132.51 99.67a1.42 1.42 0 10-1.42-1.42 1.41 1.41 0 001.41 1.41z" transform="translate(-4.99 -1.05)"/><path class="cls-9" d="M127.52 97.21V61.58"/><path class="cls-10" d="M127.52 97.21V61.58"/><path class="cls-11" d="M132.51 99.67a1.42 1.42 0 10-1.42-1.42 1.41 1.41 0 001.41 1.41z" transform="translate(-4.99 -1.05)"/><path class="cls-8" d="M250.86 147.36a1.42 1.42 0 10-1.42-1.42 1.43 1.43 0 001.42 1.42z" transform="translate(-4.99 -1.05)"/><path class="cls-9" d="M245.88 144.89V84.53h18.75"/><path class="cls-10" d="M245.88 144.89V84.53h18.75"/><path class="cls-11" d="M250.86 147.36a1.42 1.42 0 10-1.42-1.42 1.43 1.43 0 001.42 1.42z" transform="translate(-4.99 -1.05)"/><path class="cls-8" d="M256 147.31a1.42 1.42 0 10-1.42-1.42 1.41 1.41 0 001.41 1.41z" transform="translate(-4.99 -1.05)"/><path class="cls-9" d="M251 144.85v-41.28h19.6"/><path class="cls-10" d="M251 144.85v-41.28h19.6"/><path class="cls-11" d="M256 147.31a1.42 1.42 0 10-1.42-1.42 1.41 1.41 0 001.41 1.41z" transform="translate(-4.99 -1.05)"/><path class="cls-8" d="M83.47 27a1.42 1.42 0 10-1.42-1.42A1.43 1.43 0 0083.47 27z" transform="translate(-4.99 -1.05)"/><path class="cls-9" d="M78.48 24.54V8.59"/><path class="cls-10" d="M78.48 24.54V8.59"/><path class="cls-11" d="M83.47 27a1.42 1.42 0 10-1.42-1.42A1.43 1.43 0 0083.47 27z" transform="translate(-4.99 -1.05)"/><path class="cls-8" d="M92 76.1a1.42 1.42 0 11-1.41 1.43A1.42 1.42 0 0192 76.1z" transform="translate(-4.99 -1.05)"/><path class="cls-9" d="M86.96 76.47v24.64"/><path class="cls-10" d="M86.96 76.47v24.64"/><path class="cls-11" d="M92 76.1a1.42 1.42 0 11-1.41 1.43A1.42 1.42 0 0192 76.1z" transform="translate(-4.99 -1.05)"/><path class="cls-8" d="M119 96.92a1.42 1.42 0 11-1.42 1.42 1.41 1.41 0 011.42-1.42z" transform="translate(-4.99 -1.05)"/><path class="cls-9" d="M114.01 97.28v38.58"/><path class="cls-10" d="M114.01 97.28v38.58"/><path class="cls-11" d="M119 96.92a1.42 1.42 0 11-1.42 1.42 1.41 1.41 0 011.42-1.42z" transform="translate(-4.99 -1.05)"/><path class="cls-8" d="M126.91 96.88a1.42 1.42 0 11-1.42 1.42 1.44 1.44 0 011.42-1.42z" transform="translate(-4.99 -1.05)"/><path class="cls-9" d="M121.92 97.25v23.81"/><path class="cls-10" d="M121.92 97.25v23.81"/><path class="cls-11" d="M126.91 96.88a1.42 1.42 0 11-1.42 1.42 1.44 1.44 0 011.42-1.42z" transform="translate(-4.99 -1.05)"/><path class="cls-8" d="M138.1 167.81a1.42 1.42 0 11-1.41 1.43 1.42 1.42 0 011.41-1.43z" transform="translate(-4.99 -1.05)"/><path class="cls-9" d="M133.11 168.18v18.59"/><path class="cls-10" d="M133.11 168.18v18.59"/><path class="cls-11" d="M138.1 167.81a1.42 1.42 0 11-1.41 1.43 1.42 1.42 0 011.41-1.43z" transform="translate(-4.99 -1.05)"/><path class="cls-8" d="M208.07 167.69a1.42 1.42 0 11-1.42 1.42 1.42 1.42 0 011.42-1.42z" transform="translate(-4.99 -1.05)"/><path class="cls-9" d="M203.09 168.05v18.71h-8.02"/><path class="cls-10" d="M203.09 168.05v18.71h-8.02"/><path class="cls-11" d="M208.07 167.69a1.42 1.42 0 11-1.42 1.42 1.42 1.42 0 011.42-1.42z" transform="translate(-4.99 -1.05)"/><path class="cls-8" d="M238.87 168a1.42 1.42 0 11-1.42 1.42 1.43 1.43 0 011.42-1.42z" transform="translate(-4.99 -1.05)"/><path class="cls-9" d="M233.88 168.39v18.38"/><path class="cls-10" d="M233.88 168.39v18.38"/><path class="cls-11" d="M238.87 168a1.42 1.42 0 11-1.42 1.42 1.43 1.43 0 011.42-1.42z" transform="translate(-4.99 -1.05)"/><path class="cls-8" d="M79.17 167.85a1.42 1.42 0 11-1.42 1.42 1.43 1.43 0 011.42-1.42z" transform="translate(-4.99 -1.05)"/><path class="cls-9" d="M74.18 168.22v18.51"/><path class="cls-10" d="M74.18 168.22v18.51"/><path class="cls-11" d="M79.17 167.85a1.42 1.42 0 11-1.42 1.42 1.43 1.43 0 011.42-1.42z" transform="translate(-4.99 -1.05)"/><path class="cls-8" d="M43.28 150.19a1.42 1.42 0 111.42 1.42 1.43 1.43 0 01-1.42-1.42z" transform="translate(-4.99 -1.05)"/><path class="cls-9" d="M39.71 149.14h21.27"/><path class="cls-10" d="M39.71 149.14h21.27"/><path class="cls-11" d="M43.28 150.19a1.42 1.42 0 111.42 1.42 1.43 1.43 0 01-1.42-1.42z" transform="translate(-4.99 -1.05)"/><path class="cls-8" d="M45.38 123.42a1.42 1.42 0 111.42 1.42 1.42 1.42 0 01-1.42-1.42z" transform="translate(-4.99 -1.05)"/><path class="cls-9" d="M41.8 122.37h19.18"/><path class="cls-10" d="M41.8 122.37h19.18"/><path class="cls-11" d="M45.38 123.42a1.42 1.42 0 111.42 1.42 1.42 1.42 0 01-1.42-1.42z" transform="translate(-4.99 -1.05)"/><path class="cls-8" d="M89.36 64.23a1.42 1.42 0 111.42 1.42 1.44 1.44 0 01-1.42-1.42z" transform="translate(-4.99 -1.05)"/><path class="cls-9" d="M90.78 64.23h16.4V37.64H119" transform="translate(-4.99 -1.05)"/><path class="cls-10" d="M90.78 64.23h16.4V37.64H119" transform="translate(-4.99 -1.05)"/><path class="cls-11" d="M89.36 64.23a1.42 1.42 0 111.42 1.42 1.44 1.44 0 01-1.42-1.42z" transform="translate(-4.99 -1.05)"/><path class="cls-8" d="M88.89 27.32a1.42 1.42 0 111.43 1.41 1.42 1.42 0 01-1.43-1.41z" transform="translate(-4.99 -1.05)"/><path class="cls-9" d="M85.31 26.27h16.88V8.59h11.83"/><path class="cls-10" d="M85.31 26.27h16.88V8.59h11.83"/><path class="cls-11" d="M88.89 27.32a1.42 1.42 0 111.43 1.41 1.42 1.42 0 01-1.43-1.41z" transform="translate(-4.99 -1.05)"/><path class="cls-8" d="M270.53 147.15a1.42 1.42 0 111.42 1.42 1.43 1.43 0 01-1.42-1.42z" transform="translate(-4.99 -1.05)"/><path class="cls-9" d="M266.96 146.1h25.66v-23.5"/><path class="cls-10" d="M266.96 146.1h25.66v-23.5"/><path class="cls-11" d="M270.53 147.15a1.42 1.42 0 111.42 1.42 1.43 1.43 0 01-1.42-1.42z" transform="translate(-4.99 -1.05)"/><path class="cls-8" d="M265.47 162.73a1.42 1.42 0 111.43 1.41 1.42 1.42 0 01-1.43-1.41z" transform="translate(-4.99 -1.05)"/><path class="cls-9" d="M261.89 161.68h30.73v25.88"/><path class="cls-10" d="M261.89 161.68h30.73v25.88"/><path class="cls-11" d="M265.47 162.73a1.42 1.42 0 111.43 1.41 1.42 1.42 0 01-1.43-1.41z" transform="translate(-4.99 -1.05)"/><path class="cls-8" d="M244.82 150.05a1.42 1.42 0 10-1.42 1.42 1.43 1.43 0 001.42-1.42z" transform="translate(-4.99 -1.05)"/><path class="cls-9" d="M238.41 149h-36.2"/><path class="cls-10" d="M238.41 149h-36.2"/><path class="cls-11" d="M244.82 150.05a1.42 1.42 0 10-1.42 1.42 1.43 1.43 0 001.42-1.42z" transform="translate(-4.99 -1.05)"/><path class="cls-8" d="M57.6 102.29a1.42 1.42 0 10-1.42 1.42 1.44 1.44 0 001.42-1.42z" transform="translate(-4.99 -1.05)"/><path class="cls-9" d="M51.19 101.24H36.8"/><path class="cls-10" d="M51.19 101.24H36.8"/><path class="cls-11" d="M57.6 102.29a1.42 1.42 0 10-1.42 1.42 1.44 1.44 0 001.42-1.42z" transform="translate(-4.99 -1.05)"/><path class="cls-8" d="M49.82 157.35a1.42 1.42 0 10-1.42 1.42 1.44 1.44 0 001.42-1.42z" transform="translate(-4.99 -1.05)"/><path class="cls-9" d="M43.41 156.3h-6.86v30.46"/><path class="cls-10" d="M43.41 156.3h-6.86v30.46"/><path class="cls-11" d="M49.82 157.35a1.42 1.42 0 10-1.42 1.42 1.44 1.44 0 001.42-1.42z" transform="translate(-4.99 -1.05)"/><path class="cls-8" d="M71.53 72.21a1.42 1.42 0 10-1.43 1.41 1.41 1.41 0 001.42-1.4z" transform="translate(-4.99 -1.05)"/><path class="cls-9" d="M65.13 71.16H49.02v10.98H37.05"/><path class="cls-10" d="M65.13 71.16H49.02v10.98H37.05"/><path class="cls-11" d="M71.53 72.21a1.42 1.42 0 10-1.43 1.41 1.41 1.41 0 001.42-1.4z" transform="translate(-4.99 -1.05)"/><path class="cls-8" d="M75.45 63.17A1.42 1.42 0 1074 64.58a1.41 1.41 0 001.45-1.37z" transform="translate(-4.99 -1.05)"/><path class="cls-9" d="M69.04 62.12H36.8"/><path class="cls-10" d="M69.04 62.12H36.8"/><path class="cls-11" d="M75.45 63.17A1.42 1.42 0 1074 64.58a1.41 1.41 0 001.45-1.37z" transform="translate(-4.99 -1.05)"/><path class="cls-8" d="M82.32 46.41a1.42 1.42 0 10-1.42 1.42 1.44 1.44 0 001.42-1.42z" transform="translate(-4.99 -1.05)"/><path class="cls-9" d="M75.92 45.36H45.09v-9.95H36.8"/><path class="cls-10" d="M75.92 45.36H45.09v-9.95H36.8"/><path class="cls-11" d="M82.32 46.41a1.42 1.42 0 10-1.42 1.42 1.44 1.44 0 001.42-1.42z" transform="translate(-4.99 -1.05)"/><path class="cls-8" d="M73.55 38.52a1.42 1.42 0 10-1.42 1.42 1.41 1.41 0 001.41-1.41z" transform="translate(-4.99 -1.05)"/><path class="cls-9" d="M72.14 38.52H54V9.64H41.79" transform="translate(-4.99 -1.05)"/><path class="cls-10" d="M72.14 38.52H54V9.64H41.79" transform="translate(-4.99 -1.05)"/><path class="cls-11" d="M73.55 38.52a1.42 1.42 0 10-1.42 1.42 1.41 1.41 0 001.41-1.41z" transform="translate(-4.99 -1.05)"/><rect class="cls-12" x="60.98" y="180.64" width="32.57" height="11.87" rx="2.83"/><path class="cls-11" d="M75.84 184.28h-1.45l.14-.69h1.45l-.14.69zM75.47 186.06h-2.41l.16-.69h2.39l-.14.69zM75.09 187.83h-3.34l.14-.68h3.34l-.14.68zM74.72 189.61h-4.3l.14-.69h4.3l-.14.69z"/><path class="cls-13" d="M64.24 181.6a8.29 8.29 0 00-.83.31.26.26 0 01-.21 0l-1.4-1a.63.63 0 00-.74 0l-.9.76a.64.64 0 00-.15.73l.77 1.54a.28.28 0 010 .22 6 6 0 00-.45.77.23.23 0 01-.18.13l-1.73.1a.64.64 0 00-.55.49l-.21 1.17a.65.65 0 00.35.65l1.58.68a.24.24 0 01.14.18 6.49 6.49 0 00.16.88.26.26 0 01-.06.21l-1.26 1.19a.64.64 0 00-.11.74l.59 1a.63.63 0 00.69.27l1.65-.49a.24.24 0 01.23.06 7.1 7.1 0 00.67.56.22.22 0 01.1.2l-.2 1.72a.63.63 0 00.39.64l1.1.4a.65.65 0 00.71-.23l.94-1.44a.27.27 0 01.22-.11h.88a.26.26 0 01.2.1l1 1.44a.64.64 0 00.71.24l1.1-.4a.65.65 0 00.39-.64l-.19-1.7a.24.24 0 01.09-.22 5.18 5.18 0 00.67-.57.26.26 0 01.21 0l1.67.49a.63.63 0 00.69-.27l.59-1a.64.64 0 00-.11-.74l-1.25-1.18a.28.28 0 01-.07-.23 5.24 5.24 0 00.16-.88.25.25 0 01.12-.16l1.59-.69a.64.64 0 00.36-.65l-.21-1.17a.64.64 0 00-.55-.49l-1.72-.1a.28.28 0 01-.2-.13 7.44 7.44 0 00-.44-.78.23.23 0 010-.2l.78-1.55a.64.64 0 00-.15-.73l-.9-.76a.63.63 0 00-.74 0l-1.38 1a.33.33 0 01-.24 0 6.34 6.34 0 00-.83-.3.23.23 0 01-.15-.15l-.41-1.69a.62.62 0 00-.58-.46h-1.26a.63.63 0 00-.58.46l-.4 1.67a.21.21 0 01-.16.11z" transform="translate(-4.99 -1.05)"/><path class="cls-14" d="M66 182.56a5.07 5.07 0 105 5.14v-.07a5.08 5.08 0 00-5-5.07z" transform="translate(-4.99 -1.05)"/><rect class="cls-12" x="114.01" y="180.64" width="32.57" height="11.87" rx="2.83"/><path class="cls-11" d="M128.87 184.28h-1.45l.14-.69h1.45l-.14.69zM128.5 186.06h-2.41l.14-.69h2.42l-.15.69zM128.12 187.83h-3.34l.14-.68h3.34l-.14.68zM127.75 189.61h-4.31l.15-.69h4.3l-.14.69z"/><path class="cls-13" d="M117.27 181.6a8.29 8.29 0 00-.83.31.28.28 0 01-.22 0l-1.39-1a.63.63 0 00-.74 0l-.9.76a.64.64 0 00-.15.73l.76 1.54a.22.22 0 010 .22 7.3 7.3 0 00-.44.77.23.23 0 01-.18.13l-1.73.1a.64.64 0 00-.55.49l-.21 1.17a.63.63 0 00.35.65l1.58.68a.28.28 0 01.14.18 6.47 6.47 0 00.15.88.23.23 0 010 .21l-1.26 1.19a.64.64 0 00-.11.74l.59 1a.63.63 0 00.69.27l1.65-.49a.24.24 0 01.23.06 6 6 0 00.67.56.25.25 0 01.09.2l-.19 1.72a.63.63 0 00.38.64l1.11.4a.65.65 0 00.71-.23l.94-1.44a.26.26 0 01.21-.11h.88a.26.26 0 01.2.1l1 1.44a.62.62 0 00.7.24l1.11-.4a.65.65 0 00.39-.64l-.2-1.7a.26.26 0 01.1-.22c.23-.18.46-.37.67-.57a.26.26 0 01.21 0l1.67.49a.61.61 0 00.68-.27l.6-1a.65.65 0 00-.11-.74l-1.25-1.18a.28.28 0 01-.07-.23 6.49 6.49 0 00.16-.88.22.22 0 01.12-.16l1.59-.69a.62.62 0 00.35-.65l-.2-1.17a.64.64 0 00-.56-.49l-1.71-.1a.28.28 0 01-.2-.13 7.44 7.44 0 00-.44-.78.23.23 0 010-.2l.78-1.55a.65.65 0 00-.15-.73L124 181a.63.63 0 00-.74 0l-1.38 1a.31.31 0 01-.23 0 6.34 6.34 0 00-.83-.3.23.23 0 01-.15-.15l-.41-1.69a.63.63 0 00-.58-.46h-1.18a.63.63 0 00-.58.46l-.4 1.67a.24.24 0 01-.25.07z" transform="translate(-4.99 -1.05)"/><path class="cls-14" d="M119 182.56a5.07 5.07 0 105.07 5.07 5.07 5.07 0 00-5.07-5.07z" transform="translate(-4.99 -1.05)"/><rect class="cls-12" x="166.72" y="180.64" width="32.57" height="11.87" rx="2.83"/><path class="cls-11" d="M181.59 184.28h-1.46l.15-.69h1.44l-.13.69zM181.21 186.06h-2.4l.15-.69h2.39l-.14.69zM180.84 187.83h-3.35l.14-.68h3.34l-.13.68zM180.46 189.61h-4.3l.15-.69h4.29l-.14.69z"/><path class="cls-13" d="M170 181.6a8.29 8.29 0 00-.83.31.26.26 0 01-.21 0l-1.4-1a.63.63 0 00-.74 0l-.9.76a.64.64 0 00-.15.73l.77 1.54a.28.28 0 010 .22 6 6 0 00-.45.77.23.23 0 01-.18.13l-1.73.1a.64.64 0 00-.55.49l-.21 1.17a.65.65 0 00.35.65l1.58.68a.28.28 0 01.14.18 6.49 6.49 0 00.16.88.26.26 0 01-.06.21l-1.26 1.19a.64.64 0 00-.11.74l.59 1a.63.63 0 00.69.27l1.65-.49a.24.24 0 01.23.06 7.1 7.1 0 00.67.56.22.22 0 01.1.2l-.2 1.72a.63.63 0 00.39.64l1.1.4a.65.65 0 00.71-.23l.94-1.44a.27.27 0 01.22-.11h.88a.26.26 0 01.2.1l1 1.44a.65.65 0 00.71.24l1.1-.4a.65.65 0 00.39-.64l-.19-1.7a.24.24 0 01.09-.22 5.18 5.18 0 00.67-.57.26.26 0 01.21 0l1.67.49a.63.63 0 00.69-.27l.59-1a.64.64 0 00-.11-.74l-1.25-1.18a.28.28 0 01-.07-.23 6.49 6.49 0 00.16-.88.25.25 0 01.12-.16l1.59-.69a.64.64 0 00.36-.65l-.21-1.17a.64.64 0 00-.55-.49l-1.72-.1a.28.28 0 01-.2-.13 7.44 7.44 0 00-.44-.78.23.23 0 010-.2l.78-1.55a.64.64 0 00-.15-.73l-.9-.76a.63.63 0 00-.74 0l-1.38 1a.33.33 0 01-.24 0 6.34 6.34 0 00-.83-.3.23.23 0 01-.15-.15l-.41-1.69a.62.62 0 00-.58-.46h-1.18a.63.63 0 00-.58.46l-.4 1.67a.21.21 0 01-.24.11z" transform="translate(-4.99 -1.05)"/><path class="cls-14" d="M171.71 182.56a5.07 5.07 0 105.07 5.07 5.07 5.07 0 00-5.07-5.07z" transform="translate(-4.99 -1.05)"/><rect class="cls-12" x="264.62" y="180.64" width="32.57" height="11.87" rx="2.83"/><path class="cls-11" d="M279.48 184.28h-1.47l.16-.69h1.45l-.14.69zM279.1 186.06h-2.41l.16-.69h2.4l-.15.69zM278.73 187.83h-3.35l.14-.68h3.35l-.14.68zM278.35 189.61h-4.29l.13-.69h4.31l-.15.69z"/><path class="cls-13" d="M267.87 181.6a8.29 8.29 0 00-.83.31.26.26 0 01-.21 0l-1.4-1a.63.63 0 00-.74 0l-.9.76a.64.64 0 00-.15.73l.77 1.54a.28.28 0 010 .22 4.51 4.51 0 00-.44.77.26.26 0 01-.19.13l-1.73.1a.64.64 0 00-.55.49l-.21 1.17a.65.65 0 00.35.65l1.58.68a.24.24 0 01.14.18 6.49 6.49 0 00.16.88.26.26 0 01-.06.21l-1.26 1.19a.64.64 0 00-.11.74l.59 1a.63.63 0 00.69.27l1.65-.49a.24.24 0 01.23.06 7.1 7.1 0 00.67.56.22.22 0 01.1.2l-.2 1.72a.63.63 0 00.39.64l1.1.4a.65.65 0 00.71-.23l1-1.48a.26.26 0 01.21-.11h.88a.26.26 0 01.2.1l.95 1.44a.65.65 0 00.71.24l1.11-.4a.65.65 0 00.38-.64l-.19-1.7a.24.24 0 01.09-.22 5.18 5.18 0 00.67-.57.28.28 0 01.22 0l1.66.49a.63.63 0 00.69-.27l.59-1a.64.64 0 00-.11-.74l-1.25-1.18a.28.28 0 01-.07-.23 5.24 5.24 0 00.16-.88.25.25 0 01.12-.16l1.59-.69a.64.64 0 00.36-.65l-.21-1.17a.64.64 0 00-.55-.49l-1.72-.1a.28.28 0 01-.2-.13 7.44 7.44 0 00-.44-.78.23.23 0 010-.2l.78-1.55a.64.64 0 00-.15-.73l-.9-.76a.63.63 0 00-.74 0l-1.38 1a.33.33 0 01-.24 0 6.34 6.34 0 00-.83-.3.23.23 0 01-.15-.15l-.4-1.69a.63.63 0 00-.58-.46H269a.63.63 0 00-.58.46l-.39 1.67a.26.26 0 01-.16.15z" transform="translate(-4.99 -1.05)"/><path class="cls-14" d="M269.61 182.56a5.07 5.07 0 105.06 5.08 5.07 5.07 0 00-5.06-5.08z" transform="translate(-4.99 -1.05)"/><rect class="cls-12" x="264.62" y="116.66" width="32.57" height="11.87" rx="2.83"/><path class="cls-11" d="M279.48 120.3h-1.47l.16-.69h1.45l-.14.69zM279.1 122.08h-2.41l.16-.69h2.4l-.15.69zM278.73 123.85h-3.35l.14-.68h3.35l-.14.68zM278.35 125.63h-4.29l.13-.69h4.31l-.15.69z"/><path class="cls-13" d="M267.87 117.62a6.39 6.39 0 00-.83.31.26.26 0 01-.21 0l-1.4-1a.63.63 0 00-.74 0l-.9.76a.64.64 0 00-.15.73l.77 1.53a.31.31 0 010 .23 4.51 4.51 0 00-.44.77.26.26 0 01-.19.13l-1.73.1a.64.64 0 00-.55.49l-.21 1.17a.65.65 0 00.35.65l1.58.68a.24.24 0 01.14.18 6.49 6.49 0 00.16.88.26.26 0 01-.06.21l-1.26 1.19a.64.64 0 00-.11.74l.59 1a.63.63 0 00.69.27l1.65-.49a.24.24 0 01.23.06 7.1 7.1 0 00.67.56.22.22 0 01.1.2l-.2 1.72a.65.65 0 00.39.64l1.1.4a.65.65 0 00.71-.23l1-1.5a.26.26 0 01.21-.11h.88a.26.26 0 01.2.1l.95 1.44a.65.65 0 00.71.24l1.11-.41a.63.63 0 00.38-.63l-.19-1.71a.27.27 0 01.09-.22 6 6 0 00.67-.56.29.29 0 01.22-.06l1.66.5a.63.63 0 00.69-.27l.59-1a.64.64 0 00-.11-.74l-1.25-1.18a.28.28 0 01-.07-.23 5.24 5.24 0 00.16-.88.25.25 0 01.12-.16l1.59-.69a.65.65 0 00.36-.65l-.21-1.17a.64.64 0 00-.55-.49l-1.72-.1a.28.28 0 01-.2-.13 7.44 7.44 0 00-.44-.78.34.34 0 010-.2l.78-1.55a.64.64 0 00-.15-.73l-.9-.76a.63.63 0 00-.74 0l-1.38 1a.33.33 0 01-.24 0 6.34 6.34 0 00-.83-.3.23.23 0 01-.15-.15l-.4-1.69a.63.63 0 00-.58-.46H269a.63.63 0 00-.58.46l-.42 1.67a.27.27 0 01-.13.22z" transform="translate(-4.99 -1.05)"/><path class="cls-14" d="M269.61 118.58a5.07 5.07 0 105.06 5.08 5.07 5.07 0 00-5.06-5.08z" transform="translate(-4.99 -1.05)"/><rect class="cls-15" x="264.62" y="97.63" width="11.88" height="11.87" rx="2.83"/><path class="cls-12" d="M266.89 105.26l-.63 2.4h8.6l-.63-2.4h-7.34zM267.56 99.44l-1.3 4.92h8.6l-1.3-4.92h-6z"/><rect class="cls-12" x="264.62" y="78.6" width="32.57" height="11.87" rx="2.83"/><path class="cls-11" d="M279.48 82.23h-1.47l.16-.69h1.45l-.14.69zM279.1 84.01h-2.41l.16-.69h2.4l-.15.69zM278.73 85.79h-3.35l.14-.69h3.35l-.14.69zM278.35 87.56h-4.29l.13-.69h4.31l-.15.69z"/><path class="cls-13" d="M267.87 79.55a8.29 8.29 0 00-.83.31.26.26 0 01-.21 0l-1.4-1a.66.66 0 00-.74 0l-.9.76a.64.64 0 00-.15.73l.77 1.54a.28.28 0 010 .22 6 6 0 00-.44.78.28.28 0 01-.19.12l-1.73.1a.64.64 0 00-.55.5l-.21 1.16a.65.65 0 00.35.65l1.58.68a.28.28 0 01.14.18 6.49 6.49 0 00.16.88.26.26 0 01-.06.21l-1.26 1.2a.62.62 0 00-.11.73l.59 1a.6.6 0 00.69.27l1.65-.49a.24.24 0 01.23.06 7.1 7.1 0 00.67.56.26.26 0 01.1.2l-.2 1.73a.63.63 0 00.39.63l1.1.4a.65.65 0 00.71-.23L269 92a.23.23 0 01.21-.1h.88a.26.26 0 01.2.1l.95 1.45a.65.65 0 00.71.23l1.11-.4a.63.63 0 00.38-.63l-.19-1.71a.24.24 0 01.09-.22 5.18 5.18 0 00.67-.57.28.28 0 01.22 0l1.66.49a.63.63 0 00.69-.27l.59-1a.64.64 0 00-.11-.74l-1.25-1.18a.26.26 0 01-.07-.22 5.24 5.24 0 00.16-.88.3.3 0 01.12-.17l1.59-.69a.64.64 0 00.36-.65l-.21-1.16a.64.64 0 00-.55-.5l-1.72-.1a.28.28 0 01-.2-.13 7.3 7.3 0 00-.44-.77.37.37 0 010-.21l.78-1.55a.64.64 0 00-.15-.73l-.9-.76a.66.66 0 00-.74 0l-1.38 1a.33.33 0 01-.24 0 6.34 6.34 0 00-.83-.3.23.23 0 01-.15-.15l-.4-1.69a.63.63 0 00-.58-.46H269a.63.63 0 00-.58.46l-.42 1.59a.27.27 0 01-.13.17z" transform="translate(-4.99 -1.05)"/><path class="cls-14" d="M269.61 80.51a5.07 5.07 0 105.06 5.08 5.07 5.07 0 00-5.06-5.08z" transform="translate(-4.99 -1.05)"/><rect class="cls-12" x="184.84" y="78.6" width="32.57" height="11.87" rx="2.83"/><path class="cls-11" d="M199.71 82.23h-1.46l.15-.69h1.44l-.13.69zM199.32 84.01h-2.39l.14-.69h2.4l-.15.69zM198.96 85.79h-3.36l.15-.69h3.34l-.13.69zM198.57 87.56h-4.29l.15-.69h4.29l-.15.69z"/><path class="cls-13" d="M188.1 79.55a8.29 8.29 0 00-.83.31.26.26 0 01-.21 0l-1.4-1a.66.66 0 00-.74 0l-.9.76a.64.64 0 00-.15.73l.77 1.54a.28.28 0 010 .22 7.44 7.44 0 00-.44.78.23.23 0 01-.2.11l-1.73.1a.64.64 0 00-.55.5l-.21 1.16a.65.65 0 00.35.65l1.58.68a.28.28 0 01.14.18 6.49 6.49 0 00.16.88.26.26 0 01-.06.21l-1.26 1.2a.62.62 0 00-.11.73l.59 1a.6.6 0 00.69.27l1.65-.49a.24.24 0 01.23.06 7.1 7.1 0 00.67.56.2.2 0 01.09.2l-.23 1.72a.63.63 0 00.39.63l1.1.4a.65.65 0 00.71-.23l.94-1.44a.26.26 0 01.22-.1h.88a.23.23 0 01.19.1l1 1.45a.63.63 0 00.7.23l1.11-.4a.63.63 0 00.39-.63l-.19-1.71a.24.24 0 01.09-.22 5.18 5.18 0 00.67-.57.26.26 0 01.21 0l1.67.49a.63.63 0 00.69-.27l.59-1a.64.64 0 00-.11-.74L196 87.34a.26.26 0 01-.07-.22 6.49 6.49 0 00.16-.88.3.3 0 01.12-.17l1.59-.69a.64.64 0 00.36-.65l-.16-1.16a.64.64 0 00-.55-.5l-1.72-.1a.28.28 0 01-.2-.13 7.3 7.3 0 00-.44-.77.26.26 0 010-.21l.78-1.55a.64.64 0 00-.15-.73l-.9-.76a.66.66 0 00-.74 0l-1.39 1a.31.31 0 01-.23 0 6.34 6.34 0 00-.83-.3.23.23 0 01-.15-.15l-.48-1.66a.63.63 0 00-.58-.46h-1.18a.63.63 0 00-.58.46l-.4 1.67a.23.23 0 01-.16.17z" transform="translate(-4.99 -1.05)"/><path class="cls-14" d="M189.83 80.51a5.07 5.07 0 105.07 5.07 5.07 5.07 0 00-5.07-5.07z" transform="translate(-4.99 -1.05)"/><rect class="cls-12" x="219.44" y="54.98" width="32.57" height="11.87" rx="2.83"/><path class="cls-11" d="M234.29 58.61h-1.45l.15-.68h1.45l-.15.68zM233.91 60.39h-2.4l.15-.69h2.4l-.15.69zM233.54 62.17h-3.35l.15-.69h3.35l-.15.69zM233.16 63.95h-4.28l.13-.69h4.3l-.15.69z"/><path class="cls-13" d="M222.69 55.94a6.34 6.34 0 00-.83.3.2.2 0 01-.21 0l-1.39-1a.6.6 0 00-.74 0l-.91.75a.64.64 0 00-.15.73l.77 1.54a.22.22 0 010 .22 6 6 0 00-.44.78.23.23 0 01-.18.12l-1.73.11a.63.63 0 00-.56.49l-.2 1.16a.61.61 0 00.35.65l1.58.69a.24.24 0 01.13.18 6.64 6.64 0 00.16.87.25.25 0 01-.06.22L217 64.91a.64.64 0 00-.11.73l.59 1a.65.65 0 00.69.28l1.65-.49a.31.31 0 01.23 0c.22.2.44.39.68.57a.25.25 0 01.09.2l-.2 1.72a.63.63 0 00.39.63l1.11.4a.62.62 0 00.7-.23l1-1.44a.28.28 0 01.21-.1h.88a.26.26 0 01.2.1l1 1.45a.62.62 0 00.7.23l1.11-.4a.63.63 0 00.39-.63l-.2-1.71a.26.26 0 01.09-.22 6.13 6.13 0 00.68-.56.26.26 0 01.21-.06l1.66.5a.63.63 0 00.69-.28l.59-1a.62.62 0 00-.11-.73l-1.25-1.18a.27.27 0 01-.06-.23 6.47 6.47 0 00.15-.88.3.3 0 01.12-.17l1.6-.69a.65.65 0 00.35-.65l-.29-1.07a.64.64 0 00-.55-.5l-1.72-.1a.26.26 0 01-.19-.13 5.35 5.35 0 00-.45-.77.26.26 0 010-.21l.77-1.55a.64.64 0 00-.15-.73l-.9-.75a.63.63 0 00-.74 0l-1.38 1a.25.25 0 01-.24 0 6.34 6.34 0 00-.83-.3.29.29 0 01-.15-.16l-.4-1.69a.63.63 0 00-.58-.46h-1.18a.63.63 0 00-.58.46l-.4 1.68a.3.3 0 01-.18.15z" transform="translate(-4.99 -1.05)"/><path class="cls-14" d="M224.43 56.9a5.07 5.07 0 105.07 5.1 5.07 5.07 0 00-5.07-5.1z" transform="translate(-4.99 -1.05)"/><path class="cls-12" d="M16.41 57.35h26.9a2.83 2.83 0 012.83 2.83v6.21a2.84 2.84 0 01-2.84 2.84H16.41a2.83 2.83 0 01-2.83-2.83v-6.22a2.83 2.83 0 012.83-2.83z" transform="translate(-4.99 -1.05)"/><path class="cls-11" d="M23.45 59.94H22l.14-.69h1.45l-.14.69zM23.07 61.71h-2.41l.16-.68h2.39l-.14.68zM22.7 63.49h-3.36l.16-.69h3.34l-.14.69zM22.32 65.27h-4.3l.14-.69h4.3l-.14.69z"/><path class="cls-13" d="M11.84 57.26a6.34 6.34 0 00-.83.3.2.2 0 01-.21 0l-1.4-1a.63.63 0 00-.74 0l-.9.76a.6.6 0 00-.15.72l.77 1.54a.31.31 0 010 .23 4.51 4.51 0 00-.44.77.29.29 0 01-.18.13L6 60.78a.61.61 0 00-.55.49l-.21 1.16a.64.64 0 00.36.65l1.58.69a.24.24 0 01.13.18 6.64 6.64 0 00.16.87.29.29 0 01-.06.22l-1.25 1.19a.62.62 0 00-.11.73l.59 1a.65.65 0 00.69.27L9 67.77a.31.31 0 01.23 0c.21.2.44.39.67.57a.2.2 0 01.1.2l-.2 1.72a.63.63 0 00.39.63l1.11.4a.62.62 0 00.7-.23l1-1.44a.28.28 0 01.21-.1H14a.25.25 0 01.2.09l.95 1.45a.63.63 0 00.71.23l1.11-.4a.61.61 0 00.38-.63l-.19-1.71a.26.26 0 01.09-.22 7.22 7.22 0 00.68-.56.26.26 0 01.21-.06l1.66.5a.63.63 0 00.69-.27l.59-1a.62.62 0 00-.11-.73L19.76 65a.28.28 0 01-.07-.23 5.24 5.24 0 00.16-.88.3.3 0 01.12-.17l1.6-.69a.65.65 0 00.35-.65l-.21-1.16a.61.61 0 00-.55-.49l-1.72-.1a.35.35 0 01-.2-.14 7.3 7.3 0 00-.44-.77.26.26 0 010-.21l.74-1.51a.6.6 0 00-.15-.72l-.9-.76a.63.63 0 00-.74 0l-1.38 1a.26.26 0 01-.24 0 6.34 6.34 0 00-.83-.3.26.26 0 01-.15-.16l-.4-1.69a.63.63 0 00-.58-.46H13a.64.64 0 00-.59.46L12 57.09a.3.3 0 01-.16.17z" transform="translate(-4.99 -1.05)"/><path class="cls-14" d="M13.58 58.22a5.07 5.07 0 105.06 5.08 5.09 5.09 0 00-5.06-5.08z" transform="translate(-4.99 -1.05)"/><path class="cls-12" d="M16.41 97.15h26.9a2.83 2.83 0 012.84 2.85v6.24a2.84 2.84 0 01-2.84 2.76h-26.9a2.83 2.83 0 01-2.83-2.83V100a2.83 2.83 0 012.81-2.85z" transform="translate(-4.99 -1.05)"/><path class="cls-11" d="M23.45 99.74H22l.14-.69h1.45l-.14.69zM23.07 101.51h-2.41l.16-.68h2.39l-.14.68zM22.7 103.29h-3.36l.16-.69h3.34l-.14.69zM22.32 105.07h-4.3l.14-.69h4.3l-.14.69z"/><path class="cls-13" d="M11.84 97.06a6.34 6.34 0 00-.83.3.2.2 0 01-.21 0l-1.4-1a.63.63 0 00-.74 0l-.9.76a.64.64 0 00-.15.73l.77 1.53a.31.31 0 010 .23 4.51 4.51 0 00-.44.77.29.29 0 01-.18.13l-1.74.1a.64.64 0 00-.55.49l-.21 1.16a.65.65 0 00.36.66l1.58.68a.27.27 0 01.13.18 6.49 6.49 0 00.16.88.26.26 0 01-.06.21L6.16 106a.62.62 0 00-.11.73l.59 1a.63.63 0 00.69.27l1.67-.43a.27.27 0 01.23.05 5.18 5.18 0 00.67.57.22.22 0 01.1.2l-.2 1.72a.63.63 0 00.39.63l1.11.41a.64.64 0 00.7-.24l.95-1.43a.26.26 0 01.21-.11H14a.29.29 0 01.2.09l.95 1.45a.65.65 0 00.71.24l1.11-.41a.61.61 0 00.38-.63l-.19-1.71a.26.26 0 01.09-.22 7.22 7.22 0 00.68-.56.26.26 0 01.21-.06l1.66.5a.63.63 0 00.69-.27l.59-1A.61.61 0 0021 106l-1.25-1.18a.28.28 0 01-.07-.23 5.24 5.24 0 00.16-.88.25.25 0 01.12-.16l1.6-.69a.67.67 0 00.35-.66l-.21-1.2a.61.61 0 00-.55-.49l-1.72-.1a.3.3 0 01-.2-.13 6 6 0 00-.44-.78.23.23 0 010-.2l.77-1.56a.6.6 0 00-.15-.72l-.9-.76a.63.63 0 00-.74 0l-1.38 1a.25.25 0 01-.24 0 6.34 6.34 0 00-.83-.3.26.26 0 01-.15-.16l-.4-1.68a.63.63 0 00-.58-.46H13a.62.62 0 00-.59.46L12 96.89a.3.3 0 01-.16.17z" transform="translate(-4.99 -1.05)"/><path class="cls-14" d="M13.58 98a5.07 5.07 0 105.06 5.08A5.09 5.09 0 0013.58 98z" transform="translate(-4.99 -1.05)"/><rect class="cls-12" x="67.37" y="96.1" width="32.57" height="11.87" rx="2.83"/><path class="cls-11" d="M82.22 99.74h-1.45l.15-.69h1.44l-.14.69zM81.84 101.51h-2.4l.15-.68H82l-.16.68zM81.47 103.29h-3.34l.15-.69h3.33l-.14.69zM81.09 105.07h-4.28l.13-.69h4.31l-.16.69z"/><path class="cls-13" d="M70.62 97.06a6.34 6.34 0 00-.83.3.2.2 0 01-.21 0l-1.4-1a.63.63 0 00-.74 0l-.9.76a.64.64 0 00-.15.73l.77 1.53a.31.31 0 010 .23 4.51 4.51 0 00-.44.77.29.29 0 01-.19.13l-1.73.1a.64.64 0 00-.55.49l-.25 1.13a.65.65 0 00.36.66l1.58.68a.27.27 0 01.13.18 6.49 6.49 0 00.16.88.26.26 0 01-.06.21L64.94 106a.62.62 0 00-.11.73l.59 1a.63.63 0 00.69.27l1.65-.49a.27.27 0 01.23 0 5.18 5.18 0 00.67.57.22.22 0 01.1.2l-.2 1.72a.63.63 0 00.39.63l1.1.41a.65.65 0 00.71-.24l.95-1.43a.26.26 0 01.21-.11h.88a.29.29 0 01.2.09l1 1.45a.65.65 0 00.71.24l1.11-.41a.63.63 0 00.38-.63l-.2-1.6a.26.26 0 01.09-.22 6 6 0 00.67-.56.29.29 0 01.22-.06l1.66.5a.63.63 0 00.69-.27l.59-1a.62.62 0 00-.11-.73l-1.25-1.18a.28.28 0 01-.07-.23 5.24 5.24 0 00.16-.88.25.25 0 01.12-.16l1.6-.69a.67.67 0 00.35-.66l-.21-1.16a.61.61 0 00-.55-.49l-1.72-.1a.28.28 0 01-.2-.13 6 6 0 00-.44-.78.34.34 0 010-.2l.78-1.56a.6.6 0 00-.15-.72l-.9-.76a.63.63 0 00-.74 0l-1.38 1a.26.26 0 01-.24 0 6.34 6.34 0 00-.83-.3.26.26 0 01-.14-.16l-.4-1.68a.63.63 0 00-.58-.46h-1.26a.63.63 0 00-.58.46l-.39 1.67a.29.29 0 01-.17.17z" transform="translate(-4.99 -1.05)"/><path class="cls-14" d="M72.36 98a5.07 5.07 0 105.06 5.08A5.07 5.07 0 0072.36 98z" transform="translate(-4.99 -1.05)"/><path class="cls-12" d="M16.41 181.88h26.9a2.83 2.83 0 012.83 2.83v6.21a2.84 2.84 0 01-2.84 2.84H16.41a2.83 2.83 0 01-2.83-2.83v-6.21a2.83 2.83 0 012.82-2.84z" transform="translate(-4.99 -1.05)"/><path class="cls-11" d="M23.45 184.46H22l.14-.68h1.45l-.14.68zM23.07 186.24h-2.41l.16-.69h2.39l-.14.69zM22.7 188.02h-3.36l.16-.69h3.34l-.14.69zM22.32 189.8h-4.3l.14-.69h4.3l-.14.69z"/><path class="cls-13" d="M11.84 181.79a6.34 6.34 0 00-.83.3.2.2 0 01-.21 0l-1.4-1a.63.63 0 00-.74 0l-.9.75a.64.64 0 00-.15.73l.77 1.54a.28.28 0 010 .22 6 6 0 00-.44.78.23.23 0 01-.18.12l-1.76.08a.61.61 0 00-.55.49l-.2 1.2a.64.64 0 00.36.65l1.58.69a.24.24 0 01.13.18 6.64 6.64 0 00.16.87.29.29 0 01-.06.22l-1.26 1.19a.62.62 0 00-.11.73l.59 1a.65.65 0 00.69.28l1.65-.5a.32.32 0 01.23.06 7.1 7.1 0 00.67.56.25.25 0 01.1.21l-.2 1.72a.63.63 0 00.39.63l1.11.4a.62.62 0 00.7-.23l.95-1.44a.28.28 0 01.21-.1H14a.26.26 0 01.2.1l.95 1.45a.63.63 0 00.71.23l1.11-.4a.61.61 0 00.38-.63l-.19-1.71a.26.26 0 01.09-.22 7.22 7.22 0 00.68-.56.2.2 0 01.21-.06l1.66.5a.63.63 0 00.69-.28l.59-1a.62.62 0 00-.11-.73l-1.25-1.18a.28.28 0 01-.07-.23 5.24 5.24 0 00.16-.88.3.3 0 01.12-.17l1.6-.69a.65.65 0 00.35-.65l-.21-1.16a.64.64 0 00-.55-.5l-1.72-.1a.3.3 0 01-.2-.13 4.51 4.51 0 00-.44-.77.26.26 0 010-.21l.77-1.55a.64.64 0 00-.15-.73l-.9-.75a.63.63 0 00-.74 0l-1.38 1a.25.25 0 01-.24 0 6.34 6.34 0 00-.83-.3.26.26 0 01-.15-.16l-.4-1.69a.63.63 0 00-.58-.46H13a.64.64 0 00-.59.46l-.41 1.66a.3.3 0 01-.16.17z" transform="translate(-4.99 -1.05)"/><path class="cls-14" d="M13.58 182.74a5.08 5.08 0 105.06 5.1 5.09 5.09 0 00-5.06-5.1z" transform="translate(-4.99 -1.05)"/><rect class="cls-12" x="60.98" y="143.19" width="32.57" height="11.88" rx="2.83"/><path class="cls-11" d="M75.84 146.82h-1.45l.14-.68h1.45l-.14.68zM75.47 148.6h-2.41l.16-.69h2.39l-.14.69zM75.09 150.38h-3.34l.14-.69h3.34l-.14.69zM74.72 152.15h-4.3l.14-.68h4.3l-.14.68z"/><path class="cls-13" d="M64.24 144.15a6.34 6.34 0 00-.83.3.26.26 0 01-.21 0l-1.4-1a.66.66 0 00-.74 0l-.9.76a.64.64 0 00-.15.73l.77 1.54a.28.28 0 010 .22 6.06 6.06 0 00-.45.78.23.23 0 01-.18.12l-1.73.11a.61.61 0 00-.55.49l-.21 1.16a.65.65 0 00.34.64l1.58.69a.24.24 0 01.14.17 6.49 6.49 0 00.16.88.26.26 0 01-.06.21l-1.26 1.2a.62.62 0 00-.11.73l.59 1a.6.6 0 00.69.27l1.65-.49a.32.32 0 01.23.06 7.1 7.1 0 00.67.56.26.26 0 01.1.2l-.2 1.73a.63.63 0 00.39.63l1.1.4a.63.63 0 00.71-.23l.94-1.44a.26.26 0 01.22-.1h.88a.26.26 0 01.2.1l.95 1.45a.65.65 0 00.71.23l1.1-.4a.63.63 0 00.39-.63l-.19-1.71a.24.24 0 01.09-.22 6 6 0 00.67-.56.26.26 0 01.21-.06l1.67.49a.6.6 0 00.69-.27l.59-1a.64.64 0 00-.11-.74L72.14 152a.26.26 0 01-.07-.22 5.24 5.24 0 00.16-.88.3.3 0 01.12-.17l1.59-.69a.64.64 0 00.36-.65l-.21-1.16a.64.64 0 00-.55-.5l-1.72-.1a.28.28 0 01-.2-.13 7.3 7.3 0 00-.44-.77.26.26 0 010-.21l.78-1.55a.64.64 0 00-.15-.73l-.9-.76a.66.66 0 00-.74 0l-1.38 1a.33.33 0 01-.24 0c-.27-.11-.54-.21-.83-.3a.23.23 0 01-.15-.15l-.41-1.69a.63.63 0 00-.58-.46h-1.2a.63.63 0 00-.58.46l-.4 1.66a.26.26 0 01-.16.15z" transform="translate(-4.99 -1.05)"/><path class="cls-14" d="M66 145.1a5.08 5.08 0 105 5.16v-.09a5.08 5.08 0 00-5-5.07z" transform="translate(-4.99 -1.05)"/><rect class="cls-12" x="188.95" y="143.19" width="32.57" height="11.88" rx="2.83"/><path class="cls-11" d="M203.81 146.82h-1.46l.15-.68h1.46l-.15.68zM203.44 148.6h-2.41l.16-.69h2.4l-.15.69zM203.06 150.38h-3.34l.13-.69h3.36l-.15.69zM202.69 152.15h-4.29l.13-.68h4.29l-.13.68z"/><path class="cls-13" d="M192.21 144.15a6.34 6.34 0 00-.83.3.26.26 0 01-.21 0l-1.4-1a.66.66 0 00-.74 0l-.9.76a.64.64 0 00-.15.73l.77 1.54a.28.28 0 010 .22 6.06 6.06 0 00-.45.78.23.23 0 01-.18.12l-1.73.11a.61.61 0 00-.55.49l-.21 1.16a.65.65 0 00.35.65l1.58.69a.26.26 0 01.14.17 6.49 6.49 0 00.16.88.26.26 0 01-.06.21l-1.26 1.2a.62.62 0 00-.11.73l.59 1a.6.6 0 00.69.27l1.65-.49a.32.32 0 01.23.06 7.1 7.1 0 00.67.56.26.26 0 01.1.2l-.2 1.73a.63.63 0 00.39.63l1.1.4a.63.63 0 00.71-.23l.94-1.44a.26.26 0 01.22-.1h.88a.26.26 0 01.2.1l1 1.45a.65.65 0 00.71.23l1.1-.4a.62.62 0 00.39-.63l-.19-1.71a.24.24 0 01.09-.22 6 6 0 00.67-.56.26.26 0 01.21-.06l1.67.49a.6.6 0 00.69-.27l.59-1a.64.64 0 00-.11-.74l-1.3-1.16a.26.26 0 01-.07-.22 5.24 5.24 0 00.16-.88.3.3 0 01.12-.17l1.59-.69a.64.64 0 00.36-.65l-.21-1.16a.63.63 0 00-.55-.5l-1.72-.1a.28.28 0 01-.2-.13 7.3 7.3 0 00-.44-.77.26.26 0 010-.21l.78-1.55a.64.64 0 00-.15-.73l-.9-.76a.66.66 0 00-.74 0l-1.38 1a.33.33 0 01-.24 0c-.27-.11-.54-.21-.83-.3a.23.23 0 01-.15-.15l-.41-1.69a.63.63 0 00-.58-.46h-1.18a.63.63 0 00-.58.46l-.4 1.67a.24.24 0 01-.19.14z" transform="translate(-4.99 -1.05)"/><path class="cls-14" d="M193.94 145.1a5.08 5.08 0 105.07 5.09 5.07 5.07 0 00-5.07-5.07z" transform="translate(-4.99 -1.05)"/><rect class="cls-12" x="60.98" y="116.66" width="32.57" height="11.87" rx="2.83"/><path class="cls-11" d="M75.84 120.3h-1.45l.14-.69h1.45l-.14.69zM75.47 122.08h-2.41l.16-.69h2.39l-.14.69zM75.09 123.85h-3.34l.14-.68h3.34l-.14.68zM74.72 125.63h-4.3l.14-.69h4.3l-.14.69z"/><path class="cls-13" d="M64.24 117.62a6.39 6.39 0 00-.83.31.26.26 0 01-.21 0l-1.4-1a.63.63 0 00-.74 0l-.9.76a.64.64 0 00-.15.73l.77 1.53a.31.31 0 010 .23 6 6 0 00-.45.77.23.23 0 01-.18.13l-1.73.1a.64.64 0 00-.55.49l-.21 1.17a.65.65 0 00.35.65l1.58.68a.24.24 0 01.14.18 6.49 6.49 0 00.16.88.26.26 0 01-.06.21l-1.26 1.19a.64.64 0 00-.11.74l.59 1a.63.63 0 00.69.27l1.65-.49a.24.24 0 01.23.06 7.1 7.1 0 00.67.56.22.22 0 01.1.2l-.2 1.72a.65.65 0 00.39.64l1.1.4a.65.65 0 00.71-.23l.94-1.44a.27.27 0 01.22-.11h.88a.26.26 0 01.2.1l1 1.44a.64.64 0 00.71.24l1.1-.41a.63.63 0 00.39-.63l-.2-1.69a.27.27 0 01.09-.22 6 6 0 00.67-.56.26.26 0 01.21-.06l1.67.5a.63.63 0 00.69-.27l.59-1a.64.64 0 00-.11-.74l-1.25-1.18a.28.28 0 01-.07-.23 5.24 5.24 0 00.16-.88.25.25 0 01.12-.16l1.59-.69a.65.65 0 00.36-.65l-.21-1.17a.64.64 0 00-.55-.49l-1.72-.1a.28.28 0 01-.2-.13 7.44 7.44 0 00-.44-.78.23.23 0 010-.2l.78-1.55a.64.64 0 00-.15-.73l-.9-.76a.63.63 0 00-.74 0l-1.38 1a.33.33 0 01-.24 0 6.34 6.34 0 00-.83-.3.23.23 0 01-.15-.15l-.41-1.69a.62.62 0 00-.58-.46h-1.2a.63.63 0 00-.58.46l-.4 1.67a.25.25 0 01-.21.14z" transform="translate(-4.99 -1.05)"/><path class="cls-14" d="M66 118.58a5.07 5.07 0 105 5.14v-.07a5.08 5.08 0 00-5-5.07z" transform="translate(-4.99 -1.05)"/><rect class="cls-12" x="114.01" y="129.92" width="32.57" height="11.87" rx="2.83"/><path class="cls-11" d="M128.87 133.56h-1.45l.14-.69h1.45l-.14.69zM128.5 135.34h-2.41l.14-.69h2.42l-.15.69zM128.12 137.11h-3.34l.14-.68h3.34l-.14.68zM127.75 138.89h-4.31l.15-.69h4.3l-.14.69z"/><path class="cls-13" d="M117.27 130.88a8.29 8.29 0 00-.83.31.41.41 0 01-.22 0l-1.39-1a.66.66 0 00-.74 0l-.9.76a.64.64 0 00-.15.73l.76 1.54a.22.22 0 010 .22 8.46 8.46 0 00-.44.77.23.23 0 01-.18.13l-1.73.1a.64.64 0 00-.55.49l-.21 1.17a.63.63 0 00.35.65l1.58.68a.28.28 0 01.14.18 6.47 6.47 0 00.15.88.23.23 0 010 .21l-1.26 1.19a.64.64 0 00-.11.74l.59 1a.63.63 0 00.69.27l1.65-.49a.24.24 0 01.23.06 6 6 0 00.67.56.25.25 0 01.09.2l-.19 1.73a.61.61 0 00.38.63l1.11.4a.65.65 0 00.71-.23l.94-1.44a.23.23 0 01.21-.1h.87a.26.26 0 01.2.1l1 1.45a.63.63 0 00.7.23l1.11-.4a.63.63 0 00.39-.63l-.2-1.71a.26.26 0 01.1-.22c.23-.18.46-.37.67-.57a.23.23 0 01.21-.05l1.67.49a.61.61 0 00.68-.27l.6-1a.65.65 0 00-.11-.74l-1.25-1.18a.26.26 0 01-.07-.22 6.63 6.63 0 00.16-.89.22.22 0 01.12-.16l1.59-.69a.62.62 0 00.35-.65l-.2-1.17a.64.64 0 00-.56-.49l-1.71-.1a.28.28 0 01-.2-.13 7.44 7.44 0 00-.44-.78.23.23 0 010-.2l.78-1.55a.65.65 0 00-.15-.73l-.91-.76a.63.63 0 00-.74 0l-1.38 1a.31.31 0 01-.23 0 6.34 6.34 0 00-.83-.3.23.23 0 01-.15-.15l-.41-1.69a.63.63 0 00-.58-.46h-1.18a.63.63 0 00-.58.46l-.4 1.67a.23.23 0 01-.27.15z" transform="translate(-4.99 -1.05)"/><path class="cls-14" d="M119 131.84a5.07 5.07 0 105.07 5.07 5.07 5.07 0 00-5.07-5.07z" transform="translate(-4.99 -1.05)"/><rect class="cls-12" x="61.3" y="2.65" width="32.57" height="11.87" rx="2.83"/><path class="cls-11" d="M76.16 6.28H74.7l.14-.68h1.47l-.15.68zM75.78 8.06h-2.4l.15-.69h2.39l-.14.69zM75.41 9.84h-3.35l.14-.69h3.36l-.15.69zM75.03 11.61h-4.3l.15-.68h4.29l-.14.68z"/><path class="cls-13" d="M64.56 3.61a6 6 0 00-.84.3.26.26 0 01-.21 0l-1.39-1a.63.63 0 00-.74 0l-.91.75a.65.65 0 00-.15.73l.77 1.54a.22.22 0 010 .22 6 6 0 00-.44.78.23.23 0 01-.18.12l-1.73.11a.63.63 0 00-.56.49L58 8.78a.61.61 0 00.35.65l1.58.69a.28.28 0 01.14.18 4.4 4.4 0 00.15.87.23.23 0 01-.06.22l-1.26 1.19a.65.65 0 00-.1.73l.59 1a.63.63 0 00.69.28l1.65-.49a.25.25 0 01.22.05c.22.2.44.39.68.57a.25.25 0 01.09.2l-.2 1.72a.63.63 0 00.39.63l1.11.4a.62.62 0 00.7-.23l1-1.44a.28.28 0 01.21-.1h.88a.26.26 0 01.2.1l1 1.45a.62.62 0 00.7.23l1.11-.4a.63.63 0 00.39-.63L69.89 15a.26.26 0 01.09-.22 6.13 6.13 0 00.68-.56.26.26 0 01.21-.06l1.66.5a.63.63 0 00.69-.28l.59-1a.65.65 0 00-.1-.73l-1.25-1.25a.25.25 0 01-.07-.23 6.47 6.47 0 00.15-.88.31.31 0 01.13-.17l1.59-.69a.62.62 0 00.35-.65l-.2-1.16a.65.65 0 00-.56-.5L72.13 7a.26.26 0 01-.19-.13 5.35 5.35 0 00-.45-.77.26.26 0 010-.21l.77-1.55a.64.64 0 00-.14-.73l-.91-.75a.63.63 0 00-.74 0l-1.38 1a.25.25 0 01-.24 0 6.34 6.34 0 00-.83-.3.29.29 0 01-.15-.16l-.4-1.69a.63.63 0 00-.58-.46H65.7a.63.63 0 00-.58.46l-.4 1.68a.27.27 0 01-.16.22z" transform="translate(-4.99 -1.05)"/><path class="cls-14" d="M66.29 4.57a5.07 5.07 0 105.07 5.07 5.07 5.07 0 00-5.07-5.07z" transform="translate(-4.99 -1.05)"/><rect class="cls-12" x="114.01" y="2.65" width="32.57" height="11.87" rx="2.83"/><path class="cls-11" d="M128.87 6.28h-1.45l.14-.68h1.45l-.14.68zM128.5 8.06h-2.41l.14-.69h2.42l-.15.69zM128.12 9.84h-3.34l.14-.69h3.34l-.14.69zM127.75 11.61h-4.31l.15-.68h4.3l-.14.68z"/><path class="cls-13" d="M117.27 3.61a6.34 6.34 0 00-.83.3.28.28 0 01-.22 0l-1.39-1a.63.63 0 00-.74 0l-.9.75a.64.64 0 00-.15.73l.76 1.54a.22.22 0 010 .22 7.44 7.44 0 00-.44.78.22.22 0 01-.18.12l-1.73.11a.61.61 0 00-.55.49l-.21 1.16a.62.62 0 00.35.65l1.58.69a.28.28 0 01.14.18 6.6 6.6 0 00.15.87.25.25 0 010 .22l-1.26 1.19a.62.62 0 00-.11.73l.59 1a.63.63 0 00.69.28l1.65-.49a.28.28 0 01.23 0c.21.2.44.39.67.57a.25.25 0 01.09.2l-.19 1.72a.61.61 0 00.38.63l1.11.4a.63.63 0 00.71-.23l.94-1.44a.28.28 0 01.21-.1h.88a.26.26 0 01.2.1l1 1.45a.62.62 0 00.7.23l1.11-.4a.63.63 0 00.39-.63l-.3-1.63a.27.27 0 01.1-.22 7.1 7.1 0 00.67-.56.26.26 0 01.21-.06l1.67.5a.62.62 0 00.68-.28l.6-1a.64.64 0 00-.11-.73l-1.25-1.18a.28.28 0 01-.07-.23 6.49 6.49 0 00.16-.88.26.26 0 01.12-.17l1.62-.76a.61.61 0 00.35-.65l-.2-1.16a.64.64 0 00-.56-.5L124.85 7a.28.28 0 01-.2-.13 7.3 7.3 0 00-.44-.77.26.26 0 010-.21l.79-1.53a.65.65 0 00-.15-.73l-.91-.75a.63.63 0 00-.74 0l-1.38 1a.24.24 0 01-.23 0 6.34 6.34 0 00-.83-.3.26.26 0 01-.15-.16l-.41-1.69a.63.63 0 00-.58-.46h-1.18a.63.63 0 00-.58.46l-.4 1.68a.25.25 0 01-.19.2z" transform="translate(-4.99 -1.05)"/><path class="cls-14" d="M119 4.57a5.07 5.07 0 105.07 5.07A5.07 5.07 0 00119 4.57z" transform="translate(-4.99 -1.05)"/><rect class="cls-12" x="114.01" y="29.47" width="32.57" height="11.87" rx="2.83"/><path class="cls-11" d="M128.87 33.11h-1.45l.14-.69h1.45l-.14.69zM128.5 34.89h-2.41l.14-.69h2.42l-.15.69zM128.12 36.67h-3.34l.14-.69h3.34l-.14.69zM127.75 38.44h-4.31l.15-.69h4.3l-.14.69z"/><path class="cls-13" d="M117.27 30.43a8.29 8.29 0 00-.83.31.41.41 0 01-.22 0l-1.39-1a.66.66 0 00-.74 0l-.9.76a.64.64 0 00-.15.73l.76 1.54a.22.22 0 010 .22 7.3 7.3 0 00-.44.77.23.23 0 01-.18.13l-1.73.1a.64.64 0 00-.55.49l-.21 1.17a.63.63 0 00.35.65l1.58.68a.28.28 0 01.14.18 6.47 6.47 0 00.15.88.23.23 0 010 .21l-1.26 1.19a.64.64 0 00-.11.74l.59 1a.63.63 0 00.69.27l1.65-.49a.24.24 0 01.23.06 6 6 0 00.67.56.25.25 0 01.09.2l-.19 1.72a.63.63 0 00.38.64l1.11.4a.65.65 0 00.71-.23l.94-1.44a.26.26 0 01.21-.11 3.23 3.23 0 00.44 0h.44a.26.26 0 01.2.1l1 1.45a.63.63 0 00.7.23l1.11-.4a.65.65 0 00.39-.64l-.2-1.7a.26.26 0 01.1-.22c.23-.18.46-.37.67-.57a.23.23 0 01.21 0l1.67.49a.61.61 0 00.68-.27l.6-1a.65.65 0 00-.11-.74l-1.25-1.18a.28.28 0 01-.07-.23 6.49 6.49 0 00.16-.88.22.22 0 01.12-.16l1.52-.74a.62.62 0 00.35-.65l-.2-1.17a.64.64 0 00-.56-.49l-1.71-.1a.28.28 0 01-.2-.13 7.44 7.44 0 00-.44-.78.23.23 0 010-.2l.78-1.55a.65.65 0 00-.15-.73l-.91-.76a.63.63 0 00-.74 0l-1.38 1a.31.31 0 01-.23 0 6.34 6.34 0 00-.83-.3.23.23 0 01-.15-.15l-.41-1.69a.63.63 0 00-.58-.46h-1.18a.63.63 0 00-.58.46l-.4 1.67a.24.24 0 01-.21.16z" transform="translate(-4.99 -1.05)"/><path class="cls-14" d="M119 31.39a5.07 5.07 0 105.07 5.07 5.07 5.07 0 00-5.07-5.07z" transform="translate(-4.99 -1.05)"/><rect class="cls-12" x="114.01" y="55.64" width="32.57" height="11.87" rx="2.83"/><path class="cls-11" d="M128.87 59.28h-1.45l.14-.69h1.45l-.14.69zM128.5 61.05h-2.41l.14-.69h2.42l-.15.69zM128.12 62.83h-3.34l.14-.69h3.34l-.14.69zM127.75 64.61h-4.31l.15-.69h4.3l-.14.69z"/><path class="cls-13" d="M117.27 56.6a6.34 6.34 0 00-.83.3.28.28 0 01-.22 0l-1.39-1a.63.63 0 00-.74 0l-.9.76a.6.6 0 00-.15.72l.76 1.54a.22.22 0 010 .22 7.44 7.44 0 00-.44.78.22.22 0 01-.18.12l-1.73.11a.61.61 0 00-.55.49l-.21 1.16a.62.62 0 00.35.65l1.58.69a.28.28 0 01.14.18 6.6 6.6 0 00.15.87.25.25 0 010 .22l-1.31 1.19a.62.62 0 00-.11.73l.59 1a.63.63 0 00.69.28l1.65-.49a.31.31 0 01.23 0c.21.2.44.39.67.57a.25.25 0 01.09.2l-.19 1.72a.61.61 0 00.38.63l1.11.4a.63.63 0 00.71-.23l.94-1.44a.28.28 0 01.21-.1h.88a.22.22 0 01.2.09l1 1.45a.62.62 0 00.7.23l1.11-.4a.63.63 0 00.39-.63l-.2-1.71a.27.27 0 01.1-.22 7.1 7.1 0 00.67-.56.26.26 0 01.21-.06l1.67.5a.62.62 0 00.68-.28l.6-1a.64.64 0 00-.11-.73l-1.25-1.18a.28.28 0 01-.07-.23 6.49 6.49 0 00.16-.88.26.26 0 01.12-.17l1.57-.69a.61.61 0 00.35-.65l-.2-1.16a.63.63 0 00-.56-.49l-1.76-.1a.28.28 0 01-.2-.13 7.3 7.3 0 00-.44-.77.26.26 0 010-.21l.78-1.55a.63.63 0 00-.15-.72l-.91-.76a.63.63 0 00-.74 0l-1.38 1a.24.24 0 01-.23 0 6.34 6.34 0 00-.83-.3.26.26 0 01-.15-.16l-.41-1.69a.63.63 0 00-.58-.46h-1.18a.63.63 0 00-.58.46l-.4 1.68a.25.25 0 01-.16.21z" transform="translate(-4.99 -1.05)"/><path class="cls-14" d="M119 57.56a5.07 5.07 0 105.07 5.07 5.07 5.07 0 00-5.07-5.07z" transform="translate(-4.99 -1.05)"/><path class="cls-15" d="M126.11 115.24h6.21a2.83 2.83 0 012.83 2.83v6.21a2.83 2.83 0 01-2.83 2.83h-6.21a2.84 2.84 0 01-2.84-2.84v-6.2a2.83 2.83 0 012.83-2.83z" transform="translate(-4.99 -1.05)"/><path class="cls-12" d="M120.56 121.82l-.64 2.4h8.61l-.64-2.4h-7.33zM121.22 116l-1.3 4.92h8.61l-1.31-4.92h-6z"/><rect class="cls-12" x="166.72" y="55.31" width="32.57" height="11.87" rx="2.83"/><path class="cls-11" d="M181.57 58.94h-1.44l.15-.68h1.44l-.15.68zM181.21 60.72h-2.4l.15-.69h2.39l-.14.69zM180.82 62.5h-3.33l.14-.69h3.34l-.15.69zM180.46 64.28h-4.3l.15-.69h4.29l-.14.69z"/><path class="cls-13" d="M170 56.27a6.34 6.34 0 00-.83.3.2.2 0 01-.21 0l-1.4-1a.63.63 0 00-.74 0l-.9.75a.64.64 0 00-.15.73l.77 1.54a.28.28 0 010 .22 6.06 6.06 0 00-.45.78.22.22 0 01-.18.12l-1.73.11a.61.61 0 00-.55.49l-.21 1.16a.65.65 0 00.35.65l1.58.69a.28.28 0 01.14.18 6.64 6.64 0 00.16.87.29.29 0 01-.06.22l-1.26 1.19a.62.62 0 00-.11.73l.59 1a.63.63 0 00.69.28l1.65-.49a.31.31 0 01.23 0c.21.2.44.39.67.57a.26.26 0 01.1.2l-.2 1.72a.63.63 0 00.39.63l1.1.4a.63.63 0 00.71-.23l.94-1.44a.32.32 0 01.22-.1h.88a.25.25 0 01.2.09l1 1.45a.62.62 0 00.7.23l1.11-.4a.62.62 0 00.39-.63l-.19-1.71a.24.24 0 01.09-.22 6 6 0 00.67-.56.26.26 0 01.21-.06l1.67.5a.63.63 0 00.69-.28l.59-1a.62.62 0 00-.11-.73l-1.3-1.22a.28.28 0 01-.07-.23A7.73 7.73 0 00178 63a.3.3 0 01.12-.17l1.59-.69a.64.64 0 00.36-.65l-.21-1.16a.61.61 0 00-.55-.49l-1.72-.11a.28.28 0 01-.2-.13 7.3 7.3 0 00-.44-.77.26.26 0 010-.21l.78-1.55a.64.64 0 00-.15-.73l-.9-.75a.63.63 0 00-.74 0l-1.39 1a.24.24 0 01-.23 0 6.34 6.34 0 00-.83-.3.26.26 0 01-.15-.16l-.41-1.69a.63.63 0 00-.58-.46h-1.18a.63.63 0 00-.58.46l-.4 1.68a.24.24 0 01-.19.15z" transform="translate(-4.99 -1.05)"/><path class="cls-14" d="M171.71 57.23a5.07 5.07 0 105.07 5.07 5.07 5.07 0 00-5.07-5.07z" transform="translate(-4.99 -1.05)"/><path class="cls-12" d="M16.41 3.7h26.9a2.83 2.83 0 012.83 2.83v6.21a2.84 2.84 0 01-2.84 2.84H16.41a2.83 2.83 0 01-2.83-2.83V6.53a2.83 2.83 0 012.83-2.83z" transform="translate(-4.99 -1.05)"/><path class="cls-11" d="M23.45 6.28H22l.14-.68h1.45l-.14.68zM23.07 8.06h-2.41l.16-.69h2.39l-.14.69zM22.7 9.84h-3.36l.16-.69h3.34l-.14.69zM22.32 11.61h-4.3l.14-.68h4.3l-.14.68z"/><path class="cls-13" d="M11.84 3.61a6.34 6.34 0 00-.83.3.2.2 0 01-.21 0l-1.4-1a.63.63 0 00-.74 0l-.9.75a.64.64 0 00-.15.73l.77 1.51a.28.28 0 010 .22 6 6 0 00-.44.78.24.24 0 01-.19.1L6 7.13a.61.61 0 00-.55.49l-.2 1.16a.64.64 0 00.36.65l1.58.69a.24.24 0 01.13.18 6.64 6.64 0 00.16.87.29.29 0 01-.06.22l-1.26 1.19a.62.62 0 00-.11.73l.59 1a.65.65 0 00.69.28L9 14.12a.27.27 0 01.23.05c.21.2.44.39.67.57a.2.2 0 01.1.2l-.2 1.72a.63.63 0 00.39.63l1.11.4a.62.62 0 00.7-.23l.93-1.46a.28.28 0 01.21-.1H14a.26.26 0 01.2.1l.95 1.45a.63.63 0 00.71.23l1.11-.4a.61.61 0 00.38-.63L17.18 15a.26.26 0 01.09-.22 7.22 7.22 0 00.68-.56.26.26 0 01.21-.06l1.66.5a.63.63 0 00.69-.28l.59-1a.62.62 0 00-.11-.73l-1.25-1.25a.28.28 0 01-.07-.23 5.24 5.24 0 00.16-.88.3.3 0 01.12-.17l1.6-.69a.65.65 0 00.35-.65l-.21-1.16a.64.64 0 00-.55-.5L19.42 7a.3.3 0 01-.2-.13 4.51 4.51 0 00-.44-.77.26.26 0 010-.21l.77-1.55a.64.64 0 00-.15-.73l-.9-.75a.63.63 0 00-.74 0l-1.38 1a.26.26 0 01-.24 0 6.34 6.34 0 00-.83-.3.26.26 0 01-.15-.16l-.4-1.69a.63.63 0 00-.58-.46H13a.64.64 0 00-.59.46L12 3.44a.3.3 0 01-.16.17z" transform="translate(-4.99 -1.05)"/><path class="cls-14" d="M13.58 4.57a5.07 5.07 0 105.06 5.08 5.09 5.09 0 00-5.06-5.08z" transform="translate(-4.99 -1.05)"/><path class="cls-12" d="M16.41 30.52h26.9a2.83 2.83 0 012.83 2.83v6.21a2.84 2.84 0 01-2.84 2.84H16.41a2.83 2.83 0 01-2.83-2.83v-6.21a2.83 2.83 0 012.82-2.84z" transform="translate(-4.99 -1.05)"/><path class="cls-11" d="M23.45 33.11H22l.14-.69h1.45l-.14.69zM23.07 34.89h-2.41l.16-.69h2.39l-.14.69zM22.7 36.67h-3.36l.16-.69h3.34l-.14.69zM22.32 38.44h-4.3l.14-.69h4.3l-.14.69z"/><path class="cls-13" d="M11.84 30.43a8.29 8.29 0 00-.83.31.26.26 0 01-.21 0l-1.4-1a.66.66 0 00-.74 0l-.9.76a.64.64 0 00-.15.73l.77 1.54a.28.28 0 010 .22 5.88 5.88 0 00-.44.77.24.24 0 01-.18.13L6 34a.64.64 0 00-.55.49l-.21 1.17a.64.64 0 00.36.65l1.58.69a.29.29 0 01.13.18 6.49 6.49 0 00.16.88.26.26 0 01-.06.21L6.16 39.4a.64.64 0 00-.11.74l.59 1a.63.63 0 00.69.27L9 40.94a.24.24 0 01.23.06 7.1 7.1 0 00.67.56.22.22 0 01.1.2l-.2 1.72a.63.63 0 00.39.64l1.11.4a.63.63 0 00.7-.23l1-1.44a.26.26 0 01.21-.11H14a.26.26 0 01.2.1l.95 1.45a.65.65 0 00.71.23l1.11-.4a.63.63 0 00.38-.64l-.19-1.7a.24.24 0 01.09-.22A6.48 6.48 0 0018 41a.23.23 0 01.21 0l1.66.49a.63.63 0 00.69-.27l.59-1a.64.64 0 00-.15-.82l-1.25-1.18a.28.28 0 01-.07-.23 5.24 5.24 0 00.16-.88A.23.23 0 0120 37l1.6-.69a.65.65 0 00.35-.65l-.21-1.17a.64.64 0 00-.55-.49l-1.72-.1a.3.3 0 01-.2-.13 6 6 0 00-.44-.78.23.23 0 010-.2l.77-1.55a.64.64 0 00-.15-.73l-.9-.76a.63.63 0 00-.74 0l-1.38 1a.33.33 0 01-.24 0 6.34 6.34 0 00-.83-.3.23.23 0 01-.15-.15l-.4-1.69a.63.63 0 00-.58-.46H13a.64.64 0 00-.59.46L12 30.26a.25.25 0 01-.16.17z" transform="translate(-4.99 -1.05)"/><path class="cls-14" d="M13.58 31.39a5.07 5.07 0 105.06 5.08 5.09 5.09 0 00-5.06-5.08z" transform="translate(-4.99 -1.05)"/><path class="cls-15" d="M43.31 77.25H32.15a5.94 5.94 0 000 11.88h11.16a2.85 2.85 0 002.84-2.84v-6.2a2.85 2.85 0 00-2.84-2.84z" transform="translate(-4.99 -1.05)"/><path class="cls-12" d="M36.49 83.19a4.35 4.35 0 01-8.69 0 4.53 4.53 0 01.31-1.62.47.47 0 01.6-.25.46.46 0 01.25.59 3.51 3.51 0 00-.25 1.28 3.44 3.44 0 105-3 .47.47 0 01-.2-.62.46.46 0 01.62-.19 4.34 4.34 0 012.36 3.81zm-4.34-3a.67.67 0 10-.67-.67.67.67 0 00.67.66zm0 3.68a.67.67 0 00.67-.67.66.66 0 00-.31-.56L28.93 80l2.66 3.58a.66.66 0 00.56.28z" transform="translate(-4.99 -1.05)"/><path class="cls-15" d="M205.25 98.68h-11.17a5.94 5.94 0 000 11.88h11.17a2.85 2.85 0 002.83-2.84v-6.2a2.85 2.85 0 00-2.83-2.84z" transform="translate(-4.99 -1.05)"/><path class="cls-12" d="M198.43 104.62a4.35 4.35 0 01-8.69 0 4.28 4.28 0 01.31-1.62.46.46 0 01.59-.25.45.45 0 01.26.58 3.32 3.32 0 00-.25 1.28 3.44 3.44 0 105-3 .46.46 0 01-.19-.62.45.45 0 01.61-.19 4.34 4.34 0 012.36 3.82zm-4.35-3a.67.67 0 10-.67-.67.67.67 0 00.67.66zm0 3.68a.67.67 0 00.37-1.23l-3.58-2.65 2.65 3.58a.7.7 0 00.56.29z" transform="translate(-4.99 -1.05)"/><path class="cls-15" d="M236 181.69h-11.13a5.94 5.94 0 000 11.88H236a2.85 2.85 0 002.84-2.84v-6.2a2.85 2.85 0 00-2.84-2.84z" transform="translate(-4.99 -1.05)"/><path class="cls-12" d="M229.21 187.63a4.35 4.35 0 11-8.7.05 4.5 4.5 0 01.32-1.66.46.46 0 01.88.26.41.41 0 010 .08 3.43 3.43 0 104.78-1.77.46.46 0 11.32-.86l.1.05a4.35 4.35 0 012.3 3.85zm-4.34-3a.67.67 0 10-.67-.67.67.67 0 00.67.66zm0 3.68a.67.67 0 00.67-.67.66.66 0 00-.31-.56l-3.58-2.65 2.66 3.58a.67.67 0 00.56.29z" transform="translate(-4.99 -1.05)"/><path class="cls-16" d="M95.71 181.69H71.84v-.06l-.9-.76a.63.63 0 00-.74 0l-1.14.84h-.2a2.74 2.74 0 00-.64.08l-.47-.17a.23.23 0 01-.15-.15l-.41-1.69a.62.62 0 00-.58-.46h-1.23a.63.63 0 00-.58.46l-.4 1.67a.23.23 0 01-.16.17 8.29 8.29 0 00-.83.31.26.26 0 01-.21 0l-1.4-1a.63.63 0 00-.74 0l-.9.76a.64.64 0 00-.15.73l.77 1.54a.28.28 0 010 .22 6 6 0 00-.45.77.23.23 0 01-.18.13l-1.73.1a.64.64 0 00-.55.49l-.21 1.17a.65.65 0 00.35.65l1.58.68a.26.26 0 01.14.18 6.49 6.49 0 00.16.88.26.26 0 01-.06.21l-1.26 1.19a.64.64 0 00-.11.74l.59 1a.63.63 0 00.69.27l1.65-.49a.24.24 0 01.23.06 7.1 7.1 0 00.67.56.22.22 0 01.1.2l-.2 1.72a.63.63 0 00.39.64l1.1.4a.65.65 0 00.71-.23l.94-1.44a.27.27 0 01.22-.11h.88a.26.26 0 01.2.1l1 1.44a.64.64 0 00.71.24l1.1-.4a.65.65 0 00.39-.64l-.12-1.08h26a2.85 2.85 0 002.84-2.84v-6.2a2.86 2.86 0 00-2.82-2.88zM148.74 181.69h-23.87l-.05-.06-.91-.76a.63.63 0 00-.74 0l-1.13.84h-.2a2.74 2.74 0 00-.64.08l-.47-.17a.23.23 0 01-.15-.15l-.41-1.69a.63.63 0 00-.58-.46h-1.18a.63.63 0 00-.58.46l-.4 1.67a.23.23 0 01-.16.17 8.29 8.29 0 00-.83.31.28.28 0 01-.22 0l-1.39-1a.63.63 0 00-.74 0l-.9.76a.64.64 0 00-.15.73l.76 1.54a.22.22 0 010 .22 7.3 7.3 0 00-.44.77.23.23 0 01-.18.13l-1.73.1a.64.64 0 00-.55.49l-.21 1.17a.63.63 0 00.35.65l1.58.68a.28.28 0 01.14.18 6.47 6.47 0 00.15.88.23.23 0 010 .21l-1.26 1.19a.64.64 0 00-.11.74l.59 1a.63.63 0 00.69.27l1.65-.49a.24.24 0 01.23.06 6 6 0 00.67.56.25.25 0 01.09.2l-.19 1.72a.63.63 0 00.38.64l1.11.4a.65.65 0 00.71-.23l.94-1.44a.26.26 0 01.21-.11h.88a.26.26 0 01.2.1l1 1.44a.62.62 0 00.7.24l1.11-.4a.65.65 0 00.39-.64l-.12-1.08h26.06a2.85 2.85 0 002.83-2.84v-6.2a2.84 2.84 0 00-2.8-2.88zM201.45 181.69h-23.87l-.05-.06-.9-.76a.63.63 0 00-.74 0l-1.14.84h-.2a2.74 2.74 0 00-.64.08l-.47-.17a.23.23 0 01-.15-.15l-.41-1.69a.62.62 0 00-.58-.46h-1.18a.63.63 0 00-.58.46l-.4 1.67a.23.23 0 01-.16.17 8.29 8.29 0 00-.83.31.26.26 0 01-.21 0l-1.4-1a.63.63 0 00-.74 0l-.9.76a.64.64 0 00-.15.73l.77 1.54a.28.28 0 010 .22 6 6 0 00-.45.77.23.23 0 01-.18.13l-1.73.1a.64.64 0 00-.55.49l-.21 1.17a.65.65 0 00.35.65l1.58.68a.28.28 0 01.14.18 6.49 6.49 0 00.16.88.26.26 0 01-.06.21l-1.26 1.19a.64.64 0 00-.11.74l.59 1a.63.63 0 00.69.27l1.65-.49a.24.24 0 01.23.06 7.1 7.1 0 00.67.56.22.22 0 01.1.2l-.2 1.72a.63.63 0 00.39.64l1.1.4a.65.65 0 00.71-.23l.94-1.44a.27.27 0 01.22-.11h.88a.26.26 0 01.2.1l.95 1.44a.65.65 0 00.71.24l1.1-.4a.65.65 0 00.39-.64l-.12-1.08h26.06a2.85 2.85 0 002.84-2.84v-6.2a2.86 2.86 0 00-2.82-2.88zM299.34 181.69h-23.87l-.05-.06-.9-.76a.63.63 0 00-.74 0l-1.14.84h-.2a2.74 2.74 0 00-.64.08l-.47-.17a.23.23 0 01-.15-.15l-.4-1.69a.63.63 0 00-.58-.46H269a.63.63 0 00-.58.46l-.39 1.67a.29.29 0 01-.17.17 8.29 8.29 0 00-.83.31.26.26 0 01-.21 0l-1.4-1a.63.63 0 00-.74 0l-.9.76a.64.64 0 00-.15.73l.77 1.54a.28.28 0 010 .22 4.51 4.51 0 00-.44.77.26.26 0 01-.19.13l-1.73.1a.64.64 0 00-.55.49l-.21 1.17a.65.65 0 00.35.65l1.58.68a.24.24 0 01.14.18 6.49 6.49 0 00.16.88.26.26 0 01-.06.21l-1.26 1.19a.64.64 0 00-.11.74l.59 1a.63.63 0 00.69.27l1.65-.49a.24.24 0 01.23.06 7.1 7.1 0 00.67.56.22.22 0 01.1.2l-.2 1.72a.63.63 0 00.39.64l1.1.4a.65.65 0 00.71-.23l1-1.5a.26.26 0 01.21-.11h.88a.26.26 0 01.2.1l.95 1.44a.65.65 0 00.71.24l1.11-.4a.65.65 0 00.38-.64l-.12-1.08h26.06a2.85 2.85 0 002.84-2.84v-6.2a2.86 2.86 0 00-2.88-2.82zM299.34 117.71h-23.87l-.05-.06-.9-.76a.63.63 0 00-.74 0l-1.14.84h-.2a2.74 2.74 0 00-.64.08l-.47-.17a.23.23 0 01-.15-.15l-.4-1.69a.63.63 0 00-.58-.46H269a.63.63 0 00-.58.46l-.39 1.67a.29.29 0 01-.17.17 6.39 6.39 0 00-.83.31.26.26 0 01-.21 0l-1.4-1a.63.63 0 00-.74 0l-.9.76a.64.64 0 00-.15.73l.77 1.53a.31.31 0 010 .23 4.51 4.51 0 00-.44.77.26.26 0 01-.19.13l-1.73.1a.64.64 0 00-.55.49l-.21 1.17a.65.65 0 00.35.65l1.58.68a.24.24 0 01.14.18 6.49 6.49 0 00.16.88.26.26 0 01-.06.21l-1.26 1.19a.64.64 0 00-.11.74l.59 1a.63.63 0 00.69.27l1.65-.49a.24.24 0 01.23.06 7.1 7.1 0 00.67.56.22.22 0 01.1.2l-.2 1.72a.65.65 0 00.39.64l1.1.4a.65.65 0 00.71-.23l1-1.52a.26.26 0 01.21-.11h.88a.26.26 0 01.2.1l.95 1.44a.65.65 0 00.71.24l1.11-.41a.63.63 0 00.38-.63l-.12-1.08h26.06a2.85 2.85 0 002.84-2.84v-6.2a2.84 2.84 0 00-2.89-2.8z" transform="translate(-4.99 -1.05)"/><rect class="cls-16" x="264.62" y="97.63" width="11.88" height="11.87" rx="2.83"/><path class="cls-16" d="M299.34 79.65h-23.87a.18.18 0 00-.05-.07l-.9-.76a.66.66 0 00-.74 0l-1.14.85h-.2a3.39 3.39 0 00-.64.07l-.47-.17a.23.23 0 01-.15-.15l-.4-1.69a.63.63 0 00-.58-.46H269a.63.63 0 00-.58.46l-.42 1.65a.29.29 0 01-.17.17 8.29 8.29 0 00-.83.31.26.26 0 01-.21 0l-1.4-1a.66.66 0 00-.74 0l-.9.76a.64.64 0 00-.15.73l.77 1.54a.28.28 0 010 .22 6 6 0 00-.44.78.28.28 0 01-.19.12l-1.73.1a.64.64 0 00-.55.5l-.21 1.16a.65.65 0 00.35.65l1.58.68a.28.28 0 01.14.18 6.49 6.49 0 00.16.88.26.26 0 01-.06.21l-1.26 1.2a.62.62 0 00-.11.73l.59 1a.6.6 0 00.69.27l1.65-.49a.24.24 0 01.23.06 7.1 7.1 0 00.67.56.26.26 0 01.1.2l-.2 1.73a.63.63 0 00.39.63l1.1.4a.65.65 0 00.71-.23L269 92a.23.23 0 01.21-.1h.88a.26.26 0 01.2.1l.95 1.45a.65.65 0 00.71.23l1.11-.4a.63.63 0 00.38-.63l-.12-1.09h26.06a2.86 2.86 0 002.84-2.83v-6.25a2.84 2.84 0 00-2.85-2.83zM222.4 88.69v-6.21a2.83 2.83 0 00-2.83-2.83H195.7v-.07l-.9-.76a.66.66 0 00-.74 0l-1.14.85h-.2a3.39 3.39 0 00-.64.07l-.47-.17a.23.23 0 01-.15-.15l-.46-1.71a.63.63 0 00-.58-.46h-1.18a.63.63 0 00-.58.46l-.4 1.67a.23.23 0 01-.16.17 8.29 8.29 0 00-.83.31.26.26 0 01-.21 0l-1.4-1a.66.66 0 00-.74 0l-.9.76a.64.64 0 00-.15.73l.77 1.54a.28.28 0 010 .22 7.44 7.44 0 00-.44.78.23.23 0 01-.2.11l-1.73.1a.64.64 0 00-.55.5l-.21 1.16a.65.65 0 00.35.65l1.58.68a.28.28 0 01.14.18 6.49 6.49 0 00.16.88.26.26 0 01-.06.21l-1.26 1.2a.62.62 0 00-.11.73l.59 1a.6.6 0 00.69.27l1.65-.49a.24.24 0 01.23.06 7.1 7.1 0 00.67.56.2.2 0 01.09.2l-.23 1.72a.63.63 0 00.39.63l1.1.4a.65.65 0 00.71-.23l.94-1.44a.26.26 0 01.22-.1h.88a.23.23 0 01.19.1l1 1.45a.63.63 0 00.7.23l1.11-.4a.63.63 0 00.39-.63l-.12-1.09h26.06a2.85 2.85 0 002.83-2.84zM254.16 56H230.3l-.06-.07-.9-.75a.63.63 0 00-.74 0l-1.14.85h-.2a2.72 2.72 0 00-.63.08 4.59 4.59 0 00-.48-.17.29.29 0 01-.15-.16l-.4-1.69a.63.63 0 00-.58-.46h-1.18a.63.63 0 00-.58.46l-.4 1.68a.29.29 0 01-.17.17 6.34 6.34 0 00-.83.3.2.2 0 01-.21 0l-1.39-1a.6.6 0 00-.74 0l-.91.75a.64.64 0 00-.15.73l.77 1.54a.22.22 0 010 .22 6 6 0 00-.44.78.23.23 0 01-.18.12l-1.73.11a.63.63 0 00-.56.49l-.2 1.16a.61.61 0 00.35.65l1.58.69a.24.24 0 01.13.18 6.64 6.64 0 00.16.87.25.25 0 01-.06.22L217 64.91a.64.64 0 00-.11.73l.59 1a.65.65 0 00.69.28l1.65-.49a.31.31 0 01.23 0c.22.2.44.39.68.57a.25.25 0 01.09.2l-.2 1.72a.63.63 0 00.39.63l1.11.4a.62.62 0 00.7-.23l1-1.44a.28.28 0 01.21-.1h.88a.26.26 0 01.2.1l1 1.45a.62.62 0 00.7.23l1.11-.4a.63.63 0 00.39-.63l-.13-1.09h26.06a2.84 2.84 0 002.76-2.77v-6.21a2.84 2.84 0 00-2.82-2.86zM43.31 57.35H19.44l-.05-.06-.9-.76a.63.63 0 00-.74 0l-1.14.84h-.2a2.74 2.74 0 00-.64.08 3.75 3.75 0 00-.47-.17.26.26 0 01-.15-.16l-.4-1.69a.63.63 0 00-.58-.46H13a.64.64 0 00-.59.46L12 57.09a.29.29 0 01-.17.17 6.34 6.34 0 00-.83.3.2.2 0 01-.21 0l-1.4-1a.63.63 0 00-.74 0l-.9.76a.6.6 0 00-.15.68l.77 1.54a.31.31 0 010 .23 4.51 4.51 0 00-.44.77.29.29 0 01-.18.13L6 60.78a.61.61 0 00-.55.49l-.21 1.16a.64.64 0 00.36.65l1.58.69a.24.24 0 01.13.18 6.64 6.64 0 00.16.87.29.29 0 01-.06.22l-1.25 1.19a.62.62 0 00-.11.73l.59 1a.65.65 0 00.69.27L9 67.77a.31.31 0 01.23 0c.21.2.44.39.67.57a.2.2 0 01.1.2l-.2 1.72a.63.63 0 00.39.63l1.11.4a.62.62 0 00.7-.23l1-1.44a.28.28 0 01.21-.1H14a.25.25 0 01.2.09l.95 1.45a.63.63 0 00.71.23l1.11-.4a.61.61 0 00.38-.63l-.12-1.09h26a2.85 2.85 0 002.84-2.83v-6.16a2.85 2.85 0 00-2.76-2.83zM43.31 97.15H19.44l-.05-.06-.9-.76a.63.63 0 00-.74 0l-1.14.84h-.2a2.74 2.74 0 00-.64.08l-.47-.17a.26.26 0 01-.15-.16l-.4-1.68a.63.63 0 00-.58-.46H13a.62.62 0 00-.59.46L12 96.89a.29.29 0 01-.17.17 6.34 6.34 0 00-.83.3.2.2 0 01-.21 0l-1.4-1a.63.63 0 00-.74 0l-.9.76a.64.64 0 00-.15.73l.77 1.53a.31.31 0 010 .23 4.51 4.51 0 00-.44.77.29.29 0 01-.18.13l-1.74.1a.64.64 0 00-.55.49l-.21 1.16a.65.65 0 00.36.66l1.58.68a.27.27 0 01.13.18 6.49 6.49 0 00.16.88.26.26 0 01-.06.21L6.16 106a.62.62 0 00-.11.73l.59 1a.63.63 0 00.69.27l1.67-.43a.27.27 0 01.23.05 5.18 5.18 0 00.67.57.22.22 0 01.1.2l-.2 1.72a.63.63 0 00.39.63l1.11.41a.64.64 0 00.7-.24l.95-1.43a.26.26 0 01.21-.11H14a.29.29 0 01.2.09l.95 1.45a.65.65 0 00.71.24l1.11-.41a.61.61 0 00.38-.63l-.1-1.11h26.06a2.85 2.85 0 002.84-2.84V100a2.85 2.85 0 00-2.84-2.85zM102.09 97.15H78.22v-.06l-.9-.76a.63.63 0 00-.74 0l-1.14.84h-.2a2.74 2.74 0 00-.64.08l-.47-.17a.26.26 0 01-.15-.16l-.4-1.68a.63.63 0 00-.58-.46h-1.24a.63.63 0 00-.58.46l-.39 1.67a.29.29 0 01-.17.17 6.34 6.34 0 00-.83.3.2.2 0 01-.21 0l-1.4-1a.63.63 0 00-.74 0l-.9.76a.64.64 0 00-.15.73l.77 1.53a.31.31 0 010 .23 4.51 4.51 0 00-.44.77.29.29 0 01-.19.13l-1.73.1a.64.64 0 00-.55.49l-.25 1.11a.65.65 0 00.36.66l1.58.68a.27.27 0 01.13.18 6.49 6.49 0 00.16.88.26.26 0 01-.06.21L64.94 106a.62.62 0 00-.11.73l.59 1a.63.63 0 00.69.27l1.65-.49a.27.27 0 01.23 0 5.18 5.18 0 00.67.57.22.22 0 01.1.2l-.2 1.72a.63.63 0 00.39.63l1.1.41a.65.65 0 00.71-.24l.95-1.43a.26.26 0 01.21-.11h.88a.29.29 0 01.2.09l1 1.45a.65.65 0 00.71.24l1.11-.41a.63.63 0 00.38-.63l-.2-1h26.06a2.85 2.85 0 002.84-2.84V100a2.85 2.85 0 00-2.81-2.85zM43.31 181.88H19.44l-.05-.07-.9-.75a.63.63 0 00-.74 0l-1.14.85h-.2a2.74 2.74 0 00-.64.08 3.75 3.75 0 00-.47-.17.26.26 0 01-.15-.16l-.4-1.69a.63.63 0 00-.58-.46H13a.64.64 0 00-.59.46l-.41 1.65a.29.29 0 01-.17.17 6.34 6.34 0 00-.83.3.2.2 0 01-.21 0l-1.4-1a.63.63 0 00-.74 0l-.9.75a.64.64 0 00-.15.73l.77 1.54a.28.28 0 010 .22 6 6 0 00-.44.78.23.23 0 01-.18.12l-1.75.08a.61.61 0 00-.55.49l-.2 1.2a.64.64 0 00.36.65l1.58.69a.24.24 0 01.13.18 6.64 6.64 0 00.16.87.29.29 0 01-.06.22l-1.26 1.19a.62.62 0 00-.11.73l.59 1a.65.65 0 00.69.28l1.65-.5a.32.32 0 01.23.06 7.1 7.1 0 00.67.56.25.25 0 01.1.21l-.2 1.72a.63.63 0 00.39.63l1.11.4a.62.62 0 00.7-.23l.95-1.44a.28.28 0 01.21-.1H14a.26.26 0 01.2.1l.95 1.45a.63.63 0 00.71.23l1.11-.4a.61.61 0 00.38-.63l-.12-1.09h26.08a2.85 2.85 0 002.84-2.78v-6.21a2.84 2.84 0 00-2.82-2.86zM95.71 144.24H71.84v-.07l-.9-.76a.66.66 0 00-.74 0l-1.14.85h-.2a2.74 2.74 0 00-.64.08c-.15-.06-.31-.13-.47-.18a.23.23 0 01-.15-.15l-.41-1.69a.63.63 0 00-.58-.46h-1.23a.63.63 0 00-.58.46l-.4 1.68a.26.26 0 01-.16.18 6.34 6.34 0 00-.83.3.26.26 0 01-.21 0l-1.4-1a.66.66 0 00-.74 0l-.9.76a.64.64 0 00-.16.76l.77 1.54a.28.28 0 010 .22 6.06 6.06 0 00-.45.78.23.23 0 01-.18.12l-1.73.1a.63.63 0 00-.55.5l-.21 1.16a.65.65 0 00.35.58l1.58.69a.24.24 0 01.14.17 6.49 6.49 0 00.16.88.26.26 0 01-.06.21l-1.26 1.2a.62.62 0 00-.11.73l.59 1a.6.6 0 00.69.27l1.65-.49a.27.27 0 01.23.06 7.1 7.1 0 00.67.56.26.26 0 01.1.2l-.2 1.73a.63.63 0 00.39.63l1.1.4a.63.63 0 00.71-.23l.94-1.44a.26.26 0 01.22-.1h.88a.26.26 0 01.2.1l.95 1.45a.65.65 0 00.71.23l1.1-.4a.63.63 0 00.39-.63l-.12-1.09h26.06a2.85 2.85 0 002.84-2.83v-6.21a2.84 2.84 0 00-2.83-2.85zM223.68 156.11a2.85 2.85 0 002.84-2.83v-6.21a2.85 2.85 0 00-2.84-2.83h-23.87l-.05-.07-.9-.76a.66.66 0 00-.74 0l-1.14.85h-.2a2.74 2.74 0 00-.64.08c-.15-.06-.31-.13-.47-.18a.23.23 0 01-.15-.15l-.41-1.69a.63.63 0 00-.58-.46h-1.18a.63.63 0 00-.58.46l-.4 1.67a.26.26 0 01-.16.18 6.34 6.34 0 00-.83.3.26.26 0 01-.21 0l-1.4-1a.66.66 0 00-.74 0l-.9.76a.64.64 0 00-.15.73l.77 1.54a.28.28 0 010 .22 6.06 6.06 0 00-.45.78.23.23 0 01-.18.12l-1.73.1a.64.64 0 00-.55.5l-.21 1.16a.65.65 0 00.35.65l1.58.69a.26.26 0 01.14.17 6.49 6.49 0 00.16.88.26.26 0 01-.06.21l-1.26 1.2a.62.62 0 00-.11.73l.59 1a.6.6 0 00.69.27l1.65-.49a.27.27 0 01.23.06 7.1 7.1 0 00.67.56.26.26 0 01.1.2l-.2 1.73a.63.63 0 00.39.63l1.1.4a.63.63 0 00.71-.23l.94-1.44a.26.26 0 01.22-.1h.88a.26.26 0 01.2.1l1 1.45a.65.65 0 00.71.23l1.1-.4a.62.62 0 00.39-.63l-.12-1.09zM95.71 117.71H71.84v-.06l-.9-.76a.63.63 0 00-.74 0l-1.14.84h-.2a2.74 2.74 0 00-.64.08l-.47-.17a.23.23 0 01-.15-.15l-.41-1.69a.62.62 0 00-.58-.46h-1.23a.63.63 0 00-.58.46l-.4 1.67a.23.23 0 01-.16.17 6.39 6.39 0 00-.83.31.26.26 0 01-.21 0l-1.4-1a.63.63 0 00-.74 0l-.9.76a.64.64 0 00-.15.73l.77 1.53a.31.31 0 010 .23 6 6 0 00-.45.77.23.23 0 01-.18.13l-1.73.1a.64.64 0 00-.55.49l-.21 1.17a.65.65 0 00.35.65l1.58.68a.26.26 0 01.14.18 6.49 6.49 0 00.16.88.26.26 0 01-.06.21l-1.26 1.19a.64.64 0 00-.11.74l.59 1a.63.63 0 00.69.27l1.65-.49a.24.24 0 01.23.06 7.1 7.1 0 00.67.56.22.22 0 01.1.2l-.2 1.72a.65.65 0 00.39.64l1.1.4a.65.65 0 00.71-.23l.94-1.44a.27.27 0 01.22-.11h.88a.26.26 0 01.2.1l1 1.44a.64.64 0 00.71.24l1.1-.41a.63.63 0 00.39-.63l-.12-1.08h26a2.85 2.85 0 002.84-2.84v-6.2a2.86 2.86 0 00-2.82-2.88zM148.74 131h-23.87l-.05-.06-.91-.76a.63.63 0 00-.74 0L122 131h-.2a3.4 3.4 0 00-.64.08l-.47-.17a.23.23 0 01-.15-.15l-.41-1.69a.63.63 0 00-.58-.46h-1.18a.63.63 0 00-.58.46l-.4 1.67a.23.23 0 01-.16.17 8.29 8.29 0 00-.83.31.41.41 0 01-.22 0l-1.39-1a.66.66 0 00-.74 0l-.9.76a.64.64 0 00-.15.73l.76 1.54a.22.22 0 010 .22 8.46 8.46 0 00-.44.77.23.23 0 01-.18.13l-1.73.1a.64.64 0 00-.55.49l-.21 1.17a.63.63 0 00.35.65l1.58.68a.28.28 0 01.14.18 6.47 6.47 0 00.15.88.23.23 0 01-.05.21l-1.26 1.19a.64.64 0 00-.11.74l.59 1a.63.63 0 00.69.27l1.65-.49a.24.24 0 01.23.06 6 6 0 00.67.56.25.25 0 01.09.2l-.19 1.73a.61.61 0 00.38.63l1.11.4a.65.65 0 00.71-.23l.94-1.44a.23.23 0 01.21-.1h.91a.26.26 0 01.2.1l1 1.45a.63.63 0 00.7.23l1.11-.4a.63.63 0 00.39-.63l-.12-1.09h26.06a2.85 2.85 0 002.83-2.84v-6.2a2.84 2.84 0 00-2.81-2.87zM58.32 9.43l1.58.69a.28.28 0 01.14.18 4.4 4.4 0 00.15.87.23.23 0 01-.06.22l-1.26 1.19a.65.65 0 00-.1.73l.59 1a.63.63 0 00.69.28l1.65-.49a.25.25 0 01.22.05c.22.2.44.39.68.57a.25.25 0 01.09.2l-.2 1.72a.63.63 0 00.39.63l1.11.4a.62.62 0 00.7-.23l1-1.44a.28.28 0 01.21-.1h.88a.26.26 0 01.2.1l1 1.45a.62.62 0 00.7.23l1.11-.4a.63.63 0 00.39-.63L70 15.57h26a2.85 2.85 0 002.83-2.83V6.53A2.85 2.85 0 0096 3.7H72.16v-.07l-.91-.75a.63.63 0 00-.74 0l-1.13.85h-.21a2.72 2.72 0 00-.63.08 3.5 3.5 0 00-.54-.2.29.29 0 01-.15-.16l-.4-1.69a.63.63 0 00-.58-.46H65.7a.63.63 0 00-.58.46l-.4 1.68a.25.25 0 01-.16.17 6 6 0 00-.84.3.26.26 0 01-.21 0l-1.39-1a.63.63 0 00-.74 0l-.91.75a.65.65 0 00-.15.73l.77 1.54a.22.22 0 010 .22 6 6 0 00-.44.78.23.23 0 01-.18.12l-1.73.11a.63.63 0 00-.56.49L58 8.78a.6.6 0 00.32.65zM148.74 3.7h-23.87l-.05-.07-.91-.75a.63.63 0 00-.74 0L122 3.7h-.2a2.74 2.74 0 00-.64.08 3.75 3.75 0 00-.47-.17.26.26 0 01-.15-.16l-.41-1.69a.63.63 0 00-.58-.46h-1.18a.63.63 0 00-.58.46l-.4 1.68a.25.25 0 01-.16.17 6.34 6.34 0 00-.83.3.28.28 0 01-.22 0l-1.39-1a.63.63 0 00-.74 0l-.9.75a.64.64 0 00-.15.73l.76 1.54a.22.22 0 010 .22 7.44 7.44 0 00-.44.78.22.22 0 01-.18.12l-1.73.11a.61.61 0 00-.55.49l-.21 1.16a.62.62 0 00.35.65l1.58.69a.28.28 0 01.14.18 6.6 6.6 0 00.15.87.25.25 0 01-.05.22l-1.26 1.19a.62.62 0 00-.11.73l.59 1a.63.63 0 00.69.28l1.65-.49a.28.28 0 01.23 0c.21.2.44.39.67.57a.25.25 0 01.09.2l-.19 1.72a.61.61 0 00.38.63l1.11.4a.63.63 0 00.71-.23l.94-1.44a.28.28 0 01.21-.1h.88a.26.26 0 01.2.1l1 1.45a.62.62 0 00.7.23l1.11-.4a.63.63 0 00.39-.63l-.12-1.09h26.06a2.83 2.83 0 002.83-2.83V6.53a2.83 2.83 0 00-2.83-2.83zM148.74 30.52h-23.87l-.05-.06-.91-.76a.63.63 0 00-.74 0l-1.13.84h-.2a2.74 2.74 0 00-.64.08l-.47-.17a.23.23 0 01-.15-.15l-.41-1.69a.63.63 0 00-.58-.46h-1.18a.63.63 0 00-.58.46l-.4 1.67a.23.23 0 01-.16.17 8.29 8.29 0 00-.83.31.28.28 0 01-.22 0l-1.39-1a.66.66 0 00-.74 0l-.9.76a.64.64 0 00-.15.73l.76 1.54a.22.22 0 010 .22 7.3 7.3 0 00-.44.77.23.23 0 01-.18.13l-1.73.1a.64.64 0 00-.55.49l-.21 1.17a.63.63 0 00.35.65l1.58.68a.28.28 0 01.14.18 6.47 6.47 0 00.15.88.23.23 0 010 .21l-1.26 1.19a.64.64 0 00-.11.74l.59 1a.63.63 0 00.69.27l1.65-.49a.24.24 0 01.23.06 6 6 0 00.67.56.25.25 0 01.09.2l-.19 1.72a.63.63 0 00.38.64l1.11.4a.65.65 0 00.71-.23l.94-1.44a.26.26 0 01.21-.11h.88a.26.26 0 01.2.1l1 1.45a.63.63 0 00.7.23l1.11-.4a.65.65 0 00.39-.64l-.12-1.08h26.06a2.85 2.85 0 002.83-2.84v-6.2a2.84 2.84 0 00-2.8-2.88zM148.74 56.69h-23.87l-.05-.07-.91-.75a.63.63 0 00-.74 0l-1.13.85h-.2a2.74 2.74 0 00-.64.08 3.75 3.75 0 00-.47-.17.26.26 0 01-.15-.16l-.41-1.69a.63.63 0 00-.58-.46h-1.18a.63.63 0 00-.58.46l-.4 1.68a.25.25 0 01-.16.17 6.34 6.34 0 00-.83.3.28.28 0 01-.22 0l-1.39-1a.63.63 0 00-.74 0l-.9.75a.64.64 0 00-.15.73l.76 1.59a.22.22 0 010 .22 7.44 7.44 0 00-.44.78.22.22 0 01-.18.12l-1.73.11a.61.61 0 00-.55.49l-.21 1.16a.62.62 0 00.35.65l1.58.69a.28.28 0 01.14.18 6.6 6.6 0 00.15.87.25.25 0 010 .22l-1.26 1.19a.62.62 0 00-.11.73l.59 1a.63.63 0 00.69.28l1.65-.49a.31.31 0 01.23 0c.21.2.44.39.67.57a.25.25 0 01.09.2l-.19 1.72a.61.61 0 00.38.63l1.11.4a.63.63 0 00.71-.23l.94-1.44a.28.28 0 01.21-.1h.88a.22.22 0 01.2.09l1 1.45a.62.62 0 00.7.23l1.11-.4a.63.63 0 00.39-.63l-.12-1.09h26.06a2.83 2.83 0 002.83-2.83v-6.2a2.83 2.83 0 00-2.83-2.83zM126.11 115.24h6.21a2.83 2.83 0 012.83 2.83v6.2a2.85 2.85 0 01-2.83 2.84h-6.21a2.83 2.83 0 01-2.83-2.83v-6.2a2.83 2.83 0 012.83-2.83zM163.74 62.09l1.58.69a.28.28 0 01.14.18 6.64 6.64 0 00.16.87.29.29 0 01-.06.22l-1.26 1.19a.62.62 0 00-.11.73l.59 1a.63.63 0 00.69.28l1.65-.49a.31.31 0 01.23 0c.21.2.44.39.67.57a.26.26 0 01.1.2l-.2 1.72a.63.63 0 00.39.63l1.1.4a.63.63 0 00.71-.23l.94-1.44a.32.32 0 01.22-.1h.88a.25.25 0 01.2.09l.95 1.45a.62.62 0 00.7.23l1.11-.4a.62.62 0 00.39-.63l-.12-1.09h26.06a2.85 2.85 0 002.84-2.83v-6.14a2.85 2.85 0 00-2.84-2.83h-23.87l-.05-.07-.9-.75a.63.63 0 00-.74 0l-1.14.85h-.2a2.74 2.74 0 00-.64.08 3.75 3.75 0 00-.47-.17.26.26 0 01-.15-.16l-.41-1.69a.63.63 0 00-.58-.46h-1.18a.63.63 0 00-.58.46l-.4 1.68a.25.25 0 01-.16.17 6.34 6.34 0 00-.83.3.2.2 0 01-.21 0l-1.4-1a.63.63 0 00-.74 0l-.9.75a.64.64 0 00-.15.73l.77 1.54a.28.28 0 010 .22 6.06 6.06 0 00-.45.78.22.22 0 01-.18.12l-1.73.11a.61.61 0 00-.55.49l-.21 1.16a.63.63 0 00.34.59zM43.31 3.7H19.44l-.05-.07-.9-.75a.63.63 0 00-.74 0l-1.14.85h-.2a2.74 2.74 0 00-.64.08 3.75 3.75 0 00-.47-.17.26.26 0 01-.15-.16l-.4-1.69a.63.63 0 00-.58-.46H13a.64.64 0 00-.59.46L12 3.44a.29.29 0 01-.17.17 6.34 6.34 0 00-.83.3.2.2 0 01-.21 0l-1.4-1a.63.63 0 00-.74 0l-.9.75a.64.64 0 00-.15.73l.78 1.51a.28.28 0 010 .22 6 6 0 00-.44.78.24.24 0 01-.19.1L6 7.13a.61.61 0 00-.55.49l-.2 1.16a.64.64 0 00.36.65l1.58.69a.24.24 0 01.13.18 6.64 6.64 0 00.16.87.29.29 0 01-.06.22l-1.26 1.19a.62.62 0 00-.11.73l.59 1a.65.65 0 00.69.28L9 14.12a.27.27 0 01.23.05c.21.2.44.39.67.57a.2.2 0 01.1.2l-.2 1.72a.63.63 0 00.39.63l1.11.4a.62.62 0 00.7-.23l.93-1.46a.28.28 0 01.21-.1H14a.26.26 0 01.2.1l.95 1.45a.63.63 0 00.71.23l1.11-.4a.61.61 0 00.38-.63l-.12-1.09h26.08a2.85 2.85 0 002.84-2.83v-6.2a2.85 2.85 0 00-2.84-2.83zM43.31 30.52H19.44l-.05-.06-.9-.76a.63.63 0 00-.74 0l-1.14.84h-.2a2.74 2.74 0 00-.64.08l-.47-.17a.23.23 0 01-.15-.15l-.4-1.69a.63.63 0 00-.58-.46H13a.62.62 0 00-.59.46L12 30.26a.29.29 0 01-.17.17 8.29 8.29 0 00-.83.31.26.26 0 01-.21 0l-1.4-1a.66.66 0 00-.74 0l-.9.76a.64.64 0 00-.15.73l.77 1.54a.28.28 0 010 .22 4.51 4.51 0 00-.44.77.24.24 0 01-.18.13L6 34a.64.64 0 00-.55.49l-.21 1.17a.64.64 0 00.36.65l1.58.69a.27.27 0 01.13.18 6.49 6.49 0 00.16.88.26.26 0 01-.06.21L6.16 39.4a.64.64 0 00-.11.74l.59 1a.63.63 0 00.69.27L9 40.94a.24.24 0 01.23.06 7.1 7.1 0 00.67.56.22.22 0 01.1.2l-.2 1.72a.63.63 0 00.39.64l1.11.4a.63.63 0 00.7-.23l1-1.44a.26.26 0 01.21-.11H14a.26.26 0 01.2.1l.95 1.45a.65.65 0 00.71.23l1.11-.4a.63.63 0 00.38-.64l-.12-1.08h26a2.85 2.85 0 002.84-2.84v-6.2a2.85 2.85 0 00-2.76-2.84zM43.31 77.25H32.15a5.94 5.94 0 000 11.88h11.16a2.85 2.85 0 002.84-2.84v-6.2a2.85 2.85 0 00-2.84-2.84zM194.08 98.68a5.94 5.94 0 000 11.88h11.17a2.85 2.85 0 002.83-2.84v-6.2a2.85 2.85 0 00-2.83-2.84zM236 181.69h-11.13a5.94 5.94 0 000 11.88H236a2.85 2.85 0 002.84-2.84v-6.2a2.85 2.85 0 00-2.84-2.84z" transform="translate(-4.99 -1.05)"/><path d="M241.42 181.11a6.5 6.5 0 001.08-.24 8 8 0 003-1.71l3.66 9.28a19.29 19.29 0 01-3 2.48 6.43 6.43 0 01-3.4 1.24 2.5 2.5 0 01-2.2-1.09c.56-.52 2-1.51 2.47-1.18s-.44 1.48-.44 1.48c1.3-1 1.34-1.58 1.24-1.87l-.33-.46m.21.28l-4.3-9.69a6.7 6.7 0 00-1-.05 11.35 11.35 0 00-3.17.45 10.6 10.6 0 00-3.8 2l4.65 11.8a26.42 26.42 0 013.58-3.19 6.62 6.62 0 013.36-1.46 1.71 1.71 0 01.67.14z" stroke-width=".25" stroke="#231f20" stroke-linejoin="round" fill="none"/><path class="cls-12" d="M250.52 180.21a8 8 0 01-3 1.71 6.5 6.5 0 01-1.08.24l2.4 8.39c.1.29.06.89-1.24 1.87 0 0 .9-1.15.44-1.48s-1.91.66-2.47 1.18a2.5 2.5 0 002.2 1.09 6.43 6.43 0 003.4-1.24 19.77 19.77 0 003-2.48z" transform="translate(-4.99 -1.05)"/><path class="cls-11" d="M251 191.66a19.39 19.39 0 002.77-2.26l-1.1-2.76a14.29 14.29 0 01-2.76 2zM251.48 183.54l-1.1-2.78a8.35 8.35 0 01-2.78 1.47l1.13 3.1a10.84 10.84 0 002.75-1.79z" transform="translate(-4.99 -1.05)"/><path class="cls-11" d="M249.94 188.67l-1.21-3.34a8.52 8.52 0 01-1.3.41l1 3.57a8.35 8.35 0 001.51-.64z" transform="translate(-4.99 -1.05)"/><path class="cls-12" d="M243.43 180.63a11.35 11.35 0 00-3.17.45 10.6 10.6 0 00-3.8 2l4.65 11.8a26.42 26.42 0 013.58-3.19 6.62 6.62 0 013.36-1.46 1.54 1.54 0 01.64.11l-4.3-9.69a8.37 8.37 0 00-1-.05z" transform="translate(-4.99 -1.05)"/><path class="cls-11" d="M243.43 181a11.22 11.22 0 00-3 .44l1.44 3.47a12.59 12.59 0 013.61-1l-1.31-2.91zM243.31 188.4l1.25 3a6.61 6.61 0 013.49-1.47h.08l-1.27-2.87a8.14 8.14 0 00-3.55 1.34zM241.83 184.86a16.18 16.18 0 00-3.56 2l1.55 3.93a29.26 29.26 0 013.49-2.36z" transform="translate(-4.99 -1.05)"/><path stroke-width=".65" stroke="#231f20" stroke-linejoin="round" stroke-linecap="round" fill="none" d="M153.06 161.39v-2.78h-36.34"/><text transform="translate(116.66 154.95)" style="isolation:isolate" font-family="Helvetica" font-size="8.5" fill="#231f20">Zona de Boxes</text><text class="cls-20" transform="translate(58.58 189.61)">8</text><text class="cls-21" transform="translate(76.31 189.61)">347</text><text class="cls-20" transform="translate(111.61 189.61)">8</text><text class="cls-21" transform="translate(129.34 189.61)">320</text><text class="cls-20" transform="translate(164.32 189.61)">8</text><text class="cls-21" transform="translate(182.05 189.61)">305</text><text class="cls-20" transform="translate(262.21 189.61)">4</text><text class="cls-21" transform="translate(279.94 189.61)">190</text><text class="cls-20" transform="translate(262.21 125.63)">3</text><text class="cls-21" transform="translate(279.94 125.63)">105</text><text class="cls-20" transform="translate(262.21 87.56)">3</text><g class="cls-22"><text transform="translate(280.17 87.56)" style="isolation:isolate" letter-spacing="-.05em" font-family="Helvetica-Bold,Helvetica" font-weight="700" font-size="8.5" fill="#fff">1</text><text class="cls-21" transform="translate(284.43 87.56)">15</text></g><text class="cls-20" transform="translate(182.44 87.56)">8</text><text class="cls-21" transform="translate(200.17 87.56)">312</text><text class="cls-20" transform="translate(217.04 63.95)">3</text><text class="cls-21" transform="translate(234.76 63.95)">130</text><text class="cls-20" transform="translate(6.18 65.27)">8</text><text class="cls-21" transform="translate(23.91 65.27)">320</text><text class="cls-20" transform="translate(6.18 105.07)">7</text><text class="cls-21" transform="translate(23.91 105.07)">285</text><text class="cls-20" transform="translate(64.96 105.07)">5</text><text class="cls-21" transform="translate(82.69 105.07)">190</text><text class="cls-20" transform="translate(6.18 189.79)">3</text><text class="cls-21" transform="translate(23.91 189.79)">105</text><text class="cls-20" transform="translate(58.58 152.15)">3</text><text class="cls-21" transform="translate(76.31 152.15)">120</text><text class="cls-20" transform="translate(186.55 152.15)">2</text><text class="cls-21" transform="translate(206.64 152.15)">80</text><text class="cls-20" transform="translate(58.58 125.63)">6</text><text class="cls-21" transform="translate(76.31 125.63)">235</text><text class="cls-20" transform="translate(111.61 138.89)">6</text><text class="cls-21" transform="translate(129.33 138.89)">240</text><text class="cls-20" transform="translate(58.9 11.62)">2</text><text class="cls-21" transform="translate(78.99 11.62)">90</text><text class="cls-20" transform="translate(111.61 11.62)">2</text><text class="cls-21" transform="translate(131.7 11.62)">85</text><text class="cls-20" transform="translate(111.61 38.44)">6</text><text class="cls-21" transform="translate(129.34 38.44)">260</text><text class="cls-20" transform="translate(111.61 64.61)">6</text><text class="cls-21" transform="translate(129.34 64.61)">255</text><text class="cls-20" transform="translate(164.32 64.28)">5</text><text class="cls-21" transform="translate(182.05 64.28)">220</text><text class="cls-20" transform="translate(6.18 11.62)">2</text><text class="cls-21" transform="translate(26.27 11.62)">75</text><text class="cls-20" transform="translate(6.18 38.44)">2</text><text class="cls-21" transform="translate(23.91 38.44)">105</text><text class="cls-20" transform="translate(33.89 85.17)">1</text><text class="cls-20" transform="translate(195.82 106.6)">2</text><text class="cls-20" transform="translate(226.61 189.61)">3</text><text class="cls-24" transform="translate(48.49 162.91)">1</text><text class="cls-24" transform="translate(45 145.91)">2</text><text class="cls-24" transform="translate(27.88 150.24)">3</text><text class="cls-24" transform="translate(63.71 53.58)">4</text><text class="cls-24" transform="translate(59.21 34.58)">5</text><text class="cls-24" transform="translate(77.88 35.91)">6</text><text class="cls-24" transform="translate(80.21 86.58)">7</text><text class="cls-24" transform="translate(93.62 92.24)">8</text><text class="cls-24" transform="translate(110.54 90.74)">9</text><text class="cls-24" transform="translate(128.26 108.91)">10</text><g class="cls-22"><text transform="translate(139.13 123.24)" style="isolation:isolate" letter-spacing="-.13em" fill="#ec174c" font-size="7.5" font-family="Helvetica-Bold,Helvetica" font-weight="700">1</text><text class="cls-24" transform="translate(142.29 123.24)">1</text></g><text class="cls-24" transform="translate(221.76 133.58)">12</text><text class="cls-24" transform="translate(231.82 159.91)">13</text><text class="cls-24" transform="translate(246.09 155.91)">14</text><text class="cls-24" transform="translate(255.51 140.24)">15</text><text class="cls-24" transform="translate(271.67 154.58)">16</text><text class="cls-24" transform="translate(261.34 173.06)">17</text><text class="cls-26" transform="translate(50.49 161.41)">1</text><text class="cls-26" transform="translate(44.19 144.57)">2</text><text class="cls-26" transform="translate(26.63 151.32)">3</text><text class="cls-26" transform="translate(61.13 54.57)">4</text><text class="cls-26" transform="translate(57.69 33.82)">5</text><text class="cls-26" transform="translate(76.63 38.07)">6</text><text class="cls-26" transform="translate(92.94 73.82)">7</text><text class="cls-26" transform="translate(91.99 93.07)">8</text><text class="cls-26" transform="translate(113.63 90.82)">9</text><text class="cls-26" transform="translate(127.42 109.07)">10</text><g class="cls-22"><text transform="translate(138.16 124.07)" style="isolation:isolate" letter-spacing="-.13em" font-size="7.5" font-family="Helvetica-Bold,Helvetica" font-weight="700" fill="#fff">1</text><text class="cls-26" transform="translate(141.32 124.07)">1</text></g><text class="cls-26" transform="translate(221.67 134.07)">12</text><text class="cls-26" transform="translate(231.17 160.07)">13</text><text class="cls-26" transform="translate(247.17 156.57)">14</text><text class="cls-26" transform="translate(254.67 139.07)">15</text><text class="cls-26" transform="translate(270.67 141.57)">16</text><text class="cls-26" transform="translate(261.17 174.32)">17</text></g></svg>